<svg xmlns="http://www.w3.org/2000/svg" viewBox="0 0 940.61 876.4"><defs><style>.cls-1{fill:#020303;}.cls-2{fill:#070908;}.cls-3{fill:#040505;}.cls-4{fill:#050605;}.cls-5{fill:#0b0e0d;}.cls-6{fill:#1a201d;}.cls-7{fill:#1d2120;}.cls-8{fill:#3b3c3e;}.cls-9{fill:#3f4044;}.cls-10{fill:#232827;}.cls-11{fill:#525352;}.cls-12{fill:#77a996;}.cls-13{fill:#b2b7c4;}.cls-14{fill:#89ba89;}.cls-15{fill:#719f90;}.cls-16{fill:#609367;}.cls-17{fill:#679769;}.cls-18{fill:#8ec7ac;}.cls-19{fill:#719e90;}.cls-20{fill:#aad4bf;}.cls-21{fill:#79a591;}.cls-22{fill:#46745c;}.cls-23{fill:#609267;}.cls-24{fill:#6e9c73;}.cls-25{fill:#74aa78;}.cls-26{fill:#a1ca9e;}.cls-27{fill:#98c29b;}.cls-28{fill:#a6d2bd;}.cls-29{fill:#77b49c;}.cls-30{fill:#7ba993;}.cls-31{fill:#5f9167;}.cls-32{fill:#0c140e;}.cls-33{fill:#0d1511;}.cls-34{fill:#58846c;}.cls-35{fill:#72a675;}.cls-36{fill:#71aa77;}.cls-37{fill:#c1c7d6;}.cls-38{fill:#639769;}.cls-39{fill:#c3c8d8;}.cls-40{fill:#192a1e;}.cls-41{fill:#101a13;}.cls-42{fill:#212f22;}.cls-43{fill:#2a3c36;}.cls-44{fill:#95caad;}.cls-45{fill:#5f8d86;}.cls-46{fill:#78a492;}.cls-47{fill:#8ac6ac;}.cls-48{fill:#6a978b;}.cls-49{fill:#649077;}.cls-50{fill:#7dae96;}.cls-51{fill:#5e8a85;}.cls-52{fill:#7ba289;}.cls-53{fill:#91c9ac;}.cls-54{fill:#7eaf97;}.cls-55{fill:#4d8268;}.cls-56{fill:#09100d;}.cls-57{fill:#dbdfeb;}.cls-58{fill:#cfd5e9;}.cls-59{fill:#f1f1f2;}.cls-60{fill:#eaecf3;}.cls-61{fill:#34473f;}.cls-62{fill:#273530;}.cls-63{fill:#93c9ad;}.cls-64{fill:#5a806b;}.cls-65{fill:#5d8c85;}.cls-66{fill:#669076;}.cls-67{fill:#789f8a;}.cls-68{fill:#cdd3e6;}.cls-69{fill:#d3d8e7;}.cls-70{fill:#d4d9e6;}.cls-71{fill:#f8f8f8;}.cls-72{fill:#17211f;}.cls-73{fill:#1b2823;}.cls-74{fill:#888fa1;}.cls-75{fill:#66a66d;}.cls-76{fill:#182419;}.cls-77{fill:#8ac6ab;}.cls-78{fill:#5c8783;}.cls-79{fill:#151e1c;}.cls-80{fill:#8cc6ac;}.cls-81{fill:#a2d1bd;}.cls-82{fill:#6f9f8d;}.cls-83{fill:#182823;}.cls-84{fill:#39543c;}.cls-85{fill:#78b39c;}.cls-86{fill:#0a110e;}.cls-87{fill:#0a0e0c;}.cls-88{fill:#2c4b35;}.cls-89{fill:#9ccdb8;}.cls-90{fill:#0d1110;}.cls-91{fill:#070c0a;}.cls-92{fill:#131010;}.cls-93{fill:#0e1a15;}.cls-94{fill:#030706;}.cls-95{fill:#050606;}.cls-96{fill:#080808;}.cls-97{fill:#273930;}.cls-98{fill:#7fb29b;}.cls-99{fill:#161111;}.cls-100{fill:#2d342f;}.cls-101{fill:#fdfdfd;}.cls-102{fill:#a8d3ba;}.cls-103{fill:#121d18;}.cls-104{fill:#7aab94;}.cls-105{fill:#293732;}.cls-106{fill:#1e2b25;}.cls-107{fill:#202d28;}.cls-108{fill:#060a09;}.cls-109{fill:#21302c;}.cls-110{fill:#101b17;}.cls-111{fill:#5d8972;}.cls-112{fill:#4a755d;}.cls-113{fill:#386b52;}.cls-114{fill:#4c8166;}.cls-115{fill:#629077;}.cls-116{fill:#faf9f9;}.cls-117{fill:#d9deed;}.cls-118{fill:#a9434b;}.cls-119{fill:#32292a;}.cls-120{fill:#528465;}.cls-121{fill:#c35b63;}.cls-122{fill:#aa434b;}.cls-123{fill:#b16a72;}.cls-124{fill:#4d8368;}.cls-125{fill:#b88fa4;}.cls-126{fill:#8e6b80;}.cls-127{fill:#776773;}.cls-128{fill:#bec5db;}.cls-129{fill:#a1a8bb;}.cls-130{fill:#fefefe;}.cls-131{fill:#a74049;}.cls-132{fill:#b06971;}.cls-133{fill:#d8ddec;}.cls-134{fill:#31443e;}.cls-135{fill:#c25b63;}.cls-136{fill:#000100;}.cls-137{fill:#4c6c62;}.cls-138{fill:#619076;}.cls-139{fill:#fefdfd;}</style></defs><title>Recurso 20</title><g id="Capa_2" data-name="Capa 2"><g id="Capa_1-2" data-name="Capa 1"><path class="cls-1" d="M720.12,844.35c-3.9.71-7.77,1.56-11.68,2.08-5.76.77-8.89-2.52-7.18-7.54,2.32-6.85-1.37-11.94-3-17.71-.87-2.07.37-2.95,2-3.6,12.92-2.61,22.55,2.29,30,12.75,4.75,6.65,8.67,6.09,12.86-1.23,5.69-10,13.23-11.19,22.6-4.65a32.31,32.31,0,0,1,9.29,9.16c4.4,7.09,8.1,7.48,14.15,1.17,12.46-13,16.82-13.15,29.95-1.21,5.76,5.24,10.43,5,14.74-.47,12.19-15.34,24.7-30.22,31.56-49.32,13.83-38.5,16.93-78.18,13.7-118.28-2.37-29.38-15-56-28.9-81.69-17.76-32.86-39.12-63.06-66-89.08-4.4-4.25-7.46-11-15.27-10.43a7.58,7.58,0,0,1-2.93.62,9.14,9.14,0,0,1-6.41-3.77c-10.35-14.66-25.68-23.19-40-32.9-17.48-10.13-31.94-24.57-49.45-34.66a8,8,0,0,1-3.11-3.22c-5.39-10.48-17-14.66-23.93-23.6a59.78,59.78,0,0,1-5.69-6.92,29.76,29.76,0,0,0-3.16-3.29c-14.43-11.55-27.05-24.89-38.88-37.92,5.15,26,8.6,53.55,11.75,81.12.35,3.83.26,7.72,1.57,11.42a36.8,36.8,0,0,1,.94,6.92c.12,1.83.1,3.65.11,5.49-.57,5.49,1.59,11.63-3.75,16.19-5.75-2.89-3.68-9-5.79-13.26a2089.62,2089.62,0,0,0-36.07-213.11c-.35-1.08-.64-2.19-.92-3.29a90.23,90.23,0,0,0-4.06-15.46c-1.75-7.86-4-15.54-8.33-22.42-2.32-3.59-4.35-7.4-7.83-10.09-.81-.48-1.61-1-2.43-1.44a25.37,25.37,0,0,0-15.82,1C494,188.5,464.26,198.1,436,212.11c-2.62,1.3-5.39,2.27-8.43,1.75a7.12,7.12,0,0,1-4.08-2.94c-2.4-4.45-7-4.85-11.14-5.88-23.74-5.85-48.2-6.51-72.25-10.17a11.4,11.4,0,0,1-3.24-1.3c-1.62-1.83-3.17.44-4.78.11-26.45-.17-52.89.27-79.33,0-5.28-1.72-12.62,2.63-15.81-5.3,29.87-5.55,60-4,90-2.2,4.62.28,6.75.82,7.88-4.94,5-25.45,20.17-44.47,39.91-60.25,22.11-17.68,47.09-29.84,74.21-37.64,4.47-1.28,7.71-5.83,13-4.72,2.43-1.35,4.42-1.2,5.59,1.68-.33,5.31-4.91,5.82-8.48,7.13-7.86,2.88-15.86,5.39-23.6,8.6-20.64,8.25-40.54,17.76-56.57,33.74a66.13,66.13,0,0,1-7.05,5.79c-.75.66-1.52,1.29-2.27,1.95-.34.37-.71.71-1.06,1.07-9.12,11.24-17.37,23-23.43,36.26-2.85,6.23-2.59,10.27,5.65,11,5.73.5,11.36,2,17.17,1.94a23.55,23.55,0,0,1,4.58.76,31.92,31.92,0,0,0,10.6,1.35,30.59,30.59,0,0,1,4.69.38,23.41,23.41,0,0,1,3.1.66c3.55,1.26,7.31.91,11,1.34,21.55,7.74,42.29,7.79,62.8-4.23,7.36-4.31,16.09-6.7,24.65-8.62,19.46-1.7,25.74-19.21,36.93-30.83,18.84-20.55,43.52-27.85,70.08-30.92,2.87.56,6,.73,6.48,4.67-7.31,6.67-17.32,5.8-25.82,9.16-3.64,1.44-7.46,2.43-11.12,3.82-17.16,7.09-31,18.43-42.77,33.17,2.95,3,6.38,1.66,9.22,1.45,14.92-1.12,23.61,6.38,29.43,19.37,10.07,22.48,12.43,47,19,70.34a106.2,106.2,0,0,1,2.2,10.67c.31,3.66,1.35,7.2,2,10.79a44.92,44.92,0,0,0,1.51,7.52,23.52,23.52,0,0,1,.71,3c1.61,18.46,9.4,34,22.18,47.25,35.31,36.74,72.88,70.83,115.08,99.59,1.5,1,3.14,1.82,4.74,2.7a24.34,24.34,0,0,1,2.67,1.54c1.3.82,2.54,1.73,3.78,2.63,10.3,7.11,19.53,16.4,33.37,16.27,2.08.52,4,1.28,4.57,3.66-2.72,5.53,1.55,7.78,4.9,10.52,21.25,17.39,39.29,37.73,55.09,60.13,2.52,3.58,4.82,7.29,7,11.06,1.36,2.08,3.16,3.81,4.59,5.84,3.36,6.52,8,6.68,14.33,3.95,11.82-5.11,20-14.86,30.1-22.19a77.08,77.08,0,0,1,9.13-7c-1.85,1.12-3.65,1.41-5.53.16-1.26-5.93,3.78-7.82,7-10.9.75-.68,1.52-1.34,2.25-2,.31-.41.66-.78,1-1.19.55-.91,1.12-1.78,1.66-2.69,18-24.39,21.93-53.05,24.93-82a26.51,26.51,0,0,1,.82-5.08c2.25-11.79,1-23.66.77-35.49-.39-1-.71-2-1-3-.51-1.43-1-2.88-1.45-4.33a58.27,58.27,0,0,1-1.35-5.7c-.4-1.38-.79-2.77-1.18-4.16a26.46,26.46,0,0,1-.79-5.74,28.54,28.54,0,0,0-1.23-8.46,42.43,42.43,0,0,1-1-4.29,40.15,40.15,0,0,0-1.73-5.79,485.89,485.89,0,0,0-36.09-87.45c-6.65-12.51-15.68-23.6-22.58-36-.76-1.41-1.48-2.84-2.23-4.26-.56-.92-1.05-1.88-1.52-2.84A307.77,307.77,0,0,1,834.24,155c-8-27.15-4.43-52.31,9.13-76.71,2.84-5.12,9.6-11,5.37-16.42s-11.48.54-17.45.69c-7.41.18-12,4.32-15.76,10.07a8.63,8.63,0,0,1-4.68,1.78A8.31,8.31,0,0,1,806,73.11a5.47,5.47,0,0,1-1.51-4.57A20.11,20.11,0,0,1,805.9,64c5.38-13.92,7-29,12.89-42.7a5,5,0,0,0-1.08-2,5.29,5.29,0,0,0-3.38-.28,13.27,13.27,0,0,1-2.58.31,6.57,6.57,0,0,1-3.84-1.27,1.73,1.73,0,0,1,.14-2.42c3.37-2.84,7.41-2.64,11.43-2.58,10.89.17,11.49,1.51,7.6,11.89-2.65,7.1-3.56,14.86-6.38,21.87-4.2,10.4,1.27,11.07,8.92,9.83,7.17-1.16,14.14-3.5,21.54-3,11.25.75,13.27,3.29,7.27,12.74a133.59,133.59,0,0,0-19.2,48.15c-4,22.15,3.34,42.67,11.17,62.53,13.05,33.08,34.38,61.89,50.45,93.37,10.76,21.07,20.68,42.82,26.58,66.3,5.19,20.68,10.54,41.35,12.54,62.42,2.56,26.9-3,53.28-8.78,79.64-8.73,39.61-34.49,64.9-67.27,85-6.83,4.2-9.52,9.35-5,17,17.49,29.69,25.79,62.44,29.34,96.17,3.33,31.56-.23,62.61-9.68,93.4-6.68,21.75-18.58,39.79-30.73,58.25-6.14,9.33-13.58,15.85-24.53,18.17-3.82,2.58-5.6-.73-7.86-2.69-.74-.79-1.4-1.67-2.18-2.42-3.37-3.19-6.51-7.7-12-5.06-6,2.88-4.49,8.3-3.49,13.34-1.19,2.34-2.8,2.92-5,1.21-11.84-6.85-22.64,2.69-34.21,2.31-6.84-.23-12.44.15-17.23-6-4.34-5.6-11.68-3.42-17.76-4.42C722.61,844,721.19,843.67,720.12,844.35Z"/><path class="cls-2" d="M160.3,809.67c-1.67-14-8.5-26.18-14.33-38.54-19.1-40.48-34.39-82.28-32-127.5,1.14-21.74-5.77-34-24.35-43.18-26.8-13.32-49.75-32.31-71.48-52.77C5.93,536.21-.44,523.41,0,505.58c1.29-48.93,12.65-95.25,31.5-140,2.23-.21,3.08,1.27,3.71,3,1.23,8.39-3.26,15.52-5.67,22.92-10.14,31-17.41,62.63-20.18,95.2-7.5,28.26,5.43,49.27,25.71,66.07,40,33.12,84.75,59.09,130.35,83.59,1.28.62,2.53,1.31,3.83,1.88s2.46.92,3.68,1.41,2.3.93,3.47,1.33a30.33,30.33,0,0,1,3.45,1.15c1.13.48,2.23,1,3.34,1.54.79.3,1.56.64,2.33,1a27.6,27.6,0,0,0,3.69.91,20,20,0,0,1,3.75.87c1.22.4,2.43.84,3.67,1.21s2.6.71,3.88,1.13,2.8.77,4.22,1.1a44.72,44.72,0,0,1,4.74,1.12c18.22,3,36,8.08,54.19,11.21,24.7,4.25,49.08-.41,73.59-.4a10.26,10.26,0,0,1,4.89-.24c1.41,1.32,2.89,2,4.5.25a15.57,15.57,0,0,1,5.71-1.16,26.18,26.18,0,0,0,8.43-1.11,21.41,21.41,0,0,1,2.83-.74c4.36-.7,8.87-.23,13.12-1.78a21.87,21.87,0,0,1,3-.65c3.51-.38,7.06-.46,10.46-1.63a28.47,28.47,0,0,1,6-.86,31.23,31.23,0,0,0,8.7-1.1,31.72,31.72,0,0,1,5.64-.91,18.49,18.49,0,0,0,5.38-1.25c.87-.44,1.75-.82,2.64-1.21a22,22,0,0,1,4.31-1.55c12.89-.72,24.61-6,36.31-10.48a420.85,420.85,0,0,0,63.2-30.82c2.8-1.66,5.49-3.55,8.87-3.82a4,4,0,0,1,3.82,2.31c-1.76,7.91-9.2,9.93-14.56,14.1-.74.54-1.51,1-2.28,1.54a25.58,25.58,0,0,1-2.21,1.46,23.86,23.86,0,0,1-2.28,1.24c-.74.42-1.51.81-2.28,1.2s-1.53.86-2.31,1.25c-1.63.81-3.25,1.62-4.84,2.52-.83.55-1.68,1-2.54,1.54a31.63,31.63,0,0,1-2.76,1.58C461.13,651,419.68,658.86,378.64,668c-2.12.47-4.23,1-6.34,1.49-5.1,1.23-10.36.45-15.49,1.32-1.7.38-3.42.71-5.14,1.05-8.24.79-16.49,1.44-24.66,2.85a290,290,0,0,1-65-2.53,21.33,21.33,0,0,1-3.36-.7c-3.21-1.19-6.59-1.22-10-1.37-21.85-2.5-42.51-9.82-63.51-15.7-22-6.94-42.49-17.09-63.46-29.38-3,31.62,2.87,61.18,11.74,92.59C150,695,170.72,680.87,196.32,674c10.43,3.4,15,12.29,14.25,27.48a5,5,0,0,1-3.44,3.6c-3-1.17-3.51-4.05-4.6-6.54-5.05-15.55-5.66-15.86-20.27-9.49-8.36,3.65-16.21,8.12-22.68,14.7A145.69,145.69,0,0,0,147,717.15c-6.58,8.32-9.27,17-3.8,26.88,3.25,11.69,10.3,18.77,23,19.36a6.53,6.53,0,0,1,5.57,2.86c-.84,4.37-4.49,4-7.61,4.56-7.7-.55-10.07,2.18-6.29,9.5,3.16,6.1,5.72,12.51,10.14,17.89a30.6,30.6,0,0,1,2.07,3.82,20.22,20.22,0,0,1,1,2.61,25.24,25.24,0,0,0,1.68,3.76c.58.75,1.12,1.51,1.7,2.23,1.07,1,2.3,2.07,3.8,1.61,14.8-4.53,22-2.25,31.38,9.36,2.91,3.59,3,10,8.13,10.89,5.39.91,5.72-7,10.61-8.14a3.67,3.67,0,0,1,3.39,2.65,12.85,12.85,0,0,1-.11,5.31c-.45,3-3.06,6.57,1.13,8.56,3.61,1.71,7.09-.29,10-2.31,3.67-2.53,1.65-5.69.33-8.62-1.47-3.24-4.36-5.76-4.84-9.52a3.84,3.84,0,0,1,2.68-3.35c3.69-.82,7,.78,8.23,3.76,4.35,10.27,12.27,11.71,21.87,9.89a3.1,3.1,0,0,1,1.9,2.23,3.86,3.86,0,0,1-1.16,2.78c-11.87,8.47-26.53,8.65-39.71,13.26-8.06,2.82-13.09-5.18-20-7.22-12.09-3.55-22,1-32.5,4.27-3.71,1.16-7.32,5-11,2.61-4.72-3,.68-7.17.31-10.9a28.85,28.85,0,0,1,.39-4.72c-5.26-.71-10.38,6.52-14.77,1.16-3.42-4.18,1-8.88,1.83-13.36,1.79-.55,2.73.59,3.63,1.8,1.33,1.65,2.62,3.65,5.16,2.42,1.93-.93,1.87-2.78,1.23-4.56a45.31,45.31,0,0,0-4.29-8.48A18,18,0,0,0,160.3,809.67Z"/><path class="cls-3" d="M272.05,834l-.09-2.2a5.49,5.49,0,0,1,1.56-4c23.55-22,36-51.76,54.47-77.36,8.31-11.55,7.19-13.42-4.21-21.42-6.09-4.28-14.28-6.07-17.62-13.89a3.33,3.33,0,0,1,1.5-2.69c8.5-.84,15.28,3.79,22.27,7.35,17.5,8.89,35.36,16.67,54.88,20a36.66,36.66,0,0,0,9.31,1.63,26.25,26.25,0,0,1,4.64.83A49.71,49.71,0,0,0,408,744a24.7,24.7,0,0,1,3.19.65c8.46,2.24,17.27,2.52,25.76,4.37,8.79,1.92,13.62-1.05,16.33-9.64,7.42-23.55,14.76-47.15,25.91-69.34,2.79-5.56,5-11.38,11.22-14.09a3.62,3.62,0,0,1,3.88,2.47c1,8.33-4,14.68-7.88,21-7,11.32-10.28,23.89-15,37.15,14.53-9.53,29.31-16.15,44.52-21.74,15.5-5.69,21.2-1.57,21.42,14.65.07,5.12-.13,10.22-1.62,15.14-5.91,19.49-11.14,39.18-17.09,58.66-3,9.89-9.36,16.15-18.37,20.3-5,2.29-10.36,3.5-15.35,5.66-10,4.36-18.37,1.52-26.23-5-2.17-1.79-3.69-4.57-6.86-5-9,19.14-4.44,37.65,11.89,48.5,3,2,5.47,1.22,8-.56a68.69,68.69,0,0,0,5.71-5.07c11.48-10.15,20.46-8.73,32.15,5,7.65,11,8.13,11.08,17.7,2.19,12.11-11.24,16.07-11.42,26,1,3.65,4.59,8.71,2.58,12.45,5.17a2.45,2.45,0,0,1-.31,2.81c-7.81,1.17-13.79,6.09-18.78,11.29-7.16,7.46-14.38,5.64-19.43-.13-6.89-7.87-13.38-5.71-20.79-2.69-2,1.13-2.68-.09-3.2-1.7,2.11-7.5-3.3-11.85-7.1-16.85-.66-.59-1.32-1.21-2-1.77a6.53,6.53,0,0,0-3.82-.88c-11.64,5.68-12.66,8.75-6.86,20.65a29.45,29.45,0,0,0,2.54,3.45c1.25,1.77,4.14,2.77,2.76,5.79C480,879.21,476,871,474.17,866.88c-5.1-11.45-14.49-9-23.1-9.87a21,21,0,0,0-5.38.52c-5.19.83-11.14,4.22-14.94-1.69s-1-12.67,2.58-17c7.26-8.86,4.17-19.43,6.61-29,1.18-4.62-9.53-9.57-15.08-7.45-.33.13-.6.42-.92.58-4,2.06-8.36,7.48-12.33,4.45-4.47-3.41-2.27-10-1.49-15.29,1.07-2.35,1.06-5.66,4.93-5.51,5.12,1,9.15,4.34,13.76,6.47,9.46,4.36,10.22,4.12,12.48-5.65,6.48-28,8.52-25.26-20.67-29.57-9.34-1.38-18.84-1.8-27.93-4.66-1.29-.46-2.54-1.05-3.81-1.53-.82-.18-1.65-.35-2.48-.46-1.61-.12-3.34.45-4.79-.72-9.82-6.25-21.35-8.15-31.95-12.43-3.9-1.57-6.63.23-8.59,4.17-7.4,14.87-17.27,28.3-24.71,43.26-8.75,17.55-22,32.18-35.88,46-1.06,1.35-3,.88-4.17,1.93a3.83,3.83,0,0,0-2,.79A2.19,2.19,0,0,1,272.05,834Z"/><path class="cls-4" d="M808.05,15.67c0,.59,0,1.18,0,1.77a2,2,0,0,1,.66,2.41,10.24,10.24,0,0,1-2,2c-.72.62-1.48,1.21-2.23,1.8-.37.33-.75.63-1.11.95A24.72,24.72,0,0,1,801,26.49c-11.92,6.17-20.52,14.88-26.16,27.59-7.18,16.17-19,28.68-36.25,35a4.19,4.19,0,0,1-3.39-2.79c1-5.78,6.65-7.15,10-10.73.72-.69,1.49-1.33,2.26-1.95s1.54-1.29,2.33-1.9c1.08-1,2.07-2,3.17-3,21.49-18.2,10-43-4.36-56.38-4.66-.38-4.8,3.79-6.24,6.39-15,27.06-37.27,43.77-67.83,50.37-34.11,7.37-68.22,9.91-103,6.61-15.47-1.47-31.27-1.94-46.83,1a347.47,347.47,0,0,0-46.59,5.49c-3.87.69-8,1.79-11.44-1.39-1.08-1.76-2.87-2-4.69-2.2,32.83-14.07,67.7-12.6,101.94-11.07,40.49,1.81,80.34,1.29,119.59-9.8,27.39-7.73,44.64-26.2,54.36-52C740.7-1.78,744.61-.77,749,2.3c10.1,7,18.07,15.9,20.91,28.29,1.42,6.19,3.08,8.81,8.44,2.68C786.3,24.22,797.39,20.25,808.05,15.67Z"/><path class="cls-3" d="M565.34,858.27l-.18-2.46c6.88-11,18.5-17,27.84-25.33a214.2,214.2,0,0,0,43.13-53c9.65-16.68,19.07-33.44,27.86-50.6,16.11-31.45,20-64.86,17.71-99.43-.3-4.69-1.43-9.33-1-14.09.42-3.09.66-6.31,2.27-9,2.23-3.74,4.66-3.81,6.69.34,1.85,6,0,12.35,2.06,18.3a27.19,27.19,0,0,1,.84,4.89c.35,5.29-.21,10.63.73,15.88a13.39,13.39,0,0,1,.19,2.9c0,2.39-1.58,4.81,0,7.18a3.87,3.87,0,0,0,2.21,0,4.5,4.5,0,0,1,2.52,0c.38.3.71.59,1.07.89a7.28,7.28,0,0,1,1.1,4.29c-6.73,21.6-12,43.67-21.92,64.19-6.94,19.17-2.17,37.48,3.59,55.89,2.67,8.55,9.54,15.41,9.63,24.91-.53,1.78-1.3,3.31-3.53,3.24a55.35,55.35,0,0,1-9.14-14.79c-4.52-10.86-20.41-17.67-31.57-13.67-3.2,1.14-4,4.08-5.53,6.42-17.17,25.88-35.63,50.47-62.88,67C574.65,854.94,570.38,857.31,565.34,858.27Z"/><path class="cls-5" d="M237,188.42c4.85,3.85,10.71.82,15.91,2.31-.76,3.65-3.8,4.38-6.64,4.43-27.58.5-52.05,12.06-77.11,21.49a11.63,11.63,0,0,1-3.17.66c-5.36-5-.29-7.71,2.78-10A103,103,0,0,1,197,193.23c3-1,6.57-.8,10-4.86-11.48-5.32-22.61-10.11-34.45-13.26-9.76-2.59-19.64-3.55-29.75-3.93-11.1-.42-18.66,3.65-23.39,13.46a24.4,24.4,0,0,1-1.65,2.49c-.28.38-.59.76-.86,1.14-.52.75-1.09,1.48-1.64,2.21s-1,1.45-1.49,2.15a22.25,22.25,0,0,1-1.53,2c-.24.31-.51.62-.75.94-.44.65-.9,1.29-1.33,1.95s-.76,1.34-1.16,2c-.56,1-1.09,2-1.57,3.07-.27.74-.58,1.45-.89,2.17-.39,1.14-.75,2.28-1.09,3.43a17.76,17.76,0,0,1-.83,2.39c-.51,1.22-1,2.41-1.54,3.64-.3.9-.64,1.76-1,2.64-2.55,7.6-6.64,14.47-9.79,21.77a18.53,18.53,0,0,0-1.51,7,29.64,29.64,0,0,1-.88,5.85c-.88,4.39-3.15,8.55-2.28,13.41,4.17,0,5.51-4.31,8.81-5.35a6.85,6.85,0,0,1,3.18-.24,4.13,4.13,0,0,1,2.83,3.7c-3.37,9.58-11.9,14.76-18.48,21.6-1.27,1.32-3.32.89-4.84-.46a49.23,49.23,0,0,1,0-18.23c4.65-33.37,19.7-62.35,37.65-90.23,10.09-15.68,25.91-13.77,40-12a146,146,0,0,1,61.53,22.82C224.54,190.73,230.66,188.41,237,188.42Z"/><path class="cls-6" d="M79,265.91c1.75,6-1.67,12.69,2.2,18.48,2.17,3.83-.92,6.24-2.77,8.56-16.05,20.1-26.2,43.53-37.79,66.15-1.73,3.39-2,8-6.81,9.19l-2.33-2.76c10-27.11,21.93-53.35,41-75.35C79.19,282.54,75.39,273.55,79,265.91Z"/><path class="cls-7" d="M414.24,787.73l-4.12,4.41c-2.93-9.41-12.71-13.14-17.47-21.16-4-6.69-9.8-12.31-11-20.47l4.79-1.63C393.93,763.08,405.13,774.66,414.24,787.73Z"/><path class="cls-8" d="M817.12,842.36c2,1.55,2.77,4.83,6.17,4.45-9.73,4.45-18.75,13.86-30.48,4.38l4.12-1.67C803.78,847.47,810.67,845.54,817.12,842.36Z"/><path class="cls-9" d="M488.66,875.43l-4.55-4.31c6-4.23,12-8.44,20-6.18l2.26,1.8C501.64,872.07,494.44,872.31,488.66,875.43Z"/><path class="cls-10" d="M688.19,807.32c.67-.8,1.33-1.61,2-2.42,5.77,2.78,10.7,6.19,10.37,13.61l-2.26,2.67C694.14,817.13,689.27,813.61,688.19,807.32Z"/><path class="cls-11" d="M160.3,809.67l2.21,0c2.11,5.54,2.13,10.44-4.1,13.43l-2.08-2.25Q158.32,815.24,160.3,809.67Z"/><path class="cls-12" d="M276.31,833.45a4.08,4.08,0,0,1,4.17-1.93C279.6,833.28,278.3,834.1,276.31,833.45Z"/><path class="cls-12" d="M272.05,834l2.25.23a1.76,1.76,0,0,1-2.45,1.48A8.88,8.88,0,0,0,272.05,834Z"/><path class="cls-13" d="M720.12,844.35a2.55,2.55,0,0,1,3.49-1.28Z"/><path class="cls-14" d="M805.85,20.18a1.64,1.64,0,0,1,1.62-.76c1.49-1,3.58-.38,4.95-1.76a1.27,1.27,0,0,1,1.5-.47,5.72,5.72,0,0,1,5.5.13,1.44,1.44,0,0,1,1.6.48c-21.87,25-26.51,55.15-28,86.92a363.66,363.66,0,0,1-8.85,64.83c-5.69,24.54-20.26,43.31-40.06,58.1-20,15-41.52,26.83-66.86,30.4a99.14,99.14,0,0,0-22.15,5.84c-22.07,8.64-45.89,7-68.54,12.12-4.2.94-4.79-2-5.87-4.64q-7.94-32.79-15.91-65.59a71.43,71.43,0,0,0-2.64-8.3c-8.73-23.06-13.56-26-38.24-23.86-2,.18-4.21,1.57-7.59-1.45,14-15.83,27-32.51,48.74-38.91,5.9,3.24,3.23,7.11.7,10.85-3,4.42-8,8.47-4.29,14.52s9.93,4.91,15.75,4.18c1.82-.23,3.74-.61,5.41.12,14.07,6.12,25.66-.41,36.67-7.72,9.05-6,18-12.4,24.71-21.25,4.45-5.84,2.76-8.25-4.16-8.62-6.39-.35-13.33,1-18.27-4.89.26-5.69,5.48-3.7,8.27-5.66-11.05,4.94-23,4-34.55,5.23-25.39,4.11-49.48,11.07-67.81,30.76-14,1.7-20.41,13.34-29,22.11-2.7,2.77-4.3,6.58-7.78,8.71a353.62,353.62,0,0,0-47.47,18.64c-6.64,3.19-12.89,1.24-19.1.3-7.83-1.2-15.44-3.86-23.15-5.88-3.53-2.34-7.83.16-11.42-1.84l-.89.18-.81-.39c-2.16-18.2-12-34.7-11.85-53.42,0-3.6-.38-7.18.48-10.73,16.38-16,35.83-26.79,57.33-34.18,1.9,5,.11,9.2-2.93,13.09-2.8,3.56-7.88,5.42-8.25,10.58,27.2,7.44,53.38,8.48,77.36-9.44,8.64-6.46,20.51-7.3,28.09-16.11,4.63-5.38,8-9.58-1.06-13.58a3.2,3.2,0,0,1-1.39-4.63c19.86-2.84,39.79-1.67,59.65-.36A292.38,292.38,0,0,0,687.27,62.48c26.14-7.64,43.44-25.47,53.79-50.1,3.24-7.72,5.83-7.25,9.94-1.23a178.12,178.12,0,0,1-1.79,63.5v-.06a8,8,0,0,0-2.44,2c-2.44,4.4-7.43,5.81-10.78,9.13-10.84,9.65-24.66,11.83-35.67,15.51,12.24-1.34,24.48-9.55,38.12-13.45,15.88-8.87,29.28-20.61,35.92-37.73,5.16-13.31,14.68-20.69,26.78-26.15a7.39,7.39,0,0,0,2.5-2.08l0,0A11.09,11.09,0,0,1,805.85,20.18Z"/><path class="cls-15" d="M700.55,818.51q-5.19-6.79-10.37-13.61c-3.51-7.81-7.3-15.51-10.48-23.46-6.27-15.65-8-32-7-48.76.23-4,.82-7.9,3.87-10.91,19,5.8,38.28,5.27,57.6,1.8a38.71,38.71,0,0,1,8.59-.61c6.6,1.7,11.37,6.53,15.94,10.86,11.56,10.95,21.41,2.34,31.67-1.74,9.28-3.69,11.14-11.52,10.46-20.49-.78-10.38-3.73-20.69-1.25-31.21-.41-24.65,3.84-48.79,7.63-73,1-6.4.15-13.06.48-19.61.61-12.53-4.18-16-14.75-9.77-14,8.29-30.11,13-42.33,24.4a12.44,12.44,0,0,1-5.9,2.69c-14.55,4.35-21.66,17.23-31,27.39-4.14,4.48-6.74,10.3-10.51,15.16-2,2.58-3.68,7-8.49,3.84-2.87-5.86-2.52-12.17-2.55-18.42-.34-6.94.56-13.77,1.39-20.65,2.31-19.1-5.87-31.21-24.39-35.25-7.82-1.7-15.7-3.13-23.45-5.18-6.16-1.63-13-1.83-18.23,1.2-14,8.07-30.65,9-44.68,17.23-7.75,4.53-16.64,5.94-24-2-2.51-5.52,1.92-9.31,3.47-13.83,1.05-3.06,5.21-5.48,2-9.38-4.8-1.1-10.15,4.41-14.52-1.24,3.49-9.13,10.8-10.06,19.07-8.9.63,1.9,1.63,3.38,4,3.05,9,6,2.65,13.5,1.33,20a5.1,5.1,0,0,0,6.66.16c12.79-8.63,27.24-13.29,41.72-18,3.81-1.22,7.09-3.71,10.68-5.49,6.08-3,7-7.55,4.9-13.66s-5.14-9.35-12.07-7.61c-5.69,1.44-11.59,1.23-17.4.69-6.53-.59-9.73-4.18-6.51-10.35,7.37-14.08,17-26.33,31.36-34,5.27-2.83,10.74-2.92,15.41.92,5.8,4.76,9.44,4.49,11.39-3.32.48-1.91,2.34-2.66,4.37-2.55,5,1.94,6.29,6.84,8.35,11,2.78,5.54,6.84,10.54,8.66,16.38,5.19,16.64,16.9,21,33.14,21.45,13,.38,26.07,2.09,39.16,1.59,16.44-.63,21.3-7.38,19.48-23.93-1-9.36-4.44-18.35-3.92-27.89-.45-1.67-.9-3.34-1.73-6.44,13.95,9.41,24.55,20.69,34.65,32.22,32.67,37.3,57.72,79.46,73.56,126.34,9.37,27.76,8.94,57.18,5.9,86.33-2.08,19.92-7,39.12-12.32,58.44-5.85,21.2-20.17,36.68-31.9,53.88-6.51,9.54-12.43,8.68-20.75.06-9.33-9.67-17.61-9-27.46,4.08-6.16,8.18-9.79,8.23-14.72-.48a40.29,40.29,0,0,0-8.4-10c-10-8.84-17.07-7-22,5.36-3.35,8.33-7,9-13.29,2.34-3.21-3.44-5.75-7.65-9.38-10.52-4.06-3.23-7.83-9.5-14.73-3.44C705,823.21,702.33,820.31,700.55,818.51Z"/><path class="cls-16" d="M729.41,443.82c-24.2-12.94-44.44-31.05-64.89-49-22.09-19.4-43.43-39.45-63.13-61.32-11.06-12.27-15-26.74-16.36-42.48,6.05-6.77,15-7.13,22.28-6.55,23.21,1.86,43-9.26,64.27-14.71,4.55-1.17,8.93-3.17,13.58-4,21.47-3.82,40.21-13.48,59-24.34,22.22-12.85,34.05-32,41-55.27,3.11-10.38,5.6-20.94,9.58-31,5.86.7,4.45,5.54,5.18,9.14,6.1,30,12.71,59.79,25.68,87.95A171.61,171.61,0,0,1,838,290.08c-6.64,12.71-10.33,13.75-21.66,6.13-2.41-1.62-4.63-3.5-6.93-5.29-2.06-1.6-4.22-3.14-6.78-.91a7,7,0,0,0-2.71,5.71c.16,3.06,2.46,4.4,5.06,4.86,6.44,1.14,13,1.45,19.42,2.7,14.27,2.79,19.49,9.45,21.62,28.27,1.39,12.34-.48,15.38-15.11,21.13a101.93,101.93,0,0,0-31.34,19.15c-10,8.93-21.78,15.4-36,16.35-15.37,1-19.93,6.83-18.26,21.84.77,6.94.09,13.8-.07,20.68C744.84,444.93,742.81,446.53,729.41,443.82Z"/><path class="cls-17" d="M729.41,443.82c13.57-2.17,14.87-4.8,13.77-28.09-.1-2.17-.53-4.32-.83-6.48-2.11-14.95,3.91-23.53,18.61-23.88,16.52-.39,29.39-8,40.25-18.92,9.48-9.55,21.59-13.21,33.21-18.13,7.23-3.07,11.08-6.43,9-15.44-1.95-8.46-1.57-17.44-9.36-23.42-6.47-5-14.59-3.21-21.8-5.18-2.39-.65-5.18.2-7.61-.38-3.84-.91-8.72-1.85-9.12-6.5-.46-5.37,3.59-9.6,7.33-12.69,4.33-3.59,5.7,2.53,8.44,4.2a38.77,38.77,0,0,1,5.06,4.12c7.28,6.4,14.09,8.28,19.71-1.95a3.35,3.35,0,0,1,1.87,1.56c.73,1.5,1.26,3.07,1.9,4.61a18.59,18.59,0,0,1,.78,2.32,39.82,39.82,0,0,0,1.56,4.62,19.91,19.91,0,0,1,.81,2.36c.48,1.62,1.07,3.2,1.62,4.8a18.82,18.82,0,0,1,.75,3.86,25.78,25.78,0,0,0,1.4,6.48,20.88,20.88,0,0,1,.71,2.69,55.61,55.61,0,0,0,1.78,6.94,38,38,0,0,1,1,6.09c.09,2.75,1.1,5.3,1.65,7.95,1.52,9.73.25,19.57,1,27.35a146.43,146.43,0,0,0-5.19-51.63,9.56,9.56,0,0,1,.82-7.39c8.75-3,10.62,4.39,12.76,9.44a309.06,309.06,0,0,0,16,32.19c1.59,2.78,2.83,6.57,6.77,6.21,3.45-.31,3.65-4,4.74-6.65,4.57-11,7.65-12.29,21.48-10.91,9.49.94,11.71,7.12,12.43,15,.53,5.8,1.2,11.74,3.56,17,7.28,16.18,7.83,32.92,5.4,50.07a3.54,3.54,0,0,0,1.14,2.9c-3.48,29.95-6.05,60.18-26.73,84.7a4.34,4.34,0,0,1-1.91,2.72l0,0a8.14,8.14,0,0,1-2.37,2.16l-9.56,8.66c-10.8,15.94-38.21,27.07-53.45,21.72-13.23-20-27.08-39.23-45.29-55.3-7.83-6.91-15.21-14.43-23.47-20.92-7.16-5.63-.31-5.45,2.76-6.87a33.58,33.58,0,0,1,11.52-5.88c14.7-4.1,26.59-12.59,37.22-23.16a16.85,16.85,0,0,0,4.61-4.7c-1.39,1.33-2.86,3.57-5.21,4.85-14.54,15.08-32.09,24.17-53,26.7-14.86,1.11-24-9.21-34.43-17.1a4.8,4.8,0,0,0-3-2A1.09,1.09,0,0,1,729.41,443.82Z"/><path class="cls-18" d="M337.82,192.38a614.26,614.26,0,0,1,84.56,11.41c3.59.73,6.57,2.15,2.75,6.31-1.69,2.45-.67,5.42-1.52,8-2.33,4-6.26,6.31-9.58,9.27-2.42,2-6.37,3.56-4.59,7.57,1.63,3.68,5.09,1.26,7.78,1a39.39,39.39,0,0,0,4.29-.78c3.49-.69,6.7-.26,8.48,3.19s0,6.59-2.56,8.73c-7.47,6.37-14.32,13.41-22,19.56-20.06,16.06-35.78,35-40.07,61.55-1.43,8.86-6.18,15.35-14,21-21.64,15.6-39.89,34.95-56.44,55.86a114.35,114.35,0,0,1-13.26,14.46c-3,2.68-6.3,5.77-10.62,3.63-4.9-2.44-4.24-7.41-3.34-11.6a77.24,77.24,0,0,0,.76-26,14,14,0,0,1,.11-3.23c.68-4,2.7-7.53,3.66-11.4,2.61-10.43-4.3-18.22-14.9-16.8a26.58,26.58,0,0,0-13.94,5.76c-5.57,4.67-11.64,8.76-16.59,14.14-10.6,11.48-22.61,19.56-38.75,22.29-13.3,2.25-23,11.86-31.16,22.5-1.1,1.44-2.65,3.2-2.46,4.78,1.78,14.46-7.87,19.41-18.83,24-9.06,3.81-13.72,11.5-15.2,21.16A34.63,34.63,0,0,1,119,474c-4.07,12.77-9.37,13.84-18.72,3.81a8.33,8.33,0,0,1-.49-6.27c3.27-3.81-2.92-4.05-2.59-6.77a17.46,17.46,0,0,1-1-5.21c1.3-8.2-3.73-17.45,4-24.56,4.28,5.46,1,11.81,2.28,17.62-1.32-5.82,1.86-12.1-2-17.69-3.17-4.48-2.16-9.4-1.54-14.28,2-10.83,1.21-22.52,10.21-31.19,2.86-2.74,4.68-6.69,9.66-4.87a6.08,6.08,0,0,1,1.85,3.73c.23-14.07-2.88-28.26,1.57-42.19,6.38-.92,5.23,4.27,5.64,7.53.8,6.32-.08,12.79.88,21.24,6.59-6.42,11.28-13.79,20.49-11.4,12.76,6.76,18.73,3.86,22.07-10.16,2.45-10.32.59-20.76,1.61-31.09,5.12-14.3,21-21.91,36.2-17.41,9.42,5.39,16.7,13.72,26.5,18.77,6.95,3.59,12.29,4.15,20,.57C280,313,301.36,297.49,322.84,282c11.7-8.45,19.34-20.52,29-30.76,4.17-4.42,5.62-10.18,1.43-15.88-7-4.53-14.05-8.82-22.09-11.36-9.86-3.12-17.42-18-14.25-27.5,1.17-3.48,4.08-3.44,7-3.91C328.59,191.82,333.24,194.69,337.82,192.38Z"/><path class="cls-19" d="M569.53,558c-8.34-3.14-14.35.7-19.69,6.57-.21.3-.41.6-.61.91a19.45,19.45,0,0,1-2.75,1.85,17,17,0,0,1-2,1.07c-.65.37-1.32.69-2,1s-1.33.69-2,1c-1,.51-2,1-3,1.62-.65.5-1.31,1-2,1.47-1.37,1.18-2.53,2.55-3.85,3.8-15,12.63-31.35,21-51.83,18.63-7.58-.9-14,2.45-20.11,7-13.43,10.1-24.76,22.51-37.56,33.33-14.57,12.32-30.23,21.16-49.66,22.09-1.45.07-3.1.51-4.32-.16-10.49-5.74-19.73-.91-28.94,3.45-1,.49,1.36.74,1.26,1.75-27.29,3.81-54.6,5.7-82,1.1a400.94,400.94,0,0,1-52.56-12.2c-11.18-6.55-21.36-14.6-32.32-21.51-7.94-5-7.9-8.24-1.14-14.67,14.56,4.51,28.87,9.78,43.26,14.77,26.25,9.1,53.1,10.73,80.61,8.48,19.45-1.6,37.75-7.51,56.25-12.65,25.67-7.14,47.07-22.54,68.74-37.21,4.87-3.3,9.35-7.08,15.73-6.38.6-2.18,3,4.71,3-.6a98.56,98.56,0,0,1,14.72-14.73c8.87-4.69,17.39-8.05,28.41-7.21,12,.93,18.92-10,25.64-18.85,1.62-3.91,2.55-8.26,6.65-10.58,1.85-.31,2.74-1.16,1.65-3-1.76-1-4.31.74-5.62-1.66.19-17.6,12-27.23,24.72-36.31,14-5.48,26.93-14.75,43.34-10.71,3.32.82,6-2,8.55-4a21.57,21.57,0,0,1,2.35-1.7c1.54-1,3.16-1.85,4.63-3,.65-.58,1.33-1.13,2-1.71a23.11,23.11,0,0,0,1.57-2.08c.15-.43.34-.82.48-1.24a20.09,20.09,0,0,0,.37-4.31c.44-5.38-1.66-11.26,3.19-15.72,2.86,3.13,1.23,7.47,3.46,12,.36-5.9.66-10.74,1-15.58,6.74,2.94.26,9.13,3.17,12.16-1.16-14.54.18-29.41,6-44.06C621,398.3,631.19,394,641.16,389c2.58-1.32,4.89-.26,6.93,1.63,1.88,1.74,3.32,3.87,5.16,5.6,3.16,3,9.47,3.87,6.94,10.46-2.12,5.51-7,7.12-12.24,7.63-7,.67-11,5-13.76,10.92-1.21,2.62-.24,5,2.11,6.66a21.35,21.35,0,0,1,6.53,11.89c-.46,13.22,9.28,21.16,15.94,30.7,3.78,2.83,7.5,5.67,5.16,11.28-.77,1.17-2,2.25-2.24,3.51-2.23,11.7-3.88,12.53-12.66,4.8-5.68-5-10.36-4.38-16.55-.68-12.63,7.56-20.42,19.14-28.1,31-3.35,5.15-1.45,7.49,4.15,7.35,6.48-.17,13,.86,19.43-1.49,5.75-2.1,10.21.06,11.34,6.38s8.59,13-1.27,19c-12.69,7.67-27,11.77-40.61,16.73-6.75,2.45-10.68,8.32-17.4,9.61-3.34.64-6.62,3.46-10-.4-3.6-4.17.77-5.71,2.43-8C577.09,567.2,575.93,562.15,569.53,558Z"/><path class="cls-18" d="M543.11,179.81a17.49,17.49,0,0,1,8.95,10.52c-2,30.66-10,60.91-6.16,92,.91,7.35-.67,14.62-1.94,21.69-5.63,31.15-11.93,62.18-26.31,90.83-3,6.07-7,11-13.75,13.22-7.06.65-8.16-5.12-9.75-9.69-6.82-19.63-18.07-35.2-37-45.06-9.69-5-18.19-5.32-27.79-.2-13.78,7.34-23.16,19.64-34.76,29.42-2.74,2.31-4.57,5.76-8.82,5.6-12.85-9.4-13.88-33.86-.23-46.15,10.05-9.06,16-18.68,18.47-32.07,2.2-12.18,14.65-17.56,22.75-25.67,4.63-4.64,9.95-8.42,12.78-14.6a17.81,17.81,0,0,1,5.31-6.89c27-20.37,48-48,78.24-64.55,6.4-3.49,11.87-8.49,14.3-15.89A5.83,5.83,0,0,1,543.11,179.81Z"/><path class="cls-20" d="M208.34,306.81c-12.12-3.77-28.29,3.94-33,15.75-5.62,5-12.35,7.18-19.65,8-7.13-1.19-14.35-1.42-21.56-1.89-18-1.17-25.15-9.23-24.2-27,.26-4.81,0-9.43-2.07-13.78-2.31-5-2.56-10,.36-14.53,4.57-7.14-1-7.91-5.49-9.53,1.57-11.51,11.86-15.91,18.78-23.07,12-9,25.92-15.49,36.26-26.74,4.49-4.88,5.39,1.15,7.92,2.23,24.38-11.82,49.19-22.22,76.72-24.08,3.49-.23,7.31,1.3,10.48-1.45,23.75-.75,47.49-1.24,71.22.52,3.56.27,7.12.7,10.68,1.06a3.34,3.34,0,0,1,3,.09v0c-.52.49-1,1.27-1.59,1.43-6.43,1.7-12.94,10.57-14.62,16.66-2.42,8.71,3.82,9.58,8.73,10.29,9.76,1.41,16.44,8.64,25.14,11.87a1.71,1.71,0,0,1-.12,1,3.66,3.66,0,0,1-.75.78c-8.32,4.15-17.52,4.5-26.38,4.66a178.64,178.64,0,0,0-42.9,6.4,156.67,156.67,0,0,0-25.51,7.58c-20.56,6.42-38.25,18.61-57,28.62-6,3.2-6.08,7.06-2,12.22C203.94,297.75,210.34,300,208.34,306.81Z"/><path class="cls-21" d="M602.7,445.72q-.16,10.18-.35,20.38c-.79.66-1.45,1.47-2.18,2.2s-1.48,1.43-2.19,2.18h0c-2.1,1.59-4.52,2.71-6.56,4.38h0c-3.56,2.43-7.28,5.9-11.73,4-12.91-5.59-22.79,1.15-33,7.17a92,92,0,0,0-10,6.36c-11.92,8.91-21.78,19.25-24.13,34.8,1.76,4.09-.43,6.21-3.84,7.74-4.78.61-7.91-2.06-8.52-6.19-1.2-8.12-5-15.52-6-23.65.85-3.31,3.7-4.43,6.43-5.26,7.18-2.21,9.45-7.3,8.93-14.24-.55-12.83,1.23-25.7-1.21-38.44-.62-6.78-2.49-13.42-2.15-20.3,3.21-15.06,8.09-29.14,17.94-41.61,6.79-8.59,8.16-20.13,11.37-30.54C548,314.35,553,273,553.47,230.85c.06-6.25-2-14.35,7.67-16.54,2.48,4.75,4.32,9.69,4.31,15.15l0,0c8.47,20.66,9.71,43,14.31,64.53,10.18,47.55,16.63,95.82,22.59,144.11C602.68,440.63,602.6,443.19,602.7,445.72Z"/><path class="cls-22" d="M670.3,411.48c8.94,1.86,14.34,9.23,21.45,13.93,9.92,6.55,19.34,13.87,29,20.86,7.9,16.87,23.39,25.77,37.7,35.9,3.51,2.49,7.62,4,11.14,6.5a67.63,67.63,0,0,1,4.68,29.79c-.83,12.21-5.85,16.84-17.88,17.4-20.33.93-40.67.47-60.72-4-3.38-.75-6.16-1.47-7.71-5-13.24-30.3-33.14-57.06-46.41-87.37-4.17-9.54-2.75-16,6.2-21.11C654.7,414.39,662,411.25,670.3,411.48Z"/><path class="cls-23" d="M814,72.13c2.08-4.12,2.66-10.58,7.93-10.9,10.09-.63,19.58-6.17,29.93-3.53,3.29.84,3.44,3.26,2.15,6-1.39,3-2.36,6.19-4.18,8.84-22.13,32.22-20.31,66-7.14,100.76,5.66,14.95,13.05,29.06,19.71,43.52-.72,2.41-1.08,5.27-4,6C848,225.56,850,232.42,851.9,240A175.11,175.11,0,0,1,857,288.68c-.26,7.63-2.1,14.42-9.6,18.24-4.23-.43-4.94-4.12-5.83-7-7.45-24.18-18.9-46.94-26.16-71.09-7.68-25.57-16.7-51.07-18.56-78-1.08-15.59,3.81-30.89,5.71-46.36C803.93,92.89,807,81.79,814,72.13Z"/><path class="cls-24" d="M847.18,306.82c10-13.14,7.16-27.91,5.57-42.61-1.2-11.18-2.56-22.24-6.55-32.91-2.2-5.86,1.79-9.23,6.9-10,3.86-.54,7-1.4,9.27-4.53a1.21,1.21,0,0,1,.66,1.29A6.92,6.92,0,0,0,864.6,221c9.78,15.16,20.52,29.73,28.27,46.13,12.35,26.13,24.82,52.2,31.24,80.62,1.12,1.28.77,3.12,1.66,4.49l.57,4.15c1.95,2.73-.06,6.22,1.74,9l.63,5.67a4.53,4.53,0,0,0,1.84,3.15l.35,5.55c0,1.33.85,2.22,1.6,3.17a1.7,1.7,0,0,1,.49,1.68,207,207,0,0,1,0,40.67c-.06,1.22-.12,2.45-.19,3.68-.71-1.21-2.2-2.57-2-3.62,4.43-25-9.91-47-11.34-71-.25-4.32-2.84-8.67-7.4-7.53-7.14,1.79-18.72-6.06-20.6,8.34-.67,5.15-.57,11.18-7.14,11.62-5.54.37-7.07-5.33-9.31-9.46-6.22-11.47-12.94-22.67-16.94-35.23-1.37-4.3-4.68-7.26-9-8.95C845.13,312.06,845.54,309.63,847.18,306.82Z"/><path class="cls-25" d="M795.17,155c-2.88,25.6-9.41,50.83-26.29,70.06s-40.26,32.37-65.3,39.24c-21.22,5.83-42.55,11.19-63.11,19-6.34,2.41-12.4,3.76-19,3.38C609.07,286,597,288.28,585,291a1.84,1.84,0,0,1-.48-1.58c-1.28-2.2-.09-5-1.62-7.11-1.34-3.52-2.7-7.05-2.23-10.94,6.49,5.16,12.39-1.22,18.76-1,30.19,1.05,57.88-11.57,86.91-17.05,23.49-4.44,43.36-17.78,62-32.69,26.4-21.15,34-50.38,38.22-82.22,4-30,1.58-60.92,12.69-89.89C803.88,36.41,808.05,24,821,17.8c-2.88,16.4-7.9,32.2-13.37,47.87-.52.93-1.36,1.69-1.48,2.83l.29,3.54c-3.1,6.29-1.23,12.79-.79,19.25-3.63,19.47-6.6,39-8.66,58.73A8.31,8.31,0,0,1,795.17,155Z"/><path class="cls-26" d="M525.69,74.19l1.08,1.88C529.42,80.63,540,77.5,538,83.64c-2.31,6.82-7.8,14.2-15.24,17.14-12.93,5.1-24.77,12.1-36.78,18.81-10.11,5.66-23,9.52-32.05,7.6a279.1,279.1,0,0,0-33.67-4.93c-5.38-.47-2.23-3.76-.88-6.18,4.27-7.66,13.93-11.72,14.54-21.8l32.79-13.41C486.28,78.15,505.6,72.82,525.69,74.19Z"/><path class="cls-27" d="M621.43,120c7.22,3.18,14.94,2,22.46,2.74,5.91.57,11,1.72,4.63,9.85a110.48,110.48,0,0,1-43.37,33.15c-6.73,3-13.94,4.7-20.83.27-3.72-2.4-7-.09-10.44.28-6.6.72-12.47-.46-16-6.6-3.63-6.33.25-11.12,4.26-15.41,3.09-3.3,6.41-6.16,2.92-11,11.69-6,24.71-7.56,37.19-10.9C608.18,117.73,614.53,116.63,621.43,120Z"/><path class="cls-28" d="M543.11,179.81l-4.22,1.84c-4.3,7.83-10.67,13.56-18.18,18.24-14.15,8.81-27.89,18.26-43,25.52-13,6.25-26.19,10.42-40.82,9.6-5.67-.31-11.45-1.28-17.18.93-2.59,1-6,.78-7.91-2-2.47-3.58.23-6,2.35-8.51,1.59-4.24,6-5.61,8.79-8.58.41-2.84,2.4-3.76,4.9-4.08,31.09-15.57,63.41-27.52,97.82-33.35,5.77-1.53,11.53-1.87,17.25.22Z"/><path class="cls-29" d="M561.14,214.31a10.46,10.46,0,0,0-4.63,9.36c.8,15.61-1.82,31-2.2,46.56-1,39.61-12.25,77-25.59,113.64-3.51,9.63-12.14,18-16,28.69-1.69,4.69-.62,10.23-4.43,14.17a5,5,0,0,1-1.7-2.15c-.59-1.77-.89-3.6-1.32-5.37a7.31,7.31,0,0,1-.19-2.38c.68-2-1.66-.24-1.74-1.33-1.77-2.65-3.65-5.26-1.42-8.55,7.56-3.71,11.95-10,15.22-17.59,12.57-29.06,19.12-59.59,24.34-90.7,3-17.69-2.62-35,1.31-52.75,3.63-16.41,3.62-33.67,4.64-50.59.24-3.81,3.33-3.16,4.61-5C557,197.59,560.6,205.38,561.14,214.31Z"/><path class="cls-30" d="M639,378.51l5.22,6.17c-1.91,6.92-7.48,3.81-11.38,3.64-7.87-.35-12.26,3-14.36,10.33-3.07,10.75-7.93,21.06-7.47,32.66.11,2.68.42,6.17-4,6.27l-.51-5.68c-1.67-3.73.1-7.91-1.47-11.66-4.18-28.76-8.37-57.52-12.74-87.55l45,44.05A3.32,3.32,0,0,1,639,378.51Z"/><path class="cls-31" d="M368.35,190.13c-8.09,1.32-15.83-1.57-23.79-2-7.42-.4-5.17-6-3.65-9.67,6.54-15.82,15-30.49,27.45-42.55,4.72.08,8,2.57,7.72,7.15-.62,10,3.27,19,5.45,28.4C385.4,188.14,384.22,189.61,368.35,190.13Z"/><path class="cls-32" d="M795.17,155c.05-22,5.44-43.36,8.72-65,1.21-6.11.71-12.8,5.91-17.57l4.17-.32c-8.18,22.29-10.66,45.78-13.93,69-2.42,17.2,1.25,34.17,6.59,50.35,6.88,20.86,11.08,42.4,20.65,62.71,7.9,16.74,13.1,35.1,19.9,52.6,0,2.3.09,4.56,2,6.26,3.63,18.73,9.25,37.2,7,56.67-.45,3.89.08,7.95-3.39,12.22-5.26-13.05-1.52-26.08-3.51-38.5-1.28-2.08,0-4.79-1.69-6.78-.13-2.1-.25-4.21-.38-6.31-1.55-1.93.05-4.77-1.9-6.59-.11-.72-.22-1.45-.32-2.18-1.32-2.22-.36-5-1.62-7.2l-.71-3.76c-.78-1.42-.53-3.21-1.68-4.49a3.06,3.06,0,0,0-.39-2.05c-.91-1.5-.81-3.33-1.66-4.85a2.44,2.44,0,0,0-.59-1.73c-.87-1.37-.55-3.21-1.76-4.44a2.75,2.75,0,0,0-.48-2c-6.33-19.44-15.23-38-21.16-57.46C807,207.83,797.86,182.16,795.17,155Z"/><path class="cls-33" d="M670.3,411.48c-6.93,3-13.78,6.26-20.82,9-9.07,3.54-10.1,9.88-6.1,17.49,15.2,28.94,30.73,57.71,45.89,86.67a8.59,8.59,0,0,0,6.23,5.07c20.39,5.21,41.09,4.88,61.82,3.74,11.37-.63,15.88-8.34,14.94-18.43-.85-9.23-.2-19-5.38-27.49-1.65-1-1.66-2.29-.75-3.78l3.28-.29c7.16,13.74,7.62,28.46,6.38,43.44-.35,4.29-3.15,6.61-6.72,7.73-4.83,1.51-9.82,3.11-14.81,3.41a240.78,240.78,0,0,1-59.71-4.21c-4.81-.92-7-3.28-9.17-7.8-6.58-13.71-14.22-26.92-21.45-40.32q-3.25-5.75-6.52-11.5c-6.41-9.37-14.2-18-15.91-29.9q-3-5.86-5.9-11.75c-2.89-2.24-2.14-5-1-7.75,3.25-8,24.18-17.43,33.49-15.13Z"/><path class="cls-15" d="M668.06,409.69c-9.92,1.2-18.21,6.46-26.72,11-4.48,2.41-6.59,6.56-5.74,11.85-7.76.74-6.59-4.16-4.51-8.19,3.72-7.21,8.3-13.83,18.07-13a8.69,8.69,0,0,0,9.42-5.94c1.78-4.89-3.36-4.47-5.63-6.26-3.5-2.76-5.4-11.25-9.67-8.36-7.49,5.08-17.79,6-22.41,15.95-7.51,16.13-9,33.24-10.28,51.22-3.73-5.26.64-11.44-3.47-15.82l-.15-4.57c3.47-11.91,2.62-24.45,7.52-36.45,6.19-15.15,4.86-15.49,21.73-15.21,2.43,0,5.76,1.7,8-1.24,7.47,6.65,14.92,13.32,22.42,19.93C668.24,406.05,670.22,407.23,668.06,409.69Z"/><path class="cls-34" d="M766.13,483.76c.25,1.26.5,2.52.74,3.78-4.65,2.73-7.12-1.91-10-3.55-12.33-7-23-16.22-32.8-26.39-3.12-3.23-5-6.73-3.31-11.33C738.13,456,753.53,468.2,766.13,483.76Z"/><path class="cls-35" d="M368.35,190.13c12.88-4.17,14.4-6.66,10.06-20.23-2.82-8.81-6.69-17.21-4.42-26.88,1-4.17-4.05-4.48-5.63-7.11l.11-.12a5.4,5.4,0,0,1,1.94-1.86l6.13-5.47c4.46,6.49,1.37,14.14,3.23,21,2.89,10.67,5.83,21.33,9.22,31.85a13.3,13.3,0,0,1-1.08,11.31l-4.44-.44c-3.66-1.67-7.79.23-11.46-1.48Z"/><path class="cls-36" d="M490.75,181.6c4.59-12.45,14.65-20.5,24-28.85,3-2.66,7.51-8.05,12.71-2-5.56,7.44-11.94,14.16-16.64,22.38C506.72,180.38,497.43,178.6,490.75,181.6Z"/><path class="cls-37" d="M773,843.63c-9.35,2.9-17.36,12-24.77,2.88-4.22-5.17-1.22-16.26,4.4-18.08C763.87,824.79,765.43,837.88,773,843.63Z"/><path class="cls-38" d="M891.74,536.19c-10.09,8.84-19.69,18.14-32.35,23.71-8.15,3.58-13.11,2.3-16.14-6,3.29-3.82,8.07-4.42,12.51-5.54,9.79-2.48,19-6,27.22-12.11C885.45,534.36,888.85,529.49,891.74,536.19Z"/><path class="cls-39" d="M817.12,842.36c-4.61,8.36-12.28,8.1-20.19,7.16-7.45-5.87-2.63-10.79,1.61-15.14,4.56-4.68,9.15-2.34,13.06,1.45A78.66,78.66,0,0,1,817.12,842.36Z"/><path class="cls-40" d="M891.74,536.19c-.51-1.51-1.61-2.92-3-1.67C875.64,546,859,548.77,843.25,553.86l-4.38-5a73.48,73.48,0,0,0,43.8-15.09c3.11-2.36,6.43-4.43,9.65-6.63,4.69.85,6.88-3.43,11.68-5.75C901.64,528.82,896.19,532.11,891.74,536.19Z"/><path class="cls-13" d="M726.19,838.14c-7.41.54-14.19,8.73-20,1.4-3.14-3.94-.65-14.11,3.8-15.08C718.06,822.7,721.6,831.22,726.19,838.14Z"/><path class="cls-41" d="M823.21,437.52c-13.63,15-30.63,24-50.34,28.25l-4.81-2.19c19.32-6.31,38-13.87,53.1-28.12C823.27,434.73,823.74,435.63,823.21,437.52Z"/><path class="cls-42" d="M621.43,120l-19.18,2.34c-1.7-2.61-4.62-1.58-7-2.34,12.56-5.11,26.1-3.84,41.51-7.86C631.11,118.17,625.2,116.81,621.43,120Z"/><path class="cls-23" d="M809.8,72.45C809,78.7,808,84.87,803.89,90c-1.87-6.39-6.62-13.18,2.56-18Z"/><path class="cls-17" d="M933,425.26q0-20.34,0-40.67C936.09,398.14,935.66,411.7,933,425.26Z"/><path class="cls-18" d="M542.92,179.62l-17.25-.22C531.46,176.78,537.22,176.31,542.92,179.62Z"/><path class="cls-43" d="M427.85,212.75l-4.9,4.08c-4.8-4,0-5,2.18-6.73Z"/><path class="cls-15" d="M605,420.24c3,3.56,1.48,7.71,1.47,11.66A23.9,23.9,0,0,1,605,420.24Z"/><path class="cls-35" d="M389.61,192.82c3.95-.25,8-1.43,11.42,1.84A20.9,20.9,0,0,1,389.61,192.82Z"/><path class="cls-31" d="M372,190.69c3.9-.08,8-1.68,11.46,1.48C379.61,192,375.56,193.32,372,190.69Z"/><path class="cls-17" d="M928.08,365.37c-2.86-2.55-1.67-5.89-1.74-9C928.58,359.06,928.08,362.26,928.08,365.37Z"/><path class="cls-16" d="M582.93,282.31c2.45,1.93,2,4.54,1.62,7.11C582.45,287.41,582.81,284.83,582.93,282.31Z"/><path class="cls-25" d="M812.42,17.66c-1.17,1.93-3,2.1-4.95,1.76a4,4,0,0,0,.56-2Z"/><path class="cls-17" d="M925.77,352.24c-1.56-1.13-1.78-2.74-1.66-4.49C924.66,349.24,925.22,350.74,925.77,352.24Z"/><path class="cls-25" d="M819.42,17.32l-5.5-.13C815.79,15.69,817.63,15.61,819.42,17.32Z"/><path class="cls-23" d="M806.17,68.5l1.48-2.83Z"/><path class="cls-31" d="M370.41,133.93l-1.94,1.86Z"/><path class="cls-16" d="M730.63,444.48l3,2Z"/><path class="cls-40" d="M904.21,516.36c.64-.9,1.27-1.81,1.91-2.72Z"/><path class="cls-17" d="M930.55,374.19c-.61-1.05-1.23-2.09-1.84-3.15Z"/><path class="cls-15" d="M639,378.51l-1.67-1.77Z"/><path class="cls-17" d="M932.5,382.91c-.53-1.06-1.06-2.11-1.6-3.16C931.43,380.8,932,381.85,932.5,382.91Z"/><path class="cls-23" d="M864.6,221c-.52-1-1.05-1.92-1.57-2.89Z"/><path class="cls-18" d="M337.81,192.4l-3-.09C335.82,191.17,336.84,191,337.81,192.4Z"/><path class="cls-40" d="M901.88,518.48l2.37-2.16Z"/><path class="cls-44" d="M414.16,225.41c.8,3-4.81,10,2.88,8.33,16.61-3.55,34.25,1.57,50.18-6.56,24.43-12.47,49.74-23.56,68.65-44.56.61-.68,2-.67,3-1,.7,10.95-8,15.45-15.24,19.33-30.26,16.37-52.29,42.7-77.2,65.1-12.31,11.07-23.74,24.44-35.95,36.42-3.5,3.43-4.86,7.81-5.19,12.81-.61,9-3.62,17-11.12,22.77-18,13.85-21,31.94-8.12,50a3.07,3.07,0,0,1,.11,2.25,29.16,29.16,0,0,1-1.45,3.17,19.42,19.42,0,0,1-1.88,2.87A28,28,0,0,0,381,399.2a16.52,16.52,0,0,1-1.12,2,15.93,15.93,0,0,1-1.43,1.74c-.25.28-.52.53-.77.81-.5.54-1,1-1.56,1.55-.25.26-.52.5-.77.76-.47.53-1,1-1.46,1.57,0,0-.66.82-.64.84-.35.61-.72,1.22-1.06,1.84a19,19,0,0,1-1,1.91c-.47,1-.95,1.95-1.41,2.93-.27.68-.58,1.34-.89,2-.39,1-.74,2.1-1,3.18a15.25,15.25,0,0,1-.77,2.18c-.48,1.06-1,2.11-1.48,3.18-.28.74-.6,1.46-.92,2.19q-.6,1.69-1.11,3.42a19,19,0,0,1-.78,2.35,38.26,38.26,0,0,0-1.55,4.83,24.2,24.2,0,0,1-.81,2.63,16.87,16.87,0,0,1-2.61,5.27,4.18,4.18,0,0,1-3.06.63c-14.05-6.79-27.62-2.28-39.29,4.59-12.54,7.37-24,13.1-38.77,7.66-6-2.21-11.13,1.54-15.74,5.49-10.51,9-21.44,17.49-32.2,26.17-9.45,7.62-19,8.18-29.44,3.06-13.51-6.62-24.24-4.25-33.53,7.38-8.46,10.59-4.47,21.82,8.74,24.62,1.42.3,3,.9,4.31.38,23.68-9.69,52.29-3.42,73.06-23,5.77-5.42,12.72-9.76,19.63-13.8,10.74-6.28,17.87-5.37,26.41,3.47q7.59,7.84,15.09,15.79c4.5,4.77,6,10.42,2.82,16-10.54,18.46-25.31,34.45-45.07,40.61-16.4,5.12-35,6-52.94,3.24-2.15-.33-4.23-1.2-6.44-1.1-26,1.21-51.5-2.47-77-6.74-23.68-5.44-46.24-14.17-68.37-24-11.9-5.27-23.52-11.13-36.21-14.33-5.29-.84-3.89-6.69-6.95-9.22C6.35,505.13,5.2,503.27,6.77,487.31c1.89-41.3,14.76-80.1,27.08-119,13.22-29.42,27.33-58.33,47.37-83.9l20.23-21.45c.36-1.15,1-1.29,1.92-.56,4,4,5.89-6.51,9.61-1.65,3.57,4.67.14,9.06-2.1,13-2.7,4.83-3.13,8.75.12,14a18.2,18.2,0,0,1,1.94,13.49c-3.56,15.8,1.26,21.71,21.19,24.62,7.43,1.09,15.2-.15,22.47,2.73-5.71,8.49-7.54,17.52-4.64,27.58a9.27,9.27,0,0,1-2.17,9.17c-7-.87-11.82,2.43-15.29,8.12-1.71,2.8-3.53,7-6.76,6.07-4.46-1.29-1.76-6.24-2.36-9.56-1.44-7.89,2.93-16.46-2.79-23.86-.52,9.63-1.53,19.23-1.69,28.89-.06,3.48.88,7.26-2.15,10.15-7.7,5.81-13.91,12.6-15.31,22.68-.57,4.14,1.69,8.81-2.28,12.33-6.3-3.22-4.77-9.25-4.88-14.45-.39-17-1.43-34.07-4.44-50.82-3.34-18.57-10.17-20.95-23.71-7.67C47,367.92,35.22,393.78,29.78,422.66c-.4,2.13-.42,4.33-.9,6.46-1.56,10.4-3,20.78,1,31,2.72,4.63,4.8,9.5,5.21,14.92-.34,4.16.48,7.39,5.71,7.09,2.07.21,3.83.83,4.25,3.2a13.83,13.83,0,0,1-1.62,4.12c-1.3,13.74,4.42,24.27,15.91,31,17.16,10.11,34.73,19.45,54.89,22.66,4.68.74,5.63-1.1,6.64-4.67s1.94-7.85,7.16-3.86c.82,3.64-.79,8.22,4,10.33,1.81,1.94.42,6.45,4.76,6.24,3.18-.16,5.28-2.38,6.71-5,3.88-7.08,3.91-14.81,2.34-22.31-1.88-9-.59-17.2,2.88-25.49,6.81-16.25,8.43-33.76,11.63-51.17-2.3,2.89-4.29,6.3-7.94,7.29-16,4.34-25.28,15.8-32.2,29.94-3.07,6.27-8,9.78-15.07,6.62-6.42-2.89-8.18-7.82-3.8-14,10.9,8.49,12.7,8.22,15.25-5.75,3.22-17.58,12.79-28.17,30.28-31.44,3.78-.71,5.24-2.36,3.83-5.91-3.25-8.2,1.32-14.4,6-19.67,10.5-11.78,22.51-21.38,39.34-22.73,13.63-1.09,20.42-12.66,29.76-20.35,9.07-7.47,16.52-16.94,29.25-19.7,7-1.52,12.26-.61,16.72,4.23,4.81,5.22,6.34,11.48,2.49,18-1.82,3.09-1.56,7.22-4.87,9.51-.26-.29-.53-.58-.81-.86a20.27,20.27,0,0,1-1.34-3.15c-.31-.65-.61-1.3-.95-1.93a19.78,19.78,0,0,0-1.28-1.62s-.77-.67-.78-.64a6.79,6.79,0,0,0-2.9-.9,19.62,19.62,0,0,0-3.25.27c-1.12.29-2.21.63-3.3,1-.75.3-1.51.53-2.27.76a11.64,11.64,0,0,0-3.22,1.68c-.58.66-1.16,1.29-1.71,2s-1.1,1.53-1.69,2.27c-11.07,9.42-20.78,20.22-31.32,30.15-5.35,5-6.06,10-.58,14.65,10.44,8.94,21.1,17.77,33.86,23.3,8.32,3.6,10.69,2.1,12.15-7.37,2-12.87,2.58-26,5.79-38.64,1.83-5.29.44-10.94,1.85-16.27a6.43,6.43,0,0,1,1.85-2.79c4.5,7.82,2.59,16,1.26,24.13-.68,4.22-3.12,9.54,1.14,12,4.86,2.74,7.56-3.08,10.27-6,14.77-16,27.8-33.51,43.94-48.3,9.1-8.34,17.82-17,28.62-23.24,7-4,7.59-11.75,8.53-18,3.95-26.35,20.55-44,39.28-60.47,7.58-6.66,15.46-13,23.08-19.6,1.81-1.57,4.31-3.36,2.68-6.39s-4.06-2.3-6.63-1.31c-1.33.51-2.9.36-4.26.82-4.57,1.52-10.33,3.75-12.15-2.22S408.09,226.65,414.16,225.41Z"/><path class="cls-12" d="M307,715.32c7.92,5.08,15.44,11,23.87,15,7.61,3.62,7,8,3.65,13.53-10.38,17-21,33.83-31.46,50.72-8.63,13.87-17.42,27.61-31.12,37.24-3.13.87-6.28,1.64-9.36,2.62-5.48,1.75-9.41,1.64-11.13-5.41-1.19-4.88-4.78-8.85-9.56-11.26-6.15-.58-8.34,6.26-13.65,7.27a35.92,35.92,0,0,1-2.82,4.57c-2.33,2.79-2.1,8-7.59,7.87s-4.85-4.94-6.74-8.09c-4.61-7.73-10.29-14.61-19-18.34-3.76-1.6-7.21-1.83-9.61,1.73-7.05,10.43-8.62,2-11.24-3.11.16-1.09.33-2.36,1.12-3,14-11.68,18.49-28.2,22.85-44.8,1.21-4.33,4.28-7.56,6.81-11,8.06-11,13-22.62,7.13-36.33-1.84-4.27.31-8.54-.36-12.78-2.26-9.78-.37-21.73-13.48-25.86-2-4.64-5-8.6-7.88-12.72-2.24-3.24-6.43-6.44-2.92-11.33,22,4.82,43.16,12.92,65.56,16.07,2.79,1.54,6.14-.16,8.91,1.52v0c4.88,6.2,5.66,15,12.53,19.91,8.45,7.37,18.09,13,27.37,19.21C301.92,710.43,305.21,712,307,715.32Z"/><path class="cls-45" d="M491.07,656.69c-11.9,15.47-18.07,33.77-24.91,51.64-4.77,12.5-8.42,25.45-12.24,38.29-1.35,4.54-3.48,7.06-8.42,6.25-12.12-2-24.59-2-36.29-6.35.9-5.71,0-11.58,2.83-19.15-14.92,7.35-24.58-.6-34.42-7.88a65.6,65.6,0,0,0-21.55-10.11c-3.85-1.08-7.72-2.09-11.09-4.36-9.3-6.28-10.27-16.59-1.56-23.66,8.42-6.84,17.36-13.19,29.13-12.8,1.43.05-.42.28.83-.37.39-.21-1.37-.07-1.34-1.06,29.93-8.52,60.86-13,90.43-23.15,13.42-4.59,25.62-11.88,39.14-16,7.7,1.37,6.16,6,3.92,10.95C501.13,645.16,497.47,652,491.07,656.69Z"/><path class="cls-21" d="M340.5,663.42l-9.52-.8c5.59-.86,9.95-4,14.49-6.75s9.53-5.44,14.42-3.51c24.48,9.67,42.17-3.29,59.28-17.46,13.37-11.08,26-23.06,39.11-34.44,5.6-4.86,12.1-8.51,19.82-7.36,21.74,3.22,38.59-6.51,54.23-19.77,1.21-1.24,3.22-.86,4.38-2.19s3.22-.85,4.38-2.19,3.22-.85,4.37-2.19,3.25-.8,4.38-2.18c5.47,2.13,10-4.46,15.54-1.69,2.4,3.91-.15,7-2,9.9-4.83,7.58-9.65,15.2-15.83,21.81-5,3.3-8.72,8.57-15.22,9.36a457.08,457.08,0,0,1-96.84,44.54c-4.35,1.41-9.22,1.17-13.86,1.7-1.21.06-2.05.88-3,1.47a2.17,2.17,0,0,1-1.94.57c-1.37,1-3.2.73-4.61,1.62l-6.27.59c-2.77,1.88-6.27-.06-9.06,1.7l-5.87.6c-3.7,1.84-8-.42-11.67,1.76l-.94.4-1-.14c-4.92,2.67-10.73-.95-15.57,2.21l.08,0c-2.62,2.08-6.19-.15-8.82,1.93l-5.81.46a4.23,4.23,0,0,1-3.72,0Z"/><path class="cls-46" d="M6.77,487.31c-2.07,15.21,9.71,19.59,19.79,25.28-3.37,8.16,1.2,13.17,7.23,17.2,12.68,8.47,25.65,16.48,40.07,21.77,7,2.57,13,6.31,16.5,13.29,1.87,3.76,5.24,6,8.66,8,20.42,12.4,40.15,26,62.34,35.32,4.23,1.77,8.92,3.59,9.9,9.14-3.27,5-2.29,8.62,3.33,11.26,11.88,5.55,21,15.25,32.14,21.91.15.08.09.72,0,1s-.49.52-.75.77l-4.11-.71c-1-.56-1.85-1.41-3.09-1.39l-3.46-.7a6.76,6.76,0,0,0-2.93-1.52l-3.65-.67c-1.52-.91-3.36-.8-4.93-1.54a1.59,1.59,0,0,1-1.6-.57,7,7,0,0,0-2.79-1.64l-3.79-.62a6.15,6.15,0,0,0-3-1.51l-3.59-.93a16.48,16.48,0,0,1-2.39-1.44c-33.68-15.49-64.74-35.41-95.41-56.06-9.27-6.24-17.94-13.41-27.26-19.36C29,554.1,18.66,540.48,9.78,526.2,2.66,514.72,2.94,500.67,6.77,487.31Z"/><path class="cls-47" d="M184.55,651.78c.89,6.3,4.94,10.75,9.15,15,2.83,2.83,4.39,5.45,1.65,9.09-19.87,8.29-39.44,17-52.88,35l-9.7,13c-11.92-34.07-15.94-68.49-14.46-105C139.27,633.29,161.45,643.5,184.55,651.78Z"/><path class="cls-48" d="M372,667.13l7.28,1c-12.42.11-22,6.82-31.62,13-4.29,2.74-8.44,6-7.88,12.09a12.23,12.23,0,0,0,10.11,11.38c14.87,3.24,27.65,10.52,39.49,19.58,6.34,4.86,12.18,5.49,18.85,1,1.86-1.25,4.43-3.35,6.75-.47,1.74,2.14.54,4.6-.88,5.92-4.77,4.46,1.88,12.26-4.93,15.9l-.85.08-.75-.4c-2.54-2.45-6.29.1-8.88-2.14l-4.32-.31c-2.91-1.8-6.44-.08-9.4-1.64-18.12-1.42-34.27-9.14-50.33-16.59-9.2-4.26-18.15-9.07-27.68-12.61-6.11-2.7-12.52-5-16.12-11.25.85-4.92,4.83-7.4,8.64-8.86,11.22-4.32,20.92-10.26,27.12-20.92l25.69-2.48a14.67,14.67,0,0,0,2.7-1.46Z"/><path class="cls-49" d="M157.55,702c8.49-8.06,18.69-13.14,29.26-18,9.88-4.51,15-2.4,16.69,8.19.29,1.78.64,3.55,1,5.32-2.3,17.61-6,35.09-4.89,53-5.26,15.59-14.7,20.79-28.46,15.69-22.62-2.16-25.05-4-29.93-22.26,5-1.61,8.24,1.23,11.48,4.31,2.3,2.18,4.45,5.43,8.28,3.37,2.94-1.58,3.22-4.83,3.05-7.71-.72-12.4,3.53-25.61-5.93-36.64C156.83,705.9,157.82,703.81,157.55,702Z"/><path class="cls-50" d="M558.91,586.55c7.46,6.29,15.28,5.38,23.33,1.23,17-8.73,35-16.47,53.5-18.45a76.1,76.1,0,0,1,50.37,12.54c13,8.81,12,22.35,9.68,35.45a96.51,96.51,0,0,0-1.54,15.09,1.91,1.91,0,0,1-2.33.61c-1.26-1.41-.53-3.54-1.78-5l-.48-3.95a4,4,0,0,1-.49-2.56c1.11-2.7.42-5.32-.32-7.95-.44-3.19.88-6.55-1-9.6-2.53-2.86-3.42-.9-3.79,1.45s-.36,4.84-.51,7.26c-6.44,6.42-11.47,3.1-16.54-2.13-7-7.19-12.77-15.35-19.78-22.61-10.57-10.93-20.25-6.76-31-3.82a26.52,26.52,0,0,1-2.59,1.6c-1.34.77-2.72,1.49-4.09,2.21a24,24,0,0,1-2.87,1.43c-4.66,2.24-9.84,2.21-14.76,3.13-20.26,3.77-38.74,11-54,25.39a26.59,26.59,0,0,1-12.3,6.58c-4.44,1-8,.47-8.5-5.14l17.3-13.29c3.18-5.16,8.17-8.35,12.83-11.92C551.68,592.44,552,584.37,558.91,586.55Z"/><path class="cls-51" d="M326.64,671.88c-1.81,11.44-9.09,17.1-19.82,20.1a30.63,30.63,0,0,0-15.14,10.07c-9,.08-13.32-9.45-21.7-10.68-7.09-5.64-10.47-13.12-11-22C281.53,671.2,304,674.17,326.64,671.88Z"/><path class="cls-52" d="M157.55,702c13.36,12.68,8.69,29.15,9.37,44.5.19,4.49-1.58,8-5.56,9.8-4.31,2-7.08-1.34-9.06-4.2-2.85-4.12-6.76-6.3-11.11-8.12-9.05-12.91-1.05-22.42,6.55-31.85C150.68,708.53,154.26,705.4,157.55,702Z"/><path class="cls-53" d="M197.22,762.74c-3.81,18.31-8.73,36-25.94,46.92h0c-1.24-1.2-.86-3.11-1.93-4.38a1.64,1.64,0,0,1-.58-1.55,6.7,6.7,0,0,0-1.6-2.84c-6.92-5.76-9.36-14.3-13-21.93-5-10.4-4-11.22,7.48-10.6A60.72,60.72,0,0,0,197.22,762.74Z"/><path class="cls-54" d="M517.13,619.35c2.29,2.15,4,4.37,8.2,2.76s8.3-3.53,11.1-6.4c18-18.39,41.12-23.88,65.23-27.31a63.14,63.14,0,0,0,7.29-1.92c.31,7-5.63,7.74-10,9.43-22.69,8.67-45.22,17.6-65.34,31.59-5.35,3.73-10.46,7.78-15.78,11.56-3.25,2.31-6.43,4.91-10.87,3.28a3.68,3.68,0,0,1-1.81-2.39c3.45-5,4.43-10.69,5.13-16.5l-.05.09c.79-.54,1.58-1.09,2.36-1.65a1.28,1.28,0,0,1,1.45-.65,5.83,5.83,0,0,0,3-1.84Z"/><path class="cls-55" d="M197.56,750.62c-4.76-11.42.72-22.64,1.08-33.94.2-6.35,0-14,5.83-19.11l2.43,6.84c5.64,13.22,9.5,26.46-.47,39.46C204.12,746.89,202.51,751,197.56,750.62Z"/><path class="cls-56" d="M197.56,750.62c15.2-13,14.76-29.08,9.34-46.21l1.93-2.72c8.64,20.68,8.42,39.89-9.18,56.35-1.21,1.13-1.64,3.11-2.43,4.7-10.25,12-23.05,7.86-35.56,5.61,3.14-.75,6.77.74,9.46-2.07C184.24,768.33,193,762.93,197.56,750.62Z"/><path class="cls-57" d="M239.12,820.56c1.52,1.55,3.4,2.87,4.47,4.68,2.6,4.42,7.35,10.22,4.29,14-3.52,4.38-10.74,5.62-17,5.1-3.94-.32-5.61-2.77-4-6.86,1.33-3.34,2.45-6.76,3.66-10.15C231.81,823.13,233.07,818.82,239.12,820.56Z"/><path class="cls-58" d="M191.12,815.92c.35.07.82,0,1,.23,4.88,4.61,14.38,9.32,12.59,14.72-3,9.11-15,5.83-22.68,9.07-2.69-1-6.48-2-3.78-5.72C182.69,828.2,183.91,819.94,191.12,815.92Z"/><path class="cls-59" d="M191.12,815.92c-3.42,6.12-5.26,13.18-10.42,18.24-3.09,3,.19,4,1.38,5.78-2.66.71-5.69,3.13-8,.89-2.52-2.47.1-5.46,1.23-8a126.81,126.81,0,0,1,7.36-14.47C184.46,815.54,186.85,811.72,191.12,815.92Z"/><path class="cls-60" d="M158.41,823.07a37.11,37.11,0,0,0,4.1-13.43c5.8,3,6.23,9.68,8.93,14.55,1.9,3.43-4.36,3.58-6.91,4.6C159.64,830.75,158.24,827.39,158.41,823.07Z"/><path class="cls-50" d="M510.26,623.45c4.09,6.69,2.73,11.89-4.26,15.56l-1.16.87-1.38-.44c1.36-4.14,3.4-8.4-1.85-11.49v0a11.27,11.27,0,0,1,2.32-1.54Z"/><path class="cls-61" d="M547.69,595.24c-3.56,4.66-8.37,7.78-13.26,10.82l-2.1-2.1,13.21-10.84A4.05,4.05,0,0,1,547.69,595.24Z"/><path class="cls-62" d="M239.12,820.56c-4.33.43-6.07,4.13-8.6,6.82L228.26,825c3.56-4.28,5.72-11.2,13.65-7.27Z"/><path class="cls-19" d="M361.69,661c4.67-4.41,10.37-1.52,15.57-2.21C372.42,662,366.92,660.53,361.69,661Z"/><path class="cls-19" d="M379.2,658.51c3.45-3.48,7.71-1.63,11.66-1.76C387.33,659.7,383.13,658.23,379.2,658.51Z"/><path class="cls-19" d="M353,662.87c2.43-3,5.78-1.76,8.82-1.93C359.27,663.6,356,662.75,353,662.87Z"/><path class="cls-19" d="M396.74,656.15c2.59-2.85,5.94-1.66,9.06-1.7C403.13,656.86,399.83,656,396.74,656.15Z"/><path class="cls-51" d="M259,669.37c-3.1.23-6.31,1.12-8.92-1.52C253.2,667.64,256.39,666.89,259,669.37Z"/><path class="cls-19" d="M183.77,645.79c1.88-.22,3.67-.19,4.93,1.54A5.27,5.27,0,0,1,183.77,645.79Z"/><path class="cls-19" d="M412.07,653.86c1.16-1.59,2.83-1.77,4.61-1.63A4.67,4.67,0,0,1,412.07,653.86Z"/><path class="cls-12" d="M169.35,805.27a4,4,0,0,1,1.93,4.38A4.28,4.28,0,0,1,169.35,805.27Z"/><path class="cls-50" d="M512.57,621.89l-2.36,1.65Z"/><path class="cls-50" d="M517.05,619.4l-3,1.84Z"/><path class="cls-19" d="M343.42,663.31l3.72,0A2.43,2.43,0,0,1,343.42,663.31Z"/><path class="cls-45" d="M355,667.94l-2.7,1.46Z"/><path class="cls-19" d="M172.58,641.45l3,1.51Z"/><path class="cls-19" d="M179.38,643.58l2.79,1.64Z"/><path class="cls-19" d="M166.6,639.08l2.39,1.44Z"/><path class="cls-19" d="M192.35,648l2.94,1.52Z"/><path class="cls-45" d="M503.92,626.43,501.6,628Z"/><path class="cls-12" d="M167.17,800.88l1.6,2.84Z"/><path class="cls-19" d="M198.74,650.22l3.09,1.39Z"/><path class="cls-19" d="M418.62,651.67l3-1.47Z"/><path class="cls-63" d="M506.05,641.15a10.8,10.8,0,0,0,8-2.5c25.22-21.21,54.49-34.9,85.3-45.7,3.75-1.32,7.65-2.45,9.59-6.47h0c1.18-1.28,3.21-.89,4.37-2.22h0c10.06,1.88,23.11-5,28.76,9.82a3.94,3.94,0,0,0,2.31,2.06c14.42,6.81,20.22,16.54,16.57,31.31-10.5,42.44-22.8,84.28-44.32,122.8A190.08,190.08,0,0,1,545,823.34c-12.33,7.15-24.57,14.2-33.86,25.33a2.55,2.55,0,0,1-3,.46c-13.18-15.36-20.87-15.55-34,.22-6,7.24-10,5.37-14.13-1.27-1.54-2.46-2.49-5.76-4.68-7.27-19.81-13.69-9.54-30.86-6.37-47.88,1.56.66,2.63.82,3.28,1.42,22.31,20.85,19.62,16.15,49,5.67,7.64-2.73,12.63-8.85,14.88-17.53,5.46-21,12.24-41.74,17.57-62.81,1.87-7.41,4.87-16.8-1.8-22.77s-14.28.37-21.09,2.85c-15.27,5.56-30,12.37-43.23,23.46,4-24,16.08-43.56,25.73-64.14,1.31-6.36,5.51-11.18,8.78-16.49A7.27,7.27,0,0,1,506.05,641.15Z"/><path class="cls-54" d="M508.12,849.13c9.25-15.34,25.31-22,39.65-30.68a184.73,184.73,0,0,0,63.56-64.3c23.66-39.71,35.59-83.91,47.55-128,2.83-10.43-2.45-23.58-8-25.09-8.81-2.42-13.63-3.94-13.91-13.26-8.86,5.37-15.59-3.84-23.71-3.48,3.37-4.88,7.59-7.75,13.69-5.21,3.59,1.5,6.35-.42,9.16-1.86,3.14-1.6,5.39-1.16,7.32,1.85,6.86,10.69,18.52,17.27,24.7,28.53,3.64,6.63,8.86,7.68,15.42,5.13,19,85.73-55.41,204.91-118.43,243.1-6.76,2.22-11.8,2.23-15.26-6.08-3.36-8.08-10.14-8.32-16.81-2.84a60.37,60.37,0,0,0-5.46,5.27C517.14,863.35,515.85,863.16,508.12,849.13Z"/><path class="cls-64" d="M512.75,774.73c-.38,12.14-7.31,19.25-18.13,23-11.88,4.16-23.58,11.77-35.42-1.43-6.12-6.83-10.08-12.69-6.22-22,2.29-5.57,3.2-11.72,4.73-17.6,2.2.33.25,4.23,3.6,3.87,14.72-1.61,28.29,4,42.22,7.15A12.82,12.82,0,0,1,512.75,774.73Z"/><path class="cls-65" d="M414.24,787.73c-12.05-11-24.05-22-27.84-38.85l.91-.11a18.71,18.71,0,0,1,2.84,1.31A300.3,300.3,0,0,0,438.31,757c9.64.66,12.13,6.4,9.85,13.86A185.28,185.28,0,0,0,443.11,794c-1.34,7.84-4.56,7.68-10.14,4.34C426.82,794.64,420.49,791.25,414.24,787.73Z"/><path class="cls-66" d="M512.75,774.73c-17-6.31-34-12.43-52.72-11.38-3.88.22-1.19-4.48-2.32-6.64a2.35,2.35,0,0,1,.42-1.8c2-2.8,0-6.37,1.76-9.22l.78-4c.7-1.41.53-3.11,1.53-4.41l0,.06a3.92,3.92,0,0,0,2-3A1.79,1.79,0,0,1,465,733a4.16,4.16,0,0,1,1.82-1.82L467,731a3.49,3.49,0,0,1,1.81-1.72l2-1c6.07,2.69,4.75,8.33,5.22,13.21.51,5.35-.54,11.78,6,13.94,6.74,2.21,10.75-3.05,14.54-7.45,9.86-11.49,15.94-25.14,21.44-39,1.36-3.44,2.48-6.78,5.48-9.12,5.53-3.39,7.38-.36,7,4.56-.66,7.88-.63,16.21-3.32,23.45-5.17,13.92-8,28.42-12.63,42.45-1,1.31-.71,3.15-1.8,4.44Z"/><path class="cls-67" d="M523.51,699.85c-5.4,20-14.18,38.28-28.15,53.89-4.35,4.87-9.47,7.17-15.41,5s-6.59-7.95-6.72-13.58,1-11.65-2.41-16.91C485,712.49,504.05,705.82,523.51,699.85Z"/><path class="cls-68" d="M504.08,864.94c-6.72,1.87-12.65,6.29-20,6.18l-1.7-2.5c2.08-9.11,1.79-19.46,12.68-23.9,5.3,2.17,6.84,7.88,10.73,11.44S506.93,862.45,504.08,864.94Z"/><path class="cls-69" d="M548.42,859.19a14.14,14.14,0,0,1-12,9.51c-4.67.42-10-3.48-9.33-8.32.84-6,5.38-12.23,11.64-12.69C544.79,847.25,546.32,854.13,548.42,859.19Z"/><path class="cls-70" d="M442.25,855.28c-3.89-.59-7.38-1.83-6.62-5.91,1-5.17,3.1-13.51,7-13.17,5.81.52,12,7.6,12.17,13.21C455,855.25,446,852.43,442.25,855.28Z"/><path class="cls-71" d="M495.09,844.72c-7.49,6.24-6.6,16.92-12.68,23.9-3.46-4.79-9.42-9.78-5.43-15.81,3.37-5.09,7-12.65,15.95-10a13.12,13.12,0,0,1,2.14,1.94Z"/><path class="cls-72" d="M270,691.37c.07-5.11,2.19-2.82,4.35-1.3,5.74,4.06,11.56,8,17.35,12,4.85,4,11.22,5.83,15.32,10.86,0,.8,0,1.61,0,2.41C293.53,709.1,281.42,700.75,270,691.37Z"/><path class="cls-73" d="M503.75,643.25c-4.38,4.7-5.28,11.71-10.53,15.83-.72-.8-1.43-1.6-2.15-2.39,2.16-7.17,7.26-12.22,12.4-17.25l0-.07C505.52,640.53,505,641.86,503.75,643.25Z"/><path class="cls-74" d="M420.33,799.1c-.64,2.64-3.16,2.78-5,3.13s-3.26-1.28-3.24-3.32c0-2.32.93-4.48,3.67-4A5.77,5.77,0,0,1,420.33,799.1Z"/><path class="cls-64" d="M459.89,745.69c.09,3.21,1.26,6.62-1.76,9.22C458.11,751.72,457.73,748.47,459.89,745.69Z"/><path class="cls-45" d="M398.73,744.06c3.1.15,6.51-1,8.88,2.14C404.38,746.59,401.33,746.29,398.73,744.06Z"/><path class="cls-45" d="M385,742.11c3.25-.08,6.69-1.32,9.4,1.64C391.11,744.2,387.85,744.38,385,742.11Z"/><path class="cls-64" d="M462.2,737.32c.14,1.69,0,3.29-1.53,4.41C460.47,740,460.53,738.38,462.2,737.32Z"/><path class="cls-64" d="M512.72,774.75a4.44,4.44,0,0,1,1.8-4.44A4.09,4.09,0,0,1,512.72,774.75Z"/><path class="cls-64" d="M468.84,729.27,467,731Z"/><path class="cls-7" d="M390.15,750.08l-2.84-1.31Z"/><path class="cls-64" d="M466.8,731.21,465,733Z"/><path class="cls-68" d="M495.07,844.71l-2.14-1.94C494.31,842.68,494.93,843.43,495.07,844.71Z"/><path class="cls-64" d="M464.15,734.41l-2,3Z"/><path class="cls-75" d="M749.21,74.65c-4.85-6.58-.79-13.65.23-19.81,2.44-14.63-3.65-29.36,1.56-43.69C772.68,36,775.47,55.65,749.21,74.65Z"/><path class="cls-76" d="M738.45,87.82c-13,9-27.89,12.9-43.47,14.94,13.72-5.59,27.67-10.59,41-17Z"/><path class="cls-25" d="M805.85,20.18l-2.22,1.7Z"/><path class="cls-25" d="M803.65,21.86l-2.5,2.08Z"/><path class="cls-75" d="M746.78,76.63l2.44-2Z"/><path class="cls-77" d="M742.27,724.92c-15.69,5.16-31.91,3.6-48,3.79-6.87.08-13.15-1.26-17.75-6.94,9.55-20.92,14.15-43.54,22.32-64.93,9.71-21.06,22.84-39.31,42.59-52.17,5.61.24,9.32-3.57,13.38-6.44a92.42,92.42,0,0,1,25.06-12.78c8.56-2.77,15.65,0,17.17,8C799,603.61,800,614.18,794.74,624c-10.33-1.64-18.94,2.71-27.28,8a329.89,329.89,0,0,0-40.37,29.54,43.61,43.61,0,0,0-7.44,7.92c-3.72,5.34-4.38,9.83-1.13,16.75C725.06,700.09,736.54,710.71,742.27,724.92Z"/><path class="cls-78" d="M649.09,773.11l18.3-31.74c.37,6.84.39,11,.85,15.12C670.54,777.19,670.58,777.18,649.09,773.11Z"/><path class="cls-79" d="M740.73,606.34c-18.25,13.28-28.89,32.86-41.88,50.5l-2.09-2.42c-.52-.41-.7-.84-.55-1.29s.3-.67.47-.67a220.62,220.62,0,0,1,37.56-46c2.1-2,3.8-7.26,8.17-2.46A20.71,20.71,0,0,1,740.73,606.34Z"/><path class="cls-54" d="M696.68,652.46c0,.65,0,1.31.08,2l-.73-.24a15,15,0,0,1-1.71,2.41l0,0c-6.09-1.77-2.74-6.05-2.53-9.5l0-.79c-.95-4.65-1.7-9.3.41-13.86h2.06C694.76,639.13,692.77,646.15,696.68,652.46Z"/><path class="cls-15" d="M690.31,621.23c-.22,1-.43,1.92-.65,2.88-2.12-6.57-2-13.33-1.77-20.11,3.43,3.14,1.4,7.41,2.31,11.08A7.2,7.2,0,0,1,690.31,621.23Z"/><path class="cls-15" d="M692.19,632.42q-.2,6.93-.41,13.85c-2.71-5.87-1.58-12.09-1.64-18.21Z"/><path class="cls-15" d="M691.81,647.07c.91,3.15-.83,7,2.53,9.5C689.54,656.81,689.5,656.67,691.81,647.07Z"/><path class="cls-15" d="M694.32,656.59l1.71-2.41Z"/><path class="cls-80" d="M165.68,216.26c-2.13,1.39-2.86-4.45-6-.69-10.1,12-24.47,18.33-37,27.18-6.41,1.34-9.66,7-14.37,10.66-3.1,2.4-5.42,5.83-9.52,6.85-.56.1-1.13.21-1.69.33-5.63-.5-8.81-3.47-9.22-9.2l.63-6.28c1.4-2.05,0-4.79,1.67-6.78l11-24.08c3.23-1.17,3.27-4.46,4.68-6.88,4.68-8,10.4-15,19.92-17.43A34.79,34.79,0,0,0,139.93,182c9.85-8.74,20.72-12.13,33.56-9.18,11.92,2.27,22.63,7.83,33.67,12.5,2.33,1,5.24,2,5.12,5-.14,3.51-3.85,2.86-6,3.35a108.41,108.41,0,0,0-36.74,16.19C167.31,211.34,163.9,212.25,165.68,216.26Z"/><path class="cls-81" d="M173.49,172.81c-.5.5-1.15,1.53-1.48,1.44-17-4.68-25.95,10.41-38.93,15.32-14.15,5.35-23.71,13.65-30,26.92-.79,1.65-1.29-1.36-1.87-2.24a2.09,2.09,0,0,1,.59-2c.42-1,1.3-1.68,1.42-2.78a1.46,1.46,0,0,1,.56-1.6c1.08-1.32.66-3.25,1.81-4.54a2.22,2.22,0,0,1,.59-2,17,17,0,0,0,1.46-2.69,1.64,1.64,0,0,1,.78-1.69,9.48,9.48,0,0,1,1.6-2.23l0,0a5.16,5.16,0,0,0,2-2.73,1.79,1.79,0,0,1,.94-1.65,3.89,3.89,0,0,1,1.59-2l.07-.12a11.4,11.4,0,0,0,1.86-2.65c7.4-17.76,14.89-21.16,39.39-17.24C161.77,169.32,167.59,171.3,173.49,172.81Z"/><path class="cls-82" d="M87.89,251.39l9.22,9.2q-4.36,6.09-8.75,12.16l-3.62-2.59C82.89,263.6,85.3,257.48,87.89,251.39Z"/><path class="cls-83" d="M98.8,260.26c4.91-7.27,12.39-11.81,18.75-17.54,1.56-1.41,3.45-2.93,5.14,0l-19.32,19.64c-.64.2-1.28.39-1.92.56Z"/><path class="cls-82" d="M90.19,238.33c.41,2.5.7,5-1.67,6.78C88.3,242.66,88.49,240.31,90.19,238.33Z"/><path class="cls-80" d="M105.55,203.33c.21,1.84-.11,3.46-1.81,4.54A4.58,4.58,0,0,1,105.55,203.33Z"/><path class="cls-80" d="M103.18,209.47l-1.42,2.78Z"/><path class="cls-80" d="M107.6,198.62c-.49.89-1,1.79-1.46,2.69C106.62,200.41,107.11,199.51,107.6,198.62Z"/><path class="cls-80" d="M110,194.7c-.54.74-1.07,1.49-1.6,2.23C108.91,196.19,109.44,195.44,110,194.7Z"/><path class="cls-80" d="M111.94,192l-2,2.73Z"/><path class="cls-80" d="M114.47,188.38l-1.59,2Z"/><path class="cls-80" d="M116.4,185.61l-1.86,2.65Z"/><path class="cls-84" d="M651.81,110.42c-1.84,3.84-4.7,4-8.53,3C645.68,110.36,648,108.73,651.81,110.42Z"/><path class="cls-85" d="M740.73,606.34l1.68-2.37c14.19-10.75,30-18.75,45.71-26.9,5.93-3.08,11.59-8.88,19-4,6.49,4.3,3.37,10.77,3.3,16.77-.21,18.53-.58,36.71-7.58,54.56-2.63,6.69.67,15.6.75,23.51,0,4.2,1.53,8.79-1.79,12.58-8-11.09-4.78-24.5-7.22-36.73-1.28-6.42-4.82-13.19-1.69-20.17,4.08-8.91,2.34-18.47,2.13-27.6-.18-7.85-5.61-11.23-13.92-8.23a130.85,130.85,0,0,0-25.39,12.46C751.11,603.12,746.49,606.23,740.73,606.34Z"/><path class="cls-86" d="M792.87,623.61c7.12,18.32,5.22,38,8.91,56.9-1.17,10.19.85,20.18,1.71,30.26,1.28,15-2.8,18.8-15.67,26.13-15.29,8.7-26.52,4.47-37.69-6.3-2.31-2.22-5.23-3.8-7.86-5.68-12.57-12.25-20.33-27.87-29.16-42.64-3.24-5.43.86-11.72,4.83-15.56a250,250,0,0,1,59.48-43.07C782.07,621.27,787.74,617.3,792.87,623.61Z"/><path class="cls-87" d="M547.69,595.24l-2.15-2.12c6.88-9.9,16-18.36,19.84-30.23,7.24-1.39,3.8,3.65,2.9,5.67-2.77,6.15-6.2,12-9.37,18Z"/><path class="cls-21" d="M569.53,558l-.5.9Z"/><path class="cls-88" d="M823.21,437.52l-2.05-2.06c3.17-4.1,6.41-8.12,11.52-10.1C830.28,430.08,827.82,434.64,823.21,437.52Z"/><path class="cls-16" d="M845.28,323.79c2,1.82,2.2,4.12,1.9,6.59C844.84,328.68,845.29,326.17,845.28,323.79Z"/><path class="cls-16" d="M847.56,336.69c1.76,2,1.94,4.32,1.69,6.78C847,341.64,847.47,339.11,847.56,336.69Z"/><path class="cls-16" d="M843.34,314.41c2.19,2,2,4.58,1.62,7.2C842.51,319.64,843.15,317,843.34,314.41Z"/><path class="cls-16" d="M841,306.16l1.68,4.49C841.08,309.52,840.86,307.9,841,306.16Z"/><path class="cls-16" d="M838.9,299.26c1.64,1.25,1.83,3,1.66,4.85C838.86,302.88,838.7,301.13,838.9,299.26Z"/><path class="cls-16" d="M836.55,293.09l1.76,4.44C836.73,296.44,836.49,294.82,836.55,293.09Z"/><path class="cls-89" d="M101.32,477c-.26,5.55-.9,11.3,6.63,12.81s8.82-4.79,11.26-9.44c7-13.25,15.29-24.9,31.45-27.61,3.38-.57,4.62-3.14,6.08-5.71,1.73-3,2.51-7,8.23-8-3.93,20.26-5.69,40.37-13.2,59.24-3.29,8.25-5.61,16-3,25.27a34.25,34.25,0,0,1-1.23,21.51c-1.09,2.83-2.18,5.54-4.73,7.09-3.29,2-6.28,4.5-11,2.38-6.06-2.73,2.12-7.14-1.74-9.71-3-2.1-4.26-4.74-2.74-8.31-3.51-3.47-4.2-.63-4.15,2.13.16,9.17-2.39,13-11.09,6.22a6.84,6.84,0,0,0-4-1.69c-19.31.94-32.9-12.51-48.95-19.61-14.26-6.31-18.29-19.67-19.81-33.94,0-.45,1.56-1.07,2.4-1.62h1.63a20.42,20.42,0,0,1,3.22.14c11.55,5.37,23,10.87,35.88,12.66,5.93.82,8.11-1,9.87-6.81,2.41-7.87-1-17.15,5.86-23.81a2.72,2.72,0,0,1,3.06.25C101.29,472.66,101.31,474.85,101.32,477Z"/><path class="cls-86" d="M283,243.24c23.31-7.42,47.46-8,71.58-8.82,9.09,8.66,1.62,15.33-3.22,21.54-13.72,17.64-30.77,31.61-49.09,44.4-16.17,11.3-33.84,19.68-50.86,29.34-4.8,2.72-8.24,1.15-12-1.09-10.92-6.46-21.81-13-31.08-21.79-2.87-3.69-5.62-7.48-8.64-11.05-7.74-9.15-7.73-11.24,2.49-16.88,18.26-10.08,35.5-22.3,56.13-27.59,2-1,2.85.09,3.26,1.89-2.66,5.47-8.12,7.06-13.13,8.75-12.47,4.2-23.48,11.13-34.6,17.81-11.87,7.15-11.9,8.49-2.4,18.1,1,1,2.1,2,3.13,3,31.88,31.69,32.86,24.49,60.57,9.09,23.72-13.18,46.27-28.85,64.3-49.86a77.76,77.76,0,0,0,7.23-9.55c1.29-2.07,3.71-4.19,1.9-6.83-1.58-2.29-4.56-2.37-7-2-15.8,2.35-31.93,1.51-47.58,5.2a19.77,19.77,0,0,1-4.9.63C286.43,247,283.09,247.43,283,243.24Z"/><path class="cls-90" d="M26.52,428.4c4.31-35.57,18.21-66.24,47-88.69,11.09-8.66,14.67-7.37,19.23,6.21,5.83,17.37,4.82,35.78,6.59,53.75.68,6.82-.62,13.82,1.87,20.48q0,7.64,0,15.27h0c-4.08,8.38-.15,17.61-2.8,26.14-5.1-1.32-3.79-5.8-4.59-9.25a523.75,523.75,0,0,0-2.08-56.44c.87-8.59-1.26-17-2-25.44-.45-5.28-3.14-6.67-7.8-5.92a4.14,4.14,0,0,1-3.52-2.62c-.61-3.81,2-6,4.28-8.29,1.91-1.94,3.41-4.07,1.41-6.66-2.16-2.79-5.15-2.6-7.85-1-5,2.92-9.86,6.21-13.37,11-8.84,12-16.67,24.64-20.87,39.18-2.38,11.9-7,23.18-9.53,35-.58,2.73-1.24,5.64-4.24,7C24,435.55,26.07,431.83,26.52,428.4Z"/><path class="cls-91" d="M252.57,374.33a1.92,1.92,0,0,0,1.91-.44c1.65-.84,3.5-1,5.22-1.58l2.85-.08a7.67,7.67,0,0,1,2.84,1.93l0,0a12.11,12.11,0,0,0,2.2,2l.1.13c1.57,2,.22,4.84,1.8,6.88l-.13,0a1.49,1.49,0,0,0,.1,1.9.82.82,0,0,0,0,1.34c-2.26,5.94.53,12.37-1.74,18.32-2,14-4.29,28-5.79,42.08-.75,7.09-3.17,10.18-10.37,7.63-16.45-5.82-29.59-16.79-42.2-28.25-4.26-3.88-4.25-8.37,1.32-13.68,11.75-11.19,22.37-23.59,35-33.93.75-.73,1.42-1.54,2.19-2.26h0C249.17,375.11,251.18,375.43,252.57,374.33Z"/><path class="cls-92" d="M96.51,452.19c.78,3.09-.51,6.6,1.9,9.36.27,1.53.53,3.06.8,4.6,1.07,1.48,1.2,2.93-.12,4.34-1.25,8.19-2.82,16.34-3.65,24.57-.75,7.4-4,10.07-11.52,9.07-14.22-1.87-26.77-8.05-39.48-14a9.65,9.65,0,0,0-2.36-1.8l-.32-.3,2.49-2.36a3.78,3.78,0,0,1,2.82-.94c2.52.3,4.91,1.25,7.41,1.54,5.82-2.26,2.57-6.94,2.06-10.06-3-18.66-2.36-37.4-1.86-56.14.18-6.49.62-13.1,6.46-17.63,3.27-.91,4.17,1.4,5.11,3.71a17.28,17.28,0,0,1,.64,3.7,20.53,20.53,0,0,1-.07,3.76c-2.81,18.31-2.11,36.69-1,55.05,1.41,6.39,2.53,12.86,4.67,19.08,2.06,6,6.74,8.7,12.6,8.66,6.88-.05,6.13-6,6.86-10.48.82-5,2.18-10,1.64-15.18C92.37,464.34,89.1,456.83,96.51,452.19Z"/><path class="cls-93" d="M149.79,365.33c-.58-5.31-.74-10.72-1.83-15.92-1.91-9.1.29-16.15,8.63-20.83l18.74-6c-.48,11.91-.62,23.84-1.57,35.71a12.46,12.46,0,0,1-10.85,11.79C158.08,370.84,152,372.79,149.79,365.33Z"/><path class="cls-94" d="M118.75,385.14c1.71-13-.82-26.36,3.84-39,2.38,18.26.19,36.44-2.26,54.86Q119.54,393,118.75,385.14Z"/><path class="cls-44" d="M101.21,435.42c4.24,6.21,1.5,12.9,0,19.47V435.41Z"/><path class="cls-44" d="M99.09,470.49l.12-4.34c1.27,1.16,4.78,1.26,2.07,4.33Z"/><path class="cls-95" d="M171.26,617.36c-24-12.89-48.14-25.5-70.92-40.5-2.12-1.39-5.52-2.06-6.4-4-8.55-18.32-28.49-19.72-42.88-29.29-6.66-4.42-13.86-8-20.58-12.32-7.42-4.78-9.07-13.51-3.92-18.7l2.51,8.21c11,4.34,19.32,12.92,29.77,18.16,42.35,21.25,86.79,36.08,134,40.4,27.13,2.48,54.54,1,81.7-1.08,19.94-1.52,39.92-2.16,59.86-3.32,51.88-3,102.72-10.35,151.13-30.34,7.76-3.2,15-7.35,22.6-10.88l4.4-6.57c2.35-.2,2.37-8.19,6.62-2,1.26,2.88-.78,4.4-2.49,6l-6.36,11.41c-8.14,9.72-19.9,12.69-31.24,15.67-8.55,2.25-16,6.07-23.4,10.54-4.33,5.9-8.3,12.16-15.3,15.39h0c-16.42,1.81-26.85,14.56-39.66,22.57-35.07,21.93-73.16,32.71-113.95,36.12C245.55,646.39,208.18,633.09,171.26,617.36Z"/><path class="cls-21" d="M455.71,568.86c7.26-10.44,19.62-11.15,30-15.41,8.3-3.41,16.81-6.28,24.62-10.8-6.57,14.21-19.62,22.42-33.2,19.85C468.57,560.88,463.53,569.13,455.71,568.86Z"/><path class="cls-15" d="M536.71,492.37c12.35-10.75,23.72-24.07,43.08-15.85,4.11,1.75,7.7-1.44,11.63-1.66-3.78,6-8.29,9.11-16.12,6.93-9.55-2.66-18.18,1.72-26.66,5.71C544.76,489.33,540.69,490.76,536.71,492.37Z"/><path class="cls-15" d="M641.5,444.32l15.91,29.9C648.28,469.51,639.25,452.55,641.5,444.32Z"/><path class="cls-15" d="M621.61,482.5c-3.51-1-5.85-3.07-5.66-6.05.36-5.49,5.88-5.55,9.48-7.29a3.21,3.21,0,0,1,4.5,3.11C629.36,477.35,624.75,479.49,621.61,482.5Z"/><path class="cls-15" d="M553,510.35c-2.17,5-4.18,9.28-9.6,9.48-2.28.09-2.33-2.41-2.08-4.11C542.27,509.21,547,509.65,553,510.35Z"/><path class="cls-15" d="M563.89,503.77c-2.3.51-2.74-.47-2.72-1.6a2.57,2.57,0,0,1,2.5-2.86c1.55-.1,3.14.57,2.67,2.26C566,502.65,564.38,503.36,563.89,503.77Z"/><path class="cls-21" d="M516.71,531.24l2.49-6C521.94,528.68,521.83,531,516.71,531.24Z"/><path class="cls-15" d="M591.42,474.86a6.61,6.61,0,0,1,6.56-4.38A6.61,6.61,0,0,1,591.42,474.86Z"/><path class="cls-15" d="M549.84,564.58c-.94,1.76-2.57,2.14-4.38,2.18C546.41,565,548,564.62,549.84,564.58Z"/><path class="cls-15" d="M545.46,566.76c-.94,1.77-2.57,2.15-4.37,2.19C542,567.19,543.66,566.81,545.46,566.76Z"/><path class="cls-15" d="M541.09,569c-1,1.76-2.58,2.15-4.38,2.19C537.65,569.38,539.29,569,541.09,569Z"/><path class="cls-15" d="M536.71,571.14c-.94,1.76-2.57,2.15-4.38,2.19C533.28,571.57,534.91,571.18,536.71,571.14Z"/><path class="cls-15" d="M600.17,468.3l2.18-2.2Z"/><path class="cls-15" d="M598,470.48l2.19-2.18Z"/><path class="cls-21" d="M440.41,584.25l.9.52-.89-.52Z"/><path class="cls-96" d="M361.31,433.34a1.82,1.82,0,0,0,.43-2c1.15-1.3.85-3.17,1.78-4.56a1.23,1.23,0,0,0,.57-1.52c.17-1.11,1-1.86,1.43-2.84a2,2,0,0,0,.6-2c1.18-1.32.82-3.34,2.11-4.61h0c1.32-1.15.89-3.11,2-4.36a.84.84,0,0,0,.46-1.21,5.75,5.75,0,0,1,1.82-3.22l.05-.06c.84-.63,1.52-1.43,2.36-2l-.08.07a20.56,20.56,0,0,1,2.17-2.3l0,0a5.77,5.77,0,0,0,1.53-2.15,1.74,1.74,0,0,0,.82-1.77,13.13,13.13,0,0,1,1.73-2.65l2.55-4.15a23.46,23.46,0,0,0,1.68-2.4,1.36,1.36,0,0,0,.77-1.5c12.52-13.55,25.41-26.39,41.12-36.68,15.36-10.06,28.75-2.38,41.71,6.11,16,10.44,22.49,26.68,28.93,43.23.91,2.33,1.65,4.87,4.11,6.22l3.87,9.12v0a1.57,1.57,0,0,0,.31,1.9c1.78,2.08.45,5,1.9,7.14a1.24,1.24,0,0,0,.29,1.6q1.29,9.6,2.59,19.2c.6,3.23,1.59,6.49-.73,9.49a2.8,2.8,0,0,1-2.91-.77,19.85,19.85,0,0,1-2.67-5.73,23.38,23.38,0,0,1-.93-4.44,36.13,36.13,0,0,0-1.4-7,25.07,25.07,0,0,1-.84-5.51,25.37,25.37,0,0,0-.94-6.48c-.38-1.2-.68-2.43-1-3.65s-.73-2.33-1.16-3.47a19,19,0,0,1-.73-2.29,35.63,35.63,0,0,0-1.51-4.51,17.7,17.7,0,0,1-.75-2.23c-.33-1.1-.65-2.2-1-3.27-.31-.67-.57-1.37-.83-2.06-.44-1-.89-2-1.39-2.94a13.6,13.6,0,0,1-.91-1.93q-.69-1.44-1.47-2.85c-.36-.64-.67-1.3-1-2-.53-1-1.1-2-1.69-3-.47-.68-.9-1.37-1.36-2.06s-1.13-1.33-1.72-2c-.34-.35-.62-.69-1-1-7.33-9.38-13.84-19.44-24.41-25.82-8.46-5.11-12.42-4.84-18.57,2.79-4.52,5.6-9.34,11.1-10.91,18.49-3.24,6.74-7.6,13-8.94,20.55-3.67,9.42-.69,20.25-6.19,29.27-7.25-2.93-4.14-9.44-5.07-14.56-.57-11.51,3.15-22.11,6.94-32.69,3.89-7.77,7.42-15.73,11.44-23.59-19.37,12.1-35.36,27.26-44.94,48.42-15,24.91-20.56,52.37-22.18,80.94-.58,10.2,1.44,18.79,12.09,23.06a5.25,5.25,0,0,1,3,4.27c-1.51,3.61-4.83,3.79-8,4.29-13.67-1.21-17.05-4.63-17.65-18a199.32,199.32,0,0,1,3.22-46.39c.73-3.86,1-8,4.19-10.92a1.33,1.33,0,0,0,.38-1.67c.92-1.46.84-3.26,1.6-4.78a1.82,1.82,0,0,0,.55-1.9C360.64,436.62,360.43,434.78,361.31,433.34Z"/><path class="cls-97" d="M260.88,253.6c-.86-.76-1.71-1.53-2.56-2.3,7.59-4.68,16.33-5.81,24.71-8.06,1.69,2.35,4.36,1.58,6.63,2.06C281.57,253.27,271.59,254.7,260.88,253.6Z"/><path class="cls-98" d="M508.18,533.74c-1.94,5.36-6.6,7.37-11.33,9.46a368,368,0,0,1-99.2,28.41c-59.16,8.15-118.73,10-178.33,11.55-36.06,1-70.36-6.61-104.26-17.93-20.74-6.92-41.24-14.28-60.28-25-9.32-5.27-18.67-10.91-25.71-19.39,12.11-.75,21.84,6.13,32,10.83a442.82,442.82,0,0,0,73,26.39c24.48,7.27,49.54,9.2,75,9.61,14.1.23,28.16,1.76,42.34.53,35.15-3,70.41-4.29,105.65-5.94a218.89,218.89,0,0,0,94-26.07,92.16,92.16,0,0,0,8.5-4.94c5.71-3.89,9.55-7.73.23-12-1.65-.75-2.43-2.64-2.5-4.6.61-1.76,1.78-3.62,3.45-3.79,11.42-1.16,21.82-8.54,33.9-5.56,4.09,5.62,7.13,11.65,7.05,18.82C501.64,528.81,503.38,532.29,508.18,533.74Z"/><path class="cls-99" d="M494.65,505.25l-36.71,9.09c-11.2,7-23.85,5.81-36.19,6.4-3-.86-5.94-1.78-8-4.38,2.05-5.26,1.19-10.09-.57-15.53a164.59,164.59,0,0,1-5.86-80.15c.44-2.51,1.21-5,4.37-5.42,1.38,5.17-1.21,10.81,1.86,15.79,4.63,3.43,3.56,8.42,3.28,13-1,16.5,1.54,32.57,5.51,48.47,1.37,3.33,2.34,6.82,3.9,10.09,2.23,4.65,6,8.13,11.07,7,19.26-4.39,39.64-4,57.76-13.36a78.37,78.37,0,0,0,10.18-6.14,20.27,20.27,0,0,1,4-2.44,2.86,2.86,0,0,1,2.86.5C513.72,501.45,502.05,501.16,494.65,505.25Z"/><path class="cls-100" d="M512.14,488.16a9.26,9.26,0,0,1-1.58.11c-6-7.22-1.21-16.38-4.39-24.11-.38-3.33-.63-6.63,2.54-9,2.66-2.64,1.08-6.28,2.19-9.28C514.35,459.92,513,474,512.14,488.16Z"/><path class="cls-29" d="M565.47,229.49l-1,1,1-1Z"/><path class="cls-21" d="M508,425.13q-1-3.57-1.9-7.14C508.8,419.83,508.3,422.51,508,425.13Z"/><path class="cls-18" d="M505.81,416.07c.34-1,.68-2,1-3,2.08,1.81-.32,2.13-1,3Z"/><path class="cls-18" d="M420.6,518.21l37.34-3.87a7.39,7.39,0,0,0,4.8,4.09c3.18.86,8.69-1.42,8.74,3.68,0,3.47-3.05,7.16-6.59,9.46a210.32,210.32,0,0,1-34.84,17.83c-27.38,11.24-56.29,17.27-85.46,16.81-39.28-.6-78,7.06-117.29,4.95-28.34-1.52-56.91-.85-84.48-9.2-3-.9-6.55-1.07-8.76-3.94,32.8,6.84,66.22,6.56,99.43,8.59,11.54.7,23-3.1,34.69-2.25a8.94,8.94,0,0,0,5.11-1.66c14.89-9.81,28.55-21.09,38.93-35.71,4.39-6.19,4.36-12.65-2.7-18-4.3-3.28-7.94-7.5-11.58-11.57-10.05-11.25-16.27-12.52-27.86-3.76a320.65,320.65,0,0,1-35.25,23.53c-7.7,4.36-15.65,7.89-24.84,4.5-4.87-1.8-8.83-.07-13.24,2.49-9.42,5.47-19.23,7.91-30,2.25-6.9-3.62-9.36-8.44-8.6-15.82,1.75-17,26.21-29.25,40.67-20.26,10.8,6.72,17.65,5.82,28.43-2.26,11.91-8.92,23.57-18.1,34.57-28.12,4.92-4.47,10.64-6.26,17.13-3.5,11.56,4.91,21.88,3,31.09-5.49,9.59-8.82,22.65-7.12,33.89-11,5.81-2,8.87,3.94,13.14,6.37-1.82,18.34-4.19,36.6-4.42,55.1-.18,14.43.9,16.47,15.06,17.67,8,.23,15.87,0,23.12-4a12.94,12.94,0,0,1,9.28-.52c4.48,2.54,9.22,3.93,14.44,3C416.59,517.62,418.65,517.28,420.6,518.21Z"/><path class="cls-101" d="M46.47,486.06l-2.22-.37A4.52,4.52,0,0,0,39.64,484c-2.65.49-3.8-1.49-5.16-3.14a7.89,7.89,0,0,1-1-2.39l-.15-1.29-4.62-15.66a33.19,33.19,0,0,1,0-23.89c1.4-15.2,7.81-29.07,11.48-43.67,7.52-9.37,16.6-17.21,25.2-25.51,2.58-2.49,6.32-6.45,9.19.24C72.72,380.86,68,392,61.75,402.6,55,423,56.33,444,58.18,464.91c.78,8.91,1.39,17.88,4.73,27-4.68-.53-7.85-1-9.93-3.93C51.2,486,48.38,487.6,46.47,486.06Z"/><path class="cls-102" d="M359.47,354.51c.3,1.84.77,4,2.92,4,13.53.29,11.78,8.74,9.27,17.36-2.86,9.84-8.07,18.39-14.13,26.68-5.72,7.84-12.14,15.34-15.88,24.53-1,2.47-3,4.3-6,3.33-2.61-.85-2.33-3.35-2.4-5.49-.15-4.71-.25-9.42-.36-14.14a5.79,5.79,0,0,1-1.61-5c3.35-19.85,11.15-37.6,25.05-52.41A4.06,4.06,0,0,1,359.47,354.51Z"/><path class="cls-103" d="M357.18,354.47c-13.53,16.43-21.43,35.29-24.3,56.33-.77,1.18-1.41,3.25-2.33,3.39-2.65.4-2.05-2.14-2.19-3.6-.84-8.75,1.93-16.78,5.11-24.72a7.4,7.4,0,0,1,1.67-2.88c1.62-1.61,2.9-3.38,2.7-5.84a8.48,8.48,0,0,1,1.57-2.89,1.24,1.24,0,0,0,.64-1.39,6.44,6.44,0,0,1,1.8-3.08l.06-.1a3.41,3.41,0,0,0,1.51-2l.81-2a17.37,17.37,0,0,0,1.63-2.36l2.68-4.39a11.18,11.18,0,0,0,1.8-2.19,1,1,0,0,0,.68-1.21,5.45,5.45,0,0,1,1.81-3.24l0-.07A7.79,7.79,0,0,0,354.8,350l.2-.2a7.13,7.13,0,0,0,2.15-1.94l.09-.07a15.87,15.87,0,0,1,2.56-1.9l-.2.24c.55-.46,1.15-.81,1.58-.6,1.09.5.86,1.45.6,2.36l-2.49,4A5.4,5.4,0,0,1,357.18,354.47Z"/><path class="cls-104" d="M208.46,542.82c3.93-4.14,5.54.2,7.37,2.29s.23,3.94-1.19,5.68c-4.29,5.28-9.24,6.5-15.12,2.69C200,547.84,206.66,547.37,208.46,542.82Z"/><path class="cls-105" d="M28.79,437.58q0,11.94,0,23.89c-3.56.62-4.24-1.52-4.24-4.37,0-9.61-.83-19.28,2-28.69C27.68,431.36,25.86,435.06,28.79,437.58Z"/><path class="cls-106" d="M208.46,542.82c2.24,7.93-6.23,6.88-8.94,10.66-4.38-6,3.36-5.87,4.55-9.05.94-.41,1.74-1.07,2.69-1.47A4.66,4.66,0,0,0,208.46,542.82Z"/><path class="cls-18" d="M267.76,404.81c.13-6.15-.59-12.38,1.74-18.32C269.12,392.61,271.74,399,267.76,404.81Z"/><path class="cls-107" d="M127.34,536.56q1.38,4.16,2.74,8.31c-.72,2-2.52,3.09-3.73,1.34C124.14,543,122.9,539.34,127.34,536.56Z"/><path class="cls-108" d="M35.64,479.1l4,4.85c-7.68,2.86-8.13-.92-6.27-6.82l0,0C34.08,477.81,34.84,478.47,35.64,479.1Z"/><path class="cls-18" d="M269.53,383.22l-1.8-6.88C270.2,378.15,269.77,380.71,269.53,383.22Z"/><path class="cls-18" d="M361.78,347.93l-2.18-1.76c.54-1.42,1.51-2.63,2.95-1.48S363,347.06,361.78,347.93Z"/><path class="cls-18" d="M259.7,372.31c-1.41,1.6-3.26,1.78-5.22,1.58C255.83,372.06,257.72,372.06,259.7,372.31Z"/><path class="cls-18" d="M359.05,439.91c-.53,1.6-1.07,3.19-1.6,4.78C357.28,442.86,357.43,441.14,359.05,439.91Z"/><path class="cls-18" d="M361.31,433.34A4.8,4.8,0,0,1,359.6,438C359.46,436.19,359.68,434.5,361.31,433.34Z"/><path class="cls-18" d="M363.52,426.77q-.88,2.28-1.78,4.56C361.64,429.54,361.89,427.88,363.52,426.77Z"/><path class="cls-18" d="M368.23,415.78c-.7,1.54-1.41,3.07-2.11,4.61C366,418.49,366.41,416.81,368.23,415.78Z"/><path class="cls-18" d="M370.23,411.43c-.67,1.45-1.33,2.91-2,4.36C368.21,414,368.56,412.43,370.23,411.43Z"/><path class="cls-18" d="M252.57,374.33l-4.69,2.08C248.89,374.48,250.64,374.21,252.57,374.33Z"/><path class="cls-18" d="M365.52,422.41l-1.43,2.84Z"/><path class="cls-18" d="M341.85,369.79l-1.8,3.08Z"/><path class="cls-18" d="M343.42,367.73c-.51.65-1,1.3-1.51,2C342.41,369,342.91,368.38,343.42,367.73Z"/><path class="cls-18" d="M345.86,363.33l-1.63,2.36Z"/><path class="cls-18" d="M339.41,374.26c-.52,1-1,1.93-1.57,2.89C338.37,376.19,338.89,375.22,339.41,374.26Z"/><path class="cls-18" d="M247.9,376.4l-2.19,2.26Z"/><path class="cls-18" d="M350.34,356.75l-1.8,2.19Z"/><path class="cls-18" d="M357.18,354.47c.71-.85,1.41-1.7,2.11-2.56l.18,2.6Z"/><path class="cls-18" d="M352.83,352.3,351,355.54Z"/><path class="cls-18" d="M354.8,350l-1.93,2.19Z"/><path class="cls-18" d="M357.15,347.9,355,349.84Z"/><path class="cls-18" d="M359.8,345.93l-2.56,1.9Z"/><path class="cls-18" d="M335.14,383l-1.67,2.88Z"/><path class="cls-18" d="M385.3,389.57l-1.68,2.4Z"/><path class="cls-18" d="M381.07,396.12l-1.73,2.65Z"/><path class="cls-18" d="M378.52,400.54,377,402.69Z"/><path class="cls-18" d="M377,402.67l-2.17,2.3Z"/><path class="cls-18" d="M265.39,374.16l-2.84-1.93Z"/><path class="cls-18" d="M374.92,404.9l-2.36,2Z"/><path class="cls-18" d="M267.63,376.21c-.74-.67-1.47-1.35-2.2-2C266.16,374.86,266.89,375.54,267.63,376.21Z"/><path class="cls-104" d="M206.76,543l-2.69,1.47Z"/><path class="cls-18" d="M372.51,407l-1.82,3.22Z"/><path class="cls-109" d="M474.93,676.29c-2.19-9.91-2.75-19.45,6.53-28.83C479,658.41,477,667.35,474.93,676.29Z"/><path class="cls-54" d="M690.31,621.23c0-2.05-.08-4.11-.11-6.16C692.57,617.09,692.64,619.14,690.31,621.23Z"/><path class="cls-54" d="M613.3,584.27c-.94,1.75-2.56,2.16-4.37,2.22C609.86,584.7,611.49,584.31,613.3,584.27Z"/><path class="cls-45" d="M503.75,643.25c-.09-1.3-.17-2.59-.26-3.88L506,639c0,.71,0,1.42.05,2.14Z"/><path class="cls-110" d="M584.46,689.56c.11,12.06-12.1,19.8-22.1,14.73-10.74-5.45-15-16.36-21.05-25.68-1.82-2.79.62-6,2.26-7.94,7.16-8.67,17-13.25,27.58-16.19,4-1.11,6.06,1.71,7,5.11A175.09,175.09,0,0,1,584.46,689.56Z"/><path class="cls-111" d="M738.47,713.35c-9.16-9.53-15.05-21.13-20.54-33-2.45-5.28,1.14-9.21,4.29-12.29a213.92,213.92,0,0,1,51.61-37.76c13.33-6.86,15.29-5.93,18.61,8.53a37.73,37.73,0,0,1,.39,6.49c1.33,3.88,2.61,8.37-1.92,10.47-7.14,3.3-8.78,9.95-12,16-8.62,16-19,30.73-33.48,42.19-1.45,1.16-2.95,2.09-4.91,1.34l-.16-.16A3.8,3.8,0,0,1,738.47,713.35Z"/><path class="cls-112" d="M740.5,715.33c17-15.22,31.6-32.18,39.94-53.84,1.13-3,2.44-6.61,6.24-6.84,6.56-.39,5.9-5,6.15-9.28a227.79,227.79,0,0,1,4,41.69c-12,14.15-26.07,26.19-39.71,38.66-1.6,1.46-3.48,2.77-5.61.62C747.12,723.39,742.38,720.79,740.5,715.33Z"/><path class="cls-113" d="M751.51,726.34c12.57-9.62,23.91-20.59,35-31.84,3-3,5.35-7.08,10.31-7.44.82,7.55,1.33,15.15,2.52,22.64,2.32,14.55-8,19.57-18.11,25-9.45,5-17.45,2.23-25-4C754.6,729.35,753.09,727.81,751.51,726.34Z"/><path class="cls-112" d="M738.47,713.35l1.87,1.83Z"/><path class="cls-44" d="M42.08,488.35l2.36,1.8Z"/><path class="cls-114" d="M293.65,245c17.18-5.25,35.05-4.66,52.67-5.8,6.6-.43,9.91,2.08,5,9.65-12.33,19.09-29.25,33.26-47.57,45.92a382.33,382.33,0,0,1-41.87,25.6c-11.93,6.17-21.51,6.08-32-1.95-6.37-4.88-13-9.29-17.28-16.29,5.41-8.41,14.43-11.93,22.67-16.32C254.88,275.37,275.13,266,291.12,250,292.51,248.6,295.37,248,293.65,245Z"/><path class="cls-115" d="M293.65,245c1.43.17,3.31-.19,4.19.59,2.39,2.14-.47,2.74-1.55,3.75a188.48,188.48,0,0,1-50.78,34c-11.59,5.22-21.81,12.68-32.88,18.75-15.87-15.78-15.41-15,3.25-26.81,14.29-9,30.06-14.38,45-21.72l28.78-8.3Z"/><path class="cls-116" d="M96.51,452.19C94.08,459,94.76,466.07,94.15,473c-4.22,4.86-6.85.81-9.15-2-3.21-3.87-4.45-8.79-5.78-13.58a120.11,120.11,0,0,1,0-29.23c2.83-11.87,1.8-25.11,12-34.4a2.55,2.55,0,0,1,3.24.32C97.57,413.42,95.8,432.85,96.51,452.19Z"/><path class="cls-117" d="M73.26,368.33c-4.77-3.44-5.81,1.91-8,3.71-8.56,7-14.53,17-25,21.87C46.42,375,55.85,358.18,71.5,345.36c4.75-3.9,10.37-7.54,15.15-1.74s2.14,11.12-4.86,14.12c-1.08.46-1.58,2.29-2.35,3.48C78.08,364.2,78.1,368.37,73.26,368.33Z"/><path class="cls-118" d="M94.48,394.17l-2-.1c-3.73-14.76-13.84-8.1-22.41-6.69-.58-10.13,4.55-17.43,11.78-23.67,5.68-5.29,10-6.28,10.65,3.51Q93.51,380.7,94.48,394.17Z"/><path class="cls-119" d="M81.89,363.71c-3.4,8-11.21,14-11,23.68.4,6.65-2,12.77-3.62,19a2.53,2.53,0,0,1-2.89,1c-.39-1.89-.56-3.91-2.68-4.84,1.55-12.2,8-22.75,11.51-34.27l6.18-7.11Z"/><path class="cls-120" d="M263.07,389.78c-1.55,17.91-3,34.93-4.52,52-.46,5.37-2.26,10-8.71,7.38A94.55,94.55,0,0,1,216,425.74c-4-4.31-4.3-8.05.5-13,10.1-10.45,20.11-20.91,31.88-29.52,3.77-2.76,8-6.78,12.5-4.61S262.47,386.54,263.07,389.78Z"/><path class="cls-121" d="M81.79,459.25c4.61,4.15,1.7,15.05,12.36,13.79-.49,4.67-.83,9.36-1.49,14-.73,5.12.75,13.15-6.46,13s-16.78-.41-18.66-11.3c-1.05-6.06-2.35-12.08-3.54-18.13-3.09-7.94.34-11.4,8.16-12A30.85,30.85,0,0,1,81.79,459.25Z"/><path class="cls-122" d="M81.79,459.25c-2.25,3.11-5.66,2.73-8.7,2.4-6.94-.76-9.87,2.1-9.09,9-4.18-19.79-3-39.54.46-59.27,5.42,1.65,7.73,8.78,15.74,7,4-.89,2.19,5.37,1.55,8.66Z"/><path class="cls-123" d="M81.75,427c-.9-3,2-8.55-6.19-5.28-6.8,2.7-8.23-5.85-11.1-10.39a2.5,2.5,0,0,1,.2-2.07,7,7,0,0,1,1.4-2.48,31.38,31.38,0,0,1,4.88-19.39,14,14,0,0,0,2.51-2c3.87-4.77,9-5.85,14.45-4.16,6.63,2.07,3.88,8.22,4.62,12.81C85.39,403.88,84.77,415.84,81.75,427Z"/><path class="cls-44" d="M46.47,486.06c2.55-.67,5.15-1.54,6.51,1.88Z"/><path class="cls-122" d="M66.06,406.78c-.46.83-.93,1.65-1.4,2.48a4.5,4.5,0,0,1-.23-1.82A15.43,15.43,0,0,1,66.06,406.78Z"/><path class="cls-124" d="M171.12,345.82c-1.28,6.18,3.69,17.11-10.12,19.77-4.94,1-6.84-.24-7-5-.19-6.56-.46-13.11-.54-19.66-.12-9.62,8.2-9.88,14.27-12.18,2.8-1.07,3.32,1.87,3.35,4.13C171.15,336.55,171.12,340.19,171.12,345.82Z"/><path class="cls-125" d="M372.52,616.69c-31.55,13.72-64.36,22-98.92,21.46-25.1-.38-49.86-4.06-72.77-14.76-9.81-4.58-21.26-5.13-29.77-12.57.35-6.9,6.29-7.4,10.82-8.76a193.56,193.56,0,0,1,41.81-7.55c48.69-3.5,96.56,2.1,143.66,14.62,3.28.88,7.58,1,7.82,6l-.09,0A26.33,26.33,0,0,0,372.52,616.69Z"/><path class="cls-126" d="M375.17,615.15c-21.61-7.17-44-11.62-66.33-14.75-41.09-5.75-82.48-5.79-123.3,3.8-5.11,1.2-10.91,1.68-14.48,6.62-8.2-3.75-16.33-7.7-24.64-11.2-5.67-2.39-12-5.17-9.16-12.21,2.68-6.61,9.65-8.91,16.65-6.48,10.81,3.75,21.9,4.62,33.19,5.5,31.59,2.46,63.18,1.54,94.67-.09C326,584.05,370.4,582,414,573.08c5.51-1.13,8,2,9.3,5.26,2.25,5.59-1.46,10.16-6,12.58-11.14,6-20.69,14.82-33,18.64C380.68,610.69,378.27,613.38,375.17,615.15Z"/><path class="cls-127" d="M135,577.67c-1.61,3.84-2.3,8.38-4.92,10.94-3,2.89-5.84-1.62-8-3.23-5.07-3.75-16.11-5.44-12.17-13.66,3.5-7.31,11.27,1.17,17.3,1.43C130,573.27,133.78,573.9,135,577.67Z"/><path class="cls-128" d="M434.72,580.83c-4.74-1-10.25-4.65-8.88-8,2.28-5.45,9.93-4.18,15.24-5.86,2.91-.93,4,1.87,3.5,4C443.37,576.2,441,580.56,434.72,580.83Z"/><path class="cls-129" d="M93.54,563.44c4.89.75,10.4-.1,13.16,4.69.65,1.13-1.57,4.35-3.82,4.43C97.15,572.77,96,567.47,93.54,563.44Z"/><path class="cls-126" d="M372.52,616.69l2.56-1.5Z"/><path class="cls-130" d="M401.42,517l-11.61-.06a15.86,15.86,0,0,1-15.13-.18c-14.36-3.12-18.1-12.37-17.26-26.28,1.79-29.7,6.56-58.29,23.48-83.62,11.18-8.32,21.19-18.09,32.53-26.22,4-2.83,6.5-3.89,5.34,2.75-2.95,10.5-7.61,20.62-7.06,31.89-5.78,33.56-5.26,66.42,10.37,99-1.37,2.46-6.22-1.32-8.49,1.88a5.31,5.31,0,0,1-2.53,2A14.48,14.48,0,0,1,401.42,517Z"/><path class="cls-131" d="M508.71,455.21l-.35,8.5c1.6,2.82,1,5.79.58,8.73-4.63,4.62-10.12,2.57-15.38,1.87-8.71-1.17-17.33-2-25.23,3.19-.6.39-1.34.93-2,.84-18.27-2.56-30.69,11-45.94,16.68-7.78-20.74-6.95-42.39-6.85-64,1.54-10.37.23-21.18,4.8-31.09,4.72,5,3,11.75,4.52,17.61,3.31,12.74,6.94,14.72,18.22,8.2,4.34-2.5,5.15.13,5.91,3.05,1.39,5.31-.06,10.94,1.6,16.24,1.57,6.23,3.28,12.44,6.53,18,4.56,7.87,7.13,8.07,13.07,1.2,1.42-1.64,2.73-3.3,5-3.83,6.8-1.36,13.69-1.53,20.6-1.59,4.59,0,7.85-2.49,5-6.69-5.69-8.32-4.91-17.31-6-26.55-1.18-9.75-6.74-19-9-29-.78-3.4-3.64-7.7,2.58-9.28l.05.05a6.52,6.52,0,0,1,1.6,1.94,2.53,2.53,0,0,1,.71,1.95c.53.8,1,1.61,1.51,2.43.21.7.43,1.4.64,2.1a13,13,0,0,1,1.49,2.26c.22.74.45,1.48.68,2.21a7.63,7.63,0,0,1,1.44,2.16l.68,2.43c1.38,1.07.82,3,1.93,4.21a1.93,1.93,0,0,1,.48,1.72c.85,1.5.65,3.36,1.63,4.81a1.94,1.94,0,0,1,.53,1.7,11.11,11.11,0,0,0,1.54,2.67c.23,1.3.46,2.59.7,3.88,1.34,2.17.22,4.91,1.62,7.07q.24,3.18.46,6.36c1.61,2,.29,4.72,1.69,6.77l.48,4.23c1.05,1.31.81,3.07,1.55,4.48Z"/><path class="cls-131" d="M486.31,387.39c-1.87,12.66,4.63,23.29,8.82,34.36,1.59,4.19,3.65,7.16.46,11.6-2.08,2.9-1.77,6.42,1.35,9.79,2.86,3.09,4.61,7.37,6.27,11.37,1.15,2.77,1.15,6.67-2.81,6.79-9.11.25-18.27,1.78-27.39-.12-3.44-7.44,0-14.81.37-22.18a79.08,79.08,0,0,0-3.78-29.73c-1.81-5.43-5-9.58-11.13-10.46-5-.94-6.65-4.42-7.58-9.07-2.85-14.27-3.8-14.66-17.51-9.37-2,.77-4,1.69-6.14.46,1.73-10.61,8.52-18.3,16-24.89,7-6.12,13.73-.71,19.28,3.62A95.45,95.45,0,0,1,486.31,387.39Z"/><path class="cls-132" d="M427.24,380.83c1.91-1,3.88-1.88,5.71-3,13.27-8,19.17-4.9,20.62,10.92.29,3.16-.49,6.77,4.24,7.26-5.55,14.49-8.89,29.37-8.27,45a6.1,6.1,0,0,1-3,5.48c-4.11-6-.57-12.79-2.52-19.89-3.22,4.63-6.32,10.07-12.76,7.38-5.86-2.46-9.79-6.44-10.9-13.61a177.81,177.81,0,0,1-2-20.42A36.85,36.85,0,0,1,427.24,380.83Z"/><path class="cls-133" d="M418.77,383.37c-1-.49.32-4.93-2.73-1.8C408,389.87,397,394.68,389.76,404c-2.23,2.85-5.44,3.35-8.86,2.88,9.57-21.48,31.52-43.48,55.69-53.86C428,363.9,424.07,374,418.77,383.37Z"/><path class="cls-134" d="M374.68,516.74l15.13.18c.28,1.19,1.86,3.39,0,3.38-7.37-.07-14.94,2.47-22.12-1.17C370.05,518.38,373,519.26,374.68,516.74Z"/><path class="cls-131" d="M503.54,431c-2.37-1.93-1.75-4.55-1.62-7.07C503.72,426,503.63,428.48,503.54,431Z"/><path class="cls-131" d="M505.69,444.11c-2.28-1.83-1.72-4.36-1.69-6.77C505.92,439.26,506.11,441.61,505.69,444.11Z"/><path class="cls-131" d="M507.72,452.82c-.52-1.49-1-3-1.55-4.48C506.69,449.83,507.2,451.33,507.72,452.82Z"/><path class="cls-131" d="M499.15,415.66c-1.67-1.21-1.79-3-1.63-4.8Z"/><path class="cls-131" d="M497,409.13l-1.93-4.21Z"/><path class="cls-131" d="M501.22,420l-1.54-2.67Z"/><path class="cls-131" d="M488,389.38l-1.6-1.94Z"/><path class="cls-131" d="M492.31,398.12c-.5-.75-1-1.5-1.49-2.26C491.31,396.62,491.81,397.37,492.31,398.12Z"/><path class="cls-131" d="M494.43,402.49,493,400.33Z"/><path class="cls-131" d="M490.18,393.76c-.5-.81-1-1.62-1.51-2.43C489.18,392.14,489.68,393,490.18,393.76Z"/><path class="cls-135" d="M420.42,495c12.14-8.61,22.34-21.42,39.87-18.33,1,.18,2.57.57,3.18.05,12.91-11,27.44-4.84,41.46-4,1.08.06,2.17.08,3.26.12a26.94,26.94,0,0,1,0,17.07c-10,11.41-24.09,14.08-37.8,17.19-10.23,2.32-20.67,3.65-31,5.47C429.63,514.27,425,510,420.42,495Z"/><path class="cls-131" d="M508.17,489.89q0-8.53,0-17.07c.06-3,.11-6.07.17-9.11,4,7.89.67,16.44,2.2,24.56Z"/><path class="cls-136" d="M412,516.47a1.49,1.49,0,0,1,1.63-.33l7,2.07-6.23.93C412.2,519.49,411.42,518.58,412,516.47Z"/><path class="cls-137" d="M412,516.47l2.41,2.67c-4.83,2.37-9.41,3.24-12.94-2.16Z"/><path class="cls-44" d="M35.64,479.1l-2.29-2C34.78,477,35.47,477.75,35.64,479.1Z"/><path class="cls-138" d="M579.82,687c.66,6.91-2.14,10-6.38,12s-8.33,3.13-13-.41c-6.74-5.1-10.22-12.35-13.81-19.33-2.7-5.26,2.49-8.6,6.12-11.37,5.75-4.39,12.79-10.7,19.14-8.3,5.89,2.24,5.62,11.65,6.54,18.41C578.91,681.62,579.53,685.19,579.82,687Z"/><path class="cls-139" d="M446.58,446.51c.32-11.22-.65-22.47,2.08-33.6,1.62-6.57,4.21-12.28,9.15-16.89,8.88-2.09,11.46,4.63,14,10.56,7.55,18,5,36.3,1.24,54.6-3.73,3.9-3,12.8-10.21,12.15-7.55-.68-10.29-8.13-12.78-14.47C448.47,454.9,447.7,450.64,446.58,446.51Z"/></g></g></svg>