<svg xmlns="http://www.w3.org/2000/svg" viewBox="0 0 957.55 892.45"><defs><style>.cls-1{fill:#080909;}.cls-2{fill:#75b481;}.cls-3{fill:#6e9f7a;}.cls-4{fill:#0d1213;}.cls-5{fill:#0d1416;}.cls-6{fill:#6ba77e;}.cls-7{fill:#0b1110;}.cls-8{fill:#15191b;}.cls-9{fill:#13181a;}.cls-10{fill:#141815;}.cls-11{fill:#0e1517;}.cls-12{fill:#0d110e;}.cls-13{fill:#1a2123;}.cls-14{fill:#131815;}.cls-15{fill:#101412;}.cls-16{fill:#1d2420;}.cls-17{fill:#0d100e;}.cls-18{fill:#261c1d;}.cls-19{fill:#0e110f;}.cls-20{fill:#191f1b;}.cls-21{fill:#121614;}.cls-22{fill:#111516;}.cls-23{fill:#0a0c0b;}.cls-24{fill:#151816;}.cls-25{fill:#202723;}.cls-26{fill:#171d19;}.cls-27{fill:#0e100e;}.cls-28{fill:#41282a;}.cls-29{fill:#2b332e;}.cls-30{fill:#282f2a;}.cls-31{fill:#9ea3ad;}.cls-32{fill:#313935;}.cls-33{fill:#2d3430;}.cls-34{fill:#312929;}.cls-35{fill:#242d27;}.cls-36{fill:#110f0f;}.cls-37{fill:#231f1f;}.cls-38{fill:#2a2f2b;}.cls-39{fill:#263033;}.cls-40{fill:#2c1f21;}.cls-41{fill:#2f2526;}.cls-42{fill:#292122;}.cls-43{fill:#2f3631;}.cls-44{fill:#1c1616;}.cls-45{fill:#563f42;}.cls-46{fill:#2e3c41;}.cls-47{fill:#37383b;}.cls-48{fill:#3b3c3e;}.cls-49{fill:#4f4041;}.cls-50{fill:#444649;}.cls-51{fill:#161213;}.cls-52{fill:#669375;}.cls-53{fill:#4b90a7;}.cls-54{fill:#aaa;}.cls-55{fill:#81b2b9;}.cls-56{fill:#e4969e;}.cls-57{fill:#608d77;}.cls-58{fill:#c9cfe0;}.cls-59{fill:#618472;}.cls-60{fill:#c96a79;}.cls-61{fill:#89c0c3;}.cls-62{fill:#679375;}.cls-63{fill:#5d8174;}.cls-64{fill:#679476;}.cls-65{fill:#cd6a78;}.cls-66{fill:#618d76;}.cls-67{fill:#548997;}.cls-68{fill:#5c7f73;}.cls-69{fill:#71a079;}.cls-70{fill:#546f62;}.cls-71{fill:#699678;}.cls-72{fill:#638773;}.cls-73{fill:#ae6476;}.cls-74{fill:#84b8bc;}.cls-75{fill:#035970;}.cls-76{fill:#9d6076;}.cls-77{fill:#5d8d9b;}.cls-78{fill:#437681;}.cls-79{fill:#e17d86;}.cls-80{fill:#e8b0b6;}.cls-81{fill:#27627a;}.cls-82{fill:#b36677;}.cls-83{fill:#709e78;}.cls-84{fill:#34697b;}.cls-85{fill:#a0c6c9;}.cls-86{fill:#6d9675;}.cls-87{fill:#e5949c;}.cls-88{fill:#547063;}.cls-89{fill:#df7e89;}.cls-90{fill:#9cc3c6;}.cls-91{fill:#ab6478;}.cls-92{fill:#16201a;}.cls-93{fill:#84b595;}.cls-94{fill:#e8989f;}.cls-95{fill:#0a181c;}.cls-96{fill:#dd7b85;}.cls-97{fill:#83b092;}.cls-98{fill:#372024;}.cls-99{fill:#536e61;}.cls-100{fill:#84a796;}.cls-101{fill:#192528;}.cls-102{fill:#6c9578;}.cls-103{fill:#a96477;}.cls-104{fill:#1e2a24;}.cls-105{fill:#2a3e35;}.cls-106{fill:#719f7b;}.cls-107{fill:#7ebc93;}.cls-108{fill:#91c09a;}.cls-109{fill:#294132;}.cls-110{fill:#314939;}.cls-111{fill:#47899f;}.cls-112{fill:#5594a7;}.cls-113{fill:#498ba0;}.cls-114{fill:#6ea5b0;}.cls-115{fill:#cad0e1;}.cls-116{fill:#c8cedf;}.cls-117{fill:#f7f7f8;}.cls-118{fill:#f1f1f3;}.cls-119{fill:#5494a6;}.cls-120{fill:#74aab4;}.cls-121{fill:#5896a9;}.cls-122{fill:#7aaeb5;}.cls-123{fill:#b7bece;}.cls-124{fill:#c55d64;}.cls-125{fill:#b6bdcc;}.cls-126{fill:#e4e6ec;}.cls-127{fill:#e2e5ed;}.cls-128{fill:#274148;}.cls-129{fill:#e2e2e5;}.cls-130{fill:#2f4a51;}.cls-131{fill:#88bec1;}.cls-132{fill:#8ac1c5;}.cls-133{fill:#8bc1c6;}.cls-134{fill:#7aa88b;}.cls-135{fill:#85b7bc;}.cls-136{fill:#a0c3c7;}.cls-137{fill:#7db98f;}.cls-138{fill:#73a7b1;}.cls-139{fill:#5594a6;}.cls-140{fill:#1d5974;}.cls-141{fill:#89c0c4;}.cls-142{fill:#346c80;}.cls-143{fill:#497f8b;}.cls-144{fill:#648572;}.cls-145{fill:#71a8b2;}.cls-146{fill:#5595a7;}.cls-147{fill:#7fb2b8;}.cls-148{fill:#d0d5e4;}.cls-149{fill:#d2d6e5;}.cls-150{fill:#aab1bd;}.cls-151{fill:#dadde7;}.cls-152{fill:#abb2be;}.cls-153{fill:#aeb5c1;}.cls-154{fill:#c2c6d0;}.cls-155{fill:#88b497;}.cls-156{fill:#91c49f;}.cls-157{fill:#31677a;}.cls-158{fill:#70ab81;}.cls-159{fill:#81b292;}.cls-160{fill:#dd7d87;}.cls-161{fill:#435850;}.cls-162{fill:#80b08e;}.cls-163{fill:#9fa4aa;}.cls-164{fill:#030506;}.cls-165{fill:#e2a5ac;}.cls-166{fill:#040303;}.cls-167{fill:#d16e7b;}.cls-168{fill:#99c4c5;}.cls-169{fill:#71a9b4;}.cls-170{fill:#0b1214;}.cls-171{fill:#0b1112;}.cls-172{fill:#1d3238;}.cls-173{fill:#040505;}.cls-174{fill:#2f4c53;}.cls-175{fill:#1e1214;}.cls-176{fill:#5695a7;}.cls-177{fill:#6aa2af;}.cls-178{fill:#0a1519;}.cls-179{fill:#0c1516;}.cls-180{fill:#fefefe;}.cls-181{fill:#91bdc0;}.cls-182{fill:#040304;}.cls-183{fill:#589bad;}.cls-184{fill:#101a1d;}.cls-185{fill:#221c1d;}.cls-186{fill:#35454a;}.cls-187{fill:#2f4448;}.cls-188{fill:#4c6a73;}.cls-189{fill:#24383c;}.cls-190{fill:#1c353c;}.cls-191{fill:#121c1d;}.cls-192{fill:#9dcbce;}.cls-193{fill:#1f5770;}.cls-194{fill:#437784;}.cls-195{fill:#393a3a;}.cls-196{fill:#255d76;}.cls-197{fill:#3e7384;}.cls-198{fill:#ced3e4;}.cls-199{fill:#211f20;}.cls-200{fill:#ae474d;}.cls-201{fill:#be656d;}.cls-202{fill:#da6c74;}.cls-203{fill:#af454b;}.cls-204{fill:#366e82;}</style></defs><title>Recurso 21</title><g id="Capa_2" data-name="Capa 2"><g id="Capa_1-2" data-name="Capa 1"><path class="cls-1" d="M373.11,44.19c2-2,3.62-4.5,7.82-4.63-.44,6.49-.66,12.82-1.37,19.09-.43,3.83-.83,7.77,3,9.56s4.91-3.34,7.68-4.63a3.17,3.17,0,0,1,1.81,2.24c-1.35,7.85-9,12-11.28,19.37a59.09,59.09,0,0,0-4.63,8.58c-7.68,25.48-7.62,51.58-5.88,77.7.75,11.35,2.76,22.64,4.12,34,.56,4.66.62,9.68,4.84,13.07a11.73,11.73,0,0,1,3.26,6.63c.62,8.14.85,16.28-.37,24.39-3.67,15.34-.38,31-1.92,46.1.2,1.29.35,1.17.48,0,2.85-25.35,7.78-27.74,29.41-13.88,9,5.79,18.14,11.48,26.48,18.28,7.32,4.88,10,11.05,7.13,20a71.31,71.31,0,0,0-3,18.61c-.28,6.23-.9,12.42-1.81,19,2.34-2.56,3.51-5.34,5.32-7.68,3.46-4.48,7.41-4.73,11.4-1.1,10.41,9.48,20.76,19.09,29.67,30,5.17,6.33,4.3,9.42-2.65,21.52,5.28-3.8,7.19-9.39,5.76-14.85-7.15-27.34-4.22-55.18-4.89-82.85a54,54,0,0,1,.73-9.67,18.78,18.78,0,0,0,.43-7.54c.36-1.43-.78.17,0-1.06,5.94-9.75,12.76-18.91,19-28.48a14.12,14.12,0,0,1,4.74-.7,18.58,18.58,0,0,1,4.69.74,90.43,90.43,0,0,1,14.55,6.1c-4.12-2.2-7.06-5.88-10.86-8.44a57.83,57.83,0,0,1-6.92-5.77,22.33,22.33,0,0,1-4.63-5.87,9.6,9.6,0,0,1-.31-5.83,30.6,30.6,0,0,1,2.24-5.24c.81-1.65,1.65-3.3,2.5-4.94q2-3.69,4.26-7.19c1-1.66,2-3.34,2.93-5,3-5.51,5.8-11.17,9.22-16.44,5.76-8.91,9.12-9.67,18.16-4.33,11.48,6.79,21.17,15.83,32.11,25.26-10.87-10-20.53-19.54-29.93-29.32-7.88-8.21-8-11.78-1.32-21.25,5.53-7.87,12.18-14.83,18.23-22.28,5.42-4,8.75.2,12.42,3.15,12.25,9.83,24.38,19.82,37.55,29.83.81-12.68-9-20.88-10.13-31.85.52-1.65,1.29-2.93,3.36-2.27,2.7-.36,1.66-2.56,2-4.07-1-2.37.38-2.95,2.35-3.08,4.66,4.57,5.13,10.88,6.9,16.65a44.05,44.05,0,0,0,1.46,7.54c.35.94.63,1.9.9,2.86a69.47,69.47,0,0,1,2.15,8.64,37.52,37.52,0,0,0,1.52,7.17,26.79,26.79,0,0,1,.91,4.43c.23,3.07,1.32,6.06.82,9.19-4.7,6.74-8.52,1.14-11.77-1.35-14.91-11.4-28.34-24.61-43.23-36-8.49,2.91-18.27,15-18.81,23.28,12.49,14.57,25.71,28.43,39.5,41.74a28.8,28.8,0,0,1,3.87,3.94c2.09,3,5.56,6.24,2.73,9.79-3.1,3.9-6.69.32-9.85-1.19-17.81-8.51-32.43-21.78-48.64-32.63-3.83-1-5.22,2-6.66,4.39-5,8-9.9,16.1-14.64,24.28-2.77,4.79-3.93,9.49,1.37,13.5,11.82,10.69,21.82,23.83,38.39,28a3.45,3.45,0,0,1,2.49,3.28,6.4,6.4,0,0,1-4.11,3.23c-15,2-30.19-.17-45.19,1.65-7.24.88-14.46,1.79-16,11-2.06,9-.6,18.09-1,27.13,0,1.93,0,3.85,0,5.78-1.42,24.68,1.56,49.08,4.45,73.48-.68,8.66,1.39,17.51-1.68,26-3.81,2.79-8.06,5-11,9-18.25,25.71-42.94,44.69-67.3,64-3.48,2.76-7.07,5.38-10.29,8.47a14.51,14.51,0,0,1-2.62,1.93c-12.56,4.6-20.62,13.6-26.51,25.41-6.79,13.6-13.13,27.35-18.09,41.71-4,11.53-4.74,23.13.33,34.61,7.36,14.66,10.31,15.66,25.7,10.64,10.53-3.44,18.34-11.68,28.68-15.33a4.19,4.19,0,0,1,2.82,1.81c2.21,6.25-1.7,9.88-6.06,12.7a89,89,0,0,1-34.47,13.73c-13.44,2.16-18.84-7.14-24.15-16.65-6.62-16-6.93-32-.37-48.23,5.37-13.32,11.85-26.1,19.08-40.73-19.38,9.14-37.86,15.94-53.27,28.63-16.44,11.74-28.07,27.6-38.32,44.65-16.54,21.34-20.8,47.91-30.65,72.1-1.91,4.68-1,8,4.57,8.75,8.7,1.17,13.31,7,17,14.3,7.38,14.87,17.82,28.11,23.44,43.95,1.09,17-19.12,45-35.4,48.3-8.87,1.81-17,.29-20.93-9.56,2.83-5.24,6.49-1.76,9.31-.41,7.58,3.63,13.51,1.62,18.64-4.33,6.23-7.21,12.74-14.23,17.27-22.73,5.09-7,1.8-13.69-1.93-19.48-7.19-11.13-13.06-23-19.8-34.34-2.58-4.37-5.73-6.37-10.69-6-5.2.36-7.51,3.56-9.26,8.06-2.45,6.28-1.73,14.07-8.48,18.37-3.31-2-2.38-4.67-1.22-7.39,1.69-15,8.06-28.6,11.86-43,.68-2.56,5.09-7.25-2.39-7.62-2.11,1.07-2.89-.1-3.27-1.93,13.48-10.08,14.66-26.79,21.43-40.43,15.36-30.95,33-59.64,64.9-76.4,6.86-3.6,12.46-9.22,19.84-12.9-2.78-2.72-8-1.83-8.83-6-.94-4.78-2.63-1.57-4-.64-2.74,1.89-5.54,3.72-8.18,5.74-13.7,10.5-13.68,10.49-28.2.89A117.48,117.48,0,0,1,283,516.15c-6-5.31-5.8-7.14.64-14.93-9.12,5.64-17.25,13.16-28.71,7.82-4.24-.86-8.09.48-11.72,2.32-18.39,9.34-38,16-56.19,25.82-11.5,5.05-22.14,11.74-33.22,17.6-6.4,2.16-11.09,8-18.19,8.65-1.67-.36-3-1-2.61-3.12,34.83-25.29,74.85-40.52,116.24-58.43l-37.21-19,9.77-10.95c-1-.44-2-1.11-2.15-.95-10.53,10.8-21.1,7.27-32,.55-3.71-2.28-8.15-3.37-12.25-5-15.13-6.1-15.13-6.11-2.78-18l1.13,1c-.77,6.39,1.43,10.58,8.29,11.54,1.81.25,3.88.48,5.29,1.5,16.45,11.92,29.9,4.54,43-6.29,2.8-2.3,5.62-4.8,9.23-6a3.23,3.23,0,0,1,3.38,2.6c-1.51,8.06-8,12.82-12.68,18.7-6.61,8.33-6.87,8.16,2.53,13.11,3.24,1.7,6.6,3.14,9.89,4.73,25.5,12.28,17.94,15.31,44.16-1.17,9.94-6.24,20.64-11.23,29.91-18.59,2.49-2,5.81-4.07,8.06.74-7.15,12.41-18.33,21.11-28.8,30.3-5.74,5-6.5,7.68.2,12.3,15.55,10.73,15.74,10.92,30.78-.24,7.43-5.51,14.55-11.45,22.39-16.39,2.49-1.57,5.6-3.5,8.05-.73,2.66,3-.29,5.36-2.25,7.52a32.84,32.84,0,0,0-3.57,4.24c-4.39,6.85-2.08,11.15,6.22,11.49,5.87.25,10.8-2.62,15.43-5.58,10-6.38,20.3-12.21,29.95-19.1,3.8-2.32,5.56-4.7,1.08-8.29-6.85-5.49-13.09-11.75-20.95-15.9-12.18-8.45-24.67-16.44-36.86-24.88-4.85-3.36-9.33-4.13-14.25-.64-4.71,2.89-9.44,5.76-14.33,8.33-2.24,1.18-5.12,2.85-6.85-.07-1.56-2.65.91-4.78,2.77-6.5a43.2,43.2,0,0,1,10-6.84c6.69-3.37,4.77-6.05-.45-8.66-3.08-1.87-6.55-2.89-9.8-4.39-15.33-8.56-31.63-15.45-45.48-26.54-.15-1.95.94-3,2.61-3.69,18.88,4.29,35.54,13.78,52.4,22.73,7.17,3.8,13.78,8.61,21.05,12.25,24.29,16.6,49.65,31.71,72.36,50.59-23.86-24.89-52.67-43-82.36-59.89-14-8.64-29.57-14.26-43.3-23.35-1.54-3.54,1.19-7.29-.57-10.84-3.12-11.43-2.51-23.3-4.33-34.88-.58-3.71-1.17-9.62,3.57-10.11s4.87,5.57,5.63,9.23c1.42,6.8,2.09,13.75,3,20.63a27.59,27.59,0,0,0,1.09,6.82,25.06,25.06,0,0,1,.67,3.21c.54,2.88.26,5.91,1.81,9.4,2.24-5.42,6.31-8.6,8.12-1.4,2.39,9.49,9.37,12.48,16.55,16.33,16.23,8.7,31.94,18.36,48,28.54,3.1-5.67-.38-10.44.82-15,.57-2.16.9-4.81,3.49-5,2.37-.21,3.92,1.76,4.83,3.95a11.16,11.16,0,0,1,1,5.41c-1.57,14.45,5.64,23.6,17.41,30.61,7,4.16,12.87,9.93,18.7,15.65,3.4,3.33,7.3,5.49,11.78,1.83,20.7-16.95,39.88-35.33,54.39-58.07a5.88,5.88,0,0,0,.92-4.88c-4-1.45-7.19,2.13-10.9,2.67-3,.44-6.07.84-8.22-1.8a5.36,5.36,0,0,1,.54-7.19c12.1-12.36,4.36-20.5-4.55-30.43-14-15.57-10.89-19.94-25.42,2.59-2,3.15-3,6.73-4.36,10.18-1.12,2.86-1.6,7.67-5.75,6.6-3.53-.9-3.16-5.49-3-8.74.29-8.13,1.82-16.16,2.79-24.23,1.63-13.58,3.43-27.12,4.3-40.8.38-5.91-1.35-9.74-5.74-13.36-8-6.62-16.87-12-25.49-17.77-6.8-4.53-9.65-2.05-11.15,5.38-2.43,12-5.33,23.81-6.86,36-.52,4.06-.58,10.47-6,10.4-5.07-.07-5.52-6.26-6.46-10.49-1.84-8.3-2.46-16.85-5-25-1.89-5.57-3.13-11.31-4.63-17A16.33,16.33,0,0,0,354,276.85c-5.13-3.1-8.06-2.18-9.31,3.92-2.74,13.31-3,26.94-5.38,40.31-1.86,6-.16,12.28-1.92,18.22-.76,2.55-2.29,5-5,5.06-3.08.05-3.59-3-4.23-5.42-.35-8.05-.8-16.1-3.21-23.88a30.91,30.91,0,0,1-1-4.66,47.38,47.38,0,0,0-1.25-5.74,31.41,31.41,0,0,1-.89-4.07,36.73,36.73,0,0,0-1.29-5.16,23.63,23.63,0,0,1-.87-3.81,25.68,25.68,0,0,0-1.3-4.94c-.32-.8-.57-1.62-.81-2.45a33.76,33.76,0,0,0-1.9-4.86,31.22,31.22,0,0,1-2.69-7.65c-.39-1.76-.85-3.5-1.4-5.21a33.11,33.11,0,0,1-1-3.9,9.32,9.32,0,0,0-2.41-4.64c-4.71-1.88-8.53-10.34-14.51-1.86-.29,3.08.51,6,1.15,8.94.28,2.3.08,4.47-1.53,6.3a5,5,0,0,1-3.34.5c-4.11-2-4.14-5.94-4.35-9.53-.57-9.69-4.57-16-14.93-17.42-3.6-.48-7.24-1.77-9.31-5.35.23-2.09,1-3.41,3.41-2.41,3.14.1,5.33-.1,5.61-4.5,2.68-41.16,17.27-78.65,35.46-115.13,8.33-16.71,15.34-34.08,23-51.15a2,2,0,0,1,3,.51c2.67,5.22.23,10-1.28,14.86-5.83,11-10.51,22.61-15.61,34-8.49,15.47-15.27,31.72-21.85,48.05a26.22,26.22,0,0,0-1.85,6.08,37.77,37.77,0,0,1-1.14,4.81,295.28,295.28,0,0,0-11.37,48.5c-1.39,8.87,1,13.5,10.45,15.69,11.18,2.6,24.05,3.47,29.38,16.8,1.32,3,1.54,6.32,2.78,9.33.45.95.83,1.93,1.21,2.9,3.83,11.81,7.07,23.79,10.55,38.17-1.4-11.24.45-19.85,2.1-28.49a28.74,28.74,0,0,1,.79-3.2c1-2.7,1.34-5.61,2.9-8.09,9.62-5.61,29.25,2,31.46,12.58a48.4,48.4,0,0,1,.64,16.31c5.18-33.76-2.72-66.36-8.75-99.12a22.83,22.83,0,0,1-.74-3.66c-.74-7.46.69-15.08-1.86-22.39A272.72,272.72,0,0,1,370.36,66.2,86,86,0,0,0,373,53C374.09,50.08,372.15,47.11,373.11,44.19Z"/><path class="cls-2" d="M44.12,246.24A13.37,13.37,0,0,1,53,242.43c11.1-1.5,17.7,3.86,21.94,13.69,3.16,7.31,6.6,14.54,10.66,22.09-6.93-16.72-16.81-31.41-22.43-48.09-1.1-3.25-4.33-6.51,0-9.77,16.75-3.91,33.81-5.89,50.78-8.43,4.54-.1,5.32,3.78,7,6.67,8.19,14,13.56,29.46,21.94,43.37,5.05,12,13.68,22.23,16.72,35.15-.12,11,3.5,20.22,13.12,26.34,4.51,2.87,7.31,6.23,5,11.9-.72,1.71-1.46,3.83-.39,5.36,8.76,12.47-1.59,13.83-9.54,16.65-11.08.47-19.94-6.79-30.33-8.71-11.3-2.26-21.68-9.2-33.9-6.55-4,2.29-6.24,6.13-8.74,9.75-5.43,7.83-11.2,13-21.83,15.83S50.09,375,41.14,383.59c-2.7,2.61-6,6.28-9.5.56,4.45-10.81,8.49-22,21.21-26.08,4-1.3,5.45-4.73,6.59-8.3,1.8-5.62,3.28-11.33,4.88-17,2.19-7.82,5-15.77-5.22-20.76-2-1-3.6-4-.47-6.37,3.3-1.33,6.53.84,10.73.05-4.38-11-12.16-19.91-17.11-30.31-2.68-5.64-5.37-11.45-9-16.46S41.18,250.27,44.12,246.24Z"/><path class="cls-3" d="M152.65,553.16a176.1,176.1,0,0,1,33.57-18c1.08,1.78,1.35,4.4,4.26,4.32,7.69-.2,9,7,13.33,10.5,3.05,2.43,10.83-3,16.59-.43,5.49,2.49,9.19,7,11.89,12.33.91,5.4-1.62,10-3.32,14.82q-12,32.63-26.54,64.27c-2.05,10.6-8.84,15.94-18.85,19.36-9.21,3.15-18.74,3.85-28.05,6-6.41,1.46-9.56-2.07-9.46-8.75.08-5.94,3.76-11.25,2.74-17.32-1.25-2.24,3.41-4.55-.06-6.77-.52-5.49,6.28-6.79,6.28-11.36A189.08,189.08,0,0,0,139,645.13c-5.62,9.24-22.82,9.64-29.62,1.2-3-3.77.06-6.41,1.7-8.88,8.83-13.24,18.33-26,27.45-39.05,3.18-4.54,7.17-8.49,8.61-11.68-13.28,9.57-27.24,21.68-45.2,27.45-3.67-2-4.68-5.57-5.45-9.27.28-3.94,2.55-6.94,5.23-9.41,14.65-13.54,26.61-30.31,45.89-38.33C149.56,556.33,151.61,555.32,152.65,553.16Z"/><path class="cls-4" d="M702.55,748.94c-8.4-18.51-8.67-18.92-25.58-7.9a164.21,164.21,0,0,1-32.57,16.24c-6.13,2.28-6.38,4.71-5.61,10.36,3.15,23,6.66,46.1,5.81,69.45-.15,4.07,1.88,5.9,4.14,8.28a52.68,52.68,0,0,1,13.15,22.77c.63,2.37,2.52,4.79-.31,7-2.43,1.89-4.82,1-7.27-.07-1.68-.75-3.45-1.32-5.18-1.94-12.61-4.5-13-4.34-11.15,8.47.69,4.75-.65,6-5,5-2.85-.7-5.68-1.45-8.52-2.17a2.11,2.11,0,0,1,.11-2.73c1-1,2.74-1.71,3-3.06,1.48-9.4-11.54-23.2-21.64-23.09-4.77,2.81-7.7,7.27-10.56,11.76a27.36,27.36,0,0,0-2.55,6.59c-.67,2-2.4,2.92-4,4-1.62.85-4.55,1.57-4.65,2.56-2.14,22.39-15.34,6.93-22.53,5.56s-14-3.65-21.6-4c-18.7-.86-28.24-15.24-37.58-28.75-7.66-11.1-16-21.81-21-34.68C478.57,811,470,813.79,464.35,811c-.29-2.09,1.09-3.13,2.56-4.1,4.54-2.52,3.25-6,1.52-9.49-17.08-35-23.69-72.81-30.11-110.83a263.27,263.27,0,0,1-3.87-42.85,18.48,18.48,0,0,1,.56-5.51c.82-2.84,1.58-6.2,5.61-5.34,3.08.65,3.67,3.65,3.47,6.2-1.07,13.12,2.93,25.66,4.13,38.51,2.24,24,8.67,47.24,14,70.65A40.86,40.86,0,0,0,463.8,755a31.79,31.79,0,0,1,1.05,3.17c3.71,18.91,14.51,35,21.36,52.59,8.08,20,19.73,37.86,33.21,54.63,5.86,7.29,13.72,8,22,8,4.61,0,5.92-3.8,7.34-7.24,1.86-4.49,4.08-8.81,8.13-11.67,4.73-3.35,9.45-4.86,12.46,2.23a27.72,27.72,0,0,1-3.71,5c-4.18,4.92-11.41,8.78-5.86,17,4.74,2.93,11.07,6.71,15,3.23,4.94-4.36-1.47-9.68-3.27-14.48-.89-2.36-2.68-4.33-3.43-6.81,0-.55,0-1.09,0-1.65a5.49,5.49,0,0,1,2.48-2.09c6.88-.38,8.17,6.56,12.39,9.69,20.7-28.1,26.89-29.24,46.06-8.88,7.47-10.31,9.07-22.15,8-34.49-3.63-42-7-84-20.26-124.42-5-15.12-12.31-29.3-18.28-44-1.11-2.61-2.23-5.22-1.82-8.16,5.95-6,7.62,1.16,9.52,3.8,7.64,10.6,12,23,16.5,35.07,6.74,18,12.5,36.4,15.24,55.59,1.49,10.42,2.34,10.85,11.82,6.62,33.73-15,61.25-38.38,86.45-64.84,3-3.12,5.74-10.4,10.66-5.91,3.87,3.53-1.28,8.78-4.44,12.25-9.19,10.1-17,21.54-28.63,29.29-8.63,5.77-13.1,13-7.49,23.4.69,1.27.25,2.91-.06,4.38C705.53,747.91,704.63,749.23,702.55,748.94Z"/><path class="cls-5" d="M939.72,433.26c1.94,10.44,8.56,18.66,13.34,27.72,6.84,13,6.16,22.65-4.12,32.86-4.71,4.68-9.18,9.27-11.84,15.47-.83,1.94-2.2,4.62-3.87,5.11-18.11,5.29-22.93,23.46-33.89,35.46-17.72,19.39-34.56,39.36-58,52.2-7,3.82-5.67,9.63-4.05,15.38,1.9,6.72,5,13.1,5.62,20.18a3.31,3.31,0,0,1-3.35.66,10.92,10.92,0,0,1-4.55-5.52c-6.84-18.86-6.91-19-25.42-10.74a286.77,286.77,0,0,1-119.5,25.37c-21.48-.1-42.71-3.65-63.44-9.42-5.92-1.65-12.38-2.94-16.06-8.91-.17-2.35,1.3-3.35,3.24-4,9.83-.42,18.82,3.7,28,6,40.66,10.13,80.7,6.34,120.69-3.29,3.59-.87,7.21-1.64,10.75-2.63,43.23-14.11,82.21-35,112.37-70.1,10.68-10.45,18.61-23,27.07-35.16a22.21,22.21,0,0,0,3.65-9.24c1.76-10.74-2.23-14.48-12.4-11-10.87,3.75-20.89,3.18-30.85-3-8.82-5.43-18.64-9.19-27.22-15.05-13.3-9.09-28.76-8-43.06-7.05-25.77,1.73-51.76,2.28-77.25,7.67-8.83,1.87-13.59,5.57-15,14.81a130.9,130.9,0,0,1-5.38,21.53c-5.13,15.2-14,17.36-25.38,5.79-7.26-7.38-13-16.13-20.12-23.72a4.66,4.66,0,0,1-.34-3.4c9.32-11.06,22.71-14.41,35.62-18.5,5.95-1.88,12.21-2.71,18.36-3.85,35.92-8,72.42-9.13,109-9.25,10.8,0,20.52,2.29,29.38,8.22,6.79,4.55,14.51,7.43,21.36,11.68,15.14,9.41,28.89,5.71,42.61-2.7,2.85-1.74,5.31-4,8-6,8.6-6.39,11.85-5.67,17.45,3.77,1.1,1.84,1.55,4.14,3.73,5.21,9.41-11.72,3.86-29.11-10.21-32-8.09-1.64-15.76-4-22.5-8.89a13.67,13.67,0,0,1-2.46-2.69,16.59,16.59,0,0,1-2.68-6.93c1-18.19,3.16-36.29,4.31-54.48.8-1.82,1.69-3.55,4.15-3.27l5,8.32c-2.08,5.92-3.09,11.88-.54,17.94,3.57,9.47,4.63,19.09.51,28.59-2.85,6.56-.26,8.73,5.94,8.8,2.45-.31,4.14,1.65,6.32,2.1,4.66-1.91,1.54-7.21,4.34-9.88A1.92,1.92,0,0,1,939.72,433.26Z"/><path class="cls-6" d="M60.24,306.17c-3.6,4,.95,5.83,2.71,6.05,9.25,1.2,7.75,6.32,5.81,12.65-2.69,8.78-4.4,17.85-7,26.65-1.63,5.54-2.76,11.7-11.66,9.88-4.13-.85-5.07,4.13-6.66,7.52-2.64,5.65-8.74,9.06-10.65,15.33-.7,1.54-1.54,2.92-3.52,2.87-9.34-9-15.43-20-21.55-31.3-4.66-8.58-1.42-11,6.19-12.38,2-.35,2-.56,1-1.87,4.66-3.57,10.8-.9,15.64-3.72.77-1.55,8.57,1.35,2.8-4.25-5.07-4.93-12.25-6.28-18.06-10.06-6.7-4.34-11-8.69-7.6-17.84,2-5.22,1.29-11.48,2.38-17.22,1.05-3.48,2.95-6.92,7-4.88,14,7.15,29.11,12.16,42.53,20.55C60.12,304.49,60.19,305.41,60.24,306.17Z"/><path class="cls-7" d="M557,275.73l2.91-2c1.5-2.77,4.16-2.92,6.72-2.6,11.69,1.44,23.48,2.24,34.95,5.15,16.6,4.21,16.58,4.26,26.49-10.39,7-9.3,16-16.75,23-26.14,2.07-2.8,4.79-5.64,9.1-4.79,2.6,4-.9,5.91-2.69,8.52-9,13-19.24,25.1-28.15,38.16,14.17-18.29,27.66-37.07,40.09-56.61,9.46-13.07,20-25.28,29.25-38.57,2.31-3.34,4.75-10,11.33-4.7-3.62,11-11.08,19.67-18.07,28.53-7.27,9.24-14.36,18.6-21.11,28.22-5.08,7.89-11,15.19-16.05,23.11-4,6.14-8.22,12.2-12.87,19.57,19.64-.63,37.39-6.38,55.75-6.75,11.71-.75,23.31-3.89,35.13-1.41,7.14,2.37,14.53,1.29,21.81,1.51a39.26,39.26,0,0,1,8.59.79c8.54,2.05,15-.13,18.28-8.91.75-2,1.58-4.09,3.9-4.93,1.86.49,2.8,1.48,1.86,3.47-.65,4.39.43,7.27,5.66,6.11,3.11-.69,6.17-1.65,9.25-2.49,2.72-1.15,5.41-2.06,7.41,1.2-5.43,8.44-15,6.64-21.92,9,11.8,1.46,22.52,8.43,34.28,12.33,2.66,1.61,5.13,3.53,7.91,5,7.72,2.64,11.71,8.49,13.83,16,6.53,12.53,4.53,25.88,3,38.88-1,8.4-7,10.6-14.72,6.46-6.15-3.31-11.52-7.85-16.83-12.38-2.66-2.5-5-5.17-4-9.23,8.35-4,10.87,5.37,16.66,7.22,3.81,2.81,6.82,6.62,11.19,8.8-.25-20.36,1.63-41.57-22.49-51.36a38.77,38.77,0,0,0-8.51-5.09c-.87-.36-1.72-.77-2.57-1.17a45.7,45.7,0,0,0-5.52-1.69,146.18,146.18,0,0,0-51.25-7.62c-1.09-.38-.3,2.27-.25.79,0-.54.35-.68,1-.42,10,4.13,17.79,11.58,26.84,17.15,9.9,6.17,18.82,13.66,27.69,21.15,3.57,3,8.85,5.71,7.32,12.11-5.24,2.79-8.24-1.55-11.5-4-16.11-12-31.34-25.28-48.93-35.29-20.46-21.59-45.5-12.24-69.4-10.17-4.73.41-9.4,1.69-14.07,2.72-8.71,1.38-17.46,2.44-26.17,3.82a28.65,28.65,0,0,1-5.13.87,66.49,66.49,0,0,1-8.47,0,24.44,24.44,0,0,1-4.87-.83,50.73,50.73,0,0,0-7.92-1.69,30.74,30.74,0,0,1-7.89-2.83c-15.07-5-30.71-6.78-46.36-8.65A4.93,4.93,0,0,1,557,275.73Z"/><path class="cls-8" d="M864.93,737.13c2.87,24.42,4.61,49,1,73.36-1.34,9.16.9,15.15,7.94,20.13.92,1.93-.19,3-1.68,3.8-2.7,1.36-7.36-2.55-8.42,2.38-1,4.47,3.58,4.55,6.41,6,7.8,3.87,1.51,4.61-1.43,6.06-2.51.46-6,.63-4,4.45,5.74,11.16-3.53,9.27-8.21,8.53-9.75-1.54-19.24-4.64-29.76-7.33,2.73,6.94-1.26,8.28-6.84,7.69-5.1-.54-10.39-.72-15.19-2.29-12.53-4.1-24.77-9-38-10.57-9.49-1.12-16.05-7.25-21-14.79-9.88-15-19.22-30.45-25.91-47.27-1.21-2.21.16-2.9,2-3.35a7.92,7.92,0,0,1,4.28,2.29c8.29,13.13,15.46,26.9,22.51,40.71a30.26,30.26,0,0,0,21,16.57c7.66,1.85,13.89,1.16,19.72-5.71,9.15-10.79,12.83-10.86,24.18-2.13,5.2,4,7.81,3.41,11.37-1.86,9.17-13.6,10.35-13.81,22.87-4.19,5.09,3.92,7,2.29,8.24-2.94,5.67-24.25,6.09-48.69,3-73.28C861.78,748.27,860.29,741.55,864.93,737.13Z"/><path class="cls-9" d="M263.82,862.63,236,858.71c-5.6-.79-9.34-3.46-9.77-9.54a1.71,1.71,0,0,1-.63-1.83c.21-.61.42-.91.62-.92,8.34,2.17,15.47,7.64,24.84,7.52,5.78-.08,9.45-.93,13-5.81,9.59-13.38,15.18-12.89,23.06,1.11,1.68,3,1.86,8.15,6.7,7.54,4-.51,5.06-5,6.8-8.15,2.47-4.52,4.33-9.74,9.08-12.23,4.58-2.4,10.3-4.85,9.24,4.75-.77.76-1.67,1.39-2.49,2.11-4.45,3.9-10,8.73-8.84,14.22,1.28,6.22,9.26,3.72,14.19,5.34,6.52.9,5.3-2.82,3.93-6.59-1.47-4-5-7.17-4.89-11.86,4.32-6.42,7.22-1.52,10.13,1.41,8.33,8.38,9.69,8.07,15.4-2.52,7.51-13.93,12-29.19,19.31-43.2,2.87-5.51,5.42-11.36,11.9-13.79a2.81,2.81,0,0,1,2.77,1.11c-4.95,9.42-9.64,19-14.92,28.24-6.51,11.39-9.48,22-1.4,34.57,5,7.74,1.63,10.74-8.28,9.56a100.31,100.31,0,0,0-14.27-.86c-3.53.08-6.73,1.61-5.86,6.13,1.41,7.3-1.45,7.63-7.92,6.59a152.17,152.17,0,0,1-21.25-4.91c-6.37-2-15.69-7.42-18.84,5.44-.55,2.24-3.37,2.55-5.67,1.34a5.88,5.88,0,0,1-1.83-4.17c1.3-6.21.8-12.18-2.5-17.71-5.73-2.23-5.1,3.76-7.48,5.79C268.24,859.41,268.44,863.94,263.82,862.63Z"/><path class="cls-10" d="M617.6,110.59c3.13-5.53,7.63-9.79,12.31-14,11.8-10.65,12-10.9,20,3,6.41,11.06,11.93,22.63,22.26,35.08.85-18.92,1.64-35,2.24-51.19a55.06,55.06,0,0,0-.74-9.91C672.55,66,674.81,62,683.2,61.1c10.59-1.17,21-3.89,31.8-3.37,10.16.49,17.61,3.73,18.35,15.29,2.34,1.33,3.71,3.22,3.49,6-.9,5.82,1,15.59-6,15.48-7.72-.11-4.08-9.79-5-15.37-.59-3.53,0-7.26-1.86-10.56-3.61-4.34-8.55-3.38-13.25-3.34a9.49,9.49,0,0,0-3.22.62C700,68.66,690,63.77,684.74,71c-4.51,6.2-1.08,15-1.84,22.55a51.47,51.47,0,0,1-.81,6.54c-2.82,10,0,20.22-1.72,30.22-.73,4.27-1.25,8.6-3.09,12.6a4.8,4.8,0,0,1-4.57,2.61,7.33,7.33,0,0,1-4.54-2.36C659,129.2,650.83,114.61,641.22,101c-3.21-4.27-5.38-1-7.76,1-4.56,3.93-7.78,9.46-13.81,11.67C618,113.3,616.66,112.69,617.6,110.59Z"/><path class="cls-11" d="M864.93,737.13c-1.06,5.52,1.56,12.15-4.82,16.08-7.17,17-19.2,19.06-30.28,5.16-5.5-6.92-11.21-13.69-16.26-21-4.29-7.51-10.5-13.86-13.46-22.19a32.9,32.9,0,0,1-.74-6.7,53,53,0,0,1,.83-11.8,34.41,34.41,0,0,0,1.54-9.61,32,32,0,0,1,.93-6.45c.57-2.13,1.16-4.25,1.73-6.38,1-3.49,3.07-6.08,6.62-7.29a20.73,20.73,0,0,1,6.6-.77c7.54.35,14.15,3.81,20.8,6.76,8,3.57,8.82.21,7.43-6.49-1.19-5.76-2.74-11.41-4.39-17-1.1-3.76-3.4-7.48-1.23-11.62l2.67-.19C856.22,669.48,861.33,703.14,864.93,737.13Z"/><path class="cls-12" d="M101.84,613.24c18.7-10.24,36.76-21.39,51.88-37,2.3,3.64-.6,5.63-2.12,7.75-12.65,17.68-25.3,35.37-38.22,52.86-4.09,5.54-5.47,6.93,3.17,10.49,12.74,5.24,18.74,2,24.41-9,4.47-8.68,10.47-16.58,16.89-24.27.67,8.14-1.12,15.1-9.1,19.32-.95,1.58-1.84,3.2-2.87,4.73-16.49,24.52-10.42,21.41-37.62,10.77-5.45-2.13-4.86-4.25-2.15-8,3.9-5.39,7.55-11,11.38-16.4,3.55-5,7.2-10,11.43-15.92-10-1.71-16.2,4.93-23.5,8.17-2.23,1-4.72,5.14-6.24-.64C98.12,613.43,99.56,613,101.84,613.24Z"/><path class="cls-13" d="M808.94,270.66c-1.77-2.46-4.56-1.54-6.9-2.09,12.57-4.55,25.76-6.27,38.86-8.2,9.14-1.35,16.44,3.31,20.31,10.76,11.22,21.59,23.64,42.78,28.48,67.08,1.06,5.28,5.41,6.66,9.21,8.75,6.53,3.6,13.29,6.91,15,15.25,1.32,2,.18,4.55,1.37,6.6.08,3,.17,5.93.25,8.89l-2.4,2.87c-5.26-1.67-4.09-6.33-4.47-10.09-.53-5.25-1.6-10.1-6.2-13.7-3,1.11-1.11,13.93-6.92,5.23-8.94-13.41-20.06-24.76-29.74-37.39,6.65-7.62,9.16,2.69,14.15,3-7.21-18.24-14.27-36.68-25.32-53.25a16,16,0,0,0-4.18-4.42c-9.15-4.37-18-.5-26.91.92C818.66,271.62,813.72,275,808.94,270.66Z"/><path class="cls-14" d="M190.71,221.79c6.67-.7,8.85,3.23,11.45,8.83,10.44,22.47,21.73,44.55,32.72,66.79V253.85c.22-4.91-4-10.61,2.57-14.39,4.12,4.3,4.62,10,5,15.32,1,16.76,3.95,33.42,2.8,50.29-.56,4.39.17,9-1.65,13.21-1.08,1.79-2.47,2.46-4.39,1.19-1.66-1.6-2.63-3.67-3.79-5.62-4.8-11.9-11.56-22.76-18.13-33.72-5.1-15.6-13.88-29.45-20.84-44.16-2.74-5.79-7.45-7.77-13.21-8.73-3.84-.64-8.43.35-10.75-4.24a2.21,2.21,0,0,1,2.29-2.06C180.06,221.32,185.47,220,190.71,221.79Z"/><path class="cls-15" d="M81.46,430.76c-7,4.43-13,4.75-18-3.33-2.24-3.65-5.71-6.55-8.72-9.7-10.21-10.66-10.23-10.65,2.43-18.87,5.21-3.38,10.43-6.73,15.64-10.1,1.89-2.71-2.72-5.67.31-8.34,6-4.48,13-6.7,19.65-9.83,2-.94,4.54-1.6,6.17.33,2.21,2.6-.06,4.79-1.57,6.74A29,29,0,0,1,88,385.23a44.52,44.52,0,0,0-5.18,3.09,102.69,102.69,0,0,1-11.69,9.08c-19.59,14.32-17,9-1.89,25.21,1.74,1.86,3.54,3.71,6.41,3.54C82,424.5,86.52,419.71,92,416.68c2.11-1.07,4.42-1.64,6.59-2.55a30.76,30.76,0,0,0,4.8-2.65c2.33-1.61,4.73-3.12,6.91-5,2.65-1.72,5.67-5.29,8.53-2.15s-.82,6-3,8.19c-8.68,8.9-17.17,18-26.71,26a19.12,19.12,0,0,1-2.5,1.77,3,3,0,0,1-2.87-.06c-6.58-2.43-2.16-4.77.06-7.14C85.72,429.68,83.78,430,81.46,430.76Z"/><path class="cls-16" d="M735.54,77.18,733.35,73c24.38,1,24.36,1,22.74,24.81-.2,2.93-.15,5.87-.12,8.81.08,7.46,3,10.09,10.36,6.61,11-5.2,22-10.28,33.17-15,10.73-4.57,12.8-3.45,13.11,8.48.37,14.29-1.27,28.52-3.29,42.68-2.85-1.73-3.54-4.74-4.54-7.56-1.77-7.66-.84-15.25.43-22.88.66-3.94,1.36-8-.73-11.76-15.46,2.13-28.35,10.9-42.58,16.13-3.21,2.07-5.15,7.53-9.77,5.62-4.82-2-4-7.38-4-11.63-.2-8-.74-16.12.95-24s.32-13-8.93-13.36A5.93,5.93,0,0,1,735.54,77.18Z"/><path class="cls-17" d="M62.27,222,91.48,285.6c-5.83.09-6.88-3.26-8.2-5.91-3.11-6.24-6.2-12.5-8.91-18.92C70.25,251,65.28,242.5,53,242.43c9.84-1.87,9.76-7.21,6.16-15.09C53.57,215.17,54,215,66.9,213.1c14.14-2,28.33-3.85,42.44-6.15,8.18-1.34,11.37,2.93,12.82,9.88.87,2.19.07,3-2.18,2.71l-4.78-6.61c-15.93,2.73-32.12,3.73-48,6.84C65.33,220.13,63.61,220.53,62.27,222Z"/><path class="cls-18" d="M606.54,144.17l-2.12,2.06c-4.37,1.25-6-2.51-7.51-4.93-10.16-16.07-24-28.52-38.55-40.34C548,91.65,537.78,82.44,525.09,76.07c-10.76-5.4-21.2-11.84-27.16-23.19-2.79-6.24-6.09-12.37-4.33-19.62.79-1.66,1.81-3,3.95-2.5,3.65,18.3,14.76,29.31,30.86,39.06A250.72,250.72,0,0,1,606.54,144.17Z"/><path class="cls-19" d="M157.47,297.35c-4.35-12.08-12.82-22.24-16.11-34.81-.91-2.52.39-3,2.52-2.72,2.67,1.86,2,6.33,7,8.3-3.07-14.27-5.75-27.42-8.76-40.5-1.8-7.81.5-11.14,8.83-9.89,7.25,1.1,14.58,1.63,21.87,2.42.8.39,1.08.81.83,1.24s-.51.65-.77.65l.09-.12c-3.85,3.88-8.89,2.93-13.55,3.2-5.8.34-8.12,3.37-6.71,8.72,4,15.32,3.94,31.36,8.44,46.58a26.75,26.75,0,0,1,1.06,5,66.54,66.54,0,0,0,1.33,8.29c.17,2.23.2,4.64-1.94,5.86S158.35,299,157.47,297.35Z"/><path class="cls-20" d="M60.24,306.17c-14-6.86-28-13.47-41.77-20.71-4.73-2.48-5.32,2.18-8,3.17l-.89-1.23c.06-2.47-.81-5,.79-7.34,10.39-.58,17.27,7.66,26.36,10.57,8.6,2.75,16.68,7.14,28,12.15C55.2,285.09,47.57,270,38.92,255.42c-4.5-7.56-1.29-8.81,5.2-9.18l2.18.41c-7.68,7.73.46,13.21,3.15,19,7.09,15.42,17.13,29.21,27.26,44.75A31.76,31.76,0,0,1,60.24,306.17Z"/><path class="cls-21" d="M86.18,439.55c0-.7.07-1.39.13-2.08,3-1.57,5.92-.9,8.42.75,12.22,8.06,26.58,11.22,39.55,17.48,5.88,2.83,10.47,2.18,15.31-1.72,9.52-7.69,19.89-14.21,29.85-21.3,2.71-1.93,5.32-4.15,8.73-4.67,3.67-.56,6.87,1,4.1,4.68-5.11,6.77-9.15,15.38-19.44,16.09l-.25-.24c-4.58-4.52-6.66.95-8.51,2.84-14.84,15.16-29.53,21.86-48.79,5.68-7.57-6.36-18.44-9.1-27-15C87.58,441.24,86.09,441,86.18,439.55Z"/><path class="cls-22" d="M226.23,847.12c0,.69,0,1.37,0,2-4.13-6.24-4.76-13.32-4.84-20.52-1.75-4.75.5-9.89-1.4-14.63-4.78-27.13,1.14-53.36,6.77-79.6,1.84-8.6,4-17.12,6.07-25.68.45,2.37-.31,5.11,2.09,6.89,3.78,5.66.61,11.25-.43,16.74-1.91,10-4.89,19.74-4.18,30.06a12.81,12.81,0,0,1-.79,3.62c-4.36,12.21-1.38,24.87-2.29,37.3.49,11.47-.43,23,1.19,34.39C228.93,841.11,228.75,844.42,226.23,847.12Z"/><path class="cls-23" d="M201.47,640q12.66-31.95,25.3-63.9c4.58.34,4,4.14,4.72,7-.47,18.89-.16,37.85-4.4,56.45-2.91,1.73-3.63-.12-4-2.48-.57-3.44,1-7.13-1.2-10.39-11.79-3.33-13.17,7.13-17.72,13.38A1.82,1.82,0,0,1,201.47,640Z"/><path class="cls-24" d="M201.47,640l2.67.1c-3.77,17.5-12.16,24.43-33,26.89-6.17.73-12.42,1-18.64,1.22-10.81.45-12.25-1.52-9-12.08,1-3.16,2.11-6.25,3.17-9.38.94-1.33.51-3.17,1.64-4.43a15.18,15.18,0,0,1,.54-2.11c4.34,5.73-.74,11.14-.75,16.76,0,5.36,1.31,7.58,6.73,6.78a179,179,0,0,0,36.07-9.34C198.4,651.62,196.87,643.92,201.47,640Z"/><path class="cls-25" d="M72.88,382.33c.48,2.15,3.84,4.33-.06,6.43-3.3-5-6.31-.24-9,.64-9.45,3.08-19.12,10.36-27.9,9.31-9.42-1.14-11.58-14.88-18.26-22C10.51,369,9,358,1.27,350.63c-2.66-2.53-.73-4.93,2-5.9,3.79-1.34,7.77-2.13,11.67-3.16l6.81.82c-.63.69-.9,1.28-1.27,1.36-15.19,3.07-15.12,3-8.16,16.86,4.81,9.58,11.67,17.69,18.23,26,7.85,6.71,15.43,2.68,23.28-.25C59.91,384.12,65.39,378.25,72.88,382.33Z"/><path class="cls-9" d="M437,802.78c-13.12-3-25-9-36-16.27-7.8-5.15-14-5.23-20.6.87l-.52-.51c-.39-8-3.78-13.53-10.83-18.16-5.11-3.36-12.58-6.92-10.7-15.8,2.78-1.25,5.13,0,7.18,1.58A312.24,312.24,0,0,0,436,796a7,7,0,0,1,4.4,4.69C440,802.64,439.12,803.77,437,802.78Z"/><path class="cls-26" d="M807.09,142c2.32,2,1.66,4.88,2.23,7.41-4.62,8-14.88,6.26-22.51,12.79,11.86-1.18,22-2.22,32.05-3.14,3-.27,6.78-2.33,7.73,2.92a7.93,7.93,0,0,1-5.48,4.61c-10.2.54-20.35,1.68-30.5,2.85a27.85,27.85,0,0,0-8.5,1.18,31,31,0,0,1-8.54.75c-2.84-.49-6.58-.41-6.87-4.11-.25-3.21,2.86-4.92,5.42-6.45C783.48,154,796.6,150.4,807.09,142Z"/><path class="cls-27" d="M820.31,211.24c-14.79,6.39-30.85,6.21-46.32,9-2.69.5-7.2-1.87-7.22,3.84.6,2.23-.79,3.26-2.48,4.12a23.65,23.65,0,0,1-10.87.63,16.38,16.38,0,0,1-3.58-.92c-2.24-1.14-5.56-2-5.3-4.84.34-3.79,4-5,7.26-5.76,16.79-4,33.7-7.52,50.91-9.19,5.15-.5,10.15-1.59,15.2-2.55C821.35,206.36,821.61,208.47,820.31,211.24Z"/><path class="cls-28" d="M939.72,433.26l-1.05.14-1-.15c-3.63.23-3.63-2.81-4.56-5-.35-1.2-.59-2.44-.85-3.67-.18-.81-.17-1-.23-.94s-.41.28-.59.51c.63,4.74-.18,9.49,1.17,14.08a18.25,18.25,0,0,1,.6,3c.07,2.16-.14,4.2-2.28,5.42l-3.61-4.37c-4.38-3.52-3.35-8.56-3.48-13.14-.29-10.52.75-21.16-3.73-30.11.47-2.57-1.56-1.46-.07-1.45.13,0,0,.34,0,1,.12,2.3-.34,4.33-2.25,5.82-2.46-6.62-5.92-13.39,2.72-18.38C931.45,399.92,935.8,416.5,939.72,433.26Z"/><path class="cls-14" d="M10.51,288.63c-.13,5.15.94,10.7-.62,15.37-3.73,11.25,2.22,16.33,10.9,20.57,7.58,3.69,15,7.63,23.56,12-5.29,3.46-9.31,5.08-13.78,1.29l.28-.28c.84-1.37,1.27-2.69-.45-3.75-.94-.58-1.85-1.18-2.8-1.72C2,317.59,2,317.6,8.62,288.66c.74-.92,1.42-.92,2,.14Z"/><path class="cls-29" d="M101.84,613.24l-2.66,2.92C94.44,609.89,93.47,602,90.4,595c-1.83-4.18-.43-7.55,3.73-10.12,13.05-8,25.92-16.38,38.86-24.61l2.18,2c-2,6.7-8.9,7.62-13.39,11.39a76.25,76.25,0,0,1-13.48,9.51c-8.78,4.61-13.6,10.76-10.61,21.07Q99.76,608.74,101.84,613.24Z"/><path class="cls-30" d="M764.07,226.83l2.7-2.71c27.46.47,29.21,2.54,23.46,29.33-.83,3.84-.11,8.22-3.1,11.5l-2.35-2.84c-3.52-4-1.3-8.51-.78-12.71,1.72-13.78,1.84-13.7-11.16-17.21C769.47,231.28,765.17,231.58,764.07,226.83Z"/><path class="cls-31" d="M868.78,848.82c2-2.22,3.09-3.89-1.49-3.64-3.85.22-7.68-.32-7.93-5.41-.18-3.8.67-8.07,3.6-10.06,3.59-2.45,5.26,2.73,8.1,4,3,.72,5.24,2.67,7.5,4.59s5.37,3.32,4.74,6.87c-.74,4.11-5.09,1.92-7.29,3.65Z"/><path class="cls-32" d="M820.31,211.24c-.66-1.54-1.31-3.09-2-4.63-5.17-6.06-1-12.73-1-19.07,0-5.49,1.64-10.92,2-16.46a11.52,11.52,0,0,1,3.21-7l4.12-2.16C827.76,178.79,824.32,195.05,820.31,211.24Z"/><path class="cls-33" d="M221.86,626.71c4.7,3.36.22,9.56,4.07,13.19,4,2.93,2.63,7.6,3.71,11.45,2.37,3.73,7.7.69,10.07,4.37l2.62,2.43a6.63,6.63,0,0,1-1.8,1.23c-19.3,4.88-19.35,4.81-18.89-14C221.79,639.13,221.79,632.92,221.86,626.71Z"/><path class="cls-34" d="M497.55,30.76l-2.68,3a10.5,10.5,0,0,1-3,.85c-3.28.4-6.16,1.89-9.13,3.2-12.31,5.43-16,2.64-14.86-11.21a3.1,3.1,0,0,1,2.93-.93,4.54,4.54,0,0,1,1.68,2.73c1.25,2.06-.53,8,5.47,3.85a84.43,84.43,0,0,1,12.48-6.86C495.8,22.91,498,25.19,497.55,30.76Z"/><path class="cls-35" d="M143.88,259.82l-2.52,2.72c-9.17-13.31-14-28.79-21.38-43,.73-.9,1.46-1.8,2.18-2.71Z"/><path class="cls-36" d="M395.86,55.27l6.06-13.4c1.46-1.7,2.69-4.09,5.45-1.75a9.34,9.34,0,0,1,1.44,3.14c1,5.67,0,11.58,2,17.13.65,6.55,2.43,13.22-2.06,19.2-1.79,1-3.29.4-4.69-.82a6.58,6.58,0,0,1-1.45-4.51c.43-2.84.89-5.71-.18-8.54-1.83-2.31,1.9-7.61-4.18-7.62A3,3,0,0,1,395.86,55.27Z"/><path class="cls-37" d="M400.21,26.49q-1.48-8.56-3-17.12c-.58-3.35-.74-6.74,2.59-8.74,3.69-2.22,4.79,2.05,7,3.37,2.76,1.64,5.6,3.38,7,6.55a5.13,5.13,0,0,1-3,3.17c-2.81.26-5.3-.24-6.82-3-.26,2.14.63,4.22.45,6.38a22.55,22.55,0,0,1-.85,7.44,5.17,5.17,0,0,1-2,2.27Z"/><path class="cls-38" d="M237.07,239.86c-3.56,4.22-.51,9.47-2.19,14-4.53-24.85-4.53-24.85,19.31-19.21l10.58,2.5c-.93.8-1.86,1.6-2.8,2.39-3,3.38-6.68,2-10,.93A27.44,27.44,0,0,0,237.07,239.86Z"/><path class="cls-39" d="M722,784.65l-2.22,2.59c-6.19-12.57-13.19-24.77-17.23-38.3l2.35-2.6c5,.83,5.87,5.2,7.11,8.84C715.36,765,722.85,773.43,722,784.65Z"/><path class="cls-40" d="M373.11,44.19c.7,2.29,6.82,2.41,2.66,6.64C370,54.64,364.89,59.45,359,63.16c-2.5,1.67-5.06,3.26-7.62,4.84-1.89.88-3.77,2-5.72.13-1.55-4.51,1.5-7.06,4.15-9.78,1.81-1.4,3.73-2.3,6.07-1.36Z"/><path class="cls-41" d="M428.53,26.33c2.19,1.59,5,5.65,7.15,2.27,6.11-9.4,12.09-11.43,19.72-2,.17,3-2,3.3-4.17,3.46-4.91-2.82-7.91.8-11.32,3.27-6.78,4.91-11.94,4.29-14.54-4.49C425.73,27.09,426.46,25.85,428.53,26.33Z"/><path class="cls-42" d="M331.38,66.4l-2.59,0c.67-8.37,1.37-16.74,2-25.12.53-7.28,3.44-8.49,8.88-3.62.7,3.7-2.25,6.87-1.51,10.58C337.15,54.74,338.66,62.22,331.38,66.4Z"/><path class="cls-43" d="M617.6,110.59l2.16,2.38c1.8,7.47-8.14,9.38-7.65,16.21-.19,2.85,1.47,6-1.35,8.42l-2.21,2.5C602.47,123.9,602.47,123.9,617.6,110.59Z"/><path class="cls-44" d="M450.65,28.57c1.87,0,3.77.08,4.75-2,3-5.12,6.67-9.3,13.43-8.59,1,1,.93,2.51,1.58,3.69l.8,2.89c.66.91.44,1.47-.67,1.67l-1.55,0c-4.62,1.45-7.89,5-11.81,7.49C451.3,37.54,449.15,35,450.65,28.57Z"/><path class="cls-45" d="M335.87,46.93c-1.66-4.29,1-6.81,3.79-9.31,7.79,4.46,11.06,12.71,16.23,19.37l-4.71,2.75c-5.06-3.18-6.24-9.42-10.48-13.24C338.53,40.41,337.6,48.18,335.87,46.93Z"/><path class="cls-46" d="M437,802.78l2.81-2.52c10.46-1.85,19.48.89,26.94,8.52-.79.73-1.58,1.46-2.36,2.2A104.89,104.89,0,0,1,437,802.78Z"/><path class="cls-47" d="M624.41,882.22a9.83,9.83,0,0,1,0,2.17l-4.23.05c-1.43-1-3.27-.76-4.75-1.61l-26.69-5,2.59-4.82,1.65-.6h1.74c6.47,1.16,13,2.24,19.4,3.57C618.08,876.83,623.26,876.46,624.41,882.22Z"/><path class="cls-48" d="M876,848.78c5.82-2.44,7.94-5.19,1.18-9.39-2.33-1.45-4.1-3.79-6.13-5.72l2.84-3L888.1,845C884.6,849.46,880.21,848.79,876,848.78Z"/><path class="cls-49" d="M428.53,26.33l-2.14,2.27c-4.42.72-5.32-3.6-7.92-5.5-2.66-3.43-6.93-5.68-7.69-10.5l3.1-2C419.59,15,425.92,19,428.53,26.33Z"/><path class="cls-50" d="M281.91,869.14c0,1.44,0,2.89,0,4.34-7.22-1.64-12-7.39-18.1-10.85,3.17-1.31,1.71-5.33,4.16-7.06,3.5,1.64,4.36,5.95,7.8,7.66A24.6,24.6,0,0,1,281.91,869.14Z"/><path class="cls-51" d="M406,39.65l-4.07,2.22c.28-3.13.91-6.27-.58-9.29-.37-2.19-1.14-4.44.75-6.37l-.18.2a2,2,0,0,1,2.62-.53,7.54,7.54,0,0,1,1.59,2.57,70.66,70.66,0,0,1,1.68,7.36C407.84,37.4,407.53,38.82,406,39.65Z"/><path class="cls-52" d="M172.84,222q-.06-.94-.06-1.89c6.06-.37,12.23-2,17.93,1.64Z"/><path class="cls-53" d="M220,814c3.15,4.63.78,9.78,1.4,14.64C217.87,824.07,219.84,819,220,814Z"/><path class="cls-1" d="M395.86,55.27c.53.64,1.07,1.27,1.61,1.9,1.09,5.3-1.72,7.06-6.43,7.09l-.76-.68Z"/><path class="cls-54" d="M81.46,430.76c1.81-2.39,3.91-4.22,7.49-3.76-.34,3.33-2.34,5-5.06,6.15Z"/><path class="cls-6" d="M10.65,288.8l-1-.21-1,.07c-.09-3-.91-6.18,1.79-8.61Z"/><path class="cls-55" d="M915.22,368.81c-1.94-1.9-1.85-4.21-1.37-6.6A5.64,5.64,0,0,1,915.22,368.81Z"/><path class="cls-56" d="M402.09,26.21c-.25,2.13-.49,4.26-.74,6.38-2.08-1.73-1.71-3.9-1.14-6.11A9.27,9.27,0,0,0,402.09,26.21Z"/><path class="cls-6" d="M30.4,333.81c2.19,1,3.09,2.17.45,3.75Z"/><path class="cls-56" d="M470.54,26.22a8.38,8.38,0,0,1,.66-1.68c1.46,1,2.06,2.21,1.29,3.89Z"/><path class="cls-56" d="M470.41,21.66,468.82,18A2.5,2.5,0,0,1,470.41,21.66Z"/><path class="cls-3" d="M148.27,642.31a3.41,3.41,0,0,1-1.64,4.43C145.92,644.8,146.62,643.38,148.27,642.31Z"/><path class="cls-57" d="M86.18,439.55c.7.84,1.4,1.69,2.09,2.54-1.81.23-3.49.1-4.44-1.8Z"/><path class="cls-58" d="M615.47,882.83a4.64,4.64,0,0,1,4.75,1.61A4.11,4.11,0,0,1,615.47,882.83Z"/><path class="cls-59" d="M330.46,337.69c.55,1.6-.54,4.24,1.69,4.65s2.58-2,2.92-3.68c1.29-6.35-1.13-13.12,2.2-19.25,4.2,5.79.27,11.47.84,17.38,1.29-4.8-.44-10.63,3.65-14.85s9.79-5,15-6.58c6-1.76,8.08-7.26,11.87-11.15,5.14,10.61,3.54,23.05,9.79,36.18,3.75-18.69,7.28-34.93,10.16-51.29,1.44-8.19,3.93-10.68,11.79-5.64,11.22,7.2,22.19,14.66,32.69,22.88,3.83,3,3.68,6,3.38,10.52-1.47,22.17-5,44.06-7.83,66.05a19.26,19.26,0,0,0,1.22,9.34c.64-13.85,11.13-22.19,16.89-33.13,3.09-5.88,5.82-5.72,9.42-.52,2.53,3.64,5.43,7,8.31,10.4,5.49,6.48,14.06,12.17,15.77,19.49,1.61,6.86-8,13.09-12,21.21,6.83,2.69,11.54-1.57,16.7-3.29,2.24-.74,4.62-3.67,6.9-.77,1.77,2.25.51,5-.61,7.32-5.19,10.85-13.82,19.14-21.25,28.32-10.77,13.32-24.14,23.9-36.95,35.11-4,3.49-6.83,3.47-10.33.15a294.94,294.94,0,0,0-36.12-29.28c-3.32-2.28-2.92-5.45-3.59-8.67-1.45-7,0-14.55-3.63-22.55-3.07,8.58,1.26,15.79-.72,23.82-11.6-3.26-19.89-12.13-30.2-17.26-10.9-5.43-21.07-12.47-32.25-17.18-8.47-3.57-7.16-11-9-17.71-1.29,1-2,1.32-2.13,1.76-.68,3.11,3.68,8.35-2,9-4.16.47-4.59-5-5.17-8.59-.4-2.54-.45-5.13-.66-7.7-4.21-14.81,4.77-22.47,15.92-28.57C320.39,349.68,322.94,341.05,330.46,337.69Z"/><path class="cls-60" d="M500.35,52.79C508,63.7,519.2,70.12,530.57,76.26a123.41,123.41,0,0,1,29.49,22.83c2.35,4,1.41,7.76-1.11,11.17-5.1,6.91-3.68,13.41.37,20.22,2.85,4.81,7.56,9.27,5,15.87-4.12,9.3-11.88,15.86-18,23.64-4.91,6.24-5.54,10.4,1.23,16.42,12.82,11.38,24.47,24.08,36,36.93-9.54-3.19-16.46-10.2-24.28-15.83-.89-.64-1.57-1.55-2.4-2.28-20.91-18.38-22.08-18.17-35.46,6a33.42,33.42,0,0,1-3.39,4.29c-13.51.21-20.76,7.32-20.75,21.11,0,5.14-1.16,9.42-4.47,13.24a28.13,28.13,0,0,0-5.32,9.63c-4.16,12.42-7.71,13.81-17.92,6.34C464,261.82,458.46,260,452,262.32c-6.94,2.49-13.62,1.85-20.64-.11-13.67-3.82-27.13-.78-40.51,2.39-4.82,1.15-6.23,6-10.45,9.56-2.84-8.55-1.72-16.33-1-24.09l.86-25.24c1.89-6.12-4.84-13.35,2.42-18.76,4.15,7.88,9.31,6.45,15,1.75,2.86-2.37,6.36-3.71,9.66-5.37,45.13-22.7,69.59-61.11,81.94-108.48,2.33-8.94.47-18.52,2.14-27.56C492.39,61.07,490.66,52.84,500.35,52.79Z"/><path class="cls-61" d="M460,751.26c-10.9-38.19-16.63-77.29-20.24-118-3.17,4.13-1.91,7.94-2.63,11.29-1.05,1.77-.37,4.27-2.39,5.63-5.61,2.19-9.94,5.75-13.9,10.46-13.42,16-29.69,28.61-47.69,39.05-13.38,7.77-26.92,15.28-38.57,25.63-1.83.86-5.51-1.33-5.16,3.15-12.49,12.27-17,12.07-28.3-1.1-2.54-3-4.77-6.42-9.33-7.07,5.56,12.64,5.56,12.64,1.42,17.54-9.12-16.33-18.34-32.6-27.33-49-3.66-6.67-9.95-5-15.57-5.52-3.4-.31-7.27.33-5-5.26,10.92-27.09,14.81-57.14,34.15-80.66,4.73,1.62,4.44,6.3,6,9.86,3.91,8.8,9.65,11.21,18.63,7.67,4.71-1.86,9.28-5.4,14-.09,2.26,8.69-4.33,15.27-5.54,23.16-.49,3.14-3,6.82.3,9.15,2.57,1.83,5.56-.84,8.23-1.94,2.05-.84,3.92-2.12,6-2.91,7.77-3,9.84-7.59,6-15.44-3.07-6.27-5.48-12.84-9.53-18.61,3.13-7.13,7.16-13,16.37-11.07.74.8,1.78,1.82,1.57,2.74-2.9,12.76,3.95,14.8,14.26,13.14,11.82,17.57,19.49,19.76,39.43,10.7a156.49,156.49,0,0,0,17.53-9.44c3.38-2.1,7-4.74,5-9.86-2.28-2.63-2.73-5.45-.87-8.49,2.92-1.68,4.68.57,4.68,2.52,0,9.5,6.27,7.83,12.07,7.34,2.21-.19,4.41-.5,6.62-.66,10.47-.77,14.43,3.07,12.77,13.72-1.91,12.26-2.43,24.66,1.29,36.28,6.38,19.87,13.16,39.64,20.32,60-.86-27,15.29-45.9,28.7-66,1.4-.85,3.38-1,3.77.46,1.64,6.28,7.39,10.37,8.69,16.78a21.09,21.09,0,0,1-.59,5.13c-1.55,4.48-1.12,9.12-1.11,13.72-.18,4.09.39,8.3-1.89,12-6,3.41-6.61-.46-7-5.05-.25-3.36,2.63-8.23-1.86-9.68-3.61-1.16-6,3.54-8.88,5.62-5.94,4.26-8.09,10.18-7.62,17.29.44,6.61.28,13.23.44,19.84.22,8.77-1.17,16.14-11.54,18.38-3.8.82-5.58,4.44-7.49,7.66-1.53,2.57-1.46,6.89-6.17,6.51a.94.94,0,0,1-.35-1.33C461.1,754.81,461.19,752.84,460,751.26Z"/><path class="cls-62" d="M822,170.66l-3.69,36c-7.12,6.95-16.57,4.37-24.91,5.58-16.34,2.37-32.27,6.22-49.93,10.24l8.1,3.74c-12.05,4.08-23.88,8.82-36.29,11.85-5.53,1.35-9.55-4.19-14.87-3-7.35,1.64-15.35-.77-22.28,4.35-2.74,2-7.11,2.67-9.48-1.9L708.82,182c1.32-4.42,4.76-7.33,7.57-10.7,2.12-2.54,4.67-5.2,3.19-8.84-1.69-4.15-5.77-3.8-9.41-4.29-10.21-1.38-18.61,4.44-27.23,7.85-12.35,4.91-25.6,6.58-37.69,12.16-5.92,2.74-12.53,3.53-17.28,9-3.77,4.36-4.28-.56-5.4-2.89-.2-1.35-.4-2.71-.59-4.06-1.49-2.13-.25-4.9-1.67-7.05q-1.21-4.53-2.42-9.06c1.54-3.78-.92-7.1-1.23-10.68-.8-5-2.84-10.34,2.55-14.07,4.5-3.11,10.27-2.71,13.36.65,12.19,13.29,24.37,6.59,36.79,1.2l1.74,2.93a3,3,0,0,0,4.44.14c2.26-15,.71-30.23,4.08-45.07,1.9,1.6,1.37,3.83,1.38,5.92.16-9.14.51-18.26,0-27.34-.38-6.68,2.65-9.46,8.63-10.16,12.38-1.46,24.75-3.19,37.27-1.54,4.19,8.86.62,18.65,2.87,28.63,6.45-5.1,1-12.95,5.77-17.52,18.3.23,17.89.19,16.29,18.76-.9,10.47-.16,21.08-.16,32.58,5.1-1.83,4.72-9.62,10.8-8.53,16.45-1.94,30-11,44.29-18.13,4.56,13.33-1.84,26.74.33,40.09-.64,7.49-7.16,8.67-12.27,11-9.16,4.24-18.69,7.74-27.93,14.93l6.68,1c3,1.69,6.27.59,9.41.77.33,0-.51-.23-.61-.53a2.61,2.61,0,0,0-.6-.89c2.23-1.69,4.83-1.49,7.4-1.43,7.35,3.77,15,.4,22.42.7C815.41,167.66,819.7,165.74,822,170.66Z"/><path class="cls-57" d="M172.83,448.78l19.28-17.86-1.64-2.21c-9.94,6.78-20.51,12.81-29.65,20.53-11,9.27-20.19,15-35.42,6.33-12.28-7-25.91-12.36-39.09-18.1,10.74-10.14,21.49-20.27,33-31.15-4.7-1.53-6,2.37-8.67,2.5-2.88.52-5.49,1.5-7,4.22a4.09,4.09,0,0,1-4.11,2.39c-2.67.2-5.4.31-6.54,3.43-5.53,4.09-10.92,8.45-17.85,10.07-3.21-5.86,1.37-9,4.76-11.89,12.55-10.67,24.33-23,43.34-20.41,5.93.79,10.18-3.49,14-7.75,7.27-8.16,14.95-13.17,27-8.65,8.66,3.23,10.17.89,7.63-7.93-1.05-3.63-1.92-7.15.56-10.55,10.15-3,18.39,3.41,27.29,6,20.12,5.78,39.8,12.9,58.42,22.65,4.25,2.22,8.61,4.27,10.63,9.08l46.4,24.94c-3.31,10.57-12.28,12.35-21.45,13.81-2.8-4.24,1.55-6.63,2.62-9.86s.61-5.92-2.55-7.52c-2.77-1.4-5.59-.35-6.64,2.16-6.23,14.92-21.72,21.78-30,35-5.86,9.31-14,17.38-11.83,29.88.34,1.91-.27,4.68-3.71,3.44-7-3-17.15-4.24-20.19-9.54-3.94-6.85,7.39-10.2,10.93-16,2.82-4.6,6.8-8.48,10.26-12.68-.11-2-.49-3.5-2.9-1.85-8.39,9.71-20.33,14.56-30.29,22.11-2.78,2.11-4.9.43-7-1-6.84-4.68-14.53-7.3-22.49-9C171.18,461.39,165.23,458.49,172.83,448.78Z"/><path class="cls-55" d="M557,275.73l2.92,1.91c.1,5-4.27,4-7,5.11-7.84,3.21-9.15,7.72-3.8,14.34,6,7.39,13.91,12,22.72,15.18,4.41,1.61,7,.44,8-4.38,3.3-16,17.51-17.28,29.45-21.58l6.3,2.78c1.73.63,3.14,1.54,3.34,3.59-1.52,6.58-7.41,6.71-12.22,7.59-6.83,1.23-10.7,5.34-12,11.47-1.35,6.51-1.26,12.94-8.83,16.51-3.52,1.66-.18,5.24,1.4,7.5a111.48,111.48,0,0,1,11.57,20.17c5,11.67,3.54,22.92-4.67,32.17-12.91,14.52-22.67,31-32.28,47.65-5.48,9.49-12.69,17.43-22.19,22.78-21.69,12.23-43.12-2.35-40.59-23.21,1.19-9.86-1.12-19.95,1.32-29.8,16.55-18,34.18-34.85,53.53-49.76,6.07-4.67,6-7.76,1.59-13.16-7-8.66-14-17.19-22.22-24.78-4.8-4.45-10.59-8.32-12.38-15.3.48-6.62-3.75-10.59-8-14.63-3-2.86-7.39-5.42-4.29-10.81C524.61,273.72,540.83,276.61,557,275.73Z"/><path class="cls-63" d="M630.65,266.34a8.28,8.28,0,0,1-.67,2c-10.33,16-10.31,15.95-28.9,10.93a175.88,175.88,0,0,0-41.22-5.59c-20-1.34-29.73-17.44-42.36-29.37-.78-2.81-2.77-5.69-1.36-8.55,6.62-13.37,11.28-28,23.52-37.86,18.72,12.17,34.94,28.19,58.26,34.59l-49.55-52.45c6.65-9.87,13.39-19.69,22.8-27.25,15.33,13,30.63,26,46,38.93,2,1.71,4,6.58,7.58,1.41a33.56,33.56,0,0,1,1.1,19.91c-3.76,15.7-6.63,31,3.23,45.7C630.55,260.9,629.9,263.86,630.65,266.34Z"/><path class="cls-64" d="M330.46,337.69c-4,11-13.51,16.92-22.3,23-6.35,4.42-11.71,8-8.61,16.81.61,1.74-.6,3.51-2.23,4.64a1.62,1.62,0,0,1-.17-1.59c-.67-1.65-.59-3.51-1.5-5.09-2.68-10.18-2.27-21-6.74-32.69a332.89,332.89,0,0,0,4.73,48.08c-1.74,6.24-5.57,2.8-8.47,1.56-7.43-3.2-14.58-7.06-22.26-9.67-7.12-3.25-5.27-11.28-8.79-16.47,3.26,4.89,1.45,12.23,7.62,15.72,9.81,5.1,20.94,7.63,29.47,15.2,14.86,7.25,30.27,13.43,44,22.79,3.76,2.65,6.79,6.12,10.19,9.17,1.63,1.46,3.1,4.45-1.6,4.36-20.83-10.76-40.55-23.7-62.64-32-3.41-1.28-6.77-2.7-10.16-4.06-20.42-8.92-40.21-19.24-61.48-26.27-7.48-2.47-16.1-2.19-22.3-8.19-1.11-7.62,3-14.6,8.9-15.8,9.62-2,14.06-8.16,19-14.9a8.69,8.69,0,0,1,4.44-3.07c13.36-.65,24.88-8.58,38.22-9.6,3.68-.28,6.41-3.37,8.71-6.35,9.8-12.72,24-14.82,38.49-15.12,6.36-.12,12.16,2.5,15.7,8.62,1.39,2.4,2.28,5.62,5.93,5.87A44.9,44.9,0,0,1,330.46,337.69Z"/><path class="cls-65" d="M317.45,257.6c-7.49-15.83-24.05-13.56-37.05-18-4.55-1.54-6.15-2.8-5.72-7.16,2.06-20.55,5.68-40.74,13.48-60,7.29,2.21,11,8.45,15.07,14,11.48,15.54,28.18,20.48,46,23.42,6,1,10-.94,11.39-7.35.59-2.82,1.09-5.87,3.85-7.69,8,33.74,15.2,67.54,7.73,102.5-.91-2.75-2.88-5.75-2.69-8.6,1.12-16.85-12.86-18.4-23.29-23.51-3.49-1.71-5.53.35-6.76,3.51-1.61,2-.12,4.8-1.85,6.74h0c-2.94.84-3.94-1.39-4.36-3.34-1.77-8.34-6.9-8.46-13.33-5.81l-.06-.12C317.16,263.85,320.05,260,317.45,257.6Z"/><path class="cls-66" d="M630.65,266.34c-12.5-14.38-13.5-30.86-8.92-48.4,1.46-5.56,5.19-11.25.53-16.81-3.72-4.42,7.63-3.47,2.53-8-1.62-2.74-2.69-5.63-2.22-8.9,1.12.8,2.25,1.59,3.38,2.38,8.6-13.93,24.73-12.55,37.49-17.29,10.4-3.87,21.16-7.21,31.38-11.66,7.63-3.32,15.33-3.14,22.79-1.76,5.71,1.05,8.54,5.74,5,11.88A43.47,43.47,0,0,1,708.82,182c-5.69-2.36-6.47,3.06-8.3,5.78-9.06,13.47-19.2,26.11-29.39,38.71-4.7.88-6.75,5.68-10.91,7.35Z"/><path class="cls-56" d="M364.44,194.83c-.12.73-.27,1.45-.35,2.18-1.86,16.89-4.13,17.33-20.61,15-25.81-3.63-41.33-20.18-55.32-39.55l.81-3.82c.92-1.51.7-3.37,1.52-4.91a317,317,0,0,1,22.15-49.23c6.79,3.45,4.89,9.13,3.49,14.45-2.13,8.09-5.64,15.83-7.31,25,4.32-1.5,4.94-4.55,5.66-7.07,2.77-9.74,6.79-17.69,18.54-19,4-.44,6.77-4.41,8.62-8.12,7.12-14.23,14-28.57,13.05-45.14a29.29,29.29,0,0,1,2.57-12.88c6.56-3,9.76-11.67,18.51-11l-2.43,13.32a226.27,226.27,0,0,0-13.63,104.66,116.16,116.16,0,0,0,2.59,14.1c1.65,3.22-.5,7.14,1.89,10.22A1.74,1.74,0,0,1,364.44,194.83Z"/><path class="cls-67" d="M406.7,501.64c23.75-17.86,47.07-36.23,66.87-58.59,4.13-4.66,7.57-9.94,11.7-14.59,2.06-2.32,3.21-7.33,8.24-4.33,5,8.65,2.19,17.94,2.24,27-2.81,8.44-1.33,17.44-3.26,26-5.76,9-7.59,9-21.28.09,5.49,6.19,11,10.88,15.71,16.28,3.88,4.44,4.7,9.05.93,14-8.25,10.83-15.44,22.43-24.57,32.66-5.54,6.2-9.8,6.92-15,.21-3-3.77-6.68-6.87-9.9-10.42,1,10.74,14.33,20.45,5.21,31.48-6.53,7.9-15,15.77-27,15.63-.67-16.61,5.23-32.4,6.1-48.83.24-4.65,2.68-9.23.23-13.9-.76-.66-1.49-1.36-2.22-2C416.66,507.83,409.74,507.26,406.7,501.64Z"/><path class="cls-68" d="M241.58,491.26c0-26.71,18.2-42.22,35.91-57.82a15.66,15.66,0,0,0,5.4-9.14c1-5.35,4.7-7.29,9.18-8,3.91-.62,5.68,2.71,7.42,5.55,2.71,4.44,0,7.57-2.57,10.83a60.08,60.08,0,0,0-3.47,5.46c-.28.34-.56.67-.82,1a26.24,26.24,0,0,1-3.58,2.39c.09,0,.26.62.26.62a6.41,6.41,0,0,0,.73-.23c.69-.41,1.32-.72,2-1.05,7.1-2.86,13.42-7.08,20-10.73,4.13-2.28,7.76-3.38,12.1-1.5,3.19,1.78,6.37,3.55,10.27,5.74-5.85,8.14-16.61,9.39-24,19.32l20.57-11c8-2.17,24.33,6.76,27.2,14.89,2.14,6.05-5.82,17.65-15.38,22.32-7.46,3.64-13.62,1.51-18.71-4.55-1.11-1.31,0-2.82.3-4.22-2-4.51-4.32-1.25-5.88.09-13.26,11.43-29.45,18.17-43.84,27.75-6.33,4.21-12.07,5.57-18.74.17C251.79,495.81,246.42,493.86,241.58,491.26Z"/><path class="cls-69" d="M326.62,312.67c-.87,3.43-2.81,6.8-5,1.46-5.17-12.66-13.87-15.06-26.37-12.38-10.6,2.28-21.07,3.65-27.09,14.25-.89,1.56-2.16,3.77-3.57,4.05-15.16,3-29,11.52-45,10.9-3-5.17,1.08-7.27,4.4-9.23,3.76-2.22,8.11-3.18,12.19-4.73a3.34,3.34,0,0,1,3.14.65c.55.66,1.09,1.33,1.63,2,3.93-4,1.77-8.6,1.36-13-1.52-22.26-2-44.61-5.27-66.74.33-7.34,5.76-4.07,8.92-3.74,5.39.56,10.29,3.85,16,3.41,20.21.75,27.65,13.2,28.81,31.41.72.75,1.32.7,1.77-.27q.12-2.91.22-5.84c-1.67-2.94,0-6.46-1.59-9.41-1.23-4-1.57-8.38,4.22-6.81S308,250.48,311,257.19c.95,1.43.77,3.22,1.5,4.72.28,1.29.56,2.58.85,3.87.76,1.64.49,3.64,1.79,5.1q1.22,4.37,2.45,8.73c1.16,1.3.75,3.23,1.79,4.59a2.52,2.52,0,0,1,.47,2c1.06,1.36.79,3.19,1.6,4.64l.7,4.08c.87,1.48.77,3.25,1.44,4.79.25,1.4.5,2.8.74,4.2,1,1.42.75,3.25,1.59,4.72Z"/><path class="cls-70" d="M239.71,655.72c-4.43-1.8-8.94,3.73-13.34-.16,4.24-11.1,1.58-22.65,2-34,.24-5.9,2-9.44,7.84-11.65,17.08-6.46,28.22-24.24,27.49-43.55-.32-8.5-.65-17-.46-25.48a31.13,31.13,0,0,0-5.9-19.74c-3.2-4.42-6.91-9.18-2-14.86,8.72,5.9,15.19-.52,22.15-4.09,3.84-2,7.57-4.17,11.62-6.41,0,1.08.26,1.89,0,2.21-10.42,11.51-10.43,11.51,1.58,21.27,17.44,14.16,17.59,14.16,36,1.16,3.61-2.55,7.29-5,12.13-8.33-5,14.5,9.86,7.66,13.49,14.42-11.53,3.71-20.07,12.12-30.33,17.87-27.4,15.33-43.14,41-57,67.72-5.57,10.75-9.59,22.4-13.36,34C249.5,652.44,245.77,655.1,239.71,655.72Z"/><path class="cls-71" d="M255.39,506.3c.15,2.56-.75,6.25.61,7.51,14,13,8.69,30,10.65,45.7,2.25,18.06-4.55,32.07-14.81,45.65-2.63,3.49-5,6.07-9.58,6.3-9.95.52-12.65,6.32-11.63,15.49.66,5.85.1,11.82.09,17.74,0,4.21-.87,8.06-4.36,10.87q-.21-7.83-.43-15.66,1.44-28.73,2.87-57.47c-.43-6.76,4-13,2.08-19.92-7-9-14.86-15.12-26.94-9-1.61.81-4.17,1.12-4.08-1.63.31-9.09-5.21-9.68-12.3-9.8-8.78-.15-.58-4.62-1.34-6.92,19-11.37,40.17-18.24,60-28C248.7,505.88,252.06,503.33,255.39,506.3Z"/><path class="cls-72" d="M324.45,471.19c5.88,9.3,12.6,10.93,20.43,4.44a65.08,65.08,0,0,0,9.84-10.47c1.66-2.17,4.14-5.94.81-7.83-8.27-4.7-12.26-16.67-24.49-14.58,5.35-5.21,10.43-5.14,16.35-.34,11.72,9.52,25.79,15.78,36.94,26.16,4.36,5.53,10.32,9.48,14.8,14.88,3,3.57,7.15,6.74,5.34,12.42-12.42,10-26.08,17.94-40.32,24.94-1.9.93-4.33,1.88-6.23,1.47-4.59-1-10.75-.89-12.87-5.13-2.3-4.59,2.72-8.69,5.23-12.46,1.81-2.73,5.35-4.32,8.12-6.41l-2.8-3.08c-11.08,8.1-22.4,15.91-33.18,24.41-6.82,5.38-12.63,7.13-19.95.74-5.19-4.54-11.51-7.78-18.39-12.3C298.73,496.14,309.88,481.87,324.45,471.19Z"/><path class="cls-73" d="M379.38,250.07v20.66c1.46-6.91,5.59-8.16,11.8-9.45,16-3.33,31.69-6.55,47.64,0a8.7,8.7,0,0,0,6.41,0c11.4-5.61,21-4.26,29.79,5.47,3.57,3.94,8.76,1.76,8.7-3.24-.09-8,3.8-13.09,9.12-17.91,2.06-1.87,3-4.35,1.82-7-5.15-11.21,3.88-17,9.48-23.64,4-4.77,9.5-5.2,13.86.65l-2.55,4.28c-3.21,1.08-3.9,3.8-4.35,6.67l-2.39,4.32c-1.77,1.11-2.14,2.77-1.88,4.69,0,1.8-.07,3.61-.1,5.41.31,2.78,2.18,4.3,4.48,5.45l6.26,5.16c.4,3.67.51,7.12-4.88,6.36l-4-.73a4.61,4.61,0,0,0-4.18-.25c-1.76,12.19-13.2,18.46-17.7,29a5,5,0,0,1-.11,5.37q-.18,5.38-.37,10.77c-9.13,2-9.73-6.17-12.17-11.07-6.17-12.42-8.22-12.79-19.24-3.72-6.34,5.21-11.29,12.42-19.7,14.92-12.74-8.67-25.16-17.81-38.85-25.06-6.3-3.34-9.17-2.54-10.26,4.93a125.1,125.1,0,0,1-6,23.26A197.9,197.9,0,0,1,379.38,250.07Z"/><path class="cls-74" d="M293.22,737.85c4-3.63.87-7-.88-9.81-2.13-3.49-4.47-6.72-4.42-11.84,6.57-.37,10.79,3.46,14.47,8,11.78,14.42,11.73,14.46,26.33,2.31,2.14-.25,2.9,1.07,3.25,2.86-15.35,34.37-34.9,65.92-63.88,90.51-15.54,13.18-21.86,11.86-34.92-3.75-3.57-4.26-6.24-9.1-9.29-13.7.12-9.8.07-19.62.45-29.41.11-2.74-1.32-7.24,4.3-6.86,5.82.47,8.93,3.7,9.55,9.44,12.3,12.36,19.22,13,31.8,1.84,6.8-6,12.68-13.16,18.83-19.92C294,751.83,294.55,745,293.22,737.85Z"/><path class="cls-75" d="M359.05,609.2c-6-10.7-5.25-22-1.89-33,5.69-18.67,14.18-36.22,23.77-53.18,5.59-9.89,13.24-17.55,25.49-18.59,6,.43,10.71,3.84,15.68,6.65L422,511c1.78,1.33,3.92,2.75,3.48,5.19-3.72,20.68-4.67,41.85-11.14,62-4.46-1.49-4.06-5.77-4.86-9.11-2.36-9.74-7.28-18.44-11.09-27.58-.89,12,1.05,23.89,1.92,35.9,1.21,16.78-1.38,20.76-17.47,25.65C375.06,605.42,368.3,612.39,359.05,609.2Z"/><path class="cls-76" d="M435.17,302.15c6-9,15.63-14.15,23.14-21.58,6.3-6.23,14.47-3.49,16.88,5.09,1.91,6.83,4,13.21,11.09,16.36.63,29.41-.83,58.93,4.5,88.1,1.89,10.34-4,13.58-13.34,14.76,0-1.73-.36-2.89.05-3.61,9.73-17.28,9.7-17.23-4.89-31.43-5.81-5.66-11.93-11.14-16.93-17.48s-7.83-4.54-11,1.29c-2.21,4.07-4.82,7.91-9.76,11.07,1.91-15.39,3-31,6.1-46.11C442.62,310.89,441.25,306.19,435.17,302.15Z"/><path class="cls-77" d="M355.7,613.06a18.53,18.53,0,0,1-4,1.84c-4.19.85-8.62,5-12.48,1.86s-1-8.14,0-12.34a44.71,44.71,0,0,0,.6-6.58c-1.26-5,.78-9.47,2.45-15.66-7.8,7.8-14.3,15-21.43,21.41-7.91,7.17-25,4.34-30.07-4.79-2.87-5.11.57-8.45,3.64-11.61,11.34-11.62,22.85-23.07,34.6-34.63-4.06,1.73-7.8,4.47-11.83.6,11.71-11.24,26.67-16.83,40.94-23.67,6.16-3,12.1-6.36,19.61-10.35-7.67,17.35-14.66,33-21.55,48.75C349.63,582.86,350,597.94,355.7,613.06Z"/><path class="cls-78" d="M228.89,762.13c-5.58-7.1.16-14,.78-20.84.79-8.65,3.44-17.12,5.28-25.66,1.8-7.11,3.63-14.22,5.4-21.34,1.37-5.54,4.88-8,10.52-7.38,5.12.52,10.3-1.46,13.69,5.87a289.85,289.85,0,0,0,18.74,33.54c4.62,7.27,11.7,15.46,2.73,24.74-4.07.4-4.28-3.29-5.77-5.53-6.75-10.16-15.39-11.07-23-1.33-5.49,7-9.49,15-20.57,13C233.23,756.57,233,762.67,228.89,762.13Z"/><path class="cls-79" d="M564.28,146.35a10.82,10.82,0,0,0-1-2.86c-10.51-14.14-13.12-28.81-3.17-44.4,17.56,13.1,31.39,29.72,44.36,47.14,5,12.13,12.84,23.38,13,39.89-15.58-12.91-29.31-24.25-43-35.67C571.46,148,569.24,143.85,564.28,146.35Z"/><path class="cls-80" d="M357.26,61.79c2.74,21.38-3,40.95-12.88,59.6-3.09,5.8-7.92,11.49-14.15,11-8.18-.7-8.87,4.07-10.76,9.21s-4.05,10.23-6.31,15.24c-1.27,2.81-3.9,3.48-6.52,2.31-2.93-1.31-1.24-3.7-.67-5.68,2.46-8.45,4.59-17,7.6-25.28,1.82-5,1.78-9.25-.93-13.63,4-11.5,9.72-22.18,15.89-32.62,8.43-3.75,19-4.45,22.39-15.44Z"/><path class="cls-81" d="M359.05,609.2c10.34-3.83,20.64-7.78,31-11.45,6.44-2.28,7.93-7,7.5-13.11-1.22-17.42-2.41-34.85-2.12-52.79,8.28,14.44,17.4,28.45,17.76,46,4.73,8.53,3.87,17.48,1.95,26.5-7.44,8.23-17.26,12.83-27.21,16.76C370.26,628.15,367.34,626.65,359.05,609.2Z"/><path class="cls-82" d="M378,220c-1.93,2.39-3.92,2.51-4.45-.74-6.7-41.38-11.84-82.81-1.37-124.38.43-1.68,1.79-3.12,2.72-4.68,5.32,1.93,5.37,6.67,5.43,11,.2,14.58,5.82,27.17,13.77,39,1.52,6.72-2.59,12.37-3.51,18.63C386.88,179.36,383.62,199.94,378,220Z"/><path class="cls-83" d="M669.36,141.2c-5.67,10.78-17.22,8.18-26.21,11.31-2.34.81-3.25-2.46-4.5-4.21-4.14-5.83-10-10-16.83-7.74s-3.23,9.58-4.1,14.71l-1,.77-1-.8q-2.49-8.82-5-17.64c-.53-3.09-1-6.18-1.58-9.26,11.14-9.64,18.49-23.63,33.31-29C653.16,112.18,660.85,127,669.36,141.2Z"/><path class="cls-84" d="M228.89,762.13c2-5.84,4.12-10.85,12.24-8,7.72,2.73,8.83-4.53,11.52-8.91,7.1-11.53,19.07-14.75,26.41-6.49,3.07,3.45,4.69,8.17,7,12.31-5,10.79-13.29,19-21.69,27.1-5,4.81-10.57,4.1-16.29,1.69-3.3-1.4-5.77-4.71-9.87-4.29a30.84,30.84,0,0,1-9.55-9.44C228.72,764.79,228.8,763.46,228.89,762.13Z"/><path class="cls-85" d="M317.19,553.16c7,1.12,11.88-5.26,20.4-3.59-12.93,12.39-26.06,24.58-38.65,37.31-3,3-10.81,5.27-5.48,11.88,5.18,6.44,19.18,9,23.7,4.62,7.91-7.74,15.34-16,23-24,1.23-1.31,2.26-3.51,4.35-2.62,2.82,1.21,1.52,3.62.82,5.64-1.8,5.16-3.64,10.31-5.46,15.46-7.65.1-10.84,6.67-15.71,10.81-.74,3.61-1.69,7-6.42,7-3.54-2.41-6.76-1.39-10.25.49-14.05,7.54-22.59,3.26-25.72-12.57a39.54,39.54,0,0,0-2.28-6.17C289.18,580.22,300.61,564.5,317.19,553.16Z"/><path class="cls-86" d="M368.66,304.21c1.67,10.05-5.86,12.75-12.81,15-14.84,4.76-14.93,4.48-18.58,18.18v-18c1.12-14.69,2.37-29.36,5.52-43.81,1-4.81,1.95-5.89,7.83-3.88C367.14,277.37,365.17,292.05,368.66,304.21Z"/><path class="cls-87" d="M391,64.26c3.63-1,5-4.09,6.43-7.09L403,50.59c.64,6.12,1.14,11,1.65,15.83a7.29,7.29,0,0,1-.13,6.5c0,1.52-.09,3-.13,4.55,1.53,2.83,2.5,5.77,1.85,9-1.11,11.55-3.6,22.87-5.75,34.24-.93,5-1.17,10.24-6.38,13.1-8.84-3.4-10.16-11.67-11.95-19.29-2.35-10.07-2.26-20.46-3-30.73C381,76,389,71.94,391,64.26Z"/><path class="cls-88" d="M343.84,433.54c.33-6.54-8.15-7.48-8.59-13.53a387.62,387.62,0,0,1,84.27,58.73c1.58,1.45,5.41,2.79,2.8,6s-5.76,2.2-8.8-.08c-8.58-6.44-16-14.19-25.11-20.1C373.25,454.67,358.66,443.92,343.84,433.54Z"/><path class="cls-89" d="M361.6,184.36c-7.89-15.81-7.52-33-5.92-49.58,2.21-22.89,4.57-46.08,15.14-67.22a24,24,0,0,1,2.52-3.41c-2.58,15.64-7.37,30.78-9.61,46.56-2.84,20-1.21,39.87-1.62,59.8C363.3,175.18,364.15,179.83,361.6,184.36Z"/><path class="cls-90" d="M508.56,277.07c.28,5.11,4.6,6.95,7.54,10.13,3.61,3.91,11.35,7.27,5.59,15-5,.64-7.29-3.78-10.79-5.9-3-1.82-6-4.9-8.21.85a150.3,150.3,0,0,0-4.19,38.31c.05,5.4,1.11,11.16-3.06,15.82-4.82-.26-3.11-4-3.29-6.5-.57-7.55.8-15.18-.78-22.71,0-1.5-.08-3-.13-4.49,2.4-9.7-.68-19.71,1.68-29.41C493.12,277.42,500.36,276.57,508.56,277.07Z"/><path class="cls-91" d="M319.91,266.31c2.75-1.64,1.9-8.07,7.51-5.82,3.72,1.49,7.65,3,7.8,8.07.07,2.53-.19,5.22,2.38,6.9l-3.48,36.35-2.34.28Q325.84,289.2,319.91,266.31Z"/><path class="cls-92" d="M188.47,362.14c18.91,7.87,39.2,12.13,57.36,21.93,8.38,4.52,17.57,7.51,25.21,13.41l-2.28,2c-30-17.49-62.89-27.43-95.9-37.08-7.73,2.32-13.88-3.08-20.91-4.23-6.68-3-14.66-3.43-19.59-9.89.81-3.35,3-2.95,5.45-2.06l30.45,9.37C175.52,356.14,182.79,356.72,188.47,362.14Z"/><path class="cls-93" d="M97.69,604.24c-7.45-9.84-4.11-15.87,6.08-21.42,11-6,21-13.63,31.4-20.55l17.48-9.11c2.76,3.94-1.2,4.15-3.06,5.05C128,568.75,114,587.76,97.69,604.24Z"/><path class="cls-94" d="M350.92,66.46C349.66,80,347,81.87,328.53,81.9l2.85-15.5c3-6.13,4-12.74,4.49-19.47,1.54-1.47,1.56-6.87,5.5-2.11,4,7.33,2.35,16,5.4,23.51Z"/><path class="cls-95" d="M415.17,604.4l-1.95-26.5c3.53-20.57,7.12-41.14,10.48-61.75.26-1.59-1.09-3.45-1.69-5.18,6.53.86,5.5,5,4.74,9.75-3.09,19-5.86,38.13-8.75,57.21a5,5,0,0,1,1,4.07,17,17,0,0,0,.08,9.64,4.75,4.75,0,0,1-1.06,4.05l-.36,8.77Z"/><path class="cls-96" d="M379.1,83.84c9.11,6.12,2.64,15.6,4.38,23.35,2.13,9.42,4.35,18.17,10,26,1.55,2.42,1.54,4.61-.93,6.45-2.79,1.71-3.18.1-4.35-2.28-6-12.3-11.8-24.51-10.87-38.81.17-2.7-1.6-5.53-2.48-8.3Z"/><path class="cls-55" d="M491.37,322.08c5,9.11-1.42,19.73,3.86,28.79,6.58,13.38,5.18,28,6.68,42.21a7.25,7.25,0,0,1-3,4.61,2.22,2.22,0,0,1-3.2-.59C492.51,372.2,489.05,347.31,491.37,322.08Z"/><path class="cls-97" d="M539.66,197.94c-6.36,10.66-13.09,21.13-18.88,32.1-2.21,4.18-2.25,9.51-3.28,14.31-3.78-2.41-7.5-4.71-4.63-10.28a337.88,337.88,0,0,1,22-36.32C536.21,195.84,538.1,196.85,539.66,197.94Z"/><path class="cls-98" d="M378,220c1.6-21.29,5.43-42.21,10.44-62.93,2.79,1.82,3.51,4.75,4.14,7.73-.28,9.46-3.57,18.5-4,28-1.91,4.23-.33,9.71-4.66,13.07-3.63,5.87.08,13.13-3.61,19Z"/><path class="cls-99" d="M404.47,495.87c-2.65-7-8.38-11.6-13.32-16.82-2.89-3.05-7.09-5.34-6.82-10.48,10.07,3.58,17.13,11.48,24.76,18.26C416.13,493.07,407.89,493.74,404.47,495.87Z"/><path class="cls-100" d="M571.17,152.83c-7.06,9.53-12.4,20.51-22.8,27.25-3.32-2.1-1.6-4.2,0-6.24,5.9-7.31,11.77-14.64,17.76-21.88C568.1,149.63,569.85,150.51,571.17,152.83Z"/><path class="cls-101" d="M495.71,397.1a8.49,8.49,0,0,0,1.58,1.08,5.74,5.74,0,0,1,2.44,4.67c-.1,15,.75,30-.5,44.94-.27,3.3-.76,6.56-2.94,9.26-4.73,1.72-4.14-1.22-3.58-4.12q.41-14.4.8-28.8C497.4,415.37,493.86,406,495.71,397.1Z"/><path class="cls-102" d="M532.77,271.57c-9.63,0-15.67,0-21.72,0-1.94,0-4.69,2.38-5.5-.72-.59-2.23.24-5.1,1.15-7.41,1.07-2.72,3.67-1.93,5.64-1.09C518.22,264.87,524,267.59,532.77,271.57Z"/><path class="cls-103" d="M512.59,257.89c2.79-1.23,3.37-4.15,4.88-6.36,6.73,4.27,13.27,8.77,19.63,17.93Z"/><path class="cls-104" d="M324.16,428.66c-9.35-.85-15.23,6.47-22.83,9.76-4.32,1.86-7.74,5.64-12.79,6-1.21-4.16,2.44-4.84,4.68-6.54l.23.27c7.31-4.48,15.78-7.12,21.71-13.77Z"/><path class="cls-105" d="M291.21,397.22c-10-4.53-20.22-8.77-29.3-15.16l-.06.08c8.15.41,14.85,5.1,22.31,7.51,3,1,5.77,5.36,9.48,1.23C297.27,394.7,291.92,395.07,291.21,397.22Z"/><path class="cls-55" d="M492.92,288.18c-.58,9.8,2.35,19.8-1.68,29.41C491.17,307.75,489.58,297.82,492.92,288.18Z"/><path class="cls-95" d="M422.1,511a41.86,41.86,0,0,1-15.68-6.65c.09-.92.19-1.83.28-2.75C411.81,504.81,418.78,504.94,422.1,511Z"/><path class="cls-65" d="M361.6,184.36l.51-13.85c2.21,7.4,1.95,15,2.08,22.62C361,190.9,362.34,187.32,361.6,184.36Z"/><path class="cls-60" d="M511.1,226.5c-.6-3.56-1.73-7.46,4.35-6.67Z"/><path class="cls-60" d="M506.83,235.51c-1.82-.95-2.6-2.32-1.42-4.21.83-1.33,1.95-2,3.3-.48C508.08,232.39,507.46,234,506.83,235.51Z"/><path class="cls-83" d="M617.72,155.27c3.11,2.88,3.11,5.83.17,8.83a1.76,1.76,0,0,1-.44-1.59c-1-2.44-1.36-4.87.25-7.22Z"/><path class="cls-64" d="M292.55,270.67c1.5,1,3.15,2.59.82,3.6-2,.86-2.34-1.67-2.59-3.33A2.85,2.85,0,0,1,292.55,270.67Z"/><path class="cls-91" d="M317.45,257.6c3.24,2.18,2.06,5.6,2.4,8.59C316.9,263.93,317.94,260.55,317.45,257.6Z"/><path class="cls-64" d="M291.18,255.42c2.85,2.74,1.67,6.17,1.59,9.41Z"/><path class="cls-66" d="M617.7,155.29c-.09,2.41-.17,4.81-.25,7.22-2-2.08-1.84-4.68-1.69-7.27Z"/><path class="cls-66" d="M620.31,173.16c2.35,1.92,1.79,4.53,1.67,7.05C620.05,178.18,620.09,175.69,620.31,173.16Z"/><path class="cls-91" d="M337.58,275.47c-.25-2.48-.53-5,1.85-6.74A8,8,0,0,1,337.58,275.47Z"/><path class="cls-60" d="M511.21,246.37c-3.64-.06-4.71-2.21-4.48-5.45A8.63,8.63,0,0,1,511.21,246.37Z"/><path class="cls-68" d="M239.68,451.21c.62-1.33,1.62-2.38,3-1.46s.93,2.24-.15,3.31Z"/><path class="cls-64" d="M315.11,270.88c-1.95-1.23-2.09-3.09-1.79-5.1Q314.21,268.33,315.11,270.88Z"/><path class="cls-64" d="M323.56,299.71c-1.56-1.27-1.67-3-1.44-4.79C323.61,296.21,323.8,297.9,323.56,299.71Z"/><path class="cls-64" d="M325.89,308.63c-1.6-1.22-1.79-2.9-1.59-4.72A4.85,4.85,0,0,1,325.89,308.63Z"/><path class="cls-64" d="M319.35,284.2c-1.63-1.13-1.92-2.78-1.79-4.59Z"/><path class="cls-59" d="M295.65,375.49c1.76,1.32,1.82,3.14,1.5,5.08C295.58,379.2,295.37,377.42,295.65,375.49Z"/><path class="cls-64" d="M321.42,290.84c-1.56-1.19-1.77-2.85-1.6-4.64C320.35,287.75,320.89,289.29,321.42,290.84Z"/><path class="cls-65" d="M290.49,163.74c.45,1.93.18,3.64-1.52,4.91A5.1,5.1,0,0,1,290.49,163.74Z"/><path class="cls-103" d="M504.46,256.91c1.5-1.78,2.89-1.63,4.18.25Z"/><path class="cls-76" d="M486.65,291.25c0-1.79.07-3.57.11-5.36C488.15,287.7,488.26,289.49,486.65,291.25Z"/><path class="cls-64" d="M312.47,261.91c-1.56-1.24-1.67-2.94-1.5-4.72C312.62,258.4,312.67,260.11,312.47,261.91Z"/><path class="cls-106" d="M188.47,362.14c-7.31-.43-13.79-3.42-20.2-6.59,2.09-1.1,3.12-4.05,6.49-3.06,1.83.53,4.15-2.64,3.87-2.79-10.82-5.72,3.71-20.83-11-26.81-8.32-3.38-12.12-14.81-10.17-25.54,1.2.55,2.87,1.89,3.52,1.51,2.2-1.31.67-3.59.71-5.49-1.65-2-.44-4.65-1.53-6.77-.24-1.44-.48-2.88-.71-4.32-.81-1.31-1.35-2.77-.18-4s2.57-.58,3.61.59c2.21,2.47,3,5.84,5.37,8.24,9.2,9.39,28.88,12.46,40.81,6.46,3.3-1.66,4.59-4.39,5.58-7.67.77-2.54.44-6.25,4.82-6a99,99,0,0,1,17.87,33.46c1.36,1.4,1.46,2.83.07,4.27-1.5,3.57-4.62,4-8,4.73-4.6,1-9.44,2.47-9.82,8.61-3.21,4.38-6.41,8.78-9.65,13.15-1.48,2-2.62,5.06-5.67,4.42C192.92,346.15,191.73,355.28,188.47,362.14Z"/><path class="cls-107" d="M133.08,348.38l19.85,7.51c6.1,4.1,2.44,8.74-.07,12.31-5.65,8-14.55,13-23.69,11.67-8-1.2-11.64,1.76-15.41,7-3.65,5.06-8.2,7.7-14.21,4.54-5-2.65-8.45-.79-13,1.8s-9.68,9.51-16,2.17l11.19-8.82c1.14-1.35,3.39-.83,4.3-2.56L100,372.49l-.91-1.56-26.19,11.4c-10.27,1.4-18.94,7.15-28.43,10.64-7.16,2.63-11.84,1.43-13.91-6.33l2.26-2.39c3.89,2.12,6.26-.28,7.67-3.23.81-1.68.9-3.32,3.18-3.61,13.06-1.68,21.47-15.4,36.24-13.54,5,.63,6.84-5.95,9.86-9.4,4.26-4.88,6-11.85,12.55-14.87A55.21,55.21,0,0,1,133.08,348.38Z"/><path class="cls-108" d="M62.27,222c-1.19-2.7-.3-4.07,2.63-4.37,16.75-1.69,33.33-5.37,50.3-4.65C98.09,219,80.11,220.08,62.27,222Z"/><path class="cls-109" d="M133.08,348.38,102.3,339.6c12.9-3.56,23.85,3.41,35.51,6.58Z"/><path class="cls-110" d="M230.88,562.51c3.2-1.78,4.9-1.33,3.64,2.69-1.8,5.78-3.81,11.49-5.72,17.23-.67-2.11.22-4.73-2-6.34Z"/><path class="cls-111" d="M722,784.65l-17.1-38.3c-9.44-15.84-.79-24.72,11.45-33.93s22.12-21.34,29.6-35.18a305.45,305.45,0,0,1-47.16,43.41c-16,11.92-31.85,23.8-50.75,31-8.06,3.08-11.7,4.17-13-7.17-3.84-32.95-15-63.83-30.95-92.92-2.13-3.87-2.3-3.78-7.07-4.88-2.52.36-4.07-.83-5-3.1a4.36,4.36,0,0,1,1.45-4.31c1.68-1.29,6,1.71,5.16-4.21-.57-3.88,3.5-7,7.29-9,2.46-.66,4.15.47,5.53,2.35,32.1,14.82,66.14,17.19,100.72,15.09,37.33-2.25,72.72-12.45,106.16-28.79,10-4.87,14-2.79,16.28,7.05.9,3.93,2,7.82,3.07,11.73.18,10.65-9.15,15-14.57,21.89-4.55,4.27-8.69,8.92-14.32,12-5.09,2.83-7.65,8.25-9,13.53-2.93,11.68-8.93,21.72-15,31.87-5.68,9.5-8.34,19.67-4.78,30.71a41.24,41.24,0,0,1-2.21,22.68,29.84,29.84,0,0,0-2.41,10.58c-.2,12.28-9.26,21.15-21.58,21.62-11.45.44-21.63-2.59-29.52-11.43C723.55,786.27,722.78,785.46,722,784.65Z"/><path class="cls-112" d="M568.76,858.19c-1.92-5.52-5.49-5.16-9.42-2.44-3.39,2.35-5.4,5.81-7.45,9.4-2.38,4.17-1.84,12.07-8.07,11.66-8.07-.54-17.45.91-23.69-6.59-14.86-17.86-28.21-36.68-36.32-58.71,3.15-3,6.45-1.45,9.07.4,9.57,6.81,20,12.62,26.73,22.86a49.75,49.75,0,0,0,6,7.89c10,10.15,17,9.93,25.09-2C569.94,812.42,581,781,585.43,747.17c3.93-10.24,2.07-22,8.06-31.66,1.37-15.18.91-30.42,1.2-45.65.11-6.07-.71-12.65,5.42-16.87,17.59,32.88,28.18,67.94,32.71,104.9,2.43,19.75,4.78,39.51,7.21,59.26,2,16.51.18,32.14-10.53,45.53-23.65-23.67-30.92-21.84-45.41,12.64-5.7-5.59-6.14-15.75-15.5-17.29Z"/><path class="cls-113" d="M435,648.75l2.16-4.19c-.92,33.08,9,64.57,14.72,96.63,3.65,20.29,11.23,39.64,21.14,57.86,4.15,7.62,3.66,11.56-6.29,9.73l-26.94-8.52a280.73,280.73,0,0,1-73.89-42.07c-2.51-2-4.62-5-8.43-4.84l-1.5-.47c-5.94-7.73-14.85-12.87-19.25-22a8.4,8.4,0,0,1,4.43-6.09c13.91-6.33,25.5-16.32,38.45-24.1C401.86,687.31,418.82,668.52,435,648.75Z"/><path class="cls-55" d="M586.4,748.91c1.65,18.17-5.19,34.65-11.46,50.86-5.42,14-11.14,28-20.2,40.48-12.76,17.56-23.15,17.94-35.13-1-7.45-11.75-19.08-18.09-29.54-26-1.6-1.21-4.15-1.18-6.26-1.73-8-17.56-17.92-34.35-21.78-53.6,4.43-7.79,5.13-18.75,18.31-18.68,4.17,0,3.94-5.5,3.93-9.21,0-10.65-.26-21.31,0-31.95.14-5.12,15.41-20.53,20.21-21.3,5.25-.85,3.25,3.31,4.28,5.63,2.24,5-5.16,11.13,1.87,15.45,4.86,12.93,9.08,26.17,18.51,36.83,1.7,1.92,3.26,4,5,5.82,16.1,16.77,21.91,18.06,43.76,9.71C580.7,749.17,583.32,747.59,586.4,748.91Z"/><path class="cls-114" d="M600.11,653c-2.4,6.68-2.52,13.61-2.45,20.61.16,15.49.05,31-1.61,46.58l-1-5.11c-5.34-4.83-12.11-8.71-11.78-17.4,3.6-13.9,1-28.41,4.21-42.34,1-4.16.82-8.93,5.83-10.93l3.65,2.32Z"/><path class="cls-58" d="M624.41,882.22c-9.66-5.35-21.43-3.22-31-8.75,1.06-7.25,7.12-6.13,12.11-6.63.28-4.88-2.24-9-1.38-13.46,5.9-5.88,10.11-.32,14,2.65,5.93,4.52,8.7,11.54,12.2,18C634.35,881.51,631.94,883.48,624.41,882.22Z"/><path class="cls-115" d="M634.07,861.74c3.4-4.67,4.47-13.51,9.64-12.3,8,1.89,10.7,11.12,13.84,18.45,1.13,2.63-.29,4.39-3.25,3.42C647.27,869,639.57,868,634.07,861.74Z"/><path class="cls-116" d="M568.76,860.23c3,.62,3.56,3.37,4.92,5.49,3.86,6,9.21,14.6,4.45,19-5.53,5.15-14.27.39-20.52-4.53C564.1,875.11,561.76,865.07,568.76,860.23Z"/><path class="cls-117" d="M604.1,853.38c3.21,1.75,1.82,5.35,3.16,7.83,4,7.36,4.92,12.43-6.19,8.07-4.49-1.76-4.12,4.69-7.7,4.19l0,0c-1.77-2.24-1.31-4.6-.35-7C595.66,861.22,599.07,856.61,604.1,853.38Z"/><path class="cls-118" d="M568.76,860.23c-.73,2.37-2.41,4.9-2,7.06,1.37,7.7-2.39,11.24-9.12,12.94C548.8,870.07,558.7,865.77,564,860c1.65-.93,3.26-1.18,4.8.22Z"/><path class="cls-58" d="M593,866.46c.11,2.32.23,4.65.35,7a3.7,3.7,0,0,1-2-.39C591.93,870.85,590.48,868.17,593,866.46Z"/><path class="cls-55" d="M460,751.26c1.93,1.34,2,3.25,1.67,5.31A5.53,5.53,0,0,1,460,751.26Z"/><path class="cls-116" d="M568.75,860.23,564,860c.92-2.42,3.11-1.46,4.81-1.82l-.17-.16A8.56,8.56,0,0,0,568.75,860.23Z"/><path class="cls-55" d="M593.35,644.4c-4,11.45-4.83,23.29-4.57,35.3.16,7.24-.23,14.41-4.82,20.57-4.88.71-7.25-3.09-10-5.82-12.72-12.49-27.79-21.87-42-32.32-6.94-5.08-12.51-6.35-15.63,3.8-.3,1-1.68,1.3-2.85,1.24q-4.54-9.1-9.1-18.23c-5.3-7.14-3-15.1-2.5-22.87,2.5-7.2,1.86-13.57-3.85-19.35-5.42-5.51-7-12.64-3.5-19.47,9.46-18.27,9.66-38.53,13.35-58,2-10.69,4.93-13.44,15.52-11.24,9.41,2,18.19,6.21,27.62,8.2,14,3,18.79-1.34,17.33-15.34-.92-8.81-2.51-17.51-2.64-26.45-.21-14.38,2.67-27.73,9.53-40.48,8.58-15.94,16.06-32.53,26.58-47.31,5.51-7.75,11.79-15.7,23.55-11.43,4.63,9.44.19,19.89,3.35,29.49.7,7,3,13.83,2.15,21-4.2,8.59.17,15.56,4.31,22.57,1.34,1.58,3.15,2.88,3.2,5.24-.81,3.32-4.4,4.89-6.32,10.6,12.58-5.41,23.37-3.4,33.91,1.56,2.72,1.27,5.82.36,8.63-.77,15.12-6.1,31.05-9.43,46.78-13.4,18.21-4.59,22.65-9.36,24.92-28,.37-3,.73-5.9,3.29-7.94a18.5,18.5,0,0,1,4.16-2.11c4.45-2.48,5.74-6.32,4.87-11.15-.71-4-1.73-7.93.49-11.77,10,6.23,15-1.64,20.73-7.32,3.92-3.85,7.61-8.1,13.83-7.91,5.12,1.06,8-1.77,10.3-5.83,3.91-7.37,1.85-15.12,1.48-22.75-.37-7.46,1.55-13.2,10.17-14.17,6.66,2.7,10.71,8.83,16.59,12.57,6.84,4.35,11.72,2.83,12.38-5.28,1.07-13.21,2-26.6-4.27-39.08-.33-1.14.06-2.54,1.12-2.35,10.43,1.91,20.19,5,24.86,16,13,11.28,25.74,22.82,32.09,42.05,2.54-7.1-1.54-10.22-2.46-16.4,8.48,3.11,14.08,7,15,15.47.57,5.08.16,10.27,2.18,15.14-.36,18.93,0,37.91-3.64,56.63.75,1.59.41,3.62,1.92,4.92l0,0c.83,16.94-5.49,31-17.53,42.56-4.78,4.61-10.5,5.27-16.47,2.51-6.72-3.11-13.68-5.89-19.82-10-16-10.78-33.57-15.63-52.63-14-26.53,2.22-53.14,3.86-79.22,9.85a42.76,42.76,0,0,0-12.37,4.73c-18.85,3.85-37.47,8.3-53.09,20.52-5.72,10.64-17,15.68-24.6,24.39-1.54,1.58-3.92,3-4.08,5.1-1,13.15-11.45,17-21.13,20.89-6,2.4-7.48,5.91-7.58,11.66-.17,10-.4,19.93,7.37,27.79-1.22,9-1.11,18.54-11.37,23.07-3.2,1.42-2.08,4.12-1.93,6.67.46,7.68.52,15.35-3.58,22.33Z"/><path class="cls-119" d="M608.85,588.88c-7.41-6.06-14-31.42-8.06-38.77,4.13-5.11,12.2-7.78,19-9.73,4.75-1.35,7.15-2.53,6.83-7.61-.39-6.29,3-10.27,8.37-12.95,10.08-4.17,15.87-13.87,24.92-19.36,5.07-.85,7,2.59,9.28,6.2a89.09,89.09,0,0,0,17.41,20c5.84,4.93,10.42,4.33,13.7-3.14,4.65-10.61,6.49-21.92,8.28-33.18.71-4.43,1.34-7.07,6.52-8.44,31-8.22,63-7.19,94.45-10.56,24.73-2.64,43.17,10.81,62.31,21.46,13,7.2,24.07,7.86,36.41,1.91,5.88-2.83,8.36-3.41,10.24,4.57,2.16,9.19,1,16.75-4.37,24C905.44,535,898.24,548,886.62,557.39c-9-3.69-6.53-10-3.09-18.33C872,553.24,857.66,556.29,842.4,556c-25.72-.51-46.29,10-63.69,28.12-3.85,4-6.57,7.8-3.54,13.62,2.74,5.27.29,10.41-2.42,14.62-4,6.21-3.54,10.67,2.89,14.37C735.56,640.23,694.72,644,653,636.44c-13.4-2.44-26.7-5.23-39.53-9.93a6.69,6.69,0,0,1-1.91-2.12c-4.69-4.62-8.06-8.22-1.73-15.36C614.45,603.78,617.33,595.19,608.85,588.88Z"/><path class="cls-120" d="M775.64,626.71c-12.32-2.22-12.09-2.52-6.45-13,2.94-5.47,8.66-11.6,1.09-18.54-3.06-2.8-.23-6,2.1-8.59,19.13-21.12,41.66-34.52,71.38-33.39,13.94.52,27-2.58,36.58-14.33,1.54-1.88,3.42-6.18,6.84-3.33s-.16,5.26-2,7.23c-5.3,5.55-1.85,10,1.48,14.64C857.13,592.5,818.64,613.21,775.64,626.71Z"/><path class="cls-121" d="M713.28,477.67c2.45-5.53,7.55-6.35,12.68-7.46,28-6,56.45-9,85.07-10.42,15.79-.79,29.57,4.95,43.14,11.7,5.93,2.94,11.45,6.69,17.35,9.69,15.37,7.84,21.18,5.75,29.68-10,5-9.18,6.41-19.54,10.12-29.13,9.19,4.65,18.11,9.32,29,9.58,8.84.21,15.86,22.93,10.67,32.9-1.65,3.16-2.89,8.14-6.75,8-4.54-.17-3.6-5.51-4.72-8.8-3.89-11.4-6.56-12-15.26-3.54-14.78,14.4-33.45,17.46-51.53,8.59-8.29-4.06-16.54-8.09-24.23-13.31-7.1-4.82-15-7-24-7C787.18,468.21,750,469.9,713.28,477.67Z"/><path class="cls-122" d="M822.31,653.4c4.49-7.11,12.57-11.43,15.39-19.83q1.26,2.13,2.53,4.26c4.69,13.49,9.51,26.95,10.18,42.43L817.9,668.14a4.37,4.37,0,0,1-2.84-1.26C814,660.54,820.16,658,822.31,653.4Z"/><path class="cls-123" d="M680.06,513.12c-3.44-1.58-5.77-4.16-7.81-7.41-4.35-6.93-4-11.59,5-13.33,1.44-.27,2.78-1,4.2-1.37,7.16-1.94,15.73-9.63,21.23-3.6,5.7,6.26.2,15.95-2.52,23.87-2.07-.53-.1-7.65-6.15-2.88C690.7,511,684.91,512,680.06,513.12Z"/><path class="cls-124" d="M917.78,404.4V390.74c12.86,16.68,7.88,34.7,9.49,51.54-4.86,6.72-7.66-.63-11.18-1.88-2.27-.8-2.69-3.29-.72-5.34C924.55,425.49,920.31,414.89,917.78,404.4Z"/><path class="cls-125" d="M923.09,500c-2.69-9.79,1.51-16.64,9.84-22.31,5.73,9.84,6.89,19.5.91,29.49C929.74,505.54,928.14,500.18,923.09,500Z"/><path class="cls-126" d="M680.06,513.12c7.62-8.56,17.05-9.43,20.08-1.84-.39,5.76-2.22,12.13-8,12.72C686,524.64,683.6,517.43,680.06,513.12Z"/><path class="cls-127" d="M923.09,500c7.71-3.77,9,2.08,10.75,7.18-1.28,3-4,7.12-6.43,5.72C923.14,510.39,922.31,505.06,923.09,500Z"/><path class="cls-128" d="M659.93,500.46C653,507.32,646.2,514.23,639.22,521c-1.68,1.63-3.25.82-4.21-1.18,7.83-7.87,16-15.38,25.18-21.63C660.1,499,660,499.7,659.93,500.46Z"/><path class="cls-129" d="M935.38,426.92q1.13,3.16,2.24,6.33c.14,3.28.36,6.56.39,9.85.06,6-3.1,5.67-7.13,3.55l.69-6.75C932.46,435.46,928.23,429.52,935.38,426.92Z"/><path class="cls-130" d="M613,624.73a17.24,17.24,0,0,0,.48,1.78l-2,2-5-1.52c-4.48.19-7.9-2.47-6.14-6.29,1.86-4,5.54-.52,8.28,1C610.18,622.48,611.88,623.15,613,624.73Z"/><path class="cls-121" d="M911.35,442.12c-2.11-1.07-2.43-2.83-1.93-4.92Q910.4,439.66,911.35,442.12Z"/><path class="cls-131" d="M624.64,384.56c-12.37,2.33-19.81,10.44-25.41,21.09-8.25,15.65-17.64,30.74-25.1,46.75-9.16,19.68-5.41,40.57-2.63,61,1.75,12.91-4.9,19.81-17.71,16.65-9.67-2.37-19.08-5.75-28.63-8.61-12-3.59-12.17-2.37-14.49,9.45-3.74,19-3,39-13.3,56.58-4.1,7-2.45,13.9,4,18.69,7.32,5.41,6.09,11.55,2.88,18.29-5.69.06-6.83-4.93-8.95-8.47-9.9-16.48-10-35.13-11.25-53.46-.23-3.34,1.16-6.58,3-9.37,5.51-8.3,9.3-16.78,5.08-26.95-.88-2.11.07-4.4,1.32-6.3,12.06-18.45,13-36.94.29-55.52a7.43,7.43,0,0,1,1.41-6.82c4.37-19.67,1-39.62,2.1-59.41l2.48-2.72c2.24,1.21,3.07,3.31,3.51,5.64a4.11,4.11,0,0,1-.86,2.55c-.12,10,.47,20-.54,29.93-1.21,11.76,2.55,21.41,13.12,25.34,10.39,3.85,20.83.51,29.8-7.06,9.31-7.86,14.87-18.21,20.9-28.31,7.94-13.3,16-26.39,26.8-37.77,7-7.33,8.2-17.18,4.52-26.73a85.74,85.74,0,0,0-14.61-24.65c-3.69-4.36-6.85-9.43,2.88-10.07,4.31-.29,5.77-2.28,5.74-6.31-.07-12.37,4.45-20.53,18.38-21.19,3-.14,7.79-.61,8.4-5.68,1.42-1.58,3-1.42,4.56-.33l4.2.61a5.17,5.17,0,0,1,1.46,2.89c-.88,6.69-6.6,7.13-11.36,8.65-20.27,6.46-24,17.79-12.76,35.82,6.24,10,15.87,16,24.09,23.75,1,7.08-.53,13.89-2.17,20.69C625.44,383.68,625,384.12,624.64,384.56Z"/><path class="cls-132" d="M626.62,362.09c-17.1-6.93-30.6-25.11-31.33-40.17-.56-11.44,5.32-16.41,14.87-20.16,5.67-2.22,14.06.15,16.47-8.5,2.53-2.53,6.14-.1,8.82-1.94l3.73-.68c4.35-.7,10.23-2.92,6,5.53-2.43,4.85,0,8.42,2.56,12.15,7.44,11,18.71,15.33,31.07,16.77a88.63,88.63,0,0,1,26.41,7.11,32.7,32.7,0,0,0,28.88-.68c10.32-5.25,11.48-13,3.75-21.95a3.51,3.51,0,0,1-.46-3.24,8,8,0,0,1,2.78-2c6.31-1.53,13.48-5.44,18.12,1.95,4.44,7.1,3.22,15.18-1,22.16-7.11,11.72-18.44,16.5-31.57,17.61-1.78,1.9.07,2.87,1.1,4,5.45,4.49,13,6.77,15.31,14.5.75,3.75,1,7.57,1.65,11.34a7.36,7.36,0,0,1-.7,3.33c-4.11,4.62-8.78,2.86-13.14.78a63.64,63.64,0,0,1-21-15.95c-10.85-12.61-20.64-15.52-36.34-9.91-7.41,2.65-14.71,4.76-22.61,4.21-5.52-.44-10.53,1.49-15.51,3.5C631.89,362.55,629.29,363.61,626.62,362.09Z"/><path class="cls-133" d="M720,344.28c5-3.81,11.21-.27,16.55-2.76,6-2.81,11.66-5.9,16.17-11,6-6.8,7.14-15.12,3.94-22.54-3.59-8.34-11-.28-16.65-1.51,1.52-7.18,6.83-9.77,13.29-11C770.44,304.41,785,317,800.1,328.7c3.4,2.63,6.11,6.46,10.94,6.85l-.09-.07a11.91,11.91,0,0,0,4.59,7c-5.7,4-8.49,8.13-7.26,16.29,1.12,7.43,4.74,16.81-3.74,23.33a6.33,6.33,0,0,1-2.28-4c-.49-2.95-.53-6-1.5-8.86-.42-1.4-.73-2.84-1-4.28a17.9,17.9,0,0,0-2.15-5.4c-5.74-14.65-11.16-17.72-25.3-14.3-8.44,2-9.5,5.28-3.5,11.59,6.82,7.19,14.11,13.93,20.9,21.14,2.16,2.3,5.13,4.48,3.73,8.46C785,389,780.66,396.58,774.65,402c-8.94,8.13-9.88,8.1-14.56-2.15-2.17-1.68-2.15-4-2-6.43a26.81,26.81,0,0,1,.44-2.66,7.22,7.22,0,0,0-1.28-5c-7.61-14.09-15.22-28.14-30.73-35.34C724.1,348.62,721.63,346.9,720,344.28Z"/><path class="cls-134" d="M668.68,237.46c2.06.86,4.38,2.1,6.27.43,7.34-6.48,16.82-4.52,25.25-6.64,1.65-.42,4.43-.46,5.25.53,7.33,8.73,16.22,2.63,21.91-.1,8.08-3.9,15.81-5.23,24.24-5.51a2.67,2.67,0,0,1,1.76.45c.82,8.41,5.24,15.08,10,21.73,1.91,2.65,1.77,6.4.84,9.6-1.8,6.21-2.56,11.29,3.38,16.64,4.08,3.67-.23,4.09-3.42,3.17l-8.62-.54c-7.42-2.21-15.2.69-22.61-1.64L695.52,277c-7.3-6.49-2-12.67.45-18.92,1.39-3.52,6.57-6.44,3.29-10.65-2.73-3.5-6.82.11-10.3.1-10.79,0-17.45,8.53-26.39,12.3-3.2,1.35-6.13,5.09-9.2,0C656.83,251.23,663.67,245,668.68,237.46Z"/><path class="cls-135" d="M737.8,308.7c9.27,2.21,11.78,9.94,6.11,18.79s-24.33,14.82-36.19,8.91c-12.23-6.1-25-7.6-37.88-10-11.13-2.13-19.36-8.43-25.49-17.73-3.22-4.88-7.76-9.73-.75-15.16.84-.66,1.57-1.75-.05-2.26a24.19,24.19,0,0,0-4.37-.56,112.17,112.17,0,0,1,27.49-4.13c1.36.63,3,1.32,3.33,2.75,3.91,14.73,15.81,15.59,27.92,16.39,11.42.75,22.62-4.26,34.12-1.22C734.55,305.06,736.11,307,737.8,308.7Z"/><path class="cls-136" d="M733.37,306.5c-13.21.73-26.41,2.13-39.61,2-17.16-.14-21-3.81-27.09-22,22.59-6.84,45.81-6.46,69.06-6.29,5.51,0,4.4,5.14,7.26,7.08,3.63,2.45,6.89,5.44,10.32,8.2l-13.29,11-2.22,0C736.33,307.88,734.85,307.72,733.37,306.5Z"/><path class="cls-137" d="M653.37,259.81c8.88-.56,15.42-6.38,21.83-11.21,7.55-5.7,16.19-4.9,23.94-5.15,6.59-.22,6.6,6.39,2.37,11.47-5.36,6.43-9.14,13.33-6,22.09l-60.67,8.43C641.63,276.07,647.5,267.94,653.37,259.81Z"/><path class="cls-138" d="M609.21,286.31a29.71,29.71,0,0,1-15.79,8.8c-8.17,1.8-11.06,8-11.21,15.57-.12,6.4-2.43,7.43-8.23,5.32-9.8-3.55-18.94-7.8-26-15.78-3.48-3.92-7.34-7.15-5-13.35,2.25-5.82,6.3-7.65,12.08-7.1a5.14,5.14,0,0,0,4.8-2.13A137.13,137.13,0,0,1,609.21,286.31Z"/><path class="cls-62" d="M764.18,277.76c.73-.71,3.78-1.33,2.1-1.85-9.4-2.91-8.26-8.86-5.35-15.55a14.59,14.59,0,0,0-2-15.62c-8.09-10.36-8.23-10.26-5.53-18.12l10.71.21c4.53,1.21,9,3.4,13.58,3.44,11.06.08,12.81,5.34,10.15,14.72-1.57,5.55-2,11.4-3,17.12C781.59,276.58,777.35,279.81,764.18,277.76Z"/><path class="cls-139" d="M866.22,324.31c-7.67-6.43-15.2-13.13-26-13.62,1.1-8.58-7.56-8.71-11.32-13.08a99.64,99.64,0,0,1,27.18-25.07c13.31,18.38,20.55,39.57,29.26,61.63C877.26,331.89,874.61,322.38,866.22,324.31Z"/><path class="cls-140" d="M815.56,297.71c22.5,10.44,30,24,26.27,48.34-.41,2.69-.52,7.3-3.26,7.43-5.56.24-8.71-4.62-12-8.58-2.73-8.21-7.57-14.35-14.55-19.94C800.28,315.52,802.48,302.69,815.56,297.71Z"/><path class="cls-141" d="M808.94,270.66c8.64-1.72,17.27-3.48,25.92-5.17,6.58-1.29,13.06-1.85,18.48,3.35-8.3,11.2-17.09,21.77-31.78,24.78l-38.32-14.74C791.79,274.64,800.42,272.83,808.94,270.66Z"/><path class="cls-142" d="M815.56,297.71c-11.69,10-11.84,21,1.42,27.79,9.21,4.74,10.71,10.81,9.64,19.39-6.49-1-8.46-9.58-15.67-9.41l.09.07c-9.22-13.45-23.95-20.56-35.7-31.1,3.22-9.1,10.78-11.27,19.22-11.9,4-.31,8,.88,12.08.71C810.27,293.43,813.07,295.25,815.56,297.71Z"/><path class="cls-143" d="M806.64,293.26c-1.8,2.37-4.48,2.45-6.92,2-10-1.68-17.39,3.07-24.38,9.15L744.7,284.3c20.53-2.45,39.62-1.37,57.63,6.88,1.22,1.12,3.21.64,4.29,2.06Z"/><path class="cls-144" d="M660.22,233.81c2.25-4.5,3.86-10,10.91-7.35-15.91,19.63-25.91,44-44.66,61.31L622.88,285c9.25-11.79,18.57-23.51,27.71-35.39C654.35,244.69,659.53,240.6,660.22,233.81Z"/><path class="cls-145" d="M821.56,293.62c12.2-6.21,20.59-17.29,31.78-24.78l2.76,3.7a113,113,0,0,1-27.18,25.07A12.9,12.9,0,0,1,821.56,293.62Z"/><path class="cls-62" d="M733,275.58c7.56.25,15.31-2.22,22.61,1.64C748,276.93,740.33,278.26,733,275.58Z"/><path class="cls-55" d="M635.45,291.32c-2.45,2.86-5.81,1.62-8.82,1.94q-.07-.92-.06-1.83Z"/><path class="cls-138" d="M622.37,290.82l-4.56.33-2.3-2.06C618,288.88,620.41,289,622.37,290.82Z"/><path class="cls-142" d="M806.62,293.24l-4.3-2.06A4.37,4.37,0,0,1,806.62,293.24Z"/><path class="cls-146" d="M822.31,653.4c-.27,5.22-5.25,8.13-6.36,12.94-.88,2.19-3.33,1-4.68,2.22-2.29,2-4.39,4.05-5,7.17-.78,1.46-.54,3.27-1.56,4.65-.2,2.16-.39,4.32-.59,6.48-1.6,2.8.35,6.26-1.69,9l-.66,13.27c-.72,2.21-1,4.39.3,6.5l13.34,20.19c4.28,21.67,9.41,42.94,22.67,61.4,4.11,5.71,8.32,11.23,13.45,16,4.66,4.31,6.95,9.31,6.1,15.65a15.34,15.34,0,0,1-3.78,9,13.08,13.08,0,0,1-2.86-1.58c-14.93-14.32-15.14-14.47-26.83,3.44-3.31,5.07-4.91,5.77-9.51,1.22-13-12.87-15.37-12.68-26.51,1.77-3.38,4.38-6.13,5.23-11.81,4.69-15.2-1.45-25.14-8.51-31.62-22.24-6.14-13-13.5-25.39-20.33-38.06,9.6,3.75,18.36,9.71,29.57,8.79s19.49-9.12,18.21-20.25c-.44-3.78.92-6.28,3.17-8.77,4.26,1.63.73,13.73,11.3,7.53,12.73-7.47,15.73-11.53,10.36-20.87-3.57-6.21-6.59-13.25-14.08-16.12a6.18,6.18,0,0,0-3.39,3.29,4.42,4.42,0,0,1-1.77,1.66c-5.46-12-.4-22.34,5.37-32.25,5.38-9.23,11-18,13.48-28.81C799.71,667.52,813.08,662.14,822.31,653.4Z"/><path class="cls-147" d="M857.58,828.82c-5.67-16-21.35-24.83-28.22-40.16-7.58-16.95-16.22-33.41-14-52.86,5.71,7.19,11.74,14.14,17,21.63,6.15,8.71,12.63,10.15,20.54,2.55,2.37-2.28,4.79-4.51,7.18-6.77,4.83,9.87,4.34,20.68,3.69,30.95C862.87,799.12,863.43,814.48,857.58,828.82Z"/><path class="cls-148" d="M863,857.24c-13.67,2.12-24.16-4.4-35.41-7.26-1.33-.34-3.1-1.31-2.56-3.06,1.88-6,4.32-12.13,9.51-15.78,5.87-4.14,8.22,2.4,11.37,5.37C852.21,842.52,858.16,848.92,863,857.24Z"/><path class="cls-149" d="M813.84,858.41c-5.72-1.64-11.47-3-17-5-2.85-1-7.65-1.7-7.16-5.52a12.86,12.86,0,0,1,7-9.44c3.19-1.58,6.73-3,10,.5,3.5,3.76,7.4,7.15,10.87,10.93,1.67,1.83,3.95,4.28,2.25,6.74C818.91,857.93,816,857.84,813.84,858.41Z"/><path class="cls-53" d="M223.88,802.39c7.61,3.37,10.58,11.19,15.62,16.91,7.58,8.63,14.17,8.12,22.76,1.8,14.82-10.9,26.45-24.53,36.64-39.61,11.56-17.1,22.69-34.44,32.14-52.81,10.15,6.88,17.34,16.92,26.5,24.85l-.09-.18c4.69,6.12,9.57,12.6,16.38,15.87,8.91,4.29,9.94,9.74,6,17.65-6.66,3.94-10.26,10.32-13.26,17.06-6.44,14.51-12.69,29.1-19.07,43.64-4.3,9.79-10.56,10.59-17,2.26-4.19-5.41-4.19-5.41-9.06-5.43a1.92,1.92,0,0,1-2.38.54c-1.21-1.28-3-2.43-1.09-4.46-2.32-5.51-3.2-5.74-7.73-2-5.37,4.46-7.34,11-9.67,17.09-1.51,3.93-3.8,4.73-7.09,5.43-4.6,1-5.57-2.41-6.91-5.43-.3-.67-.39-1.44-.74-2.07-2.65-4.69-3.33-12.14-9.21-12.83-6.92-.82-8.91,6.61-11.55,11.65-1.75,3.34-3.92,5.61-7.62,5.08-11-1.58-23.14.18-31.2-10.3C224.64,832.25,223.11,817.38,223.88,802.39Z"/><path class="cls-150" d="M318,840.48c.65,1.17,1.31,2.34,2,3.51.16,7.08,5.73,13.72,1.74,21.14a9.41,9.41,0,0,1-2.16.18c-5.92-1-15.56-.53-15.31-6.77C304.47,851.57,308,842.35,318,840.48Z"/><path class="cls-151" d="M321.66,865.13c.22-7.11-7-13.61-1.74-21.13a2.45,2.45,0,0,0,1.51.41c2.95,4.12,6.56,7.81,8.16,12.82.88,2.76,3,5.87.87,8.29C327.93,868.42,324.54,867,321.66,865.13Z"/><path class="cls-152" d="M275,865.08c-4.43-1.63-7.79-4-7-9.51,1.83-2.68,3.56-5.43,5.51-8,3.31-4.39,4.44-1,5.69,1.71C278.67,854.78,282.57,861.47,275,865.08Z"/><path class="cls-153" d="M348,855.44l6.42-14.52c3.92,4.32,9,9.13,7.12,13.77C359.46,859.76,353.51,854.67,348,855.44Z"/><path class="cls-154" d="M275,865.08c4-4.59.7-11.11,4.23-15.81,3.42,6.28,6.37,12.62,2.73,19.87C278.59,869.5,276.49,867.78,275,865.08Z"/><path class="cls-155" d="M726.9,66.08c-2.71,3.67-6.68,2.37-10.19,2.41a193,193,0,0,0-27.34,2c-5.86.91-7.3,3.2-7.2,8.45.21,11.33.07,22.66.07,36-3.56-6.37-1.09-11.33-2.62-15.79q0-8.31,0-16.62c0-17.06,0-17.41,17.64-18.68C707.16,63.18,717.53,58.73,726.9,66.08Z"/><path class="cls-156" d="M642.49,99.31c-11.7,9-20.2,21.65-33.31,29,.08-7.5,8.08-9.54,10.58-15.37,5.33-5.51,10.68-11,16-16.52C640.55,91.47,641.54,95.32,642.49,99.31Z"/><path class="cls-66" d="M675.54,144.27c-1.55,2.22-3,2.14-4.44-.14Z"/><path class="cls-157" d="M860,737.18c-.37,2.1,3,6.55-.12,11.44-8.59,13.58-18,14.79-27.67,2.36-8.57-11.05-16.47-22.65-24.42-34.17-5-7.18-1.1-15.16-.63-22.52,1.55-24.26,4.06-25,26.94-16.48,13.87,5.18,21.87,12.88,22.13,28.56C856.35,715.8,860.91,724.92,860,737.18Z"/><path class="cls-111" d="M802.38,695.84c.1-3.08-1-6.4,1.69-9C804.2,690,804.87,693.21,802.38,695.84Z"/><path class="cls-111" d="M802,715.61c-2.47-2.06-2.55-4.22-.3-6.5Z"/><path class="cls-111" d="M811.27,668.56l4.68-2.21,1.95,1.79Z"/><path class="cls-111" d="M804.66,680.38c-.2-1.79,0-3.45,1.56-4.65Z"/><path class="cls-52" d="M219.47,279.88c-5.2,15.43-12.79,22.77-29.76,20.66-10.66-1.33-24-5.13-27.82-19.27a6.61,6.61,0,0,0-1-1.6l-1.44,2.61c-4.52-5.6-3.32-12.49-4.49-18.89-1.85-10.06-3.12-20.22-6.26-30.08-2.16-6.78-.68-12.35,8.86-11.26,5.05.58,10.23-.05,15.36-.13,21-.4,28,15.29,35.38,30.7C212.54,261.51,216.86,270.34,219.47,279.88Z"/><path class="cls-64" d="M242.34,306.6c2.27,4.63,3.82,9.19-1.36,13C243.07,315.47,241.68,310.93,242.34,306.6Z"/><path class="cls-64" d="M237.41,317.61c0-1.42,0-2.85-.07-4.27.67,1.43,1.35,2.86,2,4.3Z"/><path class="cls-158" d="M70.57,395.37c6.84,1.49,12.26-1.53,16.5-6.23,3.63-4,6.38-5.14,11-1.36,5.73,4.7,9.89,3.18,14.29-3.27,3.38-5,6.12-12.54,16.89-6.7,9.2,5,24.13-10.24,23.69-21.92l19.93,6.47c-.51,5,1.26,9.42,3.69,13.65,3.19,5.51,1.58,8.38-4.81,8.26-2.94,0-6.48.57-8.68-.82-10.51-6.59-18.13-.39-23.14,6.79-6.13,8.78-13.66,9.58-22.88,9.8-20,.47-31.57,14-41.92,28.89-11-2.41-14.77-13.86-23.61-19.14-1.82-1.08,1.68-3.36,3.34-4.46C60,401.92,65.32,398.68,70.57,395.37Z"/><path class="cls-158" d="M103.62,413c.11-5.16,3.29-5.17,7-4.22Z"/><path class="cls-158" d="M93,418.86c1.12-3.17,1.77-7.24,6.54-3.43Z"/><path class="cls-158" d="M86.06,384c-.74,2-2.34,2.59-4.3,2.56Z"/><path class="cls-159" d="M806.76,101.87c-13.36,9.47-26.27,20-44.29,18.13Z"/><path class="cls-160" d="M383.85,205.85c.28-4.53-.64-9.27,2.24-13.37,4.59,6,10,4.89,15.7,1.87a154.88,154.88,0,0,0,57.88-51.92c19.5-29.25,29.29-61,28.52-96.07-.11-5.13.14-10.49,5.15-13.89a12,12,0,0,1,1.53,1.31c.14,6.82,3.89,12.6,5.48,19-9.54,6.78-6.75,17.37-6.87,26.22-.46,34.91-18.68,61.52-37.69,88.58-15.71,22.35-39.7,32.14-61.29,45.82a15.23,15.23,0,0,1-4.08,1.69c-1.71.47-3.51.65-5.78,1.05C384.35,212.39,384.1,209.12,383.85,205.85Z"/><path class="cls-52" d="M160.17,286.6c2.12,1.89,1.61,4.38,1.53,6.77C159.53,291.48,160.08,289,160.17,286.6Z"/><path class="cls-161" d="M222.41,600.28c2.78,6.87.46,12.1-.34,17.42-.55,3.71-2.91,5.11-6.22,4.14-4.2-1.23-1.83-4.22-.81-6.13C217.51,611.05,217.47,605.21,222.41,600.28Z"/><path class="cls-162" d="M822,170.66c-7.5-2.35-14.92,1.31-22.46.27-3.92-.54-8.17.44-10.4-4.12,11-1.8,22.05-3.63,33.3-2.71Z"/><path class="cls-162" d="M781.77,168.24a7.25,7.25,0,0,1,2,.71c.95.69,1.23,1.8-.31,1.76-3.35-.07-7,1.33-9.85-1.82Z"/><path class="cls-163" d="M935.38,426.92c-4.06,3.51-.57,9.23-3.81,13l-.93,0c-.57-6.6-.94-13.2.21-19.78C936.11,419.87,933.18,425.09,935.38,426.92Z"/><path class="cls-164" d="M930.85,420.07c1.37,6.61.33,13.19-.21,19.78C928.43,433.23,928.08,426.63,930.85,420.07Z"/><path class="cls-56" d="M493.34,32.47c-5.14,14.59-1.06,30-4.31,45-4.24,19.53-9,38.38-20.55,55.24-6.86,10-12.7,20.52-20.75,29.87-14,16.31-31.16,27.83-50.27,36.94-7.27,3.47-12.08,2.65-11.36-7-.92-9.85,3.77-18.82,4.47-28.41-1.75-11.12,4.47-20.61,6.63-30.92,1.29-6.19.76-13.28,5.83-18.37,8.26.46,7.93-6.25,8.93-11.29,3.88-19.48,2.73-38.87-1.63-58.16-.89-3.94-2.33-8-1.61-12,1.19-6.59,2.5-13.64,12.13-11.81l5.54,7.08c3.33,8.16,7.42,8.13,13.36,2,2.53-2.6,5.93-8.89,10.9-2.07.83,6.8,3.11,5.82,7.27,1.93,2.84-2.65,4.9-9.54,11.07-4.25a42.65,42.65,0,0,1,.61,5.37c-.09,7.9,2.86,9.05,9.76,5.48C483.62,34.9,487.28,29.6,493.34,32.47Z"/><path class="cls-165" d="M420.85,21.52c-7.72,2.63-11.57,8.25-9.39,16a155.49,155.49,0,0,1,4,67.18c-.84,5.33-2.42,9.56-6.84,13.08-6.48,5.16-3.62-1.7-4.79-3.35a5.88,5.88,0,0,1-.85-4.47c.49-3.11,1.38-6.16,1.28-9.36,0-2.81,0-5.61,0-8.42.6-4,.26-8.22,2.6-11.83,2.69-6.41.54-13.18,1.49-19.72-1.82-6.08.21-12.44-1.32-18.55-.34-.8-.69-1.6-1-2.41l.12-3.89c-1.2-2.22-.21-4.88-1.45-7.09-.21-.71-.42-1.42-.64-2.14-1.93-2.74,0-6.14-1.53-9-.8-2.73-2.76-6.4-.19-8,2.87-1.82,5.61,1.93,8.48,3Z"/><path class="cls-56" d="M407,42.06c3.14,6,1.19,12.34,1.32,18.55C406.37,54.54,407,48.28,407,42.06Z"/><path class="cls-166" d="M406.85,80.33c.94,4.25.15,8.42-.68,12.58-5.23-1-2.53-4.36-2.19-7,.12-2.8.25-5.6.37-8.4Z"/><path class="cls-166" d="M404.48,72.92q.06-3.24.13-6.5C406.84,68.63,406.81,70.8,404.48,72.92Z"/><path class="cls-56" d="M402.49,17.58c2.57,2.63,1.45,5.9,1.54,9l-2.12-.13C402.1,23.46,402.3,20.52,402.49,17.58Z"/><path class="cls-167" d="M346.77,68.33c-7.14-6.61-5.06-15.34-5.4-23.51,5.45,3.54,8.19,8.87,9.81,14.93C349.59,62.54,345.09,63.85,346.77,68.33Z"/><path class="cls-56" d="M404.66,28.67c2.25,2,1.7,4.58,1.45,7.09Q405.39,32.22,404.66,28.67Z"/><path class="cls-168" d="M495.6,464.39c9.77,11.63,13.32,23.53,8,39.25-2.15,6.37-2.73,12.67-8.06,17.42-2.34,2.09-1.92,4.32-.16,6.83,3.87,5.51,3.33,11.69-.23,16.63-7.59,10.53-8.08,21.33-7.06,34.13,1.38,17.23,6.43,32.08,16.18,45.83q0,12.22,0,24.46c-4.25,13-12.6,23.67-20,34.85a25.85,25.85,0,0,0-4.39,13.46c-.19,4.81,0,9.63-.08,14.45-.08,3.58,1,8.53-3.56,9.43-5.42,1.07-6-4.56-7.25-8.1a121.16,121.16,0,0,1-4.86-17c-4.43-21.76-17.56-41.23-15.86-64.79.53-7.36,7.16-16.36.39-22.09-5.76-4.87-14.65.23-22.2.17-5.61,0-7.21-1.1-6.71-6.35.24-2.52.46-5.25-1.74-7.28-.27-1.55-.55-3.11-.82-4.67a13.77,13.77,0,0,1-.14-8.7c.32-1.47.64-2.93.95-4.39,6.82-5,13.33-10.41,20.53-14.74,6.65-4,6.93-8.83,4.09-14.92-3.68-7.88-7.38-15.73-7.39-25.71,5.45,5.79,11.18,11.35,16.24,17.46,3,3.64,4.39,4.64,8.23.51C470,529.43,477.16,516,487,504.61c3.4-3.95.68-6.87-2.16-9.4-7.36-6.56-14.85-13-21-20.95,6.79-1.94,9.94,2.43,14.07,4.56,4.58,2.35,9.23,5.93,13.11-1C492.55,473.36,489.93,467.47,495.6,464.39Z"/><path class="cls-169" d="M435,648.75c0,2.88,1.22,6.28-1.33,8.37-16.13,13.27-27.81,31.67-46.2,42.07-15.58,8.81-28.38,22.09-45.73,28-1.52.52-2.52,2.55-3.77,3.88-3.39-.69-5.3-2.68-5.43-6.22,9.93-12.23,24.2-18.46,37.21-26.24C389.12,687,407.3,674.19,421,655.85,424.47,651.11,428.78,648.11,435,648.75Z"/><path class="cls-170" d="M513.4,667.17c5.42-15.39,5.68-15.82,19.57-7.32,18.59,11.37,35.23,25.38,51,40.42,3.32,5.23,10,7.9,11.13,14.81-4.17,10.95-2.47,23.4-8.69,33.83-6.33,2.93-12.41,6.76-19,8.6-11.58,3.21-22-.7-29.9-9.29-13.22-14.38-26.52-29-26.78-50.37l.66-12.25c1.7-4.66-.17-9.68,1.47-14.35Z"/><path class="cls-171" d="M317.7,615.65l6.42-7c5.51,3.1,15.92,24.21,14.17,28.72-1.65,4.24-21.63,14.22-27,13.77-4.68-.4-3.83-3.11-3.37-6.23C309.49,634.56,314.06,625.27,317.7,615.65Z"/><path class="cls-172" d="M332.52,724.82,338,731c6.47,7.56,15.66,12.73,19.59,22.49-11.76-5.17-18.21-16-26.5-24.85l-2.32-2.21c0-1.71-2.93-3-1.17-4.57C328,721.51,330.8,723.78,332.52,724.82Z"/><path class="cls-55" d="M512.8,671.25c-.65,4.77,1.44,9.81-1.47,14.35C511.4,680.78,509.31,675.73,512.8,671.25Z"/><path class="cls-173" d="M502.42,403.65a1,1,0,0,0,.11-1.08,54,54,0,0,0-1-21.88c-5.07-22-1-44,.82-65.89.6-7.34,2.05-14.6.35-21.95.13-4,2-4.16,4.7-2q7.16,5.65,14.26,11.36c12.89,14.61,28.52,26.72,39.23,43.42,2.34,3.65,2.69,5.28-.56,7.86-19.64,15.57-37.4,33.22-55.77,50.19C504.2,404,503.16,403.68,502.42,403.65Z"/><path class="cls-105" d="M261.91,382.06c-11.5-2.63-6.11-12.73-8.51-19.38,4.74,5.64,5.84,12.88,8.45,19.46Z"/><path class="cls-174" d="M495.6,464.39c-2.74,4.07-1,9.66-4.56,13.45-1.46-8.43-.53-16.71,1.67-24.9l2.48,4.65C495.33,459.86,495.46,462.13,495.6,464.39Z"/><path class="cls-57" d="M293.22,437.88l-4.68,6.54.08-.12a3.58,3.58,0,0,1-4.2.6C284.47,438.94,288.85,438.42,293.22,437.88Z"/><path class="cls-104" d="M284.42,444.9l4.2-.6C287.54,446.73,286.11,446.72,284.42,444.9Z"/><path class="cls-64" d="M301.93,278.08c0-3.84.3-7.73,5-6.8,6.65,1.33,2.76,8.08,5.12,11.88,1.2,1.94-.42,4.55-3.25,4C303.76,286.25,301.44,282.89,301.93,278.08Z"/><path class="cls-175" d="M404,85.87c.68,2.36-.27,5.23,2.19,7,0,2.68,0,5.35,0,8-1.51,3.12-.2,6.69-1.54,9.83-.28,1.22-.56,2.43-.83,3.65q-6.62,24.83-13.22,49.65c-2.51-1.77-1.62-4.6-2.17-7q2.07-8.75,4.15-17.49l.93-6.44c5.33-11.21,5.79-23.55,8.13-35.45C402.39,93.76,401.9,89.56,404,85.87Z"/><path class="cls-176" d="M502.73,292.85c4.51,1.11,5,3.62,4.53,8.21-3.18,29-8.18,57.93-1.33,87.12,1.16,4.93,1.26,10.44-3.4,14.39l-2.76-7.12q-2.26-22.27-4.54-44.58c.44-15.59-.64-31.24,2.28-46.74C498.32,299.82,498.3,295.38,502.73,292.85Z"/><path class="cls-81" d="M417.05,582.32c.05,2.9.09,5.81.14,8.71C414.9,588.16,414.77,585.26,417.05,582.32Z"/><path class="cls-177" d="M613,624.73c-4.39.31-7.42-3.49-11.73-4.52.41,3.87,3.29,4.92,5.22,6.76-1.64,4-6.38,5.87-6.61,10.89-.24,5.5-4.41,1.26-6.54,2.23-2-9.18,4.8-18.8-1.39-27.86-.47-.68.89-3.72,1.23-3.7,15.15,1.29,10.36-13.26,15.72-19.65,6.41,3,14.82,4.34,5.92,14.62-2.3,2.64-.21,9-6.55,11.16-2.35.79.32,3.51,1.95,4.9S615.9,620.94,613,624.73Z"/><path class="cls-178" d="M779.53,735.75c.19-.32.37-.9.57-.91,13.25-.55,14.38,11.91,20.27,19.16,4.37,5.38,3.72,11-1.92,15.4a133.93,133.93,0,0,1-11.81,8.09c-7.35,4.55-11.79,3.76-10.9-6.27a21.88,21.88,0,0,0-.46-4.38c2-8.05,2.32-16.27,2.42-24.51a1.94,1.94,0,0,0,.39-1.67C778.88,739.12,778.92,737.35,779.53,735.75Z"/><path class="cls-179" d="M519.86,791.3c.79-8.26-.81-19.23,6.68-23.35,6.91-3.82,14.88,3.33,21.49,7.76,22.22,14.9,22.31,16.11,1,31.42-5.33,3.83-10.16,11-18.23,6.63C522.11,809.06,518.39,801.37,519.86,791.3Z"/><path class="cls-180" d="M628.35,438l-2-22.92c-.71-14.46-2.68-29.09,5.9-42.26,8-3.12,16.37-2.43,24.65-2.89,4.17-.23,7,1.31,7.86,5.67.12,13,2.47,25.75,4.82,38.49.58,8.54,4,16.43,5.77,24.7.77,3.6,1.37,7.13-2.15,8.75-11.93,5.49-23.53,12.37-37.46,11.39C630.1,453.1,627.14,446.3,628.35,438Z"/><path class="cls-181" d="M752.08,426.16c-3.18,1.7-3,4.72-3.17,7.7-1.15,18.73-8.19,26.55-26.21,30.52-16.46,3.62-33.11,6.81-48.51,14.05-4.64,2.18-8.69,1.42-12.6-1-8.22-5.17-16.62-5.11-25.49-1.9-2.71,1-6.41,4.44-8.7-.05-1.91-3.75,2-5.93,4.22-8.17a54.36,54.36,0,0,1,6.16-4.62,6,6,0,0,1,4-3.45c21.05-7.27,41.11-17.44,63.18-21.72a44,44,0,0,0,8-1.57,28.77,28.77,0,0,1,3.12-.84c5.61-1.29,11.24-2.51,16.91-3.48s10-3.68,12.61-8.94C749.83,420.09,752.26,420.74,752.08,426.16Z"/><path class="cls-182" d="M752.08,426.16c-1.18-2.57-2.61-4.4-5.5-1.81a2.09,2.09,0,0,1-2.75-.15c-5.62-13.18-7.91-15.82-22.29-25.14-2.26,7.32.15,14.9-2.45,21.63-7.46,10.66-10,11.24-18.85,4.35A69.63,69.63,0,0,1,693,388.48c.55-7.94-10.73-18.27-18.42-17-3.91.66-4.1,4.19-4.41,6.82-.89,7.72-1.32,15.5.56,23.19a27,27,0,0,1,.8,5c.12,3,0,5.88-1.71,8.47a2.16,2.16,0,0,1-3.09.42,170,170,0,0,1-4.27-39.64c-.59-9.54-6.38-13.5-15.9-11.14-5.12,1.26-8.61,5.49-13.57,7-2.76-.34-3.41-2.31-3.64-4.63,0-3.09,2-5.07,3.93-7.12,4.2-3.95,9.57-3.74,14.77-4.17,3.09,1.39,6.46.48,9.65,1.13,36.39,7.55,66.68,25.57,90.75,53.75,3.63,4.25,10.35,8.12,6.93,15.85Z"/><path class="cls-183" d="M755.35,426.44c-11.2-22.76-30.77-36.68-51.68-49.34-14.58-8.82-30.7-13.63-46.6-19.12,7.36-3.23,14.78-2.91,22.34-.67,16.58,4.92,33.17,9.76,47.52,20,3.29,2.35,6.79,4.46,10.87,5.17,3.88.67,5.48-1,4.51-4.86,0-.73,0-1.46,0-2.19-2.1-3.07-.43-5.17,1.84-7.11,10.22,4.21,10.79,15.16,16,22.88q0,4.35,0,8.69c.2,3.27-.39,6.85.76,9.75C763.79,417.05,761.63,422.29,755.35,426.44Z"/><path class="cls-184" d="M802,365c.22,1.26.44,2.51.67,3.76,1.69,2.8-.4,6.35,1.78,9.06l.11,4.24c-1.44,7.17-4.92,9.22-11.12,4.4-9.87-10.48-19.5-21.19-29.69-31.35-5.62-5.6-4-8.57,2.39-11a43.73,43.73,0,0,1,22.9-2.45c10.05,1.69,7.44,12.43,11.86,18.26A23.05,23.05,0,0,0,802,365Z"/><path class="cls-185" d="M666.7,415.45l2.72,0c7.88,4.68,4.13,15.18,10.4,20.63,4,3.65,8.15.82,12.29.24,7.68-1.08,15.14-5.5,23.18-1.67a2,2,0,0,1,.26,2.93l-.67.43-.79-.1c-2.29,1.27-5.08.23-7.34,1.62a557.7,557.7,0,0,0-69,23.1c-1.88-.29-3.64-.79-4.61-2.65-.53-2.44.67-3.17,2.87-2.92,12.75-.74,23.67-7.21,35.34-11.31,3.69-1.3,1.87-3.58,1.16-6.13C670.31,431.66,668.61,423.53,666.7,415.45Z"/><path class="cls-186" d="M630.86,366.4c.52,1.63.26,3.67,2.3,4.53a1.7,1.7,0,0,1,.74,1.52c-.07.59-.17.88-.33.88-6.07,13.29-5.89,27.67-7.24,41.78-5.07-9.94-1.29-20.36-1.69-30.55l-.1-.09C627.64,378.79,623,370.39,630.86,366.4Z"/><path class="cls-187" d="M896.33,388.37c4.92,7.27,5.44,14.21,0,23.23Z"/><path class="cls-188" d="M636,457.09,633.17,460c-5-5.35-5.75-12.47-7.9-19-.89-2.72,1.2-2.87,3.08-3C630.47,444.56,631,451.76,636,457.09Z"/><path class="cls-189" d="M873.48,463.53c-5-3.11-8.21-7.47-10.24-14.66C870.47,452.33,872.62,457.49,873.48,463.53Z"/><path class="cls-190" d="M912.7,465.55c-2.86-4-.22-6.43,2.14-9.42C916.18,460,917,463.2,912.7,465.55Z"/><path class="cls-55" d="M630.86,366.4q-3.17,9-6.32,18.07c-1.27-7.64,1-15,2.08-22.38l6.63-2.21C632.45,362.05,631.66,364.22,630.86,366.4Z"/><path class="cls-135" d="M742.31,377.61c3,3.1,3.53,7.28.65,9.78-2.53,2.19-5.2-1.75-7.49-3.21-18.81-12.05-39.37-19.64-60.92-25.06A51.1,51.1,0,0,0,657.07,358L648,355.71c9,.38,17.28-2,25.71-5,15.89-5.68,27.65-1.6,37.59,11.77C719.76,373.83,733.51,380.54,742.31,377.61Z"/><path class="cls-191" d="M760.08,391.19c-7.78-5.64-8.05-16.54-15.64-22.32-2.66-.64-3.2-3-4.2-5.05-3.51-6.83-11.48-8-16.46-12.93,0-1.94.83-2.89,2.85-2.53,17.68,7.06,26.24,22.18,33.76,38.21a4.09,4.09,0,0,1-.11,4.49Z"/><path class="cls-135" d="M740.24,363.82l4.2,5.05c-.72,2.18-1.45,4.37-2.18,6.55C738.51,372.09,740.5,367.76,740.24,363.82Z"/><path class="cls-135" d="M726.63,348.36c-1.55.16-2.64.85-2.85,2.53a6.8,6.8,0,0,1-3.77-6.61Z"/><path class="cls-133" d="M733.37,306.5h4.43v2.2C736,308.67,734.32,308.29,733.37,306.5Z"/><path class="cls-55" d="M804.43,377.86c-2.27-2.69-1.95-5.89-1.78-9.06C805.49,371.38,804.45,374.72,804.43,377.86Z"/><path class="cls-55" d="M802,365q-.56-2.54-1.1-5.07C802.42,361.41,802.36,363.19,802,365Z"/><path class="cls-55" d="M760.28,391.06c0-1.49.07-3,.11-4.49C762.41,388.12,762.27,389.61,760.28,391.06Z"/><path class="cls-111" d="M779.53,735.75a5,5,0,0,1-1.44,4.91C777.81,738.8,777.94,737.06,779.53,735.75Z"/><path class="cls-56" d="M404.62,110.77c-.16-3.38-.59-6.8,1.54-9.82C406.24,104.31,407.49,107.86,404.62,110.77Z"/><path class="cls-192" d="M485.8,597.08c-10.88,15,1.89,30.16,7.94,46.33a18.37,18.37,0,0,1,1.53,7.47c-.59,8-2.46,16.31-10.93,18.74S469.64,666.44,466,659c-13-27-13.43-54.08-.65-81.35,2.59-5.53,5.12-6.81,9.29-1.65C479.12,581.43,487.77,584,485.8,597.08Z"/><path class="cls-84" d="M577.52,748.79c-19.09,10.66-25.29,7.85-41.11-7.44C510.81,716.59,512.33,689,523,658c22.27,12.84,42.08,27.81,59.25,46.25C586.29,719.7,580.05,734.05,577.52,748.79Z"/><path class="cls-193" d="M577.52,748.79c-3.3-12,2.89-23.2,3.39-34.9a90.2,90.2,0,0,1,1.38-9.62c6.35,3.45,8.89,8.61,6.5,15.58C585.43,729.64,591,743,577.52,748.79Z"/><path class="cls-194" d="M312.81,646.58c.26-12.85,6.56-21.63,12.19-31.38C338,633.15,337.48,634.62,312.81,646.58Z"/><path class="cls-195" d="M557.57,348.72c-1,1.38-1.83,3.18-3.21,4.14-8.25,5.72-14.93,13.13-22.19,19.92-1,.9-2.66,1.84-3.77,1.6-2.4-.53-2-3-1.55-4.55,3.54-12.46,9.16-24.07,14.81-35.66.85-1.74,2.24-3.49,4.22-1.95C551.24,336.38,554.18,342.36,557.57,348.72Z"/><path class="cls-196" d="M785.16,737.89c2.28,3,3.79,5,5.35,7,11.74,14.77,10.81,19.91-5,28.88-3.71,2.1-5.68,1.42-5.52-2.92C780.36,760.26,778.84,749.41,785.16,737.89Z"/><path class="cls-197" d="M529.41,770.19c10.64,2.83,18.59,9.59,27.05,15.39,4.33,3,4.46,6.44.37,9.9-4.77,4-9.39,8.29-14.37,12.08-8.24,6.28-16.82,2.44-17.68-8C524,789.51,526.69,779.93,529.41,770.19Z"/><path class="cls-198" d="M633.57,373.33c-.14-.8-.27-1.6-.41-2.4,3.31-7.36,10.44-8.93,17.07-9.9,10.43-1.54,14.67,4.1,12.2,14.78-5.8-6.89-13.13-1.13-19.67-2.12C639.92,373.27,636.63,375.63,633.57,373.33Z"/><path class="cls-199" d="M715.55,437.61c-.08-1-.17-2.05-.25-3.07,5-7.17,13.65-4.76,20.19-7.86,2.9-.88,5.34-3.59,8.8-2.33h2.29c.37,5.57-3.46,7.73-7.82,8.74C731.09,434.87,723.29,436.13,715.55,437.61Z"/><path class="cls-199" d="M706.75,439.56c2-2.44,4.74-1.76,7.34-1.62Z"/><path class="cls-200" d="M677.47,438c-5.27-6.6-5.08-15.14-8.05-22.55q-.1-4.44-.22-8.88c5.15.86,9.49,8.5,15.51,1.89,5.39-5.92,6.72-13.07,5.17-20.59-1.4-6.78-7.31-7.95-12.91-7.92-6,0-4.77,5.34-5.25,9.13-.58,4.59,1.15,9.7-3.11,13.43-3.75-10.51-1.71-21.05-.1-31.58.45-2.95,2-5.23,5.14-3.88,7.09,3,14,6.51,20.94,9.89a4.45,4.45,0,0,1,2.63,5.48c-4.2,14.67.24,28.29,4.91,41.91C692.91,427.12,686.55,435,677.47,438Z"/><path class="cls-201" d="M668.61,402.54c.08-5.15,0-10.31.29-15.44.27-4.47-1.22-11.72,5.57-10.87s16.85-.21,18.58,10c1.07,6.37,1.05,13.08-2.39,19.36-2.65,4.82-5.69,8.82-11.31,9.38-5.84.59-7.77-4.37-10.15-8.42C669,405.25,668.81,403.89,668.61,402.54Z"/><path class="cls-202" d="M677.47,438c7.53-5.81,12.9-15.5,24.66-13.67,7.79,7.24,11.13-.05,15.29-4.69,10.73-2.41,15.36-.36,20.12,8.89l-22.24,6c-9.53,2.21-19,4.44-28.59,6.62C683,442,678.66,444.64,677.47,438Z"/><path class="cls-203" d="M737.54,428.56c-5.51-5.67-12.44-8.13-20.12-8.89V394.22c15.1,5.26,28,20,26.87,30.13Z"/><path class="cls-204" d="M799.41,385.36c-13.68-10-21.9-22.81-32.72-32.95-1.45-1.36-1.89-2.8,0-4.58,7.52-7.21,23.93-3.39,27.54,6.4C797.69,363.73,800.22,373.31,799.41,385.36Z"/></g></g></svg>