<svg xmlns="http://www.w3.org/2000/svg" viewBox="0 0 852.51 963.76"><defs><style>.cls-1{fill:#ba8a6a;}.cls-2{fill:#b98a6a;}.cls-3{fill:#120f0d;}.cls-4{fill:#1c1714;}.cls-5{fill:#12100e;}.cls-6{fill:#0c0d0d;}.cls-7{fill:#0f0d0b;}.cls-8{fill:#14100e;}.cls-9{fill:#944e45;}.cls-10{fill:#090909;}.cls-11{fill:#171616;}.cls-12{fill:#0d0b0a;}.cls-13{fill:#89423e;}.cls-14{fill:#11100f;}.cls-15{fill:#1a1613;}.cls-16{fill:#211d1a;}.cls-17{fill:#110f0e;}.cls-18{fill:#131110;}.cls-19{fill:#0e0c0a;}.cls-20{fill:#13100f;}.cls-21{fill:#925048;}.cls-22{fill:#8f4e45;}.cls-23{fill:#843f3d;}.cls-24{fill:#100e0d;}.cls-25{fill:#0f0e0e;}.cls-26{fill:#221c17;}.cls-27{fill:#312b27;}.cls-28{fill:#3b342f;}.cls-29{fill:#2c2a29;}.cls-30{fill:#332d29;}.cls-31{fill:#372f2b;}.cls-32{fill:#2a2827;}.cls-33{fill:#2a231f;}.cls-34{fill:#353434;}.cls-35{fill:#3c3530;}.cls-36{fill:#272624;}.cls-37{fill:#3d3d3f;}.cls-38{fill:#2e2f30;}.cls-39{fill:#38312c;}.cls-40{fill:#080807;}.cls-41{fill:#4c423b;}.cls-42{fill:#3e342d;}.cls-43{fill:#ae7b69;}.cls-44{fill:#39393a;}.cls-45{fill:#9b463e;}.cls-46{fill:#f9eeda;}.cls-47{fill:#c9cddc;}.cls-48{fill:#ba8a6b;}.cls-49{fill:#ca9470;}.cls-50{fill:#e9aa7d;}.cls-51{fill:#f9de95;}.cls-52{fill:#b8896a;}.cls-53{fill:#f6f6f7;}.cls-54{fill:#ced1e0;}.cls-55{fill:#3b322f;}.cls-56{fill:#261c16;}.cls-57{fill:#dda278;}.cls-58{fill:#d19971;}.cls-59{fill:#b98a6b;}.cls-60{fill:#ce9772;}.cls-61{fill:#e7a97d;}.cls-62{fill:#f6f7f8;}.cls-63{fill:#161d20;}.cls-64{fill:#026078;}.cls-65{fill:#6c93a1;}.cls-66{fill:#07637b;}.cls-67{fill:#edb790;}.cls-68{fill:#c4c8d4;}.cls-69{fill:#a27a62;}.cls-70{fill:#bcb2a4;}.cls-71{fill:#1f1915;}.cls-72{fill:#f5e7cd;}.cls-73{fill:#d6c6b1;}.cls-74{fill:#bc8c6b;}.cls-75{fill:#100d0a;}.cls-76{fill:#e8aa7d;}.cls-77{fill:#4c3728;}.cls-78{fill:#040404;}.cls-79{fill:#f9d865;}.cls-80{fill:#e28567;}.cls-81{fill:#e0693b;}.cls-82{fill:#f9d766;}.cls-83{fill:#e27c50;}.cls-84{fill:#e47941;}.cls-85{fill:#f6dc8a;}.cls-86{fill:#b6bcd2;}.cls-87{fill:#dbdce5;}.cls-88{fill:#d5d7e0;}.cls-89{fill:#bac0d6;}.cls-90{fill:#f5f5f6;}.cls-91{fill:#eab089;}.cls-92{fill:#b58869;}.cls-93{fill:#eaab7d;}.cls-94{fill:#e27340;}.cls-95{fill:#f8d266;}.cls-96{fill:#d0c4b3;}.cls-97{fill:#e6dfc8;}.cls-98{fill:#44352a;}.cls-99{fill:#aea594;}.cls-100{fill:#716c61;}.cls-101{fill:#ecb28b;}.cls-102{fill:#ddcebc;}.cls-103{fill:#d9c9b5;}.cls-104{fill:#15100d;}.cls-105{fill:#e3a77c;}.cls-106{fill:#efcab0;}.cls-107{fill:#e9ba9b;}.cls-108{fill:#e06b3c;}.cls-109{fill:#f6cf65;}.cls-110{fill:#eeb081;}.cls-111{fill:#f5de9c;}.cls-112{fill:#e07a51;}.cls-113{fill:#cda967;}.cls-114{fill:#e69c6d;}.cls-115{fill:#cf9873;}.cls-116{fill:#f0e1c7;}.cls-117{fill:#ebb08a;}.cls-118{fill:#eaeaeb;}.cls-119{fill:#fad965;}.cls-120{fill:#fae0a0;}.cls-121{fill:#edc4a8;}.cls-122{fill:#2f251d;}.cls-123{fill:#c89471;}.cls-124{fill:#5b4a3c;}.cls-125{fill:#050506;}.cls-126{fill:#0a0808;}.cls-127{fill:#161110;}.cls-128{fill:#c3916f;}.cls-129{fill:#201916;}.cls-130{fill:#13100e;}.cls-131{fill:#1b1f1f;}.cls-132{fill:#1c140f;}.cls-133{fill:#cfcdcd;}.cls-134{fill:#151b1d;}.cls-135{fill:#563d2d;}.cls-136{fill:#16100c;}.cls-137{fill:#463428;}.cls-138{fill:#3b2c22;}.cls-139{fill:#5a402f;}.cls-140{fill:#e2763f;}.cls-141{fill:#e58755;}.cls-142{fill:#e17040;}.cls-143{fill:#4a362a;}.cls-144{fill:#ecc6ad;}.cls-145{fill:#f3bf5f;}.cls-146{fill:#e89256;}.cls-147{fill:#3a312d;}.cls-148{fill:#fafafb;}.cls-149{fill:#035f76;}.cls-150{fill:#c3c8da;}.cls-151{fill:#9a6a80;}.cls-152{fill:#b8bed2;}.cls-153{fill:#dbdbde;}.cls-154{fill:#9c9ead;}.cls-155{fill:#5f404f;}.cls-156{fill:#806773;}.cls-157{fill:#ced1de;}.cls-158{fill:#c8b4be;}.cls-159{fill:#c8cbdb;}.cls-160{fill:#b598a6;}.cls-161{fill:#2f6f83;}.cls-162{fill:#55889a;}.cls-163{fill:#02637b;}.cls-164{fill:#42565c;}.cls-165{fill:#dd583b;}</style></defs><title>Recurso 24</title><g id="Capa_2" data-name="Capa 2"><g id="Capa_1-2" data-name="Capa 1"><path class="cls-1" d="M589.22,880.72l6.19,5.83c2.33,13.29-7,23.91-20.4,22.86-3.82-.29-6.33,1.32-8.79,3.65a69,69,0,0,0-8.87,15.34c-3.58,8.5-7.87,7.21-12.84,1.1-4.32-5.32-8.2-11.68-16.76-9.73a22.28,22.28,0,0,1-3.08,4.42,27.15,27.15,0,0,1-4.72,3c-5.72,15-6.87,15.53-21.9,8.2-5.89-2.87-12.21-5.07-17.18-9.64-7-15.41-10.64-32.19-19.86-46.75-3.76-5.93-7.23-12-11.81-17.32-11.49-11.9-24.3-22.66-32.36-37.52-2.06-3.81-5.45-7.35-2.18-12.12,4.69-4.7,10.22-3.44,15.65-2,19.38,5,39.37,4.51,58.56,2,30.64-4.07,50.13-23.58,59.89-52.75,1.41-4.21,2.17-8.63,3.57-12.85,1.74-5.22,4.43-9.45,10.8-9.43,9.09,10.4,9.36,24,12.19,36.37,6.57,28.64,8,58,7.91,87.35C583.2,867.79,581.24,875.82,589.22,880.72Z"/><path class="cls-2" d="M597.51,467.59c-.61,3.12-1.46,6.14-3.81,8.47-3,3-4.47,5.71,1.39,6.77,2.79.5,6.09-.48,7.6,3.11-1.35,3.68-4.2,3.61-7.28,3,7.27,2.89,15.38-6,22.35,1.5,2.26,6.72-3.16,9.37-7.18,11.88-4.75,3-6.66,6.4-5.45,11.72-7.38,4.1-.63,9.35-1.16,14-13,2.12-24.25,8.9-36,14-23.09,10.08-47.57,14.66-72.16,16.14a173.49,173.49,0,0,1-66.64-8.87c-3.09-1.06-7.91-.78-7.81-6.2,3.9-5.52,9.47-4.51,15.06-4.06,24,1.92,47.95,1.51,71.67-3.39a70.06,70.06,0,0,0,17.81-5.84c8.45-2.11,16.42,3.35,24.91,1.62,3.14-.65,7.28.44,8.62-3.34,1.05-3-1.85-5.35-3.42-7.75-2.83-4.32-7.81-6.7-10.35-11.32-1.13-4.35.35-8.1,3.09-11.28,13-15.07,25.87-30.3,46.37-35.59C597.39,463.32,596.45,465.9,597.51,467.59Z"/><path class="cls-3" d="M602.17,485.33H586.93c-.83-4.33,3.76-7,4.81-11,.42-1.65,1,1.44,2,1.78-1.12,4.89,2.36,4.1,5.25,4.42,7,.76,14.09.05,20.9,2.6,8.73,3.27,9.53,6.91,2.52,13.27-.82.74-1.81,1.29-2.68,2-4,3.27-9.72,5.8-11.64,10-2.79,6.12,5.54,7.13,8.33,11,3.83,5.26.4,6.52-3.15,7.89-48.41,18.67-96.08,41-150.41,31.51-.53-.1-1.18.53-2,.94,33.36,50.69,67.57,100.78,97.33,153.66.48,1.2.34,2.63,1.31,3.65.4,1,.79,1.93,1.19,2.89a1.8,1.8,0,0,0,.95,1.66c.06.88.12,1.76.19,2.63-.55,1.52-1.32,2.78-3.19,2.79-3.22-1.33-3.87-4.7-5.71-7.13-24.2-41.55-49.43-82.45-75.31-123a128.8,128.8,0,0,0-9-12.62c-8.4-19.76-24.92-28.21-44.66-32.44a93.89,93.89,0,0,1-16-4.62c-4.69-2.76-12.56-5.82-9-11.53s9.63,1.37,14.62,2.74c2.28,1.21,4.74,2.09,6.93,3.49.34.38.67.77,1,1.16,38.24,15.38,77.29,15.61,116.76,5.9,16.21-4,32.06-8.82,46.58-17.78,5.71-3.52,13.36-3.87,20.13-5.67,4.17-4,.58-7.61-.55-11.35-3.65-3.71-3.19-7.07.71-10.32,4.54-3.8,9-7.7,13.49-11.56-.42-4.42-3.65-4.77-7.08-5C608.24,487.09,604.76,488.25,602.17,485.33Z"/><path class="cls-4" d="M597.51,467.59c-3.1-.64-1.9-2.92-1.82-4.78-9.35-3.25-17.53,1.38-25.29,4.93-9.61,4.4-18.07,4-27.83.45-42-15.34-82.05-35.35-124.41-49.65-4.93-1.66-9.81-3.5-14.77-5.1-3.24-1.25-6.7-1.63-10-2.62-3.5-1.23-7.13-2.21-10.26-4.24-4.41-2.87-8.53-6-1.74-10.71a8.81,8.81,0,0,0,3.51-5.48c6.38-26.88,19.42-51.26,29.08-76.9,8.91-23.64,10.74-47.45,6.66-72.09-1.81-11-3.81-21.91-4.53-33,.64-2.94.28-6.58,4.7-7,14.9,48.4,13.92,95.32-10.34,141.19-8.33,15.76-15.47,32.66-17.81,50.87-.74,5.7.16,9.07,6.93,11.24,49.82,16,97.21,38.33,146.16,56.65,8.1,3,14.71,2.89,22.22-.18,6.49-2.66,13.32-4.47,19.92-6.89,4.85-1.78,10.06-2.63,13.34,1.66C604.78,460.56,599.19,463.78,597.51,467.59Z"/><path class="cls-5" d="M25.78,482.84c-1.9-10.52,5.48-6.18,9.62-5.58,5.48.8,11.61,6.76,14.1-4.06.59-2.57,5.64-3,8-1.19,6.31,4.91,11.6,1.66,17.35-.89q51.29-22.75,102.66-45.28c8.75-3.86,17.35-8,26.11-15-16.3-6.66-31.66-12.58-46.72-19.17a238,238,0,0,1-67.74-44.2c-3.73-3.49-8.06-6.67-10.09-11.71-.79-2.17.48-3,2.26-3.6,8.32,2.62,12.25,10.47,18.37,15.69,30.33,25.89,66,41.33,103.07,54.3.7.24,1.42.44,2.1.74,5,2.17,12.58,2.54,12.77,9,.16,5.65-7.36,4.74-11.4,6.82-4.33,2.23-8.28,5-12.34,7.61-38.22,16.95-76.09,34.72-114.47,51.31-6.71,2.9-13.65,6.15-21.43,3.82-.7-.21-1.75-.42-2.16,0-8.3,8.13-18,3-27.11,2.87A6.42,6.42,0,0,1,25.78,482.84Z"/><path class="cls-6" d="M77,248.1c4.82-17.46,0-35.22,1.67-52.8,1.18-12.14,2-24.37,6.43-35.84,3-7.68-1.11-15.39,1-22.94a2.32,2.32,0,0,1,2.64-.46c10.06-2.39,17.8-.05,21.52,10.55,1.12,4.93,2,9.91,3.58,14.74,6.91,28.25,9.33,57,8.72,86-.32,15.47-5.65,19.06-20.38,14a35.47,35.47,0,0,1-13.44-7.64c-3.1-3-6-4.29-9.4-.65C75.66,252.79,75.56,250.81,77,248.1Z"/><path class="cls-7" d="M559.36,727.16l2.39-3c7.62,8.79,18.17,8.87,28.45,9.23,8.45.29,16.93-.16,25.39-.28,2.54,2.81,7.3-1.12,9.38,3.09-2.52,5-7,3.81-11.14,3.5a40,40,0,0,0-20.62-.23c-20.92-.36-20.63-.43-15.46,20.3,3.86,15.45,7.62,30.94,7.48,47.14-.12,12.77,1.36,13.56,14.52,11.44,3-.48,5.87-.93,8.81,0a4.53,4.53,0,0,1,3.16,3.63c-1.45,4.27-5.21,4.81-8.87,5.45a70.56,70.56,0,0,0-7.59,1.59c-5.16,1.53-9,4.38-7.51,10.31,1.53,6.31,6.78,4.84,10.9,3.72,17.88-4.86,34.89-12,51.65-19.88,10.67-5,20.57-11.6,31.9-15.24,1.83.39,3.21,1.13,2.67,3.39A198,198,0,0,1,604,848c-20.41,4.22-24.76,12.1-14.79,32.75-7.3-1.4-6.84-1.43-7.42-10.19-2.06-30.95-2-62.15-8.57-92.63-3-13.64-5.5-27.51-11.2-40.44C558.37,734.73,556.81,731.48,559.36,727.16Z"/><path class="cls-8" d="M179.92,556.61c-32.72,3.17-65.44,6.07-98.31,2-.11-3.63,2.78-3.93,5.22-4.73,22.59-1.34,45.31.71,67.83-2.69,3.65-.55,7.42-.24,11.09-.95,12.86-2.46,15.22-5.13,17.81-20.25,3.59-20.1,8.2-40,11.28-60.23.62-4.05,1.4-8.08,4.38-11.24,4.63-1.38,4.68,2.32,5.62,5,1.95,19-5.07,36.2-10.4,53.84,6.49-20.69,18.72-38.07,31.91-54.88.73-.83,1.52-1.59,2.31-2.35.38-.4.79-.76,1.17-1.16.74-.81,1.52-1.57,2.3-2.34.37-.41.77-.79,1.14-1.2,10.23-11.66,21.67-21.33,38-22.95,3.53-.35,7.45-2.17,9.7,2.49-.53,2.44-2.49,3.46-4.45,4.47a23,23,0,0,1-6.12,1.34,20,20,0,0,0-5.72,1.54c-9.35,4.2-17.09,10.5-23.82,18.16-19.95,18.42-30.5,42.54-40.37,67-5.64,14-14.46,27-13.17,43.08-.33,3.95.38,8.24-3.62,11-3.21.3-3.44-2.39-4.37-4.37a5.33,5.33,0,0,1,.36-4.86l.51-8.46C181.05,561.39,181.75,559,179.92,556.61Z"/><path class="cls-9" d="M683.18,494.14c3-8.58,9.07-15.23,14.39-22.32,9.21-12.28,14-25.9,13.83-41.39-.25-20.67-.06-41.33-.06-63,6.85,1.52,6.53,7.55,12.57,10.95,1.84-15,6.93-28.26,12.1-43.56,7,13.82,15.54,24.34,16.67,38.47,6-24.19,7.17-48.79,14.43-72.2a7.16,7.16,0,0,1,3,4.87c1.64,12.43-3.68,23.93-4.82,36a257.61,257.61,0,0,0-3.77,35.39c-3.1,11.57-4.61,12.34-13,6.68-4-6.43-5.21-13.85-7.43-20.91-1.1-2.57-1.81-5.42-5.3-7.22-2.74,8.3-3,16.6-4.62,24.63-4.26,11.64-5.23,11.95-12.35,4-1.09,2-.25,4.28-1.06,6.29-2.06,11.11-.38,22,1.15,33a66.46,66.46,0,0,1-.43,18.78c-2.76,7.47-5,15.19-8.7,22.28-6.69,11.41-15,21.68-23.38,31.83C684.51,497,683.55,495.94,683.18,494.14Z"/><path class="cls-10" d="M526,918.87c1.36-6.92,5.54-3.46,8.55-2,5.83,2.83,9.76,8,13.69,12.89,4.63,5.81,5.55,1,7.15-2.22,1.89-.62,3,.52,4,1.83,12.89,11,28.36,14.16,44.6,14.89a3.75,3.75,0,0,0,1.58-1.67c.26-1.8-.72-3.07-1.81-4.32-10-9.87-19.75-20-33.77-24.09a33.67,33.67,0,0,1-4.24.66c-1.43-.5-2.68-1.1-1.49-2.93a10.3,10.3,0,0,1,7.61-5.63c16.38-2.49,20.44-5.88,23.59-19.73,10.45,9.88,22.47,18.07,31.58,29.4,1.09,1.92,0,2.88-1.58,3.6-8.11-.55-12-7.72-18.13-11.51-3.28-2-5.35-6.37-10.23-5.08a11.21,11.21,0,0,0-1.91,1.86c-.22.43-.46.81-.67,1.22.6,10.65,4.32,14.65,14.95,16.16,5,.71,10.27-.69,14.9,2.31a2,2,0,0,1,.61,1.85c-.14.64-.29,1-.46,1-3.26.33-6.53.77-9.8.95-2.87.16-5.76,0-10.1,0,2.43,3,4.16,5.43,6.19,7.58,3,3.22,7.25,6.8,5.07,11.13-2,4-7.54,4-12,4.34-13.61.93-26-4.38-38.81-7.62-4.66-1.18-5.26-.19-3,3.69.85,2.08-.44,2.87-2.09,3.43-2.91.13-4.8-1.62-6.43-3.66A189.81,189.81,0,0,0,526,918.87Z"/><path class="cls-11" d="M173.26,906.84c-19.85,5.67-38.91,13.39-57.7,21.83-1.35.6-2.67,1.28-4,1.79-3.81,1.4-8.8,3.77-11.41.71-3.12-3.64,1.94-7,3.68-10.39,2.89-2.64-.69-6,1-8.81a15,15,0,0,1,2.41-3.64c8.94-10.57,8.93-11.41-.3-21.91-3.18-3.2-6.39-3.54-9.43.09-10.42,12.43-20.82,24.88-24.74,41.21a8,8,0,0,1-2.43,4c-4.57.6-8.44.74-5.46-5.88,2-4.55,3.64-9.3,5.44-14-2.51-2.25-5.73-.48-8.47-1.49a2.39,2.39,0,0,1-.66-2.69c7.12-4.12,14.81-7.23,19.47-14.92,2.36-3.88,4.36-7.43,4-12a4.08,4.08,0,0,1,3-3.23c7.3.35,14.48-7.46,21.91-.37,3.08,2.65,5.82,5.66,8.71,8.51s6,4.45,9.9,2.31c9.94-5.44,17.35-.94,22.88,6.84,4.76,6.68,10.34,8.93,18,7a5.35,5.35,0,0,1,4,2.1A3,3,0,0,1,173.26,906.84Z"/><path class="cls-12" d="M625.31,735.74c-3.25-.84-7.13.69-9.72-2.6,26.94-5,52.25-14.21,75-29.63,27.84-18.85,44-46.67,57.9-76.18a124,124,0,0,0,8.37-24.15c1.35-1.92-.71-5.61,2.58-6.21,2.64-.48,3,2.35,3.72,4.31,1.3,13.72-6,24.88-10.92,36.77-.72,1.44-1.52,2.85-2.28,4.27-.43.95-.94,1.87-1.46,2.78-9.35,16.64-18.89,33.14-31.85,47.36a20.51,20.51,0,0,1-2.46,1.91,36.18,36.18,0,0,0-5,3.8c-19.84,19.25-44.14,30.32-70.2,38.05C634.54,737.55,629.76,739.25,625.31,735.74Z"/><path class="cls-13" d="M769.22,290.57c0-3.76.57-7.33,3.2-10.38,3.59,1.51,3.72,5.34,5.7,7.77,2.5,3.06.15,11.18,9.2,8.14,2.43-.82,4,5.58,5.39,8.93,3.24,7.64,3.15,7.68,10,2.89,1.45,19.5,3.25,38.56,4.2,57.66,1.14,22.77,8.87,41.22,28.52,54.77,12.8,8.83,13,15.33,6,29.88-3.86,8-7.92,15.89-11.89,23.83-.36.62-.73,1.24-1.1,1.85l-.68.17a1.93,1.93,0,0,1-2.9-.31c-1.86-3.44-.56-6.48,1.15-9.47,4.49-7.86,9.17-15.63,11.08-24.65.67-8-3.69-14.15-9.49-17.82-19.95-12.65-24-33-26.73-53.68-1.2-9.12-1.68-18.42-2.71-27.62-.07-2.22,0-4.44-.08-6.66-.4-6,.57-12.11-7.34-15.14-3.57-1.38-3.31-7.15-4.73-10.93-5.85-4.86-11.92-9.51-15.17-16.72A10.94,10.94,0,0,1,769.22,290.57Z"/><path class="cls-14" d="M781.42,599.07c3.14,49.72-6.06,96.86-31.38,140-8.74,14.89-18.66,29.43-32.21,40.8-2,.19-2.57-1-2.79-2.67.32-3.23,2.63-5.37,4.33-7.84,6.33-9.68,13.41-18.82,20.26-28.11.52-.8,1.11-1.56,1.69-2.32s1-1.57,1.53-2.36.91-1.66,1.38-2.49c.66-1.3,1.36-2.58,2.06-3.87,4.09-7.7,8.14-15.41,10.62-23.82,2.11-4.58,4.45-9,6.58-13.61,2-3.33,3.68-6.66.48-10.27a10.57,10.57,0,0,1-.15-3.27c5.8-14.15,9-28.93,10.8-44.07,1.92-8.76.3-17.65,1.12-26.41C776.11,604.87,774.6,599.39,781.42,599.07Z"/><path class="cls-15" d="M88.42,136.55l-2.29,0,.57-11.66c.52-1,.44-2.29,1.14-3.26,20.51-51.24,54.68-88.91,107.4-108.17,2.32-1.24,4.26-1.24,5.34,1.61-1,4.42-5,5.09-8.27,6.59-21.9,9.86-42.07,22.19-58,40.55C122.71,76,110.92,89.69,102.15,105.63a78.71,78.71,0,0,0-8.89,23.68C92.72,132.22,93.42,136.43,88.42,136.55Z"/><path class="cls-16" d="M86.53,556.29l-4.92,2.31c-11.64.61-22.27,5.54-33.51,8-9.36,2-12-3.27-9-9.3,7.7-15.5-.71-24.26-11.39-32.45C20.14,519,13.46,511.9,4.8,507.36c-2.52-1.32-5-4.07-4.79-7.1.26-3.77,4.12-3.5,6.87-4.17,7.15-1.72,14.3-3.4,21.86-5.19-1-2.71-2-5.39-3-8.06l2.57.14c3.33,1.11,5.55,3.57,7.51,6.29,3.75,5.21,1.94,8.28-3.93,9.27-6.43,1.07-13.29.35-19.68,5.26,6.56,5.35,13.2,9.91,19.57,14.8,12.74,9.79,23.09,20.49,13.55,39.38,6.52-.61,10.92-3.64,15.89-4a43.5,43.5,0,0,0,9.6-1.67,28.87,28.87,0,0,1,6.92-.84C81.31,552,85.38,551.47,86.53,556.29Z"/><path class="cls-17" d="M173.48,905.34l-2.52-2c2.88-5.24,8.4-5.76,13.29-7.13,14-3.91,28.21-6.65,42.37-9.77,7.61-1.68,14.46-4.64,16.58-12.93.81-3.2,3.47-8.45-4.45-8.07-9.24.44-5.06-5-2.39-7.89,10.16-10.84,22.11-18.63,37.58-19.43,2.24.7,4.73,1.16,4.23,4.45-3.86,1.27-7.77,2.42-11.58,3.84-16.54,6.12-17.28,7.33-16,25.16,1,13.6-2.66,18.51-16.56,21.67-15.87,3.6-32.15,5.2-47.75,10.09-1.85,1.34-4.3.06-6.14,1.43l-4.79,1.21-1.06.15Z"/><path class="cls-18" d="M414.34,813.7c8.21,18.47,22.47,32.31,35.87,46.82.48,2.4-.51,3.15-2.78,2.5-12.21-18.41-31.62-19.21-50.74-20.7.59-5.65,5.22-4.13,8.49-4.57,4-.55,8.15.12,12.14-.54a1.59,1.59,0,0,0,1.11-1.47,6.72,6.72,0,0,0-.62-1.85c-.34-.6-.63-1.21-.93-1.82s-.74-1.19-1.14-1.76c0,0-.63-.85-.66-.84a12.91,12.91,0,0,1-1.3-1.74,10.44,10.44,0,0,1-1-1.93c-.48-1-1-1.95-1.47-2.9a16.56,16.56,0,0,1-.95-1.94c-.36-.63-.67-1.28-1-1.92a16.69,16.69,0,0,1-1-1.91c-.51-1-1-1.94-1.45-2.92a16.16,16.16,0,0,1-.9-2c-.48-1-1-2-1.51-3-.38-.67-.7-1.36-1-2.06-.55-1.07-1.09-2.13-1.58-3.23-.34-.79-.61-1.59-.87-2.41-.57-1.72-1.27-3.4-1.79-5.14a27.27,27.27,0,0,1-.83-4.47c-.13-3.35-1.21-6.5-2-9.73-1.28-8.06-.6-16.15-.55-24.23.57-3.14.8-6.5,4.76-7.46,4.64,3.47,2.75,9.18,4.7,13.57,1.59,11.8.21,24.12,6.09,35.17a23.93,23.93,0,0,1,.94,4.43c.24,1.31.45,2.64.81,3.93.3.78.54,1.59.79,2.39a9.61,9.61,0,0,1,.43,2.44Z"/><path class="cls-19" d="M346.82,834h-5.4c-5.19,2.29-9.67-1.4-14.55-1.69-45.81-9.93-84.68-31.41-114.08-68.6-2.3-2.91-4.58-5.9-5-9.79a3.59,3.59,0,0,1,2.75-3.59c3.64.52,5.75,3.19,7.78,5.8,18.07,23.31,40.88,40.52,67.58,52.73,1.26.6,2.51,1.27,3.8,1.81s2.48.89,3.69,1.39,2.26,1.06,3.39,1.6c.74.3,1.47.65,2.19,1a17.1,17.1,0,0,0,4.57,1.19,17.13,17.13,0,0,1,3.54.8c1.52.56,3,1.12,4.61,1.56A15.9,15.9,0,0,1,314,819c1.16.51,2.3,1.06,3.45,1.58.82.3,1.61.63,2.41.94a39.3,39.3,0,0,0,5.12,1.12,17.91,17.91,0,0,1,2.59.67A32.09,32.09,0,0,0,334,824.9a17.67,17.67,0,0,1,2.62.68,41.36,41.36,0,0,0,6.7,1.6,14.73,14.73,0,0,1,2.82.91c1.8,1,3.64,1.94,4.12,4.22C349.67,834,348.71,835,346.82,834Z"/><path class="cls-20" d="M95.07,862.92c10.46-5.79,10.12-11.62,4.19-22.3-14-25.17-11.21-52-1.68-78.34,3.31-.16,3.59,2.43,4.28,4.68a24.89,24.89,0,0,1-.46,8.81c-1.68,5-.92,10.31-2.13,15.37-2.62,8.41-.73,16.69.77,25,2.25,18.08,10.68,32.71,24.62,44.33,1.88,1.57,4.77,3.36,3.69,6.17s-4.18,2.31-6.75,1.55a18,18,0,0,1-2.73-1.48c-1.68-1.08-3.39-2.14-5.14-3.11-6.24-4.38-10.83,2.17-16.35,2.47C95.74,865.64,94.53,864.93,95.07,862.92Z"/><path class="cls-21" d="M825.34,476.09h2.38l-.21,2.73a1.18,1.18,0,0,0-.85,1.46c-.57,2.4-1.15,4.79-1.72,7.18a1.31,1.31,0,0,0,.15,1.85c3.51,3.48,3.83-.77,5.1-2.22,4.51-5.15,8.9-10.42,14.42-16.92,3.17,9.37-3.52,14.92-3.23,22.55,3.41.34,6.53-6.28,9.83-1.62,2,2.86,1.38,6.73.06,9.6-6.17,13.38-8.26,28.38-16.38,41a4.87,4.87,0,0,1-2-2.3,11.07,11.07,0,0,1-.47-4.61,16.35,16.35,0,0,1,.59-3c.56-1.94,1.07-3.9,1.49-5.88.9-4,3.3-7.54,4.07-11.5,1-5.05,8.53-11.45-2.68-14.76-2-.58-1.6-4.65-1.11-7.26.33-2.41,2.55-4.27,2-7,.39-1.34-1.68.33-.22,0-.55,5.07-3.19,9.26-5.63,13.54-.53.93-1,1.9-1.45,2.88-1.77,3.06-2.51,7.3-7.54,6.65a5.73,5.73,0,0,1-3-3.42,37,37,0,0,1-1.58-4.35,16.1,16.1,0,0,1-.58-6.06,18,18,0,0,1,.58-3c.38-1.48.78-3,1.13-4.45C820.12,483.06,819.21,477.38,825.34,476.09Z"/><path class="cls-22" d="M834.42,538.45c.16,1.06.31,2.13.47,3.2-4.22,10.77-7.67,21.26-3.18,33.28,2.19,5.86-3.27,10.45-8.76,12.36-13.59,4.74-27.16,9.74-41.53,11.78-5.28,4.24-2.23,10.15-2.94,15.26-1.07,7.6,1.72,15.48-1.59,22.95-5.67-5.79-3.63-13.19-3.13-19.69.77-9.88-2.46-15.27-12.47-16.15-1.4-3.53-1.45-3.56-2.39-2-.74,1.21-1.34,2.51-2,3.76l-.42-6.77a1.92,1.92,0,0,1,.57-2.93c7.71-3,15.92.78,23.66-1.78,6.82.06,13.12-2.51,19.63-4,1.43-.42,2.95-.49,4.35-1,17.75-6,17.81-6.12,18.09-24.74a41.33,41.33,0,0,1,.59-7.77C826.41,548.55,825.45,540,834.42,538.45Z"/><path class="cls-23" d="M683.18,494.14l1.86,2.44c-2.48,19.14,8.9,30.75,22.1,41.71,5.65,4.69,11.17,9.93,13.21,17.55,1.06,7.53,1.76,15.2,8.27,20.55,3.48,3.11,7.69,5.45,10.09,9.69-.05,1.88-.6,3.13-2.83,2.15-13.13-3.58-21.09-11.32-21.74-25.68-.46-10.34-7.71-16.22-15.59-21.45C676.57,526.54,672.93,515.37,683.18,494.14Z"/><path class="cls-24" d="M318.52,15.25c25.7,7.81,42.15,26.32,55.58,48.24,6.39,10.42,11.17,21.64,15.75,32.94,1.78,2.29,1.13,4-1.28,5.22-6.49-.23-6.92-5.92-8.71-10.07-11.07-25.71-26.36-48-50.3-63.5-.83-.47-1.64-1-2.43-1.54s-1.61-.95-2.41-1.42-1.63-.89-2.42-1.37a23.76,23.76,0,0,1-3.44-2.39,5.35,5.35,0,0,1-1.71-3.74A3.7,3.7,0,0,1,318.52,15.25Z"/><path class="cls-25" d="M481.77,923.94c8.31,4,16.7,7.88,24.88,12.14,5.2,2.71,7.94,2.48,8.29-4.27.16-3.1.32-7.29,5.51-6.82,1.25,1.62,1.19,3.47.94,5.35-.5,2.17-.74,4.31.82,6.23,3.14,4.71,7.67,7.27,13,8.64a27.29,27.29,0,0,1,2.78,1c1.86.75,3.77,1.36,5.67,2,4.6,2.32,10.26,3.2,12.25,9-.51,1.81-1.43,2.85-3.44,1.8-22.94-6.17-44.29-16.55-66.35-25.06-2-.75-4-1.91-4.6-4.33C480.21,927.72,480.1,925.79,481.77,923.94Z"/><path class="cls-26" d="M210.82,751l-1.88,2.13c-3.48,1.13-4.3-1.9-5.91-3.73-1.55-2.64-3.32-5.15-5-7.72a217.57,217.57,0,0,1-19.86-50.82c-2.82-11.32-2.86-11.19-11.94-4.58-3.78,2.75-7.27,6.73-12.88,5a1.64,1.64,0,0,1-.74-1.72q.24-.93.54-.93l22.32-20.33c1.61-1.38.44-4.41,3.07-5.19a3.57,3.57,0,0,1,2.69,1.51c3.45,8.42,4.15,17.63,7.48,26.09a25.19,25.19,0,0,1,.36,4.42,20.3,20.3,0,0,0,.72,5.36c.33.83.59,1.68.85,2.53a29.81,29.81,0,0,0,2,5.05c.51.84.94,1.69,1.38,2.56,5.4,10.31,8.85,21.54,15.38,31.31C211.06,744.51,213.06,747.57,210.82,751Z"/><path class="cls-27" d="M387.66,100.77c2-.82,1.91-2.67,2.19-4.34C400,116,405.91,137,411.61,158.05c3.85,14.24,6.19,28.89,9.2,43.35-2.29,1.9-1.66,4.71-2.23,7.14-5.2-1.49-4.44-6.24-5.27-10-4.82-21.6-9.75-43.18-15.81-64.48-2.13-7.49-5.73-14.4-8.58-21.6C387.45,108.79,385.7,104.93,387.66,100.77Z"/><path class="cls-28" d="M153.15,688.65l.18,3.32c-.79,5.71-5.53,8.56-9.09,12.14-7.56,7.62-15.17,15.15-21.11,24.17-6.62,9.29-12.59,18.89-16.56,29.7-1.28,3.5-1.73,8.2-6.83,9.06l-2.16-4.76C108.13,731.72,128.62,708.66,153.15,688.65Z"/><path class="cls-29" d="M95.07,862.92l2.41,2.17c-.92,6.1-7.87,7.81-9.64,13.29L86,880.76a4.21,4.21,0,0,1-2.78.83c-9,1.13-14.09,8-20.15,13.5-.65.76-1.34,1.47-2,2.18-.32.37-.67.72-1,1.1-5.08,4.54-4.63,8.32,1.52,11.35l-.16-.21c.81.53,1.06,1,.75,1.51s-.59.67-.89.67C56,911,49.1,917.1,45.87,911.24c-3.7-6.67,3.83-11.08,7.81-15.43C65.71,882.69,80,872.24,95.07,862.92Z"/><path class="cls-30" d="M326.75,829.56c5.54-.65,9.08,5.28,14.67,4.44l-63.25,8.53c-1-2.09-3.1-2-4.9-2.57,1.68-5.48,6.88-4.69,10.85-6C298,829.36,312.6,831.66,326.75,829.56Z"/><path class="cls-31" d="M481.77,923.94c-.08,1.92-.17,3.84-.25,5.76-9.73-14.19-11.46-31.89-20.68-46.51-4.32-6.84-8.27-13.87-13.41-20.17l2.78-2.5C466.86,878.61,473.77,901.55,481.77,923.94Z"/><path class="cls-32" d="M346.82,834l2.82-2.35a4.67,4.67,0,0,1,2.35-1.8,10.05,10.05,0,0,1,4.5.06c1.47.3,2.93.62,4.42.82,3.56.37,7.17.2,10.67,1.09a41.94,41.94,0,0,0,6.28,1.21,50.66,50.66,0,0,1,6.71,1.07c8.21,1.86,16.53.67,24.8.9,4.22-.49,8.32.91,12.52.71,1.78,6.68-3.49,4.23-6.27,4.68-6.26,1-13-2.25-18.93,1.93C379.86,840.83,363.06,839.11,346.82,834Z"/><path class="cls-33" d="M222.46,5.13a104.42,104.42,0,0,1,55.68-2.5c.18,3.49-2.56,3.88-4.93,4.66-7.9,1.36-16-.83-23.87,1.74a60,60,0,0,1-12.83,1c-3-.15-6.1-.07-9.12-.51C225.08,8.8,222.43,8.47,222.46,5.13Z"/><path class="cls-34" d="M179.7,663.86l-2.33.06c-1,.73-1.54.48-1.6-.77l0-61.28q1.8-1.62,3.13.41c3.59,8,.26,17,3.56,25C182.63,639.57,186.42,652.11,179.7,663.86Z"/><path class="cls-35" d="M81.58,333.09l-2.53,2.7c-13.3-15.05-19.6-31.78-12.34-51.74a3.21,3.21,0,0,1,3.12-.92,4.25,4.25,0,0,1,1.94,2.67c-2.12,15.52-.25,30.15,9.48,43.08A4.18,4.18,0,0,1,81.58,333.09Z"/><path class="cls-36" d="M716.11,777.74c.57.71,1.15,1.42,1.72,2.14-8.3,13.3-20.93,22.06-33,31.46l-2.24-2.27C691.32,796,701.69,784.7,716.11,777.74Z"/><path class="cls-37" d="M70.33,931.7c.08-1.52.17-3,.26-4.56,1.53-1.41,2.87-3.06,4.81-4,10.27-3.7,19.19-11.12,30.77-11.22-.51,3,1.25,6.66-2.38,8.85-3.49-6.33-6.7-.48-9.41.65C86.35,924.81,79.28,930.43,70.33,931.7Z"/><path class="cls-38" d="M552.47,959.09l2.78-2.57c2.64-1.43,4.47-3.4,4.36-6.63l2.44-2.45c3.42,4.17,12.25,7.39,8,13.27S558.12,963,552.47,959.09Z"/><path class="cls-39" d="M69.74,284l-1.09.09a2,2,0,0,1-1.12-2.24A195.17,195.17,0,0,1,77,248.1l2,4.53c5,9.26-1.8,16.67-3.88,24.83C73.62,279.84,72.75,282.79,69.74,284Z"/><path class="cls-40" d="M179.63,625.78c-4.64-8-.36-16.74-2.28-24.95a15.11,15.11,0,0,1,.1-10.66c.14-2.14.27-4.28.41-6.42a1.91,1.91,0,0,1,3.06.08,19.61,19.61,0,0,1,3.43,8.5C182.41,603.43,185.78,615.28,179.63,625.78Z"/><path class="cls-41" d="M222.46,5.13l4.77,2.12a2.71,2.71,0,0,1-1,3c-8.58,2.67-16.77,7.31-26.29,5.27l-4.66-2.13C203.79,9,213.16,7.15,222.46,5.13Z"/><path class="cls-42" d="M318.52,15.25c-.07,1-.13,2-.2,3-2.63,1.37-5.14.25-7.69-.32-5.11-2.34-11.57-2-15.08-7.56.37-3.06,3.33-1.8,4.88-2.91C306.55,9.81,313.07,11.28,318.52,15.25Z"/><path class="cls-43" d="M735.88,588.23l2.53-2,.93-1.16c2.61-.43,4.9.67,7.24,1.52,3.71,1.65,8,2.19,10.64,5.84a2.65,2.65,0,0,1-.67,2.82,1.2,1.2,0,0,1-.07,1.12C749.73,593.41,741.91,593.08,735.88,588.23Z"/><path class="cls-44" d="M624.47,927.33l.15-2.35c-.21-.89-.44-1.78-.7-2.66-.24-1.39-.43-2.76.77-3.85.77-.84,1.54-1.67,2.3-2.51C628.24,920.21,637.78,926.3,624.47,927.33Z"/><path class="cls-33" d="M300.43,7.42l-5.17,2.29c-1.82,1.42-3.86,1.33-6,.93s-4.13-1-6.17-1.64c-1.59-.63-3.07-1.36-3.22-3.36,1.46-2.76,3.74-1.84,5.94-1.34l5.78.68c1.58,1.07,3.52,1,5.25,1.58Z"/><path class="cls-45" d="M769.22,290.57l2.86.18c.33,5.72,3.62,12.3-4.52,15.57l-.45-5.24A12.85,12.85,0,0,1,769.22,290.57Z"/><path class="cls-42" d="M285.85,4.3l-5.4,2.37c-3.08,2.43-5.66,2.5-7.37-1.56l5.06-2.48Z"/><path class="cls-46" d="M177.45,590.17c0,3.55-.06,7.11-.1,10.66a10.44,10.44,0,0,1-1.6,1C175.52,597.85,174.09,593.66,177.45,590.17Z"/><path class="cls-46" d="M179.52,582.66a19.86,19.86,0,0,0-1.66,1.1c-.22-4-1.66-8.09,1.79-11.46.11,1.47.22,2.93.32,4.4C181.13,578.79,181.83,580.84,179.52,582.66Z"/><path class="cls-47" d="M61.22,911.69c.05-.73.09-1.46.14-2.18,2.86,1.25,6.86-1.85,9,2.34Z"/><path class="cls-48" d="M180.11,904.72c1.77-1.68,3.88-1.89,6.15-1.44C184.58,905.38,182.47,905.57,180.11,904.72Z"/><path class="cls-46" d="M179.92,556.61c4.44,2.26.73,4.8.24,7.23Z"/><path class="cls-46" d="M175.77,663.15c.52.28,1,.53,1.6.77-.69,1.44.53,3.71-1.91,4.4C175.57,666.6,175.67,664.88,175.77,663.15Z"/><path class="cls-49" d="M559.42,717a2.75,2.75,0,0,1-1.31-3.65C559.82,714.12,560,715.44,559.42,717Z"/><path class="cls-50" d="M87.84,121.6c.46,1.39.26,2.54-1.14,3.27C85.76,123.31,86.46,122.33,87.84,121.6Z"/><path class="cls-42" d="M296.88,6.56c-2,.44-3.91.3-5.25-1.58Z"/><path class="cls-51" d="M828.4,475.91l1.11-1.86Z"/><path class="cls-51" d="M826.66,480.27c-.29-.77,0-1.27.85-1.47A1.09,1.09,0,0,1,826.66,480.27Z"/><path class="cls-51" d="M825.09,489.3a11,11,0,0,1-.79-1.32c0-.07.42-.36.64-.53A1.73,1.73,0,0,1,825.09,489.3Z"/><path class="cls-48" d="M173.48,905.34a3,3,0,0,1,1.85.59c-.27,1.28-1,1.53-2.08.91A2,2,0,0,1,173.48,905.34Z"/><path class="cls-52" d="M67.53,281.81c.37.75.74,1.49,1.12,2.24l-1,.17-1-.17C67,283.3,67.25,282.55,67.53,281.81Z"/><path class="cls-49" d="M561.56,721.56l-1-1.67C561.81,719.94,562.1,720.51,561.56,721.56Z"/><path class="cls-49" d="M412.78,811.35a1.94,1.94,0,0,1-.74-1.75c-.46-.91-.93-1.81-1.42-2.71-.23-1.5-.47-3-.7-4.5,7.73-4.3,15.24-.56,22.57,1.13A211.79,211.79,0,0,0,461,808.1c49.55,4.39,80.31-30.3,86.71-76.43.67-4.77-2.52-12.81,7.55-12l4.08,7.47,2.67,10.3c-6.39,3.36-7.51,9.85-8.58,15.86-6.3,35.28-41.07,66.09-80,62.63-16.14-1.43-32.64,1.6-48.45-4.31-3.61-1.35-7.32.11-10.62,2.07l0,0A25.22,25.22,0,0,1,412.78,811.35Z"/><path class="cls-53" d="M559.61,949.89c.26,2.36,4.55,3.63,2.64,5.89-1.1,1.29-4.59.56-7,.74l-13.38-7c-1.41-1-3.27-.84-4.75-1.7l.07,0c-7.42-6.85-14.44-13.93-13.88-25.18.9-1.27,1.79-2.55,2.68-3.82,11.67,3.63,18,13.52,25.65,21.88C554.36,943.74,557,946.84,559.61,949.89Z"/><path class="cls-54" d="M523.31,922.69c2.51,9.56,10.54,16.08,13.88,25.18-8.1-.78-14.71-3.91-18.31-11.73a6,6,0,0,1-.1-3.91q.83-3.62,1.67-7.24Z"/><path class="cls-55" d="M564.21,911.92,566,914c1.48,7.53-2,12.5-8.29,16l-2.34-2.44C556.73,921.44,560.22,916.54,564.21,911.92Z"/><path class="cls-50" d="M555.28,719.68c-5.53.76-4.15,5.09-4.5,8.6-3.67,37.54-20,66.36-56.94,79.9-19.09,7-38.68,2.71-58-.67-8.68-1.53-17.31-3.4-26-5.12-8.21-11.61-4.69-25.43-7.17-38.12-.33-5.95-1.77-11.94.69-17.77,6.07,0,4.23,5,4.82,8,3.34,17.39,14.92,22.46,28.6,11.35,14.87-12.09,25.64-26.93,23.81-47.66-1.34-15.17-10.17-19.2-22.6-10.46-5.79,4.08-10.8,9.06-16.18,13.6-3.24,2.74-6,7-11.35,5.71-2.05-1.81-1.18-4-.71-6,4.83-12.48,9.6-25,18.84-35.16.32-.36,2.63.06.91-1.84-8.79-9.71-6.26-22.92-10.36-34.11Q403,559.4,344.24,488.7c-5.06-6.09-12-11.29-13.27-20a3.38,3.38,0,0,1,1.78-2.58,11,11,0,0,1,3.16-.61c12,.15,21-7,29.53-13.81,14.05-11.22,28.73-22.24,35.46-40.11.39-1,1.7-1.16,2.76-.45,29.15,8.57,57.19,20.13,85,32.15q30.61,13.22,61.84,24.77c5.57,2.05,10.14.92,14.8-1.57,8-4.27,16.65-6.22,25.41-7.7,2.1-.35,7.61-2.43,5,4.06-18.31,8.47-33,21.32-45.49,37-2,2.44-2.13,5.25-3.78,7.55-2.55,5.08,3.32,4,4.68,6.31,1.93,3.26,5.73,5.5,5.2,10-2.7,5.25-7.42,4.14-11.68,3.29a24,24,0,0,0-15.16,1.42l-.87,1.19c-7.65,11.28-20.43,9.13-31.16,11a203.05,203.05,0,0,1-66.33.73c-3.07-.49-6.48,1.12-9.74,1.76l-.12,0c-1.89-1.89-4.91-.11-6.78-2.07L400.89,536c-1.49,6.12,4.86,6,7.08,9a199,199,0,0,0,16.37,19.25c12.92,13.12,27.71,20.16,46.21,18.94C484.27,598,493,616.23,503.61,633,521.6,661.43,538.13,690.75,555.28,719.68Z"/><path class="cls-56" d="M555.61,522.57c-3.63-6.56-10.73-9.82-15.36-15.44,2.61-3.11,4.19.51,6.17.24,5.52,4.8,11.16,9.4,15.28,15.66s2.11,10-4.51,10.93c-9.84,1.4-19.82,2-28.6-4.34l0,.11c4.07-3.71,4.07-3.73,9.23-3.33,4.71.37,9.36,1.58,14.15,1.09C555,527.18,556.85,526.05,555.61,522.57Z"/><path class="cls-57" d="M602.17,485.33c5.49-.12,11-.82,16.37,1.08,5.63,2,4.39,4-.06,5.88a14,14,0,0,0-12.59-1.5c-4.39,1.47-9.2,2.29-13.5-1.32C594.9,485.42,599.94,488.84,602.17,485.33Z"/><path class="cls-58" d="M604.28,514.17l9,7a9.63,9.63,0,0,1-8.49,4.31c-3.42-.7-8.57.32-8.42-4.93C596.52,516.66,600.12,514.46,604.28,514.17Z"/><path class="cls-59" d="M470.55,583.25c-4.3,2.76-9.12,2.57-13.88,2.31-17.61-1-46.27-24.86-48.7-40.5,14.45,4,29.61,6.48,43.11,12.58C460.87,562.07,465.63,573.44,470.55,583.25Z"/><path class="cls-2" d="M414.46,541c2.57-.32,5.09-.5,6.78,2.07C418.74,543.14,416.35,542.86,414.46,541Z"/><path class="cls-52" d="M336.28,467.2c-.73,0-1.46-.06-2.19-.11-2-1.88-4.68-1-7-1.58-5.95-2.71-9.67-8-14.23-12.32-9.1-8.57-20.83-12.27-31.67-17.65-16.18-2.83-28.5,4.67-39.81,14.87-2.72,2.45-5.43,4.92-8.14,7.38-6.07,3.31-11.89,2.11-16.11-2.68-4.41-5-8.25-3.92-12.72-.9-2.19-1.79-2.82-4.31-3.26-6.92.84-4.62-.48-8.44-3.6-12a17.53,17.53,0,0,1-4.72-10.86c6.92-5.94,14.24-11.07,24.24-13.64-9.85-3.79-19.57-8-29.59-11.3a276.88,276.88,0,0,1-98.19-57c-3-2.66-5.16-6.24-7.71-9.38-13-14.21-15.82-30.85-11.83-49.14l2.91-6.63c6.54,2.08,7.1,7.14,6.75,12.53,1.53-1.89-.19-6.79,4.57-6.7,2.64,0,3.39,2.27,3.5,4.62-2.63,9.68.66,16.42,9.81,20.67a34.23,34.23,0,0,1,17.55,17.64c3.64,8.17,9.47,13.14,19.26,14.41,10.28,1.33,16.11,11.19,24.21,16.8,9.37,6.49,18.95,12.79,28.18,19.54,25.74,13.37,51.93,24.92,82.05,21.51,25.61-3.48,47.9-13.52,65.3-33.16,15.12-19.13,30.8-37.87,39.89-61,3-7.59,12.16-10.91,14.36-20-7,15.39-35.14,29.63-54.71,28.19-4.55-1.53-8.44-3.63-8-9.4a10.17,10.17,0,0,1,4.94-7.05c7.71-5,11.82-12,12.21-21.17.35-8,6.32-11.13,12.08-14.56,3.93-2.33,8.18-4.68,3.48-10.07,2.6-7,10.08-6.71,15.27-9.53,9.73-5.29,19.85-9.45,18-23.35,3-2,3.53.48,4.37,2.59-.51-4.33-4.35-7.66-3.05-12.28a7.49,7.49,0,0,1,1.58-2.73c.47-.56.9-1.11,1.38-1.58-1.46-1-.88,1.46-2,1.18a4.25,4.25,0,0,1-2.63-.65c-5.73-4.54,2-10.08-1.16-14.81-4.55-16.49-9.88-32.63-17.08-48.23C367.45,129.22,357,122.84,349,114c5.67-19-2.81-35.69-9.13-52.53a130.5,130.5,0,0,0-13.33-25.61c-2.45-3.74-5.19-7.87.83-11.14,19.63,9,32.46,25,43,42.88,6.31,10.72,11.51,22.09,17.21,33.17,15.58,34.41,23,71.16,30.93,107.77,2.35,15.76,4.92,31.48,7,47.28,3.62,27.59-5.51,52.71-15.91,77.43-8.6,20.45-19,40.21-22.09,62.61-.48,3.51-.78,3.47-8.41,3.73,3.3,6.86,10.87,5.8,15.7,9.22,1.19,5.18.85,9.66-2.76,14.33C377.13,442.53,358.7,457.34,336.28,467.2Z"/><path class="cls-60" d="M336.28,467.2c9.56-10.41,23.45-14.62,33.82-24.26,8.17-7.6,14.28-16.92,22.58-24.06,4.12-3.54-4.12-8.14,2.2-10.07,3.19-.25,6.3-.19,8.78,2.29-1.37,10.61-9.19,17.24-15.86,24.2-12.83,13.38-26.55,25.85-44.61,32.06C340.94,468.14,338.5,470.4,336.28,467.2Z"/><path class="cls-61" d="M192.83,424.39c3.72,4.81,7.18,9.86,11.23,14.37,3.66,4.06-1.64,5.51-1.83,8.35,1.6,4.16.48,7.87-1.87,11.38q-7,35.64-13.91,71.27c-3.24,6.17-9.38,6.36-15.16,7.53-22.84,4.65-46.15,5.45-69.15,8.68a73.36,73.36,0,0,0-25,8.38l-6.25.3c-2.94,1.67-6.51-.23-9.41,1.68-5.84,2.16-12.2,2.84-17.11,6.68-3.54-2.73-1.31-5.59-.49-7.28,7.18-14.9-.45-24.55-11.35-33-8.7-6.73-17.66-13.11-27.38-20.29,10-5.32,20.38-5.78,31.76-6.69L28.35,483a5.84,5.84,0,0,1,7-1.86c7.32,3.46,13.82,5,18.42-4,.4-.77,3.37-1.32,3.79-.83,7.5,8.9,14.65,1.12,20.62-1.42C116.63,458.54,154.67,441.32,192.83,424.39Z"/><path class="cls-50" d="M85.62,289.16c-.26-1.38-.27-3.84-.8-4-4.65-1-2.25,4.34-4.83,5.64l-7.33-13.52c3-8,5.44-16.15,6.37-24.7l3.09-10.89c6.45,10.7,15.12,15.95,26.11,18.25,8.63,1.81,12.1.21,12-9.57-.2-30.17-2.51-60-9.27-89.49.3-5.21.38-10.37-3-14.84-5-4.51-7.94-17.06-17.34-4.35-.71.95-1.2.59-2.27-5.19,5.06-31.11,24.39-53.93,44.38-76.37,5.11-1.92,7.71-6.79,11.74-10,1.85-1.47,3.58-4.88,6.33-2.39,2.19,2,.58,4.84-.66,7.18-1.58,3-3.76,5.51-5.62,8.27-7,10.32-12.05,21.26-10.91,34.24,1,11.37,6.95,15.21,17.29,10.45a68.44,68.44,0,0,0,14-9.06c7.45-6,15.4-7.31,24.93-6.3,33.7,3.56,31.22,10.17,51.94-24.68,6.45-10.85,7.83-21.26,4-32.88-1.37-4.22-3.24-8.29-3.75-12.78-1.33-11.58.86-14,12.93-14,.56,0,.44-.22-.41-.27-2.13-.14-4.46.67-6.17-1.37,8.07-2.81,16.4-1.23,24.63-1.47l7.37,1.56,3.78.59c1.64.62,3.4.79,5.07,1.3l6,1.15,16.45,6.72c18,21.28,30.85,45.1,35.75,72.85,1.75,9.93-1.71,17.12-9.7,23.08-14.06,10.47-21.85,25-25.2,42-.61,3.12-2.17,7.77,2.72,8,9.38.52,7.92,7.09,8.2,12.76.7,13.69-1.19,27.46,1.25,41.09,1,4.13,2.57,8.15,2.94,12.44a35.66,35.66,0,0,0,1,7.2,21.76,21.76,0,0,1,.64,2.65,32.53,32.53,0,0,0,1.34,6.31c.36.76.69,1.53,1.05,2.29a12.19,12.19,0,0,0,2.4,3,8.44,8.44,0,0,0,6.49,1.74c6,0,11.49-5.9,17.85-1.56,2.67.78,6.84-.68,7.54,3.09.6,3.3-2.87,5-5.49,6.12-10.58,4.64-16.78,12.17-17.06,24.09-.25,10.51-11.19,11.73-16.08,18.23-7,11.48-19.75,15.91-30.84,18.57-23.44,5.62-46.82,11.83-70.63,16.07-21.07,3.76-42,4.45-63,1.15-25.74-5.87-48.35-18.66-70.61-32.18a13.84,13.84,0,0,1-5.18-5.72c-1-1.93-.91-4.14-1.59-6.15A5.17,5.17,0,0,1,85.62,289.16Z"/><path class="cls-62" d="M103.46,152.22a1.75,1.75,0,0,1,.65,1.78c1.52,2.16.18,5,1.73,7.16,4.31,12.36,6,25.24,7.46,38.17.34,3.07-.09,6.45-3,7.83-3.52,1.64-5.63-2-7-4.09-8-12.88-12.15-26.67-8.31-42,2.42-2.6-.11-6.38,2.16-9l0,0c1.43-1.08.94-3.23,2.4-4.29l.07,0c.6-.7,1.17-.71,1.7.08l.15.16C103.12,149,102.58,150.93,103.46,152.22Z"/><path class="cls-63" d="M90.66,185.67c3.68,5.52,1.16,13.15,6.56,18.28,2.38,2.27,4.12,6.37,7.32,6.38,14.27,0,10.18,10.16,10.45,18-5.83,4.73-10.82,13.18-19.73,4.48-2.91-3.85-4.34-8.35-5.76-12.87C87.18,208.4,84.38,196.88,90.66,185.67Z"/><path class="cls-64" d="M97.18,232.49c4.69,3.2,8.9,3.22,11.94-2.15,1.47-2.6,2.95-4.11,5.87-2,.93,6.12,2.43,12.1,2.24,18.43-.34,11.56-2.18,13-12.83,8.21-4-1.77-7.6-4.21-11.39-6.34C94.34,243.21,93.07,237.15,97.18,232.49Z"/><path class="cls-65" d="M97.18,232.49c-1.9,5.23,4.14,12.53-4.18,16.1-8.32-7.43-8.12-17.65-9-27.52,3-8,5.67-4,8.36.19Q94.8,226.87,97.18,232.49Z"/><path class="cls-66" d="M92.4,221.26c-2.75-1.73-5.47-5-8.36-.18-.8-7.66-.64-15.36-1.7-23.06-.68-5-2.64-13.86,8.32-12.35C90.94,197.55,89.06,209.53,92.4,221.26Z"/><path class="cls-67" d="M108,146.09c5.38,4.72,5.62,5.94,3,14.84Z"/><path class="cls-68" d="M97.16,152.09c.27,3.25,1,6.59-2.16,9C94.89,157.91,94.17,154.56,97.16,152.09Z"/><path class="cls-68" d="M105.84,161.16c-2.46-1.93-2.34-4.48-1.73-7.16C106.62,155.92,106.16,158.55,105.84,161.16Z"/><path class="cls-68" d="M103.46,152.22c-1.87-.82-2.18-2.38-2-4.18C103.45,148.8,103.6,150.44,103.46,152.22Z"/><path class="cls-68" d="M99.54,147.84c.08,1.92-.48,3.49-2.4,4.29C97.15,150.26,96.94,148.26,99.54,147.84Z"/><path class="cls-68" d="M101.31,147.88l-.86.17-.84-.25C100.24,146.48,100.82,146.19,101.31,147.88Z"/><path class="cls-69" d="M625.31,735.74c32.18-4.93,59.59-19.78,84.21-40.43,1.66-.59,3.24-1.27,4.15-2.91l-.15-.16c7.62,2.65,4.81,8.14,2.61,12.35a50.4,50.4,0,0,1-13.64,16.33,6.56,6.56,0,0,0,2.42-1.5c5.26-3.79,10.5-11.18,17.24-6.6,6.58,4.48,11.17,12,9.1,21.28-.33,1.45-.21,3-.47,4.44-11.63,17.79-27,31.91-43.27,45.38-18.53,15.36-39.65,25.48-62.1,33.41a41.39,41.39,0,0,1-17.22,2.48,30.42,30.42,0,0,0-3.31.34c-21.48,4.42-21.72,4.43-22.75-17.22-.92-19.09-5.62-37.34-11.07-55.46-3.06-10.17-2-11.79,9.13-11.51,4.38.11,8.73.94,13.09,1.45,6.66.07,13.31-2.31,20-.09C617.36,737.37,621.54,738.13,625.31,735.74Z"/><path class="cls-70" d="M716.11,777.74l-33.48,31.33c-26.21,16.41-54.52,28.16-84,37-4.24,1.27-12.08,5.49-13.84-2.76-1.46-6.85-3.17-15.67,9.22-17.08,5.57-.63,12-.3,17-4.14,21-8.76,43.26-14.63,61.92-28.56a425.63,425.63,0,0,0,34.24-27.87c2.62-2.43,4.43-6.09,8.67-6.34,4.3,2.82,4.84,7.12,4.6,11.73Q718.28,774.38,716.11,777.74Z"/><path class="cls-71" d="M716.14,759.94c-18.91,17.68-38.6,34.39-61.5,46.75A153.26,153.26,0,0,1,611,822.06l-2.82-2.25c33.88-9.17,64.3-24.56,90.25-48.67a289.6,289.6,0,0,0,30.65-33.75c5.44-12.63,12.07-24.35,24.38-31.69a3.71,3.71,0,0,1,1.82,2.38c-.9,7.48-6.71,12.23-10.17,18.29-.83,1.21-1.69,2.4-2.48,3.63-1,1.67-2.1,3.3-3.19,4.93C731.9,743.47,727.25,754.72,716.14,759.94Z"/><path class="cls-12" d="M613.26,737.32c-6.66,0-13.3,3.07-20,.09A22.18,22.18,0,0,1,613.26,737.32Z"/><path class="cls-72" d="M184.39,570c9-42,24.63-80.74,55.49-111.92,9.44-.33,15.94,7,24.68,9.17,19.22,4.68,38,4.86,56.83-1.16a8.06,8.06,0,0,1,7.88,3.18c18.29,23.27,37.48,45.92,51.17,72.43.35.87.64,1.78.91,2.67s.58,1.65.85,2.48c.44,1.13.86,2.28,1.36,3.39.36.66.67,1.36,1,2.06.46,1,.89,2,1.4,3a11.62,11.62,0,0,1,1,1.92c.47,1,.92,1.92,1.44,2.86a13.67,13.67,0,0,1,1,1.88c.5.95,1,1.92,1.43,2.89a16.87,16.87,0,0,1,.9,2c.47,1,1,2,1.5,3,.37.65.69,1.33,1,2s.69,1.33,1,2a21.93,21.93,0,0,1,.94,2c.48,1,1,2,1.51,2.95a14.69,14.69,0,0,1,1,2c.51,1,1,2,1.44,3a30.88,30.88,0,0,1,1,3.24c.38,1.08.8,2.14,1.24,3.19a15.58,15.58,0,0,1,.73,2.22,37.73,37.73,0,0,0,1.56,4.44,19.86,19.86,0,0,1,.77,2.29c.45,1.56,1,3.09,1.56,4.61a18.85,18.85,0,0,1,.82,3.61A23.42,23.42,0,0,0,409,612.1a19.8,19.8,0,0,1,.76,2.37c.45,1.61,1,3.18,1.59,4.74a15.22,15.22,0,0,1,.68,2.46,34.91,34.91,0,0,0,1.17,5c.32.8.57,1.62.81,2.44a64,64,0,0,0,2,6.16,22.29,22.29,0,0,1,.81,3.88c.4,1.74,1,3.43,1.53,5.14a15.83,15.83,0,0,1,.56,4.1c-.14,2.42,1,4.54,1.67,6.76a18,18,0,0,1,.59,4.31c0,2.55,1.21,4.82,1.81,7.24a26,26,0,0,1,.42,4.74,8.06,8.06,0,0,1-1.73,6.15c-10.49,3.22-20.45,8.54-32.27,4.93-5.7-1.74-10.51-3.89-13.39-9C366,655.69,355.23,638.28,346.14,620a27.15,27.15,0,0,1-2.85-9.59c-.62-6.87,2.73-9.64,9.37-8.68,2.6.37,4.91,1.68,7.33,2.63s5,2.51,7.2.07c2-2.18,1.15-4.93.29-7.41-2.71-7.88-7.79-14.36-12.68-20.9-10-13.39-19.88-26.94-34-36.53-3.08-2.1-6.1-4.26-9.69-5.42-2.91-.94-5.93-1.47-8.42.84-2.73,2.54-1.39,5.53-.26,8.27,3.88,9.37,10.17,17.26,15.84,25.53,1.89,2.75,4.14,5.28,5.34,8.46,1.07,2.86,1.74,5.87-.74,8.33s-5.49,1.81-8.35.73c-4.56-1.74-8.29-4.93-12.51-7.28-2.69-1.51-5.53-2.57-8.3-.31s-2.64,5.18-1.82,8.18c1.68,6.16,4.74,11.7,8,17.12a101.78,101.78,0,0,1,8.24,15.8c2.45,6.38,1.75,12.09-5.3,14.75-7.78,2.93-7.51,7.77-4.92,14.2,3.05,7.58,5.46,15.42,7.89,23.22,1.44,4.62,2.92,9.33-.08,14-6.8,1.7-8-4.05-9.88-8-10.22-22.12-23-42.5-39.24-60.72-12.48-14-26.76-25.74-42.06-36.38a18.69,18.69,0,0,0-14.91-3.12C192.28,579.26,187.27,576.9,184.39,570Z"/><path class="cls-46" d="M184.39,570c4.73,4.64,9.75,5.8,16.74,4.8,14.67-2.08,23.35,9.75,33.25,17.56,29.07,22.94,49.72,52.43,64.58,86.16,1.32,3,2.51,6.31,6,7.67,6.89,3.34,10,9.1,8.63,16.38s-8.24,7.59-14,8.86c-14.77,3.26-29,7.29-44.74,7.49-26.82.33-48.31-9.78-68.1-26-5.06-9-5-19.26-7.1-29q0-19-.07-38.08l2.31-35.71c-1.17-2.87-1.79-5.71.41-8.41Z"/><path class="cls-73" d="M322.85,467.22c-2.73,3.39-6.32,4.3-10.6,4.87-25.75,3.4-50.6,2.82-72.37-14,6.27-8.7,15.09-13.94,24.62-18.22,1.49-.59,3.23-.3,4.59-1.33l6.9-.61c20.76-.44,34.58,11.62,47,26.15C323.67,464.88,323.27,466.17,322.85,467.22Z"/><path class="cls-74" d="M77.1,554.35c10.06-13.61,25.6-11.5,39.53-13.28,23.41-3,47.2-3.47,69.82-11.31-2.09,20.31-5.07,22.87-25.87,24.5-24.66,1.93-49.36,1.69-74.05,2Z"/><path class="cls-75" d="M322.85,467.22c-12.31-15.06-27.65-25.28-46.86-29.31l5.2-2.37c15,.41,25.83,9.06,36.14,18.63,4,3.73,8,7.43,12.06,11.15a2.34,2.34,0,0,1,1.86,2c17.49,23.41,36.47,45.78,51.07,71.22a321.41,321.41,0,0,1,39.24,111.3c1,2.08-.1,3-1.95,3.41-2.38-1.18-1.43-3.93-2.67-5.64l-.42-3.94a21,21,0,0,1-1.7-5.67l-.44-3.26c-1.83-1.9-.07-4.9-2.09-6.74v0c-1.92-2.1-.56-5.11-2-7.33a1.17,1.17,0,0,0-.52-1.61,27,27,0,0,1-1.64-5.57l.21-.66-.54-.44c-1.31-1.53-1.22-3.56-1.92-5.31-.23-1.22-.47-2.44-.7-3.67-.83-1.49-.64-3.36-1.7-4.78a1.7,1.7,0,0,0-.55-1.92c-.82-1.48-.59-3.34-1.71-4.7a1.7,1.7,0,0,0-.51-2c-.62-1-1.52-2-1.45-3.34l-1-3.38c-.42-1.07-1.31-1.94-1.31-3.18a.79.79,0,0,0-.44-1.25,4.88,4.88,0,0,1-1.77-3.25.89.89,0,0,0-.64-1.24c-.75-1-1.61-1.93-1.61-3.29A.73.73,0,0,0,392,570c-.9-1-1.78-1.94-1.73-3.4l.15-.64-.52-.41c-1.37-1.23-.93-3.31-2.19-4.58l0,.06c-1.42-1.16-1-3.26-2.3-4.49l0,0c-1.36-1.22-1-3.27-2.22-4.55l0,.06c-1.42-1.17-1-3.26-2.28-4.51l0,.05a4.28,4.28,0,0,1-1.93-3.31A335.16,335.16,0,0,0,322.85,467.22Z"/><path class="cls-76" d="M204.92,454c2.19-7.86,5.89-9.91,11.46-2.69,4.38,5.66,10.53,6.2,16.86,6.53l-.27.28a3.21,3.21,0,0,1-1.89,2l-.21.28a7.29,7.29,0,0,1-1.87,2.3c-13.65,18.18-26,37.13-34.62,58.44-1.19-19.37,9.49-36.56,8.21-55.64C205,462,200.82,457.11,204.92,454Z"/><path class="cls-77" d="M204.92,454c-.9,3.81.44,8.07-2.33,11.5-.79-2.31.28-5.21-2.23-7q.93-5.69,1.87-11.38C206.3,448.15,204.42,451.51,204.92,454Z"/><path class="cls-78" d="M182.35,581.66l-.41,8.41c-2.56-1.9-1.88-4.85-2.42-7.41l.45-6C180.77,578.35,181.56,580,182.35,581.66Z"/><path class="cls-52" d="M269.09,438.52a3.94,3.94,0,0,1-4.59,1.33A3.9,3.9,0,0,1,269.09,438.52Z"/><path class="cls-52" d="M229,462.65l1.87-2.3Z"/><path class="cls-52" d="M231.08,460.07l1.89-2Z"/><path class="cls-79" d="M738.41,586.27c-4.62-1.18-7.76-4.48-10.94-7.72-3.09-3.44-.86-7.06-.22-10.55,2-11,2.08-11-9-11.35-3.67-10.77-12.76-16.83-20.93-23.51-11.92-9.74-18-21.08-12.27-36.56q11.1-15.81,22.21-31.63a37.84,37.84,0,0,1,4.87-6c5.82-6.09,7.88-3,8.62,3.47a84.48,84.48,0,0,1-8,24.18c11-1.65,17.93-9.2,21.61-20.38a4.92,4.92,0,0,1,5.21-3.46c2.74.36,3.19,2.92,3.51,5,.81,5.25,3.33,9.84,5.19,14.67,1.08,2.36,3.81,3.23,5,5.5,2.35,5.27.35,10.11-1.45,15-3.35,9-6.22,18.22-5.84,29.43,2.6-3.65,3-7.1,4.63-9.88,2.47-4.16,5.28-7.41,10.63-4.06,1.37,13.48.86,26.48-7.26,38.28-3.56,5.18-4.53,11.69-6.92,17.5-1.81,4.38-3.23,9.23-8.51,11Z"/><path class="cls-80" d="M751.85,487.45c-2.27-.46-5.06.39-6.35-2.54-.56-13.11,10.94-21.17,13.85-33,1.43-5.79,3.45-11.34,3-17.38-.21-2.51,0-5.64-3.5-6.08-2.82-.36-4.9,1.49-6.56,3.56-1.43,1.8-1.57,4.1-2.12,6.26-2.69,10.46-3.78,10.88-13.53,5.22.54,12.72-9.62,15.21-18.1,19.33-.76-2.27,1.22-8.38-4.72-3.36q-3.25,2.75-6.53,5.47,4.25-10.06,8.47-20.14c3.54-9.36,5-19.91,14.46-25.95,3.17-3.16,2.92-7.26,3.3-11.27.46-4.82-.66-11,8-9.42,3.18.57,3.4-3.13,4.26-5.46,1.35-3.63.39-8.24,4.51-10.71,1.91,1.18,2,5.49,5.53,3.67,2.92-1.53,2.79-4.8,2.9-7.71,12-7.66,20.72-18.3,28.45-30.17,3.14-4.81,5.75-11.42,13.18-12.05q.21,3.19.4,6.4c-5.61,16.16-15.59,29.35-28.41,40.31-8.07,6.88-9.62,15.33-8.4,25,.28,2.22.32,5.19,2.09,6.16,11.84,6.45,7.88,16.55,6.47,26.12a27.35,27.35,0,0,1-.82,4.84,41.73,41.73,0,0,0-1.36,6.37c-3.67,9.73-6.45,19.79-10.37,29.43C757.3,482.83,754.66,485.23,751.85,487.45Z"/><path class="cls-81" d="M800.29,335.74c-9.53,9.4-15.56,21.48-24.19,31.57-4.67,5.47-9.81,10.08-17.44,10.65-.72-12.27,1.46-24.2,4.28-36.06,4.67-13.88,9-28,24.87-33.61,3.93,4.21.73,13.2,10.46,14.21C800.41,322.72,801.54,330.85,800.29,335.74Z"/><path class="cls-82" d="M750.23,382c-.85,4.67-2,9.3-2.48,14-.91,8.83-4.38,10-10.2,3.25-3.64,7.09,2.53,15.81-5.64,20.83-3-3.16-2.77-9.88-10.52-7.58-4,1.17-6.33-2.89-6.27-7.08.06-5.44-.69-10.91.49-16.32.18-2.49.35-5,.53-7.57,5.35-.12,4.94,6,9,7.14,4-1.81,1.3-6.77,4-9.17,2.09-.67,2.7-2.38,2.5-4.24-1-8.8,3.9-12.46,11.71-13.66Q746.82,371.8,750.23,382Z"/><path class="cls-83" d="M787.81,308.29c-10.59,9.93-21.08,19.92-22.78,35.55,0,.2-.42.35-.64.52-.49-.82-1-1.64-1.45-2.46-.31-12.1,5.91-23.35,4.62-35.58,4.57-4.3.49-11.11,4.52-15.57C775.09,298.6,783.45,301.65,787.81,308.29Z"/><path class="cls-84" d="M715.61,389.1c.11,4,0,8,.35,12,.64,7.24,1.22,14.85,10.76,5.67,3.06-2.95,4.57-.71,4.85,2.36.34,3.63.25,7.3.34,10.94-8.1,6.47-10.1,16.93-16.19,24.73,1.9-14.39-1.81-28.54-1.73-42.84C714,397.67,712.86,393.11,715.61,389.1Z"/><path class="cls-85" d="M743.41,361.6c-6.93,4.18-10.69,9.83-10.26,18.41.12,2.35-2.69,1-3.94-.5,1-9.74,1.1-19.64,5.31-30.06C738,353.8,744.22,354.77,743.41,361.6Z"/><path class="cls-86" d="M557.71,930q4.15-8,8.29-16l2.78-1.94c2.75,1.18,5.56,2.57,7.06,5.13,6.23,10.6,14.69,18.28,26.7,21.78,3.09.9,4.11,4,5.94,6.3-6.33,3.85-12.88,2-19.23.4-8.61-2.22-17-5.1-25.62-7.5C559.33,937,555.87,935.49,557.71,930Z"/><path class="cls-87" d="M608.48,945.26c-17.39-6.1-30.88-16.87-39.7-33.21,8.73-1.58,13.73,5.07,19.7,9.25a85.45,85.45,0,0,1,18,17.63c1.59,1,.93,3.1,2.2,4.23Z"/><path class="cls-88" d="M624.69,918.47l1.32,4.46c-16.46,2.86-30.34-5.61-32.73-20v0a4.87,4.87,0,0,0,1.81-3.09c4.51-4.44,7.18,0,10,2.28C611.76,907.45,618.19,913,624.69,918.47Z"/><path class="cls-89" d="M593.28,903c.23,4.7,5.63,4,7.66,7.79,5.15,9.51,13.51,14.72,25.07,12.16L624.62,925c-9.78-1.5-20.53,2.72-29.16-5.85C590.24,914,588.47,909.12,593.28,903Z"/><path class="cls-86" d="M608.73,943.16a4,4,0,0,1-2.2-4.23A4,4,0,0,1,608.73,943.16Z"/><path class="cls-89" d="M595.1,899.85l-1.81,3.09Z"/><path class="cls-48" d="M326.75,829.56c-11.32,6.77-24.65,1.73-36.44,6.24-5.42,2.07-11.34,2.82-17,4.17-19.95,4.85-30,11.11-38.66,24.41,5.11.84,5.74-5.81,9.94-5.44,5,19.18,1,26.16-17.49,30.45-18.76,4.37-38,6.73-56.1,13.91-9.21,4.48-15.78,2.76-21.68-6.45-5.22-8.16-12.88-14-22.71-4.78-2.4,2.25-4,1.76-6.19-.9-3.69-4.54-8.06-8.53-12.14-12.75,1.9-5.62,1.89-12.08,7.18-16.19l3.8,2.93a3.92,3.92,0,0,0-.27,4.09c3.37,3.91,8,4.62,12.82,5-5.05-.61-10.16-1.08-13.1-6.09a3.64,3.64,0,0,1,.72-2.88l7.54,1.27c-15.23-13.79-27.29-28.27-29.39-48.6,2.7-3.77,6.15-6.32,10.92-6.83,23.51-2.52,41.64-16.25,59.89-29.34a121.78,121.78,0,0,0,28.47-27.81c1.9-2.66,4.31-5.15,8-5.61l4.17,4.82c23.1,33.91,54.41,56.81,93.35,69.37C310.36,825.12,318.59,827.22,326.75,829.56Z"/><path class="cls-54" d="M106.17,911.93,75,925.62c-.55-.53-1.33-1.32-1.11-1.79,7.86-16.3,17.58-31,34.65-39.12C121.26,896.73,120.94,900.4,106.17,911.93Z"/><path class="cls-54" d="M140,893.31c5.29,4,12.1,8.63,11.18,14.84-.47,3.21-9.55,5.42-15,7.57-8.47,3.39-17.11,6.34-25.68,9.48-1.17-4.61,1.64-7.82,4.32-10.68A128.89,128.89,0,0,1,140,893.31Z"/><path class="cls-47" d="M61.52,909.72l-10.28-.56a17.31,17.31,0,0,1,8.1-12.68c9-4.5,15.14-13.3,24.91-16.65a6.26,6.26,0,0,1,1.7.93c2.64,6.76-5.11,20-14.47,24.6C68.23,906.94,64.85,908.27,61.52,909.72Z"/><path class="cls-90" d="M108.55,884.71c-13.21,12-25.7,24.53-33.54,40.91-1.07,1.66-2.75,1.59-4.42,1.52,3.49-18.57,16.14-31.61,27.65-45.24C102.78,876.53,105.73,881.44,108.55,884.71Z"/><path class="cls-91" d="M115.42,862.23c-1.57,5.76-1.45,12.27-7.18,16.19-4.92-3.29-9.6-3.82-13.68,1.31-3.2,4-4.82.78-6.72-1.35-4.28-9.87,7.13-8.35,9.64-13.29C103.31,863.24,107.66,852,115.42,862.23Z"/><path class="cls-53" d="M140,893.31c-4.31,7.54-11.57,12-18,17.4-4.76,4-9.14,8.49-11.48,14.49-1.22.75-2.38,1.89-3.7,2.13s-1.92-1-1.16-2.24c7.39-11.93,13.54-24.87,26.41-32.37C135,891.05,137.59,890.44,140,893.31Z"/><path class="cls-92" d="M753.93,705.36q-12.42,16-24.83,32c-.42-6.55-.05-12.59-4.86-18.86-4.13-5.4-5.77-6-10.74-2.27a58.8,58.8,0,0,1-19.34,10.17c5.41-5.93,11-11.68,16.18-17.84,3.93-4.7,9-9.57,3.18-16.34,13.77-14.56,22.84-32.32,33.45-49,10.79,4.17,17.42,17.35,16.64,33.08-.22,4.44-1.72,8.75-1.33,13.25C761.47,695.86,759.76,701.7,753.93,705.36Z"/><path class="cls-93" d="M760.2,690.45c-1.62-8.89,2-17.72-1-27-2.61-8-5.62-15-12.28-20.27a2.5,2.5,0,0,1,.76-1.7c.58-.9,1.4-1.67,1.54-2.82,4.8-12.16,11.52-23.71,12-37.26,14.4-3.51,15.05-3,15.05,10.33,0,8.51.35,17,.55,25.51a101.21,101.21,0,0,1-11.76,44.21C763.49,684.48,764.94,689.17,760.2,690.45Z"/><path class="cls-92" d="M713.67,692.4c-.71,1.93-.72,4.86-4.15,2.91A4.87,4.87,0,0,1,713.67,692.4Z"/><path class="cls-92" d="M749.27,638.7l-1.54,2.82Z"/><path class="cls-94" d="M769.79,440.38a22.7,22.7,0,0,1,0-4.44c1.43-7.36,5.43-14.28-5.65-19.34-6.09-2.78-5.3-25,.37-29.86,14.87-12.69,25-29.05,36.16-44.6,2.39,17.05,4.47,34.15,7.27,51.13,1.86,11.21,9.82,18.41,18.29,25.26,7.58,6.14,15.86,12.34,13.34,24.23-5.6-1.45-10.78-2.65-14.15,4.38-1.84,3.83-5.2,3-7.77-.12a13.82,13.82,0,0,1-1.23-2.91C805.78,433,805,416.61,795.18,405.06c-2.49-2.94-3.88-6.22-3.69-9.64-3.55,7.67,3.69,16.32-.81,24.47-5.08,1.63-4.15-1.8-4.28-4.71a62.86,62.86,0,0,1-6.9,18.14C777.33,436.92,775.54,441.51,769.79,440.38Z"/><path class="cls-51" d="M818.7,444.69l.29,2.38c.92,1.19,1.9,2.68,1.65,4-1.27,6.44-3,12.81,7.41,12.35,1,0,.87,2.47-.19,3.73l-2.52,8.94c-3.26,4-3.74,9-4.76,13.74a2.09,2.09,0,0,0-.68,1.53l-1,2.64c-5.42,4-9,8.38-9.5,16.06-.45,7-5,4.34-8.15.69-.26-.23-.46-.67-.75-.75-15.51-4.35-15.51-4.35-13.25-20.7a16.79,16.79,0,0,1,3.29-7.6c3.45-3.55,6.55-7.62,6.7-12.56.34-10.92,8.46-18,12.57-27,1-2.31,2.95-4.76,5.95-4.07C819.22,438.89,816.73,442.9,818.7,444.69Z"/><path class="cls-95" d="M827.86,467.15c-.05-.36-.05-1-.18-1-11.32-2.24-11.31-2.24-8.88-15.7a26.24,26.24,0,0,0,.19-3.33c3.22,1.94,4.72,0,5.67-2.67,3.89-10.83,9.7-3.44,14.93-1.64C837.38,451.71,833,459.6,827.86,467.15Z"/><path class="cls-96" d="M716.14,759.94l22.16-27.15a5.77,5.77,0,0,1,2.41,1,7.78,7.78,0,0,1,1.58,2.11,11.22,11.22,0,0,1,.68,3.89c-6.85,10.87-14,21.5-22.52,31.19C717.53,767.91,717.12,763.81,716.14,759.94Z"/><path class="cls-97" d="M743,739.83c-1.92-.91-2.21-2.65-2.27-4.51l0,0-2.42-2.55,3.06-4.15a3.57,3.57,0,0,1,1.67-2l11.15-18c.84-1.05,1.28-2.44,2.59-3.1a3,3,0,0,1,2.48.82,71.91,71.91,0,0,1-12,26.77,7.68,7.68,0,0,0-1.84,2.7,2,2,0,0,1-.87,1.77,8.2,8.2,0,0,1-1.56,2.27Z"/><path class="cls-98" d="M756.57,706.41l-2.39,2.2c-.09-1.08-.17-2.16-.25-3.24l6.27-14.92c1.42-3.11,2.07-6.64,4.93-9l.21,2.68c2,1.76,1.39,3.88.84,6C762.46,695.27,761.55,702,756.57,706.41Z"/><path class="cls-99" d="M756.57,706.41l8.7-16.3a1.94,1.94,0,0,1,.23,3c-1.35,4.77-3,9.41-6.25,13.26Z"/><path class="cls-100" d="M765.5,693.07c-.08-1-.16-2-.23-3q0-3,.07-5.94l3.8-.66C769.67,687.36,767.84,690.32,765.5,693.07Z"/><path class="cls-96" d="M743,739.84l1.56-2.27Z"/><path class="cls-96" d="M745.4,735.8l1.84-2.7Z"/><path class="cls-101" d="M248.45,6.58l14.82,1.14c-21.21,3-22,4.72-15.32,23.86,4.59,13.14,6,26.12-4.06,37.78a12.47,12.47,0,0,0-1.19,1.88c-18.16,30.57-19.5,31.52-54,24.39-8.69-1.8-14.87.18-21.45,5.16-5.55,4.21-11.49,8.42-17.93,10.85-11.11,4.19-17.58-.86-18.66-12.68-1.29-14.15,3.87-26.2,11.52-37.5,2.68-4,5.63-7.72,9.12-12.49-9,.65-9.72,12.57-18.5,11.21C150.58,38.41,174.59,26,199.9,15.56c8.33-3.84,17.37-4.86,26.21-6.69,3-1.72,6.55.09,9.56-1.53Z"/><path class="cls-74" d="M61.44,556.33c2.73-2.84,6.14-1.89,9.41-1.68C68.05,557.06,64.66,556.22,61.44,556.33Z"/><path class="cls-102" d="M382.52,836.11l-6.12-.81c-1.67-.64-3.48-.76-5.16-1.37l-12.7-.91c-1-.37-1.82-1.33-3-1.3l-3.66-.62c-2.23-1.48-5.05-.35-7.31-1.67l-.91.08-.7-.57c-2.19-1.63-5.06-.38-7.31-1.76l-.9.1-.72-.54c-2.31-1.62-5.22-.57-7.63-1.73l-.73.14-.55-.5c-1.93-2-5-.28-7-2.07l-2.05-.75c-1-.34-1.76-1.24-2.88-1.32l-.86.09-.67-.53c-1.69-1.18-3.72-1.28-5.64-1.76l-3.35-.82c-1.47-.8-3.3-.55-4.69-1.6a2,2,0,0,1-2-.67c-1.05-.52-1.94-1.42-3.24-1.34l-3.44-.74a6.65,6.65,0,0,0-3-1.53C255.08,799,231.44,776.87,210.82,751c-6.21-14.34-15.43-27.27-19.83-42.46,3-5,7.17-2.92,10.7-1.28C232,721.37,263.48,723.87,296,717.65c3.3-.63,6.62-.9,9.82.49,1.92,1.2,2.65,3.12.64,4.35-13.43,8.19-13.65,23.84-19.52,36-5.56,11.53,11.56,42.55,23.41,47.4,4.22,1.73,7.24.19,9.53-3.28,2.14-3.24,2.53-7,2.32-10.74a76.67,76.67,0,0,1,5.3-31.64c2.13-5.65,1.91-11.66,2.45-17.58,1.2-13.36,10.58-18.57,22.94-13.17C365,734.8,374.48,743.86,384,752.69c4.37,4.06,8.9,6.19,14.79,5q.15,12.81.29,25.64c1.39,3.21.21,6.81,1.53,10,.24,1.28.49,2.55.73,3.83.79,1.65.54,3.66,1.8,5.15a1.14,1.14,0,0,1,.43,1.52c.12,1.16,1,1.93,1.45,2.92l.6,2.07a7.5,7.5,0,0,1,1.39,2.36c.27.74.55,1.48.82,2.21,1.28,1.22.69,3.55,2.58,4.4l-.15-.19a14,14,0,0,0,1.65,2.58,1.22,1.22,0,0,1,.63,1.46,5.83,5.83,0,0,0,1.72,3,.76.76,0,0,1,.57,1.05c-.06,1.55.86,2.53,1.95,3.42l0,0a9.35,9.35,0,0,1,1.59,2.25,1.64,1.64,0,0,1,.84,1.67,5.71,5.71,0,0,0,2,2.87l.72-.18c-3.11,5.3-7.73,2.57-11.91,2.24C401,835.25,391.55,838.58,382.52,836.11Z"/><path class="cls-103" d="M398.79,757.69c-4,5.43-6.11,7.63-12.87.66-9.85-10.15-20.42-20.43-34-26.43-11.48-5.09-20.79.39-19.39,12.7a32.07,32.07,0,0,1-2,15c-4.14,11.33-6.38,22.76-5.56,34.84.46,6.75-1.67,12.32-8.42,15.49-7.34,3.45-9.78-3.13-13.72-6.42-9.8-8.19-14.26-19.62-18.6-31.14a24.07,24.07,0,0,1,2.22-22.35c3.92-6.28,7.77-12.28,7.71-20.38-.05-7.9,8.82-6.37,13-10,6.89-6.54,16-9.85,24.41-12.25,21-6,41.33-14.21,62.83-18.33a50.72,50.72,0,0,0,16.57-6c8.46-5,10.19-3.92,13.59,6.47-3,10.66-10.05,19.54-13.44,30-2.69,5.35-3.51,11.29-5.22,17-1.3,4.76-2.69,9.49-5.14,13.81Z"/><path class="cls-104" d="M400.83,750.39c-.67-5.25,1.27-10,2.87-14.81,3.33-.31,3.48,2.26,4.06,4.46.11,2.41-.24,4.65-2.29,6.28-3.42,5.6-.31,12.19-2.72,17.95C399.58,760,401.83,755,400.83,750.39Z"/><path class="cls-103" d="M400.61,793.36c-2.85-3-1.51-6.61-1.52-10C399.59,786.67,400.1,790,400.61,793.36Z"/><path class="cls-103" d="M403.14,802.34c-1.91-1.26-2.05-3.13-1.8-5.15Z"/><path class="cls-103" d="M410.41,817.82c-2.19-.68-2.61-2.41-2.58-4.4Z"/><path class="cls-103" d="M414.26,824.68c-.57-1-1.15-2-1.72-3C413.11,822.68,413.69,823.68,414.26,824.68Z"/><path class="cls-103" d="M416.78,829.15l-1.95-3.42Z"/><path class="cls-103" d="M418.35,831.35l-1.59-2.25Z"/><path class="cls-103" d="M421.17,835.89l-2-2.87Z"/><path class="cls-103" d="M405,806.78c-.48-1-1-1.94-1.45-2.91C404.06,804.84,404.54,805.81,405,806.78Z"/><path class="cls-1" d="M410.62,806.89c.48.9.95,1.8,1.42,2.71C411.57,808.7,411.1,807.79,410.62,806.89Z"/><path class="cls-103" d="M407,811.21l-1.39-2.36Z"/><path class="cls-1" d="M412.78,811.35l1.6,2.37Z"/><path class="cls-103" d="M411.91,820.21l-1.65-2.58Z"/><path class="cls-103" d="M318.13,822.58c2.56-.09,5.22-.54,7,2.07C322.58,824.62,320.13,824.36,318.13,822.58Z"/><path class="cls-103" d="M344.55,829.43c2.61-.23,5.3-.78,7.31,1.67l-2.22.55Z"/><path class="cls-103" d="M326.38,825c2.72-.22,5.55-.9,7.63,1.73C331.33,826.78,328.65,826.81,326.38,825Z"/><path class="cls-103" d="M335.63,827.18c2.63-.21,5.34-.78,7.31,1.76Z"/><path class="cls-103" d="M298,815.89c1.79-.14,3.48,0,4.69,1.6C300.86,817.71,299.2,817.46,298,815.89Z"/><path class="cls-103" d="M306,818.31c2.14-.24,4.22-.28,5.64,1.76Z"/><path class="cls-103" d="M286.3,811.61l3,1.53Z"/><path class="cls-103" d="M292.75,813.88l3.24,1.34Z"/><path class="cls-103" d="M313.2,820.51l2.88,1.32Z"/><path class="cls-105" d="M204.77,748.33c-20.34,29.55-49.24,48.1-80.94,63.08-8.33,3.94-18.52.32-26.29,6.51-1.83-9.11-3.79-18.23-.75-27.48,15.74,4.35,28.6-1.38,40.37-11.32a114.61,114.61,0,0,1,10.21-8.28c19.56-6.33,36.46-17.47,52.94-29.37C201.79,743.76,203.28,746,204.77,748.33Z"/><path class="cls-106" d="M99.74,767c6.52-14,11.09-29.06,22.25-40.5,5.53,6.43,13,.9,19.19,3.05,12.33,6.25,15.42,14.73,9,26.15A72.33,72.33,0,0,1,124.81,782c-5.83,3.57-12.32,5.72-19.14,2.83-4-1.7-8.67-3.48-6.37-9.6C99.45,772.5,99.59,769.77,99.74,767Z"/><path class="cls-107" d="M99.3,775.23c6.23,9.36,12.89,11.13,23,5.09a72.13,72.13,0,0,0,26.39-27.57c5-9,1.95-15.66-9-21.88,6-4.64,11.23-2.21,15.85,2.16,6.17,5.82,7.89,13,6.28,21.39S152.9,767,148.57,773.29c-11,8.21-20.37,19.52-35.23,20.88-5.59.51-12.57,4.14-16.55-3.72C96.72,785.22,97.19,780.09,99.3,775.23Z"/><path class="cls-108" d="M834.42,538.45c-5.62,3.83-5.12,11.06-8.85,15.93-6.07,9.12-12.49,18-16.82,28.19-1.53,3.61-4.56,5.6-7.7,7.5-6.55,2.61-13.17,4.93-20.38,4.64a3.39,3.39,0,0,1-.49-2.93c1.2-2.78,3.73-4.58,5.31-7.06,3.38-5.31,7.3-10.54,1.89-17-2.13-2.55-.82-5.66,0-8.52a20.93,20.93,0,0,1,1-2.77c.77-1.78,1.43-3.61,2.1-5.45a57.33,57.33,0,0,1,2.58-5.36c2.09-8.13,13.12-10.92,12.33-20.78.44-4.44,2.32-8.45,3.54-12.65,2.05-7.07,6.26-8.42,12.44-4.9,4.87.32,3.54-4.85,5.94-6.72a5.18,5.18,0,0,1,2.29,2.27c2.23,10.21,1.41,20.9,4.72,30.95Z"/><path class="cls-109" d="M834.3,533.78c-1.59.65-3.93,2.17-3.9-1,.1-10-4.24-19.64-2.14-29.74,5-2,2.11-9.81,8.18-11-.72,11.73,4.4,8.13,12.1.71-4.69,13.74-8.23,24.1-11.76,34.46-1.33,1.44-1,3.6-2.15,5.09C834.51,532.8,834.4,533.29,834.3,533.78Z"/><path class="cls-110" d="M821.35,507.28c-7.88-.91-11.79,2.13-11.48,10.52.11,3.19-1.43,6.44-2.22,9.66-3,4-5.41,9-11.95,6.26-2.44-4.57.43-9,.23-13.56,1.09-4.46.76-9.92,7.36-10.49,1.39,2.16,3.41,5.28,4.23.14s.18-10.63.18-18.31c4.3,5.28,7.74,6.62,11.24,2.5.1,2.23.19,4.46.29,6.69a14.47,14.47,0,0,1,1.44,2.5Z"/><path class="cls-111" d="M836.44,492c-2.48,2.26-1.7,5.3-1.82,8.07-.23,5.32-3,4.77-6.37,2.9-.31-.82-.64-1.63-1-2.45l10-18.27C840.51,487,837.1,489.32,836.44,492Z"/><path class="cls-108" d="M834.63,532.3a5,5,0,0,1,2.14-5.08C836.91,529.27,836.49,531.09,834.63,532.3Z"/><path class="cls-108" d="M819.9,491.36a1.14,1.14,0,0,1,.68-1.53A1.36,1.36,0,0,1,819.9,491.36Z"/><path class="cls-108" d="M820.67,503.19l-1.44-2.5Z"/><path class="cls-112" d="M801.05,590.07c9-11.31,10.77-27.63,24.52-35.69-.07,2.58.21,5.23-.27,7.73-1.17,6.12,4.14,14.22-.4,17.8C818.33,585.1,810.14,589.4,801.05,590.07Z"/><path class="cls-113" d="M780.94,592.48c-.09.74-.17,1.49-.26,2.23-8,3.7-16.14-1.65-24.13.57-.12-.85-.25-1.7-.37-2.56.08-15.17,3.54-20.33,14.78-22.12a11,11,0,0,1,4.53,2.71A21.87,21.87,0,0,1,780.94,592.48Z"/><path class="cls-114" d="M718.24,556.65c3.55-1.26,6.13-6.68,10.73-3.24,4.36,3.27,2.87,7.87,1.67,12.25s-2.12,8.6-3.17,12.9C720.18,573,717.87,565.4,718.24,556.65Z"/><path class="cls-115" d="M322.7,217c-4.39-11.81-1.25-24.07-2.14-36.1-.35-4.78-.06-9.62-.06-15.25-3.9-.81-8.38,3.92-11.76-.79-3-4.23.29-7.94,1.06-11.57,4-18.67,12.49-34.66,29.13-45.32,6.18-4,7.36-10.08,6.1-16.61-4.18-21.66-11.6-42-25.39-59.58-3.68-4.69-6.67-9.49-7.93-15.32l6.61,1.78,2.36,2.71A9.14,9.14,0,0,1,323,22.51l2.15.73a7.94,7.94,0,0,1,2.3,1.5l0,0c-2,3.17-1.58,5.57.74,8.93a152.33,152.33,0,0,1,25.4,63.42c.86,5.43,4.95,13.55-4.25,17.31-2.7,3.11-7.33,3.51-9.77,7-7.69,10.06-11.15,21.59-12,34.06-2.53,15.65-1,31.4-1.57,47.08C325.77,207.49,327.12,212.91,322.7,217Z"/><path class="cls-52" d="M327.44,24.74l-2.3-1.5Z"/><path class="cls-52" d="M323,22.51l-2.31-1.59Z"/><path class="cls-1" d="M518.78,932.23c0,1.31.07,2.62.11,3.92C517.12,934.88,517.09,933.58,518.78,932.23Z"/><path class="cls-54" d="M537.12,947.85c2-.65,3.67-.26,4.75,1.7C540,949.68,538.32,949.49,537.12,947.85Z"/><path class="cls-116" d="M423.05,690.58c-2.34-9.19-6.86-9.67-13.07-3.25-2.18,2.25-4.82,3-7.93,3.4-24,3-45.89,13.69-69.29,19.12-8.53,2-16.17,8.58-25.53,9.84-10.42-.16-20.33,4-30.55,4.25-26.36.58-52.44-1.39-76.4-14.18-2.95-1.58-5.86-3.37-9.29-1.2v0c-1.87-1.9-.14-4.94-2.14-6.79l0,0c-1.33-1.16-.89-3.13-2-4.4,0-1.5,0-3,0-4.5,9.59.41,15.85,7.71,23.12,12.26,8.49,5.31,17.41,9.36,26.74,9.51,17.46.28,35.42,4.66,52.36-3.94,3.15-1.59,7.12-1.69,10.75-2.18,12.8-1.72,14.72-5.47,8.29-16.41-1.13-1.91-2.05-4-3.06-5.92.39-13.84-6-25.92-10.6-38.31-3.12-8.47-3.18-13.49,6.67-15.4,6.7-1.3,7.22-5.8,5-10.93a131.29,131.29,0,0,0-7.83-14.72,123,123,0,0,1-10-21c-1.87-5,1-7.52,3.77-10.59,3.46-3.83,6.7-2,9.89,0,3.44,2.18,6.56,4.91,10.11,6.86,3,1.65,6.63,5.69,9.77,1.78,2.71-3.37-.79-7-2.91-9.87-7.25-9.81-14.88-19.34-19.46-30.84-1.45-3.66-4.66-7.1-.1-10.89,4-3.31,8.1-2.87,12.53-1.31,7.19,2.53,13.2,7.25,18.45,12.2a198.52,198.52,0,0,1,39.22,50.72c2.51,4.68,4.82,10,.4,14.43-4.23,4.25-8.16-.48-12.09-1.93-3.69-1.36-7.5-5-11.21-1.28-3.19,3.19-.48,7.21.94,10.39,9.22,20.69,21.37,39.8,32.72,59.32,3.4,5.84,20.14,7.91,27.67,4.64,4.23-1.83,8.11-5.91,13.28-2.22a4.75,4.75,0,0,1,3.49,2.5,13.41,13.41,0,0,1,1,5.84,11.21,11.21,0,0,1-.58,2.92A4.38,4.38,0,0,1,423.05,690.58Z"/><path class="cls-117" d="M148.57,773.29c.39-6,6-9,8.35-14,7.29-15.58-.11-28.15-17.27-28.43-3.23.71-6.76.81-9.63,2.24-8.05,4-8-1.14-8-6.57,8.1-13.66,19.82-24,31.34-34.57,7.77-5.39,15.88-10.3,23.61-19.06,4.05,25.81,13.34,47.32,23.37,68.56-9.22,7.66-16.53,17.74-27.61,23C165,768.09,155.14,766.24,148.57,773.29Z"/><path class="cls-102" d="M188.86,701.8c2.62,1.66,2.37,4.22,2.14,6.79C189.07,706.71,189.18,704.18,188.86,701.8Z"/><path class="cls-102" d="M186.85,697.36a4.45,4.45,0,0,1,2,4.4A3.91,3.91,0,0,1,186.85,697.36Z"/><path class="cls-118" d="M84.25,879.83c-7.63,6.55-13.58,15.62-24.91,16.65l.18-.17a7.73,7.73,0,0,1,2-2.17c4-6.88,11.62-9.84,16.75-15.55C80.28,876.33,82.85,876.47,84.25,879.83Z"/><path class="cls-47" d="M61.5,894.14c-.66.72-1.32,1.45-2,2.17C60.18,895.59,60.84,894.86,61.5,894.14Z"/><path class="cls-103" d="M382.52,836.11c9.15.63,18.56-2.48,27.46,1.84C400.77,838.19,391.54,838.71,382.52,836.11Z"/><path class="cls-103" d="M371.24,833.93c1.92-.29,3.76-.32,5.16,1.37Z"/><path class="cls-103" d="M355.52,831.72l3,1.3Z"/><path class="cls-50" d="M235.67,7.34c-2.82,2.8-6.28,1.58-9.56,1.53.36-.55.74-1.09,1.12-1.62Z"/><path class="cls-119" d="M771.83,572.25c-6.12-.41-9.22,2.8-11.32,8.32-1.53,4-.59,8.95-4.33,12.15l-11-4.63a17.12,17.12,0,0,1,1.5-11.93c10-18.72,14.58-39.83,25.6-58.08,2.77-4.57,4.15-8.77-.87-12.68-1.68-3.2-.45-6.26.39-9.35.51-1.73,1.15-3.43,1.83-5.11,1.94-4.81,4.26-10,10-10.26,5.42-.28,2.61,6.93,6.26,8.89-.11,2.18.27,4.52-.41,6.5-3.21,9.38-2.52,14,8.8,8.45,5.55-2.73,4.62,2.16,5,5.15-3.68,2.89-4.52,6.94-4.59,11.3-1.59,1.58-3.32,3.34-3.55,5.51C793.23,544.75,781.19,557.81,771.83,572.25Z"/><path class="cls-120" d="M772,505.05c13.37-2.33,6.6,8.92,5.17,10.44-6.78,7.25-5.56,18.88-14.3,24.72a3.76,3.76,0,0,0-1.53,2.86c2.41,17.84-14.72,28.62-16.18,45l-6.63-2.84c9.23-21.62,21.4-42.26,22-66.73C760.79,511,761.66,504,772,505.05Z"/><path class="cls-42" d="M289.3,8.56l-5.07-1.3C286.13,6.88,287.9,7,289.3,8.56Z"/><path class="cls-121" d="M405.47,746.32l.33-6.25c1.74-4.46-1.3-10.63,4.85-13.5,9.08-7.46,18-15.12,27.28-22.32,11.86-9.2,23.79-4.25,25.5,10.76,1.09,9.58.58,19.12-4.18,28.08-6.91,13-16.05,23.83-29.09,30.86-9.14,4.92-23.13-4-24.37-15.42C405.35,754.5,405.56,750.39,405.47,746.32Z"/><path class="cls-122" d="M423.05,690.58a1.36,1.36,0,0,0,.65-1.62,3.45,3.45,0,0,0,0-3.42l-.7-6c-1.59-2.91.31-6.45-1.67-9.28l-.54-4.19c-1.22-2.34-.34-5.12-1.6-7.45l-.59-3.72a1.3,1.3,0,0,1,.47-2.2c.81-.93,1.63-1.85,2.45-2.78a195.29,195.29,0,0,1,6.82,32.35c3.75,1.39,4.44-4.2,9.72-3.68-12.36,13.18-19.42,28.11-26.06,43.27-2,.38-3.25,0-2.29-2.44C412.54,709,419.1,700.4,423.05,690.58Z"/><path class="cls-123" d="M555.61,522.57c3.57,2.5,6.64,5.24-.42,6.76-6.56,1.42-13.21.25-19.79-.54-2.38-.29-5-2.27-6.85.94,2.16-7.7,8.21-7,13.91-6C547.08,524.59,551.58,527.2,555.61,522.57Z"/><path class="cls-124" d="M409.75,719.37l2.29,2.44c-.46,1.59-.93,3.17-1.39,4.76q-2.43,6.75-4.85,13.5l-2.1-4.49C404.36,729.67,406.83,724.44,409.75,719.37Z"/><path class="cls-60" d="M331.25,467.35l-1.86-2c3-3.16,3.53.15,4.7,1.77Z"/><path class="cls-125" d="M322.7,217c1.27-21.56-3.55-43.36,2.58-64.73,4.73-.19,4.55,4,6.08,6.71,1.88,7.11,3.32,14.4,7.58,20.62,2.11,3.08,4.49,6.3,8.76,5.64,4.55-.71,4.9-4.83,5.79-8.42,4-16,2.57-31.41-4.65-46.24-.55-.79-1.08-1.6-1.63-2.39-.3-.35-.58-.74-.88-1.1-1.74-2.27-4.24-3.5-6.69-4.81-1.15-.91-2.14-1.89-1-3.47,2.5-4,6.49-4.48,10.69-4.4,14.3,5.32,22.36,16.49,28.24,29.82a220.59,220.59,0,0,1,14.81,45.54c1.72,4.12.19,5.93-4.1,5.8-3.57-2-4.55-5.52-5.47-9.08-2.22-21.7-14.95-39.13-23.7-57,9.85,14.75,8.57,32,4.7,49-4.53,19.9-16.59,23.23-32.12,9.82-.79-.68-1.37-1.76-3.29-1.18.59,14.06,4.36,28.34.15,42.54a2.06,2.06,0,0,1-2.88.76Z"/><path class="cls-126" d="M334,310.78c20.84-4.83,42.39-8.33,54.54-28.81.26,9.28-32.5,61.92-53,84.62a1.68,1.68,0,0,1-2.45-.61c.19-4.71-4-9.38-.13-14.14a7.07,7.07,0,0,0,1-.48c6.44-3.43,15-6.13,12.35-15.61S331.82,320.56,323,322.64c-29.61,6.95-58.43,17-88.36,22.65-6.49,1.24-13,3.61-19.33-.72a3.94,3.94,0,0,1,.05-3.37,9.14,9.14,0,0,1,6.48-3.88c35-5.46,68.72-16.27,102.65-26.12,2.16-.6,4.46-.25,6.62-.9A2.64,2.64,0,0,1,334,310.78Z"/><path class="cls-127" d="M215.64,342.22l0,2.35c-1.12,5.52-5.83,4.77-9.51,5a101.19,101.19,0,0,1-20.66-.37c-13.95-2.15-27.25-6.82-41.61-11.57,5.21,8.82,13.47,13,19.87,19,.79.62,1.55,1.29,2.32,1.94s1.62,1.18,2.44,1.76c4.94,3.2,9.49,7.06,15,9.32,4.22,1.72,6,4.16,3.46,8.48a1.88,1.88,0,0,1-2.66-.35,210,210,0,0,1-43-31.06c-1.87-1.75-4.45-4.5-6.31-4.21-15.91,2.45-20.46-9.91-25.16-20.18-4-8.74-12.4-10.09-18.71-14.66-7.27-5.27-9.72-10.57-5.54-18.57l.33,3.78c1.47,1.1.85,3.32,2.33,4.41,2.7,5.17,7.27,8.15,12.25,10.78,19.9,10.52,40,20.48,61.63,27.16,14.16,4.12,28.53,5.84,43.26,4.15C209.14,339,212.85,339,215.64,342.22Z"/><path class="cls-128" d="M215.64,342.22c-15.41.85-30.81,1.58-45.83-3.17-2.74-.87-5.91-.85-7.65-3.76,5.59-3.47,11.57,0,16.49.83,24.67,4.14,47.86-2.94,71.15-7.87,26.77-5.66,54.36-9.81,77.54-26.4-1.5,5.78,4.08,6.25,6.7,8.93l-.61.46-.76-.11c-1.74.61-3.7.54-5.29,1.65-35.06,9.51-69.2,22.6-105.54,27.17C219.71,340.21,217.7,341.44,215.64,342.22Z"/><path class="cls-129" d="M184.31,377.84l2.44-.08.92-.88,1.27-.09c.85,0,1.7,0,2.56.06a12.1,12.1,0,0,0,2.61-.8c8.57-1.26,12.37,8,19.94,9,14.57,7.11,30.84,7,46.16,10.85,3.21,1.27,7,1.33,9.35,4.44-24.22,5.51-46-2.75-67.07-12.84C196.37,384.56,188.31,384.84,184.31,377.84Z"/><path class="cls-130" d="M269.56,400.32c-3.1-.64-6.7.87-9.24-2.17,4.71-4.57,11.16-3.56,16.78-5,11.29-2.85,22.12-6.56,32-12.87,5.12-3.28,9.76-6.94,10.64-13.54.28-2.19.32-4.39.6-6.57a9.39,9.39,0,0,1,1.78-4.56,3.54,3.54,0,0,1,2.93-.69c3.1,3.74,4.51,8.77,8.81,11.62a12.93,12.93,0,0,1,1.76,0C318.36,387.2,296.29,398.32,269.56,400.32Z"/><path class="cls-131" d="M388,194.52c3.08-.11,4-2.17,4.34-4.78,5.76,4.36-4.68,9.34.53,13.71,0,4.6,1.68,9.23-.23,13.8,5.4,13.47-3.06,18.83-13.43,23.31-7,3-13.87,6.49-20.79,9.76-6.81.64-12.78,5.05-19.87,4.41-.65-3.64,2.37-4.38,4.55-5.79,6-2.09,11.51-5.26,17.39-7.61,6-2,11.27-5.46,17.12-7.6,6.9-2.51,10.12-6.94,9-14.31C385.54,211,381.51,202.48,388,194.52Z"/><path class="cls-132" d="M292.64,421.7c-13.07,5.69-25.8,3.23-38.47-1.05C267.05,419.72,279.69,424.45,292.64,421.7Z"/><path class="cls-133" d="M392.65,217.25c-.25-4.6-1.93-9.23.23-13.79l.83,0c1.5.26,1.82,1,1,2.27-1.18,5.53,4,10.44,1.5,16.19C392.93,222,394.64,218.15,392.65,217.25Z"/><path class="cls-131" d="M394.66,205.7c-.31-.75-.63-1.51-1-2.26,1-.46.39-3.2,1.84-2.11C396.68,202.18,396.14,204.44,394.66,205.7Z"/><path class="cls-134" d="M343,251l-4.4,3.77c-3.56,1.11-5.83-.21-7-3.68a11.54,11.54,0,0,0-1.55-2.74,1.55,1.55,0,0,1-.69-1.76c-1.43-2.19-.17-5-1.72-7.19a2.17,2.17,0,0,1-.46-1.94c-1.18-2.4-1.44-4.78.14-7.13,1-16.44-1.42-32.87-2-49.29,2.47,0,3.49-.28,3.75.05,5.63,7,11.95,15.58,21.58,12.32,10.32-3.5,11.52-15,12.22-24.5,1.2-16.22,1.6-32.64-8.75-47,14.19,19.51,28.5,38.8,31.38,63.78-2.89,2-5.33-2-9-.25.89,6.87-.67,13.92-1.74,21-.64,5.51-1.95,10.78-5.32,15.34A11.42,11.42,0,0,1,367,224a7.57,7.57,0,0,1-3.14,1.1c-6.21-1.72-12.52-3.09-18.77-4.7-5.08-3.19-5.83-9-7.85-14.36-8.06,12.23-5.92,32.72,4,42.36A5.55,5.55,0,0,1,343,251Z"/><path class="cls-67" d="M131.38,156.36c-4.92,1.5-1,10.87-6.54,9.43-4.86-1.26-7.21-7.81-9.13-12.93-3.94-10.52,2.64-16,10.4-20.78a6.67,6.67,0,0,1,2.15,2.27,23.64,23.64,0,0,1,2.25,6C130.38,145.72,135,150.82,131.38,156.36Z"/><path class="cls-135" d="M131.38,156.36q-1.63-8.84-3.26-17.66c-.83-1.65-.93-3.51-1.54-5.22a1.3,1.3,0,0,0-.47-1.4c.23-2.09-.89-4.39,1.87-7.09,5.68,9.43,5.27,19.91,6.93,29.77C135.18,156.38,132.73,156.11,131.38,156.36Z"/><path class="cls-136" d="M305.28,121.17q-1.83,10.41-3.65,20.81c-4.83-9.16-.35-17,1.6-25.25C307.49,116.57,305.81,119.13,305.28,121.17Z"/><path class="cls-137" d="M173.6,308.38c-7.07.75-9.14-1.73-9.06-6.95C169.65,300.76,171.14,304.25,173.6,308.38Z"/><path class="cls-138" d="M244.73,306.3c-1.88.3-2.76-.62-2.61-2.35.25-2.76,1.64-4.91,4.42-5.58,1.76-.42,2.67,1.08,2.77,2.59C249.53,304.13,247.11,305.24,244.73,306.3Z"/><path class="cls-139" d="M305.28,121.17q-1-2.22-2-4.44c.92-3.36,1.19-7.11,6-9.3C308.3,112.69,307.81,117.17,305.28,121.17Z"/><path class="cls-131" d="M327.32,230.29c-.05,2.38-.09,4.75-.14,7.13-1.94-2-1.8-4.55-1.54-7.08A11.79,11.79,0,0,1,327.32,230.29Z"/><path class="cls-131" d="M327.64,239.36c2.45,1.95,1.89,4.62,1.72,7.19A10.41,10.41,0,0,1,327.64,239.36Z"/><path class="cls-52" d="M88.28,297.35A4.46,4.46,0,0,1,86,292.94,4.21,4.21,0,0,1,88.28,297.35Z"/><path class="cls-131" d="M330.05,248.31l1.55,2.74Z"/><path class="cls-96" d="M743,726.65l-1.67,2Z"/><path class="cls-103" d="M421.37,670.21c2.33,2.77,2.21,6,1.67,9.28l-1.89-2.26C421.22,674.89,421.3,672.55,421.37,670.21Z"/><path class="cls-116" d="M419.11,652.65c-.16.73-.31,1.47-.47,2.2-2.41-2-1.93-4.62-1.7-7.21Q418,650.15,419.11,652.65Z"/><path class="cls-116" d="M419.23,658.57q.81,3.72,1.6,7.45C418.4,663.94,419,661.22,419.23,658.57Z"/><path class="cls-116" d="M410.26,620.72l2,7.33C409.48,626.2,410,623.41,410.26,620.72Z"/><path class="cls-116" d="M412.29,628c1.9,1.87,2.11,4.27,2.09,6.74C411.86,633.09,412.23,630.51,412.29,628Z"/><path class="cls-116" d="M405.85,607.13c1.65,1.4,2,3.27,1.92,5.31C405.73,611.18,405.56,609.24,405.85,607.13Z"/><path class="cls-116" d="M408.1,613.54q.82,2.79,1.64,5.57C407.79,617.67,407.81,615.65,408.1,613.54Z"/><path class="cls-116" d="M381,547.55l2.28,4.51C381.4,551.14,381,549.48,381,547.55Z"/><path class="cls-116" d="M414.82,638c.57,1.89,1.13,3.78,1.7,5.67C414.52,642.24,414.54,640.17,414.82,638Z"/><path class="cls-116" d="M385.48,556.51c.77,1.5,1.54,3,2.3,4.49C385.88,560.09,385.43,558.43,385.48,556.51Z"/><path class="cls-116" d="M387.74,560.94c1.86,1,2.27,2.66,2.19,4.58C388.1,564.51,387.68,562.84,387.74,560.94Z"/><path class="cls-116" d="M401.19,592.06l1.71,4.7C401.27,595.58,401,593.89,401.19,592.06Z"/><path class="cls-116" d="M403.45,598.68c1.7,1.2,1.94,2.9,1.7,4.78C403.51,602.25,403.28,600.54,403.45,598.68Z"/><path class="cls-116" d="M383.28,552c1.82,1,2.16,2.7,2.22,4.55C383.62,555.59,383.2,553.92,383.28,552Z"/><path class="cls-116" d="M399.23,586.72l1.45,3.34Z"/><path class="cls-116" d="M397,580.16l1.31,3.18Z"/><path class="cls-116" d="M394.75,575.66l1.77,3.25Z"/><path class="cls-116" d="M392.5,571.13l1.61,3.29Z"/><path class="cls-116" d="M390.3,566.57,392,570Z"/><path class="cls-116" d="M379.12,544.29c.65,1.1,1.29,2.21,1.93,3.31C380.41,546.5,379.77,545.39,379.12,544.29Z"/><path class="cls-140" d="M718.5,462.84c1.42-2.08,2.65-5.79,4.29-6,12.24-1.38,11.3-10.56,11.51-19a16,16,0,0,1,2.51.23c3.94,1,3.12,9,8.35,6.87,3.85-1.53,2.19-6.62,2.2-10.16,0-8.89,8.18-9.89,13.07-10.73,4.51-.78,5,6.17,4.79,10.54-.67,14.36-4,27.82-14.68,38.33-3.43,3.39-1.91,8.61-5,12-.94-7.14-6.62-12.84-5.23-20.94-4.64,1.84-4.6,5.63-6.16,8.37-3.8,6.63-4.45,16.56-16.67,14.17-2-.4-5.26,5.38-9.46,7.66Q713.23,478.51,718.5,462.84Z"/><path class="cls-141" d="M772,505.05c-8,.93-7.6,9-11.46,13.47-5.94-.5-7,4-8.76,8.15-1.9,4.46-1.89,10-7.49,14-3.45-14.06-.07-26.3,4.74-38.15a34.88,34.88,0,0,0,2.82-15c-.46-4.93,1.62-7.37,6.72-6.84.57.48,1.2,1.05,1.23,1.72.41,11.9.93,12.42,14.42,13.93Z"/><path class="cls-142" d="M774.22,496.26c-6.18,9.37-12.86-5.39-19.12.39a5.29,5.29,0,0,1-.07-6.1c2-3.09,4.12-6,3.54-9.94.23-11.24,6.62-20.7,9-31.31,1.37-1.19.81-3.29,2.13-4.5l.06-4.42c10.36-6,9.73-18.52,16.38-27.35l3.46,7.26a4.28,4.28,0,0,1,1.34,4.4c-5.19,7.66-9.32,16-14.71,23.58-5.74,8.09-4.38,17.85-4.74,27-.2,4.75,3.47,5.46,6.34,1.2,4.7-7,9.84-6.86,15.59-1.44,1.13,2.93.37,5.53-1.38,7.95-.74,2.21-1.47,4.43-2.2,6.64-8.17,2.57-2.14-6.29-6.21-7.27C777.36,484.58,776.93,491.22,774.22,496.26Z"/><path class="cls-94" d="M769.73,444.8c0,1.83-.36,3.5-2.13,4.5C767.57,447.45,768,445.82,769.73,444.8Z"/><path class="cls-143" d="M119.5,867.62c4.72,5.48,12.61,3.11,18.09,7.18-11.66,2.71-15.42,1.32-20.25-7.34C118.14,866.45,118.85,866.55,119.5,867.62Z"/><path class="cls-91" d="M119.5,867.62a7.88,7.88,0,0,0-2.16-.16c.63-.77,1.25-1.54,1.88-2.3l.17.09Z"/><path class="cls-95" d="M792.07,482.93q0-4.51,0-9c-3-3-2.9-6.76-2.12-10.39,1.84-8.53.8-16.92-.61-25.33-.23-3.42-.25-6.86-.48-10.28a4.47,4.47,0,0,1,1-3.13c-.06-1.49-.13-3-.2-4.48,1-8.48-3.45-16.69-1.26-25.21a10.41,10.41,0,0,1,2.83-4.56c.82,10.82,11.58,15.35,14.11,25.26,2,7.79,2.24,16.87,12.09,20.64,2.52,1,1.59,5.34,1.31,8.28-2.15-2-3.59-9.4-7.07-.9-4.08,10-12.39,18.07-12.56,29.79C799,478,795.9,480.93,792.07,482.93Z"/><path class="cls-96" d="M740.72,735.34l.49-1-.51.94Z"/><path class="cls-144" d="M135.16,93.2c.16-22.45,19.27-47.77,39.74-52.14,4.93-1.06,10.67-2.5,14.69,2a15.39,15.39,0,0,1,2.71,16.75c-8,19.16-18.78,36-38.67,45.31C139.25,111.82,135.05,109.41,135.16,93.2Z"/><path class="cls-103" d="M339.63,792c3-11.59,3.27-23.8,3.77-36,.24-5.77,5.12-9.68,9.25-13.52,3.35-3.12,5.86-2.44,7.85,1.5,1.82,3.62,3.95,7.1,5.51,10.83,3.31,7.92,8.64,15.63-1.35,23.46-3.31,2.59-4.13,8.58-3.78,13.58.64,9.31-4.17,16.35-12.68,16.41C339.13,808.32,341.48,798.43,339.63,792Z"/><path class="cls-51" d="M771.83,572.25c-.68-8.8,6.78-13.47,10.36-20.08,4.35-8,9.7-15.54,10.07-25.18.15-3.9,2.49-6,6.44-6q-.94,6.74-1.88,13.47c1.73,4.91-1.93,8.75-2.63,13.18-.69,1.48-1.39,3-2.08,4.46-1.4,1.23-1,3.25-2.08,4.64v0c-2.19,3.73-3.18,8-4.95,11.83-2,4.3-4.57,8.55-10.68,6.3Z"/><path class="cls-145" d="M774.41,574.81c10-1.92,9.21-13.13,15.63-18.13.44,4.4-.34,8,2.26,13.19,4.06,8-3.13,17.09-11.36,22.61C777.47,587.07,778.56,580,774.41,574.81Z"/><path class="cls-146" d="M794.19,547.61c-.45-4.66,1.47-8.85,2.63-13.19l10.83-7C808.84,538,796.08,539.16,794.19,547.61Z"/><path class="cls-145" d="M790,556.71c-.16-1.93.27-3.6,2.08-4.64C792.2,554,791.76,555.63,790,556.71Z"/><path class="cls-147" d="M338.61,118.78l2.52,2.43c.43,5.22-4.74,8.27-5.1,13.19-3.33,7.82-1.69,16.93-6.36,24.39l-4.39-6.55C326.05,139.62,329.6,128.11,338.61,118.78Z"/><path class="cls-103" d="M423.74,685.54c1.58,1.16,1.55,2.3,0,3.42C423.72,687.82,423.73,686.68,423.74,685.54Z"/><path class="cls-148" d="M329.67,158.79c-.11-9.18.71-18.18,4.65-26.65,3.18-4.78,7.05-8.25,13.38-7.07l0,0a4,4,0,0,0,2.51,2.31c10.64,17.44,9.7,36.09,4.92,54.79-2.36,9.24-8.61,10.17-15.55,3.17C332.24,178,330.59,168.51,329.67,158.79Z"/><path class="cls-149" d="M372.69,205.76c-.81-6.17,2.67-12.13.93-18.36-.68-2.43-1.82-5.15.92-6.94,3.37-2.21,5.25.82,7.44,2.56,1.13.91,2.32,1.73,3.49,2.6.84,3,1.69,5.93,2.54,8.9-.93,9,.38,18,1.53,26.89C381.76,218.52,378,211.3,372.69,205.76Z"/><path class="cls-150" d="M347.7,125.07l-13.38,7.07c0-5,3.5-7.94,6.81-10.93C344.05,121.25,346.77,121.65,347.7,125.07Z"/><path class="cls-150" d="M350.17,127.35a2.42,2.42,0,0,1-2.51-2.31A2.47,2.47,0,0,1,350.17,127.35Z"/><path class="cls-151" d="M324.6,355.58a1.73,1.73,0,0,1-1.23.52c-2.65-2.67-5.52-4.42-9.61-4.42a176.23,176.23,0,0,0-88,22.9c-4.6,2.58-8,6.51-11.75,10.08a32.84,32.84,0,0,1-2.75,1.91c-4.68-1.82-9.74-2.89-12.52-7.93s-3.26,2.22-5.4,1.18c-1.64-.51-1.64-5.08-4.77-1.93-.6-.06-1.2-.1-1.8-.13-.6-2,1.22-4.56-3.07-5.5-6.69-1.47-12-6.12-17.23-10.54a8.44,8.44,0,0,1-2.14-1.81h0c4-7.28,5.83-17.49,18.18-13.57,11.08-.39,22.27,1.53,33.19-1.76,32.11-2,62-13.56,92.84-21.27,1.79-.45,3.58-.94,5.37-1.39,22.17-5.46,22.13-5.42,36.58,11.4,1.64,1.9,2.26,3.63,1.67,6-1.82,7.16-13.25,14.78-20.86,13.88C329.56,355.39,327.77,357.38,324.6,355.58Z"/><path class="cls-152" d="M349.1,312.63c5-2,12.19-8.05,15-3.68,3.41,5.39-1.29,13.13-5.08,19-1.15,1.78-3.11,1.52-4.88.62C349.46,324.21,348.43,318.69,349.1,312.63Z"/><path class="cls-153" d="M349.1,312.63c4.68,4.38,2.4,10.94,5,16l-2.16-.54a4.9,4.9,0,0,1-2.14-1.65,55.23,55.23,0,0,1-4.78-4.24c-1.82-2-5.55-3.53-4.4-6.64C341.94,311.94,346,313.06,349.1,312.63Z"/><path class="cls-154" d="M324.6,355.58l6.67-2.43c4.08,3.86,5.56,8.21,2.55,13.41C324.05,368.52,324.62,361.8,324.6,355.58Z"/><path class="cls-155" d="M372,309.6l-3.58,2.09c-.21-.95-.8-2-.53-2.82s1.39-1.22,2.14-1.81Z"/><path class="cls-52" d="M327.38,312.78c1.33-1.93,3.25-2,5.29-1.65C331.24,312.75,329.38,313,327.38,312.78Z"/><path class="cls-152" d="M349.8,326.41l2.14,1.65Z"/><path class="cls-156" d="M182.48,346.33c-4.21.34-9-.45-10,5.7-.7,4.71-5.56,5.16-8.22,7.87-10-6.78-20-13.54-26.76-26.49Z"/><path class="cls-157" d="M112.75,320.32c8,.52,12.24,5,17.19,7.88,2.32,1.36,7.8,1.3,4,6.49-2.6,3.56-6,4.3-9.62,1.68C119.11,332.61,116.15,327.12,112.75,320.32Z"/><path class="cls-156" d="M164.31,359.91l2.14,1.81Z"/><path class="cls-158" d="M211.24,386.57a9.78,9.78,0,0,1,0-1.95c28.37-23.12,61.7-31.35,97.41-32.09,4.77-.1,10.91-1.61,13,5.48.47,2.84-.86,5.93,1.17,8.57,2.31,4.91-.94,7.19-4.19,10-16.75,14.61-37,19.56-58.32,21.54C243.61,395.77,226.59,394.73,211.24,386.57Z"/><path class="cls-159" d="M188.55,377.89c.28-2-.7-5.62,1.85-5.34,3.79.41,2.88,4.4,2.92,7.27l-2.69-.12a3.67,3.67,0,0,0-1.69-1.4Z"/><path class="cls-52" d="M188.94,378.3l1.69,1.4Z"/><path class="cls-160" d="M320.86,360.17c-.74-5.31-4.79-4.75-8.47-4.71-33.77.39-66.16,5.62-93.81,27.14-2.24,1.75-4.71,1.93-7.3,2C221,370,236.6,365,251.9,359.57c21-7.4,42.59-11.68,65.07-10.86,5.6.2,8.57,1.17,6.4,7.39-.24,1.29-.47,2.58-.71,3.87C322.16,360.9,321.57,361,320.86,360.17Z"/><path class="cls-151" d="M320.86,360.17a5.76,5.76,0,0,1,1.8-.2c.06,2.2.11,4.41.17,6.61C320.71,364.89,320.69,362.56,320.86,360.17Z"/><path class="cls-161" d="M372.69,205.76c8.08,2.57,11.95,9.66,16.85,15.65,1.24,7.29-1.72,11.61-8.8,14-6.85,2.31-13.4,5.49-20.09,8.28-3.42-5.66-1.59-13.19-6.53-18.32,3.29-3.48,7.78,1.07,11.17-1.69l.07-.06c.74-.7,1.45-1.44,2.12-2.21Q370.09,213.58,372.69,205.76Z"/><path class="cls-162" d="M354.25,226.05c11.08,2.63,5.71,11.23,6.41,17.63-5.57,3.24-11.33,6-17.71,7.28l.05-.51c-10.45-8.35-10-18.77,1.2-29.53C349,219.82,352.65,220.91,354.25,226.05Z"/><path class="cls-163" d="M345.53,221.45c-9.2,12.3-9.71,18.16-2.53,29-3,.4-5.72.32-7.92-2.54-6.17-8-7.93-34.23-2.47-43.06,1.09-1.76,3-4,4.75-4.16,2.62-.23,3.11,2.7,3.16,4.93.11,5.1,2.49,9.23,5.23,13.25A1.76,1.76,0,0,1,345.53,221.45Z"/><path class="cls-164" d="M345.53,221.45c.07-.86.14-1.71.22-2.57,7.24-1.37,13.33,2,19.54,4.79-3,3.85-7.37,1.56-11,2.37C351.2,224.79,349.32,221.32,345.53,221.45Z"/><path class="cls-164" d="M367.48,221.4c-.71.74-1.41,1.48-2.12,2.21C366.07,222.88,366.77,222.14,367.48,221.4Z"/><path class="cls-50" d="M126.58,133.48c.51,1.74,1,3.48,1.54,5.22C126.32,137.34,126.24,135.47,126.58,133.48Z"/><path class="cls-165" d="M789.83,424.77a5.52,5.52,0,0,1,.16,2c2.12,2.72-.3,6.45,2,9.12,3.75,12.66,1.31,25.33.06,38-5.75-.08-12.18-1.76-13.7,6.93-.37,2.13-2.48,4.2-4.93,3.3-3.88-1.42-5.65-5.39-5.52-8.86.29-7.63-.35-16.33,3.09-22.56C776.38,443,780.46,431.94,789.83,424.77Z"/><path class="cls-94" d="M792,435.91c-3.2-2.48-2-5.94-2-9.12C792.67,429.38,792.06,432.71,792,435.91Z"/></g></g></svg>