<svg xmlns="http://www.w3.org/2000/svg" viewBox="0 0 797.98 935.7"><defs><style>.cls-1{fill:#dd533b;}.cls-2{fill:#1f1513;}.cls-3{fill:#2c2423;}.cls-4{fill:#dd563b;}.cls-5{fill:#2c1f1d;}.cls-6{fill:#2b201e;}.cls-7{fill:#2b1815;}.cls-8{fill:#dc623e;}.cls-9{fill:#261d1c;}.cls-10{fill:#de5e3d;}.cls-11{fill:#271b19;}.cls-12{fill:#352a29;}.cls-13{fill:#2f2c2b;}.cls-14{fill:#2e201d;}.cls-15{fill:#2f201e;}.cls-16{fill:#d25743;}.cls-17{fill:#f1b56b;}.cls-18{fill:#eb9e6f;}.cls-19{fill:#2d1f1c;}.cls-20{fill:#de663c;}.cls-21{fill:#261f1e;}.cls-22{fill:#a4625b;}.cls-23{fill:#dd8262;}.cls-24{fill:#a9695d;}.cls-25{fill:#272427;}.cls-26{fill:#302321;}.cls-27{fill:#4e4644;}.cls-28{fill:#474747;}.cls-29{fill:#412e2b;}.cls-30{fill:#cc9d5a;}.cls-31{fill:#d4928c;}.cls-32{fill:#39393b;}.cls-33{fill:#3d3937;}.cls-34{fill:#2c2220;}.cls-35{fill:#a7615c;}.cls-36{fill:#595654;}.cls-37{fill:#453330;}.cls-38{fill:#2d2d2e;}.cls-39{fill:#a9665f;}.cls-40{fill:#473431;}.cls-41{fill:#3a3b3c;}.cls-42{fill:#494442;}.cls-43{fill:#513d3a;}.cls-44{fill:#422d29;}.cls-45{fill:#1b1311;}.cls-46{fill:#483330;}.cls-47{fill:#373738;}.cls-48{fill:#564643;}.cls-49{fill:#514c48;}.cls-50{fill:#594845;}.cls-51{fill:#523d3a;}.cls-52{fill:#58585a;}.cls-53{fill:#4f3632;}.cls-54{fill:#565656;}.cls-55{fill:#1e1e1f;}.cls-56{fill:#2c2a29;}.cls-57{fill:#aa5950;}.cls-58{fill:#19110f;}.cls-59{fill:#be604f;}.cls-60{fill:#eed9cc;}.cls-61{fill:#0f0c0b;}.cls-62{fill:#c1c5d0;}.cls-63{fill:#f9dfa3;}.cls-64{fill:#f7cf65;}.cls-65{fill:#e2713e;}.cls-66{fill:#e07e6e;}.cls-67{fill:#bd5c4d;}.cls-68{fill:#a59187;}.cls-69{fill:#c3c7d1;}.cls-70{fill:#e09085;}.cls-71{fill:#fafafa;}.cls-72{fill:#b3a092;}.cls-73{fill:#664a45;}.cls-74{fill:#48494b;}.cls-75{fill:#3e3f41;}.cls-76{fill:#af594d;}.cls-77{fill:#da7565;}.cls-78{fill:#c1c5cf;}.cls-79{fill:#f6f6f6;}.cls-80{fill:#f5f5f5;}.cls-81{fill:#cccfd7;}.cls-82{fill:#e27746;}.cls-83{fill:#e37c45;}.cls-84{fill:#e6cdba;}.cls-85{fill:#c1a696;}.cls-86{fill:#df7d6d;}.cls-87{fill:#d26c5c;}.cls-88{fill:#d3b9a8;}.cls-89{fill:#df9790;}.cls-90{fill:#e17e6e;}.cls-91{fill:#bc5c4d;}.cls-92{fill:#d47263;}.cls-93{fill:#dc9a93;}.cls-94{fill:#de8579;}.cls-95{fill:#fdfdfd;}.cls-96{fill:#c7cbd4;}.cls-97{fill:#f8f8f8;}.cls-98{fill:#c5c9d3;}.cls-99{fill:#bf5f50;}.cls-100{fill:#bdc2cf;}.cls-101{fill:#af5a4d;}.cls-102{fill:#e48766;}.cls-103{fill:#efae66;}.cls-104{fill:#f8d46f;}.cls-105{fill:#e99e6d;}.cls-106{fill:#f9d767;}.cls-107{fill:#df7c6b;}.cls-108{fill:#c2c6d1;}.cls-109{fill:#f4f4f5;}.cls-110{fill:#cb6656;}.cls-111{fill:#bfc3ce;}.cls-112{fill:#e5e6e7;}.cls-113{fill:#e5a098;}.cls-114{fill:#ddc8b6;}.cls-115{fill:#d36c5c;}.cls-116{fill:#f9d865;}.cls-117{fill:#dc4e3b;}.cls-118{fill:#dc7c6d;}.cls-119{fill:#4c3029;}.cls-120{fill:#f7f7f8;}.cls-121{fill:#f9dd7c;}.cls-122{fill:#f9df9f;}.cls-123{fill:#fae1a1;}.cls-124{fill:#e99351;}.cls-125{fill:#e16f41;}.cls-126{fill:#f5c866;}.cls-127{fill:#fae1a6;}.cls-128{fill:#c96453;}.cls-129{fill:#566875;}.cls-130{fill:#f6f6f7;}.cls-131{fill:#f9dfa1;}.cls-132{fill:#f9d665;}.cls-133{fill:#d1bd8d;}.cls-134{fill:#e7a8a0;}.cls-135{fill:#f9d869;}.cls-136{fill:#f9d664;}.cls-137{fill:#e58d69;}.cls-138{fill:#e07a45;}.cls-139{fill:#342320;}.cls-140{fill:#d36d5d;}.cls-141{fill:#d06c5c;}.cls-142{fill:#71372c;}.cls-143{fill:#3f211c;}.cls-144{fill:#4c241e;}.cls-145{fill:#c2c6d0;}.cls-146{fill:#532b25;}.cls-147{fill:#331916;}.cls-148{fill:#d16c5c;}.cls-149{fill:#060505;}.cls-150{fill:#d46d5c;}.cls-151{fill:#ca6554;}.cls-152{fill:#ce6655;}.cls-153{fill:#e59b91;}.cls-154{fill:#6f3f37;}.cls-155{fill:#6d3b33;}.cls-156{fill:#4b2520;}.cls-157{fill:#c3b6cd;}.cls-158{fill:#271b1b;}.cls-159{fill:#66403d;}.cls-160{fill:#5e474b;}.cls-161{fill:#f8d164;}.cls-162{fill:#f8d99f;}.cls-163{fill:#e39b93;}.cls-164{fill:#d9d0d6;}.cls-165{fill:#eaebed;}.cls-166{fill:#35556b;}.cls-167{fill:#687e8f;}.cls-168{fill:#2f4e63;}</style></defs><title>Recurso 25</title><g id="Capa_2" data-name="Capa 2"><g id="Capa_1-2" data-name="Capa 1"><path class="cls-1" d="M638.23,458.53l-23.32-53.29c12.63,4.5,18.47,14.84,28.16,20.06,2.13-4.9-1.93-9.17-.48-14.34,4.89,1.22,6.29,6.44,9.95,8.6,4.37,2.59,1.88-1.78,2.54-3-1.59-5,.9-5.34,4-2.89,5.74,4.53,9.68,10.58,12.74,17.22,1.66,3.6,3.14,7.27,4.6,10.95,1.29,3.43,3.07,6.65,4.4,10.07a15.12,15.12,0,0,1,.77,4.66c-.08,4.33-2,8.64-6.16,8.63-7,0-11.12,5.36-17,7.17-6.6-2.22-10.08-8.32-12.93-13.44C642.15,452.85,640.61,457.89,638.23,458.53Z"/><path class="cls-2" d="M542.23,788.25c-17.22,1.06-17.29,1.2-13.11,18.45,2.36,9.72,4.58,19.48,6.87,29.22.64,2.87,2.44,6.08-2.2,7.38-8.14-10.91-8.43-24.32-11.45-36.8-7-29-4.78-58.15.42-87.22,1.59-8.92,2.44-17.93,1.45-27-.84-7.69.4-15.4-10.27-19.18-6.72-2.38-10.4-10.83-12.74-18.2-3.07-9.63-6.12-19.29-7.94-29.26,1.91-4.84-.19-9.07-1.76-13.54-2.52-7.15-5.39-14.49.34-21.58a3.51,3.51,0,0,1,3.08.09c3.48,5.52,2.27,11.65,3.12,17.26,2.06-2.32,5-4.82,9.42-4.12,2.13.49,4.21,1.06,4.51,3.74-9.33,11.72-6.83,43.72,4.24,53.64,1.15,1,2.65.82,4.06.34a7.35,7.35,0,0,1,4.28-.14c6.58,5.24,10.74,13.75,20.25,15a11.13,11.13,0,0,1,2.7.84c3.12,2.5,7.52-.09,10.61,2.6a3.05,3.05,0,0,1-.36,2.72c2.44,4.19,7.14,2.54,10.6,4.1a2.08,2.08,0,0,1-.62,2.94c-12.24,2.51-24.1,3.09-34.73-9.17,2.73,18.58.5,34.58-2,50.6-1.71,10.8.11,13.34,11.4,15.08,35.53,5.44,68.9-1.07,100.18-18.68,4.28-2.41,8.15-6.35,13.86-4.73,1.87,11.12-8.07,12.33-14.1,16.83-27.41,11.8-55.67,19.4-85.91,17.36-5.75-.38-11.46-.57-17.15-1.73-10.08-2-11-1.16-11.32,9.38-.49,16.17-.47,16.21,13.56,20.72A2.15,2.15,0,0,1,542.23,788.25Z"/><path class="cls-3" d="M264.47,773.77c-23.82,24-21.43,14.73-16,50.6,2.79,18.43,1.09,21.35-16,26.92-3.43,1.12-7.42,1.5-10.16,3.54-22.79,16.94-50,20.95-76.56,27.37-14.48,3.5-27.12,11.73-40.6,17.8-2.12,1-3.86,4.17-6.5,2.22-2.88-2.12-1.44-5.36-.53-8,1.34-3.91,3.09-7.66,5-12.24-11.57,2.41-22.38,4.52-32.13,12.31-1.81-9.71,4.31-15.62,5.88-22.74-1.28-2-.15-3.62.91-5.23a66.3,66.3,0,0,1,7.12-7,7.21,7.21,0,0,1,4-1.64A3.23,3.23,0,0,1,91.26,861c-1.8,6.11-6.88,10.19-9.68,15.68-.6,1-1.26,2-1.84,3.08a6.13,6.13,0,0,0-.59,1.88,1.29,1.29,0,0,0,1.77.4c.82-.31,1.58-.54,2.37-.8,10.43-3.92,22.93-3.52,29.18-15.65,2.34-4.51,4.06-8.29.69-12.74-1.77-4.13-5.09-6.23-9.34-7.15-1.66-1.51-2.32-3.15-.61-5.07s3.11-4.33,5.22-5.36c15.26-7.41,13.14-20.64,11.2-33.51-1.12-7.41-3.49-14.63-5.3-21.93a2.92,2.92,0,0,1,3.21,0c8.16,8.92,9.18,20.16,10.2,31.4-.3,8.87-2,17.44-8.46,23.94-3.72,3.73-3.18,6.48-.51,10.26,2.54,3.59,4.82,6.34,9.59,3.42a9.66,9.66,0,0,1,8.4-.66c7.86,3.23,12.45,9.79,16.12,16.85,3,5.78,6.85,7,13.14,6.3,12.51-1.31,23.91-4.59,34.1-12.28,9-6.83,19.82-10.39,30.61-13.29,8.68-2.33,11.71-7.52,10.71-15.91-.69-5.74-1.75-11.41-2.68-17.11-3.46-21.12,2.31-31.39,22.92-40.6A3.58,3.58,0,0,1,264.47,773.77Z"/><path class="cls-4" d="M642.91,386.13l-3-8.48c-1.18-1.17-.7-3-1.73-4.25a3.73,3.73,0,0,1-.6-1.95c-.46-.81-.94-1.62-1.42-2.42l-.69-2c-1.35-2.66-.77-4.54,2.17-5.49,6.42.13,12.17,0,18.2-4.29,9.68-6.81,30.9,1.29,36.18,12.16,6.75,13.9,4.07,27.93,1.36,42.05a4.4,4.4,0,0,1-2.8,1.74,6.75,6.75,0,0,1-3-1.19c-2.94-2.37-4.35-5.85-6.31-8.93-4.45-6.52-11.61-9.05-18.21-12.39a16.57,16.57,0,0,1-2.55-1.39c-3.18-3.27-7.51-3.2-11.57-3.93C646.1,379.19,645.14,387.6,642.91,386.13Z"/><path class="cls-5" d="M115.71,779.82l-.69,0-.69,0a90.74,90.74,0,0,1-11.21-31.31c-2.11-12,.44-22.64,7.2-32.8a391.84,391.84,0,0,1,57-68.05c5-4.71,9.46-10,14-15.09,8.94-10,14.91-21.05,13.08-35.29-.73-5.64.26-11.5.47-17.26,4.34.28,3.88,3.88,4.63,6.65.52,7.5-.8,15.12,1.54,22.5.76,24.87,11.6,46.29,23.15,67.45a73.68,73.68,0,0,0,4.37,7.75c.79,1.19,1.56,2.4,2.38,3.57,1.17,1.54,2.3,3.11,3.46,4.66a185.77,185.77,0,0,0,66.27,54c2.29,1.11,4.41,2.49,5.32,5.09-.29,5-5.4,1.74-7.16,4.22-13.51,2-22.92,11.88-34.36,17.85l-.37-.44c-1.15-6.5,4.39-8.38,8.08-11.34,5.34-4.29,11.82-6.71,18.43-10.21-28.34-17.6-54.57-36.85-71.27-66.24a59.73,59.73,0,0,1-4.86-7.76c-7.5-16-17.41-31-20.22-50.17-29.12,30.56-59.45,58.32-79.55,94.75-1,2.95-2.23,5.84-3.51,8.68-3.59,6.12-3.4,12.48-.79,18.77,2.79,6.71,4.36,13.75,6.11,20.75C116.93,773.7,119.16,777,115.71,779.82Z"/><path class="cls-5" d="M268.46,69.33C308.61,52.57,344.9,29,381.17,5.39,393.55-2.67,405.22-1.77,414,8.61c9,10.74,8.53,19.92-2.71,31.45-12.85,13.17-26.89,25.16-38.31,39.75-5.3,6.77-6.25,12.32-1.34,20.25,17.67,28.56,33.81,58,44.23,90.13a31,31,0,0,1,.73,4.24c.69,2.24,1.34,4.47-1.71,5.57-4-1.44-4.91-5.15-6-8.52-5.24-17-13.06-32.9-20.51-48.95-9-17.22-17.53-34.7-28.47-50.83-2.72-4-4.67-7.8,2.35-9.4A4.24,4.24,0,0,0,365,80.62c10.47-18.17,28-29.76,41.76-44.83,3.37-3.68,6-8.1,6.63-13.34a19.59,19.59,0,0,0-.12-4.12,10.25,10.25,0,0,0-2-3.57C400,5,394.28,4.21,382.65,12.1,369.6,21,356,29,343,37.89c-7.7,5.09-16.12,9-23.78,14.11C304,60.76,289.05,70.28,271.09,72.8,269.44,72.23,268.13,71.4,268.46,69.33Z"/><path class="cls-6" d="M158.29,487.09c-12.85,19.61-25.86,39.13-31.29,62.48-.53,2.28-2.16,5.44-4,6.08-18.25,6.36-24.17,25-37.12,36.61-3.18,2.85-5.43,6.79-10,8.1-2.46-3.32-2.71-7.29-3.81-11-.79-2.68,1.09-7.44-3.84-7.31-3.19.09-6.79,2.53-7.26,5.73-1.43,9.74-5.28,18.73-7.78,28.13-.76,2.85.86,4.78,2.24,6.89,1.86,2.85,6.79,5.07,5,8.57-1.92,3.72-8.25,2.54-11,7.17-.88,1.46-4-1.69-5-4.17,0-.5.06-1,.08-1.49-.87-10.78,3-20.61,6-30.66,2.75-9.16,4.75-18.43-3.06-26.44a26.31,26.31,0,0,1-1.95-2.14,29.2,29.2,0,0,0-3-3A105.29,105.29,0,0,0,33,564.29c-1.73-1-3.57-1.78-5.23-2.9a2.73,2.73,0,0,1-.91-2.77c8.4-6.53,13.74,1.27,20.11,4.26a75.47,75.47,0,0,1,9.9,9.6c1.86,2,3.37,5,6.83,4,3.72-1.16,4.09-4.52,4.25-7.8.12-2.48-.1-5-.1-7.46,1.56-15.16,10-22.27,26.55-22.58a18.29,18.29,0,0,1,4.71,1.64,15,15,0,0,1,2.8,1.67c2,2.29,5.41,4.12,2.82,8-2.73,1.33-5.13,0-7.59-.89-14.34-2-18.8,1.49-19.31,15.34-.32,8.63.44,17.28-.14,25.91a3.12,3.12,0,0,1-.26.74,9.13,9.13,0,0,0,1-.47,113.76,113.76,0,0,0,29-38.82c7.09,2.13,10.91-.59,13.46-7.53a237.79,237.79,0,0,1,21-42.66c3.74-6.05,6.54-13,14-15.85A2.37,2.37,0,0,1,158.29,487.09Z"/><path class="cls-7" d="M237.91,340.48c-7.16,3.12-14.13,2.37-20.75-1.41-6.24-3.55-12.41-7.25-18.44-11.15-7.2-4.65-12.55-10.42-23.69-7.32-12.3,3.42-22.74-5.78-30.36-15.09-10.67-13-17.38-28-15.58-45.57,2.12,1,3.16,2.92,4,5,3,13.08,7.76,25.36,16.46,35.84,3.38,4.35,7.8,7.43,12.34,10.42,6.07,4,12.11,4,18.34.47a131.73,131.73,0,0,0,17.92-12.09c10.92-8.78,23.24-12.8,37.22-11.63,24.14,2,48.12-1.09,72.17-2.12,9-.38,13.33-8.18,20.75-10.72a3.3,3.3,0,0,1,4.09,2.34c.36,2.52-.66,4.63-1.91,6.68-5.08,8.76-12.95,12-22.77,11.84-26.38-.29-52.66,3.71-79.07,2.14-12.41-.74-21,6.48-29.9,13.37-4.63,3.6-2.7,6.46,1.2,9.34a94.19,94.19,0,0,0,37.25,16.69A2.09,2.09,0,0,1,237.91,340.48Z"/><path class="cls-8" d="M736.11,403.51a222,222,0,0,1,20,29.3c1.22,2.17,1.2,6.93,5.27,5.24,3.79-1.57.45-5.06.29-7.62-.26-4.13-1.23-8.21-.75-12.66a119.12,119.12,0,0,1,18.36,41.47,90.72,90.72,0,0,0,5,17.4,17.86,17.86,0,0,1-1.81,9.8c-8.21,4.09-11.12,2.8-19.73-8.7-1.28-9.12-.3-18.65-4.78-27.22-4.56-10.88-9.92-21.31-17.18-30.65-2-2.17-4.19-.18-6.29-.28C725.43,413.28,735.84,408.9,736.11,403.51Z"/><path class="cls-9" d="M433.69,905.86c-3.66-10.22-11-12.3-20.64-9.34-4.78,1.47-9.54,3-14.3,4.51-1.71-.36-2.78-1.23-2.54-3.15,2.89-4.37,7.89-4.7,12.21-6.14,4.53-1.51,5.85-3.6,3.1-7.85-3.32-5.13-6-10.66-9.94-15.4-1.49-1.92-4.05-3.4-2.83-6.5,5-3,8.18,0,10.9,3.61a155.86,155.86,0,0,1,11.06,17.24c5,8.83,6.54,8.9,12.53,1,3.28-4.28,6.38-8.71,10.32-12.45,10.4-6.91,16.45-6.09,24.18,3.24,3.51,4.23,5.79,9.19,8.09,14.1,1.89,4,4.38,6.29,9.23,5.8,5.18-.52,6.42-3.72,7-8.07.81-6.64,3.06-12.64,8.42-17.11,7.79-6.5,14.71-6.09,22.05,1.05,4.43,4.31,6.43,10.57,11.7,14.14a5.24,5.24,0,0,1,2,2.2c-.7,3.84-2.22,7.11-6.12,8.71a2.88,2.88,0,0,1-2.87.38c-4.17-3.79-3.87-10.07-7.73-14-3.17-3.24-5.84-8.3-11.41-6.16-4.87,1.87-6.08,6.75-6.53,11.59a27.06,27.06,0,0,0,.49,7.51c.32.89.59,1.8.86,2.71.5,1.32,1,2.65,1.37,4a7,7,0,0,1,0,2.8c-.68,1.31-1.48,2.37-3.19,1.53-8.8-9.13-18.66-3.47-28.23-2.05-2,.89-2.65-.45-3.18-2-.74-11.09-6-19.44-15.43-25.15-11.1,2.61-14.08,11.66-16.42,21-.66,2.64.45,5.67-1.42,8.17A2,2,0,0,1,433.69,905.86Z"/><path class="cls-10" d="M736.11,403.51c3.74,5.32-8.52,10.05-.57,15.53,4.86,3.55,6.4,8.36,2.33,12.84-3.67,4-7.9.62-11.71-1.36-16.11-8.39-19.29-21.86-15.17-38.22-.08-1-.18-2.1-.33-3.14-.36-.94-.67-1.91-1-2.87a51.08,51.08,0,0,0-6.22-13.3c-1-2.64-3.1-5.88-.15-7.86,3.45-2.32,4.32,2.6,6.72,3.66l-.07-.1c1.47,3.69,4.13,6.45,7,9C724.67,385.35,730.75,394.16,736.11,403.51Z"/><path class="cls-11" d="M536.39,450.94c18.14,11.27,24.05,31.11,32.09,48.68,18.08,39.54,34.2,80,45.51,122.11,1.64,6.1,9.26,11.23,3.79,18.79-1.69.32-2.59-.71-3.39-1.95-1.45-3-2.69-6-4.33-8.9-2.12-4.75-3.27-10.06-7.86-13.37a8.32,8.32,0,0,1-.61-3c2-13.25-4.55-24.54-8.85-36.14-4-10.75-8.17-21.46-12.48-32.1-.45-.93-.85-1.88-1.23-2.84-.65-1.4-1.29-2.81-2-4.21-7.24-20.72-16.6-40.47-26.51-60.05-4.42-8.74-12.39-15-15.5-24.42A2.65,2.65,0,0,1,536.39,450.94Z"/><path class="cls-12" d="M10.13,571.23C14.77,546,28.61,527,47.89,510.41c15-12.87,27.11-28.9,40.7-43.29,14.84-15.72,29.5-32.72,52.36-37.79,1.54-.78,3.34-.16,4.88-.9l3.06-.25a3.39,3.39,0,0,1,.72,2.9c-2.49,4.28-7.42,3.09-11,4.95-16.06,8.29-30.8,18.31-42.16,32.63C89.73,477.13,81.52,484.15,74.2,492c-15.55,17.08-32.83,32.53-47.44,50.48-6,9.74-4.56,22.61-13.21,31.21C11.56,574.07,10.63,573,10.13,571.23Z"/><path class="cls-13" d="M542.23,788.25c0-.61,0-1.22,0-1.82,1.76-4.64,5.91-4.83,9.83-5a158.23,158.23,0,0,0,85.51-28.66A142.34,142.34,0,0,0,681.43,713c7.34-10.1,15.19-19.85,21.12-30.91,1.19-2.22,2.59-4.31,5.23-5.07,1.76.33,3.09.93,2,3.09C680.14,744.85,609.09,790.69,542.23,788.25Z"/><path class="cls-6" d="M235.19,449.36c-2.17-3.88-5-1.52-7.48-.63-15.29,5.46-30.58,10.95-45.81,16.58-10.82,4-15.54,14.74-23.61,21.78L157.05,486c.32-13,9.91-19.21,19.31-24.82,13.06-7.77,27.89-11.7,42.4-15.48,13.1-3.41,22-9.68,25.5-22.88,14-3.56,21.69-16.74,34.27-22.59,13.78-6.42,35.84,3.86,39.67,18.83-4.64,2.73-7.38-1-10.21-3.34-11.58-9.67-23.38-11.59-35.77-1.61A162.23,162.23,0,0,0,246.09,442c-2.28,3.11-4.12,6.72-8.06,8.24A3.67,3.67,0,0,1,235.19,449.36Z"/><path class="cls-14" d="M385.21,358.28a43.2,43.2,0,0,1,2.41,6c3.21,13.37,10.18,21.47,25.36,20.25,4.88-.39,9.71,1.82,13.44,5.87,26.87,29.21,63,41.78,98.95,54.52,4.11,1.46,8.28,2.29,11,6l-.61.67c-4.35,3.13-8.58.23-12.86-.22-35.94-11.74-70.33-26.4-98-53.34a23.07,23.07,0,0,0-16.57-6.74c-8.8-.15-17.17-2.08-24.44-7.43-.3-.43-.59-.88-.88-1.31a4.65,4.65,0,0,1,.18-3c5.56-6.66-3.84-12.34-1.27-18.82C382.53,359.29,383.35,358.1,385.21,358.28Z"/><path class="cls-15" d="M568.38,688.73c0-.71,0-1.42,0-2.13l4.94.36c1.78.85,3.81.26,5.61,1,38.72,6.83,71.55-5.38,98.84-32.37,16.88-16.69,29-36.81,34-60.54l1.48-.9c1.88-.23,3.4.22,4.13,2.17-8.51,37.13-29.43,64.89-62,84.58-26.42,16-54.26,17.86-83.5,11.6A5.63,5.63,0,0,1,568.38,688.73Z"/><path class="cls-16" d="M618.36,327.85q-8.13-17-16.28-34c-.93-1.93-2.7-4.05-.69-5.82,2.9-2.54,4.25,1,6,2.29,15.18,11.21,26.91,25.79,39.09,39.95C643.65,331,620.45,329,618.36,327.85Z"/><path class="cls-17" d="M638.23,458.53c2-2,2-8.55,7.38-2.45a153.23,153.23,0,0,1,12,15c1.63,1.34,3.35,2.62,3.13,5.1-.81,4.2,1.31,7.65,2.88,11.24,2.76,6.28,3.35,12.44-1,18.33-5,2.21-7.37-1.76-9.69-4.66a97.9,97.9,0,0,0-11.13-11.8c-1.65-2.29.13-5.18-1.31-7.52C641.57,473.86,639.84,466.2,638.23,458.53Z"/><path class="cls-18" d="M642.91,386.13c2-.84,1.33-9.46,6.13-2.09,3.43,3.87,9,1.74,12.79,4.5l0,0a11.14,11.14,0,0,1,1.2,3.1c1.56,7.9,6.42,14.19,10.15,21,5.36,9.83,6.79,19.94,1.52,30.34-5.08-9.32-8.57-19.52-16.59-27.18-2.59-2.48-2.39-.93-3.06.74A161.53,161.53,0,0,1,642.91,386.13Z"/><path class="cls-19" d="M393.73,806.66C382.59,798.58,373,789.43,370.17,775c-.44-2.22-2.58-4.12-3.93-6.16a10.87,10.87,0,0,1-2.69-5.22c-3.09-31.39-5.76-62.78,2.84-93.83,1.15-4.14,1.39-8.68,5.13-11.67a3.88,3.88,0,0,1,3.65-.31c3.65,4.64,1.89,9.58.79,14.51-6.78,30.45-6.14,61-1.1,91.6a55.24,55.24,0,0,0,9.23,23c.69.89,1.34,1.82,2,2.74.34.42.66.87,1,1.3,3,4.27,7.59,7.61,8.3,13.34A2.46,2.46,0,0,1,393.73,806.66Z"/><path class="cls-20" d="M631.74,358l-9.42-21.18c4.93-6.6,13-8.82,18.94-5.2,7.24,4.4,12.18,18.62,8.32,24.91C644.45,364.93,638,361.22,631.74,358Z"/><path class="cls-21" d="M10.13,571.23l2.35,2.92c2.81,4.9-.6,8.87-1.37,13.06,5.32-2.6,6.62-7.69,7.06-13.6.42-5.68.84-11.73,8-13.69l3.55.58a5.89,5.89,0,0,1,1,3c-.81,4.75-3.25,9-4.06,13.76-2.54,6.53,1.79,14.49-4.2,20.3-6.16-2.8-9.26-.72-9.74,6-.28,3.92.22,8-1.44,11.75-.91,1.4-2,2.45-3.82,1.69C-7.28,600.78,3.28,586.12,10.13,571.23Z"/><path class="cls-22" d="M640.49,481.79c2.09,1.72,1.55,4.18,1.83,6.42-8,19.15.45,32,16,42.21,2,2.33,3.57,5,5.35,7.48,3.34,4.66,5.08,10,6.9,15.36,2.46,5.89,1.89,12.72,5.69,18.19,5.93,6.56,13.91,10.25,21.11,15a6.68,6.68,0,0,1,1.9,2.32c-.1,1.78-.81,2.84-2.81,2.39-16.24-5.81-29.75-13.25-30.87-33.83-.67-12.23-8.89-21.79-18.78-29.08-15.83-11.65-16.31-12.53-11.28-31.11C637,492,638.84,486.92,640.49,481.79Z"/><path class="cls-23" d="M631.74,358c4.7-1.42,9.67,4.3,14.25-.5,5.64-5.91,1.09-11.57-.81-17-1.7-4.9-4.88-9.64-11-8-4,1.05-8.76.61-11.82,4.35a15.15,15.15,0,0,1-4-9c5.32.22,10.18,2.12,15.48-2.77s6.83,7,12.68,5.19c5,1.63,4.45,10.68,12,8.9,5.51,3.81,1.65,7.14-.52,10.56-1.64,1.39-3.32,2.83-3.84,5-2.23,9.32-8.37,10.38-16.28,7.86-.78,1.48-1.57,2.95-2.35,4.42C633.26,364.43,632.39,361.28,631.74,358Z"/><path class="cls-24" d="M783.19,478.43c-1.44-6.37-5-12.3-3.92-19.18,7.88,15.78,11.29,33.24,18.28,49.35,1.31,3-.71,4.52-2,6.62-3.67,5.81-8.15,10.89-12.7,16-8.18,9.22-15.31,19-14.71,32.43.22,4.73-2.34,8.93-5.6,12.47a3.22,3.22,0,0,1-2-2.37c.54-10.84.86-21.73,7.08-31.28,4.53-7.38,10.45-13.67,15.86-20.36,1.69-2.47,3.69-4.74,5-7.49,2.18-5.78.37-11.21-1.38-16.64C784.93,491.62,782.36,485.35,783.19,478.43Z"/><path class="cls-25" d="M159.35,224.9c-4.89-17.64-1.35-36.69-9-53.86-.44-2.79-.69-5.57.58-8.48,4.9.43,4.81,4.58,6.19,7.51,1.64,6.85,5.08,13.08,7.07,19.81,2.18,7.49,4.84,14.82,7.66,22.1.4,7.34-3.15,12-9.93,14.31A2.56,2.56,0,0,1,159.35,224.9Z"/><path class="cls-26" d="M148.92,430.15c0-.65,0-1.31,0-2,18.14-5.91,36.24-11.94,54.43-17.67,6.76-2.13,13.35-4.91,16.43-11.33,5-10.52,13.72-14.06,24.25-15.21,2-1.07,2.83,0,3.23,1.82-6,7-17.31,7.23-21.11,16.93a21.79,21.79,0,0,1-2.05,2.55c-.38.4-.79.78-1.17,1.18-20.24,14-43.67,19.52-67,25.38A6.92,6.92,0,0,1,148.92,430.15Z"/><path class="cls-27" d="M398.75,862.66l4.37,3.59c-.19.47-.37.94-.55,1.42-12.82,9.19-18.46,21.82-17.93,37.4.46,1.88-1.92,3.2-1,5.17-4.19,3.72-6.24,2.4-6.79-2.82a34.22,34.22,0,0,1,3.84-19.89c7-12.84,10.82-27.43,21.73-38.21a25,25,0,0,0,7.65-21.7c5.06.42,3.68,4.92,4.95,7.76a10.12,10.12,0,0,1,.06,3C411.93,848,406.09,855.83,398.75,862.66Z"/><path class="cls-28" d="M103.21,840.62c-.09,2,.27,3.86,2.55,4.6-2.19,8.13-6.75,13.79-15.61,15L88.46,858l-.78-1.28a6.62,6.62,0,0,1,3.42-4.87c-7.89,3.89-16.83,5.94-22.7,13.12,3.64,1.16,8-2.19,11,2.07-.83,1.5-1.67,3-2.5,4.51-7.17-2.16-14,1.7-22.42,1.65C64.52,851.55,85.15,848,103.21,840.62Z"/><path class="cls-29" d="M385.21,358.28l-1.95,2.5c-3.54-.43-4.51-3.35-5.53-6-9.24-24.08-11.59-47.75,4.4-70.25,4.71-5.59,5.43-13.91,12.27-18.06a2.64,2.64,0,0,1,2.75.88c-.89,2.35-1.3,5.06-2.74,7C374.83,300.56,373.74,328.71,385.21,358.28Z"/><path class="cls-30" d="M696.51,591.19c.67-.77,1.34-1.53,2-2.3,4.34-4.51,9.4-.48,14-1.23,3.84.3,4.9-1.94,5.12-5.29.25-4-.43-7.91-.56-11.89a6.15,6.15,0,0,1,1.3-3c9.32-4,13.23-2.2,15.29,7.11,1,4.52.74,9.3,2.74,13.63a3.64,3.64,0,0,1-1,3.23c-7.15,4.91-15.51,2.51-23.26,3.84l-.48-.22C706.47,594.44,701.25,593.76,696.51,591.19Z"/><path class="cls-31" d="M155,171.3l-3.73-8.78c-.44,3.84-.71,6.19-1,8.53-2.45-6.45-3.51-12.88.2-19.26,4.5-3.84,2.42-13.9,12.14-12.81,4.33,9.51,6.47,19.21,1.79,29.2C162.55,172.2,160.27,176.65,155,171.3Z"/><path class="cls-32" d="M615.83,638l1.95,2.48c-6.65,7.58-13.27,15.19-20,22.71-1.18,1.31-3,3.41-4.14,3.16-16.1-3.64-24.1,10.45-35.9,16.11l-.33-3c-.37-1.51-.13-3.18,1.09-3.92,8.46-5.12,12.93-13.24,16.92-21.81,1.05-2.27,2.46-4.46,5.29-5a4.8,4.8,0,0,1,3.53,2.75c1.27,3-2.84,7,.72,9s6.87-1,9.57-3.3a129.09,129.09,0,0,0,13.71-13.86C610.31,641,611.89,637.81,615.83,638Z"/><path class="cls-33" d="M366.07,764.31c.06,1.52.11,3.05.17,4.57-18.14-.63-35.85-3.52-52.78-10.3-4.73-1.9-9.41-3.66-14.63-2.66l6.48-4.18c2.77-1.7,5.63-.92,8.36-.06,15.2,4.77,30.8,7.69,46.5,10.15A11.73,11.73,0,0,1,366.07,764.31Z"/><path class="cls-34" d="M170.69,126c6.83-6.35,14.07-12.49,18.33-20.93,7.82-15.45,21.31-21.34,37.35-23.41,2-.79,3,.11,3.42,2-.17.31-.29.86-.52.91C208,89.29,196.64,106.07,184,121.35c-2.7,3.25-5.68,6.6-10.27,7.47C171.93,128.67,170.55,128.13,170.69,126Z"/><path class="cls-35" d="M710,368.79l-5.49-2.8c-2.25,2.65,1.49,4.82.64,7.3-3.14,4.11-7.44,4.12-9.83.37-6.83-10.69-17.23-18.89-21.72-31.18a3.26,3.26,0,0,1,1.86-2.33l21.36,25.57c4.14-4.26-.86-7.77,1.86-11.82C703.83,358.15,707.84,362.71,710,368.79Z"/><path class="cls-36" d="M235.19,449.36l2.87.14c1.54,3.88-.63,7-2.21,10.18-9.9,19.64-20,39.19-26.09,60.47a6.58,6.58,0,0,1-2.52,3.43c-2.1.67-3-.64-3.65-2.26C209,495.1,223.71,472.93,235.19,449.36Z"/><path class="cls-37" d="M414.5,199.44q1-2.5,2.06-5c6.51,16,5.07,31.23-4.18,45.94-5.5,8.74-8.59,18.87-15.23,27l-.51-.45c-3.32-5.07.61-8.9,2.42-12.92,4.86-10.81,11.71-20.76,14-32.68C415,214.11,409.16,206.4,414.5,199.44Z"/><path class="cls-38" d="M21,597.22c4.81-6.64-1.25-15.11,3.65-21.74,3.74,2.82,3.4,7,3.18,10.86-.7,12.29,2.53,23.45,8.8,33.86,2,3.72,5.71,6.38,6.84,10.67a3.83,3.83,0,0,1-1,2.87l-17.22-4.31c-.74-2.11,1.23-3,2-4.4-.54-6.17-4.88-11-6-16.9C20.5,604.52,17.45,600.92,21,597.22Z"/><path class="cls-39" d="M657.59,349.37c-.89-3.51,4.28-6.49.9-10.21-1.81-6-3.62-12.07-6.24-20.83,11.74,5.6,17.3,13.93,23.24,21.82a9.81,9.81,0,0,1-.79.79c-8.28-.25-10.63-7.1-13.65-10.79,1.76,5,4.52,11.67,6.28,18.69.63,2.49,1.14,5.45-1.24,7-2.6,1.63-4.44-1.37-6.6-2.38a7.92,7.92,0,0,1-1.74-2.51C657.69,350.39,657.64,349.88,657.59,349.37Z"/><path class="cls-40" d="M246.62,386.12c-.87-.72-1.74-1.44-2.62-2.15,22.38-3.66,30.58-19.07,32.77-39.48a5.38,5.38,0,0,1,3.31,3.55c.58,9.33-2.35,17.9-6.36,26C269.08,383.49,257.53,388.35,246.62,386.12Z"/><path class="cls-41" d="M527.35,895l2.77.55c-.4,1.89-.79,3.78-1.19,5.67a14,14,0,0,0-1.22,2.67c-2.65,6.55-5.26,13.12-8,19.64-.51,1.2-1.55,2.17-2.75,3.8-6.39-6.78-12.15-13.32-15.89-21.43l2.26-2.49c4.77.14,5.6,4.7,8.24,7.24,1.65,1.59,1.83,5.83,5.84,3.56C520.62,907.67,520.63,899.56,527.35,895Z"/><path class="cls-42" d="M197.23,587.09q-1.17-3.54-2.36-7.07c-.08-15.23,2-30.25,4.44-45.22a2.09,2.09,0,0,1,3.08-.46A6.8,6.8,0,0,1,205.1,539c-.31,13.53-3.81,26.77-3.47,40.38C201.7,582.46,201,585.83,197.23,587.09Z"/><path class="cls-24" d="M712.18,595.25c7.31-3.62,15.2-4.27,23.17-4.53,7.74-6.85,16.15-12.55,26.25-15.35l.91.76c-5.33,10.9-15.56,14.29-26.19,17-2.12,1.15-3.64,3.25-6.09,3.88-4.93,1.12-9.78,1.62-14-2Z"/><path class="cls-43" d="M229.18,83.67l-2.81-2a296.18,296.18,0,0,1,42.09-12.32l2.36,2.18c0,.74,0,1.76-.46,2C257.42,80.07,244.23,85.69,229.18,83.67Z"/><path class="cls-44" d="M534.06,842.74c2.21-1.83,1.37-4.53,1.93-6.82a166.83,166.83,0,0,1,6.89,35.22c.61,6.48-1,11.9-6.64,15.65l-.5-.39C538.31,871.73,531.45,857.42,534.06,842.74Z"/><path class="cls-45" d="M729.44,625.83c-.34,9.09-4.43,17.16-7,25.63a9,9,0,0,1-7.38-4.13c2-10,5.45-19.21,12.62-26.7C730.68,621.52,730.49,623.52,729.44,625.83Z"/><path class="cls-46" d="M278.82,347.22l-2.05-2.73q-1-5.06-1.91-10.11c-.78-1-1.61-1.94-3.06-1.88h-.31c-2.39.54-4.92,1.45-5.69-2.21,9.6-6,20.28-5.71,30.94-5.12,3.06.17,7.16.68,6.83,5-.28,3.81-4.09,3.39-6.8,3.44-7.75.14-14.35,1.69-15.58,11A5.31,5.31,0,0,1,278.82,347.22Z"/><path class="cls-47" d="M433.69,905.86h2.22c5.24.13,4.21,4.85,5.54,7.74,2,4.41,2.24,9.87,7.49,12.3a8.11,8.11,0,0,1,2.5,1.44,2.24,2.24,0,0,1-.39,2.6c-3.22,8.21-7.1,7.09-10.31.26C437.14,922.51,433.59,914.68,433.69,905.86Z"/><path class="cls-48" d="M129.48,258.25c7.11-11.79,15.26-22.67,26.83-30.54.95-.26,1.9-.54,2.84-.83,3.21,4.31-.89,6.27-3,8.57-2.61,2.82-6.23,4.56-8.85,7.42-.61.75-1.24,1.47-1.85,2.21s-1.12,1.57-1.68,2.35a65.88,65.88,0,0,0-9.12,14.85,3.36,3.36,0,0,1-2.65,1C129.9,262.23,130.9,259.64,129.48,258.25Z"/><path class="cls-19" d="M413.19,836.37c-2.2-2.5.27-6.68-3.15-8.75-3.25-7.35-9.94-12.13-14.13-18.78a3,3,0,0,1,2.62-2C412.69,812.56,419.28,825.85,413.19,836.37Z"/><path class="cls-49" d="M715.91,649.36c3.13-2.29,4.9-.34,6.5,2.1a78.68,78.68,0,0,1-12.61,28.66L708,677.79c-2-9.35,7.13-15.49,7-24.3a9.36,9.36,0,0,1,.15-2.89C715.4,650.19,715.65,649.77,715.91,649.36Z"/><path class="cls-50" d="M266.27,330.44l5.22,2.05-33.58,8c.07-.81.15-1.62.22-2.43C245.83,329.27,255.84,329.07,266.27,330.44Z"/><path class="cls-51" d="M170.69,126l2.07,1.83c-1.09,6.31-5.59,8.81-11.21,10.06-4.52,4-7,9-8.77,14.91-1.18,4-1.34-.85-2.27-1C151.9,139,161.17,132.41,170.69,126Z"/><path class="cls-52" d="M451.05,929.93l-.39-3.46c.62-9.27,10.65-21.7,20-24.76l2.19,2.09C464.45,911.57,457.65,920.66,451.05,929.93Z"/><path class="cls-53" d="M729.44,625.83c-.73-1.54-1.46-3.07-2.18-4.61-3.3-9.37-.73-17.88,3.81-26.1,1.29-1.91,3.34-1.75,5.25-1.94l-1.16,2.09c-.61,1.32-.58,2.81-1,4.17C733.34,608.38,732.89,617.37,729.44,625.83Z"/><path class="cls-54" d="M29.81,627.32l-4.63,2.11c-6.77-3-14.57-4.46-17.8-12.47L10,614.38C16.5,618.8,24.87,620.43,29.81,627.32Z"/><path class="cls-55" d="M383.61,910.24c-8.55-1.41,2.45-2.89,0-4.32-1.22-1.58-.13-2.64.81-3.74a20.62,20.62,0,0,1,2.29-1.88c.4-.29.82-.55,1.23-.84,2.71-1.45,5.43-2.82,8.29-.3l2.53,1.87Z"/><path class="cls-56" d="M202.8,536.32l-2-2.49a3.1,3.1,0,0,1,0-3.89c.94-2.87,1.87-5.75,2.81-8.62.76.86,1.51,1.72,2.27,2.57C208.73,529,207.65,533.12,202.8,536.32Z"/><path class="cls-35" d="M717,377.71c-4.14-1.61-7.33-4-7-9C713.86,370.49,715.43,374.1,717,377.71Z"/><path class="cls-57" d="M578.9,687.94c-2,.59-4,1-5.62-1C575.33,686.31,577.25,686.34,578.9,687.94Z"/><path class="cls-58" d="M129.48,258.25c2.13.88,1.88,3,2.4,4.68a1.24,1.24,0,0,1-.55,1.77c-.75-1.59-1.49-3.18-2.24-4.76A1.26,1.26,0,0,1,129.48,258.25Z"/><path class="cls-59" d="M145.83,428.43c-1.35,1.81-3.14,1.34-4.9.91A4.05,4.05,0,0,1,145.83,428.43Z"/><path class="cls-23" d="M638.21,373.4a3.55,3.55,0,0,1,1.73,4.26A4,4,0,0,1,638.21,373.4Z"/><path class="cls-60" d="M200.78,529.94c0,1.3,0,2.59,0,3.89a4.27,4.27,0,0,1-1.48,1A3.87,3.87,0,0,1,200.78,529.94Z"/><path class="cls-24" d="M734.11,599.44c-.55-1.62-.57-3.11,1-4.18Z"/><path class="cls-19" d="M395.91,808.84l-2.18-2.18c.43-.44.87-.89,1.3-1.35a2.19,2.19,0,0,1,2.16,2.15Z"/><path class="cls-23" d="M636.19,369c.47.81.94,1.62,1.42,2.42Z"/><path class="cls-6" d="M42.4,633.74a12.18,12.18,0,0,0,0-1.91c1.91-.17,3,.33,2,2.49l-.06,0Z"/><path class="cls-50" d="M271.8,332.5l3.06,1.88Z"/><path class="cls-61" d="M159.36,227.63l-3.05.07,3-2.8.42.78A1.16,1.16,0,0,1,159.36,227.63Z"/><path class="cls-62" d="M527.71,903.84l1.22-2.67Z"/><path class="cls-63" d="M679.3,455.73l-.31-3.6a35.71,35.71,0,0,1-1.9-9.48c-.75-11.91,1.84-15.27,13.86-14.37,8,.61,10.45-4.89,14.21-9.45,5.9-2.23,7.08,2.81,9.17,6.15A50.18,50.18,0,0,1,719,435.53a26.83,26.83,0,0,1,.93,2.79,39.89,39.89,0,0,0,2.11,6.6,43.09,43.09,0,0,1,2.48,6.39,49.42,49.42,0,0,0,1.93,6.82,25.7,25.7,0,0,1,.93,2.94c.58,2.73,1.61,5.4,1.59,8.18-.06,6.36-2.3,9.56-9,5.69-3-2.56-4.53-6-6.09-9.45-1.44-4-3.59-7.77-4.81-12-2.2-7.59-11.11-13.54-18.81-13.44-4.46.05-5.77,2.51-5,6.3,1.7,9,4.56,17.47,13.43,22.22a42.15,42.15,0,0,1,16.61,16.49c2,5,7.88,5.09,11.06,8.62a10.3,10.3,0,0,1,2,4.16,5.45,5.45,0,0,1-1.26,4.45c-8.2,3.58-15.06-.23-18.07-6.74-4.88-10.55-13.18-16.32-22.58-21.49a13,13,0,0,1-1.82-2.41c-1-2.16-1.7-4.51-3-6.59C679.45,462.33,681.3,458.55,679.3,455.73Z"/><path class="cls-64" d="M707.56,418.81c-3.41,9.43-7.56,16.88-20,11.6-4.85-2.05-8.17,1.19-8.32,6.68-.13,5-.18,10-.26,15-2.53-2.51-3.6-5.71-4.25-9.1,1.85-14.7-1-28.08-10.35-40-2.6-3.32-5.93-7.3-2.63-12.26l1.51.12a9.11,9.11,0,0,1,2.88.94,65.82,65.82,0,0,1,14.92,19.12c0-3.06-4.53-7.56,2.4-9.1l4.74,8.44a10.66,10.66,0,0,0,1.84,2.23v0a5.69,5.69,0,0,0,3,1.59c2.63-2.89,2-10.09,8.14-8C706.55,407.92,710.07,412.29,707.56,418.81Z"/><path class="cls-65" d="M679.3,455.73l4.27,8.86c1.9,1.84.13,4.85,2.12,6.67l0-.08c1.9,2.23,1.82,4.6.53,7.06-2.58,3.39-2.13,7-.81,10.74a23.74,23.74,0,0,1,.67,2.89c-.34,5.37,5.3,13.65-1,15.41-7.16,2-7-8-9.88-12.83-1.6-2.75-2.37-6-3.68-8.91-1.52-3.43-1.46-8.92-8.13-5-1.75,1-4.48-1.63-3.89-4.87q-.93-2.28-1.85-4.56c5.16-3.22,7.83-10.77,16.65-7.72C677.61,464.53,679.46,459.6,679.3,455.73Z"/><path class="cls-66" d="M246.62,386.12c24.84-1.29,29.45-19.33,32.2-38.9l.49.12c4.69-.86,7,3,10.13,5.19,21.12,14.8,42.81,27.86,69.46,30.43,8.39.81,16.37-1,24.55-.73,9.39,3.78,18.88,6.93,29.24,6.46,5.38-.25,9.79,2.38,13.36,6.12,25.94,27.18,59.73,40.37,93.85,53a21.32,21.32,0,0,1,2.83,1.5c15.57,9.75,26,23,31.88,40.82,9.18,27.76,11.1,56.65,15.27,85.2,1.63,11.08-5.29,19.23-12.89,26.15-7.26,6.6-15.91,11.21-25.06,14.82-6-.14-11.12-2-14.22-7.64,8.43-16,3.5-30.53-5.16-44.57-3.63,13.41-9.13,26.8-5.11,41.44-4.31-.4-7.44,1.41-9.73,5.7-3.7-6.83-3.23-13.73-3.24-20.56-2.73-7,2.51-13.44,1.37-20.32-.82-25.91,2-51.9-2-77.75-.65-4.12-1.28-8.25-4.89-10.35-24.21-14.11-48.11-29.19-77.52-29.65-2.41.27-3.34,2.05-4,4.07-5.33,30.5-9.73,61.13-16.34,91.38-1.54,7-3.44,12.39-11.93,7.43-6.42-3.75-5,2-6.07,4.79-.66,2.27-1.46,4.43-4.23,4.83-8.38-10.92-7.2-24.46-9.51-36.88-5.22-28.07-14.13-54.94-24-81.57a71.93,71.93,0,0,0-12.26-21.44c-.79-.68-1.57-1.39-2.36-2.07a10.57,10.57,0,0,1-1.91-2.45c-.14-.49-.27-1-.41-1.5-14.47-21.1-33.23-24.07-52.12-8.06-5.73,4.85-11.06,10.16-17,15.67-3.39-.73,5-5.21-.49-5.82-.62-.06-1.42,1.49-2.14,2.28-10.73-3.07-22.53-4.81-23.82-19.44h0a6.11,6.11,0,0,0,1.83-2.7C227.74,390,238,389.22,246.62,386.12Z"/><path class="cls-67" d="M368.77,564.43c.62-1.35,1.24-2.71,1.85-4.06,1.11-.94,2.44-2.38,3.7-2,12.9,3.68,16-5.08,17.9-14.45,5-25,13-49.52,16.37-74.87,2.22-16.55,3.88-18.22,19.52-12.26,6,2.86,8.7,8.45,11.36,14,20,41.67,33.27,85.43,41.1,130.9.63,9.25,7.67,14.16,13.53,19.88.15.46.29.93.44,1.4,4.73,8.22,4.72,17.93,8.21,26.46,4.17,10.22,5.38,23.31,20.76,24.25,2.23.14,1.07,2.92,1.5,4.46,4.3,15.36,2.85,30.68-.17,46-7.94,40.38-2.49,79.74,9.22,118.6,1.14,5.23,2,10.53,3.46,15.68,2.68,9.58,3.3,18.93-1.78,28-2,1-4.06,3.65-6-.19-1.48-2.86-2.83-5.92-4.91-8.31-4.26-4.92-7.33-13.54-15.54-10.73-8.44,2.89-13.72,9.87-14.8,19.52-.41,3.7,3.64,10.38-5,10.18-6-.13-13.47,3.91-15.77-6.63-1-4.69-4.51-9-7.31-13.12C459.56,867,454.7,866.19,444.25,873a7,7,0,0,1-5.29-3.29c-6.93-12.07-17.16-21.66-24.76-33.22l-1-.17c2.57-14-5.79-22-16-28.89L395,805.32q-4.71-6.12-9.44-12.22c3.05-6.35,7.7-3.15,11.94-1.92,12.25,3.54,23.42,10.94,36.82,10.31,1.51-.49,3-1,4.46-1.6A163.36,163.36,0,0,1,460,791.68c15.34-4.77,24.26-16.31,28.65-31.51,3.68-12.74,3.84-25.89,2.8-38.83-2.77-34.42-7.34-68.4-27.47-98.13-12.37-18.27-34-22.62-52.29-9.93-9.27,6.43-16.36,15.38-25.76,21.63a17.51,17.51,0,0,1-2.86,2c-6.66,4.34-8.13,0-8.7-5.35-.95-9-2.13-17.88-3.95-26.71-.61-10.28-2.43-20.41-3.75-30.6C366.19,570.63,365.47,567.14,368.77,564.43Z"/><path class="cls-57" d="M568.38,688.73l2.47,1.75a116.52,116.52,0,0,0,50.41,3.3c27-4,49.32-19.39,73.74-29.68,3.87-1.63,7.54-4.85,11.94-1.26,3.6,5.72-.72,9.76-3.61,13.37C689.92,693,675.92,709.33,659.16,723l-1.54.34c-15.67,7.17-30.42,16.37-47.2,21.06-23.24,6.5-46.77,8.59-70.61,4.28-13.51-2.45-14.31-4.09-12-18.32,1.78-11,4.59-22,4-33.28-.35-6.7-1.55-13.36-2.84-23.9C540.75,687.67,554.37,688.84,568.38,688.73Z"/><path class="cls-68" d="M640.26,753.84c-24.51,18.91-52.78,27.53-83.16,30.27-5,.45-10.16-.06-14.86,2.32-5.29-1.56-13.76,2.48-15.63-3.68-3-9.84-2.58-20.66-1-31.06.4-2.6,3.09-2.62,5.31-2,39,11.15,75.43,1.08,111.41-13.11,9.48,4,10,6.8,2.44,12.94C643.14,750.86,640.83,751.41,640.26,753.84Z"/><path class="cls-69" d="M581.33,649.3c-7.09,10.76-10.89,24.13-23.91,30.2-3.07-2-8.21,7.64-10-1.77-2-4.48.91-8.75.53-13.17.53-6.77-1.08-13.69,1.43-20.31,1.76-2.58,3.5-2,4.88.28,1.91,3.11,1.15,7,2.87,11.4,6.23-7.2,7.15-15.72,9.63-23.42,2.2-6.83,7.29-14.61-2.88-19.87,13.09-6.18,22.26-2.16,24.16,11.54C589.31,633.12,590.76,642.88,581.33,649.3Z"/><path class="cls-70" d="M507.44,605.55c-7.4-5.37-5-13.47-3.74-19.78,1.66-8.28,4.5-16.43,6.21-24.81.38-1.88,1.34-3.46,3.22-3.89.72-.16,2.45.84,2.46,1.34.26,13.27,13.53,23.33,9.28,37.69-1.34,4.53-.16,10.38-6.59,12.12-1.5,1.66-3.32,1.77-5.3,1.07l-1.14-.91C511.43,605.79,508.85,606.59,507.44,605.55Z"/><path class="cls-71" d="M520.86,662.57c-1.57,1.9-1.12,7.84-6.08,2.66C507.21,657.3,499,621.4,502.65,612c1.87-4.74,6.11-2.52,9.19-3.66l-.2-.21c4.23,2.51,10.22,2.2,12.51,7.82-1.21,13.21-4.86,26.33-1.62,39.74A10.09,10.09,0,0,1,520.86,662.57Z"/><path class="cls-72" d="M640.26,753.84c-2.6-2.88.39-3.61,2-4.43,8.07-4.27,7-8.48.13-12.82,5.56-3.87,12.17-6.54,15.28-13.24l-.14.1c10.17-7,17-17.7,27.35-24.56,4.9,1.78,3.76,5,2.1,8.48-1.15,2.41-4.56,3.64-3.7,7.09C672,731,657.39,743.78,640.26,753.84Z"/><path class="cls-73" d="M492.35,590.72l3.87-33.11c3.34,4,.06,9,2.12,13.23.75,7-1.55,13.43-3.87,19.85l-1.06-.07Z"/><path class="cls-74" d="M520.86,662.57l-.09-6.39c.57-6.45-1-13.52,5.13-18.41a3.39,3.39,0,0,1,3.13.71l-4.44,24.07Z"/><path class="cls-75" d="M544.51,677.7q2-6.76,4-13.51c1.36.3,1.53,1.69,2.3,2.52a18.66,18.66,0,0,1-3.33,11Z"/><path class="cls-76" d="M115.71,779.82,114.36,771c3.13-1.18,6.37-.59,9.58-.61,3.43,1.55,4.13,5.31,6.31,7.87,1.51,1.77,2.48,1.87,3.58-.22,12.43-10.38,26.36-18.64,38.84-29,18.09-15,26.57-36.4,39-55.2,2.51-3.8,3.84-8.72,9.15-10,8.72,14.75,20.18,27.32,32.82,38.57a208,208,0,0,0,43,29.33c-12.32,6.55-24.9,10.52-32.55,21.54-19.83,8.46-25.56,18.83-22.55,39.38,1.4,9.56,6.52,19.83,2,28.69s-16.71,6.66-24.86,10.9c-5.44,2.83-11.75,4.65-16.22,8.57-12.3,10.79-27.58,11.67-42.38,14.58-4.7.92-6.13-1.51-7.7-5.31-3.5-8.48-8.82-15.69-16.89-20.52a14.79,14.79,0,0,1,.56-5.33c5.76-19,5.71-19.14-10.79-31.78C124.68,800.86,121.83,789.86,115.71,779.82Z"/><path class="cls-77" d="M125.3,812.51c10.69.7,20,12.86,16.92,22.71-1.57,5-4.42,9.61-6.68,14.4-1.44-.08-3.57-.81-4.2-.14-8.64,9.26-11.27,1.7-16.19-4.5-4.35-5.48-3.53-7.28,1.45-11C123.45,828.78,123.77,820.24,125.3,812.51Z"/><path class="cls-69" d="M141,860.07a9.44,9.44,0,0,1,1.64,1.35c10.48,13.34,10.29,13.66-5.46,20.16-10.63,4.38-21,9.27-31.55,13.93-2-5.1,2.47-7.8,4.55-11.07,4.79-7.53,10.87-14.16,16.29-21.25C130.47,857.94,135,855.8,141,860.07Z"/><path class="cls-78" d="M114.63,850.91c5.91,8.93-1,24.58-12.45,27.78-6.88,1.92-13.88,3.42-20.82,5.11-2.46-2.78-1.33-5.65.48-7.88C90.72,864.94,100,854.37,114.63,850.91Z"/><path class="cls-79" d="M114.63,850.91c-9.8,7.1-20.23,13.38-28.27,22.72-2.62,3-5.5,5.7-5,10.17a2.54,2.54,0,0,1-1.63.65c-2.41.73-3.17-.24-2.64-2.55a3.32,3.32,0,0,1,.66-2,13,13,0,0,1,1.42-2.49c2.26-6.64,6.39-12.08,11-17.22q7.81-7.47,15.61-15C111.49,842.79,112.44,847.81,114.63,850.91Z"/><path class="cls-80" d="M141,860.07c-4.19-.47-8.17-1.24-11.32,3.14-7.82,10.9-16,21.55-24,32.3-1.69,1.54-3.61,1.89-2.81-1.07,4.45-16.47,15.81-28.57,27.46-40C134.67,850.18,138,856.83,141,860.07Z"/><path class="cls-81" d="M79.39,867c-5.23.58-10.45,1.17-15.68,1.71-.23,0-.74-.46-.7-.61a7.1,7.1,0,0,1,.67-1.46c4.27-1.86,7.13-5.83,11.49-7.62,3.26-1.34,6.3-3.76,9.72-.49.24.45.47.91.7,1.37Z"/><path class="cls-78" d="M77.09,881.9l2.64,2.55c-1.15.6-2.9,2-3.35,1.67C74.37,884.6,75.84,883.17,77.09,881.9Z"/><path class="cls-81" d="M88.46,858l-2.87,1.94-.46-.8a1.35,1.35,0,0,1,1.68-.81A1.61,1.61,0,0,1,88.46,858Z"/><path class="cls-78" d="M79.17,877.4c-.47.83-.94,1.66-1.42,2.49C78.23,879.06,78.7,878.23,79.17,877.4Z"/><path class="cls-82" d="M692.24,416.86a4.48,4.48,0,0,1-2.18-4.33c3.76-15,5.82-30-1.71-44.55-4.8-9.28-25.74-13.17-33.78-6.39-5.33,4.5-10.92,4.47-16.72,1,7.42.37,14,.08,13.45-10.37-.2-3.92,3.1-4.25,6.29-2.84l-.05,0a15,15,0,0,0,2.07,2.14l7.26,4.33c-3.39-10.76-6.21-19.68-9.79-31l17.62,16.1c7.29,10.42,14.63,20.8,21.83,31.28,2.61,3.81,5.72,1.17,8.65,1.07,5.33,2.81,5.16,8.39,6.61,13.15a29,29,0,0,1,0,3.23c-.42,3.71,1.53,9-3.45,10.24-5.94,1.5-6.94-4.29-9.26-8C704.92,402.34,695.19,408.63,692.24,416.86Z"/><path class="cls-83" d="M683.47,401.84c-5.42,5.71,4.29,10.08.85,17-7.47-8.72-11.88-19.08-20.4-25.95-.67-.7-1.37-1.38-2.09-2l-.07-.06c0-.73.07-1.47.11-2.2C670.55,390.59,678.27,394.17,683.47,401.84Z"/><path class="cls-83" d="M661.83,388.54c-5.42,1.79-10.43,2.42-12.8-4.5C654.48,382.2,659.25,382.25,661.83,388.54Z"/><path class="cls-82" d="M690.05,412.51c-.61-.74-1.23-1.48-1.84-2.23C688.82,411,689.44,411.77,690.05,412.51Z"/><path class="cls-84" d="M270.74,412.57c13.85-10.9,19-11.22,34.43-1.92,4.49,2.71,8.82,5.7,13.22,8.56l-.16-.17a17,17,0,0,1,2.32,2.32l-.14-.12c9.21,8.13,13.88,19,18.09,30.12,18.61,49.18,27,100.56,33.09,152.45.21,1.8.72,3.52,1,5.29s.14,3.3.13,4.94c-.41,2.65.69,6.65-3.38,6.73-2.91.06-3-3.56-3.77-5.86-.24-.68-.3-1.42-.53-2.11-1.18-3.63-.8-9.28-5.67-9.38-6.11-.12-4.38,6.21-5.74,9.94-3.67,10.12-8.16,19.95-10.62,30.52-30.87,28.31-67.1,40.28-108.75,35.49-3.66-.43-7.18,1-10.79.23-13.29-21.3-24-43.5-24.59-69.31-2.94-15.08,3.77-24.36,17.36-30.1,8.68-3.68,16.05-9.7,23.63-15.21,11.7-8.5,20.74-18.62,22.82-34,1.83-13.47,10-22.88,22.28-28.68,2.61-1.23,5.28-2.36,7.79-3.78,13.35-7.57,17.84-16.11,15.88-31.24-.83-6.45-1.59-12.86-1.86-19.37-.76-18-9.39-26.68-27.13-28.43C275.56,419.12,269.05,420.78,270.74,412.57Z"/><path class="cls-60" d="M270.74,412.57c1.21,5.48,5.55,4.22,9.24,4.27,16.35.21,28.07,9.4,29.27,25.34.78,10.38,2.36,20.71,2.58,31.12.27,12.41-7,23.93-18.81,28.27-17.28,6.33-27,17.84-29.11,36.35-1.51,13.34-11.59,21.32-21.4,28.61a278.82,278.82,0,0,1-30.84,19.77c-7.58,4.21-12.76,8.71-10.71,18.19a5.48,5.48,0,0,1-2.1,5.8c-2.63-7.59-1.92-15.41-1.63-23.2q2.79-25.38,5.57-50.77l3.06-12.43c6.93-26.44,20.53-50,32.2-74.39C247.12,435.57,257.44,422.75,270.74,412.57Z"/><path class="cls-85" d="M342.26,642.86c.25-8.64,1.48-16.7,7-24.15,2.69-3.61,2.11-9.55,3.46-14.31.65-2.27-.24-7.78,3.66-5.68,3.14,1.68,9.36-1.41,9.81,5.59.31,4.93,1.8,9.78,2.78,14.69,2.08-.92,1-3.12,1.75-4.61,1,.24,2.27.15,2.52,1.46,2.29,11.86,1.85,24,3.18,35.91.28,2.6-1.73,4.56-3.46,6.38-9,27.22-10.57,55.16-8.21,83.51.63,7.54.86,15.11,1.28,22.66-21.08-.22-41.05-5.76-60.76-12.57-29.39-13.53-54.66-32.19-73.32-59-2.51-8.51,2.14-12.35,9.39-10.79,26.17,5.61,49.31-3.48,72.16-13.83C325.49,662.66,335.91,654.93,342.26,642.86Z"/><path class="cls-86" d="M122.75,771.15c-2.85,3.79-5.61,1.3-8.39-.12-2.6-8.2-5.62-16.29-7.66-24.62-1.43-5.87-2.12-12.16,2.6-17.37,4.68,1.51,4.36,6,5.87,9.52,1.86,4.3,4.13,9.72,9.69,7.84s3.64-7.65,3.08-12.21c-1.13-9.18-6.42-13.26-15.48-12.87,11.05-21.83,27.17-39.89,43.6-57.61,12.92-14,27.45-26.42,39.28-44.56,2.12,22.65,13.29,39.7,21.18,58.06-11.41,12.54-17.54,28.19-25.14,42.95-5.42,10.54-13.31,19.12-22.23,26.47-12.53,10.32-25.52,20.07-36.77,31.85-4.27-.57-5.24-4.2-6.8-7.32C124.7,769.41,123.7,768.17,122.75,771.15Z"/><path class="cls-87" d="M132.3,777.55A64.09,64.09,0,0,1,152,756.67c20.06-13.15,35.29-30.23,44.68-52.51,2.91-6.91,7.59-13.06,10.65-19.92,2-4.4,5.17-6,9.22-7l4.28,6.68c-6.82,11.45-14.26,22.57-20.33,34.4-11.27,22-29.84,36.61-49.25,50.48-5.54,4-11.51,7.3-17.29,10.93-1,.35-2,.69-2.49-.57C131.25,778.68,131.71,778.08,132.3,777.55Z"/><path class="cls-88" d="M342.26,642.86c1.93,14.73-11.89,19.54-19.69,23.68-19.63,10.43-40.31,20.6-63.86,19.88a75.46,75.46,0,0,1-14.87-1.81c-6.26-1.44-12.28-1-11.85,8.08l-2.77-4a10.53,10.53,0,0,1-1.56-2.29l-4.21-6.78c2.42-4,6-4.6,10.27-3.75,34,6.72,64.06-4.6,92.66-21.11C331.94,651.53,334.87,644.11,342.26,642.86Z"/><path class="cls-89" d="M112.46,721.32a12.12,12.12,0,0,0,7.86-2.88c2.64-2.06,5-.92,6,1.81,2,5.31,4,10.7,5,16.24s1.18,12.8-5.9,14.25-10.62-5.08-13-10.51c-1.47-3.41-.89-7.74-3.1-11.18C110.35,726.47,111.4,723.9,112.46,721.32Z"/><path class="cls-85" d="M227.66,686.38l1.56,2.29Z"/><path class="cls-90" d="M159.36,227.63a9.82,9.82,0,0,0,.56-1.24c.06-.21-.09-.47-.15-.71,6.41-1.92,9.06-7,10.67-12.87-2.06-8.13,2-16.14.46-24.26,0-7.69-1.31-15.46.4-23.07-1.16,7.86-.39,15.88-.85,23.82-2,5.5-4.71,6.57-8.47,1.43-2.52-6.41-6.22-12.39-7-19.43,3,1.32,5.82,1.47,6.71-2.51,1.68-7.5,6.26-15,.21-22.57-2.22-2.78.58-5.6-.39-8.33l11.21-10.07c6.9-4.67,14.09-9.65,17.59-17.13,7.87-16.81,21.78-23.93,38.83-27,14.09-3.33,28.24-6.49,41.64-12.17,17.09-4.63,32.33-13.32,47.76-21.62,2.53,3.59-1,5.87-2.14,9.36C331.53,57.49,338.35,44.14,349.9,37c-3.11.27-5.82,2-8.08-.58C357.25,26,372.5,15.41,388.2,5.49c7.35-4.65,17.4-.75,26.16,8.79A6.27,6.27,0,0,0,416,17c0,1.38,0,2.75,0,4.12-12.66-2.59-22.7,2.82-32.13,10.36a60.82,60.82,0,0,1-10.52,7.31c-9,4.27-15.8,11.44-23.24,17.69-14,11.78-30,20.35-46.52,27.66-13.91,6.16-25.38,15.13-36.2,25.69,14.72-4,29.63-3.73,44.4-3.74,10,0,14.28,7.91,16.72,16.16s2.54,16.62-4.82,23c-3.81,3.32-8.41,5.67-11.91,9.39-10.45,9.47-21.59,18.16-31.15,28.6-3.19,3.47-6.59,6.71-8.4,11.19a7.89,7.89,0,0,1-2.1,2.17c-8.14,5.49-18,2.88-26.88,5.35-5.58,1.56-10.2-4.1-13.16-9.36a6.64,6.64,0,0,1,.66-5.92c6.59-1.29,13.82-1.74,14.23-11,.3-6.6,2.1-13.77-6.49-16.88-8.92,10.47-8.75,23.13-8.86,35.72,2.19,11.47,5.14,22.37,18.87,25.16,9-3.44,17.7,1.88,26.74.94,8.23-.87,16.61,0,24.93-.11,4.88.31,10.12-.66,14.21,3.39-17.82,19.76-38.09,34.2-64.34,39.91-12.61,2.74-24.69,8.08-37.28,11.33a121,121,0,0,1-23.07,3.79,19,19,0,0,1-2.82.13,6.42,6.42,0,0,0-4.89,1.24c-3,3-3.47,7.63-6.83,10.37-8.33,6.2-15.94,14.27-28,10.75-9.21-10.52-14.82-22.6-15.79-36.67a3.61,3.61,0,0,0,.55-1.77c.49-.23,1-.47,1.45-.72,6,5.27,11.61,4.81,16.48-1.59,4.7-6.18,3.38-10.63-5-17.37Z"/><path class="cls-91" d="M185.8,277.75c8.43-3.1,17.38-3,26.09-4.35,21-4.45,41.35-11.21,62-17,18.15-5.11,28.52-21.2,42.3-32.46,1.67-1.37,3.35-2.72,5.09-4a41.9,41.9,0,0,1,2.79-3.58c2.4-2.31,5.52-3.81,7.54-6.56,2.69-5.48,1.53-11,.3-16.55A93.19,93.19,0,0,0,324.44,170a31.49,31.49,0,0,1-3-15.42,13.83,13.83,0,0,1-.3-5.9,7.86,7.86,0,0,1,1.32-2.71c1.08-1.11,2.39-1.94,3.51-3,8.37-9.34,8.27-12.92,3-25.32-4.14-9.74-11.19-13.11-20.63-11.38-8.71,1.59-17.11-1.69-25.84-.16-5.59,1-5.68-3.67-3.21-7.12a28,28,0,0,1,10-8.14c10.5-5.51,20.41-12.22,31.93-15.66,18.94-5.65,30.54-21.27,44.85-33.18a69,69,0,0,1,6.68-5.51c9-6.12,16.73-14.11,27.53-17.73,6-2,10.95-2,15.67,2.28,1,10.07-6.19,15.89-12.24,21.79-13.17,12.81-28,24.17-37.13,40.49-2.53,4.52-5.51.81-8,2.26,12.5,17.41,22.63,36,31.58,55.26-.07,2.17.31,5.26-1.56,6-12.88,5.39-5.67,15.89-6.55,24.33-1.06,10.21,2.23,17.22,11.27,23.56,9.83,6.9,18.38,16.19,22.52,28.3-3.84,15.71-15.17,28.15-19.16,43.8-6.18,4.12-6.87,11.84-11.25,17.14-6.63-6.27-14.28-5.29-22.8-6.11-12.48-1.2-22.62-.17-32.68,6.5-.1.06-.57-.34-.8-.59-.48-.5-.43-1.13.1-1.85l2.66-4.37c.33-2.17-.2-3.3-2.61-2.13-10.41,16.93-28,13.58-43.52,14.63-17.89,1.2-35.92,2.91-53.88.81-11.17-1.31-20.47,2.61-29.16,8.92-4.08,3-8,6.17-12.19,8.94-19.93,13.09-28,11.65-43.39-7.43,10.63-1.19,19.13-6.92,27.55-12.86C179.91,286.51,179.41,278.56,185.8,277.75Z"/><path class="cls-92" d="M415.8,223.11c-10.75-10.38-17.39-24.86-32-31.46-3.46-1.57-4.63-5.18-4.62-9.16,0-9,.53-18-1.89-26.84-1-3.79-.78-8.64,5.29-8.2,5.15.38,4.74-4.73,7.51-6.58,10.35,18.6,18,38.33,24.38,58.57C414.8,207.34,417.56,215.1,415.8,223.11Z"/><path class="cls-93" d="M341.82,36.38c5.12.8,8.65-5.28,16-2.8-16.17,10-24.74,29.15-46.78,28.9,1.29-5.8,7.3-7.41,7.49-12.59Z"/><path class="cls-91" d="M416,17c-.54-.89-1.09-1.78-1.64-2.67C414.91,15.17,415.46,16.06,416,17Z"/><path class="cls-94" d="M26.12,559.92a14.75,14.75,0,0,0-5.06,11.45c.38,10.84-4.79,17.75-14.5,22.18,2-6.58,4-13,5.92-19.4L25,540.68c12.68,5.67,19.27-2.76,24.8-11.55,7.94-12.6,18.11-23.88,23.24-38.19,15.6-18.36,31.37-36.54,51.21-50.62A34.13,34.13,0,0,1,138,434.26c17.61.79,24.54,9.5,19.85,25.39a114.22,114.22,0,0,1-22.92,42.66c-10.62,12.34-21,24.83-29.64,38.64-1,1.54-2.22,2.88-4.39,2a4,4,0,0,1-1.8-.65c-1.06-.16-1.77-1-2.69-1.42-18.83,1-25.43,6.49-26,21.5C63,570,54.48,567.48,46,565.15,39.72,562.08,34.42,555.31,26.12,559.92Z"/><path class="cls-59" d="M100.85,543c9.87-17.68,23.79-32.3,36.23-48,9.08-11.48,14.44-24.71,18.81-38.6,3.13-10-.16-15-9.45-17.86-3-.91-5.67-2.77-8.49-4.2,2.88-3.45,8.05-.77,11-4.11,26.06-4.76,51.14-12.26,73.89-26.31,3.6,11.8,16.14,12.64,23.82,19.45-3.48,12.43-9,21.68-23.9,23.95-11.61,1.76-22.66,7.23-33.94,11.13-14.27,4.94-25.25,13.71-31.74,27.62-16.26,16.68-24.69,37.85-33.69,58.7-.57,1.32-.91,2.75-1.47,4.08-3.45,8.11-8.25,9.6-14.68,2.94l-.86-.4s-.66-.67-.67-.67l-.36-.87C106.09,546,101.87,545.54,100.85,543Z"/><path class="cls-95" d="M35.72,623.41C24.25,609.24,24,592.46,24.61,575.48c1.63-4.58,1.21-10,5.38-13.56a3.36,3.36,0,0,1,2.76.07c4.25,2,8.69,3.63,11.67,7.56A2.14,2.14,0,0,1,46,571.3l1.4,1.84c-.41,13.49-1.2,26.94-4.59,40.06C41.75,617.32,42,622.77,35.72,623.41Z"/><path class="cls-96" d="M35.72,623.41c6.41-13.07,8.28-27,7.6-41.37-.19-4.08-2-8,4.09-8.9,6.74,3.22,9.4,8.86,8.6,15.93-1.69,15.13-9.59,28.94-9.65,44.46,0,.27-1.25.53-1.92.79.63-1.87-.63-2.23-2-2.49Z"/><path class="cls-97" d="M79.54,593.31c-9.92-8.36-5.42-43.55,6.11-47.72A14.24,14.24,0,0,1,99,547C92.26,562.35,87.11,578.34,79.54,593.31Z"/><path class="cls-98" d="M79.54,593.31c4.11-16.42,7.81-33,19.46-46.28l6.32,2.74-.09-.25a11,11,0,0,1,2.25,2.26l-.27-.07c1.8,5.5-.91,9.86-3.9,13.92C96.1,575.45,88.68,585.13,79.54,593.31Z"/><path class="cls-99" d="M46,565.15c8.08-1.24,16.49.37,24.36-2.76.05,3.58-.09,7.16.18,10.72.38,5.17-4,5-6.92,6.72-3.76,2.2-4.73-.84-6.58-3C53.55,572.76,49.69,569,46,565.15Z"/><path class="cls-100" d="M55.78,627.2c-.64,1.09-1,2.51-1.6,2.57a2.4,2.4,0,0,1-2.91-2.29c-.09-1.24-.57-3.14,1.29-3.06C53.6,624.46,54.57,626.1,55.78,627.2Z"/><path class="cls-94" d="M32.75,562,30,561.93a3.76,3.76,0,0,1-.32-1.43C30.84,560.7,32.31,560.28,32.75,562Z"/><path class="cls-59" d="M96.36,540.89l2.69,1.42Z"/><path class="cls-96" d="M46,571.3l-1.59-1.75Z"/><path class="cls-101" d="M329.21,282c3.87,2.35,5-1.65,6.53-3.31,6-6.34,12.65-8.37,20.17-3.36,3.72,2.47,5.8,1.51,9.44-.55,7.3-4.15,18.26,1.44,20,9.28-17.64,25.1-13.86,50.8-2.13,76.72,1.66,4.75,3.07,9.61,5.05,14.23,2.43,5.64-1,5-4.47,4.62-1.1-.94.68-.76-.77-.66-.5,0-.73.3-.66.77s.33.56.84.56a6.64,6.64,0,0,0,.2,1.93c-13.36,9.34-27.71,3.68-40.69.6-24.11-5.74-45.06-18.7-63.45-35.49.33-14.2-5.19-15.56,22.93-18.09-12-4-24,.22-36,1.18-9.17,3.31-19.4,2.74-28.14,7.62-19,2.82-31.55-10.18-45.84-18.79-4.28-2.59-2-5.55.91-7.67,13-9.59,25.3-19.19,43.86-16.9,24.74,3,49.67-2.31,74.57-1.78C320,293.08,324.6,287.64,329.21,282Z"/><path class="cls-101" d="M329.26,275.5c.76-1.21,1.84-2.12,3.12-1.07s.63,2.28-.51,3.2Z"/><path class="cls-102" d="M692.24,416.86c1.38-9.56,11.37-17.53,5.45-28.65a17.17,17.17,0,0,1,1.86,2.15c2,3.29,3.34,8.57,7.66,7.87,4.54-.74,1.48-6.15,2.75-9.22a13.57,13.57,0,0,1,1.83-2.57h0c.62.82,1.46,1.44,2.08,2.26,0,3.25,1,6.95-.22,9.67-5.94,13.46,1.76,21.19,11.37,27.86,3.29,2.28,6.76,7.68,11.1,4.75,4.58-3.09-.32-7.86-.58-11.93,1.13-4.27,2.91-6.28,6.5-1.83,0,6.29,2,12.49.92,18.82-3,3.4-8.19,3.41-10.89,7.23a5.81,5.81,0,0,1-2.75.83c-3-.4-4-2.76-4.86-5.08-1.89-4.88-4.06-2-6.22-.32-4.12-6.33-5.44-14.16-10.68-19.88a60.82,60.82,0,0,0-2.72-6.91c-1.15-2.14-2.63-5-5.4-4.38s-2.48,3.79-3,6.23C696.08,415.63,698.76,422.94,692.24,416.86Z"/><path class="cls-103" d="M759.73,449.32c6.06,8.73,5.12,18.57,4.47,28.35l-1.38.52c-4.1-2.67-8-5.42-12.74-7.27-5-1.95-10.29-5.56-8.27-12.88,1.73-1.31,6.77.28,4.1-4.87-1.59-3.07-3.89-6.08-2.18-9.91C750.88,440.48,753.08,450.77,759.73,449.32Z"/><path class="cls-104" d="M759.73,449.32c-.64,4-2.46,5-5.64,2.13s-6.3-5.76-9.45-8.65c-2.48-1.39-3.56-3.41-2.8-6.26-1.66-6.46-3.77-12.93.2-19.33C749.74,426.92,756.26,437.28,759.73,449.32Z"/><path class="cls-105" d="M764.2,477.67c5.8,2.71,8.26,11.91,17.06,8.79,2.94,3.38,1.15,6.09-1.21,8.72-3.46,3.54-1.9,8.05-2.32,12.18-.6,3.57.65,9-4.4,9.21-4.73.21-5-4.92-5.74-8.68-.46-2.41-.28-4.9-1.06-7.25-1-6.07-1.49-12.27-3.85-18.07a5.49,5.49,0,0,1,1.12-4.79Z"/><path class="cls-106" d="M777.2,493c4.27-.37,4.34-3.35,4.06-6.55.66-2.67-.84-5.86,1.93-8,2.89,8.75,6.06,17.42,8.54,26.27,1.1,3.92,2.26,8.41-1.46,12C785,509.29,779.13,502.23,777.2,493Z"/><path class="cls-107" d="M414.2,836.53c13.65,9.18,20.48,24,30.05,36.51-3.74,5.21-8.16,10.08-11.05,15.72-4.79,9.34-8.53,5.5-12.26-.32-4.42-6.9-8.51-14-12.74-21-2.15-3.56-4.63-6.49-9.45-4.74Z"/><path class="cls-108" d="M470.65,901.71c-7.6,7.5-15.88,14.44-20,24.76l-2,1a7,7,0,0,1-4.4-6.86c0-13.61.72-27.18,4.32-40.41.92-3.39,3.71-5.15,6.6-6.71C466.28,880.17,473.43,893.26,470.65,901.71Z"/><path class="cls-62" d="M527.35,895l-8.47,22c-6.71.36-6.78-4.81-7.42-9.21-.72-4.93.39-10-1.14-15.69-3.67,1.24-5.3,6.07-9.57,5.52-.72-1.2-1.83-2.31-2.11-3.61-1.78-8.37,3.16-22.11,8.93-22.47,9.32-.58,13.36,7.23,17.19,14.13C526.29,888.34,526.53,891.81,527.35,895Z"/><path class="cls-69" d="M396.22,899.16c-3.29-1.27-5.52,1.84-8.45,2.05-3.44-1.46-3.91-4.16-2.47-7.11,4.72-9.68,8.66-19.94,17.92-26.58a1.34,1.34,0,0,1-.1-1.27c4.35,6.63,8.68,13.28,13.08,19.87,2.48,3.72,3.26,6-2.71,7.06S401.45,895.66,396.22,899.16Z"/><path class="cls-71" d="M455.22,873.48c-8.33,17.25-9.37,35.38-6.52,54-2.44,4.09-3.67,1.63-4.69-.94-2.75-6.87-5.4-13.77-8.1-20.67-2.86-12,2.18-21.2,10.12-29.43C448.52,873.83,451.12,871.21,455.22,873.48Z"/><path class="cls-109" d="M500.75,897.53c4.11-3,5.84-7.88,9.28-12.68,5.54,5.55,3.38,12.14,4,18,.57,5-1.79,11.06,4.81,14-1,4.55-2.76,4.32-5.17.92-3.44-4.84-6.92-9.65-10.38-14.47a6,6,0,0,0-.21-1.78,7.18,7.18,0,0,1-1.61-2.31A2,2,0,0,1,500.75,897.53Z"/><path class="cls-62" d="M501.51,899.27l1.61,2.31Z"/><path class="cls-82" d="M713.87,388.69c-.7-.75-1.39-1.51-2.08-2.26C712.48,387.18,713.17,387.94,713.87,388.69Z"/><path class="cls-110" d="M530.63,615.1c10.31-7.56,23.51-11.09,30.89-22.76,4.11-6.49,6.6-12.32,5.11-20.9-4.73-27.14-5.88-54.86-15.19-81.25-3.43-9.73-7.33-18.56-14.8-25.83-4.88-4.75-10.44-8.94-13.91-15l13,2.28c19.82,26.22,33.73,55.42,43.55,86.67a28.28,28.28,0,0,1,1.48,2.41c.21.7.43,1.4.64,2.1-1.08,4.61-1.08,4.61-7.55,1.07.42,12.78,3.47,25,3.81,37.46.25,9.21.22,18.1-9.81,22.93-2.48,1.2-2.73,4-3.38,6.46-9.33,4.88-15.77,13.71-25.71,18-6.77,2.94-9.34,2.4-8.64-5.27C530.43,620.68,529,617.8,530.63,615.1Z"/><path class="cls-91" d="M564,610c-2-2-5-4.66-.58-6.42,17.78-7.13,11-21.69,10.43-34.09-.33-7.82-2.25-15.56-3.18-23.37-.32-2.76-1-6.49,2.08-7.83,4.12-1.8,4.13,2.85,5.51,4.92,1.74,2.58,2.65,3.52,3.23-.45,9.12,19.51,16.41,39.72,23.34,60.08,1.55,4.55.41,8.37-1.65,12.25a7.07,7.07,0,0,0-1.56,2.39,15.16,15.16,0,0,1-2,2.12c-8.8,8.26-9.2,8.45-13.93-1.47-3.21-6.73-7.74-8.91-14.68-7.42C568.58,611.25,566.06,612.41,564,610Z"/><path class="cls-111" d="M615.83,638q-9.95,10.71-19.9,21.43c-.25.26-.48.54-.72.81-3.86,4.38-9.78,5.62-13.77,3.16-6-3.69,1.81-7.77,1.7-12,4.12-10,2-23,14.07-29.24,7.34-2.55,9.9,4.89,14.93,7.18A15.09,15.09,0,0,1,615.83,638Z"/><path class="cls-112" d="M612.14,629.37c-6.73,2.36-8-7.77-14.36-6.28-1.1-3.27,1-4.8,3.36-6.18l-.1.1a1.86,1.86,0,0,1,2.06-.84C613,615.85,608.88,625.14,612.14,629.37Z"/><path class="cls-2" d="M603.1,616.17,601,617c-.3-1.74.55-2.21,2.1-1.9Z"/><path class="cls-91" d="M580.81,540.69c-.5-.8-1-1.61-1.48-2.41C579.82,539.08,580.31,539.89,580.81,540.69Z"/><path class="cls-113" d="M73,490.94c3.61,1.8,5.2,4.47,1.71,7.45C63.79,507.75,59.89,522,50.82,532.56c-1.39,1.63-2.73,3.31-4.11,5-6.29,7.55-12.78,13.75-21.72,3.16C39.29,522.44,56.75,507.26,73,490.94Z"/><path class="cls-114" d="M683.23,714.46c-3.83-5.78,7.1-9.05,2.55-15,0-.51.05-1,.08-1.52a8.56,8.56,0,0,1,1.16-2.79c12.22-12.79,20.35-28.35,29.33-43.34,2.16,10.24-5.48,17.33-8.36,25.94A236.51,236.51,0,0,1,683.23,714.46Z"/><path class="cls-115" d="M707.11,664.53C696,663.32,687.84,670.41,679,675c-24.18,12.56-48.8,23.36-76.76,22.06-12.1-.56-24.13-2.65-36.49-4.08,1.36-2.85,3.53-1.84,5.07-2.49,7.55.73,15.11,1.42,22.65,2.2,50.47,5.18,99.07-32,118.25-84.28,1.61-4.41,3-8.9,4.47-13.36l14.87.07q-1.92,13.05-3.82,26.1-5.68,14.07-11.35,28.14l.2-.11C713.31,654.47,712.83,661,707.11,664.53Z"/><path class="cls-116" d="M659.48,475.66c6,8.24,5.88-.77,8.91-4.35l15.66,37c2.66-7.29-1.59-12.24-.43-17.5,12.61,5.43,19.07,16.4,21.26,28.63A187.1,187.1,0,0,0,714,552.37c2.3,6.12,3,12.5,3.34,18.94,1,3.88,2.09,7.78-1.54,11-9.23-1.08-13.48-8.57-16.69-15.35-5.26-11.12-11.11-21-22.72-26.38a9.85,9.85,0,0,1-4.35-4.73c-.77-4.78-1.71-9.52-3.93-13.89-.43-.81-.81-1.66-1.18-2.5a29.2,29.2,0,0,0-2.68-4.7c-1.49-2.72-4.12-5.14-2.47-8.75,2.24-8.08,2.07-15.69-3.35-22.79A5.3,5.3,0,0,1,659.48,475.66Z"/><path class="cls-117" d="M661.77,506l4.57,8.52c1.07,1.3.63,3.28,2,4.43h0c2,3.91,1.6,7.27-3.15,8.07-3.63.62-5.37,3.14-7.65,5.26-2.73-2.34-5.39-4.77-8.19-7-16.55-13.35-17.25-16.95-7.06-37.09C652,490.7,653.71,501.8,661.77,506Z"/><path class="cls-118" d="M435.6,804.22c-14.79,1.55-26.86-7-40.11-11-3.52-1.08-6.55-2.68-9.9-.08l.06,0a6,6,0,0,0-2.3-2.28c-12.39-14-13-31.71-14.57-48.87-2.6-28.22.07-56.17,6.29-83.79.51-8.68,1.94-17,8.22-23.74l.62-.12c12.1-7.09,20.77-18.67,34-24.56,18.28-8.12,28.78-6.39,39.87,10.29,15,22.59,23.8,47.77,28.22,74.43,1.41,8.56,3.8,16.88,4.79,25.54,2.41,21.13-5.1,39.91-13.63,58.29A25,25,0,0,1,457,792.93c-6.42.87-12.26,3.84-18.06,6.64a8,8,0,0,1-2.91,1.14c-3.16-.39-4.92-2.66-6.59-4.84C430.75,799.08,435.25,800.14,435.6,804.22Z"/><path class="cls-119" d="M383.29,634.38l-8.22,23.74-2.07,0c.36-14.64,1.46-29.32-2.24-43.75.08-1.41.15-2.81.23-4.21,1.17-1.39-.06-3.89,2.22-4.76a80.13,80.13,0,0,1,3.65,25.85C376.61,639.26,380.44,634.92,383.29,634.38Z"/><path class="cls-67" d="M383.35,790.78l2.3,2.28Z"/><path class="cls-120" d="M29.81,627.32c-7.49-3-15.8-4.69-19.86-12.94-1-6.75-1.5-13.48,2.1-19.7,1.5-2.59,4.16-4.74,7-4s.74,4.45,2,6.52c1.35,9.64,4.27,18.68,10.2,26.57C32.59,625.68,33.79,627.49,29.81,627.32Z"/><path class="cls-121" d="M713.87,590.7l-15.36-1.81a8.14,8.14,0,0,1-2-.78c-1.72-2.26-2.61-4.94-3.81-7.46C689,573,683.61,569.31,675,573c-6.42-5-4.46-12.8-6.61-19.22,5.24-9.06,19.4-9.33,23.74,1.08,5.32,12.76,15.09,21.74,22.33,32.77A2.8,2.8,0,0,1,713.87,590.7Z"/><path class="cls-122" d="M714,588.67c-8.63-8.95-18.55-16.73-22.09-29.73-2.7-9.89-14.58-12.17-23.45-5.19q-3.33-7.57-6.67-15.13c-1.26-3.29-3-7.25,1.11-9.15,4.44-2.05,8,.3,9.94,4.83,21.73,9,26.08,33.05,41.33,47.66C716,584.25,715.83,586.48,714,588.67Z"/><path class="cls-123" d="M675,573c6.37-6.76,11.32-6.2,17.64,2a17.77,17.77,0,0,1,3.86,13.12C688.57,584.17,680.53,580.37,675,573Z"/><path class="cls-124" d="M672.79,534.3c-5.24-2.55-11.75-8.34-11,4.32l-4.17-6.3c-.06-4.56-1.57-9.88,6.82-7.39,4.18,1.23,3.54-3.3,4-5.94C671.72,523.55,675.48,528,672.79,534.3Z"/><path class="cls-125" d="M716.15,464.66q2.24,4.29,4.48,8.56c4.16,7.2,12.87,6.83,18.73,11.21,7.31,5.36,13.9,11.37,17.79,19.81,5.07,12.59,4.34,27.14,13.07,38.49-7.21,9.73-4.81,22-8.62,32.64-7.7,6.89-16.68,11.62-26.25,15.35.06-.72.12-1.45.17-2.17-1-5.62,4-7.79,6.52-11.38,2.64-3.81,5.19-7.61,5.76-12.35,1.3-6.89-2.11-12.6-4.66-18.49-2.43-5.62-4.64-11.28-5.18-17.46-.24-2.39.29-4.85-.6-7.19a33.88,33.88,0,0,1,.32,9.22,4.51,4.51,0,0,1-2.86,3.82c-9.17-9.42-10-20.87-8.07-33l-.5-4.68a2.72,2.72,0,0,0-1.3-1.63c-2.75-4.21-11.11-1.42-11.18-9-3.73-8.8-9.21-16.74-12.75-25.64-1.2-3-3.15-6.51,0-8.72,3.34-2.32,6.09.85,7.87,3.36C711.19,458.64,714.12,461.3,716.15,464.66Z"/><path class="cls-126" d="M770.22,542.73c-6.18-2.61-8.66-7.69-9.84-14-1.58-8.36-3.58-16.64-5.39-24.95,3.72-3.85,8.38-4.87,13.51-4.45,4.45,4.33-.65,11.32,4.86,16.2,2.38-3.25,1-6.8,1.57-9.88,9.86,2.07,9.39,10.32,10.51,17.6Z"/><path class="cls-127" d="M785.44,523.3c-4-5.55-4.09-13.47-10.51-17.6.61-4.26-2.38-9.16,2.27-12.7,5.49,7.27,11.88,14.05,13.06,23.69Z"/><path class="cls-128" d="M162,190.73c3.07,1.71,6,3.16,6.63-2.29,1.59-1.07,3.14.47,4.72.07,2.5,8.51-.58,16.36-2.89,24.3C165.34,206.32,164.15,198.34,162,190.73Z"/><path class="cls-129" d="M164.15,215.75l-.85,1.7a7.45,7.45,0,0,1-1.18-2.07c-.07-.35.68-.88,1-1.33C163.5,214.61,163.82,215.17,164.15,215.75Z"/><path class="cls-59" d="M224.64,401.14l-1.83,2.7Z"/><path class="cls-130" d="M403.22,867.52c-4.94,8.64-9.66,17.43-14.94,25.86-1.8,2.87-2.25,5.08-.51,7.83l-.23.14a2.49,2.49,0,0,1-1.88,1.65l-2.06,2.92C377.51,892.66,389.18,869.81,403.22,867.52Z"/><path class="cls-79" d="M86.81,858.32a2.2,2.2,0,0,0-1.67.82c-8.57-1.52-13.57,7.12-21.46,7.53,7.74-12.18,21.13-14.5,33.22-19.83.25,4-2.72,4.84-4.46,6.56S88.69,856.69,86.81,858.32Z"/><path class="cls-131" d="M739.79,527.8c1.59,13.6,13.52,24.35,10.73,39.14-8.08,4.64-11.75-1.23-15.51-6.62-5.22-7.5-9.59-15.8-19-20.24-1.61,10.48,6.94,19.17,2.47,28.94l-.09,2.15a1.35,1.35,0,0,1-2.19,0c-2.38-17.5-12.8-32.64-13.65-50.89-.58-12.28-11.09-20.57-18.89-29.51a6.22,6.22,0,0,1-.25-2.14c-1.25-1.94-.86-4.05-.65-6.14,4.56-5.45,8.64-3.41,12.55.83,10.06,10.92,19.16,22.32,23.1,37.19,2.22,8.39,7,14.89,17.28,13.81l.48-4.63C736.87,528.17,737.84,527.05,739.79,527.8Z"/><path class="cls-132" d="M718.44,569c-2.1-8.75-4.27-17.48-6.25-26.25-.55-2.42-1.3-5.57.9-7.14,2.73-1.94,4.26,1.46,6.28,2.69,8,4.87,13.19,12.26,17.48,20.22,3.07,5.7,7,9.08,13.68,8.4-2.52,8.93-9,15.07-15,21.61-7-1.83-3.53-7.54-4-11.53C730.44,568.52,727.5,564,718.44,569Z"/><path class="cls-133" d="M716.16,571.2l2.19,0c4.4,12.07,3.22,17.24-4.48,19.53a12.66,12.66,0,0,0,.08-2q.07-3.35.17-6.7C717.38,578.86,715.62,574.81,716.16,571.2Z"/><path class="cls-2" d="M601.14,616.91l-3.36,6.18c-10.72,6.43-7.49,20.06-14.64,28.34l-1.81-2.13a46.69,46.69,0,0,0,4.58-19.79c.05-15.61-6.43-20-22.07-15-8.83,5-14.19,11.47-10.63,22.42a5.83,5.83,0,0,1-1.84,5.87q-.29,11.94-.59,23.87l-2.3-2.52c-.33-7.8-.43-15.62-1.07-23.39-.3-3.63.93-8.24-3.7-10.31-4.84-2.15-8,1.44-11.31,3.93-1.37,1-2.26,2.69-3.37,4.06l-2.66,0c-3.93-7.32,3-16.43-3.85-23.27l-10.88-7.07,6.64.05,12.35,6.88c3.61,4.29,2.48,9.22.93,14.24,14.28-1.91,18.77-18.11,32.4-19.31a17.53,17.53,0,0,0,4.25-.24c13.3-4.17,19.06,3.27,21.67,14.78C595.19,623.29,595.35,616.07,601.14,616.91Z"/><path class="cls-23" d="M659.61,351.53l-2.07-2.14Z"/><path class="cls-134" d="M144.82,243.25c3.27,2,9.29-2,10.35,4.83s-.14,12.59-5.82,17.45a13.52,13.52,0,0,1-13,3c-3.17-.79-2.43-4-3-6.34-.33-7.55,5.32-11.73,9.44-16.78a3.79,3.79,0,0,1,1.92-2.13Z"/><path class="cls-90" d="M144.69,243.3l-1.92,2.12Z"/><path class="cls-2" d="M707.11,664.53c4.13-4.42,4-11.37,9-15.28l.24,2.6c-4.67,18.12-18.25,30.59-28.64,45.07a22.39,22.39,0,0,1-1.9,2.54l0,0c-9.67,7.71-15.87,19.51-28.3,24,12.13-14.6,26.74-26.9,38.45-41.91C700.15,676.13,704.42,670.89,707.11,664.53Z"/><path class="cls-69" d="M385.66,903l1.88-1.65Z"/><path class="cls-135" d="M735.65,534.35c-.49,1.69,1,5.77-2.2,4.43-7.5-3.11-15.8-6.13-17.34-15.92-2.59-16.33-14.27-27.13-23.62-39.39-2.74-3.58-5.77-1.67-8.81-1.35a2.8,2.8,0,0,1-.14-4.27c2.37-1.69,1.78-4.33,2.12-6.67,10.71,5.41,21.33,10.29,25.52,23.52,1.85,5.86,9.1,7.39,15.57,7C730.38,512.41,728.65,524.57,735.65,534.35Z"/><path class="cls-136" d="M716.15,464.66l-15.29-13.48c3.24,13.77,12.07,23.14,12.91,35.26-5.18-6.36-10.18-12.36-18.06-16.32-10.67-5.38-12.41-16.94-14-27.69-.47-3.16,1.81-5.23,5.16-5.81,8.95-1.55,22.67,8,25.1,17.19C712.93,457.54,714.72,461.05,716.15,464.66Z"/><path class="cls-137" d="M738,486.26c-5.87-4.25-16.19-2.57-17.39-13,4.26,2.4,6.71,1.87,5.94-3.72-.52-3.79-1.13-7.57-1.7-11.36,3.71-1.24,5.93,1.37,8.44,3.26a13.16,13.16,0,0,1,3.1,5.73C737.36,473.47,742.78,479.44,738,486.26Z"/><path class="cls-138" d="M731.58,462.46l-6.71-4.32h0c-2-1.75-.1-4.82-2.24-6.51l-2.12-6.5c-2-1.73,0-4.86-2.28-6.5l0,.07c.9-2.65-1.7-7.29,2.85-7.65,3.1-.25,5.18,3.11,5.79,6.43.37,2,.3,4.21,2.42,5.44C734,449,736.25,455.31,731.58,462.46Z"/><path class="cls-102" d="M718.22,438.62c2.68,1.49,2.27,4.07,2.28,6.5C718.18,443.5,718.23,441.05,718.22,438.62Z"/><path class="cls-116" d="M685.69,471.26c-2.38-1.69-2.17-4.21-2.12-6.67C686,466.25,685.8,468.77,685.69,471.26Z"/><path class="cls-137" d="M722.62,451.62c2.53,1.56,2.27,4.07,2.24,6.51C722.49,456.52,722.67,454,722.62,451.62Z"/><path class="cls-135" d="M725,495.41l1.31,1.63A2.37,2.37,0,0,1,725,495.41Z"/><path class="cls-18" d="M661.83,390.82l2.09,2Z"/><path class="cls-116" d="M683.54,477.85c0,1.42.09,2.84.14,4.27-.1,2.18-.21,4.36-.31,6.54C681.12,485,680,481.4,683.54,477.85Z"/><path class="cls-139" d="M498.34,570.84c-2.68-4.1-.26-9-2.12-13.23-.63-20.2-1.35-40.39-1.83-60.6-.2-8.26-2.87-14.08-11-18-16.09-7.73-31.59-16.71-51.51-22.9,26.93,46.07,39.61,94.2,49.12,143.38-1.18,1.35,0,3.76-2.07,4.71-8.28-33.45-13.7-67.74-28-99.45-7.18-15.95-11.46-33.45-23.8-46.8a7.31,7.31,0,0,1-1.88-1.29,9.89,9.89,0,0,0-3.18-1.71c-1.33-.27-2.59-.76-3.92-1-3.62-1.42-9.58,2.76-10.72-4.51,32.86-1.1,58.85,16.29,85.44,31.94,4.24,2.49,3.84,7.43,4.29,11.71C499.94,519,499.6,544.9,498.34,570.84Z"/><path class="cls-140" d="M420.69,453.74l4.2.89a1.42,1.42,0,0,1,1.4,1.37c.29.66.59,1.31.88,2-3.36,2.82-4.71-2-7.5-2-4.44,0-7.84.25-7.84,6.07,0,27.64-12.82,52.8-15.65,80-.59,5.74-6.1,10.33-6.87,16.76-.38,3.16-3.85,4.27-7,2.91-3.84-1.66-7.77-1.34-11.73-1.33,0-2.17-.11-4.34,0-6.51.07-2.47-.42-5.44,3-6.13,2.42-.49,4.08,1.16,5.26,3.1,1.51,2.52,3,5.52,6.49,4.52,3.79-1.09,2.22-4.77,2.71-7.43q8.7-47.1,17.43-94.19A25.62,25.62,0,0,1,420.69,453.74Z"/><path class="cls-6" d="M373.21,605.42,371,610.18c-6.35-40.48-9.78-81.49-22-120.9-3.42-11-7.31-21.86-10.35-33-3.58-13.07-11-24-18.22-35.08,9.35,3.09,12.18,11.74,15.38,19.39a464.33,464.33,0,0,1,30.41,110c.7,4.62,1.7,9.2,2.57,13.8Z"/><path class="cls-67" d="M420.69,453.74l-15.27,0c0-1.77,0-3.52,2.05-4.28C411,453.72,417,450.1,420.69,453.74Z"/><path class="cls-6" d="M320.55,421.36a2,2,0,0,1-2.32-2.32C320,418.85,320.76,419.62,320.55,421.36Z"/><path class="cls-141" d="M437.92,799.18c2.65-7.6,10.78-6.83,15.71-7.64,13.93-2.29,19.49-10.85,24.77-22.51,20.26-44.79,3.75-85.86-11.77-127-4.32-11.44-10.41-22.22-19.9-30.61-5.33-4.71-10.87-7-17.72-3.52-11.78,6-25,9.46-34,20.21a17.64,17.64,0,0,1-11.15,6.16c9.22-9,18.28-18.37,29.12-25.43,18.22-11.87,42.06-5.19,53.82,13.33,15.49,24.4,22.22,51.23,25.61,79.48,2.2,18.39,3.54,36.6-.16,54.86-4.14,20.48-15.13,34.59-36.6,38.84-6.11,1.21-10.81,6.55-17.52,6.13l-1-.51A1.41,1.41,0,0,1,437.92,799.18Z"/><path class="cls-2" d="M478.94,604.22l2.07-4.71c.56,10.21,10.45,15,13.67,23.73C486.72,619.14,479.58,614.37,478.94,604.22Z"/><path class="cls-142" d="M490.06,845c-5.18,4.78-10.93,7-18.13,2.69l18.2-2.6Z"/><path class="cls-143" d="M435.6,804.22c-4.32-3.91-9.17-7.46-10-14.8l10.43,9.79a7.59,7.59,0,0,0,2,2.15l.11.11Z"/><path class="cls-144" d="M445.1,812.26c.38-.18-1.72,1.1-1.94.83a14.85,14.85,0,0,1-2.43-4.71c-.39-1.17.33-2.23,1.7-1.88C444.19,807,445.79,807.83,445.1,812.26Z"/><path class="cls-142" d="M490.13,845.07l2.25-1.65c.61,2.56-1.5,1.11-2.32,1.56Z"/><path class="cls-71" d="M551.37,642.84c-.36-3.23-.61-6.48-1.1-9.7-2-13.18,0-16,13.57-18.59h11.79c-4.73,14.27-9.06,27.69-13.72,41-.84,2.42-1.45,6.43-5.23,5.77-3.63-.63-3-4.33-3.23-7.12C553.14,650.34,554.36,646.21,551.37,642.84Z"/><path class="cls-145" d="M522.52,615.24c13.28,5.77,3,15.44,3.85,23.27q-2.8,8.84-5.6,17.67C515.14,642.27,519.12,628.77,522.52,615.24Z"/><path class="cls-146" d="M132.3,777.55l1.63,2.15c.14,1.67,2.12,5.16-2.17,3.1-4.76-2.28-6.27-7.54-9-11.65-.13-2.55-3.69-4.63-1-7.65Z"/><path class="cls-147" d="M161.2,779.37c-1.12.67-2.45,1.9-4,2.23-1.12.24-1.41-1.31-.68-2.09a9,9,0,0,1,3.29-2.37C161.17,776.62,161.48,777.68,161.2,779.37Z"/><path class="cls-148" d="M372.76,36.52c-16.63,18.42-32.62,36.87-58.61,43.71-13.21,3.48-25.67,11.54-36.92,24,15.58-2.65,28.57.59,41.76.25,12.61-.32,12.83,13.81,16.27,22.43s-1.39,15.26-10.33,18.29c-.75.7-1.48,1.41-2.18,2.16h0c-3.33,4.2-6.2,9.34-13,6.52,1.72-3.91,5.15-6,8.7-7.79,9.76-5,10.41-13.94,8-22.44-2.57-9.19-7.91-17.81-19.84-15.27-14.8,3.15-31-2.68-43.91,8.09-3.33-4.49.07-5.71,1.54-7.23C276.09,96.94,289.38,87,305.48,80.39c22.83-9.38,42-24.7,60.67-40.63C368.12,38.08,370,36.45,372.76,36.52Z"/><path class="cls-149" d="M300.12,223.09c-15.09-1.37-30.46,3.2-45.44-2.33-2-.73-5.08,1.59-7.66,2.5,2.24-14.18,13.48-20.64,23.86-27.84l-.05,0c2.87-6.46,7.37-10.88,14.71-11.73a7.23,7.23,0,0,1,2.13,2.1c2.93,5.17,5.84,10.4,13,5.41,1.87-.88,3.75-1.85,5.62,0A28,28,0,0,1,309.63,208c-.41,3.76-.95,7.42,4.13,8.44,2.21,1.23,6.12,1.17,4.28,5.51C312.15,223.67,306,220.92,300.12,223.09Z"/><path class="cls-150" d="M300.12,223.09c5.83-2.85,12.18-1.3,18.25-2.13,2.13-1.81,4.26-1.5,6.39,0-4.61,3.26-9.83,5.75-13.28,10.48-16.31,22.31-40.38,30.22-65.87,35.22-11.25,2.2-21.94,7.22-33.72,6.74,17.29-5.68,34.44-11.84,51.91-16.88,15.85-4.57,28-14.27,39.22-25.54,2.67-2.69,4.39-6.38,8.72-7.25Z"/><path class="cls-151" d="M270.88,195.42C264,205.61,252.4,211.77,247,223.26c-13.27-4.9-18.81-15.09-19.57-28.56a5.61,5.61,0,0,1,4.32-1.83c5.9,5.81,11.3,9.63,20.6,4.45C257.12,194.67,264.71,197.11,270.88,195.42Z"/><path class="cls-152" d="M285.76,184.07l-14.93,11.38c-1-4.53,1.47-7.45,4.39-10.41C286.13,174,297,163,309.71,153.86c5.22-.42,8.26-5.2,13-6.52l.06,6.71c.47,4-2.88,5.67-5.17,7.33C307.07,169,297.91,178.66,285.76,184.07Z"/><path class="cls-153" d="M238.48,156.17c11.2-1.47,8.7,8.6,9.69,13.44,2.7,13.34-5.26,20.66-16.54,16.8C227.35,174.85,231.21,165.13,238.48,156.17Z"/><path class="cls-154" d="M238.48,156.17c-4.71,9.53-8.32,19.31-6.85,30.24.05,2.16.09,4.31.14,6.46-.94,1.8-2.48,2.17-4.32,1.83-2.87-13,2.09-24.65,6.05-36.47C234.24,156,235.16,152.8,238.48,156.17Z"/><path class="cls-155" d="M173.33,188.51c-1.62,3.32-3.16.78-4.72-.07-.2-9.78-1.77-19.74,4.21-28.81A161.87,161.87,0,0,0,173.33,188.51Z"/><path class="cls-156" d="M185.8,277.75c-4.51,2.76-3.87,10.85-11.13,10.76,2.22-3.79,2.74-8.6,6.75-11.32,1.56-.55,3.06-.64,4.39.57Z"/><path class="cls-91" d="M185.81,277.76l-4.39-.57C183.15,275.36,184.65,275.28,185.81,277.76Z"/><path class="cls-157" d="M333.25,212.27l-8,5.1c-2,1.16-4.05,1.7-6.25.57-5-4.45-2-9.26-.53-13.94,3.46-11.3,3.5-11.29-8-14a5.09,5.09,0,0,1-2.93-1.21c-1-1.11-1-4-3.71-1.9-6.54-6.27-5.52-11.82,1.53-16.83.88-.63,1.59-1.47,2.44-2.13,11.81-9,13-8.73,18.77,4.72,3.14,7.29,4.76,15,6.75,22.68C333.24,201,336.79,206.64,333.25,212.27Z"/><path class="cls-158" d="M331.73,195.12c-2.56-9.27-4.72-18.65-9.22-27.29-2.3-4.4-4.55-5.86-8.91-2.17-6.66,5.64-17.12,9.51-8.42,21.17,1.39,1.45,1.47,2.8-.28,4L301.31,193c-3.66-2.45-2.81-7.08-4.91-10.44-4,.32-5.92,5.38-10.34,4.32l-.3-2.81c10.7-12,25.53-19,37.05-30l1.06-.07c-.55,14,9.88,25.14,10.09,38.94C334.53,195,333.63,195.55,331.73,195.12Z"/><path class="cls-159" d="M331.73,195.12l2.23-2.2c2.22,6.54,4.35,13.08-.71,19.36C334.45,206.4,331.71,200.88,331.73,195.12Z"/><path class="cls-160" d="M318.33,216.63l6.88.74c-.14,1.2-.29,2.4-.45,3.59h-6.39c-1.69-2.45-4.68-.9-6.75-2.2C312.7,214.42,315.4,215.15,318.33,216.63Z"/><path class="cls-152" d="M322.75,147.34l2.18-2.16Z"/><path class="cls-6" d="M107.48,551.78c-1.72.23-2.48-.53-2.25-2.26C107,549.3,107.71,550.05,107.48,551.78Z"/><path class="cls-14" d="M383.25,380.3,380,378.47l.89-1.26,2.94,2.42Z"/><path class="cls-161" d="M731.58,462.46l-2.28-19.54a16.14,16.14,0,0,0,1.83.16c5.47,3.75,11,7.45,11,15.16,2.47,6,4.89,11.83,13.14,11.11,5.91-.51,4.94,6.37,8.53,8.43.11,1.38.21,2.75.31,4.12-5,6.38-10.66,4.6-16.19,1.07-6.21-4-10.37-9.85-14.07-16.07Z"/><path class="cls-138" d="M742.13,458.24c-2.93-5.58-8.83-9-11-15.16-.25-8.44,5.85-6.48,10.71-6.54q1.39,3.13,2.8,6.27c-.17,3.85,1.87,6.84,4,9.71,1.82,2.45,3.51,5.5,1.51,7.81C746.88,464.1,745,458.55,742.13,458.24Z"/><path class="cls-162" d="M733.85,466.9c3.69,3.43,7.59,6.66,11,10.34,5.48,5.86,11.58,8.23,19.24,4.67,5.24,4.87,4,11.38,4.39,17.47-4,3.16-8.59,4.24-13.51,4.45a85.92,85.92,0,0,0-17-17.57C738.38,479.43,734.6,473.49,733.85,466.9Z"/><path class="cls-72" d="M685.81,699.46l1.9-2.54Z"/><path class="cls-124" d="M668.36,519c-1.78-1-2.22-2.56-2-4.43A4.51,4.51,0,0,1,668.36,519Z"/><path class="cls-163" d="M411.87,761.65c-.1-6.11-.51-13.51,4.4-15,4.29-1.32,9.47,4,12.87,8.25,5.16,6.44,6.5,13.67,2.53,21.09-1.86,3.46-5.81,5.15-9.35,3.22C415.31,775.37,410.21,770,411.87,761.65Z"/><path class="cls-67" d="M438.06,801.36c-.67-.72-1.34-1.43-2-2.15a14.44,14.44,0,0,0,1.86,0C438,799.9,438,800.63,438.06,801.36Z"/><path class="cls-135" d="M739.79,527.8l-3.66,1.92V518.84C740.35,520.92,739.85,524.45,739.79,527.8Z"/><path class="cls-67" d="M426.29,456a2.83,2.83,0,0,1-1.4-1.37Z"/><path class="cls-164" d="M318.33,216.63l-6.71,2.13c-4.57.57-6.27-1-5.52-5.91a56.67,56.67,0,0,0-1.2-22c.09-1.34.19-2.69.28-4,5.77,2.21,12.4-3.2,17.64,1.47,4.57,4.06.06,8.78-.58,13C321.46,206.45,317.55,211,318.33,216.63Z"/><path class="cls-165" d="M286.06,186.88c3.71-2.62,6.93-8.87,11-7.24,4.41,1.78,4,8.43,4.26,13.36C293.55,199.56,289.89,198.09,286.06,186.88Z"/><path class="cls-166" d="M290.08,212.51c0-1.77-.05-3.55-.06-5.32,0-6.77,5.87-7.26,9.77-7.23,5.13,0,3.09,5.15,3.24,8.41C300,213.65,296.26,217,290.08,212.51Z"/><path class="cls-167" d="M290.08,212.51c5.05.92,9.13-1.2,12.95-4.14,1.53,8-.8,12.37-9.95,11.3C287.16,219,288,216.2,290.08,212.51Z"/><path class="cls-168" d="M259.87,211.57c3.09,1.07,2.42,3.6,3,5.38.69,2.12-1.32,2.21-2.54,2-2.06-.32-4.47-1.07-3.63-3.84C257.14,213.7,258.85,212.66,259.87,211.57Z"/></g></g></svg>