<svg xmlns="http://www.w3.org/2000/svg" viewBox="0 0 940.99 956.1"><defs><style>.cls-1{fill:#070809;}.cls-2{fill:#6080ab;}.cls-3{fill:#0f1113;}.cls-4{fill:#111316;}.cls-5{fill:#13171a;}.cls-6{fill:#0a0c0c;}.cls-7{fill:#1c1f20;}.cls-8{fill:#111415;}.cls-9{fill:#242728;}.cls-10{fill:#1f2223;}.cls-11{fill:#171a1c;}.cls-12{fill:#111313;}.cls-13{fill:#9eafd2;}.cls-14{fill:#31353b;}.cls-15{fill:#1f2122;}.cls-16{fill:#16191d;}.cls-17{fill:#15181b;}.cls-18{fill:#151a1b;}.cls-19{fill:#303536;}.cls-20{fill:#282c2e;}.cls-21{fill:#262b2c;}.cls-22{fill:#2e3132;}.cls-23{fill:#3d4345;}.cls-24{fill:#21211e;}.cls-25{fill:#282b2d;}.cls-26{fill:#323637;}.cls-27{fill:#353636;}.cls-28{fill:#2c2e2e;}.cls-29{fill:#3c434c;}.cls-30{fill:#2e3137;}.cls-31{fill:#494e4e;}.cls-32{fill:#32312f;}.cls-33{fill:#e6edf0;}.cls-34{fill:#313740;}.cls-35{fill:#414546;}.cls-36{fill:#5b6163;}.cls-37{fill:#3e474a;}.cls-38{fill:#181a1e;}.cls-39{fill:#030303;}.cls-40{fill:#aebcdb;}.cls-41{fill:#b7dde9;}.cls-42{fill:#6a8eb8;}.cls-43{fill:#fbeac8;}.cls-44{fill:#b6dde9;}.cls-45{fill:#fbebca;}.cls-46{fill:#a4b4d6;}.cls-47{fill:#6a8eb9;}.cls-48{fill:#cabca3;}.cls-49{fill:#7195c1;}.cls-50{fill:#aebcda;}.cls-51{fill:#fbebcb;}.cls-52{fill:#fbeac9;}.cls-53{fill:#a6d1de;}.cls-54{fill:#e7edf0;}.cls-55{fill:#bbc3cf;}.cls-56{fill:#faf3e6;}.cls-57{fill:#f4efe3;}.cls-58{fill:#8f7c6c;}.cls-59{fill:#cbbda3;}.cls-60{fill:#9d8e84;}.cls-61{fill:#2f3334;}.cls-62{fill:#849fc8;}.cls-63{fill:#ead9ba;}.cls-64{fill:#0f141a;}.cls-65{fill:#e9d8ba;}.cls-66{fill:#8fa7cd;}.cls-67{fill:#fcfcfc;}.cls-68{fill:#e6d6b9;}.cls-69{fill:#c1c8d4;}.cls-70{fill:#4e5355;}.cls-71{fill:#f9f9fa;}.cls-72{fill:#f7f2e4;}.cls-73{fill:#f4f1e9;}.cls-74{fill:#bac1cd;}.cls-75{fill:#c4cbd8;}.cls-76{fill:#e4d3b6;}.cls-77{fill:#f8f8f9;}.cls-78{fill:#907d6e;}.cls-79{fill:#7698c4;}.cls-80{fill:#d9deea;}.cls-81{fill:#273235;}.cls-82{fill:#d7dbe7;}.cls-83{fill:#897d73;}.cls-84{fill:#1c1b1a;}.cls-85{fill:#282928;}.cls-86{fill:#ab9f96;}.cls-87{fill:#272520;}.cls-88{fill:#dbdfeb;}.cls-89{fill:#333230;}.cls-90{fill:#cfd5e8;}.cls-91{fill:#3f4d52;}.cls-92{fill:#222d3a;}.cls-93{fill:#2b3443;}.cls-94{fill:#8fa2c9;}.cls-95{fill:#8ea1c8;}.cls-96{fill:#8ba1cb;}.cls-97{fill:#cdbea4;}.cls-98{fill:#a4b4d5;}.cls-99{fill:#adbcda;}.cls-100{fill:#efdfc0;}.cls-101{fill:#a3b4d6;}.cls-102{fill:#dcccb0;}.cls-103{fill:#8da5cc;}.cls-104{fill:#829ec8;}.cls-105{fill:#97aacf;}.cls-106{fill:#9fa9b6;}.cls-107{fill:#dfd0b4;}.cls-108{fill:#c1cce4;}.cls-109{fill:#fbfbfb;}.cls-110{fill:#f9f9f9;}.cls-111{fill:#6e90ba;}.cls-112{fill:#c2c9d6;}.cls-113{fill:#bbc2cf;}.cls-114{fill:#e2e4e8;}.cls-115{fill:#d9dde9;}.cls-116{fill:#a3b3d5;}.cls-117{fill:#b8deea;}.cls-118{fill:#bbdfeb;}.cls-119{fill:#c3cde5;}.cls-120{fill:#d5dbec;}.cls-121{fill:#374b50;}.cls-122{fill:#cfe5ee;}.cls-123{fill:#cae3ec;}.cls-124{fill:#1a2022;}.cls-125{fill:#121617;}.cls-126{fill:#3f5257;}.cls-127{fill:#cfe6f0;}.cls-128{fill:#0f1314;}.cls-129{fill:#e4ebef;}.cls-130{fill:#819fc8;}.cls-131{fill:#22282e;}.cls-132{fill:#cbe3ed;}.cls-133{fill:#8ca4cc;}.cls-134{fill:#f1f1f2;}.cls-135{fill:#badfeb;}.cls-136{fill:#739ca6;}.cls-137{fill:#fdfdfd;}.cls-138{fill:#1b1717;}.cls-139{fill:#0d0d0f;}.cls-140{fill:#8ba4cc;}.cls-141{fill:#dfe3ec;}.cls-142{fill:#7a8cbb;}.cls-143{fill:#191c22;}.cls-144{fill:#191d23;}.cls-145{fill:#454c59;}.cls-146{fill:#88a0c6;}.cls-147{fill:#829dc6;}.cls-148{fill:#171a1e;}.cls-149{fill:#4b586f;}.cls-150{fill:#1e2530;}.cls-151{fill:#374150;}.cls-152{fill:#607a82;}.cls-153{fill:#4b5e64;}.cls-154{fill:#4b5c63;}.cls-155{fill:#41679b;}.cls-156{fill:#323b47;}.cls-157{fill:#c4cbe2;}.cls-158{fill:#adbbda;}.cls-159{fill:#799197;}.cls-160{fill:#232b2d;}.cls-161{fill:#3a616b;}.cls-162{fill:#283f45;}.cls-163{fill:#222d30;}.cls-164{fill:#4e696f;}.cls-165{fill:#ccd3e7;}.cls-166{fill:#774f47;}.cls-167{fill:#2a1e1c;}.cls-168{fill:#95716c;}.cls-169{fill:#d1d7e9;}.cls-170{fill:#e8eaf1;}.cls-171{fill:#6f4a42;}.cls-172{fill:#1f1818;}.cls-173{fill:#97746f;}.cls-174{fill:#f5f6f9;}.cls-175{fill:#6e4a43;}</style></defs><title>Recurso 28</title><g id="Capa_2" data-name="Capa 2"><g id="Capa_1-2" data-name="Capa 1"><path class="cls-1" d="M240.55,656.61a238.87,238.87,0,0,1-12.75-64.86c-.59-9.88-4.56-13.36-14.47-13.09-17.64.48-35.36.65-52.91-2.19.26-4.52,4-4.05,6.89-4.85,13.66-.41,27.35-.07,41-.2,14.36-.14,15.69-1,15.29-14.9-.6-20.64,3.43-40.44,9.33-60,4.26-14.12,4.29-14.11-8-22.44a63.77,63.77,0,0,0-9.73-6.27c-11.11-4.23-21.41-9.5-26.75-21a3.11,3.11,0,0,1,2-2c2-.78,6.06,2.72,5.72-2.85a5.59,5.59,0,0,1,4.09-4.27c9.49,1.9,18.43,4.89,25.14,12.41a7,7,0,0,1,.21,3.41c-2.4,5.91.09,9.58,5.11,12.81,18.51,11.92,38.53,19.61,60.07,24.29C339.25,501.07,386,495,431.93,478.18a121.35,121.35,0,0,0,22.67-11.43c19.25-9.14,31.74-25.92,46-40.75a4.14,4.14,0,0,1,3.14-.55,4.69,4.69,0,0,1,1.9,4.42c-15.61,44.53,8.48,98.94,44.64,122.36a43.78,43.78,0,0,0,29.27,7.18c40.05-3.87,78-15.23,114.71-32-12-2.16-11.89-12.64-14.23-21.55a18.53,18.53,0,0,1-.22-7c.82-4,2.75-7.52,4.8-11,7.06-11.88,11.66-13.46,25.34-8.85,8.21,5.71,14.2,13.79,22,20.14-3.66-12-13.2-19.88-21.1-28.9-6.19-16.4-.55-27.5,18.85-36.49-17.84-7.15-36-12-54.12-17.33-31.74-7.36-63.95-11.53-96.37-13.75-13.95-1-27.89,2.12-41.84,3.13-6.58.36-12.69,3.24-19.26,3.64a5.43,5.43,0,0,1-4.06-3c-2.34-9.94,6.31-16.3,8.11-24.89a37.39,37.39,0,0,0,2.32-7.75,107.09,107.09,0,0,0,4.7-19.25c1.19-3.23,1.19-7.09,4.7-9.11,5.2,2,4.06,6.65,4.57,10.62-.12,10.9-4.78,20.62-8.14,30.66-2,6.05-1.19,9.48,6.21,8.11.72-.14,1.45-.26,2.18-.33,18.23-1.67,18.23-1.67,18.17-20.12,0-4.17-.29-8.37,1-12.42.86-1.72,1.81-3.31,4.17-2.73l13.36,11a1.78,1.78,0,0,1,.77,1.64c-.09.62-.22.93-.38.93-2.24,2.7-8.4-1.3-8.5,5,.16,13.74.16,13.74,13.82,13.89,3.23,0,6.46,0,9.68.17,1,.05,2.2.59,3.06.28,1.87-.68.1-1.3-.32-1.68-2.29-2.09-4.84-4-5.51-7.28.44-1.62,1.1-2.9,3.14-1.95,15,13.72,33.31,18.21,53,20,9.44.87,20.54,7.95,27.5,4.78,7.17-3.26,5-16.91,7.18-25.92C689,338.74,713.88,309,750.2,287.87c2.14-1,3,.15,3.45,2-1.86,6.27-7.63,8.8-12.31,12-28.85,19.83-46.81,47-55.43,80.67-4.29,23.48-4.62,24.77,17.75,30.4,34.14,8.58,57.28,30.86,77.46,57.51,9.11,12,6.46,23.06-8.13,27.75-15.78,5.06-29.32,13-42.84,22.27-7.92,5.4-18.33,7.1-26.56,13.07-5.46,4-7.79,8.27-6.73,15,4.28,27,4.69,54.44,7.39,81.64.93,9.43-2.36,19-1.85,28.63-2.52,14.91-3.39,30-6.75,44.86-1.72,7.57,1.82,14.44,5.73,20.89a121.72,121.72,0,0,1,6.67,11.49c1.61,3.21,2.48,6.79,4.74,9.69,3.34,4.37,6.62,8.77,8.93,13.8.92,1.79,1.83,3.58,2.76,5.36,6.15,10.49,9.27,22.68,18,31.73,1.13,1.1,2.12,2.27,1.51,4-4.81,1.12-4.05,4-2.78,7.59,9.85,27.77,19,55.74,26,84.41,2.51,10.25,8.57,19.56,10.22,30.26,1.66,2.7,1,4.54-2,5.47-2.87-.19-4-2.2-4.75-4.57-.85-6.26-3-12.06-5.47-17.9-11.76-27.61-17.11-57.28-27.24-85.46-11.84-33-28.34-63.32-47.73-92.24-10.56-15.74-23.87-28.7-39-40.49C637.1,676.68,624,676.87,609.15,684c-4.17,2-7.81,6-13.21,4.51a3.46,3.46,0,0,1-1.4-2.76c2.11-6.18,7.59-8.73,12.77-11.4,6-3.06,6.7-7.14,3.51-12.62-4.08-7-8.17-14-10.19-21.92-2.1-8.19-6.59-9.24-14-6.56-13.86,5-26.56,12.55-40.25,17.92-6.5,2.55-13.1,4.8-19.56,7.47-4.11,1.75-8.33,3.18-12.48,4.82-13.66,4-28,5-41.66,8.85-24.53,4.39-49.09,8.24-74.17,7.52-3.48-.1-9.62-2.79-9.66,4.93a18.17,18.17,0,0,1-.35,7,4.43,4.43,0,0,1-3.61,3.24c-6.63-2.44-4.45-11-9.9-14.27-11.5-3.78-24.28-2.1-35.18-8.34-.43-3.31,2-4,4.35-4.85a48.7,48.7,0,0,1,15.89.05c1,.18,2.06.54,3.11.73,10.39,1.95,11,1.26,8-8.4-.64-2-1.49-4-2.19-6.08a17.57,17.57,0,0,1-.85-3.26c-4.88-25.91-9.22-51.9-14.55-77.7-1.47-6.94-1-14-1-21,.05-7.43-2.7-12.73-9.64-15.92-16.24-7.46-30.61-17.94-44.84-28.55-13.46-10-30.26-11.53-45.16-17.9-6.66-2.86-8.91,3.75-10.24,8.68-3.19,11.78-6.82,23.63-7.71,35.74-1.62,22.1-1.93,44.29.26,66.41-1.07,23.15,13.49,35.23,31.7,44.72.64,1.85-.19,3.05-1.73,3.93-8,2-13.27-5.39-20.54-6.18-2.46,3.22.41,6.47-.3,9.61C244,654.57,243.53,656.79,240.55,656.61Z"/><path class="cls-2" d="M348.89,842c-.11,4.58-3.27,7.17-6.37,9.81-11.28,10.36-16.75,24.89-26.2,36.64-6.45,8-12.32,16.56-19.14,24.31-3.29,3.75-6.74,8.49-13,5-4.64-3.79-8.4-8.54-13.1-12.27l.16.07c-4.58-5.36-9.85-5.69-15.8-2.39-8.38,4.65-17.3,8.2-26,12.26-3.59,1.68-7.86,5.19-12,.4-1.66-4.26-1.45-8.55-.58-13,2.43-12.48,2.35-12.49-9.69-10.43-3.1-4.49-7.57-5.59-12.57-4.71-9.49,1.67-19,.72-28.53.88-5.5-7.23,2.62-8.81,5.23-12.68,8.08-2.34,13.11-9.41,20.22-13.23.58-6.79-2.24-12.76-4.27-18.92-4.93-14.95-4-30.11-1.43-45.3.28-1.64,1.54-2.34,3.2-2.29,4.42,6.39,3.59,16.07,12.81,19.49,13.82,5.12,27.29,10.47,42.79,8.07,28.94-4.46,53.15-16.62,71.22-40.08a14.77,14.77,0,0,1,7.94-5.69c3.19-.56,5.82.93,8.15,2.69a291,291,0,0,0,37.26,23.52c8.78,4.75,8.86,8.14,1.78,15.14C363.47,826.68,353.89,832.1,348.89,842Z"/><path class="cls-3" d="M348.89,842c1.79-10.41,11.27-14.73,17.37-21.71,2.62-3,6.1-5.21,10.94-9.24-20.62-8.69-35.93-21.54-53-31.68-13.62-6.12-21.3-19-32.23-28.2-9.6-11.48-20.29-22.17-26.71-36-10.72-18.39-10.72-18.39-25.84-1.24-13.42,16-27.12,31.8-36.85,50.49a120.15,120.15,0,0,0-9.43,23.42c-1.21,2.91-1.32,6.38-4.27,8.39-6.33,22.66-3,44.22,7.32,65,1,2.09,5.55,6-1.95,3.95-4-2.51-6.83-.69-9.59,2.28a52.64,52.64,0,0,1-11.11,9c-3.27,3-7.28,5.44-8.45,10.2a1.59,1.59,0,0,1-.42,2.74c-5.65-3.23-1.93-6.31.13-9.45,5.32-8.1,12.69-14.36,19.73-20.74,3.37-3.06,4-4.79,2.57-9-11.28-32.88-5.06-63.95,11.82-93,13.12-22.61,27.86-44.22,48.33-61.23,4.48-3.72,6.05-8.81,2.62-14.67a78.91,78.91,0,0,1-9.35-24.61l2-4.64c6,1.17,6.46,6.76,7.75,10.92,9.85,31.75,29.33,57.67,49.54,83.19,2.1,2.66,5.11,4.22,7.59,6.42,7.33,10,16.58,18,27,24.53,16.11,11.52,16.1,11.51,32.24.05a57.6,57.6,0,0,0,7.49-6.27c8.49-7,17.26-13.7,26.06-20.3,2.4-9.25-4.07-15.68-7.28-23.14-3.06-7.07-5.48-14.38-8-21.64-1.25-3.62-3.65-7.5-.26-11.34l2.25-2.81c5,1.06,5.28,5.66,6.57,9.26,3.36,9.31,8,18.19,11.11,27.46,5.15,15.37,15.3,23.37,30.5,26.29,2.07.79,4.12,1.65,6.2,2.42,25.53,7.29,50.74,15.69,77.07,20,9,1.49,13.56-1,16.72-9.63,4.54-12.33,7.6-25.55,17.19-35.5,2-.65,3.26.17,4.09,2,.31,9.39-5.5,16.89-7.92,25.44-1.93,4.4-3.26,9-4.81,13.56-5,14.6-4.57,27.92,6.62,40.18,9,9.84,14,22.5,21.77,33.33,1.89,3.32,3.44,6.82,5.34,10.14,6,10.56,12.33,21,17.47,32,3.25,7,5.68,14.44,4.52,22.46-2,7.14-6.62,13.72-4.87,21.68,12.82,1.21,24.24-4.6,36.32-7,4.59-.89,8.78.68,13,2.11,12.16,4.51,23.15,11.34,34.52,17.41,6.22,3.15,10.47-.16,14.42-4.38a164.69,164.69,0,0,1,14.12-13.84c7.73-6.5,16.11-10.09,26.31-6.47,2.84.59,5.38,1.66,6.92,4.33a3.22,3.22,0,0,1-.66,3.17c-19.65-7.14-29.66,6.7-40.5,18.65s-10.75,11.91-24.86,3.93a8.1,8.1,0,0,1-.95-.55c-21.61-16.44-44.63-21.11-70-9.07-4.33,2.05-9.23,4.64-14.24-.33-5.27-5.24-4.45-11-1.83-16.29,7.93-16,4.39-30.38-4.36-44.64-7.9-12.87-15.6-25.89-22.93-39.1-3.17-5.69-7.25-6-13.29-6.45-36.2-2.59-72.67,7-108.67-2.46-.09-3.3,2.51-3.66,4.78-4.39a56.77,56.77,0,0,1,16.51.4c23.56,3.68,46.17-.9,68.56-7.74,8.16-2.48,9.3-6.21,6.5-14.73C529.85,792,521.81,786.48,508.67,785c-24.37-2.66-46.8-12.83-70.2-19.26-23.46-15.23-41.67-4.43-58.75,11.88-2.19,2-4.38,3.9-6.68,5.72-14.48,11.53-14.45,11.48,2.45,20.27,4.16,2.16,9,3.47,11.65,7.89.85,4.14-3.07,3.31-4.88,4.67C369.64,822.86,359.08,832.19,348.89,842Z"/><path class="cls-4" d="M133.48,572.44c-28.52-4-57.21-7.3-83.26-21.24-3.95-2.12-8.11-4.07-10.88-7.35C30.11,532.89,16,529,5.66,519.62c-6.59-6-7.93-11.36-1.32-18.48,5.51-5.94,10.05-12.78,17.08-17.2a12.28,12.28,0,0,0,5.87-7.61c2.43-9.2,9.49-14.23,18-16.35,17.57-4.4,33.64-12.77,50.83-18.06,3.52-1.08,7.11-1.94,10.67-2.9,2.43-1.3,4.43-1.36,5.3,1.83-5.13,7.87-14.19,8.26-21.77,11.49a76.88,76.88,0,0,0-11.69,3.28c-6.59,2.61-14.08,4-6.73,14.16,3.81,5.25.83,8.38-6,7.77-2.52-8.68-9.32-9.25-16.72-9-7.79.26-12.08,4.64-14.37,11.55-1.76,5.3-2.93,10.67-1.14,16.23.64,5.9,2.33,11.34,7.29,16.39,3.64-9.68,10.75-17,14.68-26.29,1.5-3.13,3.66-5.43,7.34-5.82,5.63,2.81,2.36,6.74,1.11,10.22-2.89,8-9.47,14-12.72,21.8-3,7.33-6.41,14-16.35,8.37.64,14.42,1.59,14.87,12.77,8.12,5-3,9.35-7.08,14.64-9.71,7.2-3.48,14.28-7.21,22.06-9.31,13.16-3.55,17.24-1.49,22.46,11.39a18.15,18.15,0,0,1-.25,6.81A91,91,0,0,1,104,537.9c-4.59,13.31-13.58,18.47-27.45,15.85-3.51-.66-7-1.45-10.51-2,19.12,4.64,38.32,8.82,57.83,11.67,6.06.89,12.53,1.81,16.89,7.19C139.26,574.8,136.33,573.46,133.48,572.44Z"/><path class="cls-5" d="M242.21,157.32c1.1,15.54,1.13,15.59,14.87,7.91,36.59-20.47,75.51-30.74,117.64-27A33.73,33.73,0,0,1,380,139.5a2.36,2.36,0,0,1-.72,3.32c-4,2.48-8.59,2.1-13,1.89-20.92-1-41.09,3.24-61.14,8.38-20.77,2.49-37.48,13.79-54.18,25.1-12.47,8-23.31,17.89-33.42,28.64-1,1.1-2.12,2.15-3.19,3.22-6.93,9.16-15.77,16.76-21.77,26.68-6.26,10.52-11.69,21.4-15.2,33.17-9.17,27.87-6.42,55.69-.06,83.6,1.85,8.12,4.87,16.27,2.68,24.91-.78,1.75-1.76,3.22-4,3-6.49-27.6-13.86-55.05-11.66-83.88.44-5.71-3.08-9.62-7.76-12.43a41.66,41.66,0,0,1-16.56-18.72c-.86-2.42.59-3,2.53-3.17,6.35,2.21,9.13,8.4,13.82,12.46,3.17,2.75,5.86,4.75,7.77-1.53,6.54-21.46,17.71-40.56,31.88-57.72,8.73-10.58,12.27-21.94,12.62-35.55.53-20.78-2.58-41.18-4.12-61.76.68-2.29,1.5-4.46,4.46-4.45,6.47,5.7,6.33,13.73,7.33,21.29,2.36,17.76,3.41,35.58,1.12,55.65,9.39-9.26,21.39-13.63,19.89-27.87C238.12,160.91,237.9,157.38,242.21,157.32Z"/><path class="cls-6" d="M881.73,303.75c19.6,24.63,27.65,51.38,15.9,82.21-3.16,8.27-10,12.47-16.1,17.59-12.39,10.35-12.24,10.18-4.69,23.82,5.14,9.31,9.82,18.91,11.49,29.61,1.56,2.78,2.12,5.35-1.44,7.09-4.73-2.07-5.2-6.85-6.7-10.87-2.84-7.61-5.72-15.19-10-22.11-3.52-5.64-8-9.68-15.27-8.76-8.37,2.59-17.75-.22-25.62,4.9-1.25,1.67-2.42,3.44-4.78,3.61-5.42-3.23-7.43-12.73-16.6-9-1.38,1.61-2.78,3.19-5,1.14a105,105,0,0,0-10.52-16.79,80.12,80.12,0,0,1-14.85-35.27c-1.33-7.73-1.61-15.54,5.93-20.94,2-.47,3.24.46,4.1,2.14-1.09,14.14-.36,27.62,7.77,40.33,11.39,17.81,27.46,24.18,47.39,20.95,18.45-3,34-11.75,45.37-27.13,12.95-24.35,6.77-47.17-5.58-69.48-1.91-3.36-4.3-6.53-4.21-10.67C878.79,304.42,879.56,303.08,881.73,303.75Z"/><path class="cls-7" d="M910.24,521.46c35.2,30.76,35.62,71.23,23.76,110.06C913.35,699.09,868.26,748,804.41,779c-2.39,1-3-.45-3.22-2.4,8.51-9.49,20.37-14.2,30.69-21.05A236.91,236.91,0,0,0,922.44,644.1c12.83-32.12,12.77-66.2-2-98.86-3.24-7.77-11.55-12.39-13.22-21.14C907.51,522.4,908.14,521.09,910.24,521.46Z"/><path class="cls-8" d="M897.14,494.67c1.42,5,2.83,10,2.5,15.32.65,2.19-.69,3-2.44,3.6-9-1.07-16.51-6.06-24.82-9-27.2-9.5-55.78,4.37-63.79,31.14-6.79,22.67,9.87,50.79,31.88,54.49,10.36,1.74,17.65-3.41,24.95-9.23,3.07-2.44,4.76-6.81,9.56-6.85a5.44,5.44,0,0,1,1.68,3c-4.71,16.32-20.54,25.78-39.5,23.66-37.64-13.42-51.49-55.05-28.48-87.7,9-12.78,22.36-20,38.32-21.32a129.66,129.66,0,0,1,17.63,0c7.19,1.17,14.3,2.75,20.81,6.22,3.2,1.7,6.11,2.84,8-1.64C894.31,495.11,895.32,494,897.14,494.67Z"/><path class="cls-9" d="M242.21,157.32c-2.39,1.91-1.62,4.89-2.46,7.33-5.32-2-4.52-6.88-4.86-11-.71-8.65-1.92-17.23-3.13-25.8-7.2-31.91-13.69-64-28.5-93.65A128.37,128.37,0,0,0,189.36,13c-4.72-6-9.15-5.38-13.09.63-5.28,8.05-8.71,17-11.94,26-2.2,6.15-2.89,13-8,17.91-2,.4-3.4.21-2.73-2.39,3.08-19.7,9.3-38.06,23.18-53,3.46-3.73,7.27-1.9,11,.31C195.44,7,199.92,14.4,204,21.69,227.43,63.83,239,109.41,242.21,157.32Z"/><path class="cls-10" d="M380.07,142.1l0-2.6c27.92,1.23,53.28,10,76.44,25.58,12.34,8.32,12.41,8.09,19.43-4.51,19.55-35.11,45.06-65.4,74.84-92.21,2.07-.84,2.89.43,3.49,2.07.16,4.17-2.6,6.82-5.27,9.26-30.36,27.88-54.24,60.74-74.47,96.43a13.36,13.36,0,0,1-2.74,3.44c-2.23,1.23-4.13.22-6-.89a170.84,170.84,0,0,0-17-11.37c-17.7-10.25-37-16-56.82-20.29C387.62,146.09,383,146.17,380.07,142.1Z"/><path class="cls-11" d="M535.62,357.43c-1-3.75,1-8-2-11.44a6.08,6.08,0,0,1-2.81-4.12c-.82-16-.87-15.59-18-17.82-17-2.2-28.75-13.53-40.36-24.84-4.36-4.31-6.87-9.91-10.27-14.89-3.29-6.43-9.17-12.24-5-20.5a3.59,3.59,0,0,1,3.23-.53c6.13,6,9,14.26,13.24,21.43C488.1,309,514.34,319,542.39,311.45c10.32-2.78,15.54-10.82,19.28-19.89A59.94,59.94,0,0,0,566,268.83c0-4.74-.11-9.84,5.49-12.22,2.08-.24,3.16.9,3.77,2.71a15,15,0,0,0-2,8.19c1.09,21.69-6.41,39.08-25.89,50.3-.56.32-.32,2-.45,3.08,1,1.66.1,2.72-1.15,3.68-1.66.87-3.74,1.09-4.7,3.06-.87,6.67,0,13.35-.52,20C540.2,351.4,541.14,356.1,535.62,357.43Z"/><path class="cls-12" d="M575.21,259.32l-2-1.76c-1.51-7.67,5.51-10.91,8.56-16.18,2.68-4.65,6.47-8.6,9.76-12.86,7.31-14,17.22-26.46,23.7-41,5.56-12.47,10.52-25,11.65-38.82.34-4.13.44-9,4.69-11.86,3.64-.17,1.83,3.51,3.41,4.8.6,26.88-11.44,49.48-24.61,71.55C600.46,229.9,589.44,245.87,575.21,259.32Z"/><path class="cls-13" d="M739.62,925.46l-6.71-2.75c-1.86-1.22-5.58-.65-4.4-4.78,2.3-8,17.2-14.62,24.59-10.34a86.44,86.44,0,0,1,20,15.44c.52,1.57-.57,3.79,1.86,4.59,2.3,3.89-.1,5.46-3.32,6.13-3.62.75-7.36.24-11,.45l-5.13-2.2C749.87,930.56,744.46,928.7,739.62,925.46Z"/><path class="cls-14" d="M176.05,381.38l2.43-2.75c4.57,1.41,4.41,5.43,4.67,9a72.36,72.36,0,0,1-.72,17.51c-2.11,12.5-3.32,24.82,7.43,34.64a5.5,5.5,0,0,1,1.49,6.05l-3.42.19c-10,.09-12.21-8.83-17.11-14.65-4.28-3.39-8.65-.77-12.67.26-11.41,2.93-23,5.26-34.12,9.33-4,1.44-8.33,3.6-12.61.37-.94-2-3-1.72-4.67-2.27,18.44-5.82,36.64-12.5,55.82-15.66,7.22-1.2,11.89-3.7,11.76-12.39C174.19,401.12,175.42,391.25,176.05,381.38Z"/><path class="cls-15" d="M564.32,57.48C582.36,42.13,602.34,30,625,23c21.17-6.49,27.36-.72,23.38,21-.84,4.55-.56,9.61-4,13.43a2.37,2.37,0,0,1-2.82-.46c-2.15-5.14.28-10.17.47-15.25.39-10.33-5.79-15.82-15.39-11.76-14.58,6.15-29.56,11.74-42.51,21.27-5.34,3.94-10.54,8.14-17.32,9.47C565.07,60.33,563.81,59.59,564.32,57.48Z"/><path class="cls-16" d="M164.7,889.35l.42-2.73c10.11.6,20.17,1.34,30.22-1.17,6.11-1.53,11.65-.6,13.36,7,5.26,6.42,6.12,14.61,8.91,22,4.07,3.15,7.53.58,11.15-1.11,9.62-4.48,19.22-9,29-13.23,6-2.61,11.52-2.7,13.48,5.4-12.68-6.49-21.92,3-31.57,7.71-25,12.06-27,11.84-34.43-14.84-1.77-6.36-3.24-9.09-10.76-8.35C184.64,891,174.62,889.68,164.7,889.35Z"/><path class="cls-17" d="M284.66,916.26c6.52,4,8.36-2.59,11.16-5.46,15.72-16.06,25.76-36.36,39.66-53.79,1.74-2.18,1.67-7.65,7-5.22-11.08,23.8-29.53,42.6-43.69,64.32-4.44,6.81-10.09,7.71-16.55,2.6C281.64,916.5,282.53,915.78,284.66,916.26Z"/><path class="cls-18" d="M642.31,57.5c.69,0,1.37,0,2.06,0-1.32,10.2-5.48,19.39-10.5,28.16-3.88,6.79-5.42,13.31-.47,20.15.82,2.63,1.69,5.26-.89,7.48-6.48-5.29-10.35-3.15-13.34,4.07-2.08,5-5,9.82-10.74,11.79a3.49,3.49,0,0,1-3.2-3,6.24,6.24,0,0,1,.39-3.26c11.87-21.54,23.18-43.39,35.1-64.92Z"/><path class="cls-19" d="M752.87,290.14l-2.67-2.27c26.82-15.41,54.92-21.3,85.14-11.5a2.69,2.69,0,0,1-.26,3.5c-11,2.27-22-.48-33,.47-4,.34-8.15-.6-12.09.86-9.74,2.1-19.49,4.13-28.68,8.24C758.64,290.61,755.85,292,752.87,290.14Z"/><path class="cls-20" d="M131.68,250.42c-4-7.59-5.32-16-6.65-24.28-1.12-6.95-2.46-15.08,3.61-19.56,6.45-4.76,14.07-1.58,20.63,2.37,3.36,1.07,3.71-5.3,7.56-3,4.29,4.12,8.35,8.37,8.42,14.88-5.18,4.77-8.61-.44-12.57-2.28-5.75-2.68-11.28-9.83-17.77-5-5.52,4.14-2.33,11.61-1.54,17.72.71,5.46,2.31,10.82,1.86,16.42C134.64,249.37,133.8,250.72,131.68,250.42Z"/><path class="cls-21" d="M153.6,55.14l1.9,2.24c5.54,5.54,1.3,11.84,1.34,17.79.06,8.5-1.3,16.86-2.79,25.2-.51,2.83-.92,6.47-4.71,6.46-4.49,0-4.59-4-5-7.26-.63-5.2,1.1-10.21,1.79-17.34-3.12,5.79-3.28,11-6.59,14.55-4.86,3-4.3-1.49-5.32-3.81,3.21-9.88,5.45-20,15.93-25.91C152.73,65.61,152.53,59.25,153.6,55.14Z"/><path class="cls-22" d="M134.24,93l3.6,4.36c1.18,1,2.36,2.12,2.45,3.58,1.29,19.82,2.49,39.64,1.47,59.52a2.5,2.5,0,0,1-3.45,1.27c-3.56-9.3-3.32-19.28-5.2-28.88-.74-11.09-1.25-22.17.3-33.24Q133.82,96.27,134.24,93Z"/><path class="cls-23" d="M801.91,777.3l2.5,1.71A190.27,190.27,0,0,1,744,800.66l-2.2-2c-.35-2.88,1.77-3.92,3.84-4.6,17.19-5.69,34.51-11,51.34-17.72C798.62,775.66,800.55,775.48,801.91,777.3Z"/><path class="cls-24" d="M382.26,816.21l4.39-3.87c4.38-2.55,8.77-.93,12.75.64,12.34,4.87,24.8,9.25,37.84,11.9,2.54.52,5,1.44,5.74,4.44l-5.14,2.34c-14.87-1-28.38-6.67-42-12.14C391.54,817.78,387.39,814.86,382.26,816.21Z"/><path class="cls-25" d="M835.11,278.93l.23-2.56c19.07,3,35.08,11.21,46.39,27.38L879.45,306a3.68,3.68,0,0,1-4.09-.75c-10-10.27-22.24-16.93-35.43-22.09C837.87,282.4,836,281.22,835.11,278.93Z"/><path class="cls-26" d="M138.31,161.7l2.65-.18c.35.08.9,0,1,.27,8.24,13.63,13.21,28.29,13.69,44.32-2.36.43-2.34,6.27-6.41,2.84,5.18-3.52,1.08-7.29-.18-10.45A194.52,194.52,0,0,1,138.31,161.7Z"/><path class="cls-27" d="M544.55,323.65l2.33-2.76c10.57,10.61,12.54,24.62,15.16,38.37-.85.9-1.7,1.79-2.54,2.69a2.71,2.71,0,0,1-3-1C553.29,348.27,546.6,336.71,544.55,323.65Z"/><path class="cls-28" d="M897.14,494.67l-2.45,2.73c-8.69-9.85-9-21.73-8.25-33.89,2.6-1.61,1.33-4.33,1.89-6.53C894.82,468.72,895.55,481.79,897.14,494.67Z"/><path class="cls-29" d="M133.48,572.44c2.22-.73,5.07.57,6.7-2.07,9.71-3.76,18.89-3.8,27,3.8l-6.75,2.3C151.16,577,142.09,576.29,133.48,572.44Z"/><path class="cls-30" d="M760.58,934.2c2.63-2.61,6-2.16,9.19-2.06s6-.14,5.18-4.52l2.48-4.7c3.17,4.26,4.37,10,.5,13C772.68,939.83,766.18,937.23,760.58,934.2Z"/><path class="cls-31" d="M631.21,112.78l2.19-7c3.08,4.36,1.51,9.25,1.62,13.95-2.8,4.87,2,11.4-3.43,15.69C625.68,128,626,120.4,631.21,112.78Z"/><path class="cls-32" d="M575.31,373.26l.09-3c5.24,3.69,12.11,5,15.76,11l-2.39,2.16C581.64,383.56,576.77,380.66,575.31,373.26Z"/><path class="cls-33" d="M133.41,99.58l-.3,33.24C130.2,121.72,129.84,110.63,133.41,99.58Z"/><path class="cls-34" d="M284.66,916.26l-2.38,2.45c-4.72-3.6-9.16-7.45-11.24-13.29C278.09,905.88,280.64,912,284.66,916.26Z"/><path class="cls-35" d="M564.32,57.48l2.36,2.23c-1.47,7.38-6.55,10.35-13.5,11l-2.44-2.36Z"/><path class="cls-36" d="M897,512.67l2.68-2.68,10.6,11.47-2,2.09C901.19,523.39,897.86,519.3,897,512.67Z"/><path class="cls-37" d="M131.68,250.42l2.16-2.48c7.1,3.08,9.61,8.54,8.29,16-.69.81-1.37,1.62-2.06,2.42C135.87,261.78,133.71,256.14,131.68,250.42Z"/><path class="cls-38" d="M739.62,925.46c5.63,1.31,11.76,1.43,15.83,6.54-6.53,3.46-10.63-2.7-16-4Z"/><path class="cls-39" d="M632.64,135.53c2.16-5.07-1-10.93,2.38-15.82a57.38,57.38,0,0,1,0,22c-.71-1.58-1.41-3.15-2.11-4.73Z"/><path class="cls-40" d="M191.35,445.79c-13.17-10.64-15.81-24.18-12.47-40.25,1.81-8.73,3.45-18-.4-26.91-2.67-15.22-5.31-30.45-8-45.66-4-22.13-3.22-43.86,5.26-65,6.69-1,9.81,3.39,12.14,8.75,7.42-6.46,16.76-8.11,23.91-14.17,12-10.16,17.31-23.46,20.64-37.94,1.52-6.64-1.46-11.44-8.28-13.33-3.51-1-7.39-1.27-8.88-5.47,9.73-11.25,20.53-21.27,33.48-28.77,3.61-.8,3.21,2,3.47,4,2.24,17,9.19,24.69,25.61,26.15,9.41.83,16.78,1.28,15.35,14.14-.68,6,4.67,4.48,7.77,2.16a103.91,103.91,0,0,0,18.73-18.81c3.93-4.94,8-9.8,13-13.58,8.07-6,13.79-4.05,16.44,5.57,1.31,4.79.32,11.27,7.33,12.08,6.72.77,10.89-3.85,14.21-9,9-13.89,7.88-28.77,3.81-43.8-1.52-5.63-6.09-6.68-11.3-6.91-16.4-.74-32.4,2-48.44,4.82-4.24.74-9.46,3.72-12.24-2.79A181,181,0,0,1,371.28,142c2.92.18,5.86.1,8.79.14,25,4.15,49.33,10.11,71.1,23.81,1.51,2.28,2.47,5.41.43,7-8.09,6.38-2.7,10.63,1.65,15.57s7.57,10.63,7.28,17.64c-2.36,16.67-6.76,33.21-2.24,50.19.67,2.51-.24,5.11-1,7.57-.28,7.59,4.77,13.29,7.08,20,3.46,23.51-3.92,45.43-9.83,67.55-4.06,0-3.46,4.49-5.83,6.16a3.36,3.36,0,0,1-2.93-.88c-2.42-4.46-2.9-9.31-3-14.25,3.13-13-5.19-23.14-8.75-34.43-1.43-4.52-4.12-8.54-1.32-13.24-6.73,6.94-14.53,13-22.18,19.25-21.92,17.33-43.21,35.43-65,52.94-5.47,4.23-11.66-.55-17.32,1.39a6.87,6.87,0,0,1-2.52-5,14.77,14.77,0,0,0,3.5,8.85c7.45,4.65,12.29.59,16.68-5,6.12-2.72,7.82-12.4,16.78-10.67,3.72,8,4.7,17.49,12.11,23.66,3.9,5.44,5,12.06,7.29,18.15,3.54,9.59,9,17.38,17.44,23.12,16,4.69,16.45,7,4.06,19.28-9.19,9.12-20.39,15.55-30.62,23.3-10.5,3.57-21.72,5.26-32.31,4.18-14.08-1.43-27.61,1.29-41.39,1.68-10.63-1.92-20.87,1.78-31.34,2.29a12.37,12.37,0,0,1-8.29-2.18c-11-7.66-23.29-13.18-34.93-19.77l-24.09-11.37c-3.47-.68-6.89-1.5-9.91-4,3.51,2.3,6.62,4.74,7.15,9.07l.68,5.66Z"/><path class="cls-41" d="M835.11,278.93c17.2,5.09,32.47,13.32,44.34,27.11q2.17,4.45,4.33,8.9c-1.34,8.69-6.18,4.49-11,2.39a36.86,36.86,0,0,1-2.5,15.09c-2.89,8.26,3.52,30.35,11.25,33.75,11.21,4.93,9.64,13,8.43,21.78-17.25,25.77-53.83,36-81.28,22.73-17.66-8.54-28.76-37.29-22.17-57.44,6.35-18.42,24.3-24,39.9-12.38-11.5-8.95-23.43-8.64-33.36,1.1-2.88,2.83-5.29,6.13-8.63,8.51-10.56,21.52-.57,39,11.52,55.67,4,5.47,7.82,10.5,8.25,17.42a7.69,7.69,0,0,1,3,5.69c3.22,56.11-7.36,108.55-41.21,154.79-.43.6-1,1.12-1.44,1.67-6.74,6.53-13.45,13.1-19.88,19.95-6.17,7.07-14.12,11.88-22.3,15.92-11.28,5.57-16.13,13.89-15.64,26.42.37,9.44-.29,9.46-7,10.87,2.18-33.54-1.16-66.83-4.66-100.1a93.67,93.67,0,0,0-1.8-9.77c-1.68-7.68,0-13.4,7.62-17.43,8.6-4.57,16.07-11,26.57-11.85,7.14-.61,8.93-9.3,15.83-12.53,8.3-3.88,16.45-7.57,25.26-10.24,17.17-5.19,19.65-12.08,9.22-26.1-20.77-27.91-46-49.31-81.38-56.86-18.7-4-18.47-5.09-14.77-23.53.64-3.22,1.38-6.41,2.08-9.62,2.4,1.87,2.2-.51,2.51-1.64.68-2.57,1.3-5.44,4.65-5.13,3.77.35,4.08,3.71,4.57,6.62.55,3.27,0,6.63,1.3,12.06,3-12.49,12.41-17.84,19-25.56,1.92-2.25,4.26-4.33,7.25-4.85,26-4.51,41-22.28,52.82-43.81a86,86,0,0,1,9.55-13.5c5.74-6.9,6.87-21.3,2.43-26C803.61,275.35,819.36,276.39,835.11,278.93Z"/><path class="cls-42" d="M773.09,923c-8.41-1.53-13.27-8.77-20.24-12.64-6.42-3.57-21.22,2.14-22.77,9.28-.17.77,1.84,2,2.84,3-11.83-3.81-20.39,1.51-28,9.85-4,4.34-8,8.57-12.17,12.73-4.53,4.56-9.47,7.07-15.42,2.24-1.78-8.32-5.42-16.12-6.85-24.54-2.13-14.73-3.52-15.3-15.54-6.29-6.85,5.14-12.84,12.32-23,9.75-.21-.05-.72.24-.74.41a3.08,3.08,0,0,0,.31,1c-10.24,2.81-20.42,5.91-30.76,8.27-3.25.75-7.37,1.66-10.23-1.84,4.09-7,12.21-12.83,6.51-22.64,1-17.29-9.8-30.14-16.71-44.43-1.74-3.59-4.54-6.67-4.91-10.87,5.23-4.38,10.65-1.27,15.76,0,21.63,5.26,43,5.48,64.19-2,17.5-6.2,30.9-16.79,37.92-34.53,3-7.72,2.19-14.36-4.28-20-11.4-9.86-22.36-20.44-38-23.41-27.53-8.85-55.45-13.63-84.57-10.4-7.18.79-16.87,3.76-20.42-7.46q4.74-12,9.46-24.1c7.68-20.12,19.76-36.38,39.88-45.63,5.75-3.27,11.36-6.83,17.28-9.76,24.57-12.16,39.38,5.52,55.05,18.87,21.74,18.51,35.23,43.34,48.87,67.79,20.44,36.65,32.44,76.5,43,116.84a104.16,104.16,0,0,0,9,23.62C771.36,911.39,773.52,916.91,773.09,923Z"/><path class="cls-43" d="M522.27,652.64c-19.48,8.2-40.45,10.3-60.88,14.34a340.3,340.3,0,0,1-69.25,6c-5.41-.06-10.18,0-12-6.72-10-36.64-16.07-74-21.41-111.52-.64-4.51-1.58-9.51,1-14,5.51,2.05,10-.11,14.46-3.17,11-7.51,22.46-14.25,33.36-21.89,3.76-2.63,7.53-6.44,13.06-4.31,28.66,4.07,57.36,2.55,86.07,1.06,11,18.89,23,37,42,49.06-6.81,6.35-8.53,14.25-8.45,23.35C540.41,609,529.77,630.41,522.27,652.64Z"/><path class="cls-44" d="M801.91,777.3c-19.52,8.61-40.07,14.31-60.15,21.35-5.17.59-5.24-3.78-6.73-6.85-4.25-8.71-8.57-17.39-12.87-26.08,6.21-7.83,16.8-5,24.19-9.9,1.34-.63-1.33-1.8-.23-.81.34.32.18.71-.57.93-8.43,2.5-16.4,7.41-25.78,4.88L711,747.59c-2.93-7.33,3-9.1,7.48-10.7,15.41-5.49,29.56-13.28,43.17-22.17a105.08,105.08,0,0,0,27.49-21.22,22.27,22.27,0,0,1,3.69-2.87,70.94,70.94,0,0,1,7.05-3.48c10.61-6.35,23-9.7,31.37-19.89,2.77-3.36,7.85-5.59,9.43,2.1.21,1,.17,2.25,1.81,1.64,12.78-4.82,28.47-4.78,36.63-17.75,13.66-21.7,30.24-42,34.83-68.48,1.84-10.61,3.46-21.1,2.21-31.86-.55-4.7-.58-9.1,5.71-9.84,8.64,9.71,10,22.1,11.28,34,4.24,40.52-7.52,76.32-30,110.32C877.1,726.71,842.37,754.91,801.91,777.3Z"/><path class="cls-45" d="M233.43,601.42c-5.48-36.85-4-73.18,8.22-108.7,2.52-7.35,5.65-8.8,14.36-6,24.43,7.87,47.06,18.24,67,34.63a58.11,58.11,0,0,0,18.2,10.28c12.08,4,15.59,11.76,14.12,23.61-.68,5.41.32,11,.56,16.56.09,23.67,8.66,46.13,10,69.62.24,4.14,3.08,7.34,5.06,10.81a1.29,1.29,0,0,1,.5,1.69c.91,1.74-.25,3.53.07,5.25,2,11,1.33,11.74-10.11,11.19l-16.05-.81c-13.83,1.18-26.58-3.74-39.64-6.89a4,4,0,0,1-1.87-2.47c-6.54-15.74-8-33.19-16-48.45-2-3.89-4.11-7.74-10.16-6-9.2,2.7-12.75.07-13.46-10.38-.92-13.63-.25-27.32-.7-41.35-2.75,7.91-6.79,14.48-14,19.33-5,3.36-5,10.4-6.61,16-1.55,5.37-1.65,5.33-8.16,4.78-.4,0-.1.74-.05,1.1C235,597.51,235.52,599.73,233.43,601.42Z"/><path class="cls-46" d="M535.41,403.47c10.44-4.71,21.78-3.23,32.53-3.39,37.26-.54,73.95,4.74,110,14.47-12.08,16.53-17.08,35.61-20.19,55.42-.68,4.35-1.39,8.92-3.41,12.77-4.89,9.32-3.4,16.44,5.9,21.68-4.42,6.75-11.4,4.43-17.2,4.1-21.35-1.19-42.47-3.95-63-10.83-35.94-12.07-51.62-35.84-47.26-73.46C533.59,417.32,534.33,410.36,535.41,403.47Z"/><path class="cls-47" d="M682.31,505.13c2.83,9,1.58,21,17.6,21.17-15.43,11.06-32.33,15.78-48.48,21.14-18.44,6.13-37.76,9.67-56.95,13.49-25.32,5-45.33-1.39-62.55-20.16-25.65-27.95-38.06-60-32.62-98.17.75-5.25,2.88-9.86,5-14.56,1.56-7.21,4.07-13.8,11.31-17.32,17.75-6.46,18.3-5.55,16.73,13.23-3.12,37.38,10.77,65.44,50.74,74.82,22.58,5.3,45.3,8.85,68.5,9.22C662,508.16,671.87,503.91,682.31,505.13Z"/><path class="cls-48" d="M553.63,732.29c-7.38,12.41-12.68,25.78-16.87,39.49-2.39,7.81-5.76,10.67-14.28,9.18-28.35-5-55.72-13.39-83.11-21.83,37-21.46,58.07-56.7,79.54-91.6,2.32-3.77,4.83-7.39,7.29-11.06,20.57-8.89,41.19-17.66,61.68-26.73,8-3.53,12.83-3.24,14.55,7,1.79,10.66,8.33,19.56,13.42,28.91,2.47,4.55,2.49,6.72-3.1,8.7A44.39,44.39,0,0,0,595.46,686C578.4,698.59,566.4,715.79,553.63,732.29Z"/><path class="cls-49" d="M167.17,574.17c-8.81-2.6-17.95-2.81-27-3.8-26.67-7.62-55.48-7-83.16-21,39.49,2.52,39.49,2.52,47.49-21.47,2.73-4.24,7.06-4.49,11.53-5.1,39.15-5.3,74.69-18.28,101.78-48.77a10,10,0,0,1,6.67-3.36c16.61,9.3,16.55,9.28,11.47,26.62-6.35,21.62-10.65,43.6-9.4,66.24.46,8.47-2.9,11.11-10.83,10.94C199.55,574.08,183.36,574.23,167.17,574.17Z"/><path class="cls-50" d="M173.64,430.13c3.3,6.6,7.78,12.15,14.29,15.85,8.49,7.7,16.73,15.75,27.9,19.64,1.66,3.63-.08,6.67-2.29,9.06-29.26,31.7-65.43,47.39-108.67,46.54-3.91-11.69-12.25-11.81-21.8-8.13-6.78,2.61-13.42,5.61-20.12,8.44-5.55-1.64-13.17-.21-13.7-9.27,2.77-10,11.18-16.92,14.55-26.59.63-1.8,3.78-4.42-1.25-4.8-.21-2.67,1.12-3.9,3.69-4,.69,4.58,2.59,2,3.79.47,1.92-2.4,2.63-4.81.63-7.94-6.87-10.74-6.76-10.84,6-15.68,4.08-1.55,8-3.59,12.59-3.46,17.21,10.2,35.19,10,53.09,2.73,6.47-2.61,11.35-9.12,13.37-15.37C159.17,426.93,165.68,427.83,173.64,430.13Z"/><path class="cls-51" d="M333.26,778.84c-11-5.89-19.7-14.37-27.18-24.22-6.21-15.85-10.74-31.9-6.38-49.14,2.12-8.41,1.08-16.78.09-25.28-1.49-12.82,1.88-15.38,14.2-12,7.5,2,14.95,4.26,22.87,2.74a5.77,5.77,0,0,1,3.33,1L378,678.58c-.32,7.17-7.52,3.63-11,7.33,1,3.91,4.84,5.68,7.76,8.1,13.42,11.16,16.48,21.77,10.36,37.83-1.76,4.63-3.36,9.54-1.31,13.95,5,10.65.57,17.55-7.89,23.35a14.38,14.38,0,0,0-3.25,3C360.84,782.1,346.74,778.67,333.26,778.84Z"/><path class="cls-52" d="M434.73,757c-24.52-.55-29.54-20.52-37.14-37.65-4-9-7.1-18.47-10.6-27.72l-.49-6c1.66-5.72,6.13-6.87,11.21-6.63,20.18.94,40.17-1.35,60.19-3.29,5.52-.53,11.23-.38,14.62-6l41.88-8.94c2.31,0,8.28-.72,4.39,2.91-12.41,11.62-16.9,28.08-27.49,40.86-12.58,15.17-25.76,29.4-41.91,40.51C444.09,748.63,441.43,755.27,434.73,757Z"/><path class="cls-53" d="M699.81,658.87C707,657,704.17,651,703.94,647c-.74-12.7,3.6-21.57,15.59-27.09a86.44,86.44,0,0,0,24.24-16.57c2-.07,3.51-1.35,5.28-2,4.63-2.52,7.39-7.27,11.8-10,4.63-2.89,7-1.49,6.63,4-.51,8-3,15.21-9,20.83-5.09,4.73-8.27,10.13-7.85,17.52.39,6.81-3.21,12.34-8.54,16-8.45,5.79-13.32,13.56-15.56,24.62,10-5.54,20.68-4.3,30.87-6.29,4.65-.91,10.53-2.14,13.35,2.5,3.21,5.29-2.29,8.64-5.42,12-5.73,6.14-11.68,12.1-19.31,17.13,2.5.46,3.53-.69,4.8-1.13,3-1,5.88-1.48,8.12,1.26,2.45,3,.5,5.59-1.25,8a84.28,84.28,0,0,0-8.73,15.42c-10.7,7.91-23.45,11.49-35.39,16.79-2.56,1.14-5,.46-7.26-1-3.37-5.7-6-12-10.31-16.93a18,18,0,0,1-4.08-16.44C696.37,690.23,696.49,674.3,699.81,658.87Z"/><path class="cls-54" d="M787.86,279c2.19,1,6-.86,5.6,4.52-.84,10.18.24,20.43-9.59,27.83-6.85,5.16-8,14.49-12.69,21.51C762.29,346.09,749,353.65,737,363c-1.15.89-2.45,2.43-3.61,2.36-20.18-1-27.08,13.52-33.69,28.42-.76,1.7-1.14,4-3.3,3.83-2.74-.17-3.2-2.7-3.25-4.91-.11-5.43,0-10.86,0-17.77-6.06,2.93-5,8.43-8.11,11.4-.42-1.93-.8-3.7-1.19-5.47,7.07-32.48,25.76-57.35,51.18-77.72,5.75-4.61,11.93-8.67,17.91-13C764.14,285.17,775.39,280.16,787.86,279Z"/><path class="cls-49" d="M457.65,467.69c-14.75,11.76-32.34,17-50.11,21.77-40.89,10.9-82,12.65-123.39,2.74-21.71-5.2-41.52-14.48-60.17-26.6-7.69-5-3.45-8.7.6-12.76,12,.57,21.45,7.2,30.83,13.68,10.83,7.49,21.77,11.24,35.07,6,20.67-8.2,42.75-5.26,64.26-6.47,18.46-1,36.43-4.95,54.4-8.6,8.53-1.73,15.38-1,21.27,5.05,6.67,6.81,13,7.51,19.79.4C454.44,461.76,457.56,462.39,457.65,467.69Z"/><path class="cls-47" d="M457.65,467.69a6.45,6.45,0,0,0-6.14-4.08c-2.07-8.82,1.26-15.55,8.19-20.78,4.67-3.52,10-6.2,13.51-10.12-15.36,13.48-33.9,21.23-54.84,23.47-8.93,1-17.2,6.44-26.65,4-2.75-3.4.25-5.67,2-7.43,10.76-10.49,23.86-19.07,27.45-35.16A146.31,146.31,0,0,0,443,403.83c5.43-2.22,3.8-10.22,9.76-12,25.54-3.22,44.15-17.34,59-37.41,3.07-4.14,5.77-8.7,10.06-11.74,3.35-2.36,7-4.53,11.08-1.19.24,1.5.47,3,.71,4.51-.9,3.06-.07,6.56-2.4,9.24-3.17,6.14-4,12.84-4.63,19.58a9.25,9.25,0,0,1-2.24,6.79c-7.85,14.52-20.4,26.67-22.34,44.18C490.39,443.08,475.93,457.41,457.65,467.69Z"/><path class="cls-50" d="M659.76,503.55c-13-1.07-14.71-3.75-10.17-15.45,5.31-13.68,6.83-28.3,10.24-42.45,2.9-12,7.34-23.47,18.07-31.1,19.18,4.95,38.24,10.22,56.47,18.74-24.5,14.59-27.61,20-21.12,36.58,1.33,8.78,1.33,8.78-2.77,11.63C694.71,476,691.57,478,682,499.05,674.5,500.13,668.36,507.94,659.76,503.55Z"/><path class="cls-55" d="M633.19,598.76c4.53,14.37,7,29.47,15.7,42.31a162.86,162.86,0,0,1,28.45,44.71l9.75,21.68c-15.53-11.48-27.56-26.33-45.63-33.28-1.72-.66-3.31-2.25-5-2.3-19.73-.53-23.1-17.07-28-30.35-8.34-22.77-9.11-46.81-7.68-70.95.63-10.67,8.84-7.33,14.5-8.91A84.27,84.27,0,0,0,623,596.82c1.23,2.71,1.24,8.09,7,6.12C630.94,601.45,631.59,599.73,633.19,598.76Z"/><path class="cls-56" d="M233.43,601.42c1.71-2.31-3.38-9.73,5.18-6.91.52-1.71,1.11-3.41,1.55-5.14,2.28-9,2.15-19.21,14-22.61,3.06-.88,3.07-5.54,4.39-8.53,1.69-3.8,1.28-9,8.26-11.23,0,14.59,0,28.63,0,42.67,0,4-.6,8.08,1.35,11.93,2.1,4.13,3.93,8.08,7.82,1.28,3.28-5.73,6.42-2.76,9.5.35,8.41,8.52,9.56,20.36,14,30.69,3.34,7.84-1.14,18.89,9.78,23.65l-5,1.46c-15.16,3.32-26.65-4.06-37.66-12.89-2.65-1.28-5.23-2.74-8-3.82C240.06,634.94,232.63,620.73,233.43,601.42Z"/><path class="cls-57" d="M337.83,672.39c-9.65,5.36-18.54.07-27.37-2.49-6.68-1.94-9.11-.3-8.07,6.23,2.61,16.38-.13,32.21-2.21,48.45-1,7.88,5.09,18.1,7.13,27.5.16.72-.8,1.69-1.23,2.54-11.34-6.94-17.26-18.78-25.19-28.66-17.65-22-28.2-48-38.36-74-.84-4.89-3.42-9.5-2.48-15.61,8.66,3.37,15.31,10,24.2,11.67,12.81,3.4,24.05,11.2,37.32,13.35,8.72,2.85,17.88,3.82,26.69,6.27C331.85,668.64,335.45,669.17,337.83,672.39Z"/><path class="cls-48" d="M553.18,563.43c12.22,4.2,24.73,3.82,37.15,1.65,5.93-1,6.77.47,6.44,6.13-.77,13.53-2,27.13.43,40.66.8,4.42,1.65,9.32-4.09,11.1-20.13,6.24-37.12,19.69-57.68,24.9-3.62-4.47-1.83-9.34-.26-13.66,7.08-19.54,10.35-39.84,12.87-60.32C548.54,569.84,549.22,565.81,553.18,563.43Z"/><path class="cls-58" d="M651.06,638.61c-9.63-24.51-17.43-49.39-15.56-76.25.14-2.05-1-4.53,2-5.49,7.24.41,11.24,3.44,12.89,11.29,3.08,14.63,13.7,25.79,20,39,3,6.38,5.91,2.72,8.36-1.25,2.29-3.71,2.29-11.13,8.6-9.28,5.67,1.66,3,8.26,3.32,12.74,1.32,17.46-2.8,34.5-4.33,51.74-.2,8-1.06,15.71-6.56,22.09-9.3-7.07-13.83-17.74-20-27.09C656.27,650.76,651.7,645.57,651.06,638.61Z"/><path class="cls-59" d="M441.89,485.61c6.06-10.09,17.73-12.74,26.24-19.65,9.08-7.38,19-13.7,26.15-23.72-3.18,23.28,1.13,44.85,10.06,65.72-1.89,4.68-6.12,4.9-10.18,5.16-19.63,1.25-39.14-.87-58.64-2.6-3.7-.32-7.69-1.39-8.79-5.55-1-3.82,2.33-5.86,4.81-8C435.44,493.58,439.68,490.52,441.89,485.61Z"/><path class="cls-60" d="M686.4,661.13c-1.74-9.62-.27-19.19,1.1-28.64,1.68-11.56,1.1-22.94.43-37.38-6.52,9-6.57,18.88-15.56,21.94-5.47-9.78-10.79-19.81-16.63-29.51-2.85-4.75-6-9.35-7.21-14.74-1.58-6.87-3.42-13.3-11-15.93,13.85-4.83,27.79-9.4,41.49-14.61,5.3-2,7.9-.45,8.66,4.45C693.6,584.91,698.29,623.12,686.4,661.13Z"/><path class="cls-61" d="M344.41,528c-14.63-5.4-27.43-13.62-41.27-26.94,45.29,4.85,86.46-.44,127.15-13.07-9.52,11.37-21.67,19.32-34.33,26.64a12.67,12.67,0,0,1-6.27,1.74C373.89,517.59,357.78,517.4,344.41,528Z"/><path class="cls-62" d="M659.76,503.55c8,1.67,13.55-9.31,22.24-4.5q.15,3,.31,6.08c-6.23,6.19-14.93,4.21-21.84,4.52-32,1.44-63.87-2.36-94-13.46-20.12-7.41-32.36-23.28-35.54-45.29-1.64-11.27-3.8-22.4-.24-33.76.78-2.5,1.41-6.07-1.62-8.08-2.63-1.75-4.81.76-7.22,1.3-2.23.5-3.22,4.81-6.43,2.08-1.15-2.4.57-3.37,2.19-4.4,5.58-2.89,11.24-5.47,17.8-4.57,6,4.41,2.31,9.87,1.4,14.85-2.61,14.34-2.6,28.51,2.74,42.24,6.78,17.43,20.37,26.91,37.6,33,23.47,8.25,47.61,11.43,72.23,12.18C652.91,505.81,656.85,506.88,659.76,503.55Z"/><path class="cls-63" d="M434.73,757C438,746.6,448.12,743,455.51,737c22.94-18.5,41.12-40.49,53-67.48,1.78-4,5.56-4.34,8.13-6.56,2.72-2.35-1.62-1.27-2.25-2.29l11.8-4.24c-.31,11.23-8.7,18.8-14,27.23-16.36,26.23-33.88,51.9-59.7,70.33-4.07,2.9-8.24,4.8-13.17,5.1C437.54,759,435.72,758.86,434.73,757Z"/><path class="cls-64" d="M391.12,458.92c32.57-4.43,64.76-9.83,89.77-34.72A22.1,22.1,0,0,1,469.19,439c-10.42,5.38-15.28,13.92-17.68,24.63-8.27,11.34-11.73,12.07-21.62,2.32-6.47-6.38-12.37-7.88-21.48-5.53-21.08,5.44-42.79,8.61-64.61,7.9-20.25-.66-39.74,2-58.6,8.94-7.46,2.75-13.92,1.43-19.91-2.53-12.93-8.54-25.91-16.86-40.71-21.87l.06-2.58c15.91,2.55,28.24,12.39,41.47,20.41,10.93,3,21.27-1.87,31.94-2.37,11.29-4.18,23.1-3.77,34.79-3.53,13.65.27,27.14-.44,40.5-3.33C379,458.45,384.66,456,391.12,458.92Z"/><path class="cls-55" d="M535.62,357.43c3-9.46,2.06-19.3,2.82-29,.18-2.24-1.87-5.1,1.47-6.67,3.77,5.35,3,11.49,3,17.47,1.11,13.93,7.7,25.29,16.72,35.5a46.28,46.28,0,0,1,.5,5.49c-.33,17.21,2.35,15.61-15.08,16.15-6.42.2-14.28,8-19.19-.2-3.67-6.09,3.6-12.06,5-18.42C532.3,371,535.85,364.65,535.62,357.43Z"/><path class="cls-65" d="M553.18,563.43c-3.5,28.65-10.07,56.66-17.75,84.44l-13.16,4.77c-1.95-11.64,4.33-21.52,8.09-31.47,5.66-15,6.78-30.23,7.23-45.77.23-7.59,1.7-13.79,11-14Z"/><path class="cls-52" d="M371.16,769.9c3-2.66,6-5.29,9-8,3.63-3.25,5.11-6.3,2-11.4-3.77-6.21-3.26-13.07.2-19.83,6.61-12.91,3.45-25.1-8.24-33.65-.59-.43-1.37-.6-1.92-1.07-3.91-3.28-10.56-6.76-9.92-10.91.92-6,8.52-3.1,13.14-4.43.95-.28,1.67-1.35,2.49-2.06,5.21,4,3.12,11.14,6.78,15.81l11.05,33c1.32,2-3.24,2.08-1,5.6,3.58,5.56,9.17,11,7.3,18.93l-26.29,20.36C373.28,773.42,372.17,771.75,371.16,769.9Z"/><path class="cls-66" d="M104.87,521.22c12-3.29,24.53-3.12,36.58-6.57,25.17-7.21,47.89-18.28,66.27-37.36,3.37-3.5,6.36-7.12,8.11-11.67,3.58.49,6.11,2.76,8.66,5-11,14.48-24.86,25.13-40.91,33.84-21.88,11.86-44.77,19.22-69.49,21.31-3.23.27-6.39,1.37-9.58,2.08Z"/><path class="cls-67" d="M724.56,472.29c-7.14-4.29-12.33-9.82-9-18.78,3.29-8.8,11.3-12.56,19.59-14.37,6.66-1.45,10.5,3.69,13.12,9.3a42.6,42.6,0,0,1,.86,6.43Q750.2,480.93,724.56,472.29Z"/><path class="cls-68" d="M441.89,485.61c-.19,9.27-10.89,10.63-13.75,20.4,25.3,2.89,50.47,7.38,76.2,1.95,1.41,1.14,2.48,2.44,2.3,4.41-3,3.85-7,4.6-11.65,4.56-20.62-.2-41.24-.1-61.86-.09-5.59,0-10.94-.73-15.42-4.49-1.54-2.88,2.33-4.31,1.85-6.9Z"/><path class="cls-69" d="M724.56,472.29c17,2.55,23.6-5.78,22.86-21.84,0-.65.57-1.34.88-2,11.2,13.47,10.73,39.43-.38,50.33-3.42,3.35-5.14,3.58-6.89-.69C737.09,488.48,729.63,481.15,724.56,472.29Z"/><path class="cls-70" d="M344.41,528C357.54,508,378,516.3,396,514.65c-10.87,7.36-22.86,12.59-34.77,17.94C354.59,535.55,349.42,531.7,344.41,528Z"/><path class="cls-71" d="M688.6,507.94c-4.68-9.49,1.62-16.09,6.31-22.94,2.32-3.39,5.79-2.22,9-.82a32.15,32.15,0,0,1,13.84,12.15c1.23,8.37-4.44,11-10.86,11.85C700.85,509,694.65,509.92,688.6,507.94Z"/><path class="cls-72" d="M472.52,669.65l5.55,1c-13.62,12.35-30.84,7.48-46.28,10.15-9.69,1.67-19.9.55-29.87.23-5.78-.18-10.94.78-15.42,4.54-3.72-5.55-3.13-8.85,4.44-8.73C418.38,677.29,445.52,674.22,472.52,669.65Z"/><path class="cls-73" d="M419.56,505.45c3.57,3.42-1.82,4.44-1.85,6.9-15.46,10-30.95,20-46.36,30.16-4.59,3-8.94,6.3-11.66-1.83.24-4.91,4.43-5.27,7.71-6.66A286.84,286.84,0,0,0,419.56,505.45Z"/><path class="cls-74" d="M722.15,500.82c3.57,3.16,8.34,6.68,7,11.53s-7.66,5-12.17,6.23c-4.26,1.11-8.7,1.52-13.07,2.21-8.48,1.35-14.73-.51-15.2-10.63a9.92,9.92,0,0,1,7.13-2.09A36.07,36.07,0,0,0,722.15,500.82Z"/><path class="cls-75" d="M756.44,495.56c7.67-13.78,3.86-26.76,1.31-40.56,10.29,6.68,13.24,17.56,19.4,26,2.79,3.83-.4,7-3.49,9.15C769.11,493.28,763.93,495,756.44,495.56Z"/><path class="cls-76" d="M371,652.24c-12.68-5.47-8.58-18.08-9.92-27.23s-3.28-18.19-5.3-27.2c-1.95-8.71-2.93-17.35.12-26C362.05,598.4,366.87,625.25,371,652.24Z"/><path class="cls-77" d="M633.19,598.76l-.45,6.38c-5.6,0-7.28-5-9-8.42-5.67-11.2-9.5-23-4-35.54,7.63-3.57,12.57-4.69,11.54,7.32C630.45,578.46,632.45,588.67,633.19,598.76Z"/><path class="cls-78" d="M593.09,394.9c-3.28,0-6.56.13-9.83,0-19.25-.63-19.25-.65-18.8-20.15,13.31-.14,21.28,9,29.71,17.25C594.77,392.6,593.81,394.05,593.09,394.9Z"/><path class="cls-79" d="M710.48,481.5c2-3.63-.71-8.36,2.77-11.63,9.54,6.18,15,15.75,20.88,25,2.06,3.24,3.75,7.25-.35,9.59-3.51,2-4.45-2.58-6.26-4.5C721.77,493.88,716.15,487.66,710.48,481.5Z"/><path class="cls-80" d="M619.76,561.18c-.26,16,1.59,31.4,13,44-1.78,3.41-4.93,5.82-7.39,2A75.87,75.87,0,0,1,613.14,564c0-.8,1.42-1.56,2.18-2.34Z"/><path class="cls-49" d="M502,425.78c-5.14-6.83,0-12.77,2.75-17.9,5.16-9.47,12.41-17.73,17.09-27.66,1.76-3.74,1.93.3,2.5,1.38-.81,8.88-8.7,15.14-9,24.22a88.68,88.68,0,0,1-12.89,20.28Z"/><path class="cls-81" d="M706.28,739c15.44-3,29.49-9.32,42.69-17.69,2.77-6.5,7.71-8.9,14.56-7.69a1.68,1.68,0,0,1,.88,1.7c-.13.66-.29,1-.5,1a200.69,200.69,0,0,1-45.85,24.08C715,741.5,709,741,711,747.59,707.5,745.75,708.33,741.57,706.28,739Z"/><path class="cls-82" d="M559.67,374.76c-15-6.17-15.3-20.95-19.64-33.38,5.18-2.62,6.39,1.82,8,4.8a93.08,93.08,0,0,0,9.86,14.74c.53.33,1.05.67,1.57,1Z"/><path class="cls-83" d="M689,696.9c-7.6-15.42,4.38-28.28,5-42.7C695.68,668.81,692.18,682.8,689,696.9Z"/><path class="cls-84" d="M651.06,638.61q14.38,22.3,28.78,44.61l-2.5,2.56c-10.84-14-19.86-29.24-28.45-44.71Z"/><path class="cls-85" d="M553.63,732.29c10.12-18.9,23.7-34.67,41.83-46.34,0,1,0,1.92-.07,2.89-16.54,12.39-28.79,28.51-39.88,45.64Z"/><path class="cls-86" d="M593.09,394.9c-5.74-12.11-18-14.92-28.63-20.13,1.09-5.45,1.09-5.45,10.85-1.51,3.48,4.74,9,6.8,13.46,10.21l13.07,10.93C598.39,397.25,595.74,395.24,593.09,394.9Z"/><path class="cls-87" d="M337.83,672.39l-37.64-9.31c.22-4.37,3.06-2.81,5.39-2.39l39.78,8.87-5.17,2.3Z"/><path class="cls-88" d="M722.15,500.82c-8.37,13.1-21.71,8.4-33.47,9.34,0-.74,0-1.48-.08-2.22,4.3-2.67,9.11-2.35,13.8-2.1,7.43.4,12.69-2.35,15.32-9.51A7.61,7.61,0,0,1,722.15,500.82Z"/><path class="cls-89" d="M305.58,660.69c-1.95.44-4.13.38-5.39,2.39-13-2.61-24.54-8.66-35.94-15.05l2.36-1.89c12.66,4,23.8,12.4,37.66,12.89A17.36,17.36,0,0,0,305.58,660.69Z"/><path class="cls-90" d="M201.92,443.48l12.22,5.83c2,.93,4.32,1.75,4.13,4.39-.16,2.25-1.79,3.84-3.72,5.05-2.81,1.77-4.75.36-6.55-1.68C204.91,453.58,202.31,449.86,201.92,443.48Z"/><path class="cls-76" d="M361.42,670.37c5.66-1.19,13.4-.64,8-10.54-.67-1.23,1.3-3.9,2-5.9l6.75,18.53C372,671.15,366.56,673,361.42,670.37Z"/><path class="cls-91" d="M719.77,760.82l32.43-6.93c-10.69,7.74-21.46,6.87-30,11.83Q721,763.26,719.77,760.82Z"/><path class="cls-92" d="M502.51,426.1a49.23,49.23,0,0,1,12.89-20.28l2.21,2.22-2.19,4.41q-5.55,7.79-11.09,15.59C503.72,427.4,503.11,426.75,502.51,426.1Z"/><path class="cls-93" d="M197.79,443.93c-2.4-6.18-11.46-6.57-12.61-15.22l15.37,10.18C198.37,439.87,198.37,442.06,197.79,443.93Z"/><path class="cls-49" d="M526.62,374.81c-2.24-7.16.43-13.65,2.81-20.17.05-.14.68-.18,1-.08a2.92,2.92,0,0,1,.85.67C531.1,362.09,529.89,368.69,526.62,374.81Z"/><path class="cls-94" d="M188.9,796.19l2.22-9c1.68,1.06,2.25,2.81,3,4.53,8,19.23,9.53,19.83,28.58,12.38,10.7-4.18,17.5-11.09,23.67-21.48a98.12,98.12,0,0,1,36-35.06c4.64-2.63,7.61.71,11.23,2l30.63,29.77c-12,13.17-23.85,26.21-40.2,34.82-27.74,14.63-55.48,17.51-84.17,4C190.72,813.88,188.07,805.76,188.9,796.19Z"/><path class="cls-95" d="M217.61,914.43c-6.26-6-7.58-14-8.91-22C210,886,215,886.85,219,887.88c5.24,1.34,3,5.47,2.21,9C219.87,902.67,218.79,908.56,217.61,914.43Z"/><path class="cls-96" d="M173.57,876.41c3.92-4.31,7.91-8.55,11.74-12.94,4-4.63,6.72-2.87,8.95,1.67-5.09-.08-7.32,4.36-10.9,6.7C180.39,873.78,178.27,878.06,173.57,876.41Z"/><path class="cls-97" d="M443,829.32c-19.46-3.37-37.48-11.55-56.33-17L356,795.84c5.38-9,14.48-13.14,21.94-19.1,20-4.14,39.08-12.64,59.84-13.56,28.47,7.18,55.95,18.25,85.27,22,5.48.7,7.44,3.4,8.9,8A93,93,0,0,0,537,805.28c5.73,11.78,5.08,13.28-7.79,17.68C501,832.59,472.12,832.55,443,829.32Z"/><path class="cls-98" d="M546.05,758.58c7.17,8,16.76,5,24.94,4.14,28.47-3,55.54,1.9,82.07,11.6,13.5,5.44,24.7,14.21,35.17,24.1,5.19,4.9,6.55,10.94,4.2,17.16-5.29,14-15.46,23.87-28.66,30.68-1.39.72-2.87.17-4.19-.57-.55-7.72,6.62-12,8.34-18.74,1.66-6.49,7.07-13.13.45-19.51-7-6.74-21.34-9.27-28.25-5.61-12.53,6.63-21,4-27.18-8.52-1-2-1.68-4.11-2.59-6.12C606.6,779,602.81,778,597.88,785c-13.14,18.86-21,39-11.24,62.14a3.77,3.77,0,0,1,0,2.18c-5.93,4.72-11-.56-16.53-1.35-10.1-13.43-17-28.94-28.15-41.78-7.22-8.32-5.4-18.44-2.78-28.32A96.13,96.13,0,0,1,546.05,758.58Z"/><path class="cls-99" d="M293.6,749.58c-11.31-2.5-18.53,5.08-25.15,11.7-4.86,4.86-8.79,10.53-14.74,14.47a14.5,14.5,0,0,0-5.7,7.8c-5.29,21.53-24.41,23.84-40.79,27.87-11.88,2.93-10.5-11.48-15.47-17.74-1.13-1.43-.47-4.28-.63-6.47,5.37-25.55,22-44.67,37.1-64.62,2.86-3.77,6.64-6.85,10-10.25a137.62,137.62,0,0,1,28.59,2.07C274.37,727.18,285,737.61,293.6,749.58Z"/><path class="cls-62" d="M570.09,848c6.11-5.38,10.68,3.3,16.37,1.81l1.7-.3c15.88,2.2,31.62,6.32,47.87,2.07,4.21-1.1,8.59-1.71,12.72-3.2,3.63-1.1,6.94-3.37,11-3,13.26-5.73,22.84-15.44,29.38-28.05,3.31-6.38,2.46-12.33-3-17.94-9.8-10-21.75-17-33-25,18.69,3.9,33.19,15.44,43,30.29,7.46,11.3-1.44,23.58-9.6,32.54-21.51,23.63-49.58,28.25-79.7,24.82-10.5-1.19-20.86-3.68-31.28-5.58Z"/><path class="cls-100" d="M437.76,763.18c-19.8,5.15-38.65,14.52-59.84,13.56,2.38-2.23,4.89-4.34,7.12-6.72C400.76,753.28,418.34,751.21,437.76,763.18Z"/><path class="cls-101" d="M673,923.06c2.28,7.1,4.44,14.25,6.91,21.28,1,2.93-.95,2.73-2.54,3.19L644,930.08C650.17,916.84,665,913.25,673,923.06Z"/><path class="cls-102" d="M371.16,769.9l4.66,2.33C370,780,361,783.51,353.73,789.38c-2.62,2.12-5.06,1.69-7.68-.57-4.09-3.53-8.51-6.67-12.79-10,6.65-3.77,14.44-3.51,21.23-3.14C361.6,776.08,366.25,773.66,371.16,769.9Z"/><path class="cls-103" d="M266.81,714.41c-9.85,3.68-19.22.83-28.59-2.07a19.17,19.17,0,0,1,1.72-2.71C256.14,691.56,256.15,691.56,266.81,714.41Z"/><path class="cls-104" d="M673,923.06c-12.51-9.38-20,1.82-29,7l-12.4-2.19c-.43-.92-4.2-2.49-1.63-2.14,11,1.53,16.6-6.7,23.9-11.6,4.55-3,9.33-9,14-6.83C673,909.66,673.27,917.07,673,923.06Z"/><path class="cls-105" d="M597.09,911.69c8.52,6.82,6.27,14.64-6.51,22.64C589.94,926,593.83,918.92,597.09,911.69Z"/><path class="cls-106" d="M530,829c4-3.32,8.44-5,12.83-6.86s6.71,1.23,7.64,4c1.76,5.23-3.19,3.44-5.45,3.91C540.05,831.11,535,832.26,530,829Z"/><path class="cls-107" d="M402.11,751.87c-2.92-5.87-5.45-12-8.87-17.54-2.52-4.1-.56-5.49,2.55-7,3.06,6.4,6,12.83,9.2,19.17C406.69,749.9,404.72,751,402.11,751.87Z"/><path class="cls-108" d="M173.64,430.13c-1.13,6.29-3.29.22-4.94.34-4.42.34-7.8-1.5-9.54,6.43-1.78,8.11-8.2,17-17.82,19.86-9.32,2.8-18.8,6.66-28.95,2.64a9.67,9.67,0,0,0-6.54-.13c-9.42,3.85-13.63-1.29-16.59-9l22.16-9C129,436.58,146.56,432.07,164,427,168.48,425.71,171.74,425,173.64,430.13Z"/><path class="cls-109" d="M66.24,476.89a5.14,5.14,0,0,0-3.7,4l-4.71,6.94c-5.61,1.6-10.2,5.17-15.25,7.85-3.41,1.8-7.27,3.23-11.31,1.32-3.67-19.71,5.31-32.43,23.28-31.88C61.15,465.3,68.87,466.54,66.24,476.89Z"/><path class="cls-110" d="M64.86,528.07c6.36-5.14,14-8,21.37-11,3.73-1.5,8.52-3.73,12,.89s2.87,8.73-1.36,12.64c-.86.8-.79,2.61-1.15,3.95-7.16,1.79-14.41.94-21.58.44C70,534.68,65.31,533.93,64.86,528.07Z"/><path class="cls-111" d="M49.25,512.26,63,521.53c-6.55,4.54-13.44,8.68-19.56,13.74-5.88,4.86-8.37,3.88-10.26-3.32-1.39-5.34-2.56-10.41-.46-17.13C40.59,525.55,45.74,522.41,49.25,512.26Z"/><path class="cls-55" d="M93.24,541.12c-1.43,6-6,7-11.09,6.52a107.28,107.28,0,0,1-34.1-8.87c2-3.44,5.17-4.45,8.1-5.83,10.45-1.26,20.55,3,31,1.91C91.33,534.41,92.44,537.83,93.24,541.12Z"/><path class="cls-112" d="M31.27,497c6-2.54,12.69-3.25,17.51-8.48,2.35-2.55,5.84-3,9-.69-3.34,10.65-13.46,17.42-15.64,28.85C33.5,512.29,31.93,504.88,31.27,497Z"/><path class="cls-113" d="M27.15,503.4c5.24,7.83-2.57,15.39,1.12,25.73-10.46-5.21-19.37-7.77-20.83-19C13.23,505.56,18.87,500.61,27.15,503.4Z"/><path class="cls-114" d="M27.15,503.4,7.44,510.11c2.11-10.26,9.44-16.81,17.69-26Z"/><path class="cls-115" d="M93.24,541.12c-2.71-4.47-7-4.56-11.51-4.3a65,65,0,0,1-25.58-3.88l8.71-4.87c4.06,4.72,9.56,4.31,15,4.34s10.93-1.13,15.88,2.13Z"/><path class="cls-116" d="M302.47,151.12c11.86,3.19,22.8-2.74,34.23-3.86,11.08-1.09,22.05-.4,33-1,3.52-.21,5.15,1.58,6.29,4.83,6.13,17.42,6.94,34.48-2.87,51a22.39,22.39,0,0,1-9.56,8.92c-9.39,4.52-16.12.88-16.78-9.42-.29-4.48.33-9.67-4.69-11.38s-7.94,2.89-10.88,6c-8.59,9.08-16.87,18.44-25.47,27.51-3.53,3.72-7.76,8.28-13.22,5.83s-3.76-8.05-2.27-12.69-.54-6.05-4.78-6.26c-4.74-.23-9.45.35-14.24-1.09C255,204.57,247.36,194,248.71,177.06,265.07,165.17,281.65,153.75,302.47,151.12Z"/><path class="cls-117" d="M142.13,263.93q-4.15-8-8.29-16c-1.77-10.07-5.9-19.85-4.57-30.31,1.25-9.78,5.56-12.06,14.26-7.49a156.1,156.1,0,0,1,15.73,10.1c2,1.41,3.59,2.8,4.83-.59,3.78-3.69,7.67.25,12.39-.24.19-7.54-1.22-15-2.65-22.37-7.07-36.22-3.32-71.93,5-107.33C180.71,81.76,183.43,73.05,193,70c5.94.54,5.23,6,7.2,9.57,2.93,13.4,7.48,26.56,6.25,40.6,4.12,22.94,6,46,4.66,69.33-.56,9.62-3.27,17.41-9.77,24.72-13.8,15.51-22.74,34.23-32.65,52.28-3.17,5.76-.64,12.42-3.75,18.84C154.7,280.77,149,271.74,142.13,263.93Z"/><path class="cls-118" d="M233.64,125.91c4.26,12.56,3.7,25.89,6.11,38.74,1.2,8.84-2,15.23-9.63,20.17-5.34,3.45-9.74,8.35-15.83,13.72,1.36-29.1,3.12-56.59-5.48-83.28a52.17,52.17,0,0,1-5.09-19.2c8.76-3.31,10.48,4.46,12.92,9.21,3.83,7.49,7.5,15,12,22.12S231.5,124.51,233.64,125.91Z"/><path class="cls-119" d="M215.23,205.83a67.68,67.68,0,0,0,8.34,2.43c9.48,1.52,14,7.62,11.84,16.3-5.54,22.13-14.17,42.19-39.36,49.16-3.5,1-5.9,5.95-9.79,10.13-1-7.55-3-13.89-10.56-15.86a99.49,99.49,0,0,1,15.62-33.12c5.18-1.55,5.81,2.3,7.37,5.72,3.53,7.72,7.74,8.51,14.39,3,4.6-3.81,7.67-8.77,10.19-14.12,3.32-7,3.65-12.88-5.74-15-3.69-.83-6.42-2.16-4.17-6.66Z"/><path class="cls-120" d="M213.36,207.83c.36,2.87,1.24,3.84,4.84,4,8.81.35,12.65,6.92,9.36,14.89-3.08,7.47-7,14.43-13.31,19.83-8.35,7.1-16.3,5-18.14-5.66-.64-3.72-2.72-4.4-4.79-6C197.45,224.86,205.51,216.43,213.36,207.83Z"/><path class="cls-121" d="M205,95.07q1.89,10.09,3.79,20.19l-2.37,4.86L197.62,79.8c-.87-2.64-1.14-5,2.74-5C204.54,81,208.39,87.18,205,95.07Z"/><path class="cls-41" d="M764,713.35c-4.74,3.17-11.29,2.89-15,7.91-.43-6,2.24-10.66,6.3-14.8,1.44-1.46,4.12-2.89,2.56-5.39-1.88-3-4.48-1.29-6.77-.11-.66.34-1.3.7-1.95,1-2.65,1.41-5.67,5.9-8.17,1.65-1.87-3.17,2.56-5.92,5.13-7.5,8-4.95,13.64-12.35,20.37-18.61,1.56-1.45,3.82-3,3.16-5.4-.76-2.77-3.73-2.56-5.61-2-11.51,3.24-24.57-1.29-35,7.06-2.22,1.76-4.78,2.34-7,.11s.72-3.68,1.33-5.53c3.68-11.07,9.63-20.22,19.8-26.53,3.12-1.94,5.75-6.1,5-9.43-2.35-10.81,3.33-17.38,10.5-23.67,6.16-5.41,5.11-13.28,6.88-20.33-7.57,1.41-8.49,12-17,11.5,1.81-8.23,9.68-11.45,14.34-17.33,22.53-29.05,36.11-61.67,41.45-98.15,3.36-22.95,1.7-45.82,2-68.74,7.88-3.48,14.92.83,18,11,4.56,2.88,2.5,8.89,6,12.79.4.92,1-1.72,0-.59-2.49-2.55-2.39-6-3.15-9.14-.59-2.47,1.12-5.17-.83-7.47.07-4.59,3.49-3.46,6.22-3.74,7.54-.78,15.06-1.68,22.6-2.54,2.57,1.61,6.6.09,7.92,4.57,5.67,19.28,13.6,38,12.81,58.73-.26,6.63-1.83,11.5-9.62,11.54-10.74-.61-21.31-.05-31.69,3.31-20.88,6.78-32.54,27-34.06,45-1.85,21.79,12.76,49.81,32.34,54,1.76.37,3.38,1.44,5.06,2.18,7.1,5.33,7.59,12.26,4.72,19.91-3.88,10.33-8.07,20.51-14.33,29.7-7.58,9.31-11.44,21.18-20.23,29.66-3.48,6.74-10.56,9.92-15.23,15.48-.31.3-.62.62-.92.94C781.89,699.61,775.34,710,764,713.35Z"/><path class="cls-122" d="M890,388c-3.66-6.64.1-15.82-11.77-20.08-9.92-3.56-13.39-28.91-8.88-39.95a11.81,11.81,0,0,0,1-3.12c.57-5.79-6.78-22.66,9.37-6.61.13.13,2.63-2.11,4-3.25C900.28,336.11,903.16,369.94,890,388Z"/><path class="cls-123" d="M866.26,494.25c6.57-4.3,9.25-19.2,5.44-30.5-4.18-12.4-6.9-25.23-11.05-37.67-1.31-3.93-4.19-4.14-5.5-6.67,9-1.59,14.08,3.62,18,10.64,5.95,10.55,10,21.85,13.25,33.46l8.25,33.89v8.93C885.26,500.83,876.13,496.59,866.26,494.25Z"/><path class="cls-124" d="M806.28,419.07c6.6,37.74,2.51,74.49-10,110.51-7.7,22.13-18.7,42.31-34.49,59.76a3.91,3.91,0,0,1-.28-4C792,544,806.58,497.6,804.43,446.08c-.31-7.5-.15-15-.2-22.52C804.91,422.07,805.6,420.57,806.28,419.07Z"/><path class="cls-125" d="M784.46,350.47c3.72-5.45,7.12-11.07,12.93-14.78,13.19-8.4,29.34-3.06,35.76,12-22.94-16-33.68-14.68-46.6,5.52Z"/><path class="cls-126" d="M826.33,425.69c3.73,5.44,2.77,11.77,4.08,19.12-4.43-5-4.6-10.14-6.17-14.71C826.33,429.29,825.8,427.23,826.33,425.69Z"/><path class="cls-127" d="M825.81,648.61c4.59-9.93,9.45-19.74,13.67-29.82,2.82-6.72,6-14-4.17-18.26-1-.43,1.62-1.27,2.6-1.87,17.05,1.21,29.36-6.07,37.46-20.9.82-5,2.07-9.87.34-15.18-4.51-13.84-11.91-17.54-26.24-12.4-1.35.61.51,1.71-.34.5-.14-.2.17-.33.75-.68,5.66-3.34,11.34-2.74,16.83.2,7.77,4.16,10.93,13.87,7.85,23.37-10,16-21.27,21.9-36.31,19.09-17.32-3.23-28.32-15.61-32.39-36-7.77-38.85,24.56-63,61.71-56.42,10.55,1.86,20.09,7.08,29.39,12.4l11.33,10.88c3.71,7.08,10.65,11.9,13.56,19.52-2.35,2.73-3.34,5.15-3.06,9.47,1.8,27.49-4.1,53.11-20.75,75.75-4.33,5.89-7.72,12.48-11.51,18.76-8,13.3-17.78,24.05-35.12,22.91-6.68-.44-8.67,7.5-14.85,8.27-1.68-4.47,2.53-7.14,1.93-13.65-12.16,12-24.51,21-39.62,25.19.69-5.49,6.62-7.37,8.35-12.15C815.69,669.41,820.81,659,825.81,648.61Z"/><path class="cls-128" d="M874.56,573.57c.53-6-.36-11.77-3.9-16.77-6.47-9.14-17.66-8.52-26.94,2.06-1.74-7,3.06-9.82,7-12,5.35-3,11.25-2.81,16.71.58,10.45,6.49,13.42,17.94,7.91,30.36Z"/><path class="cls-33" d="M205,95.07l-5.25-19.48c-5.69-5.5-3.25-13.82-7-19.14.53,4.06,4.94,8.74.95,14-13.95,12.19-15.35,29.71-17.4,46a384.35,384.35,0,0,0-3.06,49.41c.07,17.82,4.6,34.73,7.47,52,.4,2.42,2.78,4.93.27,7.12s-4.72.06-6.83-1.41c-3-2.11-6.16-4.09-10.11-3.83l-8.41-13.54L141,161.52c-3.38-21.28-3.49-42.72-3.12-64.19,3-8,2.9-17.28,10.88-24.76,1.65,11.77-2.83,22.38.32,33,4.75-15.7,5-32,6.46-48.19,6.1-16,9-33.34,20.05-47.32,6.82-8.64,8.52-8.73,15.53.12C214.72,40,222.77,76,231.09,111.85c1.07,4.63,1.71,9.37,2.55,14.06-.15,2.92-.29,5.83-.49,9.83a58.53,58.53,0,0,1-16.9-24.94C214,104.27,210.72,98.92,205,95.07Z"/><path class="cls-129" d="M553.18,70.72l13.5-11c18.79-13.5,38.46-25.49,60.59-32.64,13.22-4.27,19,.66,17.55,14.18-.56,5.45-1.66,10.84-2.51,16.25l-.73-.38c-11.34-10.54-13.87-10.68-29.25-2-8,4.47-15.15,10.36-24.07,13A224.25,224.25,0,0,0,557.61,99a21.93,21.93,0,0,1-1.81,2.46c-12.86,12.92-25.33,26.18-35.09,41.71-9.32,11.3-13.13,25-17,38.7-3,6.47-4.53,13.36-5.78,20.32a12.19,12.19,0,0,1-3.1,5.81c-7.2,5.9-9.48,14.68-13.34,22.57-4.47,9.13-7.75,9.54-16.22,1.68-.58,7.69.31,14.78-.58,21.72-.4,3.14.89,9-6.05,6.77-3.69-12.61-4.5-25.19-1.19-38.09,2.74-10.65,2.42-21.9,6.05-32.46,1.47-4.26,2.63-8.46,6.85-10.88C491.14,137.91,520.07,102.72,553.18,70.72Z"/><path class="cls-130" d="M457.92,204.17c-.51-8.83-6.68-14.19-12.17-20-3.11-3.3-8.78-6.89.69-9.45,4.47-1.21,4.82-5,4.73-8.8,6,2.72,10.92,6.86,15.61,11.35A38.87,38.87,0,0,1,457.92,204.17Z"/><path class="cls-131" d="M457.92,204.17c2.82-9,7.68-17.36,8.86-26.91l3.61,2.07C461.15,206,454.68,233,460,261.54a1.47,1.47,0,0,1-.54,2.31l-2.25,0c-5.51-16.92-4.05-34-1.07-51.08C456.68,209.92,457.33,207.05,457.92,204.17Z"/><path class="cls-132" d="M459.5,263.85l.54-2.31c4.56-7.5,1-15.73,2.11-23.55.6-4.19-1.2-8.67,1.32-12.64.9.14,1.86,0,2.14.39,2.65,3.58,2.12,10.87,8.09,10.27,5.33-.54,4.92-7.34,7.13-11.35,3.62-6.56,4.72-15,12.8-18.46,3,9.73-2.09,18.41-3.59,27.53a157,157,0,0,0-1.49,21.12A145.52,145.52,0,0,1,490,234.44c2.93-9.78,4.12-19.94,6.6-29.81,1.64-7.12,2.36-14.5,5.77-21.13,4.23-13.65,7.59-27.66,16.31-39.44,4.15-4.74,6.16-11.23,11.94-14.64,9.46,2.29,10.31,8.36,6.67,16a197.79,197.79,0,0,0-12.69,33.12c3.22-2.25,4.32-6,6.48-9,3.89-5.35,8.53-8.57,14.91-3.92,4.78,3.49,8,1.3,11.56-2,6.82-6.32,12-14,18.23-20.83,7.47-8.27,13-8.25,22.27-.17-1.61,7.21-7.07,12.72-8.69,20-.87,3.88-1.67,7,2.87,9.16S597.89,178,596,182c-7.61,15.81-4.6,32.15-3.1,48.46l-19.62,27.14c-3.72.76-4.18,3.34-4.19,6.63,0,5.15,0,10.4-.89,15.43-6.44,35.48-47.4,49.5-78,27.41C474.83,295.94,466.78,280.33,459.5,263.85Z"/><path class="cls-49" d="M532.94,341.48c-5.91.12-10.31,2.35-13.69,7.6-7,10.87-16.76,19.4-25.58,28.76-10.81,11.47-26.35,11.43-39.48,17.23-.38-1-.76-2-1.15-3-2-1.88-2.44-4.38-2.65-7,0-6.83-.57-13.68.61-20.48a214.43,214.43,0,0,0,15-60.55c.4-3.87.8-8.7,7.12-6.83C488.74,311.76,505,324.77,528.34,322c4.87-.59,6.71,1.57,6,6.42C533.67,332.71,533.39,337.11,532.94,341.48Z"/><path class="cls-133" d="M473.15,297.28c-8.51,4.13-5.08,13-5.77,18.93a153.93,153.93,0,0,1-13.81,47.44c-3.55-3.16-4.47-6.84-2.18-11.14,5-18.66,9.67-37.38,10.87-56.78.24-4,1.36-7.91,2.07-11.87Z"/><path class="cls-134" d="M557.93,360.92c-.91.47.32,4.61-2.52,1.64-6.08-6.35-7.73-15.94-15.38-21.18l-.12-19.59c2.16-.9,3.08,1.27,4.64,1.86C551.53,335.17,556.38,347.45,557.93,360.92Z"/><path class="cls-33" d="M592.87,230.42c-6.36-11.77-5.78-24.27-3.42-36.79.88-4.66,2.91-9.12,4.56-13.61,1.27-3.46.45-6.9-3.23-6.32-9.78,1.55-6.28-3.88-5.06-8.39,2.33-8.6,5.23-16.92,11.91-23.3.07-.5.14-1,.2-1.5,2.66-4.89,5.37-9.73,10.64-12.36,5-5,8.55-10.89,11.64-17.19,1.35-2.74,2.16-7.26,6.07-6.83,4.5.49,4.65,5,5,8.65a87.28,87.28,0,0,0,1.43,22.75,1.47,1.47,0,0,0,.27,1.42c-4.82,16.35-6.31,33.44-13.91,49.26C611.5,201.79,602,215.91,592.87,230.42Z"/><path class="cls-135" d="M597.63,142c-12.33-6.23-20.13-.08-26.13,9.94-2.93,4.89-7.26,8.31-11,12.39-5,5.53-9.89,12.08-17.1,2.23-2-2.79-5-1.26-6.86.34s-3.14,4-4.56,6.08c-3,4.37-4.75,13.68-9.65,11.35-5.31-2.52-.44-10.52,1.91-15.28,4.23-8.58,6-18.18,11.52-26.22,4.14-6-.11-9.45-5-12.25,2.94-8.88,9.69-14.9,16-21.27,3.07-3.12,6.45-6,8.61-9.89l-.14.16c9.38-12.1,22.07-21.1,31.28-33.37,11.73-6.23,23.05-13.47,35.3-18.43,14.27-5.79,15.32-4.59,19.74,9.33-8.63,24.62-23.09,46.24-35.42,69-1.17,6.11-5.52,10.48-8.56,15.57Z"/><path class="cls-136" d="M597.6,141.65c.6-6.43,5.15-10.69,8.56-15.57l2.31,2.07C605.74,133.37,602.75,138.37,597.6,141.65Z"/><path class="cls-137" d="M444.86,340.86q1,8,1.94,16c4.56,11.11,4.24,21.85-1.87,32.43-6,10.37-14.49,18.27-23.81,25.46-2.3,1.78-4.64,4.2-7.1.15-2.21-4.91.25-9.61.63-14.41,2.61-17.41.37-34.52-3.21-51.54a19.11,19.11,0,0,1-.52-7.1c.47-2.12,1-4.9,3.35-5,9.36-.49,17.81-5.74,27.36-5C444.77,334.1,445.66,337.18,444.86,340.86Z"/><path class="cls-138" d="M209,334.88c9.45,10.66,17.36,22.76,32,32.7-10-2.69-9.73.53-8.32,6.25a204.51,204.51,0,0,1,5.6,40.26c.14,3.12,1.68,7.1-1.73,9.15-4.08,2.44-6.85-1.22-9.48-3.54-3.26-2.87-6.13-6.17-9.17-9.28-13.2-13.37-13.66-31.08-16.22-48a56.86,56.86,0,0,1,.07-13.23c.74-4.82,1.52-9.63,4.06-13.92A2.11,2.11,0,0,1,209,334.88Z"/><path class="cls-139" d="M413.2,341.67c.18,1.87.35,3.74.53,5.61.47,2.07,1.33,4.21-1.09,5.74-4.09-.14-5.87-4-9.12-5.57-3-2.34-2.32-6-3.33-9.07-.92-2.81-.41-8-5.47-6-4.63,1.84-9.76,4.61-10,10.65-.21,4.66,2.59,7.51,7.5,7.71,3.56.15,7.08-2.62,10.69-.18a5.4,5.4,0,0,1,.16,4.77c-3.77,5.29-9,6.14-15,5-6.16-.46-7,3.83-7.3,8.39a62.34,62.34,0,0,0,3.06,24.47,61.36,61.36,0,0,0,8.29,15.46c5.5,7.51,11.48,9.62,19.1,3.17a3,3,0,0,1,3.11,3,10.28,10.28,0,0,1-2.24,6.3c-3.91,5.08-9.16,3.65-14.27,2.91-16-9.68-18.6-27-24.3-42.61-5.8-9.09-1.71-19.17-3.31-28.78-2.72.48-4.55,4.21-8.16,3.57l-15.26,12c-2,.49-2.9-.27-2.54-2.36,21.29-18,41.79-37,64.54-53.27,2.06-.82,2.8.46,3.34,2.07C405.69,323.93,412.38,332.69,413.2,341.67Z"/><path class="cls-109" d="M204.42,348.22c.28,21.65,3.44,42.68,13.55,62.2-7.29-2.79-13.87-9.67-18-18-1.42-2.89-1-6.62-4-8.75-8.75-15.61-8.82-32.7-8.48-49.86.89-2.1,0-5,2.69-6.32,3.86-.63,5.24,2.05,5.65,4.94C196.74,338.83,200.7,343.42,204.42,348.22Z"/><path class="cls-140" d="M397.83,424.08c5.31.89,9.95-.07,13.32-4.68,3.72-.36,7.43-3.79,11.15,0-2.24,19.6-20.69,26.43-31.18,39.52-5.81,1.65-11.65,3.14-17.78,2.52,9.26-7.43,18.54-14.82,27.75-22.32a44.29,44.29,0,0,0,5.44-5.43c1.57-1.82,4.71-3.23,3.3-6.25-1.1-2.33-3.84-1.43-5.94-1.48S399.45,426,397.83,424.08Z"/><path class="cls-141" d="M422.3,419.4c-3.72-1.78-7.43,3.91-11.15,0l2.41-4.68c.31-.91.85-1.13,1.66-.57,22.32-11.55,31-27.29,31.58-57.3a12.34,12.34,0,0,0,1.6.14c4.14,3.7,2.11,8.65,2.65,13.07.27,12.4.7,24.83-6.76,35.76C437.59,411.38,430.51,416.3,422.3,419.4Z"/><path class="cls-142" d="M206.58,418.69c-.05,2.87-2.35,4.59-6.22,4.78-6.72.33-15.65-7.69-15.73-14.12-.06-4.74,1.71-7.84,6.94-7.77S206.49,412.08,206.58,418.69Z"/><path class="cls-143" d="M411,314.57l-2.22-2L436,288.82c-3.68,7.31-1.9,12.93,1.09,20.06,4.19,10,11.78,19.79,7.73,32-.92-2.73-1.85-5.46-2.77-8.2-5.13-4.24-6.23-10.59-8.54-16.31-4.38-10.87-5.84-11.24-15-4.29C416.4,313.7,414.5,316.65,411,314.57Z"/><path class="cls-103" d="M362.06,356.26c1.52-1.53,3-3.08,4.56-4.58s3.18-3,6.91-6.42v36.21C364.32,375.52,361.94,366.46,362.06,356.26Z"/><path class="cls-144" d="M190.57,327.74c-.58,1.6-1.17,3.19-1.76,4.79a1.4,1.4,0,0,1-2.2.08c-1.66-10.13,6.66-20.71-1.46-30.95A147.88,147.88,0,0,1,209,334.88h-2.25c-4.75,1-6.35-2.93-8.19-5.78C196.18,325.38,193.68,325.61,190.57,327.74Z"/><path class="cls-145" d="M186.61,332.61a9.52,9.52,0,0,1,2.2-.08A155.23,155.23,0,0,0,196,383.67c-4.79-3.15-5.45-3.48-6.61-10C186.94,360.1,182.51,346.62,186.61,332.61Z"/><path class="cls-146" d="M298.05,468.3c-10.35,4.85-20.69,9.69-31.94,2.37C276.64,468.32,287,463.89,298.05,468.3Z"/><path class="cls-147" d="M344.26,365.87l2.54,2.36c-3.52,11.74-11.54,9.79-20,6.56,2.38-1.68-.39-5.53,2.88-6.84C333.68,361.14,339.87,369.79,344.26,365.87Z"/><path class="cls-148" d="M449.27,370.36,448.4,357c1.59-1.1-2.12-5.72,3-4.48q1.08,5.57,2.18,11.14c-1.36,7.23,2.36,14.66-.93,21.81C446.91,381.46,452,375,449.27,370.36Z"/><path class="cls-149" d="M251.45,374.73c-7.6-5.55-7-12.16-6.63-18.69C249.39,360.76,249.53,367.11,251.45,374.73Z"/><path class="cls-150" d="M329.7,368c1.07,3.14,5.38,7.65-2.88,6.84-2.55-5.08-3.18-10.44-2.3-17.05C327.71,361,325.9,366.07,329.7,368Z"/><path class="cls-151" d="M284.11,454.51c2.51-7.28,4.45-10.89,9.28-11.8.41-.08,1.5.91,1.45,1.28C294.08,448.83,290,450.38,284.11,454.51Z"/><path class="cls-152" d="M761.48,585.38c.09,1.32.19,2.64.28,4l-13.28,14c-1.58-.22-3.1,2.72-4.71.07Q752.62,594.38,761.48,585.38Z"/><path class="cls-153" d="M764,713.35c9.48-6.07,16.91-15.15,27.9-19-7.89,9.15-17.51,16.08-28,21.91C764,715.29,764,714.32,764,713.35Z"/><path class="cls-154" d="M808,678.68l-9.15,11.09-6,3.64c1.72-7.79,9.07-11,13.45-16.67A2.62,2.62,0,0,1,808,678.68Z"/><path class="cls-155" d="M445.42,428c-2-.19-7.27,1.48-8.8-3.29s2.32-8.46,6-10.81c7.38-4.75,15-9.16,24.48-8.14,3,.33,6.05.33,7.56,3.39,1.85,3.75-.76,6.14-3.06,8.56C464.93,424.6,457.13,428.77,445.42,428Z"/><path class="cls-156" d="M449.27,370.36c4.05,4.38-.55,10.69,3.37,15.1.14,2.21.27,4.43.4,6.64-3.47,4.22-1,12.24-8.75,13.72A111.23,111.23,0,0,0,449.27,370.36Z"/><path class="cls-157" d="M451.28,453.35c-2.33,5.2-2.27,13.59-9.06,14.66-5.52.87-13.49-5.67-12.45-9.7,1.72-6.67,11.26-5.34,17.26-8C449.24,449.36,451.45,449.58,451.28,453.35Z"/><path class="cls-158" d="M659.72,845.34c-2.27,2.83-5.35,4.06-8.85,4.46-11.39,5.85-21.38,1.84-31.06-4.41,4.26-15.09-4.6-26.66-10.68-38.86-2.55-5.09-6.45-5.44-8.11.71s-4.55,10-11.29,11.84c-5.76,1.53-4.88,7.6-4.39,12.31.59,5.75,4,9.37,9.74,10.54,5.1,1,10.32.19,15.43.78,3.51.41,8.6-1.27,9,5-10.75,5.35-21.95,3.26-33.09,2.08h0c-10.16-10-7.59-22.69-5.6-34.28a73.21,73.21,0,0,1,14.7-32.94c2.94-3.73,5.8-6.49,10.94-6s4.48,5.22,6.07,8.19,2.24,6.25,3.75,9.17c5,9.78,12.54,12,21.57,5.68,6.83-4.81,12.52-6.28,19.57-.36,5.11,4.3,15.48,2.25,17,10.39,1.74,9.23-3.15,17.83-7.73,25.85C664.75,839,662.08,842.07,659.72,845.34Z"/><path class="cls-98" d="M619.76,845.32c2.11-.25,5.44-1.49,6.17-.61,7.05,8.61,16.13,6,24.94,5.09-21.47,9.09-42.94,9.19-64.41,0,10.9-2.92,22.56-.25,33.29-4.47Z"/><path class="cls-159" d="M193.75,70.41c-1-6.09-2-12.17-3.4-21.06,6.55,9.52,6.93,18.27,9.42,26.24l-2.15,4.21Z"/><path class="cls-160" d="M808,678.68c-.58-.64-1.16-1.29-1.73-1.94q9.75-14.07,19.52-28.13C824.41,661.31,816.53,670.18,808,678.68Z"/><path class="cls-161" d="M555.4,99.43c-5.61,12.43-17.78,19.68-24.59,31.16l-10.88,13.53a1.76,1.76,0,0,1-.26-2.88C529.28,125.34,540.55,110.85,555.4,99.43Z"/><path class="cls-162" d="M519.67,141.24c.08,1,.17,1.92.26,2.88-7.37,12.36-11.2,26.15-16.09,39.52-2.25.39-2.93-.58-2.32-2.67C505.15,166.62,508.61,152.2,519.67,141.24Z"/><path class="cls-161" d="M586.54,66.22c-7.57,13.8-19,23.94-31.28,33.37C563.1,86,574.76,76.07,586.54,66.22Z"/><path class="cls-163" d="M489.09,235q2.28-14.4,4.54-28.8l2-4.39c2.17-.52,3.2.1,2.46,2.48-1.94,10.32-2.7,20.91-7.08,30.67C490.4,235.94,489.76,236,489.09,235Z"/><path class="cls-164" d="M498.1,204.29l-2.46-2.48A50.21,50.21,0,0,1,501.52,181l2.32,2.67Q501,194,498.1,204.29Z"/><path class="cls-8" d="M489.09,235a13.79,13.79,0,0,0,1.93,0c-1.06,9.06.54,18.52-4.23,27.07C485.6,252.86,485.85,243.81,489.09,235Z"/><path class="cls-165" d="M411,314.57a23.55,23.55,0,0,0,2.74-1.8c15.45-13.57,15.54-13.61,23.56,6.5,1.75,4.38,4.91,8.32,4.77,13.39-8.82,1.92-16.85,7.31-26.47,5.94-.65-.09-1.6,2-2.42,3.07-1.47-3.3-2.37-7-4.51-9.81C403.43,325.05,404.65,319.58,411,314.57Z"/><path class="cls-166" d="M415.22,414.15c-.56.17-1.12.36-1.66.57-.82-.75-1.64-1.5-2.47-2.24-1.32-4.49-3.34-6.68-8.67-4.56-3.19,1.27-7.47.81-9.52-2.91-1.82-3.29-.13-6.2,2.4-8.6,7.57-.94,9.9-6,10.61-12.8,1-9.94-1-19.39-3.58-28.83,0-1.64-.07-3.29-.11-4.93a2.77,2.77,0,0,1,1.9-3.46c4.44-.57,6.18,2.31,7.44,5.8,6.81,12.47,4.67,26.23,5.54,39.52.21,3.19-1,6.49.34,9.7Z"/><path class="cls-167" d="M417.44,401.41c-4-12.92-.08-26.67-4.16-39.61-1-3.08-1.17-6.39-1.72-9.6q1.08-2.46,2.17-4.92C419.44,365,420.07,383.1,417.44,401.41Z"/><path class="cls-168" d="M222.71,387.92c3.32,5.62,5.17,12,10.42,16.67,3.38,3,4.57,8.73.74,11.7-3.31,2.57-6.78-1.57-9-4.4a54.29,54.29,0,0,1-11.29-26C216.22,382,217.14,382.15,222.71,387.92Z"/><path class="cls-169" d="M190.57,327.74c.46-2.75.28-5.71,2.58-8.26,6.81,3.15,7.82,11.47,13.62,15.4-.08,4.57-.29,9.12-2.35,13.34-7.09-2-10.92-6.47-10.91-14C193.51,331.65,193.13,329.2,190.57,327.74Z"/><path class="cls-170" d="M209.85,340.41c5.57,8.33,12.51,12.26,13,20.47.17,3.05-.17,6.27-3.58,7.33-3,.93-4.66-1.76-6.21-3.72C208,358.11,209,350.73,209.85,340.41Z"/><path class="cls-171" d="M222.71,387.92c-3.18-.07-5.36-4.63-9.13-2-2.25-1.82-2.08-4.4-2.16-6.91-.09-3,0-5.84,4.18-6,3.21-.12,4.35,1.51,4.81,4.45C221,381,221.92,384.43,222.71,387.92Z"/><path class="cls-172" d="M402.33,354.78c7,8.17,9.07,32.08,3.79,40.57-3,4.87-6.5,3.66-10.3,1.35-5.67-1.76-7.35-7.06-10.11-11.42-2.36-9.68-4.7-19.37,2.86-28C393.89,360.53,397.93,356.67,402.33,354.78Z"/><path class="cls-173" d="M388.75,386q3.53,5.36,7.07,10.69c.4,2.93-4.16,6.67.11,8.59,6.08,2.74,11.44-.82,17.32-6.07-.93,5.72-1.54,9.49-2.16,13.26-7.5,10.7-8.91,10.81-17.74,1.78-5.41-5.53-9.71-11.65-11.16-19.43C380.88,389.3,379.84,384,388.75,386Z"/><path class="cls-174" d="M404.12,346.39l-1.9,3.46a82.4,82.4,0,0,1-9.17,3.41c-4.92,1.23-8.45-1.15-10.62-5.42-1.93-3.82-2.72-7.66,1.39-10.87,4.61-3.59,9.13-7.3,14.42-11.54C402.61,332.26,403,339.43,404.12,346.39Z"/><path class="cls-175" d="M388.75,386c-6.05.08-6.54,4.27-6.56,8.82-5.61-9.6-4.24-20.29-4.41-30.63-.11-7.09,5.22-7.66,10.79-7C386.42,366.85,385.35,376.44,388.75,386Z"/><path class="cls-108" d="M619.75,845.32c-7.36,0-14.73,0-22.09,0-6.34,0-11.59-2.07-14.2-8.4-2.87-7-2-19,1.33-19.38,12.24-1.3,12-11,16.61-17.83,2.84-4.19,6.67-1.43,8.68,2.16,5.77,10.27,10.18,21.15,14.41,32.14,2.28,5.91-3.55,7.42-4.73,11.32Z"/></g></g></svg>