<svg xmlns="http://www.w3.org/2000/svg" viewBox="0 0 883.79 958.7"><defs><style>.cls-1{fill:#8da8ce;}.cls-2{fill:#191310;}.cls-3{fill:#1b1b1f;}.cls-4{fill:#2a2625;}.cls-5{fill:#1e1e20;}.cls-6{fill:#1a1a1d;}.cls-7{fill:#24252b;}.cls-8{fill:#252221;}.cls-9{fill:#282b31;}.cls-10{fill:#433d39;}.cls-11{fill:#333337;}.cls-12{fill:#1d1c1e;}.cls-13{fill:#2c2c2f;}.cls-14{fill:#151619;}.cls-15{fill:#3f3e3d;}.cls-16{fill:#2d2521;}.cls-17{fill:#1c1a1c;}.cls-18{fill:#20222b;}.cls-19{fill:#3b3834;}.cls-20{fill:#262424;}.cls-21{fill:#34363b;}.cls-22{fill:#2f2924;}.cls-23{fill:#3d3b3a;}.cls-24{fill:#41403f;}.cls-25{fill:#262b34;}.cls-26{fill:#595757;}.cls-27{fill:#303033;}.cls-28{fill:#35373d;}.cls-29{fill:#4a4848;}.cls-30{fill:#3d3d40;}.cls-31{fill:#4c4742;}.cls-32{fill:#353840;}.cls-33{fill:#3f444e;}.cls-34{fill:#26272b;}.cls-35{fill:#525150;}.cls-36{fill:#484d55;}.cls-37{fill:#181719;}.cls-38{fill:#494541;}.cls-39{fill:#444343;}.cls-40{fill:#505359;}.cls-41{fill:#706d6d;}.cls-42{fill:#2e3036;}.cls-43{fill:#4b4949;}.cls-44{fill:#3e4148;}.cls-45{fill:#525152;}.cls-46{fill:#423e3b;}.cls-47{fill:#342f2a;}.cls-48{fill:#605e5f;}.cls-49{fill:#4e4842;}.cls-50{fill:#494a4e;}.cls-51{fill:#e3d0b3;}.cls-52{fill:#f6f6f5;}.cls-53{fill:#2b2a2a;}.cls-54{fill:#c6b39a;}.cls-55{fill:#212123;}.cls-56{fill:#aabdd9;}.cls-57{fill:#efdcbd;}.cls-58{fill:#14100e;}.cls-59{fill:#d9d6d4;}.cls-60{fill:#6b88b1;}.cls-61{fill:#0e090a;}.cls-62{fill:#6d89b1;}.cls-63{fill:#242225;}.cls-64{fill:#6d8ab3;}.cls-65{fill:#718db6;}.cls-66{fill:#202125;}.cls-67{fill:#735e50;}.cls-68{fill:#695649;}.cls-69{fill:#725e50;}.cls-70{fill:#cacbd8;}.cls-71{fill:#6c584b;}.cls-72{fill:#efeef2;}.cls-73{fill:#6e8db4;}.cls-74{fill:#191412;}.cls-75{fill:#91afd3;}.cls-76{fill:#725d4f;}.cls-77{fill:#1b1c20;}.cls-78{fill:#2f2827;}.cls-79{fill:#556f96;}.cls-80{fill:#6b88b0;}.cls-81{fill:#6d8bb3;}.cls-82{fill:#c6c5c8;}.cls-83{fill:#5c769e;}.cls-84{fill:#c8c7c9;}.cls-85{fill:#f0eff0;}.cls-86{fill:#cdcbcd;}.cls-87{fill:#4f6182;}.cls-88{fill:#edebec;}.cls-89{fill:#f3f2f2;}.cls-90{fill:#292e3b;}.cls-91{fill:#577198;}.cls-92{fill:#88a5ca;}.cls-93{fill:#6b89af;}.cls-94{fill:#e8e7e6;}.cls-95{fill:#fefefd;}.cls-96{fill:#617291;}.cls-97{fill:#c6b49a;}.cls-98{fill:#6c89b1;}.cls-99{fill:#383230;}.cls-100{fill:#33343c;}.cls-101{fill:#cfd0dc;}.cls-102{fill:#6e8db5;}.cls-103{fill:#8ea9ce;}.cls-104{fill:#7c8294;}.cls-105{fill:#c9c6c4;}.cls-106{fill:#b3c4dd;}.cls-107{fill:#91add2;}.cls-108{fill:#3a3f4b;}.cls-109{fill:#3c3a41;}.cls-110{fill:#494545;}.cls-111{fill:#363d4d;}.cls-112{fill:#dddde5;}.cls-113{fill:#d3d4df;}.cls-114{fill:#7e9ac0;}.cls-115{fill:#edd9ba;}.cls-116{fill:#373a43;}.cls-117{fill:#302a27;}.cls-118{fill:#e5e5ec;}.cls-119{fill:#93806e;}.cls-120{fill:#dbd9d7;}.cls-121{fill:#cbc8c5;}.cls-122{fill:#f6f5f5;}.cls-123{fill:#645144;}.cls-124{fill:#7a6454;}.cls-125{fill:#637695;}.cls-126{fill:#efeeef;}.cls-127{fill:#c1af9c;}.cls-128{fill:#ced0dc;}.cls-129{fill:#cec0b1;}.cls-130{fill:#b3a08e;}.cls-131{fill:#f2f2f4;}.cls-132{fill:#a58c74;}.cls-133{fill:#292321;}.cls-134{fill:#d8d6d6;}.cls-135{fill:#cecccc;}.cls-136{fill:#efedee;}.cls-137{fill:#b7b6bd;}.cls-138{fill:#86a2c8;}.cls-139{fill:#8ea9cf;}.cls-140{fill:#cccbce;}.cls-141{fill:#323137;}.cls-142{fill:#383a42;}.cls-143{fill:#b8a48d;}.cls-144{fill:#6e5a4b;}.cls-145{fill:#463a31;}.cls-146{fill:#efdbbb;}.cls-147{fill:#13100f;}.cls-148{fill:#b4a38b;}.cls-149{fill:#7392bd;}.cls-150{fill:#3a383b;}.cls-151{fill:#6e8ab1;}.cls-152{fill:#181a20;}.cls-153{fill:#4c4846;}.cls-154{fill:#3b4559;}.cls-155{fill:#ccd5e5;}.cls-156{fill:#f4f5f6;}.cls-157{fill:#796757;}.cls-158{fill:#9b8671;}.cls-159{fill:#e5e0dc;}.cls-160{fill:#957c66;}.cls-161{fill:#241d18;}.cls-162{fill:#342822;}.cls-163{fill:#302927;}.cls-164{fill:#7d6756;}.cls-165{fill:#84705f;}.cls-166{fill:#2d2827;}.cls-167{fill:#443a38;}.cls-168{fill:#352d2b;}.cls-169{fill:#2d2725;}.cls-170{fill:#6b574b;}.cls-171{fill:#c8cad7;}.cls-172{fill:#735e4f;}.cls-173{fill:#846c59;}.cls-174{fill:#595760;}.cls-175{fill:#ebeaef;}.cls-176{fill:#535058;}.cls-177{fill:#8a8992;}.cls-178{fill:#667a98;}.cls-179{fill:#4c586c;}.cls-180{fill:#bbb;}.cls-181{fill:#38363b;}.cls-182{fill:#171313;}.cls-183{fill:#dbd8d6;}.cls-184{fill:#9b8069;}.cls-185{fill:#19120f;}.cls-186{fill:#735f51;}.cls-187{fill:#af987f;}.cls-188{fill:#42362e;}.cls-189{fill:#aabfdb;}.cls-190{fill:#a79079;}.cls-191{fill:#a68e77;}.cls-192{fill:#504c4a;}.cls-193{fill:#4c4238;}.cls-194{fill:#9a8068;}.cls-195{fill:#b7a48d;}.cls-196{fill:#a89178;}.cls-197{fill:#c8b6a6;}.cls-198{fill:#3d312a;}.cls-199{fill:#3b302a;}</style></defs><title>Recurso 29</title><g id="Capa_2" data-name="Capa 2"><g id="Capa_1-2" data-name="Capa 1"><path class="cls-1" d="M444.84,113.66c-.82-2.92-1.63-5.84-2.45-8.77-.29-11.69-7.22-21.2-10.74-31.84-2.77-8.38-5.23-16.79-7.66-25.26-2.84-9.94,1.38-13.1,9.94-15.43,11-3,22.18-5.31,33.4-7.4,13.78-3.64,28.18-.31,41.95-3.79C516.1,34.29,527.7,36.41,541,35.28a260,260,0,0,0,35.88-5.2c.86-7.22-9.14-8-7.85-14.86,2.93-2.25,6.24-2.08,9.61-1.55,5.05.92,9.73,3.45,15,3.45,1.47.19.27-2.56.19-1.08,0,.27-.18.3-.41.36-3.8,1-6.37-.08-7.32-4.12a4.09,4.09,0,0,1,2-2.47,17.48,17.48,0,0,1,3.26-.74c8.46-2.92,16.44-7.74,25.93-6.46,12.33,3.39,23.07,9.72,32.76,17.9,4.73,4,8.2,8.67,4.38,15.28a3.13,3.13,0,0,1-3.23.26c-10.94-10.19-18.4-10.89-29.23.84C612.63,47,602.71,48,590.06,46.84,577,45.64,563.63,47.3,550.5,49c-8.58,8-6.56,18.79-7,28.59-.21,4.61,4.4,2,6.81,1.11,16.58-6.19,33.25-12.14,49.85-18.26A43.35,43.35,0,0,1,607.49,58a53.3,53.3,0,0,0,13.2-3.28,22.52,22.52,0,0,1,2.89-.91c6.22-2.19,12.91-1.33,19.21-3.08,5.12-2.3,10.26-4.5,16.09-3.82,15.1-1.23,29.51-7.17,44.87-6.53,6.84,1,13.25,2.53,14.66,10.84-27.91-.67-46.35,15-61.82,35.8a16.22,16.22,0,0,1-2.85,3.39c-25.07,18.78-50.66,36.37-84.48,31.34-7.4-1.1-14.79.2-22.1-.82-7.3,11-20.83,11.74-30.57,18.74a18.32,18.32,0,0,1-4.24,2.57c-4.82,1.72-9.93,2.69-14.36,5.4-13.15,8.06-26.49,15.51-42.67,14.81-1.47.21.4.09-1.07.25-20.64,2.21-20.64,2.21-13.17-16.93C443.79,135.25,449.11,125,444.84,113.66Z"/><path class="cls-2" d="M50.81,603l8.95-15.64c9,4.26,3.5,12.55,5.24,18.82.28,10.61-1.07,21.12-2.2,30.73-.1,2.4,2.45.43,1.07,1-.31.12-.45-.14-.46-.77a92.63,92.63,0,0,1,9.3-42.92c7.21-14.77,9.18-29.3,4.23-44.87.53-3.07.63-6.45,4.86-6.89,2.62,1.8,3.47,4.69,4.57,7.43,5.59,14,5.57,13.81,19.94,11.74,41.27-5.93,82.55-7.75,123.38,2.7,10.48,2.69,17.63,0,24.53-7.61,4.62-5.06,8.66-11.32,16.19-12.89a5,5,0,0,1,3.18,1.17,4.79,4.79,0,0,1-.13,4.75,28,28,0,0,1-3.07,3.64,34.71,34.71,0,0,1-3.4,3.24c-.75.75-1.54,1.46-2.32,2.19-.38.4-.77.76-1.15,1.16-13.45,9.61-14.9,22-10.63,37.25,13.47,48.15,26,96.57,38.21,145.06,2.63,10.43,4.92,11.38,15,8,7.72-2.62,15.18-5.92,22.76-8.92,3.75-1.48,8.28-4.44,11.61,1.16-.9,3.6-3.8,5.37-6.78,6.69-19.35,8.63-38.91,16.68-60,20.07a6.09,6.09,0,0,1-3.14-1.71,4.06,4.06,0,0,1,.4-3.49c13.61-9.41,13.14-9.3,9-26.53-12-49.62-26.45-98.59-38-148.29-2.27-9.79-7.58-14.14-16.94-16.24-40.33-9.09-80.62-8.88-121.08-.94-8.4,1.65-13.88,5.84-17.47,13.58-21.24,45.94-22.74,92-1.52,138.38,1.54,3.36,3.42,6.55,5.13,9.83,3.94,7.61,9,9.48,17.18,5.56,18.74-9,38.78-11.85,59.44-10.51,4,.26,8.28-.17,11.09,4-2.9,5.44-8.2,3.73-12.71,4.32a131.52,131.52,0,0,0-57.55,12.92c-11,5.22-13.89,4.29-21.28-5.56A108.42,108.42,0,0,1,68,705.89c-.7-2.2-2.5-3.8-3.33-5.94-1.83-7.12-1.9-14.64-4.79-21.53a535.8,535.8,0,0,1-5.41-66.71c0-2.05.91-4.49-1.8-5.73C51.28,605.5,50.15,604.83,50.81,603Z"/><path class="cls-3" d="M697.82,933.78c-12.24,10.82-26.7,7.84-40.75,6.17-8.74-1-17.3-3.59-26-4.85-8.46-1.22-15.92,3.78-24.31,4.57-28.91,2.72-57.91,5.08-86.44,11-3.48.73-7.32-.25-11-.44-2.23.75-3-.43-3.15-2.39,4.07-4.91,10.68-4.69,15.67-7.77,6.71-4.13,8.32-10.35,2.28-14.1-14.69-9.13-29.62-18.75-48.47-14.23-7.07,1.35-13.25,5.68-20.59,6.13a4.3,4.3,0,0,1-2.79-1.77c4.79-5.23.89-10.4-.65-15.16-4.12-12.76-9-25.27-13.53-37.89a4,4,0,0,1,3.39-.82c5.15,2,6.18,7.05,8.14,11.35C452.55,880.05,454,887,456,893.7c3.64,11.86,3.64,11.75,16.23,9.57,20-3.46,38.23,1.81,55,12.42,9,5.69,13.06,13.92,9.44,25.11,22.83-4.43,45.83-6.45,68.92-7.45,11.83-.51,19.9-6.86,26.24-16.27,7.9-11.73,10.24-25.42,13-38.72,5.5-25.93,4-52.2,1.72-78.41a74.27,74.27,0,0,1-.29-21.16c.89-2.47,1.43-5.35,5.15-4.76,4.84,7.5,4.82,16,5.16,24.49-1.64,10.57,2.7,20.75,2.12,31.23-.77,11.73.24,23.53-.84,35.38,10.23-13.74,19.08-28.23,24.72-44.51,3.26-9.75,7.48-19.23,8.33-29.67a12.41,12.41,0,0,1,1-3.24,7.6,7.6,0,0,1,2.34-2.51l1.64-.6c1.92.37,3.31,1.07,2.19,3.39-4.76,31.86-18.07,59.88-38.1,84.89-2.75,3.44-6.5,6.83,0,10.27a2.18,2.18,0,0,1,.07,2.81c-9.4,6-9.5,7.64-.31,13,11.48,6.68,22.35,14.09,31.29,24a17.79,17.79,0,0,1,1.64,2.33c.52.75,1,1.52,1.52,2.27.3.32.58.68.88,1,.69.58,1.34,1.19,2,1.8.32.33.61.67.91,1s.32.84.48,1.27Z"/><path class="cls-4" d="M81.63,543c-2.39,1.74-1.74,4.44-2.14,6.8-9.32-5.2-3.33-14.43-5.59-20.84-.16-2.11-1.93-.26-.54-.78.5-.2.78,0,.77.69a81.66,81.66,0,0,1-1.36,15.35c-3.24,17-6.55,33.93-5.66,51.41.23,4.43,1.1,9.87-4.84,12.18-1.77-6.68,2.11-14-2.51-20.38,2.06-37.57,11.64-73.56,22.79-109.23,1.15-3.67,4.4-8,.4-11.33-4.41-3.66-8.15.84-11.78,2.72-11.28,5.86-12.12,5.5-12-7,0-3.67-.37-7.8,1.1-10.92,3.82-8.1,5.13-14.92-2.94-21.57-3.45-2.84-2.51-6.79,2.83-7.87l.57.72-.79-.47c7.15-11,10.84-23.91,19.14-34.31,3.43-4.29,6.36-9,10.94-12.23a10,10,0,0,1,4.54-.83,4.49,4.49,0,0,1,2.06,2.24,5.73,5.73,0,0,1-1.23,5.82c-6.75.27-8.41,6.22-11.58,10.45-6,8-10.1,16.88-13.51,26.17-2.33,12-2.27,23.48,6.93,33.1,6.14,6.42,7.65,6,11.26-2,6.12-13.45,2-26.76.27-40.17,1-7.44-1-15.61,5.26-21.77a4.73,4.73,0,0,1,4.23,2.85c.58,11.52-1.34,23.24,2.63,34.51.1,4.56-.52,9.13.12,13.7-2.13,15.05-8,29.12-13.29,43.05-6.13,16.15-7.11,31.92-4.7,48.5C83.6,535.39,85.25,539.57,81.63,543Z"/><path class="cls-5" d="M319.7,876.06a302.28,302.28,0,0,1-76.23,5.25c-3.66-.2-6.06.14-8.38,3.41-22.13,31.06-54.32,46.54-89.23,58.51-40.71,14-82,14.47-123.91,8.57-.27-2.56,1.57-3.38,3.43-4.2,12.94-3.09,25.67,1.17,38.52,1.09,7.71-.05,15.48,1,23.14-.72,29.95-2.55,58.78-9.41,86.09-22.28,6.37-3,12.11-7,18.15-10.48,22.59-15.18,41.72-33.28,52.53-59.1,3.87-9.23,4.55-18.34,3.21-27.92a4.53,4.53,0,0,1,3-3.58,9.59,9.59,0,0,1,8.16,4.65,6.65,6.65,0,0,1,.25,3.13c-.81,10-2.2,19.77-6.92,28.91-6.1,11.82-5.89,11.93,7.24,13.39a384.91,384.91,0,0,0,52.44-3.36C314.54,872,318.91,870.83,319.7,876.06Z"/><path class="cls-6" d="M766.5,344.77l-20.17,3.76a248.22,248.22,0,0,1,45.09,39c6.49,7.07,9.69,16.56,17.56,22.43.9,2.35,1.48,4.81,2.5,7.12a24.75,24.75,0,0,1,2.39,10.84c-.36,2.77-.64,5.59-4,6.5-2.87-1.2-3.4-4-4.47-6.45-.84-2.44-1.54-4.94-2.62-7.3-10.89-27.44-31.32-46.58-54.95-62.87-2.41-1.67-5.4-5-7.9.2-1.12,1.89-2.27,3.73-5,2.5-4.12-5-9.51-4.54-15.1-3.6-13,2.2-25.87,5.37-39.05,6.53-9.74-2.39-14.7,2.16-17.93,11.06a282.77,282.77,0,0,0-8.78,28.38c-1,3.89-1.61,8-4.61,11-2,.86-3.18-.17-4.18-1.71a13.4,13.4,0,0,1-1.1-6.58A122.28,122.28,0,0,1,656.74,366c2.55-5,4.09-9.66-1-13.71-5.78-4.57-8.4-15.05-19.3-10.38-3,1.28-6.2,2.38-9.6,1.28a4.61,4.61,0,0,1-1.15-2.8c.29-1.9,1.23-3.76,2.91-4.28,8.24-2.58,10.37-8.79,10.33-16.48,1.06-1.52,2.36-2.28,4.2-1.34,4.81,5.22,7.28,11.9,10.85,17.87,8.78,14.63,21.35,19.05,37.59,16.53,17.11-2.66,33.91-6.83,50.94-9.86,9.25-1.67,18.26-5.25,27.94-3.4a1.94,1.94,0,0,1,.75,3l.25.57C769.9,343.94,768,343.79,766.5,344.77Z"/><path class="cls-7" d="M638.32,643.41c3.3,10.31,12.92,15.22,19.69,22.44a159.68,159.68,0,0,1,38,67.51c.69,2.24,1.4,4.5-1.59,5.71-3.8-1.09-4.52-4.5-5.57-7.58C684.22,717.86,677.34,705.33,670,693c-14.78-25.89-35.5-45-63.45-56-4.79-1.88-9.45-3.16-12.89,1.88-3.85,5.64,1.89,7.8,4.64,10.69a156.64,156.64,0,0,1,36.92,63.49,7.7,7.7,0,0,1-1,3.05,3.8,3.8,0,0,1-3,1,7.23,7.23,0,0,1-3.64-3.08c-6.47-15.31-13.55-30.33-23-44.07a68.07,68.07,0,0,0-7.55-9.54c-10.61-10.73-15.23-11.17-27.64-2.59-1.82,1.26-3.56,2.62-5.26,4.05-3.55,2.94-6.57,6.47-10.27,9.24-13.65,10.94-25.31,24.15-39.46,34.52a3.26,3.26,0,0,1-4-1.16c-.15-.44-.31-.91-.48-1.35,0-.47,0-1,0-1.41A7.54,7.54,0,0,1,511,699.2c.27-.34.56-.68.82-1a20,20,0,0,1,1.77-1.8c.28-.29.59-.56.88-.84.54-.56,1.13-1.09,1.71-1.62.27-.27.57-.53.84-.8.52-.55,1.08-1.07,1.64-1.59.26-.27.54-.53.81-.8.52-.56,1.07-1.09,1.62-1.63.27-.29.55-.55.82-.84.54-.61,1.11-1.17,1.69-1.74.3-.31.6-.58.9-.89a20.2,20.2,0,0,1,2-1.73c.72-.59,1.46-1.12,2.21-1.64,4.35-3.1,7.75-7.2,11.6-10.8,1.74-1.66,3.49-3.31,5.19-5a23.68,23.68,0,0,1,2.16-2,27,27,0,0,1,2.39-1.74c4.32-2.61,7.39-6.66,11.3-9.74a26.94,26.94,0,0,1,2.49-1.73c12.88-7.31,24.31-16,29.28-30.83,1.68-.56,3,.18,4.15,1.24,6.9,7.17,16.92,7.78,25.25,11.94,4.55,2.75,9,5.75,14,7.59A4.3,4.3,0,0,1,638.32,643.41Z"/><path class="cls-8" d="M157.57,193.73c10.08,10.7,17.69,23.24,26.1,35.17,3.05,4.33,4.77,9.95,11.09,10.95l1.13,1.1c0,4.34-3.18,6.43-6.11,8.58-19.39,14.2-36.5,30.68-50.57,50.23-10.74,15.45-21.64,30.8-29,48.27-5.86,8.58-7.17,19.09-12,28.1a2.36,2.36,0,0,1-3,0l0,0c-.85-.91-2.31-1.15-2.76-2.5,7.9-24.29,19.68-46.59,34.41-67.39,1.5-2.11,3.84-4.41.28-6.31-17.26-9.2-24.53-26.86-35.32-41.49-4.14-5.61-7-12.17-11-17.86-7.74-10.88-3.57-21,1.27-31.17,2-.5,2.86.74,3.48,2.32-4.84,16.1,1.34,29.17,10.49,42.06,8.13,11.46,16.19,22.95,25.19,33.74,6.54,7.84,8.92,7.6,16.36-.58.95-1.18,2-2.29,3-3.38,4.43-5.37,8.5-11,13.63-15.81,8.67-8.72,19.09-15.45,27.63-24.29,2.27-5.63-2.31-8.88-4.55-12.86-6.86-12.16-18.11-21.39-23.16-34.78C154.74,194.2,155.51,192.92,157.57,193.73Z"/><path class="cls-9" d="M50.81,603l1.53,2c2.64,3.82-.73,6.18-2.38,8.67C37.65,632.28,28.1,652.05,23.1,673.88c-4.58,14.56-6.45,29.55-6.85,44.71-.51,18.79-.75,37.59-.22,56.38.64,18,5.58,35.23,10.78,52.34a14,14,0,0,1,2.47,4.5c0,4-2,6.43-5.78,7.47-1.73-.57-3.14-1.34-2.17-3.56-14-45.37-18-91.83-10.41-138.46C16.48,663.1,26,629.57,50.81,603Z"/><path class="cls-10" d="M257.58,231.84c5,.55,8-3.27,11.67-5.58,33-20.81,67.76-37.61,106.62-44.17,10-1.7,18.86-6.23,28.33-9.21a10.79,10.79,0,0,0,6.31.35c10.13.07,20.1-3.44,30.32-1.38,8.74,2.13,17.64.64,26.45,1.15a28.49,28.49,0,0,1,6.94.86c2.77.81,5.58,1.5,8.33,2.46a6,6,0,0,1,2.71,2.29,5.45,5.45,0,0,1-.09,3.61,5.13,5.13,0,0,1-3.11,2c-18.56-2.91-37.25-2.76-56-2.83A143.69,143.69,0,0,0,386,186.71c-16.75,4.18-34,6.42-50.08,13.25-2.87.82-5.77,1.59-8.66,2.38-1.25.39-2.53.73-3.77,1.17-.75.33-1.52.63-2.29.93-1.09.5-2.19,1-3.26,1.59-.71.41-1.44.76-2.18,1.12l-3.33,1.8-6,3.13a183.49,183.49,0,0,0-17.79,9.85c-1.26.78-2.55,1.5-3.84,2.25-.83.57-1.7,1.07-2.57,1.58-6.74,3.59-12.13,10-20.6,10C259.49,235.28,257.29,234.83,257.58,231.84Z"/><path class="cls-11" d="M718.81,51.36c-3.73-4.56-7.95-8.38-14.12-9.2-1.4-1.21-1.4-2.44,0-3.69l2.17.16c1,.42,1.72,1.31,2.87,1.35,11.12,2.7,17.14,11.07,21.67,20.5,9.38,19.57,13.12,39.16-1.77,58.13-4,5.09-2.42,11.34-3.06,17.12l-1.62.68a5.57,5.57,0,0,1-2.18-2.61,21.29,21.29,0,0,1-.61-2.11c-1.8-6.76,3.06-16.51-5.43-20a36.31,36.31,0,0,0-30,1.62c-8.87,4.45-17.65,9.11-26.46,13.71-2,1-4.13,1.61-6.28.25-2-5.28,2.13-7.68,5.34-9.54,20.27-11.7,40.37-24.67,65.5-14.15,6.24,2.62,7-2.22,7.49-6.23s2.62-9.59-4.88-9.78c-4.07-.1-8.15.19-12.22,0s-8.16.14-11.08-4.1c5-5.32,11.37-5.66,17.55-6,7.24-.37,7.52-4.06,5.79-9.72C725.57,61.78,719.3,58.09,718.81,51.36Z"/><path class="cls-12" d="M828.67,536.5c-14.94-3.32-14.17,9.09-17.46,17.44-3.71.63-3.65-2.61-4.8-4.62-1.7-3.73-4.65-2.12-7.3-1.69-2.72.15-4.71,3.34-7.82,2-6.3-4.7-12.79.64-19.17-.36-5.42-.84-10.86-1.55-16.29-2.32-.05-3.2,2.47-3.55,4.68-4.25,15.93-.35,31.57-2.16,46.72-7.68,19.15-7,34.73-17.8,43.16-37.1a9.67,9.67,0,0,1,3.31-4.35c4.9.7,4.32,4.78,5,8.08-.1,5.2,2.91,9.79,3,15-3.53,6.28-3.1,12.92-1.8,19.64.54,5.32.75,10.59-2.34,15.36-5-.45-3.75-4.55-4.46-7.51.29-7.21-.5-14.4-.77-21.6-.08-2,.09-6.13-4.08-2.63-5,6.23-13.42,9-16.71,16.9A2.76,2.76,0,0,1,828.67,536.5Z"/><path class="cls-13" d="M856.29,503.68c-1.09-3.14.43-6.91-2.31-9.66-4.12-3.2-3-8.26-4.41-12.41-1.88-24.19-14.09-42.76-31.76-58.34-3.08-2.28-5.54-5.36-9.07-7.09-2.93-2.18-.65-4.16.24-6.2a85.47,85.47,0,0,1,40,44.33c6.21,15.25,15.14,28.54,23.13,42.57,3.29,5.76,6.32,11.69,9.21,17.67,1.18,2.47,3.95,5.37,1.41,8-2,2-5.3,2.3-8.38,1.41-4.52-1.3-9.08-2.45-14.48-3.9V536.2a22.57,22.57,0,0,1,.53-20.34c4.19-2.24,9.93,3.6,12.32-.44,2.83-4.79-2.27-9.4-4.68-13.77A75.52,75.52,0,0,0,861.51,491C859.27,495.17,862.57,501.54,856.29,503.68Z"/><path class="cls-14" d="M28.24,831.89l-1.91-2c-.58-7.35,5.36-8.06,10-8.85a71.65,71.65,0,0,1,24.05,0c14.8,2.56,21.79-3.92,20.16-19.3A3.92,3.92,0,0,1,83.22,798c4.51.84,7.43,4,10.51,7a7.21,7.21,0,0,1,.6,3.14c-12,18.9-26.85,35.65-39.73,53.9-6.89,9.76-11.33,21.52-21.8,28.58a3.86,3.86,0,0,1-2.93-1l2.74-5.94c-1.88-4-7.51.65-9.11-4,.58-3.86,3.79-4.1,6.64-4.68a13.37,13.37,0,0,0,8.94-6.09c6.13-9.72,12.9-19,19.94-28,3.64-4.69,3.9-8.84-2.76-11.09C46.78,828.8,37.64,832.25,28.24,831.89Z"/><path class="cls-15" d="M771.16,342.44a6.54,6.54,0,0,1,.13-2.07c-.34-2.87,1.81-3.94,3.83-4.61,11.8-3.9,15-13.28,15.36-24.24.58-15.49.11-30.76-5.13-45.76-3.6-10.29-8.08-19.68-15.92-27.3-9.95-7.15-20.79-1.78-31.23-2.22-2.28-.68-4.81-1.11-4.64-4.39,8.23-4,17.3-4.39,26-4.79,13.79-.64,19.89,10.72,25.18,20.49,11.34,20.93,16.45,43.77,13,67.53C795.58,329.76,790,341.17,771.16,342.44Z"/><path class="cls-16" d="M257.58,231.84c1.37,2,3.52,2.08,5.63,2.26-3.51,7.19-3.51,7.19-11.11,9.92,7.18-1.05,13.9-6,21.6-2.8,1.52.92,2.46,2.13,2,4-13.07,7.29-27.59,10.94-41.36,16.48-5.84-1-3.61-4.39-1.91-7.21a51.66,51.66,0,0,1,13-14.92c4.26-3.21,4-5.62-1-7.77-6.91-3-13.73-5.77-21.08-1.4a25.9,25.9,0,0,1-2.81,1.09,26.59,26.59,0,0,0-5.47,2.53c-6.69,1.87-11.41,9.94-19.84,6.34l-.49-.54c3.69-2.89,7.23-6,11.11-8.65C226.46,217.2,237,217.38,257.58,231.84Z"/><path class="cls-17" d="M440.64,862.91l-2.56.18c-5.86-5.22-4.35-17-15.52-17.49a2.89,2.89,0,0,1-2.86.16c-1.07-4.36,2-9-.79-13.23-4.18-13.83-4.18-13.49-18.67-13.34-8.29.09-16.93,2.21-24.83-2.41-.8-4.44,2.77-4.33,5.4-5.22,27.3,1.37,49.77-8.6,67.8-28.94,3.76-3.07,6.58-7.33,11.36-9.12a3.27,3.27,0,0,1,3.32,2.93c-.61,6-5.8,8.84-9.11,13a100,100,0,0,1-21.24,17.67c-7.49,4.58-8.37,10.22-5.84,17.86,3.38,10.21,9.43,19.24,12.67,29.5C440.66,857.22,442.28,859.89,440.64,862.91Z"/><path class="cls-18" d="M760.65,544.87l-4.82,2c-7.29-.89-12.34-7.5-19.87-7.76-1.32-1.58-1.06-3,.52-4.18,11.75-4,24.32-5.59,35.22-12.24,18.07-11,27.89-27.6,33-47.55,2.63-6.91,2.26-14.7,6.21-21.23,3.14-1.1,3.9,1.23,4.83,3.33,2.6,34.09-20.34,66.48-58.27,82.22C757.9,541.65,761.08,542.2,760.65,544.87Z"/><path class="cls-19" d="M725.22,140.51c-9.1,42.59-36.61,69.33-74.82,86.8-6.36,2.91-12.9,5.43-19.35,8.13-1.86-.42-2.86-1.45-2.45-3.47,5.32-7.05,14.22-7.39,21.2-11.31,30.19-16.9,57.66-36.3,66.48-72.79a30.79,30.79,0,0,1,5.48-12.05,2.28,2.28,0,0,1,2.93.17l-.16-.13C726,137.23,725.68,138.86,725.22,140.51Z"/><path class="cls-20" d="M628.45,233.48l2.6,2c-6.47,6,2,7.73,3.42,11.32,3.35,8.15,7,15,16.91,5,3.4-3.43,10.2-3.5,15.44-5.11a9.88,9.88,0,0,1,4.85-.51c1.81.59,2.59,1.75,2,3.66-1.95,2.45-4.72,3.54-7.62,4.11-14.66,2.89-23.19,11.95-26.68,26.18a7,7,0,0,1-3.5,3.3,4,4,0,0,1-3-.75c-1.08-1.61-1.81-3.6-1-5.25,9.55-20-5.29-30.84-16.55-42.49-6.9-7.13-13.72-14.46-21.51-20.75-2-1.57-3.48-3.92-2.53-6.87,5.41-3.44,9,.61,12.51,3.43,4.57,3.63,8.43,8.08,12.59,12.18C619.51,227.4,625,229.26,628.45,233.48Z"/><path class="cls-21" d="M466.53,26.57c-10.46,2.35-20.88,4.9-31.39,7-7.83,1.53-11.49,4.51-9.42,13.57,3.41,14.9,9.55,28.7,14.76,42.9,1.68,4.58,6.84,9.26,1.91,14.88-6.87-18.51-15.76-36.23-20.66-55.54-2.63-10.34-.27-16.1,10.38-18.56,10.31-2.37,20.25-6.43,31.05-6.48C465.14,23.79,466.66,23.94,466.53,26.57Z"/><path class="cls-22" d="M660.68,607.3c-6.57,12.58-11.8,26-22.36,36.11a6.36,6.36,0,0,1-.85-.87c-2.16-4,.74-6.84,2.45-9.78,2.62-4.54,4.08-9.12,2.31-14.3a148.5,148.5,0,0,0-22.89-46.55c0-3.25,1.59-5,4.88-5.19C636,577,641.65,591,647.52,604.93c.73,1.74-.16,8,5.46,4.11a13.36,13.36,0,0,1,4.17-4.13,4.93,4.93,0,0,1,3-.3,2.12,2.12,0,0,1,.82,1.7C660.91,607,660.83,607.3,660.68,607.3Z"/><path class="cls-23" d="M452.26,916.14l3.18.3c1.41,4.79-2.82,6.23-5.29,8.54a42.58,42.58,0,0,0-10.27,14.08c-2.11,4.85-2.38,9.39,4.1,11.31,12.41,3.5,25.21-.84,37.65,2,1.7.82,3.11,1.84,2.74,4-13.81,2.48-27.62,3.42-41.52.59-11.72-2.38-14.3-6.44-10.43-17.53C436,929.15,441.77,920.6,452.26,916.14Z"/><path class="cls-24" d="M660.07,885.66l0-2.51c21.43,9,38.57,23.7,54,40.59,5.26,5.75,2.14,9.57-4.25,10.67-3.86.67-8-.36-12-.63a2.37,2.37,0,0,1,0-1.64c9.76-5.46,9.62-5.33,1.57-13.84-6.3-6.66-13.78-11.87-20.63-17.83C673.49,894.36,663.37,894.3,660.07,885.66Z"/><path class="cls-25" d="M578.84,16.11l-9.91.09c-4.84,4-10.34,2.52-15.6,1.6-8.24-1.44-16.63-1.17-24.84-2.63a4.27,4.27,0,0,1-2.63-2.32,3.1,3.1,0,0,1,1.1-3.2,54.15,54.15,0,0,0,21.91-2.84A16.25,16.25,0,0,0,554,8.43c7.82-2.17,15.95-.65,23.8-2.18a3.3,3.3,0,0,1,2.72.54,2.16,2.16,0,0,1,1.76.46c2,1.56,4.66.31,6.79,1.42a1.81,1.81,0,0,1-.1,2.47,2,2,0,0,1-1.68.5C585.05,14.25,583.84,18.75,578.84,16.11Z"/><path class="cls-26" d="M24,878.57c1.29,4.37,8.18-.7,8.61,5.11-6.79-2.42-13.95-.77-20.84-1.91C4.1,880.51.53,876.54,3.68,868.62c4.63-11.63,9.23-23.29,17.65-32.9l2.51,2.84c-.32,9.55-8.47,15.52-11,24.05-1.17,3.91-5.32,7.42-1.49,11.92C15.26,876.83,20.56,874.81,24,878.57Z"/><path class="cls-27" d="M442.85,144.92c-.16,6-3.91,10.73-6.52,16.67l19.16-1.73c9.47-.51,18.94-1.26,28.42-.1,1.11,7.14-4.93,4.64-8.09,6-12,.53-23.92,3.41-36.06,2.25-3.76-.89-8.85.27-9.2-5.91l9.72-17.25A1.64,1.64,0,0,1,442.85,144.92Z"/><path class="cls-28" d="M29.87,889.62l2.72.07c2.64,5.1-1.39,8.34-3.58,11.88-7,11.34-14.15,22.6-20.13,34.52-3.05,3.57.27,7,.26,10.5-.74,1.44-1.73,2.25-3.38,1.29C0,945.31-1.55,942,1.65,935.69,9.87,919.58,19.79,904.57,29.87,889.62Z"/><path class="cls-29" d="M673.39,249.09l-2.67-2.29a1.32,1.32,0,0,1,1.22-1.6l52.71-11.92c1.55-.66,3.34-.56,4.77-1.56l4.14.13,4.9,2.21c-.42,3.19-2.94,4.05-5.46,4.57-17.27,3.57-34.27,8.29-51.47,12.14C678.62,251.42,675.68,251.7,673.39,249.09Z"/><path class="cls-30" d="M466.53,26.57l-3.37-2.26c4.26-2.73,9.3-3.06,13.91-2.86a95.37,95.37,0,0,0,43.78-8A3.79,3.79,0,0,1,524.1,13c-.35,8.64-7.24,8.28-13,9.47C496.51,26.76,481.31,24.48,466.53,26.57Z"/><path class="cls-31" d="M419,845.06l3.52.54c-15,10.33-32.87,13.75-49.49,20.19-1.46.74-3.15.66-4.65,1.3l-4.13.36c-1.13-1.82-5,0-4.8-3.61,1.92-3.3,5.49-3.22,8.55-4.25,13.16-4.4,26.92-7,39.51-13.19C411.05,844.68,414.91,842.8,419,845.06Z"/><path class="cls-32" d="M693.78,738.51c.75-1.71,1.51-3.43,2.26-5.15,5.85,18,5.27,36.27,2.18,54.63l-2.47-2.7c-3.47-3-3.54-7.38-3.22-11.22C693.54,762.23,688.93,750.19,693.78,738.51Z"/><path class="cls-33" d="M735.87,536.68l.09,2.46c-16.47,4.14-32.22-1.2-48.19-3.68-2.48-.38-4.95-.83-7.43-1.24-.19-.63-.38-1.25-.58-1.87a5.47,5.47,0,0,1,3.73-4.17c16,1.2,31.68,5.85,47.91,5.65A5.44,5.44,0,0,1,735.87,536.68Z"/><path class="cls-34" d="M653.78,36.07c2.18-6.26-1.1-10.47-5.39-14.29-8.9-7.91-19.37-13-30.33-17.34-.11-4.18,2.26-2.95,4.48-2.06C634,5.7,643.7,11.86,652.21,20.05c5.51,5.31,7.48,11.43,3.84,18.66A2.79,2.79,0,0,1,653.78,36.07Z"/><path class="cls-35" d="M157.57,193.73l-2.43,2.49c-12.77-7.52-26.45-10.3-41.13-7.78a5,5,0,0,1-3.35-3.65C131.16,176.88,144.26,179.38,157.57,193.73Z"/><path class="cls-36" d="M704.65,38.47l0,3.69c-16,.21-31.3,4.77-47,6.55a2.83,2.83,0,0,1,.3-4C673.82,44.85,688.64,37.22,704.65,38.47Z"/><path class="cls-37" d="M658,44.68l-.3,4-15.34,5.18c-4.51-6.45-3.47-12.35,3-14.5,2.85-.93,5.55-1.77,7.85-3.69l.57.37,2.27,2.64Q657,41.7,658,44.68Z"/><path class="cls-38" d="M680.34,534.22c-.35,12.91-3.13,25.36-7.06,37.6a3.55,3.55,0,0,1-3.21.91,2.9,2.9,0,0,1-2-2.57c2.16-12.36,4-24.77,6.09-37.15,2-2.76,3.78-2,5.5.31C679.88,533.62,680.1,533.92,680.34,534.22Z"/><path class="cls-39" d="M828.67,536.5l2.89-.31c8.37-1,12.81,6.13,19.19,9.21.62-.26,1,2.11,1.5.32s1-3.21,3.06-3.5c1.44,2.95-.52,6.71,2.24,9.34-3,5.34-6.61,1.56-9.07-.1C841.63,546.83,835.24,541.53,828.67,536.5Z"/><path class="cls-40" d="M622.54,2.38l-4.48,2.06c-9.63-.35-18.4,3.05-27.23,6.22a5.26,5.26,0,0,1-2-1c-2.27-.61-5,0-6.63-2.37,6.44.77,12.26-1.08,18.18-3.52C607.49.83,614.87-2.27,622.54,2.38Z"/><path class="cls-41" d="M430.56,162.13c2,4.8,6.41,2.12,9.67,3-.8,5-5.2,4.27-8.45,5.28-7.31,2.27-15.15,2.21-22.32,5.13-2.54.7-4.24-.29-5.26-2.64C412.2,167.38,422.78,168.17,430.56,162.13Z"/><path class="cls-42" d="M552,10.87c-2.5-.22-3-2-3.17-4.06,10.53-5.15,21.07-11.59,31.62,0l-3.8.73C568.35,7.71,559.72,5.82,552,10.87Z"/><path class="cls-43" d="M84.4,212c-.77-.85-1.53-1.71-2.3-2.57,7-10.12,13.27-21,26.56-24.1a3.55,3.55,0,0,1,.84,2.86C100.38,195.32,94.33,205.7,84.4,212Z"/><path class="cls-44" d="M442.85,144.92l-2.57,0q2.22-12.31,4.43-24.62a3.84,3.84,0,0,0,.14-4.26c0-.78,0-1.55,0-2.34,3.72-2.89,4.48-.36,4.13,2.59C447.79,126,447.87,136,442.85,144.92Z"/><path class="cls-45" d="M791.29,549.58c2.35-1.36,3-5.49,7-4.23,2.62,6.24,6.84,2.48,10.59,1.7.8,2.3-.66,5.37,2.38,6.89C802,564.27,797.18,554.47,791.29,549.58Z"/><path class="cls-46" d="M669.74,571.83a18.86,18.86,0,0,0,2,.16,4.58,4.58,0,0,1,0,4.17l-.78,4.39c-.95,1.35-.65,3.12-1.54,4.49l-7.45,19.8c-.4,1-1,1.15-1.73.36a8.85,8.85,0,0,1-1.85-.11l-1-1.36C659.48,592.31,662.34,581.19,669.74,571.83Z"/><path class="cls-47" d="M359.11,864.78c1.91.55,4.12.48,5.18,2.67l-26,4.88c-2.55.78-5.09,1.54-5.51-2.46C340.81,864.33,349.25,860.91,359.11,864.78Z"/><path class="cls-48" d="M484.37,956.37l-2.69-2.58c7.22-7.36,15.84-8.27,25.27-5.53l2.36,2C501.27,953.4,493.19,956.42,484.37,956.37Z"/><path class="cls-49" d="M333.28,870.36l5,2a58.74,58.74,0,0,1-18.58,3.73c-2.53-2.84-6.16-.9-9.07-2.07C317.13,866.23,325.08,867.53,333.28,870.36Z"/><path class="cls-50" d="M5.76,947.88l2.72-2.29a5.43,5.43,0,0,1,4.67-1.71c3.89,1.49,9.63-.48,11,5.81L22,951.8C16.19,952,10.67,951.21,5.76,947.88Z"/><path class="cls-51" d="M671.7,576.16c0-1.39,0-2.78,0-4.17a3.07,3.07,0,0,0,1.56-.17A3.68,3.68,0,0,1,671.7,576.16Z"/><path class="cls-51" d="M669.38,585a4.49,4.49,0,0,1,1.54-4.49A3.8,3.8,0,0,1,669.38,585Z"/><path class="cls-52" d="M671.94,245.2a5.28,5.28,0,0,1-1.22,1.6l-3.9-.13C668.17,244.91,670,244.88,671.94,245.2Z"/><path class="cls-52" d="M729.42,231.72l-4.77,1.56C725.9,231.73,727.58,231.48,729.42,231.72Z"/><path class="cls-53" d="M108.57,187a3.24,3.24,0,0,0,.09-1.69,2,2,0,0,1,2-.53l2.27,1.9C111.58,188.21,110.14,188.44,108.57,187Z"/><path class="cls-54" d="M725.22,140.51l-.69-4.65a4.38,4.38,0,0,0,2-.13C727.23,137.64,727,139.28,725.22,140.51Z"/><path class="cls-1" d="M444.85,116c1.46,1.47,1.49,2.9-.14,4.27C444.76,118.84,444.81,117.42,444.85,116Z"/><path class="cls-55" d="M524.87,13.91l-4-.44,1.54-2a3,3,0,0,1,4.2-.28l.06,2.27A1.19,1.19,0,0,1,524.87,13.91Z"/><path class="cls-56" d="M526.6,11.16l-4.2.28c1.1-1.68,2.47-2.66,4.57-1.79A4.65,4.65,0,0,1,526.6,11.16Z"/><path class="cls-57" d="M368.42,867.09l4.65-1.3A3.76,3.76,0,0,1,368.42,867.09Z"/><path class="cls-58" d="M92.49,373.64l2.76,2.5-5.2-.24Z"/><path class="cls-59" d="M766.5,344.77a5.18,5.18,0,0,1,4.91-1.76A4,4,0,0,1,766.5,344.77Z"/><path class="cls-51" d="M660.2,605.2c.57-.14,1.15-.27,1.73-.36l-1.25,2.46A13.6,13.6,0,0,1,660.2,605.2Z"/><path class="cls-36" d="M709.69,40l-2.87-1.35Z"/><path class="cls-60" d="M718.81,51.36c4.45,2.46,6.78,6.75,9.17,10.9,8,13.86,6.39,17-8.84,18.27-4.3.37-8.6,1-13.41,4.28,6.77,0,12.31,0,17.84,0,12.9.1,16.21,5.54,10.71,18-1.9,4.31-2.68,10.28-10,3.44-4.11-3.83-11.75-4.53-18.07-3.79-20.25,2.37-38.28,9.79-52.74,24.7l-.93,1.39c-7.83,5.66-16.71,9.09-25.78,12.16-20.93,6.65-42.07,9.87-63.91,4.88a63,63,0,0,1-13.46-4.73c-11.09-5.34-12-13-2.84-23,15.58-1.61,30.91,4.93,46.75.5,25.94-7.26,50.06-17.45,66.44-39.9,11.47-15.71,27.68-23.69,44.63-31C710,45.08,713.44,52.1,718.81,51.36Z"/><path class="cls-56" d="M524.87,13.91a2,2,0,0,0,1.79-.48c14.29-2.11,28.15,2.34,42.27,2.77,6.39,3.7,14,8.48,13.69,15.42-.21,4.56-9.69,2.1-14.88,3.2a147.24,147.24,0,0,1-41.8,3.24c-9.49-.73-16.73-8.51-14.85-15.64Z"/><path class="cls-61" d="M435.8,41.93c5.6-6.27,12-2.18,17.09-.1,9.44,3.88,18.24,9.39,27.13,14.51,3.83,2.2,6.12,5.37,3,10-8.09,11.83-16,23.76-24.24,35.51-.83,1.19-2.67.42-3.17-1.4C449.8,80.67,443.59,61,435.8,41.93Z"/><path class="cls-62" d="M653.21,35.7c-1.88,3.27.07,12-8.4,5.86a15.77,15.77,0,0,0-2.49,12.33L622.43,56c-2.12-4.43,1.52-9.22-1-13.62,2.58,4.41-1.52,9.23,1,13.65a23,23,0,0,1-13.34,4.36C594.91,54,580.42,49.27,564.54,49.9c-5.3.2-11.15,1.58-15.68-3,13.75-4,28-3.41,41.93-2.94,10.93.37,20.67,2.61,28.08-8.7,3-4.51,9-7.91,14.35-9.7C642.52,22.43,649.4,26.68,653.21,35.7Z"/><path class="cls-63" d="M548.86,46.89c17.27-1,34.38-.64,50.75,6,3.9,1.57,8.9,1.76,9.44,7.54-20.62,8-42.16,13.68-62.19,23.32-2.81,1.36-5.77,3-6.27-2.14C539.49,70.5,542.38,59.79,544,49,544.11,48.07,547.17,47.58,548.86,46.89Z"/><path class="cls-64" d="M484.23,160.85l-28.74-1c16.57-.32,30.25-8.11,43.86-16.47a24.54,24.54,0,0,1,13.74-3.25l1.41,1.31c3.22,6.71,0,13-1.58,19.26-1,4-4.51,5.43-8.68,5.13C497.26,165.35,490.28,165,484.23,160.85Z"/><path class="cls-65" d="M435.8,41.93c2.7,0,4.93.48,5.83,3.71,4.41,15.89,9,31.71,15.68,46.84a6.48,6.48,0,0,1-1.74,8C439.81,84.05,432.47,64.79,435.8,41.93Z"/><path class="cls-66" d="M546.53,117.91c-6.54,14.43-5.72,16.85,8.25,22,19.7,7.23,39.64,6.32,59.63,1.23l13.89-3.49c2.41-.81,3.23.47,3.41,2.6-14,11.27-31.15,11.59-47.4,11.12-15.87-.45-32.48-.81-46-13-6.06-5.43-13.26-.23-19,4.13-1.78,1-3.33.88-4.49-1a4.58,4.58,0,0,1,.4-3.42,11,11,0,0,1,8.36-6.42c9.16-1.49,17.46-3.22,19.34-15C543.65,111.86,546.07,114.83,546.53,117.91Z"/><path class="cls-42" d="M578.84,16.11c4.58,1.85,4-6,8.42-4.47.07,5.26,5.43,3.31,8.48,6.32C589.51,17.52,584,19.25,578.84,16.11Z"/><path class="cls-64" d="M515.18,138.11a8.31,8.31,0,0,1,.21,2.11l-.41.94-1-.17-.88-.85Z"/><path class="cls-42" d="M588.88,9.62l2,1a3.69,3.69,0,0,1-1.89.48A12.88,12.88,0,0,0,588.88,9.62Z"/><path class="cls-67" d="M81.63,543c-.68-16-6.6-31.85-1.07-48.08C87,476,93,457,99.23,438.05c-.54-4.28-.32-8.12,5.11-9,1,1,.14-.63.89.61,17.34,28.54,44.77,24.48,71.58,22a48.77,48.77,0,0,0,20.87-7c12.94-7.8,28.15-7.88,42.11-12.31,32.3-10.23,62.81-24.44,89.67-44.71,12.67-9.56,23.06-22.51,36.48-31.72,3.34-2.29,6.27-5.17,10-6.86a5.21,5.21,0,0,1,3.33-.21c2.11,1.05,3.34,2.91,4.5,4.85,7.11,14.25,14.81,28.18,23.25,41.7,6.26,10,5.93,14.87-2.92,23.48-21,20.4-40.87,41.83-62.81,61.29-19.94,17.68-37.9,37.54-56.91,56.26-3.31,3.26-5.92,7.85-11.54,7.83-8.67,5.16-15,12.93-22.26,19.71-4.34,4.07-8.77,6.31-14.93,4.73-46.13-11.81-92.48-11.38-138.9-1.92-5.61,1.15-8.55-.92-10.06-5.78C84.85,555.06,83.31,549,81.63,543Z"/><path class="cls-68" d="M163.85,734.56l11.62-1c-24.87-4-48.81-1.21-71,10.6-6.49,3.44-10.23,2.5-13.53-3.31-17.49-30.78-28.39-62.92-23.4-99.23,2.44-17.75,7.29-34.5,13.41-51.22,4.79-13.06,11.87-20.12,26.5-22.54,41.76-6.9,82.93-6.52,124.13,3.46,8,1.94,11.09,6.51,12.61,13.36,12,54,27.94,107,41.26,160.59,3.38,13.63,3.77,13.54-14.41,20.17-8.78,7.64-19.64,3.93-29.54,5.45a7,7,0,0,1-7-3.78A103.1,103.1,0,0,0,183.27,740c-3.73-.37-7.45-.84-11.21-.84C168.77,738.6,164.89,739.11,163.85,734.56Z"/><path class="cls-69" d="M270.85,550.06l2.22-3c24.08-24.56,47.87-49.39,73.46-72.49q32.52-29.34,62.13-61.83c4.74-5.2,9.48-6.31,15.77-4.21A299.56,299.56,0,0,1,518.38,460c2.31,1.86,4.75,3.65,4.55,7.12-5.76,4.74-5.76,4.74-21.43,5.64,8.32,1.47,16.07,3.93,22.4,9.86s15.27,8.75,20.06,16.7c2.48,4.1,6.52,4.14,10.7,3,5.3,3.8,5.86,9.16,5,15-6.56,11-11,23.25-19.17,33.34-4.47,8.26-10.34,15.54-16.18,22.84-11.16,15.39-26.09,27.1-39.67,40.1-3.74,3.58-7.67,8.33-14.11,7.53-4.91-3.79-2.41-7.68-.34-11.77,1.91-3.78,6.6-6.12,6.09-11.1-2.38-2.15-4.59-1-6.24.3-9.78,7.77-16.42,2.17-24.18-4.21-8.35-6.87-8.61-13.69-4.1-22.3,4.24-8.08,6.45-17.56,16.15-21.61a6.29,6.29,0,0,0,3.54-5.36c.77-6.57,4.26-11.73,8.23-16.72,1.31-1.65,3.62-3.42,2-5.71-1.42-2-4.09-1.42-6.26-1.09a28.57,28.57,0,0,0-17.4,9.06c-6.05,6.7-13.05,10.35-21.93,13.44a133.79,133.79,0,0,0-30.36,15.21c-6.42,4.34-12.59,9.19-19.26,13.11-6,3.52-8.73,8-9.89,14.86-1.49,8.8-4.77,17.24-16,17.85-2.33-4.94,1.75-8.36,3-12.42,1.57-5,.49-8.37-4.24-11.13-5.56-3.23-6,1.71-7.93,4.32-4.74,6.35-9.89,7.36-18.21,5.66-11.27-2.31-23.41-1.38-34.12,4.67-2.1,1.19-5.06,2.81-3.36,5.95,1.27,2.35,4,1.62,6,.75,5.18-2.26,10.72-2.84,16.18-3.8,3.33-.59,6.58-.7,9.74.93,8.7,4.48,12.48,12.19,9.13,18.8-3.68,7.27-12.62,10-21.06,5.32-8.66-4.85-17.12-8.3-27.35-6.59-4.28.72-8.13-1.84-9.27-6.36a150.84,150.84,0,0,0-5.05-17c-1.4-3.69.13-6.57,3.31-8.5,6.7-4.06,12.51-9.21,18.34-14.36.84-.74,1.72-1.74,2.74-1.85,15.56-1.67,29.53-12.35,46.12-8.14a14.27,14.27,0,0,0,5.5.54c4.24-.62,11.41-.34,10.85-4.88-.67-5.43-7.18-2.79-11.18-1.81-5.37,1.32-10.26.31-15.16-1.67-3.1-1.26-5.93-3.06-9-4.44-12.06-5.51-23.19-10.28-34.42,3.35-7,8.51-11.19,7.8-16.72,4l.12-.15a4,4,0,0,1,1.8-1.69l2.94-2.94A3,3,0,0,1,270.85,550.06Z"/><path class="cls-70" d="M235.23,765.43c1.13,1.84,2.27,3.66,4.73,3.9a3.09,3.09,0,0,1,2.76-.13,21.39,21.39,0,0,0,5.91.53c5.7-.07,11.47.56,16.93-1.78,2.49-1.13,5.16,1.59,7.61-.34,22.89-6.44,45.49-13.66,66.69-24.66,2.16-4.66,7.23-5.35,10.88-8,9.17-3.27,15.84-9.89,22.42-16.65,3-3.1,6-6.35,10.19-7.92,6-2.23,10.78-10.8,18.54-4,6.79,6,3.12,12.85,1.06,19.44-1.21,3.88-1.87,7.9-3.1,11.75-2.15,6.74-6.64,12,6.43,14.18,9.09,1.53,16.78,11.78,22.2,20.22,5.15,8,8.72,7.29,15.81,3.26,4.95-2.81,8.77-10.75,16.65-6.1a5.7,5.7,0,0,1-.22,3c-3.05,3.72-7.72,6.1-9.2,11.12-17.92,21.48-40.49,32.49-68.8,30.6-27.45,0-54,5.14-80.13,13.35-10.84,3.41-21.3,8.62-33.21,7.78-4.5-.31-8.92-.43-11.91-4.53l-6.93-5c-19.6-16.29-42-27.35-65.91-35.76a135.07,135.07,0,0,0-14.83-4.57,51.6,51.6,0,0,0-6.15-1.52,19.11,19.11,0,0,1-3.17-.71c-2.08-.91-4-1.94-3.22-4.79,9-8.18,14.65-17.54,11.65-30.4a10,10,0,0,1,4-10.83c4-1,7.69.52,11.47,1.31C203.36,743.45,220,753.18,235.23,765.43Z"/><path class="cls-71" d="M351.08,737.3c-3.09,3.18-7.13,4.47-11.22,5.65-3.68-3.86-6.9.08-9.92,1-7.35,2.33-14.38,5.65-21.6,8.41-15.95,6.08-15.93,6-20.36-10.92-12.56-48-24.46-96.25-38.06-144-5.25-18.43-2-31.47,14.53-41,12.75,1.15,19.33-8.47,25.41-16.62,2.45-3.3,3.12-2.65,5-1.55,9.26,5.4,20.51,5.68,29.53,12.1,4.7,3.35,10.87,4.67,16.76,1.36,4.36-2.46,8.8-1.38,12.66.71,4.83,2.62,5.32,6.36-.13,8.89-6.38,3-12.95,5.06-20.32,2.83-7.61-2.3-15.27-2.77-22,2.9-.82.69-2.06,1.52-3,1.39-17.82-2.74-26.73,12.91-40.09,19.31a5.44,5.44,0,0,0-1,.51c-3.6,2.68-1.45,6.18.33,7.62,6.35,5.17-2.25,20.57,11.44,19,10.07-1.17,18,.33,25.88,6,2.58,1.85,6.15,3.64,9.09,3.37,6.21-.55,11.34-3.73,12.09-10.78.43-4.05-10.59-13.73-14.67-12.21-6.2,2.3-13.18.42-19.07,4.85-3.51,2.64-9.07,2.78-11.6-2.16-2.44-4.77,1.6-7.76,5.22-9.51,13.32-6.45,27-10.1,41.73-4.32,6.44,2.54,13.42-4.86,14.69-15.61,2.27,1.41,4.27,3.3,6.63,4,11.61,3.46,10,10.75,5.72,18.85-1.37,2.56-3.92,4.52-3.8,7.81,1.74,3.5-.29,6.45-1.53,9.41-2.06,4.91-1.8,9.35,1.95,13.29,4.6,4.83,5.07,10.44,3.11,16.43-1.6,4.9-1.67,9.08,2.64,13,6.65,6.05,6.52,13.69,3.31,21.36-2.55,6.12-4.52,12.5-7.35,18.45-4.18,8.8-6.56,17.06,0,25.81,2.75,3.66,1,7.78-.49,11.61C352.14,735.45,351.62,736.38,351.08,737.3Z"/><path class="cls-72" d="M172.9,736.85c-.78,4.59-2.28,8.75-.83,13.93,3.2,11.5-3.63,23.15-15.17,28.28-9.29,4.88-19.9,4-29.72,6.9-13,3.82-22.44,13.45-34.21,19.13-5,.64-6.09-4.19-9-6.41-9-5.81-9.75-16.12-13.22-24.83-2.17-5.43-3.09-11.39-4.68-17.1-3.13-12.57-3.46-25.39-2.45-38.15.44-5.51-1-12.78,7-15.1,3.69,15.16,9.52,29.31,19.43,41.6,3.94,4.89,6.64,7.45,14.17,3.38,18.35-9.93,38.55-14.42,59.64-13.92Z"/><path class="cls-73" d="M13.43,776.38c-1.83-31.75-2.44-63.43,4-94.84.76-3.69,1.59-7.18,3.91-10.19,2.84.47,4.11,2.84,5.81,4.73C36,686,37.42,686.28,49.6,679.82c4.11-2.19,8.07-3.45,12.58-1.7A31.63,31.63,0,0,1,66,700.72c-1.47,18.15-2.92,36.3.08,54.44-1.25,5.18-5.7,5.5-9.63,5.59-8.21.18-10.65,5.26-11.43,12.14-.54,4.77-.09,9.58-.5,14.36-.39,4.54-1.14,9.47-6.74,9.91-5.39.43-7.28-4.23-8.79-8.47-1.84-5.14-1.6-11-5.34-15.81-3.8.43-3.08,4.51-5,6.33C14.05,783.54,14.53,778.49,13.43,776.38Z"/><path class="cls-74" d="M522,467.41c-28.58-26.84-63.08-43.28-99.3-56.82-7.28-2.72-11.1,1.36-15.17,5.79-40.12,43.66-86,81.45-126.85,124.34-2.27,2.38-5.07,4.25-7.62,6.36-.07-.93-.13-1.86-.2-2.79Q327.22,491.16,381.53,438c7.4-7.24,14.37-14.94,21.9-22,6.59-6.22,6.67-11.77,1.53-19.34-9.07-13.39-17.9-27.09-22.79-42.79l1.29-.69a4.82,4.82,0,0,1,2.68,1.09,20.08,20.08,0,0,1,3.6,4.83c3.16,5.86,7.14,11.4,9.65,17.45,8.58,20.72,24.36,31.68,45.7,35.85C482.76,429.44,518,450,546,481.32c4.68,5.25,9.71,10.21,13.13,16.39,3.71,6.7,6.53,5.17,10.07-.22,5.84-8.9,7.83-17.7,3.8-28.23-10.68-28-19.3-56.68-30.7-84.39-2.16-5.25-3.37-10.64-2-16.23q7.46-30.72,14.25-61.58c.63-2.85,1.36-5.83,4.32-7.41a5,5,0,0,1,3.33.23,5.83,5.83,0,0,1,1.66,4.7c-.24,2.26-.71,4.5-1,6.77-2.57,17.62-6.87,34.86-11.27,52.09-2.62,10.29-.85,11.82,9.71,9.82,10.15-1.93,19.66-6.82,30.3-6.61,3,.57,6.18.82,6.75,4.77-2.53,4.3-7,5.47-11.31,6-11.39,1.29-14.09,9-14.77,18.54a149.67,149.67,0,0,0,8.64,62.91c1.14,3.11,2.43,6.16,3.55,9.26.45,1,.82,2.05,1.18,3.08.25.47.48,1,.74,1.44,1.12,2.4,2.22,4.81,1.4,7.58-.82,1.84-2.26,3.31-3.06,5.17-4.88,13.12-11.47,25.05-23.37,33.24a3,3,0,0,1-2.92-.33,34.76,34.76,0,0,0-4.81-15.8C543.32,490.56,531,480.45,522,467.41Z"/><path class="cls-75" d="M62.18,678.12c-3.29,1-6.84,1.51-9.83,3.09-17.81,9.37-20.74,8.52-31-9.86,5-24.6,16.81-46,31-66.31,2-1.34,2-4.94,6.15-4.88C56.5,626.34,60,652.2,62.18,678.12Z"/><path class="cls-76" d="M62.27,607.78c2.75-4,1.91-8.61,1.7-12.92-1.19-23.85,5-46.62,9.55-70.55,5.45,8.38,1.92,17.79,6,25.46,7.12,15.41,3.51,29.42-3.69,44.07-7.11,14.44-9.26,30.77-13.53,46.45Z"/><path class="cls-77" d="M64.4,756c-2.15-18.52-4.46-37,1.59-55.32,2,.15,4,.35,4.62,2.78C63.2,718,67.27,733.25,67.7,748.26c.1,3.29.74,6.56,1.13,9.84,1,2.31,1.37,4.45-1.78,5.41C63.46,762,65.57,758.43,64.4,756Z"/><path class="cls-78" d="M241.86,769.87a2.71,2.71,0,0,1-1.9-.54c10.06-3.55,21-.56,31-3.89a10.41,10.41,0,0,0,.1,1.48c-.64,2.47-3.4,1.11-4.6,2.57-6.53,2.17-13.09,4-20,2C245.05,770.61,243.21,771,241.86,769.87Z"/><path class="cls-68" d="M266.51,769.49l4.6-2.56a6.49,6.49,0,0,1,2.06.68C271.28,769.41,268.91,769.5,266.51,769.49Z"/><path class="cls-71" d="M266.37,554.62l-1.8,1.69Z"/><path class="cls-71" d="M270.85,550.06l-1.54,1.62Z"/><path class="cls-79" d="M440.64,862.91c-4.73-14.7-14.71-27.23-17.45-42.78-.8-4.56-1.69-8.77,3.22-11.61,9.94-5.75,17.91-14,26.91-21,7.59-6.47,16.33-6.49,25.08-3.66,11.2,3.62,22.26,7.41,31.14,16.1,6.71,6.57,14.9,9.63,23.93,3,3.83-2.82,8.37-2.19,12.84-1.52,16.41,2.47,32.79,5.31,49.47,5.49,5.24.06,10.53,1.23,14.61,4.53,8.28,6.68,17.39,7.39,27.19,5.07,6.83-1.61,12.42-1.72,10,8.66,1.71-8.7-5.67-17.2,1.82-24.94,2.15,28.25,4.85,56.53-3.06,84.41-2.89,10.21-4.12,20.84-9.52,30.41-7.46,13.19-17.31,20.76-33.32,21.39-24.23.95-48.53,2.58-75.36,9.7,6-5.6,9.1-9.92,7.55-15.45a21.06,21.06,0,0,0-10.09-12.67c-18.74-11-38.33-17.75-60-9.87-6.19,2.24-8.26,1-10.2-5.16C451.1,889.45,449.39,874.86,440.64,862.91Z"/><path class="cls-80" d="M649.42,800.26v26.55c-2-8.16-5.44-9.18-13.63-6.88-8.39,2.35-18.11,3.45-25.56-5.18-3.63-4.21-9.7-5-15.35-5-17.35.11-34.36-2.72-51.3-6-3-.58-5.63-.66-8.44,1-12.58,7.5-18.71,6.52-29.54-3.83-11.18-10.68-25.13-14.28-40.07-15.88-4.7-.5-7.78,3.7-12.21,2.48l8.89-11.16a32.72,32.72,0,0,1,4.67-11.08c11.94-18.24,23.95-36.42,37.59-53.46a20.1,20.1,0,0,1,8.63-6.72C526,693,537.91,679.67,552.5,669.35c7.15-1.42,9.34,4.66,12.72,8.66,17.48,20.62,37.93,36,66,38.23a2.77,2.77,0,0,0,2,.51c9.39,19.74,16.05,40.16,15.38,62.38Q649,789.69,649.42,800.26Z"/><path class="cls-81" d="M693.78,738.51c3,15.5,1.46,31.18,2,46.78l-.5-.13c-.41,1-1.34,1.77-1.49,2.93a2.2,2.2,0,0,1-.39,1.57c-5.27.93-3-6.15-7.88-6.78-3,10.71-10.24,17.87-20.76,21.86-4.28,1.62-3.62,7.94-8.68,9.65-3.28-5,.06-10.84-2.26-15.74L651,774.25c-4.88-17.6-11-34.88-14.18-52.93,3.53-4.27,9.44-3.79,13.65-6.94,6.59-4.94,12.94-9.82,15.74-18.09.82-2.41,1.35-6.31,5.82-4.67C681.62,706.18,689.7,721.42,693.78,738.51Z"/><path class="cls-82" d="M507,948.26l-25.27,5.53c-13.38.33-26.84,3.07-40.07-1.32C450.07,941.41,455,927.9,466,918.54c4.94-4.22,9.78-7.78,16.56-7.56-2.45-.62-5.37,1.19-7.44-1.44,11-4.89,21,0,31,3.29,5.91,2,11.31,5.46,17,8.07,5.23,2.38,8.16,6.09,8.2,12,0,6.58-4.83,8.59-9.67,10.45S511.87,946.64,507,948.26Z"/><path class="cls-83" d="M653.79,798.65c3.61,3.68,1,8.53,3.31,13.58-.67-8.19,4.41-10.16,10.28-12,7.56-2.32,12.16-7.75,14.17-15.53.87-3.37,1.28-8.28,6.18-7.77,5.54.58,2.61,5.83,3.66,8.94a26,26,0,0,0,2,3.76c.78,11.44-4,21.32-8.72,31.22-2.09,3-3.85,6.22-6,9.2-7.63,10.76-13.33,11.22-22.84,1.84Q654.83,815.29,653.79,798.65Z"/><path class="cls-84" d="M686.62,936.42c-15.78,3.94-31-2.14-46.45-2.85-2.51-.11-5-1-8.45-1.64a184.41,184.41,0,0,0,14.55-29.63C662.84,910,674.14,923.9,686.62,936.42Z"/><path class="cls-85" d="M475.11,909.54l13.17.72c-20.61,4.79-29.82,19.07-37.79,34.42-2.08,4-3.24,8.21-8.88,7.79-7.16-.35-7-4.35-5.63-10,2.84-11.55,11.81-18.26,19.46-26.08C461.77,913.5,468.16,910.72,475.11,909.54Z"/><path class="cls-86" d="M660.07,885.66c6.23,5,14.47,7,20.08,13,3.07,8.65,10.33,14,16.15,20.46,2.08,2.32,5.79,5.06,3.33,8.22-2.82,3.64-5.71-.72-8.54-1.72a192,192,0,0,0-35.61-26.24c-3.14-1.81-8.15-2.27-6.6-8.42C650.59,884.2,655.25,885.1,660.07,885.66Z"/><path class="cls-87" d="M655.85,831.92c9.29,6.07,16.84,5.8,22.22-5.34,1.16-2.4,4.33-3.82,6.58-5.7-4.92,20.26-17.2,36.2-30.2,51.91C657,859.06,654.84,845.43,655.85,831.92Z"/><path class="cls-88" d="M686.62,936.42c-2.5-.43-6.5,0-7.28-1.42-7.49-13.43-19.69-21.51-32-29.6-.72-.48-.73-2-1.06-3.1,17,2.65,27.81,15,39.85,25.34C689.06,930.17,691.4,933.22,686.62,936.42Z"/><path class="cls-89" d="M691.09,925.63c2.95-3.65,4.54,3.16,8.72-.21-4.94-4.66-9.82-9.22-14.65-13.85-3.65-3.5-7-7.18-5-12.9A187.11,187.11,0,0,1,706.06,921c2.12,2.15,5.92,4.49,4.21,8.18-1.43,3.07-5.23,1.88-8.1,2.14a42.22,42.22,0,0,0-4.3.8l.22-1.08a20.21,20.21,0,0,1-2.45-.19,5.25,5.25,0,0,1-2.22-1l.23-.61a2,2,0,0,1-1.55-1.77A2.23,2.23,0,0,1,691.09,925.63Z"/><path class="cls-90" d="M637.62,720.91c4.32,17.82,12.19,34.75,13.41,53.34-2,1-1.92,3.08-2.37,4.88q-7.7-31.18-15.38-62.38l.45-3.21C638.1,714.38,637.94,717.6,637.62,720.91Z"/><path class="cls-83" d="M693.76,788.09l1.49-2.93Z"/><path class="cls-86" d="M692.1,927.53l1.55,1.77Z"/><path class="cls-24" d="M693.42,929.91c.6.08,1.2.15,1.81.2a1.17,1.17,0,0,1,.73,1.77Z"/><path class="cls-86" d="M696,931.88c-.25-.59-.5-1.18-.73-1.77l2.86.95Z"/><path class="cls-91" d="M91,411.44c5,15.54,5.23,30.81-1.68,46-2.06,4.53-3.3,7.09-8.49,3.14-13.29-10.12-18-25.55-12.24-42.2C77.36,420.19,84.76,417.66,91,411.44Z"/><path class="cls-92" d="M91,411.44c-3.57,10.08-13.11,13-22.41,6.95,3.36-13.61,11.75-24.5,19.22-35.92,3.36-5.15,5.13-2.84,7.11.81,1.94,1.91,2,3.77-.18,5.55C91.69,396.06,93,404,91,411.44Z"/><path class="cls-58" d="M94.76,388.83l.18-5.55.27-7.17c.69,0,1.37,0,2.06.07,13.1,22.69,13.12,22.71,27-.58,5.09-8.54,9.28-17.63,15.87-25.23,3.31-2.93,4.42-9.33,11-7.09,1.7,3.14.06,5.75-1.52,8.2a679.85,679.85,0,0,0-40.77,72c-1.11,2.31-2.42,4.59-5,5.59l-4.63,8.94c-3.74-3.77-.73-7.32.36-10.93-.63-2.58-.69-5.79.64-7.45,8.19-10.28,4.93-19.17-2.54-27.83Z"/><path class="cls-93" d="M97.69,391.84a65,65,0,0,0,6.34,5.88c6.24,4.5,7.09,9.11,2.21,15.53-3,4-4.48,9.2-6.65,13.87C93,415.68,93.69,403.85,97.69,391.84Z"/><path class="cls-94" d="M76.87,462.63c-5.6,1.79-9.91,9.45-13.68,5.07-4-4.63-.9-12.2,2.44-19.48Z"/><path class="cls-95" d="M60,422.44c2.28,2,3.33,4.14.85,6.83-2.94-2.44-.07-4.82-.65-7.06Z"/><path class="cls-96" d="M24.14,949.69c-3-3.6-8.3-.76-11.4-4.07.67-3.8,3.48-5.53,6.7-6.68,62.69-22.44,108.25-67.57,152.38-114.7,9.52-10.17,13.09-21.58,10.31-35.11,22.54,5.92,43.43,15.21,61.55,30.16a14.29,14.29,0,0,1,4.86,8.38c6.64,14.43-.43,27-6.52,38.93-11,21.56-28.13,37.73-48.74,50.26.5-10.23-3.9-16.14-14.18-18.93-7-1.9-6-8.18-3.16-14.8-5.24,2.32-8.1,6-11.51,9-3.09,2.68-6.58,6.41-10.47,5.42-9-2.28-14.64,3.26-21,7.46-13.83,9.18-27.58,18.47-42,26.79-3.35,1.94-8.36,4-2.53,8.65,4,3.19-1.44,6.56.5,9.67-11.57,3.62-23.47,2-35.07,1.09C44,950.46,34.08,950.05,24.14,949.69Z"/><path class="cls-97" d="M375.6,816.07c10.9,1.42,22.07,2.26,32.56-.67,8-2.24,10.54-.31,11.37,7.15.44,3.93,1.74,7.76,2.65,11.64-2.78,6.49-8.95,8.48-14.7,10.85-28.49,11.78-58.7,17-88.6,23.63-17.8,4-35.91,3.05-53.7,5.91a20.62,20.62,0,0,0-7.32,2.26,17.42,17.42,0,0,1-3.16.6c-14.17.12-14,.18-7.92-12,4.88-9.74,10-19.48,7.83-31.09-.42-2.18,1.6-1.74,2.93-1.8,10.65,2.81,20.88,1.79,31.32-1.88,24.65-8.66,49.62-16.22,76.11-16.43C368.59,814.2,372.39,813.55,375.6,816.07Z"/><path class="cls-98" d="M89,950.11l-4.33-.72c12-6.12-12.76-10-1-16.18,3.57-1.88,7-4,10.39-6.24q23.94-15.72,47.81-31.56c1.22-.8,2.93-2.74,3.45-2.45,13.6,7.59,18.14-5.78,26.18-11.06,2.37-1.56,4.83-3.5,8.25-2.68,1.72,2.82-.47,4.79-1.84,6.7-4.39,6.15-2.31,8.63,4.48,10.76,15.11,4.74,15,5.11,10.89,20.17C161.92,938.62,126.46,947.51,89,950.11Z"/><path class="cls-57" d="M257.86,876.84c6-6.77,14.1-6.49,22.18-7.14,49.34-3.92,97.41-13.07,142.14-35.51,5.19,5.42.2,7.91-3.13,10.87a396.2,396.2,0,0,1-59.94,19.72l-25.83,5.58L310.63,874C293.11,876.12,275.62,878.9,257.86,876.84Z"/><path class="cls-99" d="M375.6,816.07c-32.58-1.21-63.12,8-93.37,18.48-8.58,3-17,4.79-24.69-2a4.93,4.93,0,0,1-.07-2.06c11.09,3.73,21.69,1.69,32.4-2.08,26.19-9.23,52.75-16.89,80.94-16.24,4,.09,8.17-.39,11.91,1.72C380.36,814.64,377.47,813.69,375.6,816.07Z"/><path class="cls-100" d="M248.54,827.67c-17.4-21-42.25-28.86-66.61-37.57-7.59,1-14.54-.48-20.55-5.45a3.19,3.19,0,0,1,.57-3.19,7.06,7.06,0,0,1,2.2,0c1.42.51,3,.5,4.4.95,30.08,9.11,60.43,17.69,82,43Z"/><path class="cls-101" d="M583,471.8a144.11,144.11,0,0,1-13.13-81.26c1.09-9,3.61-16.17,15.06-15.81,4.19.13,8.45-2.26,12.68-3.49,9.12-6.7,17.53-14,22.92-24.27a7.25,7.25,0,0,1,6.26-3.88c4.47-1.62,9-3.08,13.37-4.91,4.54-1.91,7.83-1.2,9.79,3.58a3.93,3.93,0,0,0,1.15,1.87c15.08,9.4,11.48,20.9,4.15,33.24-5.15,8.66-6.19,18.81-8.91,28.34-1.27,2.42-.6,5-.63,7.54a13.55,13.55,0,0,1,.58,7.94c-1,3.29-1.1,6.7-1.34,10.1a23.37,23.37,0,0,1-1.05,5.49c-1.69,29.36-.14,58.73-.79,88.07a26.29,26.29,0,0,1-.64,5.39c-.64,2.6-1.65,5.13-1.94,7.83a26.68,26.68,0,0,1-.91,4.35c-.58,1.79-1.26,3.55-1.81,5.35a18.34,18.34,0,0,1-1,2.63,33.77,33.77,0,0,1-2,3.72,17.85,17.85,0,0,1-5.74,5.92c-.7.5-1.44,1-2.18,1.41-.33.24-.7.46-1,.7-.63.52-1.28,1-1.91,1.54-.29.27-.61.53-.9.81-.55.57-1.14,1.11-1.73,1.65-.27.29-.57.56-.85.85-.53.6-1.11,1.17-1.68,1.74-.27.3-.57.58-.85.89-.56.64-1.15,1.22-1.76,1.81a26.71,26.71,0,0,1-2.94,2.68,6.75,6.75,0,0,1-2.58,1.11l-1.42-.35C607.5,573,607.4,571,607.62,569c.23-1.53.48-3.06.57-4.62.21-5.87,0-11.74.07-17.6a25.38,25.38,0,0,0-.84-7.51c-.5-1.88-.8-3.8-1.14-5.71-.35-1.38-.7-2.75-1.1-4.12-.53-1.83-.85-3.71-1.26-5.57a42.34,42.34,0,0,1-1.06-4.31,7.2,7.2,0,0,1,.77-4.46c10.58-.12,14.73,3.94,12.51,12.81-.82,3.3-1.43,6.39-.73,9.73s.89,6.84,6.07,5.16c3.83-1.24,10.28.29,8.54-6.76-2-8-.38-15,3.47-22-18.42-2.68-30.36-19-25-33.39,2.47-1.25,5.64,2.95,8.19-2.63,2.68-5.87,7.62-11.65,15.46-12.44,2.37,3.28,1.64,7,1.36,13,1.15-10.54,3.49-18.79-1.36-26.58-2.07-5.35-1.43-10.83-.88-16.34,1.07-10.73-2.07-15.55-12.07-19.3s-20.29-3-30.51-3.66c-6.32-.39-8.76,4-7.41,9.49,3,12.12,3.4,25.63,17.48,32.15A11.87,11.87,0,0,1,605.61,466c-7.43,1.58-15.22,2.23-21.11,7.93h0A5.72,5.72,0,0,1,583,471.8Z"/><path class="cls-102" d="M648.55,413.8c3-13.61,6.36-27.09,11.47-40.1,3.65-9.3,7.88-17.26,20.14-12.59a23.36,23.36,0,0,1,11.06,13c4.67,12.36,13,22.92,17.56,35.42,1.66,4.59,6.34,7,9.87,10.15A21.43,21.43,0,0,1,725.51,432c-2.77,16.73-14.31,28.3-25.46,39.17-9.85,9.6-21.18,18.45-35.2,22.19-7.77,0-13.09-6-20-8.13C641.18,461.12,641.63,437.29,648.55,413.8Z"/><path class="cls-103" d="M724.34,431.56c-3.88-9.13-15.5-12.3-18.43-21-3.93-11.66-12.1-20.93-15.69-32.41-2.08-6.64-7.51-10.92-10.06-17.06,15.16-2.67,30.5-4.61,45.41-8.31,8.09-2,9.79,1.14,10.55,7.52,5.49,13.14,1.69,26.34.47,38.52,1.14-2.79,1-6.9,2.27-10.75,8.89-4,15.29,2.52,18,7.9,8.64,17.17,23.74,22.82,40.49,26.88,3.41.83,7.54.43,9.62,4.35,2.21,1.61,1.94,4.22,2.58,6.46,4.51,6.42,6.67,13.1,2.24,20.5-1.51,7.35-1.57,15-5,21.94-26.54,2.79-44.82-14.52-65.1-26.87-5.66-3.45-11-7.35-14.06-13.62-1.41-1,1.19-4.2-2.26-4.16C725.35,431.49,724.34,431.56,724.34,431.56Z"/><path class="cls-104" d="M590.79,369c-11.11,2.78-22.19,5.65-33.33,8.32-10.4,2.49-13-.09-10.05-10.69,5.23-18.89,9.67-37.94,13-57.25.94-1.37.63-3.13,1.39-4.55l.12-4.34c-1.64-9.13-1.46-18.55,7.51-23.28,9.59-5,20.61-7.44,30.22.43,5.38,4.41,12.33,6.74,16.46,12.69-1.45,5.44-7.1,5.87-10.64,8.83-2.26,1.89-5.11,3.55-4.77,6.92.4,4,3.94,5,7.11,5.91,8.29,2.3,16.86.61,25.25,1.55a12.77,12.77,0,0,1,4.22,1.25c2.4,1.27,1.69,3.92,2.61,5.85,8.45,15.18-8.44,13.46-13.22,19.82-3.45,5.08-7.54,9.62-10.56,15.13C610.81,365.28,602,369.65,590.79,369Z"/><path class="cls-105" d="M742.78,345.21c-21.08,5.2-42.2,10.22-64,11.46-8.93.52-15.46-4.28-21-10.51-7.18-8.08-12.2-17.51-16-27.62-8.18-10.09-8.75-21.28-4.8-33.12,6.05-1.48,4.81,3.86,6.29,6.67,2.3,10.18,10.62,12.65,18.72,11.71,30.36-3.5,61.36-4.75,89.36-19.13,4.6-2.36,8.29-.89,12.44-.13,5.27,7.36,7.58,15.71,8.25,24.6-8.79,10-21.28,12.75-33.09,16.77-7.27,2.47-14.93,4.11-19.89,11.68,4.42,3.61,8.78,1.93,12.91,1.51C737.14,338.59,741.92,338.38,742.78,345.21Z"/><path class="cls-60" d="M760.65,544.87l-12.89-5.58c42.7-11.37,62.2-39.75,66.27-80.37.39-10.76-3.21-21.22-2.35-32l-2.94-10.74c4.68-1.81,6.37,2.38,9.08,4.53,5.56,11.6,5.11,25.12,12.65,36.3,6,9,12,17.62,21.24,23.52,2.68,4.18,1.69,9,2.27,13.49-4.46,22.1-21.38,32.75-39.57,41.31C797.58,543.24,779.3,545.76,760.65,544.87Z"/><path class="cls-59" d="M742.78,345.21c-4.24-7.42-10.46-2-15.79-2.51-4.12-.4-10.54,2.27-11.57-3-.77-4,3.5-8.24,8-10.88,7.46-4.37,16.11-5,23.81-8.47,8-3.59,15.93-7.27,23.9-10.91,3.65-.18,4.92,4.47,9.86,4.27,3.48-26.11-.11-50.33-17.21-71.55-.6-5.82,3.31-6,7.4-5.86,23.45,27,27.42,57.83,18.91,91.48-2.61,10.34-12.51,8.47-18.79,12.6Z"/><path class="cls-106" d="M807,427.22c-16.48-2.62-34-4.79-44.82-18.56-6.5-8.26-11.79-16.88-21.57-21.52-4-3.3-2.32-7.66-2.21-11.72,2.08-5.08,5.84-4.39,10.12-3.29,18.32,4.74,32.38,15.53,43.64,30.33,4.46,5.86,7.69,12.59,12.65,18.1C806.69,422.39,806.88,424.79,807,427.22Z"/><path class="cls-3" d="M665,492.06c25.88-14.2,48.18-31.9,59.37-60.5l.31.19c2.15-.73,2.88.52,3.21,2.31.14,12.65-8.27,21.3-15.53,29.73a142.31,142.31,0,0,1-55.21,39.93c-2.75,1.11-6,1.78-6.2,5.43s2.88,4.81,5.33,6.46c8.23,5.53,18.72,6.93,26,14.24l-2.55,3.47-4-1.52a4,4,0,0,1-2.83,1,51,51,0,0,1-12.59-4.1c-11.57-5.39-12.45-5.51-13.76,7.65-1.19,11.83-9.67,19.66-13.49,29.88-2.12,6.93-5.7,2-8.79,1.07L620,571.12c-.24,3.73-2.6,5.5-5.91,6.39a5.66,5.66,0,0,1-3-.73,2.16,2.16,0,0,1,.07-2.75l-.1-.29a3.2,3.2,0,0,0,1.69-1.88c1-1,2-2,2.93-3a2.63,2.63,0,0,0,1.8-1.6l.25-.17a8.27,8.27,0,0,0,2.23-2l.06-.05a17.11,17.11,0,0,0,2.18-2.16l0,0c.82-.64,1.53-1.42,2.3-2.12l0,0a8.11,8.11,0,0,1,2.67-2.09,13.48,13.48,0,0,0,6.39-6.39c.39-1,1.15-1.73,1.63-2.65a1.71,1.71,0,0,0,.56-1.88c1-1.43.87-3.26,1.62-4.77.18-1.44.35-2.87.53-4.3,1.82-2,.46-4.73,1.73-6.82l.54-4.18c2.36-19.08.32-38.23,1-57.33.45-12.12-1.13-24.29.88-36.36l.46-3.6c1.63-3.06-.05-6.72,1.75-9.74.23-3,.45-5.91.68-8.87l1.39-.69,2.13,2.74c-1.83,24.43-5.16,48.83-1.56,73.38C650.46,498.11,658.37,492.66,665,492.06Z"/><path class="cls-107" d="M804.78,420.56c-8.15-2.75-10.42-10.85-15.06-16.74C777,387.73,761.83,376,740.64,374c-6-5.35-.09-12.31-2.46-18.16.29-2.7-.4-7.5,4.41-4.35C769.33,369,793.87,388.7,804.78,420.56Z"/><path class="cls-108" d="M738.18,355.79c3.18,5.74,1.43,12.14,2.46,18.16l-.06,13.19c-1.84,7.87-.64,16.58-6.78,23.38,1.7-16.75,3.41-33.42,2.32-50.2Q737.16,358.06,738.18,355.79Z"/><path class="cls-109" d="M590.79,369c13.09-2.08,22.55-8.76,28.25-21,1.41-3,5-5,7.65-7.5l.12,2.63c-3.15,4.51-6.33,9-9.45,13.54-4.91,7.14-10.23,13.69-19.73,14.61C595.88,368.86,593.05,369.83,590.79,369Z"/><path class="cls-110" d="M638.1,284.89c-1.47,11.52.47,22.66,3.74,33.65l-1.93,2.1q-1.29-2.44-2.56-4.89c-6.42-6.65-4.42-15.33-5.64-23.24.6-3.44,1.2-6.88,3.61-9.64l2.45-2.4A3.14,3.14,0,0,1,638.1,284.89Z"/><path class="cls-111" d="M811.68,426.92c1.79,10.59,6.15,21,2.35,32-.75-1.57-1.49-3.15-2.24-4.73q-1.12-10.26-2.24-20.5C811.82,431.91,811.1,429.21,811.68,426.92Z"/><path class="cls-102" d="M646.42,411.06a2.66,2.66,0,0,1-1.39.69,6.21,6.21,0,0,1,1.33-6.54Z"/><path class="cls-112" d="M460.9,772.36c-1-1.76-1.21-4.74-4.45-2.38-2.68,1.94-5.23,4.34-8.24,5.48-5.08,1.93-7.65,8.92-14.29,7.27-6.21-1.55-4.95-9.6-8.53-11.8-7.43-4.56-11.79-11.81-18.19-17.1-1.83-1.52-4-2.36-6.13-1.11-13.14,7.58-8.25-5.35-7-7.49,4.45-7.61,3.88-16.47,7.57-24.15,2.26-4.68,3.68-9.79-2.1-13.72-5.57-3.8-7.89,1-11.06,3.73-1.38,1.19-2.73,2.84-4.36.3,1.76-8.33,8.15-13.59,13.39-19.45,6.59-7.36,13.9-14.08,20.87-21.1,2.72-2.44,5-5.43,8.61-6.77a6.45,6.45,0,0,1,3.11.27c3.54,2.55,2.32,6,1.3,9-2.39,7.21,1.58,7.35,6.82,6.59,4.68-.68,7.85-3.89,11.44-6.44,6.48-4.6,12.7-4.15,17.6,2.08,4.75,6,6.24,12.82-.13,18.88-5.55,5.27-9.53,12.38-18.16,14.88,2.85,3.33,5.74,2.3,8.21,1.53,7.18-2.23,13.88-1.6,20.12,2.63,6.09,4.13,10.6,2.57,15.25-2.86,17-19.92,35.21-38.73,56-54.75,5.35-4.11,5.74-11.09,10.46-15.34,8.09,1.76,4.24,8.43,5.34,13.06a1,1,0,0,1-1.26.7c-6,2.22-9.52,7.32-13.78,11.58l.28-.33c-1.57,0-2.23,1.13-2.76,2.38l-4.55,4c-6.07,3.55-10.35,9.05-15.21,13.91l.29-.31a2.45,2.45,0,0,0-2.53,2.5l.28-.29a2.62,2.62,0,0,0-2.59,2.43l.28-.3a2.84,2.84,0,0,0-2.52,2.51l.29-.29a2.87,2.87,0,0,0-2.52,2.51l.29-.3a2.78,2.78,0,0,0-2.46,2.58l.3-.31a2.68,2.68,0,0,0-2.53,2.53l.3-.31a2.69,2.69,0,0,0-2.52,2.54l.34-.29a2.68,2.68,0,0,0-1.88,1.64,21.21,21.21,0,0,1-1.24,2.36,46.51,46.51,0,0,0-4.7,6.52,16.56,16.56,0,0,1-1.7,2.29c-1.86,2.22-4.21,4-5.24,6.86a5.67,5.67,0,0,1-2.12,3.11c-2.09.8-.4,3.05-1.58,4.23C485,741.21,474.77,753,467.06,766.52,465.59,769.09,464.33,771.86,460.9,772.36Z"/><path class="cls-113" d="M564.39,653.65c-4.71-3.21-2.15-8.87-4.35-12.92-4.8-.73-8.69-4-13.41-4.91a41.47,41.47,0,0,0-17.35-3.29c-3.33.07-7.11.65-9.83-1.14-13.73-9-26.28-2-39.09,2.31-5.7,1.92-11.1,6.9-17.56,1.94-3.08-6.39,2.28-8.63,5.95-11.21,20.62-14.53,39.13-31.24,54.47-51.33.58-1.88,2-3.08,3.44-4.33a13.55,13.55,0,0,0,2.8-2.55c.92-1.33,2.07-2.48,3-3.83.43-.66.9-1.3,1.36-1.94l.75-.93c.49-.63,1-1.27,1.4-1.95s.84-1.45,1.23-2.2c.62-1.19,1.17-2.41,1.87-3.57a9.7,9.7,0,0,1,1.9-2.24,4.41,4.41,0,0,1,2.95-.56l1.43.7c3.26,2.59,5.22,6.18,7.4,9.59,3.89,6.1,2.86,11.15-3.26,15.1-1.24.8-2.51,1.56-3.7,2.43-9.42,6.9-11.5,13.43-6.87,21.53,3.67,6.4,12.91,8.58,21.68,4.31,6.59-3.2,13.22-6.65,17.9-12.72,1.8-2.33,3.57-5.25,6.43-5.91,11.76-2.7,14.33-11.21,14.88-21.6.22-4.34,1-9.13,7.42-8.55,2.64,3.37,1.5,7.28,1.58,11a10.31,10.31,0,0,1-1.52,4.23,15,15,0,0,0-.64,4.11,12.28,12.28,0,0,1-.61,2.53,47.54,47.54,0,0,0-1.68,4.64,14.89,14.89,0,0,1-.76,2.25c-.47,1.05-1,2.08-1.52,3.12a21.74,21.74,0,0,1-1,2.06c-.53,1-1,2.06-1.53,3.13-.28.76-.6,1.5-.91,2.25a31.73,31.73,0,0,1-2,4.79,3.68,3.68,0,0,1-2.37,1.37c-1.9.39-4.81-.24-4.84,2.53s4.18,1.72,5.24,4.06a12.18,12.18,0,0,1,1.44,4.78c.1,3.55.44,7.15-2.23,10.07C591.7,638.62,577.49,645.64,564.39,653.65Z"/><path class="cls-1" d="M637.62,720.91c-1.3-2.45-2.59-4.91-3.89-7.37-10.52-24.85-21.39-49.47-43-67.22-1.66-1.36-5.76-2.83-2.52-5.71,3.73-3.34,5.21-11,12.62-8.32,7.62,2.73,15.69,5,22.4,9.28,20.09,12.82,38.16,27.93,48.87,50-5,8.92-8.68,18.4-18.46,24.28C648.28,719.1,643.56,721.15,637.62,720.91Z"/><path class="cls-97" d="M611.29,576.52c3.81-.34,5.88-3.5,8.72-5.4,13.93,12.82,19.68,29.84,24.42,47.39-4.82.25-6.27,4.32-8.53,7.5-3.38,4.77-6.75,9.58-13.42,9.89-9-3.89-19.51-4.53-26.63-12.45-1.2-13.68.49-26.82,7.19-39.07C605,580.84,606.39,576.89,611.29,576.52Z"/><path class="cls-1" d="M562.29,660.8c19.56-17.27,22.32-18.49,39.56,1.53,12.69,14.74,21.74,32.2,27.65,51,.4,1.53.13,3.73-1.57,3C601.64,705,578.6,689.44,562.6,665A4.46,4.46,0,0,1,562.29,660.8Z"/><path class="cls-114" d="M562.29,660.8c11.42,17.53,27.25,30.4,44.2,42.18,7.1,4.93,15.71,6.1,23,10.34.59,1,1.17,1.94,1.75,2.92-7.64,6.13-14.59.14-21.25-1.91-21-6.45-36.17-20.93-49.18-38-2.2-2.89-4.66-5.71-8.32-7A30.34,30.34,0,0,1,562.29,660.8Z"/><path class="cls-115" d="M622.48,635.9c6.75-4.15,11.42-10.27,15-17.06,2.6-4.92,4.51-3.09,6.95-.33,5.47,10.27-5.26,15.84-7,24C630.52,644.73,627.25,638.63,622.48,635.9Z"/><path class="cls-116" d="M493.91,723.2l1.88-2.31c1.56-3.53,4.33-6.08,7-8.71l-.18.22a20.86,20.86,0,0,1,7-9l-.29.38c.31-1.25.92-1.48,1.87-.55l1.92,1.9c-18.76,22.47-34.11,47.38-50.89,71.26l-1.64-2.12q-2.55-1.18.15-2l.18.08,31.81-47.25A1.75,1.75,0,0,1,493.91,723.2Z"/><path class="cls-117" d="M611.29,576.52c-9.41,10.62-12.84,23.53-14.19,37.21-.33,3.26.56,6.65-1.25,9.72l-2-2.64c0-3.68-.07-7.36-.1-11,1.46-2.43.34-4.86,0-7.28a5.3,5.3,0,0,1,1.84-4,.88.88,0,0,0,.38-1.32c.55-1.75.72-3.62,1.52-5.3a1.6,1.6,0,0,0,.59-1.68c.28-1,1.1-1.77,1.45-2.76a2.17,2.17,0,0,0,.68-1.92,13,13,0,0,0,1.46-2.53l.67-2.16c1.3-1.23.89-3.17,1.88-4.52a2.87,2.87,0,0,0,.74-1.77c2.76-1.66,4.37.7,6.35,1.8Z"/><path class="cls-118" d="M527.11,685.94c3.65-6.18,7.19-12.49,15.21-13.91Z"/><path class="cls-118" d="M549.35,665.93c2.77-6,6.29-11.17,13.78-11.58Z"/><path class="cls-118" d="M522.56,690.27l2.59-2.43Z"/><path class="cls-118" d="M520.32,692.48l2.52-2.51Z"/><path class="cls-118" d="M518.09,694.7l2.52-2.51Z"/><path class="cls-118" d="M524.87,688.13a2.63,2.63,0,0,1,2.53-2.5Z"/><path class="cls-118" d="M515.92,697l2.46-2.58Z"/><path class="cls-118" d="M513.69,699.2l2.52-2.53Z"/><path class="cls-118" d="M511.47,701.43,514,698.9Z"/><path class="cls-118" d="M511.18,703.22a10.27,10.27,0,0,1-1.87.55,2.73,2.73,0,0,1,2.49-2.63A11.57,11.57,0,0,1,511.18,703.22Z"/><path class="cls-118" d="M546.87,668l2.76-2.38Z"/><path class="cls-119" d="M195.25,240.39l20.13-8.77c1.17-1.42,3.15-1,4.52-1.9l1.95-.61c8.53,4.81,11,12.35,7.77,21-2.69,7.17-5.81,14.38-10.69,20.55-18.7,16.11-35.77,33.83-52.26,52.16-3.18,3.53-6.47,7.1-11,9.08a39.86,39.86,0,0,1-8.49,2.26c-11.55,1.08-18.21-5.82-16.56-17.33.94-6.62,4.68-12.21,7.06-18.3,12.83-20.13,30.45-35.54,49.12-49.93C189.9,246.2,193.83,244.58,195.25,240.39Z"/><path class="cls-120" d="M184.59,245.14l-29.34,24.22C141,263,130.71,252.62,123.94,238.68c-1.87-3.86-2.58-7.94,1.23-11.14,3.66-3.06,6.8-.72,10,1.32s6.44,7.28,10.26,3.82c2.91-2.64.23-7.76-.89-11.57-2.15-7.29-6.77-13.26-12.29-18.14-7.93-7-23.27-.92-26.3,10.83-2.62,10.14-2.94,20.49,4.76,29.36,9.18,10.59,16.17,23,26.74,32.46,2.6,2.34,5.81,4.9,4.5,9.36-.68.85-1.35,1.71-2,2.57-7.28,1.68-12-2.35-16.12-7.4A370.49,370.49,0,0,1,96.63,241c-9.89-16.08-5.81-33,9.17-44.14,17.77-13.2,34-13.15,47.48,2C165.68,212.77,178.77,226.6,184.59,245.14Z"/><path class="cls-121" d="M142,285a376.71,376.71,0,0,1-36.39-44.34c-6.72-9.62-5-20.55-1.48-30.62S117,196.19,126.3,196.81c11.29.76,14.35,12.4,19.89,20.23,1.76,2.5,2.39,6.34,2.26,9.52-.15,3.71,5.27,8.21-.07,10.88-4.86,2.42-8.93-1.6-12.85-4.44-2.86-2.06-4.89-8.26-9.66-3.55-3.84,3.78.4,7.36,1.78,11,5.17,13.53,19.71,18,27.6,28.93Z"/><path class="cls-122" d="M184.59,245.14c-8.74-12.67-17.05-25.67-26.37-37.9-8-10.5-18.42-20.38-32.41-16.81-14.55,3.71-28.73,10.66-31.25,28.84a31.76,31.76,0,0,0,5.15,21.95c7.4,11.42,16.06,22,23.47,33.46a29.8,29.8,0,0,0,16.76,12.87c-9.42,13.34-11,13.08-22,.29-12.34-14.4-21.8-30.74-32.65-46.13-7-9.87-3.74-19.72-.89-29.72,6.45-9.88,14.25-18.45,24.17-25l4.36-.32c15.39-2.66,30.59-4.5,42.21,9.53,9.45,13,19.06,25.87,28.21,39.07C185.14,237.88,190.15,241.16,184.59,245.14Z"/><path class="cls-123" d="M141.6,351.52c-8.37,14.14-17.09,28.1-24.95,42.53-3.48,6.38-5.71,5.63-10,1.08-5.18-5.45-9.9-10.81-9.35-18.95,1.42-10.54,4.41-20.48,11.06-29C120.2,342.64,131.28,344.21,141.6,351.52Z"/><path class="cls-124" d="M141.6,351.52c-11-1.95-22-4.36-33.26-4.36,6.63-18.1,17.46-33.67,29.31-48.62.43,4.94-1.52,9.41-3,13.94-1.84,5.78-3.52,11.63,1.54,16.46,4.63,4.43,10.15,3,15.56,1.19a30.39,30.39,0,0,1,5.43-.81c1.79,5.61-3,8.58-5.06,12.66l-1.23.78C146.24,344,145.48,349.41,141.6,351.52Z"/><path class="cls-125" d="M64.4,756l2.37,6.61c6.34,12.24,9.86,25.59,14.92,38.33.82,3.5,6.12,6.22,3.91,9.63-4.15,6.4-9.49,12.07-14.67,17.73-1.67,1.82-3-.73-4.38-1.69-7.49-5.11-30.37-5.31-37.61-.3-1.14.78-1.76,2.31-2.61,3.49-1.18-.69-3.22-1.22-3.39-2.11-3.21-17.11-9.72-33.62-9.51-51.35,5.94,6.18,3.29-1.45,4.42-2.82,1.79-2.16.65-6.76,4.11-7.09,4.18-.41,4.91,4,5.88,6.92,1.84,5.53,2.78,11.36,4.51,16.93.84,2.72,2.28,6,6.09,5,2.84-.76,3.35-3.62,3.37-6.32,0-5.53-.65-11.18.28-16.56,1.31-7.62,1.61-17,14.22-14.14C58.7,758.85,61.69,756.86,64.4,756Z"/><path class="cls-126" d="M8.61,876.37c-4.42-3-1.42-6.21-.24-9.41a121.88,121.88,0,0,1,15.47-28.4l4.4-6.67c8.93-6.78,19.08-5.53,29.21-4.4C45.23,847.84,33.2,868.38,8.61,876.37Z"/><path class="cls-127" d="M319.81,203.36l2.32-.68a3.53,3.53,0,0,1,2.11-1.38l8.95-2.76c1.39,4.82-4.37,6.45-4.91,12.08,28.89.82,55.67-4.21,81-22-9.49-1.35-18.64,4.81-25.17-3.91,33.27-9.38,66.8-8.68,100.46-2.56,3.23-1.93,6-.19,8.87,1a12.19,12.19,0,0,1,5.09,4.12,8.89,8.89,0,0,1,.25,3.48c-2.62,12.47-10.85,20.25-22.19,24.34-22.36,8.07-45.08,14.1-69.35,13.37-15.17-.46-30,4.08-45.08,6-7.37-.44-15.6.35-14-11.41.63-4.69-3.48-3.86-6.17-4-8.07-.29-16.17.41-24.21-.41-5.51-.57-11.31-1.45-11.12-9.21l5.9-2.72c1.14-.11,1.91-1,2.88-1.43a3.49,3.49,0,0,1,2-.6A10.36,10.36,0,0,1,319.81,203.36Z"/><path class="cls-128" d="M590.92,207.12c9.86,9.57,19.57,19.31,29.63,28.67,14,13.05,22.35,27.42,12.6,46.77-6,.64-6.92-4.51-8.9-8.11-11.37-20.56-28.29-36.37-44.71-52.62-6-4.94-11.56-10.54-19.21-13.07-11.36-.49-21-5-30.9-10.56-14-7.86-30-12-44.92-18.13a5.06,5.06,0,0,0-.29-1.77c3.24-7.51,9.35-6.66,15.72-5.58,8.49,1.44,17,4.65,25.55.07,5-2.06,9.36-.06,13.78,2,18.16,8.35,35.62,17.84,51,30.84C590.47,206.1,590.69,206.61,590.92,207.12Z"/><path class="cls-129" d="M384.06,184.72c8.27,4.57,16.6,0,24.9.21,2.1,0,4.88-.53,5.43,2.38.37,2-1.53,3.09-3.13,4.11-15.65,10-32.15,17.83-50.81,20.06-9.84,1.17-19.64,3.4-29.67,2.27-2.78-.31-6.52,1.23-7.88-2.3-1.64-4.24,2.37-5.41,5-7.38,2-1.53,3.57-3.66,5.33-5.53C349.27,190.7,366.66,187.7,384.06,184.72Z"/><path class="cls-130" d="M306.6,209.53c2.63,5.31,7.06,6.71,12.72,6.55,9.87-.28,19.77-.17,29.65,0,2.52,0,7.91-.12,4.72,4.19-10.8,14.55,2.27,10.16,8.47,11.35-2.81,8.35-10.87,3.31-15.82,6.22a16.91,16.91,0,0,1-5,.15,23.74,23.74,0,0,1-3.24-.62c-4.8-1.31-9.7-.65-14.57-.68-2.89,0-5.77.07-8.67.09-7.22-.27-14.57.82-21.55-1.88-5.46-2.11-11.06-4.19-10.91-11.61a3.62,3.62,0,0,1,1.62-.73c.85-.59,1.69-1.2,2.51-1.83C292.83,216.33,299.29,212.17,306.6,209.53Z"/><path class="cls-131" d="M526.69,173.72c-5.54,7.66-13,4.54-20,3.33-7.68-1.35-15.28-4.25-22.52,1.25l-1.05.11-1-.44c-2.09-1.66-4.95-.26-7.08-1.78l-6.27-.66c-9.7-2-19.64.72-29.33-1.54l-30.07,1.53c9.11-6.87,20.62-6.61,30.77-10.41l34.1-2.25c14.82.75,29.72.84,44.1,5.3a67.59,67.59,0,0,1,7.24,4.26Z"/><path class="cls-132" d="M282.38,223.29c8,13.23,21.49,9.62,33.42,10.75-3.69,8-11.05,3.77-16.76,5.07-8.87,0-17.19,4.67-26.25,3.26-8-1.34-14.69,4.07-23.81,4.5L263.2,234.1Z"/><path class="cls-133" d="M484.51,180.07c20.05,3.25,39.32,9.33,55.54,21.53,7.58,5.71,16,.38,22.75,5.22-1,2.2-3,3.23-5.06,4.13a14.9,14.9,0,0,1-3.23.84c-3.87.41-7.73.52-11.46-.92-2-.85-3.51-2.48-5.47-3.4-12.19-8.89-27.23-12.22-39.79-20.4h0c-1.24-1.32-3.17-.95-4.57-1.88l-8.7-3A9.74,9.74,0,0,0,484.51,180.07Z"/><path class="cls-128" d="M439.53,174c9.8.11,19.73-2.33,29.33,1.54C459.05,175.62,449.18,176.87,439.53,174Z"/><path class="cls-128" d="M475.13,176.19c2.66-.58,5.2-.74,7.08,1.78C479.65,178.2,477.2,178,475.13,176.19Z"/><path class="cls-130" d="M319.81,203.36l-2.45,1.42Z"/><path class="cls-130" d="M315.38,205.38l-2.87,1.43Z"/><path class="cls-132" d="M286.51,220.73,284,222.57Z"/><path class="cls-130" d="M324.24,201.3l-2.11,1.38Z"/><path class="cls-54" d="M517.49,142.53c6-10.49,17.27-12.41,25-4.23,3.74,3.94,8.6,5.67,13.66,6.83,25.48,5.87,50.5,4.54,74.93-5.13,6.52-6,15.51-7.68,22.47-12.91l-.11.12L682.74,112a35.2,35.2,0,0,1,3.88-2.15c10.35-3.77,21.53-5.7,31.49-1.5,13.07,5.5,4.21,18.36,6.58,27.65a3.78,3.78,0,0,1-1.78.63l-1-.53c1-1.11.42-2.41,0-1-1.83,6.11-5.94,11-8.48,16.76-16.11,36.35-44.81,58.67-80.89,72.84-5.69,2.24-11.33,3.38-17.13.52-8.76-5.23-12.81-16.85-24.52-18.07l.17.13C570.36,192,549.62,177,523.76,171c-12.26-2.83-13.28-5.68-10-18.28C514.61,149.22,514.69,145.36,517.49,142.53Z"/><path class="cls-134" d="M856.29,503.68l2.6-20.52c7.61,9.59,13.55,19,17.62,29.55.85,2.21,3.24,4.9.46,6.85-1.46,1-4.29.72-6.28.18a102.87,102.87,0,0,1-10.27-3.88C858.15,512.1,855.3,508.54,856.29,503.68Z"/><path class="cls-135" d="M851.18,547.69l-19.62-11.5c-2.89-3.17-2.23-5.17,1.48-7.48,4.87-3,9.21-6.93,13.78-10.46,3.38-.78,6.14.22,6.09,3.92C852.8,530.69,855.45,539.45,851.18,547.69Z"/><path class="cls-136" d="M851.18,547.69c0-7.38-.28-14.78.25-22.12.29-4.05-1.64-5.79-4.61-7.32l6.46-7.73c2.19,11.47,1.87,21.61,2,31.7C852.7,543.11,856.87,549.12,851.18,547.69Z"/><path class="cls-137" d="M808.83,547.05c-2.45,1.85-.32,8.86-6.27,6.3-2.55-1.11-9.4-1.93-4.32-8C801.55,547.28,806.69,537.84,808.83,547.05Z"/><path class="cls-138" d="M851.71,480.53c-4.53.7-7.77-1.45-10.63-4.65-14.05-15.75-23.55-33.39-23.26-55.17C837.25,436,850.29,455,851.71,480.53Z"/><path class="cls-139" d="M6.36,936.62c6.36-17,18.5-30.72,26.23-46.93C52,861.81,71,833.62,93.13,807.71c4-7.07,10.59-11.05,17.39-14.82,3.14.3,7.41-1.78,9,2,1.88,4.34-1.13,8.53-4.49,10.42-31.06,17.48-36.47,54.37-60,77.5C83.3,860.48,107.53,835,120.9,801c2-5.16,3.66-10.49,6.71-15.21,2.73-2.28,6-2.73,9.37-2.7,11-1.29,21.29,2.6,31.46,5.55,11.76,3.4,14.81,14.32,8.27,25-3.15,5.11-7.62,9.13-11.86,13.17C142.71,847.85,125,873.85,99,890.49c-27.23,17.44-51.8,39.58-83.45,49.63C8,942.53,7.94,942.53,6.36,936.62Z"/><path class="cls-140" d="M8.61,876.37c17.06-11,32.16-23.81,41.65-42.32,1.38-2.71,4.74-4.4,7.19-6.56,8.25,2.27,11.32,5.62,4.73,13.72A251.25,251.25,0,0,0,40.4,872c-4.26,7.22-11.06,4.25-16.4,6.62C18.87,877.82,13.27,880.42,8.61,876.37Z"/><path class="cls-141" d="M111,794.57c-7,2.92-11.57,9.22-17.86,13.14,0-.87-.11-1.75-.16-2.62,16.93-19.43,39.12-26,63.93-26l5,2.4q0,.88,0,1.77c-7.83,5.6-16.69-2-24.65,1.92-3,.36-6.23-.09-8.72,2.26C124,793.08,117,792.46,111,794.57Z"/><path class="cls-142" d="M81.69,801C74,789.27,70.41,776,66.77,762.65l2.06-4.55c4.51,13.72,7.81,27.89,15.09,40.58Z"/><path class="cls-52" d="M638.1,284.89l-.33-4.42c1.57-15.74,9.91-25.07,25.18-28.41,3.53-.77,7-2,10.44-3l65.07-15c11-.57,22.38-6.92,32.71,2.23-1.61,2.73-7.56,1.51-6.25,6.89,2.69,3.55.8,6.9-.39,10.29-2.72,6.76-.21,14.06-2.15,20.88-.5,1.76-1.47,4.09-3.42,3.64-2.67-.61-2.56-3.2-2.09-5.61-1.73,8.24-6.53,13.6-14.78,15.42-25.3,5.58-50.27,12.83-76.2,15.17-9.85.89-19.33-.08-25.82-9.1C639.62,290.83,640.87,287.42,638.1,284.89Z"/><path class="cls-143" d="M233.28,260.72c13-7.94,27.48-12,41.84-16.4,7.76-5.1,17.07-4.65,25.58-7.06,5.43-.36,10.91.38,16.31-.63,7.08,1.35,14.31.31,21.4,1.32,1.72.29,3.47.36,5.2.57a32.9,32.9,0,0,0,8.37,1.24c6.94.22,13.76.86,19.25,5.83,4,7.7,3.59,15.33-2.4,21.53-9,9.34-17.39,19.18-26.13,28.73-3.85,4.19-8.34,8-14.43,6.77-8.93-1.82-14.8,2.71-20.56,8.28s-11,12.14-18.61,15.61c-2.7,1.23-5.66,2.86-8.43,1.08-3.2-2.06-1.78-5.22-.78-8s2.47-5.94-1.13-7.78c-4.06-2.07-6.1,1.32-8,4-6.09,8.39-12.92,16.2-19,24.64-2.59,3.61-5.39,7.52-10.54,2.36-4.64-4.65-6.54,1.1-8.05,3.4-6.88,10.53-14.32,20.71-20.32,31.8-2.65,4.88-5.14,9.87-9.7,13.37-7.51,4.1-12.8,2.26-14.6-6.26-1-4.79-4-6.53-8.07-7.69a4,4,0,0,1-1.75-2.5,13.53,13.53,0,0,1,.65-4.68,241.44,241.44,0,0,1,18.12-35.85c.74-1.32,1.51-2.64,2.26-4a27.77,27.77,0,0,1,1.54-2.63c3-4.15,5.19-8.75,9-14.38-6.36,4.45-11.65,7.67-16.87,11-5,3.25-9,2.26-10.74-4a10.93,10.93,0,0,1,.3-3.07c4.17-13,14.74-21.83,21.47-33.17,4.4-5.57,9.89-10.09,14.73-15.23A28,28,0,0,1,233.28,260.72Z"/><path class="cls-144" d="M233.28,260.72c-3,4.5-8,6-12.3,8.68q-2.16,1.64-3.64-.63c3.34-6.37,6.55-12.81,10-19.08,4.89-8.76-3.63-13.74-5.54-20.58,13-10.09,22,1.55,34.2,4.83C246.58,243,235.2,248,233.28,260.72Z"/><path class="cls-145" d="M300.24,238.63l-25.12,5.69-2.33-1.95a78.7,78.7,0,0,1,25-6.09C298.63,237,300.05,237.19,300.24,238.63Z"/><path class="cls-144" d="M219.9,229.72l-4.52,1.9A4.33,4.33,0,0,1,219.9,229.72Z"/><path class="cls-112" d="M460.72,772.28q-.11,1-.15,2l-9.05,9C450.48,776.17,456.2,774.73,460.72,772.28Z"/><path class="cls-73" d="M682.21,529.85A146,146,0,0,1,652.78,517c-3.51-2-7-4.08-6.47-9.29s5.1-4.64,8.19-6c32.22-14,58.38-34.42,72.67-67.64.25-1.13.78-1.34,1.63-.49C745,451.91,766.7,462,787.74,473.1a7.93,7.93,0,0,0,8.44-.6c5.43-3.88,8.27-1,10.63,3.62-7,34.74-31.2,55.39-70.94,60.56C717.59,537.53,699.84,534.15,682.21,529.85Z"/><path class="cls-146" d="M615.44,225.19c22.89-1.89,41.31-13.71,58.87-27,20.53-15.57,32.78-37.5,44.32-59.8,1.43-2.78,1.61-6.2,2.79-11.1l1.49,9.36c-10.26,47.14-41.55,74.9-84.59,91.89-3.41,1.34-6.58,3.29-9.87,5C622.69,233,618.5,230,615.44,225.19Z"/><path class="cls-147" d="M580.54,219.94c16.92,15.22,33.31,30.84,44.53,51.09,2.23,4,3.93,8.72,8.08,11.53.72.12,1.45.22,2.17.31,0,3,1.92,6.41-1.76,8.67-5.91,2.07-11.84,5.06-17.7-.12-5.88-2.95-11.8-5.89-16.48-10.6-4.89-4.92-10.48-4.92-17.07-4.86-17.2.15-17.7,13-20.37,24.53l-2.29-.05a6.74,6.74,0,0,1-2-4.37,19.07,19.07,0,0,1,.58-6.38,32.19,32.19,0,0,0,1.32-7.62c1.44-9.13,2.95-18.28,5.9-27.06,3.37-10,8.49-11.34,14.3-2.57,7.61,11.49,18.6,18.77,29,27a19.78,19.78,0,0,0,5.64,3.47c2.44.85,5.17,1.95,7.26-.28,2.28-2.42.44-4.93-.85-7.08-7.87-13.05-18-24.32-28.27-35.47-4.95-5.36-11.51-9.53-13.23-17.37A3.27,3.27,0,0,1,580.54,219.94Z"/><path class="cls-97" d="M632,567.41c-1.77-1.89-4.1-3.73-1-6.35,10.81-9.2,12.88-22,14.07-35,.59-6.41,1.9-7.67,7.8-4.28,6.68,3.82,14,6.56,21,9.76-.62,11.63-5.17,22.32-9.05,32.94-4.85,13.29-9.58,26.25-7.35,40.66l.91-.06-2.84,4.45c-3.57.73-4.39-2.2-5.83-4.33-3.93-9.33-7.38-18.88-12.63-27.6C635.72,574,632.76,571.26,632,567.41Z"/><path class="cls-148" d="M651.5,605.12l4,4.42c-1,3.25-3.35,5.49-6.55,8.35-5.11-18.8-14.53-34.91-24.78-50.59,2.65-3.56,5.11,5.15,7.78.11,3.93,1.84,6.72,4.42,6,9.26C643.91,585.48,644.24,596.94,651.5,605.12Z"/><path class="cls-149" d="M552,10.87c5.55-6.58,12.14-7.48,24.65-3.35.95,1.51,3.79,4.65-.79,3.43C567.78,8.79,560,10.77,552,10.87Z"/><path class="cls-150" d="M517.49,142.53c-5.91,22.1-5.84,21.91,15.56,29,20.93,6.92,38.68,19.65,56.59,32,1.22.85,2.09,2,1.45,3.72-17.78-9.83-34-22.4-53-30-3.68-1.48-7.08-4-11.38-3.5h0c-1.81-2.06-4.84-.25-6.71-2.11-14.66-5.86-30.52-5.44-45.67-8.76,3.3-.68,7.05.86,9.9-2a39.93,39.93,0,0,1,4.38.07c22.47,2.82,22.47,2.83,25.36-19.93.48-.25.95-.5,1.42-.77Z"/><path class="cls-151" d="M137.27,785.15c8-3.77,16.47-.85,24.65-1.92l20,6.87c6,11.46,5,20.53-3.11,30.52-22,27.17-48.38,49.77-74.84,72.26-22,18.71-46,34.3-73.16,44.92-6.07,2.37-13.14,2.75-18.08,7.81l-4.26,0c-4.52-2.09-6.13-4.86-2.12-9,1.49,6.37,5.63,1.88,7.71,1.26C28.31,933.6,42.17,927.24,53.3,918c15.58-13,34.86-20.08,49.59-34.05,11.64-11,24.52-20.25,34.44-33.69,8.65-11.72,21.56-20.71,31.81-31.74,5.21-5.61,10.55-11.32,7.82-19.23-2.34-6.75-8.91-8.7-15.87-9.87C153.15,788.05,145.49,785,137.27,785.15Z"/><path class="cls-51" d="M657.44,605.15c-4.47-8.68-4.52-17.26-.9-26.47,5.88-14.94,11.76-29.94,14.4-45.94.08-.54,1.89-.8,2.9-1.19a3.69,3.69,0,0,1,1.8.25c1,13.78-2.42,26.91-5.9,40Z"/><path class="cls-152" d="M684.62,84.74l-19.55-3c8-5.85,14.4-4.62,19.42,3.13Z"/><path class="cls-11" d="M653.56,127.09c-6,6.83-14.49,9.46-22.47,12.91l-2.79-2.38C637,134.73,644.36,128.74,653.56,127.09Z"/><path class="cls-152" d="M684.49,84.9,698.35,88c-6.83,1.66-11.4,2.81-13.73-3.28Z"/><path class="cls-153" d="M461.5,91.34a34.69,34.69,0,0,1-5.8-16.07c4.77-.39,9.79.45,11.58,4C469.44,83.63,464.09,86.41,461.5,91.34Z"/><path class="cls-154" d="M622.39,56c-2.85-.25-4.79-.84-3.79-4.66,1.1-4.15,1.41-8.5,2.15-13.37,4.63,6,4.23,11.87,1.68,18Z"/><path class="cls-155" d="M564.29,56.31c-4.41-4-10.06-2.93-15.19-4.54,17.46-3.69,34.17-1.4,50.75,5.91-2.11,4.54-5.41,4.66-8.67,4.89C582.27,60.24,572.3,62.48,564.29,56.31Z"/><path class="cls-156" d="M564.29,56.31c8.65,3.4,19.19-1.27,26.89,6.26a13.64,13.64,0,0,1-2.74,1.75c-5.49,1.86-11.3,5.55-16.46,4.81C567.05,68.43,568.26,60,564.29,56.31Z"/><path class="cls-157" d="M553.28,58c8.14-.65,14,5.24,12.07,12.3a4.12,4.12,0,0,1-3.81,3.32c-2.48.24-2.65-1.53-3.3-3.32-.8-2.21,2.19-8-4.5-5.38l-1.27-1A4.87,4.87,0,0,1,553.28,58Z"/><path class="cls-158" d="M553.74,64.94c-3,2-4,4.51-2.94,8.21.91,3-.06,6.52-3.73,6.36-4.55-.22-2.6-4.42-2.4-6.81.24-2.81,1.6-5.53,2.48-8.29,2-1.53,4-1.33,5.83.24Z"/><path class="cls-159" d="M553,64.65l-5.83-.24c-.5-4.56,2.18-6.08,6.13-6.39C553.86,60.26,554.23,62.49,553,64.65Z"/><path class="cls-160" d="M202,389.5c8.51-13.32,17.23-26.51,25.44-40a53.75,53.75,0,0,1,13.71-15.14c5,2.08-1.72,8.29,3.7,9,4.07.52,4.41-4.35,6.34-6.75,6.44-8,12.23-16.57,18.78-24.5,2.29-2.78,3.95-8.59,10.24-3.72,5.16,4,6.54,7.12,2,12.17-1.09,1.19-1.26,3.21-2.18,5.76,10.18-.82,15.64-7.29,21.57-13.05,8-7.77,14.74-16.83,28.9-13.26,7.41,1.87,11.6-7.05,15.9-12.14,4.77-5.65,9.32-11.51,14.93-16.24,7.7-6.49,11.7-14,9.56-24.17,16.86-3,28.16,8.58,23,23.74-6.92,20.24-13.23,40.62-16.35,61.86-.42,2.92-1.39,5.75-.23,8.68a35.16,35.16,0,0,1,1.32,4.75,3.6,3.6,0,0,1-.92,2.95c-8.79,10.07-22.12,14.92-30.49,25.07-24.69,29.92-60.45,41.39-93.78,56.38-10.57,4.75-22.21,10.33-35.59,8.82-5.44-.62-12.24,4.12-17.95,7-22.16,11.28-44.4,10.39-68.41,6.41-16.3-2.71-21.83-12.13-27.6-24,12-28.79,28.54-55.09,44.83-81.52a45.12,45.12,0,0,0,2.24-4.83l-.09.1a146.22,146.22,0,0,1,19.73-25.19c2.67-2.79,4.75-6.85,9.62-6.65,3.34,1.32,6.51,2.73,4,7.26h0c-2.14,6.52-1.08,9.92,6.85,7.52,4.32-1.3,9.8-4.79,11.08,3.66-.06.72-.11,1.43-.15,2.14a12.67,12.67,0,0,0-2,2.37c-5.62,12.73-13.93,24.18-18,37.65-.79.68-1.35,1.58-2.11,2.31,0,.72,0,1.45-.05,2.17.46,4.25-1.94,7.7-3,11.74,2.28-.27,4.09-2.53,6.68-2.05,4.11.75,4.93,3.76,5.23,7.26.24,2.9-1.26,5.72-.13,9.53C194.74,399.72,197.55,393.67,202,389.5Z"/><path class="cls-161" d="M377.68,349.42a5.53,5.53,0,0,0-.65-2.1,4.86,4.86,0,0,0-1.57-2.36c-4.53-7.27-.29-14.44.81-21.37,3.07-19.3,9-37.95,16.28-56,3-7.35,1.41-10.81-5.44-13.34-5.5-2-10.17-6.06-16.23-6.78-5.87-4.13-12.64-4.77-19.51-5.06-2.14-1.44-4.95-.15-7.06-1.72l-4.14-.42a2.09,2.09,0,0,1-1.47-1.76,3.45,3.45,0,0,1,1.06-2.19l4.2.05a136.66,136.66,0,0,1,23.8,2.11c11.93,4.87,24,9.5,35.58,15.17.1,7.55-3.6,14-5.89,20.91-4.59,13.67-10.66,26.87-12.63,41.33a78.72,78.72,0,0,1-2.89,11.33c-3.37,6.84.82,14-.89,20.92-.35.42-.72.84-1.08,1.25Z"/><path class="cls-162" d="M257.8,550.25c-5.23,7.15-10.37,14.85-20.87,13.64C243.85,559.36,251.93,556.62,257.8,550.25Z"/><path class="cls-161" d="M382.17,353.86c-2.06-.85-2.24-2.62-2.21-4.5l0,.06c1.9-.75,2.71.37,3.28,1.91a3.23,3.23,0,0,1-1.14,2.63Z"/><path class="cls-163" d="M235.23,765.43c-16.85-9.28-32.66-20.5-50.86-27.27,15.27.1,27.06,9,38.79,16.83C227.2,757.69,236.53,756.15,235.23,765.43Z"/><path class="cls-164" d="M426.41,665.18,420,671.76c-19,14.8-32.38,35.1-50.08,51.18-5.54,5-10.5,11.18-19,11.13.36-4.57,2.33-8.85-1.87-13.39-5.2-5.62-4.77-12.08-.83-19.17,4.42-8,7.58-16.72,10.48-25.4,2.26-6.76,3-13.68-5.19-18-5.67-3-4-8-2.24-12.52,2.61-6.65,2.7-11.73-3.47-17.55-8.37-7.91.54-15.41,3.25-22.9,8.43-5.64,14.14-12.56,13.51-23.67-.6-10.52,10.77-9.61,15.83-15,11.57-12.32,30.36-13.77,41.92-26.52,15.16,4.23,20.05-10.07,29.49-16.21,3.37-2.19,7.22-4.26,11.08-4.88,4.52-.72,10.68-2.72,13.59,1.37,3.45,4.86-4.12,6.9-5.28,10.68-4.35,14.11-15.51,23.42-23.51,34.94-1.85,2.65-2.18,6.33-3.91,9.09-4.19,6.69-3.35,10.95,3.12,16.57,8,6.92,14,13.41,23.68,3,2.69-2.9,6.52-3,9.59.8s-.12,5.75-1.93,8.44c-3.43,5.06-11.19,8.4-7.16,16.68-1.38,6.86-7.83,9.8-12.17,13.7C447.68,644.16,437.75,655.41,426.41,665.18Z"/><path class="cls-165" d="M522,467.41c13.18,9.3,23.93,20.79,31.58,35.07-1,6.93-4.21,7.59-8.22,2.28-8.27-10.94-20-17.46-31-25-3.81-2.6-7.41-4.7-12.27-2.61-3.62,1.56-6-.5-6.15-4-.15-4.17,2.19-5.84,6.55-4.72C509.09,470.17,515.68,470.52,522,467.41Z"/><path class="cls-166" d="M426.41,665.18c4.37-12.51,16.24-18.4,24.54-27.42,5.94-6.46,13.32-11.59,20.05-17.32a282.26,282.26,0,0,0,51.27-48.63,2.22,2.22,0,0,1,3.37.39c-15.18,21.64-35.36,38.15-55.84,54.35-2.8,2.21-6.8,3.17-7.82,7.29,0,.51-.07,1-.09,1.52a9.6,9.6,0,0,1-1.49,2.6c-5.39,5-11.7,9-16.51,14.63-1,1.08-2.07,2.11-3.13,3.14-4.08,3.41-6.91,8.65-13.06,9.07A1.81,1.81,0,0,0,426.41,665.18Z"/><path class="cls-167" d="M558.41,518.27l1,0c-1,13-7.59,23-17,31.42l-.14.18a9.58,9.58,0,0,1-2.29.74,2,2,0,0,1-2-1C546.91,540.54,548.1,526.45,558.41,518.27Z"/><path class="cls-168" d="M538.06,549.66l3,.33a4.58,4.58,0,0,0-.37,1.75,2.17,2.17,0,0,0-.79,2,17.38,17.38,0,0,0-1.6,2.47,1.6,1.6,0,0,0-.81,1.53,5.31,5.31,0,0,1-2,2.93l0,0a16.09,16.09,0,0,0-1.85,2.27L531,567c-.47,1-1.34,1.69-1.81,2.67l-3.53,2.56-3.37-.39Z"/><path class="cls-169" d="M350.85,734.07c16-7.32,26.51-20.94,38-33.47,8.75-9.54,17.84-18.76,26.85-28.05,1.08-1.11,2.35-3.37,4.28-.79l-35.85,39.63c-10.51,9.28-18.11,22.26-33,25.91C351,736.23,350.93,735.15,350.85,734.07Z"/><path class="cls-68" d="M241.86,769.87a4,4,0,0,1,4.62,1.59A4.54,4.54,0,0,1,241.86,769.87Z"/><path class="cls-151" d="M168.55,782.42c-1.65.51-3.18.48-4.41-.95A3.7,3.7,0,0,1,168.55,782.42Z"/><path class="cls-170" d="M559.45,296l.21,4.44q-8.71,35.32-17.38,70.68c-.9,3.72.5,7.17,1.8,10.73Q561,428.13,577.6,474.56c3.48,9.75-2.34,22.9-14.62,34.25C537.4,469,501.1,442,459,422.05c-5-2.37-9.82-5.06-14.73-7.6-6.61-10.82-1-24.16,11.52-27.12a31.06,31.06,0,0,1,17.43,1.15c14,4.78,31.45,2.26,38.84,20.76,1.74,4.34,8.94,7.3,14.64,9.19,6.54,6.49,7.81,15.45,10.72,23.58,4.45,12.39,10.58,24,15.77,36.06,2.44,4.69,3.3,9.87,4.86,13.48a57.88,57.88,0,0,0-5.29-14.11c-13.36-29.21-24.07-59.46-36.15-89.17A28.32,28.32,0,0,1,514.51,370c5.4-24.43,11.92-48.61,16.83-73.16.85-4.25.93-8.89,3.87-12.55,9.86-7.13,11.56-6.9,17.69,3A65,65,0,0,0,559.45,296Z"/><path class="cls-171" d="M542.49,549.71l17-31.42c10.9-9.62,19.15-21,23-35.22,7.24-2.57,5.87,4.86,8.7,6.61-.17-2.76-4.47-5-3.32-9-1.1-2.23-2.2-4.47-3.31-6.7,4.3-9.33,10.23-13.76,20-6.66,7.18,2.51,6.63,7.63,4.49,13.3-4.91,14.77,9.3,19.82,15,29.17,1.34,2.19,3.87,1.62,5.83,0,2.22-1.85,4.46-2.77,6.64,0a5.19,5.19,0,0,1-.28,7.13c-6,5.8-4.52,12.12-3.15,19.26.92,4.82,2.44,13.87-8.46,8.35a2.13,2.13,0,0,0-1.05-.34c-11.07.77-14.54-5.47-9.6-17.28,2.56-6.12,2.16-6.55-9.67-10.14-3,7.33,2.21,13.51,3.13,20.29.6,4.36,1.75,8.62,1.4,13.09a4.77,4.77,0,0,1-2.52,4c-4.92,2.75-3.52,7.54-4,11.85-1.12,9.21-1.71,19-14.67,19.48-3.47.13-4.32,3.57-6.25,5.72-8,8.89-16.84,15.8-29.74,16.46-8.76.45-13.86-2.34-16.84-10.64-2.91-8.12-.9-14,5.21-19.78,4.18-4,13.18-3.78,12.78-10.84C552.35,559.88,546.58,554.89,542.49,549.71Z"/><path class="cls-172" d="M515.6,371.58q1.15,7.95,2.3,15.91a11.93,11.93,0,0,1,2.15,6.8,12,12,0,0,0,1.54,3.89c.6,3.12,2.65,5.81,2.79,9.07a10.25,10.25,0,0,0,.85,3.78c.39.78.77,1.55,1.15,2.33.51,1.21,1.16,2.35,1.61,3.59a3.7,3.7,0,0,1-1.08,3.61c-11-3.33-21.23-7.58-25-20-1.46-4.77-3.6-7.3-9.67-5.4-6.94,2.17-13.5-1.66-20-4-7.55-2.65-15.56-4-22,1.62s-9.87,12.79-6,21.62c-23.46-3.09-38.93-16.13-47.79-37.83-2.61-6.38-6.39-12.29-9.63-18.41,2.09-6,7-5.77,11.92-5.19,11.06,1.31,22.09,3.47,32.15,8.08a84.52,84.52,0,0,0,38.81,7.36c13.73-.49,27.07,4.19,40.8,2.32a10.84,10.84,0,0,1,3.55-.06Z"/><path class="cls-173" d="M513.35,371.65c-2.29,3-5.11,3.12-8.79,2.75-18.63-1.88-37.3-3.39-56-4.85-14.85-1.17-27-11.21-41.89-12.32-6.69-.5-13.5-4.29-19.89,1l-2.55-4.12a9.13,9.13,0,0,1-1.69-2.43l-2.66-2.24c.15-7.46-5.66-14.89-.08-22.36,4.2,11.63,14,15.24,24.86,17,5.5.88,11,1.57,16.07,4,22.37,10.62,46.59,13,70.64,16.47,8.55,1.24,15.86-1.07,23.23-4.52,1.92.75,2.28,2.31,2.16,4.12C515.73,366.63,515.46,369.56,513.35,371.65Z"/><path class="cls-174" d="M587.81,480.65c3,4.87,6.92,9.35,7.21,15.81-7.51-1.79-4.46-12.77-12.59-13.39C583.09,479.75,585.91,481.22,587.81,480.65Z"/><path class="cls-170" d="M561.82,304.83a4.1,4.1,0,0,1-1.39,4.55C560.89,307.86,561.36,306.34,561.82,304.83Z"/><path class="cls-171" d="M583,471.8,584.5,474Z"/><path class="cls-172" d="M382.57,351.66l1.69,2.43-1.1-.16-1.11,0C382.23,353.2,382.4,352.43,382.57,351.66Z"/><path class="cls-175" d="M609,480.59c-1.55-4.42-1.18-9.48-4.49-13.3-2.78-6.06-4.28-13.49-13.79-12-.92.14-2.88-1.52-3.11-2.6-2.39-11.45-10.08-21.31-9.82-33.57.12-5.41,1.08-9.83,7.67-9.57,12.67.5,25.6-.29,37.55,5,8.81,3.87,14.14,9.83,11.29,20.74-1.36,5.2-.63,11-.85,16.46,1.7,4.84,1.22,9.3-2.29,13.24-2.74,8.82-14.38,10.8-15.71,22C615,490.51,612.64,481.42,609,480.59Z"/><path class="cls-171" d="M642.14,434c0,26.91.2,53.83,0,80.74,0,4.3.46,8.9-1.93,12.95q-.09-42.16-.13-84.32C640.1,440.12,639.2,436.58,642.14,434Z"/><path class="cls-171" d="M631.15,465c0-4.55-.34-9.15,2.29-13.24,4.64.53,4.18,4,4.47,7.32.82,9.19-2.12,17.81-4.08,26.8C629.61,479.34,632,471.91,631.15,465Z"/><path class="cls-176" d="M607.14,549.16c-.71-10.68-4.42-20.7-6.75-31-.3-1.34-1.92-3.8,1-4.29.78-.13,1.92,1.87,2.89,2.9.35,1.34.69,2.68,1,4,.1,1.07,1.09,1.77,1.19,2.85.35,2,.71,4,1.06,6a22.28,22.28,0,0,0,1.2,2.74l.78,6.16c.77,2.1.46,4.3.53,6.46C609.63,546.79,611,549.81,607.14,549.16Z"/><path class="cls-177" d="M607.14,549.16c.61-1.35,1.22-2.71,1.84-4.06.93-1,1.6-.83,2,.47q0,10.57-.05,21.14c-.17,1.07-1.07,1.78-1.41,2.76-.46,1.9-1.16,3.88,1.68,4.56,0,.76.07,1.52.11,2.28l-6.35-1.8-.27-4.55a19.41,19.41,0,0,0,1.46-2.54l.12-13.35C606.55,552.43,606.84,550.8,607.14,549.16Z"/><path class="cls-171" d="M644.35,420.62c.39,3.42.32,6.75-1.75,9.73C642.53,427,641.24,423.41,644.35,420.62Z"/><path class="cls-171" d="M639.68,531.83c.24,2.48,0,4.83-1.73,6.82C637.85,536.2,637.41,533.67,639.68,531.83Z"/><path class="cls-171" d="M611,545.57a6,6,0,0,0-2-.47q.25-3.27.53-6.54C611.71,540.54,611.15,543.09,611,545.57Z"/><path class="cls-171" d="M637.42,543l-1.62,4.77C635.61,545.88,635.81,544.17,637.42,543Z"/><path class="cls-171" d="M612.78,571.86l-1.69,1.88Z"/><path class="cls-171" d="M617.51,567.24l-1.8,1.6Z"/><path class="cls-171" d="M609.51,569.47q.71-1.37,1.41-2.76Z"/><path class="cls-171" d="M620,565.09l-2.23,2Z"/><path class="cls-171" d="M622.23,562.88,620.05,565Z"/><path class="cls-171" d="M624.58,560.71l-2.3,2.12Z"/><path class="cls-171" d="M627.22,558.64l-2.67,2.09Z"/><path class="cls-171" d="M635.24,549.6c-.55.88-1.09,1.77-1.63,2.65C634.15,551.37,634.69,550.48,635.24,549.6Z"/><path class="cls-171" d="M608.73,532.4l-1.2-2.74Z"/><path class="cls-171" d="M606.47,523.61l-1.19-2.85Z"/><path class="cls-178" d="M665,492.06a51.19,51.19,0,0,1-6.49,3.87c-10.63,4.44-12.05,3.31-11.49-8.75,2-1.85,3.41-4.06,6.81-1C656.82,488.92,661.19,490.16,665,492.06Z"/><path class="cls-179" d="M728.8,433.64c-.55.14-1.1.3-1.63.49l-2.52-2.38,3.8-6.93C731.21,428.38,728.48,431,728.8,433.64Z"/><path class="cls-180" d="M615.86,291.42c5.88,2.11,11.82-2.33,17.7.12q1.91,12.1,3.79,24.21c-10.29.29-20.61,1.56-30.81-.9-4.75-1.15-9.84-2.63-10.44-8.33-.53-5.08,3.89-7.79,7.61-10S611.78,293.09,615.86,291.42Z"/><path class="cls-181" d="M578.13,333.37c5.92,10.36,10.38,19.33,18.77,27.63C586.38,356.1,580.59,347.52,578.13,333.37Z"/><path class="cls-182" d="M762.39,251.58q1.26-4.2,2.53-8.4c2.5-1.4,3.33-.22,4.84,2,13.72,20.26,17.12,42.7,14.57,66.46a14.15,14.15,0,0,1-1.44,4.12c-.7,1.56-1.57,3.05-2.42,4.68-5.11-2.45-5.82-7.92-9.35-11q-4.17-12.58-8.32-25.17C759.77,273.4,761.24,262.49,762.39,251.58Z"/><path class="cls-183" d="M762.39,251.58c.35,10.89-1.6,21.81.41,32.68-13.69,3.91-25.9,11.92-40.28,14-18.44,2.69-36.79,6-55.22,8.74-12.58,1.9-22.47-3.06-27.23-13.14,14.09,11,29.94,5.78,44.77,3.58,19.6-2.91,38.91-8,58.2-12.75,9.71-2.37,12.29-10.65,14.24-19.56.45,3.54.89,7.08,1.51,12.06C761.7,267.86,757.26,259.07,762.39,251.58Z"/><path class="cls-118" d="M427.7,664.8l11.58-11c1.14-.42,2.3-.79,3.47-1.11,4.25-2.06,8.62-1.35,13-.59,8.83,1.52,17.52,1.76,26.12-1.61,6.78-2.67,13.78-1.56,20.71-.19,7.23,1.44,14.42,3.05,21.87,2.86,16.12-.4,20.87-4,24.47-19.1,4.59.77,8.75,2.23,11.12,6.68-1.77,16.16-16.54,21.73-26.17,31.18-13.84,13.57-28.08,26.74-40.2,41.88-5.22,6.51-10.06,8.2-16.62,2.85-6-4.9-12.36-6-19.6-2.83-2.61,1.14-5.51,1.83-8.59.62-2.4-.94-5.5-1.11-5.68-4.28-.18-3,3-3,4.89-3.37,9.87-1.73,13.14-11.26,19.56-16.9,4-3.49.68-10-3-13.89-4.18-4.52-9.38-4.57-13.68-.32-4.95,4.9-10.05,7.39-17.42,7.71-8.12.34-7.38-2.22-5.68-8C428.82,672.16,433.42,668.13,427.7,664.8Z"/><path class="cls-118" d="M502.8,712.18l-7,8.71C494.87,715.37,499,713.89,502.8,712.18Z"/><path class="cls-118" d="M509.6,703.39q-3.5,4.5-7,9C502.22,707.29,505,704.63,509.6,703.39Z"/><path class="cls-118" d="M493.91,723.2l-1.2,1.91C491.81,723.66,492.79,723.38,493.91,723.2Z"/><path class="cls-131" d="M548.92,634.05c3.81,11.4,2,15.54-8.48,19.63-13.05,5.08-26.11,2.42-39-.3-7.71-1.63-14.63-2.35-22.27,1.58-6.53,3.35-14.59,2.09-21.71.62a81.45,81.45,0,0,0-15.26-1.5,1.85,1.85,0,0,1-.64-1.72c.13-.61.28-.91.44-.91,4.87-6.27,11-11,17.61-15.32a4.68,4.68,0,0,0,2.44-2.32l0,0c5.22,3.72,10,.62,14.35-1.56A94.76,94.76,0,0,1,496,625.47c7.71-2,15.39-5,22.36,2.72,2.74,3,7.77,1.53,11.71,1.32A31.15,31.15,0,0,1,548.92,634.05Z"/><path class="cls-171" d="M595.58,598.47c-.2,1.56-.4,3.11-.61,4.66a2.6,2.6,0,0,1-1.93,2.15c-2.6,1-5.54,3.77-7.77.17-1.77-2.88.64-5.74,2.17-8.11C590.69,592.33,592.85,598,595.58,598.47Z"/><path class="cls-97" d="M593,605.28l1.93-2.15c.39,2.36.31,4.63-1.19,6.65C593.53,608.28,593.29,606.78,593,605.28Z"/><path class="cls-171" d="M604.21,576.28c-.63,1.5-1.25,3-1.88,4.52C602.24,579,602.59,577.37,604.21,576.28Z"/><path class="cls-171" d="M597.48,591.85c.08,1.94.16,3.87-1.52,5.3C595.6,595.14,595.63,593.23,597.48,591.85Z"/><path class="cls-171" d="M599.52,587.41l-1.45,2.76Z"/><path class="cls-171" d="M601.66,583l-1.46,2.53Z"/><path class="cls-171" d="M606.14,567.42,604.68,570Z"/><path class="cls-171" d="M529.17,569.64,531,567Z"/><path class="cls-171" d="M533.68,562.88c.61-.76,1.23-1.52,1.85-2.27C534.91,561.36,534.29,562.12,533.68,562.88Z"/><path class="cls-171" d="M535.5,560.65l2-2.93Z"/><path class="cls-171" d="M538.31,556.19l1.6-2.47Z"/><path class="cls-171" d="M540.7,551.74a3.54,3.54,0,0,1,.36-1.75c.44,0,.86,0,1.29-.1Z"/><path class="cls-58" d="M179.8,311.68c-11.8,8.41-17.9,22.09-29,31.18-.07-5.55,4.85-8.75,6.38-13.54,19.56-20.66,37.7-42.74,60.12-60.55l3.64.63-14.9,14.67a179.93,179.93,0,0,0-12.78,16.11c-.59.69-1.23,1.35-1.87,2-.31.3-.65.6-1,.9-.59.6-1.21,1.17-1.84,1.72-.28.27-.6.53-.89.81-.55.54-1.15,1.06-1.73,1.57-.27.26-.57.51-.84.77-.52.53-1.08,1-1.63,1.54l-.83.74a8.47,8.47,0,0,1-1.83,1.25Z"/><path class="cls-184" d="M368.43,241c-8.14-1.64-17,.31-24.47-4.64,5.24-4.76,12.91-.15,18.2-4.71,28.44-7.73,58.43-3.43,86.85-11.22,6.73-1.85,13.44-3.78,20.17-5.64,14.59-4,24.71-12.64,28.61-27.69,15.17,3,28.5,10.28,41.59,18.09,1.22,6.14-3.84,6.3-7.41,7.41-24.71,7.69-50.12,12.92-74.63,21.46-12.84,4.47-25.61,9.81-39.53,10.48C401.21,245.25,384.92,241.77,368.43,241Z"/><path class="cls-184" d="M493.22,185.19c1.89-.27,3.52.11,4.57,1.88A4.46,4.46,0,0,1,493.22,185.19Z"/><path class="cls-147" d="M557.93,208.9l4.87-2.08c6.87,3.08,13.31,6.75,17.74,13.12l-.43.44C569.77,222.25,565,213.39,557.93,208.9Z"/><path class="cls-185" d="M339.76,236.29l0,2.35a72.28,72.28,0,0,1-22.12,0l-17.38,0-2.45-2.35c5.91-1.49,12.3.85,18-2.24l7.95,0c5.26,2.12,10.93-.26,16.21,1.53Z"/><path class="cls-132" d="M340,235.6c-5.46.19-11,.8-16.2-1.53C329.21,234,334.84,232.15,340,235.6Z"/><path class="cls-128" d="M520,171.62c2.46,0,4.85.21,6.71,2.11C524.11,174.17,521.67,174.12,520,171.62Z"/><path class="cls-186" d="M557.93,208.9c9.29.17,13.5,10.13,22.18,11.48,7.45,13.34,20,22.37,29.19,34.31,5.41,7,10.11,14.48,15.16,21.73,1.91,2.73,4,6.29,1.79,9.2-2.55,3.38-7.41,2.62-10.26.91-11.47-6.91-23.59-13.11-31.73-24.45-3.59-5-6.76-10.48-12.77-14.31-6.31,11.1-6.19,23.6-9.63,35.06-1.4,2.1-.11,4.84-1.66,6.9l-.75,6.27c-5.37.53-7.62-2.34-8.86-7.24-2.08-8.21-6.77-9.17-13.07-3.85-2.62-2.68-2.67-6.05-1.86-9.25,5.15-20.48,7.7-41.65,15.9-61.34.56-2.39,2.38-3.76,4.2-5.12A16,16,0,0,0,557.93,208.9Z"/><path class="cls-187" d="M555.76,209.2l-2.73,4a6.62,6.62,0,0,1-1.76,2.51c-7.17,10.23-18.43,14.06-29.15,18.81a75.72,75.72,0,0,0-15.22,9.08c-3.69,2.81-6.77,5.67-4.42,11.11,2,4.54.81,8-4.75,8.77-7.21-2.56-13.07-7.86-20.69-9.77-6.26-1.57-6-5.53-2.06-9.66a25.54,25.54,0,0,1,7-5.15c6.8-3.4,10.3-8.89,11.15-16.29,16-5.67,32.57-9.31,49.11-13Z"/><path class="cls-188" d="M542.28,209.64c-15.73,7.29-33.5,7.89-49.25,15.07-2.89,3.92-7.44,4.45-11.65,5.65-15.21,4.34-30.18,9.46-45.26,14.23-6.63,1.51-12.93,4.63-20,4.14-1.74-.59-3.44-1.55-2.67-3.61.63-1.7,2.51-2.24,4.35-2.28,38.6-11.23,76.75-24,115.82-33.6,2.42-.59,5.36-.56,5.74-4.08C541.85,205.68,542.1,207.64,542.28,209.64Z"/><path class="cls-189" d="M111,794.57c5.61-3,11-6.4,17.56-7.16C115.35,831.19,87,863.26,50,888.61c23.78-30.08,33.93-70.18,69.34-90.73C116.53,792.68,112.68,798.44,111,794.57Z"/><path class="cls-190" d="M202,389.5c-1.51,6.32-5.67,10.94-10,15.41-1.44,1.48-2.82,4-5.34,2.85-2.83-1.29-2.52-4.17-2.21-6.77a16.32,16.32,0,0,1,.59-2.12c1-3.78,3.53-8.47-1.1-10.76s-5.6,3.3-8,5.71c-.71.71-1.77,1.06-4.18,2.44,1.56-8.14,3.14-14.71,8-20.15,6.5-1.13,11.9-1.76,11.37,8.1C190.68,392.44,196,392.55,202,389.5Z"/><path class="cls-191" d="M202.1,329.47c-2.81-6.21-7.52-1.71-11.32-1.85-3.27-.13-6.74,5.37-9.54,1.21-2.24-3.33.29-7.44,2.93-10.54,1,5.87,3.18,8,8.81,3.58,6.53-5.09,13.56-9.51,22.4-15.62C212.25,316.66,207.93,323.48,202.1,329.47Z"/><path class="cls-191" d="M190.67,300.06c4.44-6,8.81-12.07,15.41-16-4.85,13-16.34,21.7-21.9,34.21.34-3.4-3-4.34-4.39-6.6l0,0a30.7,30.7,0,0,0,2.13-2.29v0a7.72,7.72,0,0,0,2.1-2.45l-.09.1a4.93,4.93,0,0,0,2.3-2.36l-.11.11a4.46,4.46,0,0,0,2.31-2.35l-.1.12A4.42,4.42,0,0,0,190.67,300.06Z"/><path class="cls-184" d="M317.62,238.6l22.12,0a4.47,4.47,0,0,0,.43,1.61C332.64,240,324.92,242.13,317.62,238.6Z"/><path class="cls-184" d="M344.31,240.66c2.61-.49,5.13-.6,7.06,1.72C348.76,242.87,346.22,243.05,344.31,240.66Z"/><path class="cls-191" d="M199.93,334l2-2.37Z"/><path class="cls-190" d="M179.81,373.94l2.11-2.31Z"/><path class="cls-192" d="M579.77,264.15c-1.13,3.7-3.36,6.74-7.41,7s-3.45-3.14-3.22-5.59c.33-3.6.47-8.38,4.88-8.65C577.25,256.75,579.33,260.39,579.77,264.15Z"/><path class="cls-170" d="M560.2,289.73c-.14-2.47-.66-5,1.66-6.91C562,285.28,562.31,287.8,560.2,289.73Z"/><path class="cls-193" d="M651.5,605.12c-6,1.76-5.43-3.93-6.48-6.56-2.84-7.1-4.75-14.57-7-21.89C646.21,584.38,648,595.17,651.5,605.12Z"/><path class="cls-67" d="M375.46,345c.53.78,1.05,1.57,1.57,2.36Z"/><path class="cls-194" d="M497.69,262.61c2.81-1.42,6-3.75,2.92-6.56-7.59-6.92-1-10.58,3.22-13.43,9.59-6.46,18.76-14.05,30.87-15.74,4-.56,6.27-3.73,8.44-6.62s3.58-6.58,8.14-6.38c-12.88,44.7-19.34,90.87-31.18,135.8-1,3.86-1.21,8.06-4.76,10.79-9.4,13.1-22.52,6.65-34.09,5.8-11.22-.83-22.2-4.6-33.24-6.67-20.37-3.81-38.72-13.79-58.87-17.42-10.18-1.84-9.53-8.06-9.31-15.12L382.2,316c12-18.54,31.08-27.53,50-36.6,2.65-1.27,6-1.33,8.12,1.48,2.38,3.22.86,6.3-1.13,9.16-.64.91-1.4,1.72-2.09,2.59C428,304,428,304,435.72,315.94c.8,1.24.76,2.74,1.44,4.71,12.42-11,27.91-16.7,41.47-25.62,6.07-4,10-7.14,8.19-15.64C485.19,271.6,487.12,263.68,497.69,262.61Z"/><path class="cls-195" d="M497.69,262.61c-8.52,5.57-12.3,12.71-6.51,22.27,2.93,4.83-.86,5.83-3.53,7.34-10.24,5.78-19.54,13-30.37,18-8.76,4-16.27,10.79-26.89,18.1,3.76-7.09,4.24-10.85-.95-15.08-4.9-4-5.74-10.72.08-16.15a57.83,57.83,0,0,0,5.17-5.77c2.21-2.7,7-5.15,4.15-9.08s-7.25-.38-10,1a198.41,198.41,0,0,0-39.95,27c-2.23,1.92-4.44,3.86-6.65,5.78,1.14-15.2,7.91-28.69,13-42.69,7.69-17.75,25.86-21.74,40.27-30.65,18.69-7.58,38-13.23,57.57-18,3.25,5.28,2.72,9.4-3.39,12.2a25,25,0,0,0-6.37,4.27c-2.93,2.68-8.86,3.49-8.73,7.62.16,5,6.47,1.29,9,3.75C487.81,256.59,494.67,256.92,497.69,262.61Z"/><path class="cls-196" d="M417.82,242.84c-.13,1.84-4.37,1.56-2.33,4.52-2.19,6.34-7.41,6.65-12.87,6.5-12.13-2.36-23.29-7.29-34.19-12.89.5-.54.94-1.49,1.5-1.56C386.12,237.29,401.87,241.43,417.82,242.84Z"/><path class="cls-197" d="M402.62,253.86l12.87-6.5,20-4.69c1.41,5.63-4,5.09-6.47,6.43-12.25,6.55-25.91,10.9-31.33,26.09-1.22,3.42-1.61-1.13-2.47-1.87C397.48,266.76,398.4,259.68,402.62,253.86Z"/><path class="cls-69" d="M416.79,577.49c-2.43.41-3.2-1.13-3.3-3-.16-3,1.26-4.69,4.42-4.65,2,0,3.66.85,3.76,2.91C421.81,575.87,419.07,576.55,416.79,577.49Z"/><path class="cls-112" d="M442,651.45c.07.87.13,1.75.2,2.63l-2.89-.29Z"/><path class="cls-113" d="M462,633.81l-2.44,2.32Z"/><path class="cls-198" d="M515.34,360.47c11.76-42.67,18.37-86.5,29-129.42,1.5-6,2.06-12.48,6.92-17.17a7.87,7.87,0,0,0,1.75-.66c-3.07,13.12-6.29,26.22-9.17,39.39-2.34,10.72-5.75,21.24-6.34,32.3-5.85,24.86-11.75,49.71-17.5,74.59-1,4.24-1.23,8.67-4.42,12.08l0,0c-1.72-2.16-1.38-4.39-.26-6.66C515.35,363.46,515.34,362,515.34,360.47Z"/><path class="cls-199" d="M522.28,409.33l-2.85-11.07a6.75,6.75,0,0,0-1.63-2.19q0-4.29.1-8.58c3.26,1.17,3.82,4.06,4.79,6.93C531.6,420.61,540.1,447,552.2,472c.92,1.9.79,4.29,1.15,6.46l0,0C541.52,462,536.76,442.5,529,424.31c-.56-1.3-1.38-2.5-2.07-3.75-.17-1.48-.33-3-.5-4.45a20.85,20.85,0,0,0-1.93-2.27c-.13-.73-.25-1.46-.38-2.19A18.39,18.39,0,0,0,522.28,409.33Z"/><path class="cls-199" d="M553.35,478.41c4.5,4.16,4.89,10,5.78,15.55-3.78-4.46-5.39-9.77-5.76-15.57Z"/><path class="cls-170" d="M515.36,365c.09,2.22.17,4.44.26,6.66l-2.27,0C513.4,369.24,513,366.68,515.36,365Z"/><path class="cls-170" d="M524.48,413.84l1.93,2.27Z"/><path class="cls-170" d="M522.28,409.33l1.82,2.32Z"/><path class="cls-170" d="M517.8,396.07c.55.73,1.09,1.46,1.63,2.2C518.89,397.53,518.34,396.8,517.8,396.07Z"/><path class="cls-160" d="M190.67,300.06c-.77.83-1.55,1.66-2.32,2.5C189.12,301.72,189.9,300.89,190.67,300.06Z"/><path class="cls-160" d="M188.45,302.44l-2.31,2.35Z"/><path class="cls-160" d="M186.25,304.68,184,307C184.71,306.25,185.48,305.46,186.25,304.68Z"/><path class="cls-160" d="M184,306.94l-2.1,2.45Z"/><path class="cls-160" d="M182,309.37l-2.13,2.29Z"/></g></g></svg>