<svg xmlns="http://www.w3.org/2000/svg" viewBox="0 0 966.84 965.89"><defs><style>.cls-1{fill:#030303;}.cls-2{fill:#030403;}.cls-3{fill:#050503;}.cls-4{fill:#29211e;}.cls-5{fill:#23211c;}.cls-6{fill:#212821;}.cls-7{fill:#3e3c33;}.cls-8{fill:#292721;}.cls-9{fill:#333c34;}.cls-10{fill:#34332d;}.cls-11{fill:#87c777;}.cls-12{fill:#74a465;}.cls-13{fill:#fbe396;}.cls-14{fill:#f37c55;}.cls-15{fill:#89c877;}.cls-16{fill:#c8b57d;}.cls-17{fill:#86c776;}.cls-18{fill:#74a365;}.cls-19{fill:#fce496;}.cls-20{fill:#7bbb69;}.cls-21{fill:#add7a2;}.cls-22{fill:#c6e2bc;}.cls-23{fill:#79b668;}.cls-24{fill:#dfca88;}.cls-25{fill:#76a866;}.cls-26{fill:#161717;}.cls-27{fill:#fce497;}.cls-28{fill:#c7b37d;}.cls-29{fill:#b2d9a5;}.cls-30{fill:#add7a3;}.cls-31{fill:#f7dd94;}.cls-32{fill:#c7b47d;}.cls-33{fill:#c8b47d;}.cls-34{fill:#c1e0b9;}.cls-35{fill:#dec888;}.cls-36{fill:#abd6a1;}.cls-37{fill:#c9b57e;}.cls-38{fill:#aedaa2;}.cls-39{fill:#dcc587;}.cls-40{fill:#8cc97a;}.cls-41{fill:#dfc988;}.cls-42{fill:#dec788;}.cls-43{fill:#fac1ae;}.cls-44{fill:#f2e4af;}.cls-45{fill:#242015;}.cls-46{fill:#252a1c;}.cls-47{fill:#6aa661;}.cls-48{fill:#c2af7b;}.cls-49{fill:#d3c288;}.cls-50{fill:#a89a71;}.cls-51{fill:#67a05f;}.cls-52{fill:#f0d791;}.cls-53{fill:#a99c71;}.cls-54{fill:#c6b27c;}.cls-55{fill:#d8c286;}.cls-56{fill:#b3a475;}.cls-57{fill:#b1a275;}.cls-58{fill:#b4a275;}.cls-59{fill:#8bbf8c;}.cls-60{fill:#cbb77e;}.cls-61{fill:#8cc08d;}.cls-62{fill:#74ba6b;}.cls-63{fill:#6eb267;}.cls-64{fill:#92c791;}.cls-65{fill:#dec787;}.cls-66{fill:#f6e29b;}.cls-67{fill:#b1a375;}.cls-68{fill:#cbb77f;}.cls-69{fill:#a6986f;}.cls-70{fill:#d0c287;}.cls-71{fill:#c26849;}.cls-72{fill:#7cbc69;}.cls-73{fill:#dc6d49;}.cls-74{fill:#0d0f0a;}.cls-75{fill:#14190f;}.cls-76{fill:#fae698;}.cls-77{fill:#fbcec0;}.cls-78{fill:#f8b19a;}.cls-79{fill:#f8b099;}.cls-80{fill:#f3e296;}.cls-81{fill:#fceebc;}.cls-82{fill:#d3c98a;}.cls-83{fill:#c4c284;}.cls-84{fill:#b9bf80;}.cls-85{fill:#fee59c;}.cls-86{fill:#e5cd8d;}.cls-87{fill:#fdefc5;}.cls-88{fill:#f8e19a;}.cls-89{fill:#7ab668;}.cls-90{fill:#6ba661;}.cls-91{fill:#69a160;}.cls-92{fill:#68a160;}.cls-93{fill:#0a0b0c;}.cls-94{fill:#717374;}.cls-95{fill:#313232;}.cls-96{fill:#151617;}</style></defs><title>Recurso 30</title><g id="Capa_2" data-name="Capa 2"><g id="Capa_1-2" data-name="Capa 1"><path class="cls-1" d="M226.59,738.21c-4.21-16.21-3.85-31.65,7.28-45.43,2.07-2.55,7.77-4,4.16-8.7-3.07-4-6.48-9.43-12.41-8.18-25.16,5.26-43.38-5.11-55.36-26-13.73-23.92-16-50.71-.26-73.25,8.95-12.79,7.4-25.71,11.66-38.22,3-8.83,5.57-18,11.13-25.57,4.16-5.71,3.52-8.3-3.27-11.17-28.17-11.9-52.39-29.21-67.88-56.16-13.72-23.89-22.93-49.43-19.46-77.75.81-6.57-1.62-11.38-5.09-16.39-13-18.73-21.24-39.28-23.41-62.11-1-5.68-2.48-11.38,1-16.78,6.86-.17,6,5.34,6.66,9.42,2.18,13.65,3.78,27.42,9.91,40.07a73.55,73.55,0,0,0,6.64,15.42c1.33,2.21,2.39,5.24,5.27,5.36,3.35.14,3.56-3.37,4.53-5.64a155.44,155.44,0,0,1,9.86-18.89C125,306,135.34,297.19,148,290.78c27-12.54,55.11-22.48,84.92-22.28,43.24.3,82.52,12.9,117.06,41,26.9,21.87,43.72,50.51,62.47,78.41,32.81,48.81,89.65,77.36,154.39,47.11,32.6-15.24,53.7-42.05,67.72-74.68,5.91-13.75,11.66-27.58,11.89-42.93A235.48,235.48,0,0,0,652.3,231c-2.38-21.12-10.5-41-18.55-60.7-6.39-15.65-15.63-29.58-24.33-43.86-16.55-28.7-41.87-48.35-69-65.86a373.41,373.41,0,0,0-98.38-45.23,135.76,135.76,0,0,0-26.44-4.57A325.73,325.73,0,0,0,328.56,10c-27,1.89-51.62,12.77-77.13,20.22-31.22,12.69-60.59,28.59-86.24,50.7-3.15,2.72-9.19,5.07-5.46,11.47a70.72,70.72,0,0,0,29.65,14.17c5.09,1.07,11.35,1.38,13.08,8.26-3.1,5-8.21,3.6-12.76,4-19.24-3.1-33.24-16.12-49.12-25.7C115.36,77.86,91.71,60.1,65.38,46.78c-8-4.06-16.84-6.29-26-3.11a31.92,31.92,0,0,1-7.66,2.72c-4.36,0-7.89,3.44-12.36,3-1.61-.71-2.83-1.64-1.91-3.67,10.36-13,31.93-17.4,47.62-9.62a249.15,249.15,0,0,1,39.69,25c11.4,8.64,24.5,14.31,36.12,22.48,5.39,3.79,8.85-.75,12.64-3.62,27.64-20.94,54.58-43.33,87.35-55.84C278.2,9.91,316.64.3,357.22.51c25.69.13,51.65-2.77,76.68,4,38.27,10.31,73.85,26.93,107.88,47.56,37.36,22.65,67.33,52.84,88.12,90.15,21.76,39.07,36.93,81.27,31.27,128-1.35,11.05-.3,22.42-2.68,33.41-.83,3.85,1,5,3.42,7.09,25.11,21.48,40.3,48.93,49.64,80.38,8.89,29.92,14,60.2,10.51,91.25-1.86,16.44-1,33.48-7.91,49.15-3.36.43-3.81-2.18-4.61-4.42-1.86-18.79,4.1-36.93,4.45-55.66.71-38.44-6.5-75-22.56-109.77a110.41,110.41,0,0,0-31.35-39.83c-3.92,2.43-3.07,6.3-4.34,9.24-8.82,41.25-30.81,74.61-62,102.16a73,73,0,0,1-38,17.9c-9.66,1.4-18.39,6.28-28.19,6.92-16.63,2.31-32.78-.26-48.67-5.07-7.42-2.24-12.8.33-15.33,7.31-11.32,31.13-20.2,62.65-12.78,96.31,1.76,8,5.55,14.2,12.75,18.86,16.8,10.87,30.14,24.46,33.34,45.61,1.46,9.64,8,16.29,16.71,19.76,20.13,8,40.36,16.13,62.63,15.8,20.73-.39,39.46-6.84,56.75-18.17,23-15.1,40.27-35.29,53.26-59.38,2.08-3.84,3.42-8.45,8.35-10,3.15.9,3.25,2.83,1.78,5.29-10,29.05-29.92,50.28-54.06,68.13-5.4,4-10.53,8.62-16.49,11.49-4.29,2.06-3.87,4.08-3.4,7.68,1.81,13.67,2.31,27.33-2.36,40.65-3.6.58-4.08-2.21-5-4.56-1-6.28-.54-12.63-.59-19-.13-16-.27-16.63-15.42-13.45a115.19,115.19,0,0,1-39.9,1.51C540,661.43,519.8,659,502.66,647.53c-2.22-1.49-5.14-3-5.76,1.35-1.47,10.41-7.56,18.35-13.46,26.43-1.62,2.21-1.82,4.8-2.05,7.4a5.06,5.06,0,0,1-3.57,3.18c-13,3-23.85,11.49-37.57,13.24-11.44,1.45-22.07,1.09-32.66-3.13-4.5-2.16-8.07.45-11.78,2.36C348.89,716,302,719,255.46,697.33c-7.23-3.37-12.07-1.86-16,4.73-2.1,3.55-4.07,7.15-5.81,10.89-2.62,5.17-1.18,10.79-1.88,16.15C231.34,732.73,232.59,737.65,226.59,738.21Z"/><path class="cls-2" d="M617.38,697.16c.23,2,.57,4,2.65,5.09-1.44,10.44,4.78,19,7.13,28.44,1,2-.21,2.89-1.77,3.61-4.11-.3-5.76-3.62-7.87-6.69-1.42,2.17-1.44,4.63-2.61,6.6-2.52,8.84-4.15,18-9.76,25.69-7.42,13.24-18.23,23.66-28.61,34.42-9.46,9.82-23,12.25-34.5,18.29-10.19,5.34-10.35,5.93-2.73,15.06,31,37.17,71,58.56,118.08,67.82,6.94,1.37,13.57,4.21,20.65,5.23,5.68.81,11-.19,13.48-5.65,12.49-27.65,20.11-55.75,5.6-85.22a37.46,37.46,0,0,1-2.47-4.24c-2.29-7.13-7.33-11.84-13.43-15.8-11.22-7.3-22.19-15-33.13-22.71-3.86-2.72-8.36-5.43-7.05-11.5.83-1.6,1.88-2.75,3.9-1.94,21.59,17.14,43.44,33.51,70.42,42,46.34,14.56,89.51,11.07,129.45-18.59,7-5.16,15.56-8,15.55-18.65,1.92-.68,2.95.48,3.86,1.88,3.15,9.5,12.89,11.82,19.54,17.46,3.19,2.71,6.23-.47,7.88-3.7,2.46-4.79,1.56-9.39-1.22-13.76-2.26-3.15-4.47-6.35-7-9.31a14.31,14.31,0,0,1-5.13-8.33c-13.14-21.13-14.33-45.21-16.22-68.89-1.77-22.33-.37-44.8,2.52-67a141.73,141.73,0,0,1,20.51-57.29c2.27-.39,3.13,1,3.71,2.85-1.26,13.14-8.2,24.58-11.16,37.22-8.76,35.71-10.17,71.62-3.29,107.77,1.49,13.4,3.75,26.65,10.19,38.71,4.51,8.43,8,8.77,14,1.49,6.89-8.38,13.17-17.38,17.72-27.14,13.86-29.74,28.25-59.33,35.23-91.73.69-7.88,3-15.4,5.06-23,.25-1.09.59-2.15.94-3.21,1.41-8.27,1.61-16.5-.45-24.7-3-8.35-2.78-17.52-6.57-25.67-1.64-9.06-8-14-15.66-17.73-3.52-2.75-10.41.75-11.63-6.25,23.76-3.07,38.88,9.54,42.1,34.6,2.85,22.16,1.68,44.11-4.42,65.46a495.49,495.49,0,0,1-50.49,117.93,34.36,34.36,0,0,1-4.51,6.23c-5.42,5.64-10,9.89-5.48,19.84s-1.67,19.44-10.12,26.39c-2.06,1.7-5.19,1.95-4.8,6.39,2,22.32-9.67,39.47-21.16,57.17-6.86,10.57-13.74,21.11-21,31.35-14.85,20.78-37.18,31.81-58.51,44-10.3,5.9-20.71,11.7-32.14,15.26-2.52,1.34-4.54,1.32-5.36-1.95,2.52-6.34,8.85-7.68,14-10.3,10.38-5.23,20.79-10.38,29.28-18.51,2.92-2.79,5.93-5.71,6.68-10.17-3.62-1.26-6.78.46-9.82,1.46a221.52,221.52,0,0,1-80.71,10.75c-11.43-.53-19.81,3.06-26.51,13-10.85,16.08-28,23.86-45.43,31,6.27-2,12.79-1.38,18.93-1.36,25.4.09,49.15-9.1,74-12.19,2.84.58,6.33.21,6.59,4.52C700.59,963,664.59,964.89,629,965.8c-27,.7-54.1-3-81-8.44-24.91-5.05-48.94-12.77-73.49-18.69-19-4.57-34.19-16-51.2-24.16C395,901,371.13,881.37,348.48,860c-8.56-8.07-14.93-17.65-21.08-27.46-4-6.41-7.64-8.09-15.27-3.36C279,849.73,230.92,826.38,226,787.81c-1.4-10.94-3.22-22.2,4.84-31.83,2.17-1.19,1.33-6.27,5.8-4.51,6.61,4.94,7.57,13.66,12.9,19.41C264.59,787.17,281.29,801,302,810.19a328.22,328.22,0,0,0,55.92,19.36c12.65,3.07,25.25,2,37.89,2.15,6.41.11,6.68-3.49,4.09-8-7.73-13.56-5.47-27.6-1.45-41.36,6.85-23.5,27.28-38.44,53.59-40.23,12.16-.82,23.92.12,34.46,7,5.84,3.83,8.43,2.33,9.27-4.67A78.65,78.65,0,0,0,491.11,706c-1.33-3.43-3.88-6.49-3-10.55.72-1.82,1.93-2.92,4-2.74,11.71,6.42,13.34,18.37,15.57,29.62,1.52,7.68,2.25,16.15-.17,23.43-6.38,19.14,3.54,36.9,3.24,55.43-.08,4.86,4,5.65,8.07,5.77,7.31.22,14-1.91,20.52-5,33.85-12.8,54.31-37.51,64.46-71.72,3-10,7.86-19.28,9.68-29.63A3.92,3.92,0,0,1,617.38,697.16Z"/><path class="cls-3" d="M76,273.11c-4.14,4.92-1.1,10.85-2.28,16.18-2.4-6-1.85-12.26-2-18.48,1.58-10.48-.36-20.95-.14-31.43-.26-29.81,8.82-57.57,19.11-85,2.42-6.44.81-7.89-5.46-9.65-21.37-6-43.48-10.33-62.31-23.2-2.08-1.42-3.7-3.5-5.53-5.28-.78-2.25.55-3.21,2.37-3.88,9,.31,15.47,6.91,23.52,9.84,29.89,10.88,60.81,18.43,90.87,28.74,11.43,3.92,22,9.27,32.5,15,10.78,5.87,16.36,15,17.73,26.89.76,6.7,1.64,13.4,3.69,19.82,4,12.4,13.46,20,24.29,19.7,11.82-.3,20.78-8,24.33-20.93a75.34,75.34,0,0,0,2.76-14.29c1.49-19.69,12.19-32.14,30.2-39.29,33.07-13.15,66.78-24.07,101.69-31.26,15-3.08,29.94-6.49,44.76-10.37a106,106,0,0,0,28-11.3c24.55-14.72,31-43.05,15.43-67.48a29.06,29.06,0,0,0-8.7-7.59c-13.69-8.2-27.54-5.61-40.92.22C365,49.66,321.11,71,279.23,96.66c-24,14.66-49.55,26.54-79,24.26-4.53-.35-10.08,1.41-12.48-4.77,4.67-1.16,9.86,1.19,14.21-2.1,9-6.26,20.33-4.87,30-9.07,20.77-4.85,38.79-15.47,56.41-26.93,19.66-10.68,39.18-21.65,59.28-31.52,14.28-7.43,29.17-13.58,43.56-20.8,17.45-7.81,34.66-15.3,54.77-9,16.92,5.32,32.35,23.19,33.14,40.9,1.64,36.63-12.84,55.44-51.8,67.36-26.29,5.21-52.12,12.54-78.43,17.68-5.92,2.24-12.12,3.49-18.18,5.27-20.57,4.49-39.74,13.06-59,21.19C260,174.06,252.84,183.29,252,196.8c-1,15.34-5.72,29.29-18,39.7a40.84,40.84,0,0,1-9.06,4.35c-23.62,8.13-36.1,1.11-46.59-24.22-2-4.84-2.46-10.2-2.94-15.36-1.39-15-9.76-24.68-22.81-30.78a229.25,229.25,0,0,0-44.2-15.77c-9-1.33-11.64,5.66-14.15,11.64-6.66,15.88-9.57,32.8-12.67,49.64-2.71,14.74-2.4,29.64-2.39,44.53C79.17,264.94,79.64,269.58,76,273.11Z"/><path class="cls-4" d="M20.11,113.44c-.91.94-1.81,1.89-2.72,2.84C-4.21,96.47-7.35,65,17.45,45.76c.77.87,1.54,1.75,2.32,2.62,1.23,7.93-7.73,10-9.32,16.31a45,45,0,0,0-2.4,7.25c-2.57,11.82,1.89,22,7.62,31.76C17.48,106.8,21.1,109.06,20.11,113.44Z"/><path class="cls-5" d="M887.38,551.92l-2.25-2.42c9.75-14,19.76-27.79,38.13-31.37,3.68,4,10-.4,13.47,4.19a6.2,6.2,0,0,1-5.8,2.66c-14.86-1.87-22.79,7.82-30.74,17.83C896.87,547,894.14,552.4,887.38,551.92Z"/><path class="cls-6" d="M711.54,526.33l2.61,5.1c-1,16.33-12,28.5-17.81,42.87l-2.13-4.59c-2.89-3.19-1-6.49-.24-9.77C701.16,549.44,703.16,536.22,711.54,526.33Z"/><path class="cls-7" d="M235.19,751.84,230.82,756c1.36-6.58-3.94-11.58-4.23-17.77,4-4.81,1.18-10.48,2-15.7.59-3.83-1.09-8.15,2.54-11.29,5,5.77,2.73,12.81,3.22,19.33a92.38,92.38,0,0,0,1.4,12.21C236.09,745.82,237.48,749,235.19,751.84Z"/><path class="cls-8" d="M878.32,742.65l6.76,6.53c-6.26,4.31-15,4.55-19.52,11.72a2.68,2.68,0,0,1-3-.17l-2.24-2.32c-1.2-4.93,1.23-7,5.52-9.2S875.49,747.22,878.32,742.65Z"/><path class="cls-9" d="M624.67,733.54l2.49-2.85q8.9,11.49,17.78,23l-3,2.9C633.43,750.94,626.55,744.11,624.67,733.54Z"/><path class="cls-1" d="M71.58,239.38c3.69,10.46,3.48,20.94.14,31.43C70.34,260.34,69,249.87,71.58,239.38Z"/><path class="cls-10" d="M734.32,949c-1.76-2.36-4.52-1.41-6.8-2.05,5.43-6.9,11.87-10.39,20.6-6.06l4.56,1.91Z"/><path class="cls-11" d="M109.73,152.15c18.6,5.29,37.27,10.57,53.75,21.07,7.72,4.92,12.83,12,14.06,21.71s1.24,19.46,6.13,28.21c9.61,17.21,24.1,22.18,42.31,14.63l7.18-3c10,4,19.56,2.48,28.62-2.69,10.06-5.73,20.42-11,28.93-19.14,5-4.75,7.14-8.75,1.25-15-5.46-5.79-2.49-12.43,7-18.74A212.7,212.7,0,0,1,352,153c14.23-4.58,27.89-10.69,42.39-14.64,11.55-3.14,22.21-8.84,32.18-15.62,15.71-6,31-12.36,41.51-26.69,10-13.65,11.44-43.84,2.28-57.35C457.88,20.3,438.19,13,417,19.22c-8.87,2.63-17.51,6-26.25,9.08a8.23,8.23,0,0,1-3.11-1.08c-4.91-3.78-11.85-7.46-10.26-14.3,1.79-7.69,9.77-4.26,15.24-4.92,8.33-1,16.68,1.6,25,0,39.36,4.47,74,21.58,108,40.36,26.58,14.68,50.61,32.76,71.12,55.25a78.73,78.73,0,0,1,14.21,21c1.58,8.49-7.13,6.41-10.31,10-10.49-4.28-18-13-27.84-18.35-19.68-10.67-40.16-19.07-63-14.87-40.82,7.53-67.36,36.43-73.46,78.4-.38,2.59-.47,5.22-1.07,7.79-4,31.78,2.76,60.18,23.38,85.7,20.29,25.13,46.37,39.21,77,46.43a28.8,28.8,0,0,1,3.26,1.18c4.29,1.47,9,.24,13.22,2.17,1,.46,2.07.93,2.56,4-9.33,2.1-13.65,10.87-20,17.61a17.72,17.72,0,0,1-12.17,5.16,168.31,168.31,0,0,0-32.07,5.31c-31.37,7.89-59.26-2.16-86-16.4-20.1-10.72-39-23.64-57-37.7-26.92-21-58.67-28.59-91.47-34.08-37-6.2-70.27,4.22-102.42,21a14.77,14.77,0,0,0-5.73,5.11c-19.71,11.1-31.71,28.36-39.3,49.15-.88,2.4-1.24,5.78-4.28,5.92s-5.54-2.35-6.74-5.17c-2.59-6.11-6.81-11.53-7.8-18.32-2.87-22.18-6.43-44.26-9.09-66.48-4.37-36.55,6-69.35,23.43-100.67C105.44,155.19,107.71,153.79,109.73,152.15Z"/><path class="cls-11" d="M696.12,560.54c-.64,3.06-1.27,6.11-1.91,9.17-13.7,28.81-32.54,53.15-59.55,70.95-17.59,11.6-36.36,18.5-57.51,18.57-17.25,2.31-26.8-11.06-37.89-19.9-10.56-8.41-23-15-29.84-28.08-4.87-9.27-6.37-18.7-7.93-28.7-5.93-38-3.7-75,12-110.59.61-1.36,1.48-2.87,1.26-4.25-1.66-10.49,5.28-11.91,13-12.6,15-4.09,30.62-6.08,45-12.25,20.51-8.79,35.65-24.42,47.79-42.22,11-16.06,21.63-32.59,28-51.48,2-6,.82-12.68,4.94-17.93,15.85,14.69,26.95,33.08,35.93,52.1A123.72,123.72,0,0,1,701.3,443c-.43,7.93-5.13,12.12-12.38,11.05-10-1.47-13.15,4.34-16,11.79-2.19,5.76-2.63,12.72-9.64,15.54a7.66,7.66,0,0,1-3.31.3c-28.63-6.68-49.42,6.12-66,27.55-15.18,19.57-23.67,41.45-17.62,66.78,5.71,23.91,26.64,34.75,49.94,26.25,22.05-8,36.19-24.28,46.43-44.57,1.84-3.65,2.85-7.75,6.26-10.42,2.77-1.66,5.6-.56,6.39,1.79C687.25,554.73,692.64,556.65,696.12,560.54Z"/><path class="cls-12" d="M147.91,293.12c-.38-3.88,1.54-6.09,4.88-7.9,26.64-14.44,54.75-25.17,85.32-23,45.65,3.2,87.68,16,124.53,45.95,29.51,24,62.92,43.25,102.14,47.39,13.64,1.44,27-4.48,40.57-6.26,5.52-.72,10.87-2.22,16.56-2.16,7.41.08,13.71-3.85,16.06-10.31,2.7-7.46,6.45-11.29,17.4-9.34-8-4.19-14.12-.59-18.76-4.6,2.27-3.27,5.86-3.35,9.11-3.08,18.62,1.53,31.82-8.72,44.6-20,5.54-4.92,9.64-11.57,17-14.32,9.94.51,12.09,2.68,10,13.08-2.24,11.08-2.91,21.92-.13,34.63a143.1,143.1,0,0,1,23-17.89c4.71-2.85,7.28-2,9.1,2.86.43,19.78-8.31,37.2-16.62,53.89-13.84,27.84-33.77,51.95-62.62,65-38.16,17.26-76.47,19.11-114.61-3.6-29-17.29-46.09-43.77-63.11-71.09-11.25-18.07-25.11-33.56-41.41-47.9-31.68-27.85-68.35-40.12-109.11-42.71-15.6-1-31.52.05-46.47,5.14C179.52,282.2,163,285.7,147.91,293.12Z"/><path class="cls-13" d="M386.25,596.65c-14.38,17.22-20.72,36.32-13.64,58.54.59,7.36-5,10.42-9.95,13.48-38.63,24-76.87,20.79-114.63-2.18-4.2-2.56-7.89-5.79-5.76-11.67,8.81-37.5-3.44-69.57-32.93-87.57a26,26,0,0,0-19.11-3.71c-5.28.94-6.87-1.12-6.47-6.71,1-14.09,5.62-27,12.2-39.12,3.77-7,9-12,18.89-8,7.07,2.84,15.32,2.71,23,3.91,8.06,2.12,16.28.48,24.41,1,4,.24,4.2.18,4,4.89-.11,2.29,1.5,1.12,2.14,1.32,25.16,7.94,50.43,9.39,75.78.88,11.83-4,22.92-2.47,33,4.78,14,10.1,27,21.33,34.45,37.44,2.17,4.67,4.54,9.93-2.93,12.61l-2.24,2.29C400.62,585.79,393.59,591.4,386.25,596.65Z"/><path class="cls-14" d="M8.42,63.73,19.77,48.38C23.26,46,26.64,43.27,31.32,44c1.22,4.33-2.52,6.71-3.94,10C24.24,61.22,27,65.47,35,65.64a22.07,22.07,0,0,0,9.78-2.14c3.92-1.8,7.17-4.4,7.44-9,.3-4.89-3.15-7.23-7.12-9-2.69-1.17-5.93-1.25-7.86-3.94,10.09-4.46,20.19-2.21,29,2.35A346.07,346.07,0,0,1,105.5,67.41c21.93,15.33,44.95,29.11,67.73,43.19,4.32,2.67,9,5.32,14.48,5.55,16,3.15,31.87,2.94,47.28-2.36,20.16-6.92,39-16.6,57.22-27.78,38.22-23.5,78.62-42.76,120-59.85,13.61-5.61,28-8.12,41.14,2.52-5,23.19-22.4,36.8-40.56,48.3-27.88,17.66-59.15,28.63-90,40.06-25.92,9.62-52.17,18.36-78.42,27.05-33.95,11.23-66.61,10.2-100.62-2.66C111.64,129.27,79.21,118.11,48.74,102,35.16,94.83,21,88.09,15.94,71.79,14.63,67.53,8.24,68.85,8.42,63.73Z"/><path class="cls-15" d="M330.4,423.53c-17.9-40.9-52.2-58.83-93.6-66.81-3.57-.68-7.49.21-10.64-2.36,6.94-12.67,3.56-25.64.18-38.16-3-11.05-16.48-18.2-31-17.34-15,.87-29.23,5.41-39.27,16.8-19.3,21.91-31.74,46.32-20.58,76.66,1.07,2.91.34,5.92,1.26,8.76-4.5,15.64-8.19,31.38-5,49.7-20.53-28.2-30.86-58.11-23.55-90.29,5.77-25.42,19.1-47.45,43.94-61.64,33.52-19.14,69.32-24.33,106.42-21,45,4,80.42,27.13,109.46,60.81-3.74,2.48-8,3.83-7.34,10.32.54,4.91-1.21,10.26-3.91,14.86-4.15,7.05-4.91,14.19-2.76,22.37,3.11,11.82-7.5,32.29-18.5,37.82C333.72,424.86,332,425.15,330.4,423.53Z"/><path class="cls-16" d="M235.19,751.84l-1.28-7.11c5.44-3.57,8.73.63,12.43,3.41,13.31,13.8,29.3,20,48.7,21.34,20.61,1.38,40-.06,58.49-9.6,25.26-13,45.42-29.94,47.44-61,.24-3.66,2.16-5.33,5.51-5.84,21.82,7.22,42.53,4.93,61.65-7.92,3.69-2.48,6.38-2.93,9.84-.66,5.79,1.86,9.85,5.38,11.15,11.56,12.1,19.28,12.84,39.69,6.41,62.53-16.21-14.09-33.87-15.34-53.26-12.24-37.71,6-55,52.62-37.84,80.72,4.92,8.07,1.14,7.43-4.53,7.84-31.25,2.23-60.17-5.36-88.84-17.66-21.34-9.15-40.09-20.73-56.83-36.71C245.45,772.15,241.78,761.21,235.19,751.84Z"/><path class="cls-17" d="M201.34,362.46c34.56-4.84,66.29.91,93.85,24,14.2,11.89,25.84,25.22,30.65,43.54.26,1.1.5,2.37-.44,3.12-32,25.24-64.37,48.37-108.61,45.67-21-1.28-41.81-.79-60.88-11.45-3.24-1.81-7.1-2.25-10.8-2.8-13-16.67-13.78-37-2.05-57.28a19.71,19.71,0,0,1,9.86,1c15.85,5.68,29.46.3,41.28-9.7,9.86-8.34,19.79-16.94,26-28.74,1.13-2.12,2.23-4.69,7.15-4.28C217.58,364.27,208.79,369,201.34,362.46Z"/><path class="cls-18" d="M527.73,455.11c-6.8,1.7-9.48,5-9.82,13-.33,7.72-6,15.07-8.33,22.87a188.15,188.15,0,0,0-5.85,85.69c1.79,11,1.78,22.19,8,33.08,7.39,12.9,20.48,18,29.78,27.88,5.92,6.31,14.75,9.82,20.21,17.26,3.82,5.21,11.11-.23,15.41,4.34-26.43,0-50.48-8.43-73.57-20.52-8.41-4.4-8.92-12.91-10.23-20.12-3.76-20.54-18.07-32.19-34.09-42.1-5.35-3.32-8.17-6.87-9.8-12.45-7.58-25.95-4.68-51.53,2.47-77,2.81-10,4.93-20.25,9.6-29.66,3.76-7.57,8.21-11.39,17.75-7.66C494.75,455.79,511.16,457.11,527.73,455.11Z"/><path class="cls-19" d="M244.62,749.41c-3.4-2-6.19-5.3-10.71-4.68-6-10.74-2.52-22.29-2.79-33.51,4.85-6.47,5.51-16.55,13.32-20,8.43-3.69,13.84,5.66,21,8.25,23.64,8.49,47.91,10.4,72.82,9,20.37-1.16,39.88-5.17,58.54-13.37,4.75,4,5.54,7.52,1.58,14.31-5.08,8.72-10,17.94-17.26,24.82-17,16.17-35.75,29.3-61,29.68-13.38.2-26.56,2.55-40.21.78A66.6,66.6,0,0,1,244.62,749.41Z"/><path class="cls-20" d="M617.38,697.16a291.79,291.79,0,0,1-16.26,49.09c-11.66,27.25-31,47.16-59.49,57.27-4.85,2.38-6.77-1.41-8.8-4.4-17.2-25.24-22.25-52.58-16.5-82.74,4.75-24.88,18.07-41.87,40.63-52.31a143.11,143.11,0,0,0,53.15-4.44c5.83-1.58,7.17,1.33,7.63,6.19A168.26,168.26,0,0,1,617.38,697.16Z"/><path class="cls-21" d="M662.42,480.14c6.73-4.43,5.5-12.69,9-18.65,3.6-6.13,4.8-15.77,16.52-10,3.77,1.86,10.22.4,10.43-6.37.69-22.63-2.74-44.8-13.89-64.53-8.14-14.4-14.31-30.56-28.34-41.08-2.71-2-2.32-5.33-2.69-8.27.73-5.12,1.45-10.25,2.19-15.4,4.48-1.15,6.39,2.28,8.55,4.31,21.5,20.18,34.11,45.34,42.84,73.3,13.78,44.07,10.66,88.34,4.52,132.89-3.14,12.31-7.63,24-15.42,34.21-11.17,2.51-9.88-9.5-15.58-13.37-2.77-2.83-1.77-6.24-1.41-9.53,2.23-20.32,1.35-39.72-15.93-54.34C662.35,482.57,662.39,481.27,662.42,480.14Z"/><path class="cls-12" d="M145.11,464.52c5-3.93,9.49-1.39,14.47.72,40.78,17.23,81.55,14.82,120.72-3.89,16.43-7.84,30.43-20.76,45.54-31.37,13,31.23-8.68,66.41-42.36,74.38-46,10.86-87.13-.37-125.35-26.35C152.74,474.34,148.1,470.32,145.11,464.52Z"/><path class="cls-18" d="M330.4,423.53c16.25-7.92,23.85-24.8,19.23-41.84-1.84-6.81.5-13.24,4.36-18.72s5.69-12.83,4.32-17.73c-4.15-14.77,3.7-8.56,9.65-6.62C399.6,370.33,409,394.92,382.7,440c-11.94,20.44-28.61,36.9-51.05,46.54-6,2.56-10.37,8.54-19.17,8.72,14.69-13,23.24-27.72,23.13-46.67C335.56,439.8,330.83,432.14,330.4,423.53Z"/><path class="cls-22" d="M348,48.37,289.58,79.85c-4.42-2.1-1.52-3.57.46-5.19-14.6,4-29.49,4.1-44.41,3.56-7.9-.29-15.09-2.68-18.15-10.63-3.31-8.63.05-16.06,6.37-22.23,5.49-5.36,13.41-8.51,15.32-17.08C274.66,20,299.41,8.83,326.8,7.57c4-.73,8-1.56,12.06.42-.56,5.54-5.72,3.72-9.23,6,9,3.68,17.91,7.5,20.09,17.74C350.88,37.24,354,43.45,348,48.37Z"/><path class="cls-23" d="M649.29,318.09c-2.15-.35-3-5.4-6.15-1.89-6.37,7.05-17.36,8.63-21.53,18.31a4.85,4.85,0,0,1-5.31,3.22c-3.57-.62-3.1-3.65-3.14-6.15-.18-11.26-2.67-22.51,1.63-33.71,2-5.19,1.64-10.83-6.23-11.54-1.56-6.65,2.72-11.45,5.64-16.46,20.41-35,20.61-94-9.52-126.1-2.27-2.42-4.74-5-3.19-8.88-1.17-7.42,8.8-4.56,9.48-10.28,28.54,40.58,46.54,85,45.92,135.19C656.65,279.27,656.3,299.26,649.29,318.09Z"/><path class="cls-24" d="M408.71,576.55c6.38-5.92.86-11.68-1.76-15.67-9.68-14.77-22-27.19-37.77-35.76A24.16,24.16,0,0,0,350.69,523a218.69,218.69,0,0,1-34.88,7.07c-14.43,1.77-42.73-2.78-56.31-11.2l8.65-1.86c-10.87-3.14-21.13,1.81-30.26-3.36l33.61-.21c2.37-1.61,5-1.26,7.5-.68,1.92.45,2,2.07.78,3.23-1.08,1-2.66,1.24-2.14,1.72,41.07,5.45,81.77,4.14,113.32-32,1.24-1.42,2.52-2.76,4.68-1.76,7.59,3,15.36,5.56,22.72,9,15.37,7.21,26.58,16.56,21.89,36.65-2.44,10.41-.23,21.53,1.79,32.17.76,4,.8,9.59-3.38,8.65C427.35,567.9,418.77,575.26,408.71,576.55Z"/><path class="cls-25" d="M557,664.07c-3,6.06-9,8.86-14.1,12.44-10.48,7.29-15.64,17.21-20.46,29.21-10,24.92-4.34,48.39,1.24,72.25,2.48,10.59,9.89,18.5,18,25.54A33.77,33.77,0,0,1,523,810.15c-15.2.54-13.29.1-15.88-14.43a214.4,214.4,0,0,1-1.63-63.47c1.63-14.06-3.25-28.06-14-38.84a26.21,26.21,0,0,1-11.19-11c-1.51-1.68-5.42-2.61-2.14-5.89,10-10,16-22,17-39.07C513.2,656.21,536.47,656.56,557,664.07Z"/><path class="cls-26" d="M460.22,446.51a9.9,9.9,0,0,1-.6,2.86C452,464.45,448.64,481,443,496.78c-1.36,3.79-2.33,6.65-6.59,2.78C421.92,486.41,404,480.2,385.93,474c-12.09-4.14-13.85-8-6.41-18.68C390.42,439.7,401,424.3,402.4,404.3c.4-5.82,6.12-7.77,9.43-2.47,10.92,17.5,27.47,27.91,44.56,37.95C459.83,441.81,460.07,442.92,460.22,446.51Z"/><path class="cls-27" d="M409.39,581.32c13.24-3.07,26.26-8.14,40.22-3a23.71,23.71,0,0,1,10.72,7.18c8.44,13.06,6.17,36.2-4.89,50.15-22.42,28.25-68.09,20.56-78.77-3.18-.83-12.81,6.93-22.53,12-33.22C392.91,590.22,399.35,583.69,409.39,581.32Z"/><path class="cls-28" d="M473.66,597c20.2,17.82,22.41,61.67-2.34,78.77-10.52,7.27-19.81,15-33.07,16.71-29.09,3.77-59.32-18.22-61-48.71,4.69-3,7.67.8,10.82,3,11.87,8.11,24.84,10.92,39.11,9.85,25-1.86,39.09-17.8,40.64-46.83C468.13,604.67,466.64,599,473.66,597Z"/><path class="cls-29" d="M249.17,28.28c5.89,4.61.77,7.84-1.89,10.48-3.38,3.35-7.92,5.49-11.59,8.59-5.9,5-8.66,11.78-6.19,19s9.18,9.25,16.38,9c11.46-.43,23,1.23,34.37-1.92,4.48-1.23,10.84-2.34,9.33,6.44-17.32,11.66-34.7,23.2-55.74,27.23-9.27.29-18.43,0-27.39-2.94-10-3.29-17.17-9-17.68-20.35-.36-7.92-4.32-7.5-9.55-4.58a57.82,57.82,0,0,0-13.08,10.36c-2.42,2.48-4.48,6.51-9.16,3.79-6-.9-3.79-3.28-1.59-6.56,7.09-10.58,17.92-17,28-23.56C204.19,49.66,225.47,36.59,249.17,28.28Z"/><path class="cls-30" d="M136.73,401.08c-22.61-43.73,8-100.73,56.54-105.4,21.26-2.05,35.59,9.61,38,30.83.54,4.78,2.09,9.56,1.87,14.27-.26,5.24.31,11.64-7,13.58l-28.71,1.56c-.68-6.18-3-12-3.07-18.4-.22-14.13-11.3-20.14-24.17-13.83a43.27,43.27,0,0,0-22.07,53c.73,2.11,2,4.05,1.9,6.39C145.94,389.34,142.44,396,136.73,401.08Z"/><path class="cls-31" d="M176.77,648.52c-11.54-14.3-14.6-30.58-11.2-48.34,3.69,3.31.25,7.63,1.6,11,0,1.74,1.77-.24.36.26-.37.13-.45-.18-.47-.92-.09-5.75.33-10.59,7.57-4.79,2.83,2.26,6,3.73,8.75.27a8.94,8.94,0,0,0,.38-11.37c-2.6-3.54-5.91-1.18-9.07-.25s-4.71,4.92-8.55,4.48c.58-12.72,5.32-23.38,17.13-29.08,9.18-4.44,24.14,1.21,33,11.16,2,2.22,3.88,4.48,5.82,6.73-1,11.06.75,22.24-2.48,33.24C213.4,642.2,196.78,653.15,176.77,648.52Z"/><path class="cls-32" d="M395.64,484c-17.3,24.55-42.27,35.85-71,38.1-17,1.33-34.9,5.32-51.16-5.24l6-2.45-8-.94C286,509,301.34,507.9,315.37,501.9S344.5,491,354.49,478.11c2.82-3.64,6.41-3.17,10.12-2.53C375.22,477.4,385.7,479.68,395.64,484Z"/><path class="cls-33" d="M377.28,663.85c4.07,9.39,10.69,16.91,19.08,24.69-16.16,7.08-31.31,12.9-48.52,14.23-20.92,1.62-41.71,2.24-61.89-3.22-17.08-4.63-33.5-11.35-47.78-22.76-5.77-4.61-4.82-7.17-.75-11.2,7.11-2.56,12.15,2.23,17.6,5.15,37.4,20,74.49,22.88,111.22-1.62C369.65,666.85,373,664.39,377.28,663.85Z"/><path class="cls-30" d="M201.34,362.46H228c-14.94,23.63-29.79,44.05-57.65,50.5-10.42,2.41-18.5-2.52-27.32-5.72C154.56,382,173.54,366.49,201.34,362.46Z"/><path class="cls-34" d="M150,383.09c-8.32-5.25-8.51-14.88-7.86-22,1.74-18.94,12.07-33.46,29.83-41.39,12.87-5.74,24.79,2.7,25.63,16.66.31,5.24-3.89,12,4,15.92,1.22.6-3.61,1.38-4.21,3.65C178.21,359,164.48,371.66,150,383.09Z"/><path class="cls-35" d="M244.62,749.41c17.08,10.16,35.75,14.31,55.38,13.3a233.61,233.61,0,0,0,36.36-4.44c20.56-4.35,36.16-17,48.17-33.62,5.52-7.62,12.91-14.54,14.14-24.83.26-2.2-.14-3.55-1.83-4.7,2.89-2.22,5.45-5.94,9.64-2-6.06,6.86-2.34,15.85-5.49,23.94-6.52,16.76-18.36,28.92-31.87,37.84-20.77,13.71-44.05,20.9-70.46,17.72-17-2.05-33-3.75-46.51-15.07C249.35,755.14,247.12,752.12,244.62,749.41Z"/><path class="cls-36" d="M348,48.37c4.87-21.52-9.84-29.21-27.87-35.13,6.46-4.72,12.12-1.68,18.05-4.52L326.8,7.57c18.27-3.79,36.77-4,55.27-3,11.88.61,23.7,2.23,35.55,3.4-9.54,5-19.76,1-29.58,2.21-3.24.39-7.55-1.08-9.07,2.63-1.32,3.24,2.78,4.79,4.56,7,2.33,2.9,4.79,5.68,7.19,8.51A301.68,301.68,0,0,1,348,48.37Z"/><path class="cls-37" d="M231.09,599c10.39,18,13.14,37.11,5.26,56.39-8.08,19.78-24.4,22-45.09,9.16-4.57-2.85-7.84-7.79-11.71-11.76,1.57-4.31,5.29-3,8.48-3.36,26.33-2.94,34-11.16,35.65-37.67C224,606.39,223,599.94,231.09,599Z"/><path class="cls-38" d="M109.73,152.15c-6.44,17.23-16.43,32.76-21.6,50.82C81,227.78,82.69,252.15,86,276.87c1.68,12.47,4,24.85,5.66,37.32.47,3.49,1.48,7.52-1.88,10.51-8.13-13.25-9.07-28.51-12-43.21-.56-2.81.57-6-1.83-8.38-2.79-32.23,2.61-63.61,10-94.76,2.17-9.13,7.33-17,11.49-25.31C101,146,105.53,150.94,109.73,152.15Z"/><path class="cls-39" d="M473.66,597c-6.39,7.11-2.56,16.09-3.91,24.08-3.74,22.16-19.62,36.51-42,38.76-19.73,2-35-6.69-50.49-16.07-1.31-3.71-3.4-7.38-.61-11.31,1.6.77,3.9,1.11,4.71,2.39,10.76,17.1,41.27,19.6,57.93,10.63,17.44-9.38,25.22-26.34,21.53-50.25-.51-3.28,1.89-6.63-.51-9.74C466.79,587,470,592.31,473.66,597Z"/><path class="cls-40" d="M157,93.36c7.84-4.8,12.69-13.25,21.19-17.28,3.69-1.74,7.26-4.29,11.48-2,4.47,2.45,1.83,6.16,1.77,9.73-.15,8.87,5.42,13.6,13.36,16.89,9.39,3.89,19.84,2.22,29.06,6.37a97.23,97.23,0,0,1-31.92,7C186.78,107.49,169.14,106.36,157,93.36Z"/><path class="cls-41" d="M377.28,663.85c-27.52,25.39-59.6,30.14-94.91,21.43-11.3-2.79-21.76-6.9-31.42-13.46-4-2.75-9-4.19-13.53-6.23l4.85-10.77a10,10,0,0,0,5.22,8.2c41,23.27,71.64,27.67,115,2.54a28.66,28.66,0,0,0,10.08-10.37C375.47,657.38,377.27,660.13,377.28,663.85Z"/><path class="cls-42" d="M231.09,599c-4,3-4.84,7.1-4.48,11.85,1.71,23-9.5,41.82-38.51,39.86-2.79-.18-5.7,1.35-8.55,2.08-2.67-.27-2.59-2.34-2.78-4.23,4.51-4.2,9.74-.08,14.86-1.41,18.85-4.88,29.24-27.36,27-45.61-.67-5.58-1.33-10.08,3.46-13.8A25.88,25.88,0,0,1,231.09,599Z"/><path class="cls-43" d="M37.27,41.57c3.29.5,6.71.57,9.81,1.61,4.35,1.46,7.87,4.12,8.64,9.21S53.94,61,50.21,63.76a25.19,25.19,0,0,1-20,4.44C23.54,67,20.6,62.1,23.27,55.77c1.81-4.3,5.31-7.9,8.05-11.81Z"/><path class="cls-44" d="M166.14,598.89c2.67-5.69,8.29-7.53,13.34-10,4.12-2,6.84,1.14,7.84,4.09,1.91,5.63,2.81,11.72-2,16.69-2.93,3-6.57,3.76-10,1.18-2-1.47-3.29-3.83-5.17-6.12-4,3.48.24,8.91-3.65,12.38-.31-5.89-.59-11.42-.87-16.94A.84.84,0,0,1,166.14,598.89Z"/><path class="cls-45" d="M409.39,581.32l-20.74,17.94-2.4-2.61c4.45-8.54,11.73-13.86,20.22-17.81Z"/><path class="cls-46" d="M480.33,682.39a25.78,25.78,0,0,1,11.19,11l-2.4,2.64L478,684.49Z"/><path class="cls-47" d="M698.87,807.27c13.45,20.42,8.63,42.19,4.65,63.87a82.51,82.51,0,0,1-2.43,8.62c-7.79,25.89-12.25,27.37-38.48,20.63-22.46-5.77-44.63-11.62-65.25-22.57C572,864.36,549.4,847.7,532.61,824c-2.91-4.11-7.13-8.35,2.08-11.28,29.91-9.49,52.66-28.31,69-55,12.38-.69,29.11,12.4,30.35,23.74a11.84,11.84,0,0,1-3.18,3.09c-14,9.48-17.57,17.38-13.79,30.57,4.16,14.56,17.75,25.45,31.81,25.5,11.83.05,21.17-8.92,22-20.79.39-5.62-1.77-11.06-.88-16.68,3-6,7.84-4.28,12.57-2.9C688.28,802,692.87,806.27,698.87,807.27Z"/><path class="cls-48" d="M361.55,866A121.1,121.1,0,0,1,332,830.58c21.36,5,40.24,12,60.63,10.86,11.75-.67,22.92-.67,34.84,5,21.77,10.38,56.54-1.67,73-24.66,1.75-2.45,1-7.92,5.74-7,6,1.18,12.62.9,17.27,6.54,8.05,9.73,16.54,19.1,24.84,28.61-12.74,5.28-19.09,17.4-28.36,26.39-.53.52-1.15,1.24-1.79,1.27-13.79.71-14.31,15.15-22.46,21.7-4.33,3.47,2,9.54-2.71,13.19-2.87,1.24-5.9,1-8.85.81-8.33-.58-12.09-5-8.6-12.63,4.79-10.43-.83-16-8.57-17.9-18.09-4.53-36.21-12.92-55.47-4.35-4.75,2.12-9.58.44-14.32-.42C384.69,875.73,372.94,871.36,361.55,866Z"/><path class="cls-49" d="M952.21,540.45c7.38,7.34,4.45,17.55,7.24,26.16,1.12,9.29,1.64,18.58-.22,27.85v0c-9.71-3.4-1.73-11.56-4.47-15.25-.79,11.17-7.12,22.65-8.27,35.3-8.94,28.5-17.61,57.15-35.89,81.52-11.62,15.49-22.7,16.5-38.74,3.94-7.52-33.71-5.39-67.46-.18-101.17.61-3.95,2.75-7.66,4.18-11.47,17.8,2.51,34.44,9.16,51.4,14.65,7.66,2.48,11.16-1.6,13.35-7.92,4.79-13.84,8.11-27.89,6.27-42.75C946.33,546.79,944.68,541.22,952.21,540.45Z"/><path class="cls-50" d="M554.15,895.17c7.85-6.77,12.16-19.48,22-21.14,9.12-1.54,17.84,7.53,26.58,12.11,21.12,11.05,43.85,16.4,66.91,21,11.82,2.35,13.05,5.13,5,14.12-23,25.51-51.85,37-86.17,34.73a18.09,18.09,0,0,0-15.76-4c-9.37,2.23-16.83-1.86-24.54-5.42-7-3.24-7.93-8.27-3.43-14.53,3.93-5.49,8-10.9,13.06-15.35,6.28-5.49,8-10.6-.08-16A8.71,8.71,0,0,1,554.15,895.17Z"/><path class="cls-51" d="M811.81,830.06c18,20.38,7.14,56.29-18.63,62.82-28.54,7.23-56.73,16.27-86.79,13.88-2.95-.24-5.92-.29-10-.49,9.33-25.65,19.13-50.69,15.85-78.19,7.08,7.53.92,16.08,3,22.56.7-5.19.36-12.11,0-18.9s3.1-8.91,8.75-8.6c7.42.41,15,.87,21.12,6,2.84,3.92.44,7.23-1.68,10.16-4.56,6.32-2.4,11.13,2.77,15.54,9.6,8.17,20.35,10.65,32.28,6.06s14-10.64,7.15-21.41c-1.2-1.89-2.73-3.57-3-5.92C789.27,824.2,799.22,823,811.81,830.06Z"/><path class="cls-52" d="M952.21,540.45c-2.93,1.63-3.94,3.63-3.11,7.29,4,17.36-1,33.73-6.37,50-2.52,7.64-7.36,9.92-15.54,7.66-16.22-4.49-31-14.56-49-12.63-2.78.29-1.6-3.53-2.34-5.41,2.35-12.28,7.31-23.71,11.51-35.39a49.11,49.11,0,0,0,12.1-12.74c8.84-13.18,20.38-21.09,37.25-16.86C943.7,526.81,952.14,530.06,952.21,540.45Z"/><path class="cls-53" d="M748.12,940.86c-7.68-.75-13.56,4.65-20.6,6.06-33.43,8.08-67,14.6-104.35,13.09,11.9-5.65,21.33-10.33,30.92-14.64a60.42,60.42,0,0,0,27.21-24.19c4.47-7.33,10.74-10.51,18.44-10.12,35.06,1.78,69.08-3.32,103.79-15.7-2.93,10.15-6.9,17.27-14.48,22.57C776.16,927,761.83,933.34,748.12,940.86Z"/><path class="cls-54" d="M422.42,760.77c13.68-13.53,30.35-11.73,47-8.71,22.14,4,36.77,27.94,31.07,49.92-7.07,27.27-17,35-45.05,40.11-15.48,2.79-28.86,2.43-40.29-9.39.74-6.07,4.82-6.51,9.82-6.29,18.53.85,30.35-6.76,32.24-20.44,2.55-18.53-7.4-33.43-25.3-37.8C427.57,767.12,422.55,767.09,422.42,760.77Z"/><path class="cls-55" d="M361.55,866c10.81-.57,19.85,5.7,30,7.78,9,1.85,16.73,2.93,26.39-1.12,11.55-4.85,24.64,1.42,36.93,3.58,6.38,1.12,12.92,1.78,18.75,6.32,7,5.45,11.61,9.45,4.52,18.42-4.44,5.63-1.45,9.84,5.79,10.19,3.36.17,6.73,0,10.09,0,2.53-1.47,4.38-1.52,4.44,2.14-34,8-65.43,1.48-95.36-15.64C387.8,888.91,374.48,877.74,361.55,866Z"/><path class="cls-56" d="M554.15,895.17a5.52,5.52,0,0,1,1,.48c18.26,13.78,15.76,11.11,1.9,25.53a13.74,13.74,0,0,0-1.56,1.59c-4,5.93-14.42,12.4-10.42,17.61a24.26,24.26,0,0,0,26.34,8.43c4.67-1.31,14.57-2.65,17,7.18-22.11,1.77-43.27-2.57-64.26-9.16-16.27-5.11-32.83-9.31-49.36-13.58-9.86-2.54-17.34-9.38-26.66-13.29,28.06,3.75,54.7-1.26,81-9.25a4.26,4.26,0,0,1,3.12.15c2.87,1.2,5.32,5,8.66,3.07,4.44-2.62-2.12-6.39.22-9.62Z"/><path class="cls-57" d="M871.87,700c3,2.35,7-.31,10.41,2.54,9,7.39,17.06,3.53,23.19-4.18,19.63-24.67,28.87-54.18,38-83.69,1.39-1.33,1-3.43,2.07-4.89,1.48-2,2.77-4.76,5.73-4.13,3.46.74,2.29,3.79,2.37,6.24s-1.42,5,.6,7.25c-10.64,43.09-27.72,83.4-52.71,120.14-7.93,11.66-14.7,10.73-20.37-2.59C876.19,725,872.71,712.75,871.87,700Z"/><path class="cls-51" d="M871.57,778.54c13.88,11.35,10.68,25,6,39.44-9.51,29.48-32.94,45.9-57.81,63.6,5.39-23,10.27-44.73-9.51-62.12,6.33-5.92,12.8-11.55,22.41-10.39a4.31,4.31,0,0,1,1.64,3.89c-.39,6.95-.92,14,9.24,13.93,10.4-.12,21.48-7.9,22.23-15.4.44-4.4-2.19-7-5.57-8.78-2.9-1.57-6.65-1-9.28-3.46C853.33,787.89,863.27,784,871.57,778.54Z"/><path class="cls-58" d="M498.48,913.31c-1-1.73-2.64-2.08-4.44-2.14-4.53-6.37-4.66-11.84,2.22-17.06,3.63-2.75,7.92-5.81,6.09-12-1-3.47,2.19-4.7,4.82-4.44,9.45.91,13.85-5.41,18.65-11.81,3.78-5,9.4-8.92,12.34-14.33,3.36-6.19,7.44,2.63,10.1-1.54,2.8,2.34,5.55,4.74,8.41,7,14.09,11.18,13.55,10.68,1.18,24.68C541.84,899.75,521.94,909.65,498.48,913.31Z"/><path class="cls-13" d="M406.76,821.24c-6.77-19.48-6.32-37.86,8.26-54.08,8.78-1,17,1.32,24.46,5.48,13.18,7.33,19.31,20.3,15.48,31.25-5.6,16-19.47,24.37-35.53,21.24C415.09,824.28,410.59,823.81,406.76,821.24Z"/><path class="cls-59" d="M833.43,810.07c-9-.1-14.47,8.68-23.17,9.39L791.51,807c22.39-4.16,40.21-14.67,57.84-25.66,6.84-4.26,14.21-6.72,22.22-2.78L851.27,799C847.3,805.86,840.72,808.54,833.43,810.07Z"/><path class="cls-60" d="M269.41,800.94c10.22,6.72,20.48,13.34,32.06,17.61,2.17.8,5.93,1,5.32,4.36-.44,2.38-3,4-5.67,4.9-22.66,7.33-51.87-.06-61.74-21.79C248.59,799.59,259.5,803.23,269.41,800.94Z"/><path class="cls-61" d="M707.8,812.19l-10.53-17.84c11.42,3.62,20.92,6.27,30.16,9.65,18.83,6.9,38.75,5.48,58.14,8,7,.91,12.81,3.47,17.14,9.12-14.18,5.23-28.93,6.92-43.58,3.85-10.58-2.22-20.89-5.09-31.86-5.27A29.27,29.27,0,0,1,707.8,812.19Z"/><path class="cls-62" d="M633.33,780.74c-7.41-10.83-16.73-19.2-29.62-23L613,733.5c13.31,24.74,35.51,38.91,59.56,51.42A69.49,69.49,0,0,1,697,805.42l1.85,1.85c-6.12,3.38-10.26-1.82-15.18-3.56-4.07-1.43-8-4.93-12.16-.32-1.1.3-2.5.44-3.08-.43C660.08,790.24,647.06,784.94,633.33,780.74Z"/><path class="cls-63" d="M707.8,812.19c15.22,6.25,32.22,2.41,47.55,8.73,15.57,6.4,31.56-1.95,47.36.19l9.1,8.95c-10.1-3.42-19.59-3.11-27.88,4.54-12.74-1-25.59-.1-38.26-2.25-6.56-6-15.19-4.87-23-6.38-4.91-1-6.28,2.51-6.2,6.89.12,6.6,0,13.2,0,23-4.35-11.09.53-20.08-4.32-27.77Q710,820.13,707.8,812.19Z"/><path class="cls-64" d="M697,805.42c-22.22-18.59-50.65-28.19-71.26-49.07-6.28-6.37-11.47-13.6-12.81-22.85,1.11-3.44,2.23-6.87,3.44-10.57,4.78,2.42,4.84,7.83,8.28,10.61l17.25,23c10.57,13.35,25.91,20.48,39.45,29.9C688.53,791.44,695.65,795.9,697,805.42Z"/><path class="cls-65" d="M406.76,821.24c4.06-1.3,7.93-.53,11.93.62,15.24,4.35,31.12-5.34,34.58-20.91,2.42-10.88-9.42-26.57-22.42-28.93A61.58,61.58,0,0,1,415,767.16c1.55-3.2,4.6-4.65,7.4-6.39,2.21,1.82,3.82,3.94,7.27,4.5,20.82,3.41,29.54,15.64,31.06,36.48,1.2,16.46-18.24,31.33-34.06,27.93-5.13-1.11-8.45-.88-11.58,3C410.79,830,408.57,825.78,406.76,821.24Z"/><path class="cls-66" d="M269.41,800.94c-8.78,8.94-20.15,2.62-30,5.08-11.64-14.07-13.58-30.61-4.89-45.36C241.79,778.16,256.19,789,269.41,800.94Z"/><path class="cls-67" d="M862.6,760.73a5.3,5.3,0,0,1,1.63-.22c.56-.48,1.31-1.19,1.85-1,8.76,3.09,17.25,1.11,25.74-1.23,5,5.25,4.94,11.27,2.38,17.46-3.83,9.3-8.38,10.13-15.08,2.79-2.75-3-5.1-6.5-9.5-7.14C863.19,770.45,862.63,765.8,862.6,760.73Z"/><path class="cls-68" d="M954.23,619.09c-1.42.19-4.14,2.24-3.18-1.47.91-3.51,2.4-6.79.29-10.33-4.58.53-4.75,5.51-7.89,7.33,1.21-16.51,11.37-31,10.32-48.19,6.23,8.79-.29,19.51,5.47,28Z"/><path class="cls-69" d="M845.34,870.12c-9.45,17.8-25.8,28.63-42,42.43C808.94,888.11,832,884.16,845.34,870.12Z"/><path class="cls-70" d="M891.82,758.28c-8.44,10.15-18,6-27.59,2.23,3.42-10.27,11.61-11.76,20.85-11.33Z"/><path class="cls-50" d="M541.16,904.31c.93,4.14,9.61,6.93,3.5,11.92-6.89,5.62-11.09-1.39-15.5-5.52Z"/><path class="cls-68" d="M959.23,594.46q.1-13.92.22-27.85A50.7,50.7,0,0,1,959.23,594.46Z"/><path class="cls-71" d="M20.11,113.44C9.4,101.13,1.2,88,6.29,70.62c5.05,2.78,8.23,7.56,12.09,11.55a102.86,102.86,0,0,0,32,22.18,746.37,746.37,0,0,0,89.83,34.05c17.05,5.21,33.57,11.92,51.22,15.42A61.89,61.89,0,0,0,226.72,151c39-15.25,79.5-26,119.06-39.55,23-7.87,45.24-17.7,67.19-28.11,17.81-8.44,31.2-21.62,39.47-39.72,1.71-3.73,3.19-7.71,7.91-8.73,20.75,22.62,10.4,62.14-20,75.82-27.13,12.24-56.64,15.66-85.21,22.51a543.28,543.28,0,0,0-89,29.51c-13.34,5.76-22.09,16.27-23.45,31.68-.66,7.41-1.74,14.77-4.3,21.86-4.1,11.39-14.21,19.26-25.75,19.66-11.82.41-21.75-6.45-26.29-18.72-1.8-4.87-4-10.09-3.85-15.09.71-28.11-19.65-37.69-40.66-45.2-28.08-10-56.85-18.12-85.3-27.13C43.84,125.74,31,121.83,20.11,113.44Z"/><path class="cls-72" d="M426.61,122.78c-8.56,12.95-23.08,15.4-36.17,19.79-31.69,10.61-63.62,20.59-91.52,39.7-6.46,4.42-13.29,10.22-1.28,17.21,4.38,2.55,3.71,6.81.08,10.38-15.93,15.63-33.78,27.54-56.42,31.29-6.16,1-6.16-3.39-8.14-6.39,9.06-9.93,15.06-21.28,15.35-35,.4-18.44,10-29,26.9-35.49,18.07-6.89,35.74-14.73,54.69-19.06,8.54,2.58,15.13-4.64,23.24-4.23,1.4-.61-1-1.34-.78.13.06.32-.28.38-1,.41-1.51.07-2.95,0-4-1.24C373.87,134.32,399.94,127.2,426.61,122.78Z"/><path class="cls-73" d="M460.35,34.88c-5.48,6.7-7.15,15.35-12.07,22.53C433.44,79.09,410.49,87.71,388,97.84c-44.32,20-91.53,31.2-137.2,47a24.2,24.2,0,0,0-4.23,1.44c-33.93,19.77-66.6,10-99.36-3.72-10.95-4.6-22.54-7.74-34-11.12-29.36-8.7-58-19.3-83.8-35.92-9.5-6.12-18.56-13.72-23.15-24.93.25-2.44-.46-5.17,2.13-6.89,3.95-.51,8.25-2.29,9.38,4.13C20.46,82.86,32.1,90,44,96.25c31.13,16.2,62.93,30.54,96.84,40.58,18.57,5.49,36.19,13.3,56.13,12.8a153.45,153.45,0,0,0,44.88-7.82C295,124.15,348.18,106.78,398.5,82c21.75-10.72,40.36-25.26,50.72-48.26.86-1.92,2.74-3.37,4.15-5Z"/><path class="cls-11" d="M347.55,140.31l4.37.55c-7.32,1.29-13.08,10.39-21.82,4.38Z"/><path class="cls-74" d="M601.49,134.89a104.7,104.7,0,0,1,29.74,63.6c3.16,31.71-5.2,61.12-22.67,87.84-9.68,6.35-16.06,16.2-25.27,23.21-14.06,10.7-29.3,15.27-46.68,13.32l.29-.61c2.56-7.72,10-3.43,14.69-6,3.21-.85,6.57-1.16,9.63-2.6,32.49-13.06,50-38,58.45-71.17,3.79-14.81,2.19-29.56,3-44.31.64-11-4.87-20.88-9.37-30.7-3.79-7.62-8-15-13.65-21.41-12.35-14-26.22-25.73-43.46-33.76-8.81-4.1-17.8-4.36-26.84-5.85-31.63-5.14-67.56,15.81-79.29,45.4a209.9,209.9,0,0,0-11.93,41.64c-.42,2.45-.52,5.38-4,5.83-3.32-3.88-1.78-8.17-1.06-12.38C435,138.54,470.58,100,518.45,97.15c20.14-1.19,39.34,6.55,56.65,17.39C584.53,120.45,593.86,126.59,601.49,134.89Z"/><path class="cls-75" d="M552.47,318.24c-4.32,4.73-11.21-.54-15.57,4-42.34-6.55-73.4-30.13-93.68-66.56-11.57-20.79-15.64-44.55-10.13-68.79,1,4-1.07,8.46,2.16,12,3.89,3,3,7.36,3.31,11.35,3.05,40.61,23.21,70.33,58.31,89.94,15,8.37,30.55,16.06,48.64,15.12C548.11,315.19,550.75,315.84,552.47,318.24Z"/><path class="cls-76" d="M662.42,480.14c22.49,14.57,22.16,36.62,19.47,59.43-.3,2.55-.89,5.07-1.35,7.6-9.52,23.45-22.86,43.4-46.62,55.1-28.36,14-63.37,3.46-62.51-41.16.68-35.17,19-62.3,50.72-79.14C635.2,475.05,648.77,475.93,662.42,480.14Z"/><path class="cls-77" d="M392.91,61.84c-13.52,7.7-28.14,12.79-42.71,18-5.08-1.2-5.74-2.34-2.87-5.41,3.82-4.08,9.9-4.56,13.87-8.44,9.91-6.48,20.68-11.16,31.69-15.37,2.42-1.35,5-2.14,7,.41s.5,4.92-1.61,6.79A38.63,38.63,0,0,1,392.91,61.84Z"/><path class="cls-78" d="M361.2,66c-1.47,5.57-7.46,5.35-10.78,8.5-1.4,1.34-7,3.35-.22,5.35-13.83,6.65-28.09,12-43.34,14.83C324.2,83.49,341.27,72,361.2,66Z"/><path class="cls-79" d="M392.91,61.84c-1.62-3.74,14.7-7.51,0-11.23,4.67-4.51,10.83-6,16.66-8.13,3.17-1.14,6-.4,7.45,2.75,1.31,2.76-.19,5.09-2.24,6.8C408.41,57.33,400.91,60.18,392.91,61.84Z"/><path class="cls-80" d="M550,724.27c-1-12.33,2.92-22.34,11.71-30.57,12.09-11.33,27.42-8.37,33.28,7.14,5.53,14.62,3.39,28.73-5.75,41.5-6.09,8.5-14.84,12.07-24.63,8.93-9.3-3-13.89-10.82-14.59-20.64C549.85,728.4,550,726.14,550,724.27Z"/><path class="cls-81" d="M415.46,608.28c-1.91,6.82-4.78,14-12.67,14.64-5.11.4-9.73-4.7-9.5-10.35.28-6.94,3.34-13.11,11.67-13.62C411.09,598.58,414.49,602,415.46,608.28Z"/><path class="cls-82" d="M633.33,780.74c18-1.41,29,9.13,38.2,22.65,5.76,21.69.47,34.88-15.74,39.22-13.53,3.62-30.38-4.35-37.73-17.84-8.25-15.13-6.86-28.19,3.44-37.92C625,783.55,629.48,782.94,633.33,780.74Z"/><path class="cls-83" d="M745.67,832.35c13-3.34,25.8-3.6,38.26,2.26,5.74,4.12,10.37,9.24,8.81,16.76-1.64,7.89-8.47,10.52-15.36,13-10,3.55-19.37,1.24-28-3.3C734.78,853.36,734.14,846.31,745.67,832.35Z"/><path class="cls-84" d="M833.43,810.07c5.28-4.78,11.54-8,17.84-11.09,7.63-1,14.84.39,17.33,8.34s-3.11,13.89-9.27,17.24c-7.56,4.1-16.22,9.05-24.81,2.55C828.33,822.41,830.42,816,833.43,810.07Z"/><path class="cls-85" d="M552.47,318.24c-41.75.06-72.8-19.65-97.58-51.84-15.48-20.11-18.94-43.29-19.64-67.48,2.23-25.82,8-50.71,26.31-70.07,18.46-19.54,41-30.43,69-24.62-3.9,4.29-10.22,3.63-14.59,7.42-4.55,4-7.28,6.68.42,9.81,2.76,1.13,5,3.2,5.27,6.6-1.41,3.67-4.88,4.4-8,5.41-25.56,8.25-36.58,28.31-41,52.53-4.54,24.75.2,47.56,15.08,68.95,16.49,23.7,44.34,37.8,72.75,33.43a22.56,22.56,0,0,1,7.57,1c9.17,2.88,10.2,6.68,3.85,14.08-3.51,4.09-8.87,6.66-10.31,12.46Z"/><path class="cls-86" d="M561.54,315.94c-.57-2.13-6-3.57-.86-6.55a20.31,20.31,0,0,0,5.24-3.84c2.81-3.2,8.84-5.73,7.63-9.79-1.37-4.58-7.64-4.24-12.25-4.77-.44-3.92,2.56-5.4,5.25-6.3,18-6,26.19-20.72,31.48-37,7.73-23.79,7.8-47.73-2.64-71.06-1.07-2.4-2-4.84-1.7-7.56,1.59-5,5.15-5.79,9.58-4.29A25.1,25.1,0,0,0,615.2,166c8.73,14.52,10.71,29.81,10.25,47-.51,18.91-2.58,36.94-11,53.5C603,289.12,587.39,308.23,561.54,315.94Z"/><path class="cls-87" d="M521.35,127.16c-.65-.35-1.62-.54-1.9-1.08-2.82-5.39-15.26-1.31-12.51-8.89,2.59-7.15,10.64-13,20.3-12.59a20.58,20.58,0,0,0,3.3-.37c31.19.68,52.55,18.47,71.22,40.93-4.89,9-13.09,6.93-20.89,6.23-15.17-10.81-30.24-21.82-50.21-21.5C527.36,129.94,523.89,130,521.35,127.16Z"/><path class="cls-88" d="M582,149.42a31,31,0,0,0,19.8-4.26c6.74,5.48,10.15,13.11,13.44,20.81-3.09,4.32-7.17,5.17-11.25,2-3.15-2.42-5.78-2.42-8.86-.51C587.17,164.05,584,157.16,582,149.42Z"/><path class="cls-17" d="M588,561.9c.88-23.81,10.8-43.07,29.8-57.56,11.75-9,25.14-13.7,38.61-6,14.59,8.32,16,24,14.45,38.7C668.55,558.57,657,575.5,640,588.55c-11.06,8.51-24,12-36.85,6C589.92,588.28,587.25,575.57,588,561.9Z"/><path class="cls-89" d="M592.82,717.22c-.81,8.83-3.13,16.88-9.71,23.17-4.12,3.94-8.43,7.65-14.72,5.62a15.77,15.77,0,0,1-11-12.94c-1.35-8.07-1.65-16.3,2.67-23.9,4.57-8,9.79-16.18,20.52-13.38C591,698.53,592.05,708.16,592.82,717.22Z"/><path class="cls-90" d="M639.67,789.85c13.64-.19,27,14,27.21,28.88.14,10.79-8.09,19.72-18.45,20-13.64.38-26.53-13.79-26.58-29.2C621.81,797.66,628.75,790,639.67,789.85Z"/><path class="cls-91" d="M768.61,861.66c-10.86-.18-20.41-6.38-20.58-13.36-.18-7.39,9.32-13.72,20.15-13.41s20.28,6.79,20,13.87S778.66,861.83,768.61,861.66Z"/><path class="cls-92" d="M864.51,810.37c.3,5.73-10.45,15-17.46,15.41-5,.31-8.93-1.11-9.09-7-.19-6.4,9.11-14.68,17-15.12C860.09,803.32,863.29,805.82,864.51,810.37Z"/><path class="cls-93" d="M582,149.42c5.43,5.27,9.16,11.76,13.13,18.08,11.09,22.21,14.18,45.65,8.94,69.74-3.91,18-10.11,35.22-26.82,46.09-5,3.25-11.7,2.85-15.91,7.66-21.33,5.89-39-1-56-14.08-21.84-16.91-35.76-38.64-37.2-65.73-1.61-30.36,6.36-58.19,33.54-77.06,6.17-4.28,14.21-1.72,19.71-7C545,125.12,564.87,133.52,582,149.42Z"/><path class="cls-94" d="M521.37,134.17c26.81-5.35,57.11,12.68,71.27,42.41,1.66,14.61-4.33,23.3-17.94,25-23.79,3-44.28-3.7-60.38-22C501.07,164.47,504.19,144.66,521.37,134.17Z"/><path class="cls-95" d="M521.37,134.17c-27.61,25.2-5,52.48,23.46,62.37,9.36,3.25,19.15,3.17,28.81,2.39,13.45-1.09,17.52-10.76,19-22.35,5.78,7.47,7.22,16.07,2.48,23.91-4.51,7.46-12,12.77-21.41,11.8-19.66-2-38.8-5.15-55.81-17.21a42.77,42.77,0,0,1-14.07-53.3C507.25,134.37,515.16,135.91,521.37,134.17Z"/><path class="cls-96" d="M550.66,286.35c-15.29,1.08-25.71-4.32-36-10.69-6.43-4-3.16-7.13.95-8.45,13.89-4.45,28.61-3.19,42.89-5.13a2.43,2.43,0,0,1,1.08.27c6.45,2.59,12.75,6,13.23,13.63.46,7.38-7.55,6.55-11.74,9.31C557.24,287.85,552.36,286.2,550.66,286.35Z"/></g></g></svg>