<svg xmlns="http://www.w3.org/2000/svg" viewBox="0 0 857.8 977.77"><defs><style>.cls-1{fill:#050504;}.cls-2{fill:#040503;}.cls-3{fill:#0e0f0c;}.cls-4{fill:#080806;}.cls-5{fill:#0d0f0a;}.cls-6{fill:#191b16;}.cls-7{fill:#1b1d16;}.cls-8{fill:#0f100d;}.cls-9{fill:#1a1d17;}.cls-10{fill:#25291f;}.cls-11{fill:#1f211c;}.cls-12{fill:#363c2d;}.cls-13{fill:#43483c;}.cls-14{fill:#82a751;}.cls-15{fill:#7a9a52;}.cls-16{fill:#6b8650;}.cls-17{fill:#718e50;}.cls-18{fill:#8da667;}.cls-19{fill:#6e8950;}.cls-20{fill:#6a8550;}.cls-21{fill:#6f8950;}.cls-22{fill:#708d51;}.cls-23{fill:#789750;}.cls-24{fill:#6a8650;}.cls-25{fill:#8ba465;}.cls-26{fill:#0d1109;}.cls-27{fill:#86a45a;}.cls-28{fill:#303d23;}.cls-29{fill:#adcd76;}.cls-30{fill:#a8cb71;}.cls-31{fill:#a9cb72;}.cls-32{fill:#a7ca71;}.cls-33{fill:#83a751;}.cls-34{fill:#78934d;}.cls-35{fill:#96ba5f;}.cls-36{fill:#cfe2b5;}.cls-37{fill:#94b75f;}.cls-38{fill:#b9d593;}.cls-39{fill:#80a351;}.cls-40{fill:#88ad55;}.cls-41{fill:#86ab54;}.cls-42{fill:#9ec465;}.cls-43{fill:#94b85f;}.cls-44{fill:#c1d99e;}.cls-45{fill:#82a552;}.cls-46{fill:#82a553;}.cls-47{fill:#b9d692;}.cls-48{fill:#262e19;}.cls-49{fill:#8fb35a;}.cls-50{fill:#151b0e;}.cls-51{fill:#85a853;}.cls-52{fill:#d2e3bb;}.cls-53{fill:#c0d89a;}.cls-54{fill:#cbdfb0;}.cls-55{fill:#c2db9f;}.cls-56{fill:#accd75;}.cls-57{fill:#bed798;}.cls-58{fill:#96bb5f;}.cls-59{fill:#95b95f;}.cls-60{fill:#7b9b51;}.cls-61{fill:#96ba60;}.cls-62{fill:#060505;}.cls-63{fill:#242d18;}.cls-64{fill:#bfd89b;}.cls-65{fill:#8aad59;}.cls-66{fill:#81a452;}.cls-67{fill:#d1e0e5;}.cls-68{fill:#83a652;}.cls-69{fill:#fdfdfd;}.cls-70{fill:#363232;}.cls-71{fill:#8db158;}.cls-72{fill:#d7e2e6;}</style></defs><title>Recurso 31</title><g id="Capa_2" data-name="Capa 2"><g id="Capa_1-2" data-name="Capa 1"><path class="cls-1" d="M529.47,581.57c.12,4.13,1.66,8.92.11,12.27-5.41,11.71.32,19,8,26.64,20.24,20.19,41.52,39.38,59.48,61.79,9.39,11.73,19.49,23,20.65,39.08.37,5.29,5.93,5,8.75,7.75,17.46,17.11,37.36,31.75,54.64,48.7a363,363,0,0,0,44.19,36.79c3.52,2.5,5.71,6.89,8.52,10.41.4,2.16-.92,2.84-2.68,3.14-9.61-2.17-14.9-10.32-22-15.91-1.66-1.14-3.65-2.3-2.94,1.29C710,833,705,851,697.07,868.41c-3.82,8.36-2.78,15.64,3.47,21.78,10.79,10.59,21.68,21.16,38.68,20.31,15-.76,24.35-8.29,28-23.1,1.93-7.74,1.87-15.71,3.21-23.53,1.4-3.47,3.84-4.51,7.29-3.11a14,14,0,0,1,8.46,4.69c1,3-1.21,3.49-3.19,4.15-5.64-.33-3.45,4.46-4.55,7.1-1.15,10.12,0,20.69-5.82,29.87-10.07,24.64-22.26,47.74-47.62,62.94,35.63,1.1,66.76-7.25,95.29-25.33,9.3-6.26,18.94-12,24.24-22.71,5.5-11.08,4.64-15.89-5.31-24-1.84-1.33-3.49-2.79-3.86-5.2,1.08-2.77,2.87-3.26,5.3-1.65,23.22,5.66,20.2,26.78,6.26,42.08-31.4,34.46-71.57,45.26-116.39,43.4a228.44,228.44,0,0,0-33.67.93c-35.9,3.79-69.41-6.71-100.83-22.54-12.15-6.12-25.21-3.67-36.75-9.26-.53-2.15.78-3.19,2.4-4.05,3.6-1.39,7.42-1.41,11.14-1.12a84.12,84.12,0,0,0,38.56-6.32,16.88,16.88,0,0,1-5.73-1.37c-21.07-9.41-43.78-13.5-65.63-20.34-7.58-2.36-15-5.08-21-10.62-2-1.8-4.31-3.73-6.93-3.48a317.91,317.91,0,0,0-36.72,5.25c-1.49.32-1.12,2.58-1.32,4.05-.67,1.71-1.6,2.92-3.65,1.85-7.23-6.31-14.93-11.79-24.62-13.66a2.21,2.21,0,0,1,0-3c9.73-4.51,19.95-1.39,29.21-2.13-24.82-12.63-51.26-23.42-78.07-33.36-2.51-.94-4.85-2.09-6-4.72-.14-2,1-3.2,2.69-4,9.94-1.76,17.79,5,26.9,6.62,22.27,9.22,45.12,17.16,65.21,31.1a20.07,20.07,0,0,0,15.33,2.82c38.58-8.38,71-26.65,93.95-59.78,3.34-10,6.48-20.28,10.8-29.65,10-21.71,9.58-43.7,6.17-66.28-2.17-21.15-11.5-38.31-27.16-52.81-16.28-15-31.68-31.08-47.09-47-12.12-12.55-21.82-26.71-25.45-44.27a4.27,4.27,0,0,1,3.08-3.39c5.82,4.45,8.2-.62,11.17-4.06A2.74,2.74,0,0,1,529.47,581.57Z"/><path class="cls-2" d="M117.48,688.36c-5.76-3.7-9.82-9.42-10-15.7-.34-9.2-6.26-11.81-12.71-15.24-34.64-18.4-62.82-44.08-82.56-78-8.41-14.46-9.23-31.81-10.95-48.24-3.93-37.49,2.4-74.25,9.52-110.87,5.28.69,4.66,5,5,8.5.42,4.81,0,9.7,1.67,14.36,1.82,15.4,2.88,30.88,4.67,46.27,1.27,25.85,10.67,49.8,17.46,74.34a60.27,60.27,0,0,0,4.7,10.77c2.38,8.23,5.3,13.06,15.16,6.77,7.21-4.61,16.16-3.23,24,.12,7.73,3.28,10.88.56,12.25-7.14,1.65-9.26,4.59-18.28,4.86-27.8.16-3,.42-6,2.46-8.4a5.17,5.17,0,0,1,5.21-.31c6.16,10-.91,19.62-.71,29.44a42.29,42.29,0,0,0-1,20.36c.49,8,7.06,10.8,12.37,14.72,4.49,3.3,9,6.57,13.43,10,22.94,16.6,46.21,32.65,70.78,46.75,2,1.13,4.09,2,6,3.16,19.2,11.65,18.26,12.79,31.17-8a879.8,879.8,0,0,0,53-100.19,29.26,29.26,0,0,1,1.42-2.86A97.72,97.72,0,0,0,300,539.89c2.24-5.64,1.2-10.12-3.69-14-10.34-8.14-20.12-17-30.75-24.79-24.67-19.83-47.87-41.41-72.81-60.91a287.77,287.77,0,0,1-27.57-19.36c-6.61-5.4-10.26-3.83-13.49,3.53-2.35,5.35-3.85,11.54-9.78,14.61-2.8-.09-3.61-2-4-4.33a12.53,12.53,0,0,1,.22-3.23,59.08,59.08,0,0,1,2.62-7.47c6.3-15.87,6.3-15.87-8.47-25q-12.84-8.33-25.85-16.36c-6-3.73-10.63-3.46-15.62,2.45-9.27,11-20,20.57-29.92,31-5,5.24-9.91,12-18.93,10.55A10.73,10.73,0,0,1,36.42,423c-5.63-9.7-12.44-18.82-15.09-30,.05-5.52-4.67-10.46-2-16.3.15-9.76-1.29-19.67,2.77-29.06,4.56.16,4.14,3.91,4.89,6.81.18,11.31,0,22.68,3.7,33.6,1.63,8.83,7.09,15.79,11.5,23.25,2.48,4.2,6,4.85,9.27,1.27C62.86,399.94,76,389,86,375.2a13,13,0,0,0,1.79-12.89A19.57,19.57,0,0,1,88,352.26a4.5,4.5,0,0,1,3.59-3.1c3.5,1.57,4.44,4.91,5.23,8.13a23.08,23.08,0,0,0,11.72,15.57c9.35,6.4,19.8,11,29,17.56,7.63,5.45,15.59,9,25,4.31a7.06,7.06,0,0,1,1.83,2.63c.12,8.27,4.24,13.54,11.25,17.94,19.7,12.37,38.73,25.74,55.85,41.64,1.2,1.12,2.34,2.28,3.49,3.45,21.83,19.78,44.78,38.2,68.05,56.24,10.76,8.34,11.87,13.76,6.42,26.52-15.6,36.56-35.15,71.1-53.85,106.09-4.46,8.34-11.3,15-15.53,23.65-3.54,7.17-4.21,13.07.86,19.9,3.45,4.65,7.79,9.5,6.87,16.26-.71,1.72-1.87,2.78-3.86,2.61-7.66-5.31-11.92-13.39-16.53-21-4.33-7.21-10.18-11.49-18.3-13.75-16.27-4.52-32.55-8.71-49.32-11.11a74.24,74.24,0,0,0-23.45.68c-8.64,1.49-9.43,3.45-4.86,11.13,1.91,3.21,4.49,6.07,5,10a4.2,4.2,0,0,1-2.63,4c-3.25.54-5.28-1.35-7.15-3.56-3-4.19-5.68-8.67-9.59-13.08,1,4.74,5.08,8.29,3.05,13.08A1.79,1.79,0,0,1,117.48,688.36Z"/><path class="cls-3" d="M91.59,349.76l-1.92,2.67c-6.9-1.47-7.58-7.81-9.29-12.82C75.53,325.35,68.83,311.9,63,298.09c-1.16-2.73-1.56-8.43-7.37-4.95-5.49,5.16-8.65,11.88-12.5,18.14-2.24,3.64-3.41,8.4-8.52,9.51-2.79-1.17-2.79-3.14-1.57-5.46.8-15.08,6.94-28.55,13.61-41.55,26.69-52,54.12-103.72,71.94-159.76,4.92-15.44,8.32-31.57,15-46.22C148.08,35.71,172,12.44,205.84,1.34c14.66-4.81,29,3.79,34,18.34,4.69,13.52,9.09,27.14,13.61,40.71.9,2.34,1.43,4.58-1.68,5.75-9.47-7.51-11.18-18.91-14.18-29.46-2.05-7.23-4.2-14.27-8.13-20.67a15.59,15.59,0,0,0-5.69-5.19c-9.11-5.72-18.1-4-26.55,1.11-18.12,10.85-34.58,23.71-46.84,41.3A65.46,65.46,0,0,0,137,80.11,869.44,869.44,0,0,1,72.09,242.78c-8.82,11.4-13.85,24.86-21.39,39.56,5.43-4,9.66-4.94,13.76-1.51,9.32,8.7,10.65,21.38,15.87,32.13,4.11,8.47,7.15,17.42,10.61,26.18C92.26,342.5,94.42,346,91.59,349.76Z"/><path class="cls-4" d="M282.61,136.08a484,484,0,0,0,65.62,108.14c38.21,47.73,84.6,85.58,136.43,117.53,32.11,19.79,65.2,37.72,97.95,56.3,5.87,3.33,12,6.67,18.47,8.34,10.77,2.8,12.57,9.36,10.2,18.8-2.23,8.9-5.55,17.13-13.29,22.78-2,.88-2.87-.4-3.52-2-.39-5.26,2.62-9.39,5-13.57,4.17-7.47,3.51-13.61-3.7-18.61-16-8.82-33-15.5-48.4-25.42-26.74-15.4-53.91-30.1-79.48-47.48-9.48-5.95-19.17-11.6-28-18.57-51-37.58-92.83-83.95-128.63-135.89a258.79,258.79,0,0,1-31.47-61.35c-.76-2.17-1.42-4.32-.89-6.65C279.56,136.77,280.5,135.49,282.61,136.08Z"/><path class="cls-5" d="M117.48,688.36a8.15,8.15,0,0,1,1.78,0,2.73,2.73,0,0,1,2.91-.64c10.61,10.76,16.59,24.92,27.41,35.8,14.58,14.65,25.92,32.36,39.42,44.82-17.57-20.57-34.66-44.63-52.79-67.87-2.12-2.73-6.07-5.19-3.48-9.76l2.61-2.61c10,4.2,12.45,15.2,19.77,21.81,16,21.4,33.56,41.58,48.56,63.72,11.82,17.45,28.06,30.2,44.77,42.48,8.48,6.24,17,12.45,25.23,19,15.88,8.71,34,10.43,50.76,16.27,4.21,1.46,8.69,2,13,3.2,33.57,8.9,65.22,23.9,99.27,31.28,3.76.81,8.55,1.24,9.29,6.7l-.12,2.77c-26.73-3.37-51.52-13.46-76.65-22.32-21.37-7.53-42.94-14.23-65.44-17.27a75,75,0,0,1-36-15.16c-30.89-23.45-62.48-46.29-89.84-73.78C154.65,743.44,132.32,718.63,117.48,688.36Z"/><path class="cls-6" d="M562,942.66l-2.65,2.53c-31.28-7.93-60.61-20.67-88.84-36.15l2.6-2.32c2.17-1.43,4.42-.85,6.43.1,25.1,11.84,51.26,21,77.16,30.84C559.08,938.57,561.8,939.3,562,942.66Z"/><path class="cls-7" d="M282.61,136.08l-2.24,2.3c-7.35-1.3-5.62-8.67-8.63-12.87a189,189,0,0,0-9.5-19.26c-5.28-9.94-8.19-20.77-11.6-31.4-1-3-2.56-6.44.73-9.28q1-2.58,2.08-5.18,13.65,34.13,27.26,68.26A59.46,59.46,0,0,1,282.61,136.08Z"/><path class="cls-8" d="M529.47,581.57h-1.72c-2.57-2.64-1.53-5.66-.63-8.45,6.65-20.54,17.21-39.06,29.41-56.72a8.5,8.5,0,0,1,5.46-3.69c1.85.54,3.29,1.33,2.24,3.66Z"/><path class="cls-9" d="M840.71,890.58l-4.63,2c-2,1.59-4.37,1.36-6.41.54-14.91-6-29.57-12.64-44.2-19.32-2.22-1-4.82-2.52-3.77-6,1.89-.1,3.63-.49,4.53-2.43Z"/><path class="cls-10" d="M564.23,516.37,562,513.46c-2-6.78,3.72-10.11,6.69-14.54,3.58-5.34,7-10.79,10.91-15.92,1.91-2.32,3.93-4.58,5.18-7.38,3.08-3.93,4.61-9.5,10.72-10.23L598,468C587.41,484.58,576.78,501.15,564.23,516.37Z"/><path class="cls-11" d="M777.77,860.76c-3.09.53-5.33,2-5.7,5.39-8-6.32-11.66-17-21.46-21.49-5.2-3.42-10.75-6.36-15.35-10.63-2-1.86-5.18-3.35-3.33-7.1l1.91-1.93c13.85,10.16,30.73,16.7,39.21,33.3C773.71,859.59,776.16,860,777.77,860.76Z"/><path class="cls-12" d="M14.85,443c-4.95-6.92.86-15.79-4.12-22.7,1.67-14.79,4-29.43,8.61-43.64-1.06,6.21,6,10.07,4.71,16.36-6.46,9-5,19.59-5.92,29.72C17.51,429.54,20.2,436.92,14.85,443Z"/><path class="cls-13" d="M33,315.33c.73,1.58,1.46,3.15,2.2,4.73,2.65,2.61,1.71,5.64.38,8.19-4.16,8-5.39,16.8-8,25.24a2.58,2.58,0,0,1-3.09,1.11c-1-2.27.22-5.3-2.4-7A123.81,123.81,0,0,1,33,315.33Z"/><path class="cls-14" d="M581.54,483.64c-4.78,11.09-14.23,19.1-19.57,29.82-14.52,21.13-28,42.8-34.22,68.11-.6,1.34-1.22,2.66-1.8,4-1.1,2.58-.23,6.92-3.61,7.37-3.92.53-4.51-4.08-6.42-6.58-4.71-3.09-4.4-9.36-7.92-12,2.74,3.59,4.61,8.71,5.82,14.11,7.14,20.28,18.9,37.43,34.57,52.07,17.05,15.93,33.89,32.06,49.36,49.6C608.16,702,613.31,715.55,614,731.07c2,5.46-.49,5.53-4.94,4.69-10.6-2-16.33,3-15.83,13.8.23,4.9,1,9.78.68,14.7-.81,11.68-6.62,15.2-17.56,10.69-15.59-6.42-17.67-4.69-15.62,13,1.63,14.09-.78,20.09-14.24,24.24-11.77,3.63-20.12,12.55-31.79,16.64-13.68,4.79-27.35,3.59-40.94,5.54-5.43.77-9.49,1-8.58,8.38.89,7.21-3.76,9.16-10.12,8-9-1.6-17.18-5.61-25.42-9.32-10.45-4.71-20.8-8.5-32.7-5.3a28.22,28.22,0,0,1-19.91-2.4c-15.11-7.62-31.13-14-43.39-26.11-5.29-5.21-10.71-4.22-16.67-3.87,2.21,4.11,9.42,6,5.23,12.63-5.43,1-8.08-3.26-11.39-6.16-18.58-16.26-30.45-37.46-42.49-58.47-5.46-9.52-11.24-18.84-16.58-28.43a39.16,39.16,0,0,1-5.21-14.77c-2.57-5-4.13-11-7.91-14.81-8-8-5.77-15.19-.46-23.07C265,630.85,285.57,587.63,306,544.3c7-14.84,6.91-16.45-6-26.55-23.17-18.08-46.32-36.15-67.85-56.21,1.32-3.29,3.92-4.47,7.23-4.24,2.26.15,4.5.5,6.77.59,29.47,1.27,43.34-8.78,51.42-37,2.6-9.12,4.65-18.34,6.44-27.64.92-4.81,1.92-9.68,4.64-13.92,4-4.54,9.85-5.35,15.09-7.32,20.39-7.67,35-27.86,35.39-49.57.56-30.39-4.76-58.4-28.67-80.46-17.66-16.29-35.85-23.11-58.09-10.22-2.44.73-4.86,1.3-7.13-.46-4-4-3.51-8.75-2.58-13.7,5-26.58,8.14-53.29,5.93-80.43-.39-4.83-.45-10,5.15-12.55q3.36,6.89,6.71,13.79c12.24,37,33.09,69.07,57.21,99.18,9.41,11.74,19.34,23.06,29,34.58,21.91,26.12,48.92,46.65,74.64,68.59-5.18,12.13-11.54.53-17.73,1.4,3.5,5.23,9.19,8.82,12.72,14.22,6.58,28.6,29.94,43.32,50.72,59.34a720.64,720.64,0,0,0,84.37,56.52C575.92,474.84,580.23,478,581.54,483.64Z"/><path class="cls-15" d="M321.52,815.57c.41-7.46-9.06-8.25-10.08-15.6,4.79.68,9.56,1.89,14.08-.38,3.34-1.67,5,0,7.35,2.69,13.94,15.63,33,23.08,51.59,31a10.31,10.31,0,0,0,6.68.43c20-6.57,36.43,4,53.63,10.93a54.16,54.16,0,0,0,7.39,2.71c7.13,1.71,15,4.28,9-8.52-2.86-6.09,2.17-7.71,6.43-7.08C478,833.3,488,829,498.8,830.43c8.09,1.05,18.49-3.61,25.41-8.93,7.1-5.46,14.48-9,22.48-12.11,9.58-3.74,15.24-9.56,10.91-20.9-1-2.67-.62-6-.49-9,.65-15.9,2.43-16.83,15.81-9.44,4.45,2.46,9.13,6.71,14.63,3.67,5.86-3.24,3.14-9.49,3.45-14.49.51-8.15-4.61-16.92,4.14-24,5-4.08,8.73-8.66,14.92-1.88,2.81,3.09,3.41,0,3.91-2.24,5.48,20.88,6.11,41.5-2.2,62-5.13,12.64-9.49,25.58-14.2,38.39-7.36-2.46-13.43-.61-19.85,3.9-14.32,10.06-31.12,13.44-48.2,14.8-18,1.43-36,2.31-53.8,6.57-11.6,2.77-23.27-.78-34.74-3.11-7.39-1.51-14.79-3.31-20.79,3.45-9.31-.22-16.73-6.88-25.89-7.59-7.33.33-13.93-2.16-20.45-5.15-14.71-6.74-30.94-10-44.56-19.13C325.9,822.89,320.66,821.54,321.52,815.57Z"/><path class="cls-16" d="M602.64,830.72c16.09,40.61,39.14,57.65,71.06,53.68.27.63.93,1.42.75,1.85-12.11,28.53-43.29,44.53-72.31,36.59-21-5.76-41.89-12.26-62.82-18.47-7-2.06-12.73-6.06-19-11.71C537,885,554.29,881,568,869.28,581.12,858.15,594.17,847.2,602.64,830.72Z"/><path class="cls-17" d="M420.19,857c-.94-9.06,2.3-10.14,11.13-8.43,12,2.32,24.34,8,36.44,5.35,30-6.47,61.15-3.65,90.65-12.77,8.31-2.57,16.13-6.11,22.74-12,6.23-5.56,12-5.78,16.42,2.26-24.3,32.22-56.47,52-95.75,60.14-5.78,1.2-12.51.62-17.37-2.71a224.53,224.53,0,0,0-59.7-28.64C423.06,859.69,421.7,858.13,420.19,857Z"/><path class="cls-18" d="M620.16,785.49c4.75-17.41,2.84-35,1.27-54.66,11.38,10.72,21.59,20.49,32,30.08,8.28,7.66,16.41,15.52,25.2,22.54,21.65,17.3,26.8,35.37,16.91,61.79-2,1.75-4.22,1.58-6.34.65-17.87-7.86-36.46-14.56-51-28.35C629,808.8,619.79,799.77,620.16,785.49Z"/><path class="cls-19" d="M752.24,842.74a43,43,0,0,1,19.83,23.41,76.08,76.08,0,0,1-1.07,19.1c-4.47,25.47-30.77,37.42-52.4,23.17-10.82-7.13-23.11-13.22-26.74-27.58-.83-3.28-1.56-6,.25-9.63,10.46-20.83,17.59-42.29,8.39-65.92,5.68-.54,8.58,2,10.82,5.79.43,10,3.69,19.88,1.55,30.13-1.57,7.54,2.69,10.13,9.61,9.94a25.71,25.71,0,0,0,12.67-4.08A28.47,28.47,0,0,1,752.24,842.74Z"/><path class="cls-20" d="M756.61,916.33c-5.93,23.15-22.09,37.88-42.82,37.56-23.13-.36-45.61-5.19-66.42-15.83-11.09-5.66-10.89-7.16-1-13.67,13.35-8.8,24.68-19.71,32.65-33.79,3.08-5.43,4.94-8.4,10.76-1.34C706.87,910,727.83,923,756.61,916.33Z"/><path class="cls-19" d="M620.16,785.49c8.48,25.09,27.83,39.4,50.69,49.23,8.18,3.52,15.87,8.4,24.65,10.52-1.15,15.32-8.25,27.54-22.87,31.94-17,5.13-33-.4-45.53-12.8-17.33-17.16-26.21-35.42-11.84-63C618,796.2,617.37,790.4,620.16,785.49Z"/><path class="cls-21" d="M823.22,945.67c-31.48,21-66.12,29-107.27,25.69,29-15.27,43.2-38.85,54.17-65,5.11-4.16,11.39-6.85,16.18-1.39,9.11,10.37,21.59,16.3,31.27,25.79C821.83,934.93,824.87,939.35,823.22,945.67Z"/><path class="cls-16" d="M562,942.66c-30-11-60.13-21.78-88.89-35.94l-7.82-6.31c16.68-2.15,31.22-2.16,45-6.63,3.13-1,6.14.84,8.11,3,6.63,7.38,15.31,11,24.48,13.16,25.56,6,50.44,14.31,75.1,23.24C601.14,944.25,581.64,943.89,562,942.66Z"/><path class="cls-22" d="M446,892.61c-37.06-10.28-73.05-23.88-109.65-35.62-.16-3.23-3.82-3.64-4.91-6.47-3.06-8,1.32-14.6,9.85-13.81,6.23.59,12.14,3.73,18.64,2.48,10.86,3.41,22,6.07,31.79,12.27,26.1,10.79,53,19.67,78.09,32.87,4.59,2.41,9.7,4.19,12.38,8.28Z"/><path class="cls-23" d="M823.22,945.67c-.8-7.63-6.12-12.47-11.51-16.6-9.19-7.05-19.4-12.72-26.62-22.21-4.56-6-10,.67-15-.5,5.58-10,4.12-21.43,6.68-32,6.31.6,10.94,4.64,16.22,7.53,14.77,8,29.35,17.4,47.57,13.24,10.64,6.4,13.25,13.35,8.58,23.88C843.82,931,834.06,938.91,823.22,945.67Z"/><path class="cls-24" d="M720.47,959.8c-23.31,21-84.41,11.92-125.93-11.1A129.21,129.21,0,0,0,629,935.21c2.24-1.3,4-3.36,6.89-.87,24,20.32,53.28,22.93,82.84,24.55C719.31,958.92,719.87,959.48,720.47,959.8Z"/><path class="cls-25" d="M752.24,842.74c-11.56,3.24-20.73,13.4-34.09,11.61-3.87-.52-9.47-1-8.44-5.12,3.15-12.75-3.75-25.71,1.61-38.15l20.61,15.85C737.32,834,744.59,838.61,752.24,842.74Z"/><path class="cls-26" d="M391.71,851.46,359.57,841.1c-15.76-.75-29.13-7.46-41.49-16.7-16.5-11.36-27.46-27.62-37.69-44.23-9.25-15-17.87-30.42-26.63-45.74-2.58-8-10.75-13.76-9.16-23.37l1.9-2.48c12.26,21.07,24.41,42.2,36.81,63.18,10,17,22.05,32.2,38.21,43.81,10.1,11.83,25,14.63,38.34,20.2,11.4,4.74,22.95,9.13,34.43,13.68Z"/><path class="cls-27" d="M840.59,895.09c-4.2,4.95-9.55,5.71-15.29,3.71-13.75-4.79-28.4-8.14-39.11-18.77-3-2.94-9,.39-9.39-5.71.43-3.07-4.95-10.56,4.9-6.44C799,878,817.63,885.07,836.08,892.62Z"/><path class="cls-28" d="M513.82,588.51l-11.21-20.84c7.09,4.74,11.67,10.81,13.32,18.69C515.22,587.07,514.52,587.79,513.82,588.51Z"/><path class="cls-29" d="M251.37,65.57c3.09,14,7.89,27.42,13.37,40.63,4.73,35.45,3.63,70.81-1.35,106.15-1.49,10.54-6.3,20.23-7.18,30.86-.35,4.85-2.32,9.16-4.48,13.39a104.41,104.41,0,0,0-10.26,25.93c-1.66,8.62-2,17.63-10.19,23.67-3.59,2.65-2.86,7.4-2.26,11.53-6.38,9.68-16.56,16.2-22,26.64-3.4,3.61-5.82,8.22-10.61,10.4a61.8,61.8,0,0,0-15.13,11.58c-15.05,15.17-32.72,18.24-52.78,13.61-6.91-1.6-13.58-4.13-20.62-5.12-8-.92-10.59-7-12.65-13.49-1.22-3.86-2.41-7.73-3.61-11.59C82.92,326.6,75,303.11,62.71,281.51c5.43-7.48,11.05-14.84,14.13-23.73C86,232.57,97,208.17,106.62,187,97.13,201.67,91,222.2,78.07,239c-2.45,2.21-4.57,5.19-8.6,3.91,14-31.11,29.62-61.44,41.56-93.54,8.66-23.28,15.09-47.28,24.12-70.39,7.26,3.49,7.64,9.56,5.69,16.6A3.71,3.71,0,0,0,142.78,93c4.71-17,13.74-28.19,31.53-35.29,18.35-7.33,32-23.47,46.31-37.51,2.9-2.85,4.95-6.88,9.84-6.84,5.51,5.43,8,12.4,9.35,19.73C242,44.53,246.78,55,251.37,65.57Z"/><path class="cls-30" d="M141.62,438.13c2.93-6.1,6.37-12,8.67-18.36,2.79-7.7,7.4-7.87,13-3.94,10.43,7.36,20.58,15.13,30.85,22.73a15.88,15.88,0,0,0,4.63,7.61c23.69,20.06,44.13,43.46,66.49,64.9a137.33,137.33,0,0,1,18,21.86c8.3,12.12,7.86,21.38-3.26,31-36,31.15-76.61,49.21-125.55,41.47-4.86-.77-9.82-.21-14.68-1-4.16-1.4-9.17-1.06-11.76-5.71,0-2.19,4.19-4.13.25-6.62-7-4.46-10.41-11.72-13.65-18.93-1.87-4.16-4.85-5.4-9-4.81-3-10.38,5.62-19.66,2.86-30-2.63-8.59,2-16.19,3.65-24.08,5.13-24.44,16.1-46.94,24.34-70.36A10.58,10.58,0,0,1,141.62,438.13Z"/><path class="cls-31" d="M42.16,425.3c5.75.93,9.16-3,12.51-6.46,11.78-12.23,23.62-24.43,34.91-37.11,4.72-5.31,8.46-7.14,15.18-3,9.63,5.9,19.62,11.18,28.37,18.42,7.4,10.48,4.23,23,6.68,34.48a5.52,5.52,0,0,1-.11,2.1c-7.31,24.89-17.83,48.66-25.56,73.42-1.54,4.93-2.25,10.35-5.2,14.85-1.14,2.64-4.36-3.63-6.2,2.46C97.42,542.05,83.29,554,70.57,566.09c-9.47,9-21.44,7.73-33-.37-8.64-24.44-16.75-49-18.08-75.19,2.19-.45,3.32.87,4.24,2.53,1.87,12.31,11.78,20.78,15.53,31.23.5-10.16-1.59-21-3.5-32-3.54-20.3,1.23-40.47,2.1-60.72A7.47,7.47,0,0,1,42.16,425.3Z"/><path class="cls-32" d="M230.28,459.59c-19.08-16.62-38.87-32.34-60.79-45-7.15-4.13-6.93-9.89-6.65-16.34,7.82-13.48,14.41-28.07,30.42-34.27,12.83,1.18,24.86-4.15,37.64-4.48,9.16-.24,18.66.93,27.67-2.23,14.72,7.53,28.83,16.12,43,24.7-2.85,14.74-5.44,29.58-10.47,43.78a47.61,47.61,0,0,1-50.27,31.89C236.71,457.18,233.53,457.51,230.28,459.59Z"/><path class="cls-33" d="M295.86,554.22c-18.09,39.42-37.63,78-61.84,114.14-4.11,6.13-8,6.53-14,3.14-17.71-10-36.14-18.81-52-31.74-12-9.77-27.93-13.52-38-26-2.39-9.5-2.05-9.79,10.74-9.39,18.28,2.5,36.43,4.94,55.08,2.76,35.72-4.18,62.92-23.55,87.93-47.31C287.25,556.56,289.77,551.61,295.86,554.22Z"/><path class="cls-14" d="M244.6,711.06q5.57,11.33,11.11,22.66c-2.79,3.26-6.68,3.26-10.37,3.09a212.33,212.33,0,0,1-92.09-25.46l-17.91-23.22c-2.62-3.65-5.21-7.31-7.85-10.94-6.15-8.48-4.46-12.53,5.92-14.11,19-2.88,37.34,1.16,55.67,5.17,6.56,1.44,12.94,3.67,19.47,5.25,9.5,2.31,17.08,6.32,21.64,16C233.83,697.25,239.72,703.92,244.6,711.06Z"/><path class="cls-34" d="M195.38,665.59c-18.25-5.92-36.56-7.31-55-7.45-3.34,0-7.42-.74-9.91.84-14,8.9-24.45.83-34.44-7.19-16.36-13.14-26.88-31.44-39.89-47.53-5.62-7-2.38-12.8,5.56-15.84,9-3.47,18.77-2.84,26,2.53,34.52,25.54,70.59,48.69,106.51,72.12C194.68,663.35,194.76,664.18,195.38,665.59Z"/><path class="cls-29" d="M24.51,354.6c.55-.24,1.11-.47,1.68-.68,4.92,2.6,10.15,3.89,10.38-3.85.65-21.38,11.39-39.65,17.31-59.38,4.5-9.4,7.25-4.12,9.56,1.29,8.07,18.86,16,37.79,24,56.67a30.94,30.94,0,0,0,2.26,3.78c.23,3.47.45,6.93.68,10.39.85,4.78-2.5,7.51-5.2,10.5-9.75,10.79-21.85,18-35.46,22.68-8,2.73-15.49,2.32-21-5.39C23.09,379.1,24.57,366.76,24.51,354.6Z"/><path class="cls-35" d="M295.86,554.22c-5.16.42-7.58,4.71-10.66,7.85-25.16,25.67-54.12,44.28-90.6,48.43-18.44,2.1-36.76.35-54.82-4-1.32-1.5-1.41-3,0-4.51,23.55,2.19,47,3.18,70.39-2.16,10.7-2.45,21.18-5.14,30.37-11.38,11.51-7.8,23.58-15,34.23-23.79,12.91-10.73,15.63-17.88,5.57-31.37-10.67-14.32-23.38-26.59-36-38.92-15.92-15.49-30.16-32.76-48-46.21-3.52-2.65-4.86-5.64-2.18-9.62,22.61,14.67,40.93,34.58,62,51.11,3.8,3,7.38,6.26,11.06,9.41,6,13,17.23,22.25,24.19,34.61,3.37,6,6.35,11.72,5.2,18.8A1.92,1.92,0,0,1,295.86,554.22Z"/><path class="cls-36" d="M21.85,492.91l-2.37-2.38c-3.92-15.62-2.79-31.73-4.63-47.55,0-15.86.15-31.72,3.61-47.28.41-1.87-.35-10.5,5.59-2.7,1.61,11.06,10.38,18.57,14.14,28.57.12,16.14-1.44,32.23-1.55,48.35-.07,9.73-1.15,19.54,1.86,29.16.81,2.61,1.6,6.38-1.93,8-3.11,1.42-5.6-.63-8-2.66C24.9,501.34,23.63,497,21.85,492.91Z"/><path class="cls-37" d="M230.28,459.59c.28-3.65,2.12-5.13,5.89-5.18,37.53-.47,51.05-12.18,57.71-50,1.37-7.8,2.63-15.57,6.86-22.47,2.27-3.52,5.11-5.11,9.13-2.72-3.87,18.68-6.07,37.87-14.1,55.38-9.73,21.22-27.45,29.76-53,26.19-3.8-.53-7.25-1.68-10.67.78Z"/><path class="cls-38" d="M15,570.16C3,532.75,2.35,494.81,9.86,456.44c1.76,29.11,7.39,57.53,14.6,85.68,1.19,7.82-1.3,15.29-2.33,22.88C21.66,568.53,20.43,572.72,15,570.16Z"/><path class="cls-39" d="M103.47,547.45c-2.12,11.81-4.38,23.6-6.32,35.44-1,5.93-4.06,5.15-8,3.26a41.59,41.59,0,0,0-18.49-4.36c-8.47.06-15.52,2.57-20.37,10.52-4.92-5.18-6.1-11.58-8.55-17.34,2.31-2.84,5.34-1.81,8.34-1.84,12.2-.09,23-3.25,30.54-14A139.29,139.29,0,0,1,93,544.37C98.79,538.2,100.51,538.85,103.47,547.45Z"/><path class="cls-40" d="M107.85,374.84c9.59-3.81,18,2.24,27,3.44,15.71,2.11,29.32-.18,41.36-11.38,6.11-5.68,11.78-12.52,20.52-14.76a4.29,4.29,0,0,1-.73,4.28c-11.56,12.37-21.53,26.16-33.88,37.81-4.19,6.79-9.06,8.58-16.38,3.79C133.36,389.92,120.51,382.53,107.85,374.84Z"/><path class="cls-41" d="M28.73,390.61C47.51,400.8,61,388.37,74.79,379.15c6.09-4.09,10.42-10.81,15.56-16.33,5.06,11.6-4.82,17.4-10.31,24.09-8.58,10.44-18.86,19.48-28.15,29.36-4.15,4.42-7.19,4.86-10.26-.86C37.23,407.19,30,400.46,28.73,390.61Z"/><path class="cls-42" d="M132.73,690.74l54.4,71.9c2.83,3.74,5.66,7.48,7.51,12-27.83-25.79-53.68-53.21-73.09-86.14.39-5.47,3.3-3.93,6.26-2.26Z"/><path class="cls-43" d="M103.47,547.45c-2.35-5.13-5-6.61-9-1.21-2.85,4-6.5,7.37-9.07,11.47C75,574.32,59.73,578,41.72,575a18.34,18.34,0,0,1-4.16-9.25c6.92-1.18,11.75,6.44,20.15,3.19,8-3.12,14.08-6.72,19.55-13.5,8.65-10.71,19.36-19.72,24.2-33.26,1.92-5.39,4.25-1.41,6.3.25,4.09,6.72-.55,11.23-4,16.05Z"/><path class="cls-44" d="M21.85,492.91c4.56,4.18,7.9,13.82,13.34,11.86,6.65-2.39-.27-10.34,0-16,.81-18.39.37-36.85.25-55.28a23.65,23.65,0,0,1,2.78-11.9l4,3.73c-2.55,23.5-7.78,47-2.25,70.62,3.05,13,1,26.06,2.21,39.47C37.22,520.19,22.13,510.26,21.85,492.91Z"/><path class="cls-45" d="M296.58,552.49c-4.8-17.59-17.15-30.54-27.6-44.62-2.19-2.94-4.35-5.19-1.79-8.79,10.49,8.42,20.82,17.06,31.54,25.18,5.61,4.25,7.94,8.57,4.23,15.25C300.63,543.71,300.18,548.88,296.58,552.49Z"/><path class="cls-46" d="M38,581.13c9.42,19.65,21.34,37.7,34.93,54.79-18.74-11.86-34.6-26.57-46.67-45.21C28,584.89,33.29,583.34,38,581.13Z"/><path class="cls-32" d="M38,581.13c-1.08,6.68-8.58,5.46-11.74,9.58C19,585.82,16.2,578.41,15,570.16c3.19-.28,5-2.19,4.49-5.23-1.3-8.31,2.84-15.32,5-22.81C29.52,554.93,31.78,568.72,38,581.13Z"/><path class="cls-47" d="M105.52,568.29c3.38-5.19,6.4-7.73,9.82.22,4.6,10.68,9,21.73,21.92,25.17-2.72,5.12-6.14,3.17-8.81,3.76-10.07,1.8-17.78-2.82-24.87-9.14C101.61,581.37,101.35,574.62,105.52,568.29Z"/><path class="cls-48" d="M103.74,538.45c-.17-5.73,5-10.11,4-16.05-.08-13.11,8-23.61,11.55-35.61,5.33-18.17,10.53-36.59,20.39-53.09l1.92,4.43c-12.77,32.81-25.27,65.72-33.24,100.13Z"/><path class="cls-37" d="M103.58,588.3l24.87,9.14c2.92,3.64,8.08,1.73,11.33,4.57v4.51c-5.45-.58-10.57-.72-9.7,7.23-6.73-4.71-13.53-9.33-20.15-14.19C106.22,596.83,103.48,593.31,103.58,588.3Z"/><path class="cls-49" d="M139.81,431.6c-8.42-10.29-3-23.27-6.68-34.48C154.73,405.28,149.73,412.88,139.81,431.6Z"/><path class="cls-50" d="M162.14,394.23c9.39-15.8,23.8-27.46,34.61-42.09l8.69-9.45a4.06,4.06,0,0,1,3.15,3.21c-3.55,8.31-7.93,15.9-16.84,19.57-11.11,9.61-19,22.06-28.91,32.75C162.61,396.89,162.37,395.56,162.14,394.23Z"/><path class="cls-51" d="M127.81,686.23c-2.38-.06-4.83-.32-6.26,2.26l-2.29-.1c-.28-7.11-5.82-12-7.07-19.17C120.06,672.21,124.17,679,127.81,686.23Z"/><path class="cls-52" d="M148.55,51.48C162.39,33.25,178.88,18,199.37,7.61c8.62-4.35,18-5.83,26.41,1.56-5.35,10.87-13.61,19.3-22.94,26.68-11.18,8.84-22.64,17.54-36.43,21.68C159.86,59.5,151.43,62.48,148.55,51.48Z"/><path class="cls-53" d="M148.55,51.48c9.55,10,19,3.72,27.46-1.13,15.91-9.11,31.7-18.65,42.15-34.67,1.76-2.69,5-4.37,7.62-6.51a7.19,7.19,0,0,1,4.68,4.16C215.77,31.19,198,45.58,179.25,58.84,173.44,63,167.21,67,160,67.7c-4.8.47-6.1,2.58-7.06,6.87-2.28,10.29-7.39,19.46-13.12,31.61-3.86-10.56,2.73-20.35-4.63-27.16C135.06,67.61,142.93,60.1,148.55,51.48Z"/><path class="cls-54" d="M69.47,243q3.38-2.34,6.74-4.69c6.92-.11,6.7,4.68,5.54,9.06-1,3.84-1.71,7.8-3.18,11.51-3.11,9.09-6.16,18.22-15.86,22.68-7.06-3.61-10.38,2.72-17.08,7.95C53.06,271.49,58.61,255.91,69.47,243Z"/><path class="cls-55" d="M53.88,290.69c2.72,11.07-4.68,19.69-7.64,29.25-3.12,10-6.94,19.66-6.3,30.38.24,4.19-1.29,7.28-5.38,8.84-5.11,2-6.31-2.31-8.37-5.23-1.17-12.4,5.88-22.61,9-33.87C41.17,310.12,45.28,299,53.88,290.69Z"/><path class="cls-56" d="M595.47,465.39l-9.1,11.52a4.57,4.57,0,0,1-5.2-1c-15.14-14.6-34.84-22.28-51.7-34.3-16.59-11.83-33.06-23.69-47-38.77-11.27-12.21-24.38-22.44-36.85-33.34-3.74-3.26-7.52-6.34-8.19-11.7,1.6-7.08,6.77-6.23,11.56-4.73,6.42,2,12.92,3.76,19.29,5.92L548,406.56c-6.16,5-12.09,1.26-18-.61-4.54-1.43-8.58-4.23-13.39-5.23a396.85,396.85,0,0,0,42.32,29.53c12.5,7.58,25.74,6.38,38.9,1.32,7.66,5.64,10.05,12.24,4.4,20.87C599.56,456.49,597.69,461.05,595.47,465.39Z"/><path class="cls-57" d="M597.81,431.57c-11.82,11.46-25.52,8.78-37.46,2.26-16-8.76-30.73-20-45.81-30.38-2.06-1.42-6-3.59-3.4-7.05,2-2.57,4.86-.1,7.13,1,9.46,4.52,18.55,10.16,29.7,9.18Z"/><path class="cls-58" d="M468.29,359c-6.71,1.57-12.87-.11-19-2.87-3.92-1.77-8.47-4.41-10.2,2.72-2.61,1.47-3.27-1.1-4.62-2.23-4.86-4.55-9.77-9-14.54-13.67-1.5-1.45-3.91-3.21-2-5.52,1.73-2.15,3.9-.52,5.93.5,5.47,2.74,10.38,9.4,17.37,2.84Q454.77,349.84,468.29,359Z"/><path class="cls-59" d="M153.25,711.35c15,4.78,30.13,9.1,44.91,14.45,18.71,6.76,38.06,7.57,57.55,7.92,10.52,17.36,20.9,34.81,31.59,52.06a155.8,155.8,0,0,0,31.85,36.43c.55,4.43-3,4.51-5.72,5.12a32.52,32.52,0,0,1-11.08.48c-11.74-1.44-22.27,1.11-31.5,8.65-39.9-24.66-70.16-58.87-96.37-97.19C167.88,729.63,160.35,720.64,153.25,711.35Z"/><path class="cls-60" d="M270.85,836.46c3.11-8.83,8.95-12.14,18.6-12.06,9.84.08,20.19,3.29,29.7-2.19,12.75,7.85,25.25,16.25,40.42,18.89-5.54,4.62-10.57-.75-15.86-1-3.56-.2-7.36-3.07-9.92,1.28-2.67,4.52-1,8.93,2.67,12,2.31,1.9,5.36,2.5-.11,3.68C314.18,851.22,291.19,848.08,270.85,836.46Z"/><path class="cls-59" d="M253.48,245.68c-2-13.32,6.34-24.53,7.32-37.48,2.11-28.12,6.33-56.08,1.78-84.35-.95-5.9-1.38-12.12,2.16-17.65,4.91,5.18,6.54,12,8.92,18.39-2.31,3.71-2.72,7.83-2.31,12,2.71,27.76,0,55.13-6.14,82.2A17.49,17.49,0,0,0,267,231.92C265.66,239.65,261,244,253.48,245.68Z"/><path class="cls-35" d="M434.5,356.58l4.62,2.23c38.51,34.57,73.09,74,120.35,97.76,10.26,5.15,18,13.44,26.91,20.34.81,4-3.67,4.16-4.84,6.73-19.32-15.58-41.48-26.86-61.84-40.92-28.2-19.48-55.63-39.61-78.91-65C435,371.37,438.1,363.13,434.5,356.58Z"/><path class="cls-61" d="M489,827.17c-5.18-1.92-11.43-4.44-17.81-6.56-11.36-3.76-20.05.93-22.92,12.88-1.13,4.71-3.93,5.34-7.38,4.67a34.33,34.33,0,0,1-9.43-3.6c-17-9.06-35-13.46-54.32-14.49-10.67-.58-19.46-7.77-26.85-15.35-4.43-4.54-8.26-9.59-13.48-13.39-2.38-1.73-5.63-4.84-3.65-7.5,6.57-8.83.4-13.69-4.89-19-3-3-6.74-6.48-3.82-10.68,3.16-4.54,7.53-1.07,11.13.59,2.88,1.32,5.59,2.24,8.6.59,2.51-1.37,7-.57,7.15-4.26.11-2-2.45-4.66-4.46-6.08-8.7-6.13-15.9-13.85-23.3-21.36-2-2-5.66-4-3.27-7.42s5.26.24,8,.7c28.13,4.71,49.53,22.81,73.14,36.57,5,2.9,10.11,8.89,14.84-2.78,2.26-5.57,13.44-7.79,21.38-3.78,18.17,9.17,36.15,18.71,54.18,28.14,5.08,2.66,9.17,7.94,8.71,12.51-1.08,10.75,6.74,15,12.17,21.26,1.8,2.07,5.79,3.43,3.9,7.19a7.33,7.33,0,0,1-7.52,4.13C501.63,819.28,497.34,826.79,489,827.17Z"/><path class="cls-62" d="M207.47,345.11l-2-2.42c5.26-10.45,13.84-18,22.43-25.47,8.13-10.51,11.71-22.5,11.59-35.7,1.29-9,5-17.07,9.34-24.9,1.85-.73,2.77.47,3.68,1.72,7.3,5.58,16.85.28,24.32,5,5,1.77,10,3.34,15.05,5,22,9.74,44.63,18.55,61.57,36.82,1.9-30.94-17-50.7-38.2-69.12-13.14-8.92-27.06-6.6-41.08-2.92-1.68-.58-3-1.4-2.63-3.52,17.5-12.47,34.18-9.56,51.08,1.85,38.24,25.81,48.24,80.83,32.57,116-8.61,19.33-25.64,27.68-45.29,31.76l-9.13,2.72c-15.55-4.3-28.51-13.23-41-23-10.07-6.56-13.9-17.22-17.89-27.68-3.75-9.86-6.31-10.38-15.2-4.22C219.29,332.12,216.94,342.39,207.47,345.11Z"/><path class="cls-63" d="M271.51,229.58l2.56,2.28c-.37,7.21-7,9.85-10.6,14.75C258.3,249.69,258.15,257.9,251,259l-2.19-2.33,4.68-10.94q6.75-6.88,13.49-13.76Z"/><path class="cls-64" d="M78.57,258.83c-2.31-6.68,7.6-14.76-2.35-20.56,12.22-18.39,18.83-40,32.09-57.82l3,1.38Z"/><path class="cls-65" d="M239.46,281.52c0,4.15-.16,8.31.11,12.45.66,10.11-2.44,18.2-11.7,23.25-4.09-2.46-4.31-5.9-1.42-9.09C233.39,300.48,238.23,291.92,239.46,281.52Z"/><path class="cls-66" d="M207.47,345.11c7.54-8.17,13.21-18,23.43-23.77,7-4,11.3-3.79,12.47,5,1.72,12.81,10.6,21.9,16.38,32.6-8,7-18.06,3.6-26.47,3.24-14.18-.6-27.27,9.05-41.53,3.33Z"/><path class="cls-67" d="M285.4,310.33c13.16,16.79,19.89,18,36.52,10.23,8.07-3.77,9.75-13,13.64-20.21,22.6,11.7,26.53,37.59,5.28,57.41C305.91,390.35,277,371.1,255.37,341a48.74,48.74,0,0,1-9.19-27.54C259.63,317.22,272.5,313.59,285.4,310.33Z"/><path class="cls-30" d="M261.86,244.67l12.21-12.81c14.61-8.07,28.9-6.25,43,1.42,1,5.31,4.44,9.42,6.69,14.12,3.76,7.86,1.56,14-5.68,18.06-8.27,4.62-17.11,7.4-26.8,5l-15.42-4.95C270.54,259,263,254,261.86,244.67Z"/><path class="cls-68" d="M291.28,270.46c7.56-1.94,15.33-3.27,22.61-6,10.06-3.72,11.13-8.38,6-17.91-2.19-4-6.26-8-2.78-13.31,10.69,11.51,23.41,21.16,31.3,35.26,7.46,13.34,7.26,28.08,8.43,43.41C339.59,290.25,314.07,282.57,291.28,270.46Z"/><path class="cls-69" d="M285.4,310.33c-12.55,7.77-25.38,11.88-39.22,3.08-4-11-2.8-22.36-1.07-33.4,1.69-10.84,11.28-13.14,26.14-7.26,9.15,6.08,15.75,13.34,11.79,25.51Q284.22,304.29,285.4,310.33Z"/><path class="cls-70" d="M316.28,311.35c-11,0-18.42-4-21.42-13.2-1.8-5.51-3.28-12.73,1.73-16.93,4.38-3.67,8.71,2.1,13,3.85,3.76,1.56,7.16,4,10.63,6.23,4.45,2.86,12,4.2,9.18,11.75C327.14,309,321.7,312.13,316.28,311.35Z"/><path class="cls-71" d="M261.86,244.67c4.54,7,12.33,11.87,14,20.84-6.89-1.37-13.64-3.15-20.82-.87-5.76,1.83-5-2.11-4-5.69C255.61,255,255.53,247.37,261.86,244.67Z"/><path class="cls-72" d="M283,298.26c-.24-8-.82-15.67-9.7-19.45-2.33-1-2-3.82-2.09-6.06,15.62.15,16.13.7,13.63,14.69C284.23,291,283.65,294.65,283,298.26Z"/></g></g></svg>