<svg xmlns="http://www.w3.org/2000/svg" viewBox="0 0 975.38 893.35"><defs><style>.cls-1{fill:#020202;}.cls-2{fill:#010202;}.cls-3{fill:#010101;}.cls-4{fill:#0f1013;}.cls-5{fill:#020303;}.cls-6{fill:#111112;}.cls-7{fill:#141414;}.cls-8{fill:#1f1f20;}.cls-9{fill:#262626;}.cls-10{fill:#0d0d0e;}.cls-11{fill:#171b1c;}.cls-12{fill:#2f2f30;}.cls-13{fill:#090909;}.cls-14{fill:#2e2f30;}.cls-15{fill:#393a3b;}.cls-16{fill:#202121;}.cls-17{fill:#151616;}.cls-18{fill:#2c2d2d;}.cls-19{fill:#38393a;}.cls-20{fill:#3c3e3f;}.cls-21{fill:#2d2c33;}.cls-22{fill:#26252a;}.cls-23{fill:#2c2d2e;}.cls-24{fill:#2f3537;}.cls-25{fill:#242424;}.cls-26{fill:#464747;}.cls-27{fill:#555657;}.cls-28{fill:#515252;}.cls-29{fill:#7c7c7c;}.cls-30{fill:#494a4b;}.cls-31{fill:#edf2f9;}.cls-32{fill:#ebf3fa;}.cls-33{fill:#b2bace;}.cls-34{fill:#dde3ed;}.cls-35{fill:#d5ddea;}.cls-36{fill:#edf3fa;}.cls-37{fill:#d9dfea;}.cls-38{fill:#121315;}.cls-39{fill:#dbe0eb;}.cls-40{fill:#414041;}.cls-41{fill:#548eaa;}.cls-42{fill:#c4cbdb;}.cls-43{fill:#67a1b9;}.cls-44{fill:#2e2f31;}.cls-45{fill:#28292b;}.cls-46{fill:#343638;}.cls-47{fill:#303235;}.cls-48{fill:#161719;}.cls-49{fill:#f7fbfe;}.cls-50{fill:#ecf3fa;}.cls-51{fill:#edf4fa;}.cls-52{fill:#fafcfe;}.cls-53{fill:#89829a;}.cls-54{fill:#eef3f9;}.cls-55{fill:#414141;}.cls-56{fill:#f7fafc;}.cls-57{fill:#171113;}.cls-58{fill:#9a93a8;}.cls-59{fill:#5b5c5c;}.cls-60{fill:#313335;}.cls-61{fill:#373839;}.cls-62{fill:#3a3c3d;}.cls-63{fill:#343536;}.cls-64{fill:#585175;}.cls-65{fill:#626363;}.cls-66{fill:#494949;}.cls-67{fill:#d5dde9;}.cls-68{fill:#91b9c8;}.cls-69{fill:#568fab;}.cls-70{fill:#dae0eb;}.cls-71{fill:#d8dfea;}.cls-72{fill:#252729;}.cls-73{fill:#303236;}.cls-74{fill:#b8d3dd;}.cls-75{fill:#5f577a;}.cls-76{fill:#eff2f9;}.cls-77{fill:#6e6785;}.cls-78{fill:#595176;}.cls-79{fill:#4c7487;}.cls-80{fill:#4c7486;}.cls-81{fill:#dfe6ef;}.cls-82{fill:#c1c9d9;}.cls-83{fill:#8fb7c6;}.cls-84{fill:#b9c2d4;}.cls-85{fill:#c1c9da;}.cls-86{fill:#5892ad;}.cls-87{fill:#c6cfe0;}.cls-88{fill:#46494e;}.cls-89{fill:#eef3fa;}.cls-90{fill:#222425;}.cls-91{fill:#eff3fa;}.cls-92{fill:#f8fcfe;}.cls-93{fill:#f6fafc;}.cls-94{fill:#161819;}.cls-95{fill:#77708a;}.cls-96{fill:#222323;}.cls-97{fill:#131315;}.cls-98{fill:#3e4042;}.cls-99{fill:#b7d2dc;}.cls-100{fill:#2a2b2d;}.cls-101{fill:#6a6383;}.cls-102{fill:#252728;}.cls-103{fill:#27282a;}.cls-104{fill:#060708;}.cls-105{fill:#040505;}.cls-106{fill:#121314;}.cls-107{fill:#050607;}.cls-108{fill:#020203;}.cls-109{fill:#252627;}.cls-110{fill:#232426;}.cls-111{fill:#a3a8ac;}.cls-112{fill:#bac3d4;}.cls-113{fill:#e7eef6;}.cls-114{fill:#d7deea;}.cls-115{fill:#c6ccdb;}.cls-116{fill:#232031;}.cls-117{fill:#6f6785;}.cls-118{fill:#bd5148;}.cls-119{fill:#d5756e;}.cls-120{fill:#150f11;}.cls-121{fill:#ebbcb9;}.cls-122{fill:#2d2122;}.cls-123{fill:#130c0e;}.cls-124{fill:#0e0f14;}.cls-125{fill:#c6cddd;}.cls-126{fill:#101317;}.cls-127{fill:#716987;}.cls-128{fill:#bc5048;}.cls-129{fill:#d97870;}.cls-130{fill:#5590ac;}.cls-131{fill:#92bac9;}.cls-132{fill:#ccced4;}.cls-133{fill:#dfe0e5;}.cls-134{fill:#5690ac;}.cls-135{fill:#90b9c9;}.cls-136{fill:#ecbeba;}</style></defs><title>Recurso 32</title><g id="Capa_2" data-name="Capa 2"><g id="Capa_1-2" data-name="Capa 1"><path d="M928.62,68.94c26.24,22.94,35.57,54.41,43.07,86.63,8.9,38.24.16,75.32-10,111.72-22.76,81.47-48.47,162.15-67.57,244.58-8.11,35-14.35,70.44-29,103.43C851.31,646.62,833.41,675.51,806,697a105.24,105.24,0,0,1-42.79,19.81c-7.9,1.71-9.54,4.83-8.79,13,3.66,39.2-4.38,76.28-31.68,105.16-39.4,41.7-99.45,47.58-147,9-6.3-5.11-11.18-12-16.72-18-3.36-2.7-4.44,5.73-8.1,1.66a17.25,17.25,0,0,1-3.61-8.91c-.31-5.1-2.24-10-2-15.16.33-2.34,1-4.47,3.39-5.54,5.14.24,7.76,4.34,10.78,7.5,10,10.53,21.89,18.35,34.81,24.72,2,1,4,1.87,6,2.66,16.82,5.39,33.68,10.31,51.59,5.77a32.25,32.25,0,0,0,6.33-1.59c29.06-9.1,50.62-33.73,51.62-59.07a12.69,12.69,0,0,1,1.46-4.66c3.18-14.34-1-28.37-1.79-42.53C709,721.31,698.33,723,694.61,717a3.64,3.64,0,0,1,.6-3.28c4-2.87,8.61-2,13-2.39,11.76-1,23-3.44,32.45-11.16,4.06-2.71,8.36-5.08,12.16-8.17,14.84-12.4,22.29-27,13.78-46.37a5.5,5.5,0,0,1,3.31-3.54c9.45-2.4,19.51.43,28.81-3.68,24.06-10.63,42.33-26.74,50.49-52.63,9.63-28.23,8.09-54.62-11.66-78.63-5.94-7.22-13-10.86-21.89-12.45-6.49-1.17-13.65-.56-19-5.8,1.9-5.67,6.88-4.31,11-4.88a105.4,105.4,0,0,1,10.81.2c20.3,5.51,34.35-4.84,47-18.7,8.07-9.48,12-21.24,17.57-32.08,1.56-3.51,2.15-7.29,3-11,1.56-5,.82-10.18,1.11-15.28,3.47-15.33-.17-30.08-3.67-44.83-3.87-12.42-13.1-20.41-23-27.89-5.92-2.23-12.42-.14-18.32-2.5-1.63-.94-2.77-2.15-2.22-4.25,10.9-5.2,22.86-2.89,34.27-4.62,33.07-5,57.81-28.92,62-62.23,1.55-12.25-1.41-24-6.35-35.18-4.11-9.29-12.38-12.62-21.72-14-1.66-.88-2.86-2.05-2.62-4.13,15.85-3.63,25-13.52,28.5-29.43,3.82-17.29,6-34.14-4.53-50.1a46,46,0,0,0-21.41-17.63c-4.11-1.7-8.81-2.4-11.52-6.57-.66-1.87.06-3.22,1.59-4.27,10.28-.1,20.3-.24,30-5.38,7.58-4,8.31-7.43,2.72-13.3-2.53-2.66-5.41-5.22-5.67-9.32C925.74,69.72,926.49,68.44,928.62,68.94Z"/><path class="cls-1" d="M214.1,209.27c-3-36.11-1.94-72.38-4-108.51-1.37-24.46-4.57-48.78-.69-73.24C210.94,18.1,213.64,9.43,223.19,5c4.68-2.74,9.29-2.43,13.84.32,9.56,7.77,8.28,18.16,5.83,28.13a229.78,229.78,0,0,1-10.12,31.23C220.88,93.86,221.3,124.36,222.43,155c.73,19.64,2,39.26,2.1,58.9.07,10.9,2.17,20.82,7.9,30-.29,1.05-.57,2.11-.84,3.17,4.6,36.68,14,72.24,24.65,107.52,1.32,4.37,2.77,8.74,8.19,9.69,2.17.58,4.29,1.23,5,3.75-7.26,8.47-1.15,16.11,1.46,24,.93,2.8,2.68,5.93.1,8.48-2.85,2.82-5.48.71-7.85-1.33-4.87-6-7.27-13.26-10-20.35-.7-2.57-1.31-5.17-2.82-7.45-2.7-4.19-4-8.93-5.49-13.61-6.68-20.46-13.46-40.65-27.37-58-12.29-15.32-23.84-31.16-38-44.87-11.84-11.42-25.12-15.8-41.37-11.7-16.09,4.06-21.24,11.3-21.43,28.27-.29,25.9,9.3,47.87,24.38,68.06,2,2.71,4.62,5,5.86,8.3a3.23,3.23,0,0,1-2.3,3.87c-18.85-9.27-32.6-24.14-44.38-41a110.74,110.74,0,0,1-6.75-11.6c-.68-3.62,0-7.53-2.43-10.78-6.68-19.14-8.18-38.26.26-57.32a16,16,0,0,1,3-4.21c5-4.13,9.48-9.1,15.67-11.7,2.51-1,5.08-1.88,7.52-3.05,11.26-4.72,21.69-.94,31.47,4.05,26.6,13.57,45.75,35.51,63.41,58.82,4.5,5.95,8.72,12.17,12.7,18.59-8.18-26.42-11-53.78-16.15-80.69C209.8,210.38,213.21,211.74,214.1,209.27Z"/><path class="cls-2" d="M323.23,348.44c6.32-13.89,6.29-29.24,10-43.77,17.06-67.42,50.63-126.36,91.27-181.86C435.12,108.25,444.82,93,455,78.05c3-.6,3.5,1.71,4.34,3.64,1.23,5.64,4.52,6,8.9,3.47a64.57,64.57,0,0,0,12.5-8.82,111.59,111.59,0,0,0,8.71-8.69c2.18-2.55,4.75-5.3,3.06-8.94-1.8-3.9-5.6-2.87-8.88-2.62a38.27,38.27,0,0,1-5.56.47c-1.66-.4-3-1.1-2.71-3.16,6.65-6.69,13.39-12.66,23.32-5.3,9.21,6.82,10.37,13,5.37,25.78a48.78,48.78,0,0,1-28.33,27.93c-33.11,12.13-50.4,39.32-68.2,66.23-17.25,26.05-34.13,52.36-47.2,81-14.09,30.86-20.66,63.69-27.61,96.5a11.05,11.05,0,0,1,1.75,5.58A284.77,284.77,0,0,1,329,383.32c-.73,3.15.05,9-6.63,7.35-4.32-12.77-2.21-25.77-1.43-38.73A16.36,16.36,0,0,1,323.23,348.44Z"/><path class="cls-3" d="M452.46,889c-3.1,4.65-5.66,5.91-11.45,2.1C427,881.85,417.69,868.84,409.37,855c-2.65-.66-3.45,1.3-4.58,2.59C385.68,879.21,363,884.83,335.92,874c-15.95-6.41-30.21-15.43-39.73-30.45-.65-1.54,0-2.89.59-4.25,1.18-2.93.89-6,.82-9-.18-5.7.1-11.39-.39-17.07-4.18-13.46-13-24.63-18.37-37.53A149.06,149.06,0,0,1,269,739.68c-.53-3.49,0-6.95,3.37-9,2.65-1.57,4.11.23,5.15,2.47,1.17,19.58,9.76,36.72,17.67,54.1,1.48,3.24,2.85,3.77,5.41,1.39a4,4,0,0,1,2.94.74c3.76,26.91,24.94,37.9,45.22,49.69a29.57,29.57,0,0,1,3.06,1.15c8.56,4.48,17.71,5.76,27.25,5.28,14.41-.74,17.78-5,14.76-18.88a21.51,21.51,0,0,1-.48-7.83c.55-2.32,1.33-4.46,4.07-5,4.66,2.34,5.06,7.26,6.86,11.34,4.27,12.63,10.61,24.26,17.5,35.6,4.67,8,11.72,13.81,18.36,20,3.47,3.18,8.39,3.14,12.21,5.55a1.82,1.82,0,0,1,.59,1.76C452.8,888.7,452.63,889,452.46,889Z"/><path class="cls-4" d="M298.41,841.54l-2.22,2c-29.61-29.74-39.56-66.56-38-107.31.36-9.36,2.29-18.66,3.5-28-.77-1.84-3.4-3-2.13-5.6,10.14-4.21,21.6-5,30-13.8,9-9.53,9.48-9.19.33-18-1.62-1.54-3.19-3.14-4.78-4.73a15.31,15.31,0,0,1-2.85-4.19c-1.46-4.95-4.51-10.06,1.38-14.28a4.61,4.61,0,0,1,4.49,1.63c6.52,14,16,23.58,32.95,22.09,5.79,17.4,18,29,33.73,37.39,30.84,19.36,63.42,16.87,96,6.57,10.35-3.26,18.13-12,25.77-19.91,4.76-4.43,6.55-12,14.16-13.44,2.44,1.44,3.5,4.19,5.67,5.89,19.69,16.48,29.91,39.23,39.73,61.94,5.33,12.33,10.77,24.81,13.76,38.07.8,3.52,3.07,7.11-.07,10.62l-2.19,4.74a3.8,3.8,0,0,1-4.19-3c-3.84-13.5-10.51-25.93-14.64-39.31-6-21.8-17.76-40.53-31.13-58.4-3.91-5.22-7.88-5.93-13.18-1.35-8.61,7.46-14.8,15.34-13.4,27.93,1.49,13.41-1.31,27.09,1.69,40.51.77,9.46,5.85,18.24,4.37,28-.72,1.79-1.68,3.26-3.94,3.06-9.42-23-7.45-47.43-9.14-71.42-.27-3.8,2.14-11.37-4.39-10.17-5.31,1-12.8,1.53-14.62,11.08-4.16,21.78,6.42,40.36,10.78,60.24,5.76,26.34,8.44,52.86,6.42,79.77-.56,7.53-3.36,14.2-9.81,18.8l-.1-2.47c4.17-18.54,5.35-37.18,1.6-55.95.05-18.36-5.25-35.79-9.38-53.41-3.8-11.06-6.16-22.67-11.88-33-5.38-9.75-23.07-14.88-32.71-9.65-5.14,2.79-5.07,8.13-5.34,12.94a197.59,197.59,0,0,0,3.26,50.73c.44,5.43,2.82,10.91-.38,16.25l-2.14,5.24c-3.15-.57-4.38-3.14-4.71-5.7-2.42-18.42-11.06-34.25-20.19-49.93a48.86,48.86,0,0,1-2.53-6.29c-1.34-3.08-3.76-5.69-4.13-9.21,2.27-16.67-2.89-28.31-19.56-35.39-10.24-4.35-17.23-14.27-24.46-23a24.06,24.06,0,0,0-6-6.4c-1.41-1.08-2.77-2.32-4.8-1.64-8.84,8.17-16.43,17.68-27.22,23.61-3.61,2-3.64,6.39-4.58,10-.75,2.17-.74,4.47-1.24,6.68s-.85,5-3.34,5.36c-3.47.55-2.94-3.76-6.31-6-2.15,15.89-2.46,31.08-.16,46.13,3.54,23.18,12.89,44.06,27.1,62.74C295.75,833.89,299.08,836.8,298.41,841.54Z"/><path class="cls-5" d="M35.49,389.26C16.31,340.58.28,291,0,238.06-.21,198,14,161.29,32.37,126.22c5.77-11,11.4-22.2,23.19-28.28a5.06,5.06,0,0,1,1.35,3c-.26,3.66-2.67,6.16-4.9,8.68-12.17,13.73-18.62,29-13.13,47.62-.63,4.42-5.29,4.51-7.58,7.13-4.66,5.67.05,11.26.17,16.88A7.41,7.41,0,0,1,28.54,185c-5.85,3.57-8.78,9.23-10.8,15.45-6.12,18.94-7.62,37.72,2.2,56.05.83,3.12-1.45,5.32-2.28,8-7,26.51,3.27,54.27,26.65,71.92,1.36,2.46.19,4.5-1.05,6.53-6.66,6.21-8,13.56-6.14,22.44,1.43,6.84,2.88,13.88,2.17,21C38.61,388.17,37.69,389.58,35.49,389.26Z"/><path class="cls-6" d="M393.8,357.4c12.8,2.38,21.82,12.08,33.79,17.31,3.83-5.91,4.5-13.77,9.5-19.34,2.12-.18,2.88,1.21,3.39,2.91.55,4-1.41,7.36-2.78,10.83-2.48,6.29-.15,10.77,4.52,15,4,3.65,6.4,2.67,8.52-1.81,5.17-11,11.78-21.11,18-31.43,26.62-44,55.12-86.78,92.23-122.71,27.25-26.37,58.3-47.85,93.65-62.29,16.8-6.87,34.22-9.32,51.89-3.15,5.22,1.83,10.39,1,15.62,1.16a4.36,4.36,0,0,1,1.52,3,5.92,5.92,0,0,1-1,3.26c-3.86,4.24-8.8,4-13.67,2.86-27.49-6.63-52.43.45-75.72,14.68-12.69,7.77-25.74,15-33.45,19.91,13.71-11,35.87-14.62,57.9-18.42,3.31-.57,6.89,0,8.86,3.63a5.86,5.86,0,0,1-.19,3.29c-4.66,4.46-10.81,2.3-16.19,3.59C605.75,210.32,567,229.53,538.4,267.39c-26,34.49-49.91,70.25-72.52,107-8.39,13.63-13.69,27.18-1,41.26a13.2,13.2,0,0,1,1.66,3c7.38,14.71,7.38,14.71,21.33,8.78a3.31,3.31,0,0,1,2.06,2.27c.14,1.53.07,3.22-1,4.25-7.24,7-12,15.56-16.46,24.41a3.94,3.94,0,0,1-2.94-1.15c-3.75-5.14-3.4-11.54-5.26-17.26C456.12,412,440,390.26,415,375.28c-8.15-6.53-19.06-8.52-26.51-16.18C389.44,356,391.41,356.06,393.8,357.4Z"/><path class="cls-7" d="M928.62,68.94,926.56,71c-4,1.7-6.39-1.34-8.76-3.48-17.94-16.2-39-25.23-62.85-28.07-2.49-.29-4.71-1.66-7-2.17,16.09,6.79,22.61,20,24.17,36.27,1.58,16.53,5,20.37,21.9,22.61,2.56.34,5.45.59,5.46,4.32L897,102.91c-16.93,6.15-33.67,12.66-50.12,20.13-29.68,13.48-56.26,32.37-85.16,47.12-6,3.05-10.92,8.29-18.16,8.72a5.22,5.22,0,0,1-3.64-3.18c.85-5.9,6.23-7.3,10.23-9.57C786.8,145.38,822,122,861.42,106.41c3.74-1.49,8.59-2.78,8.38-7.94-.23-5.64-6.56-3.93-9.45-6.59a6.21,6.21,0,0,1-.64-3.25c6.15-23.87-4.57-41.23-28.66-47-8.14-1.95-16.38-1-24.53-2-2.25-.73-4.82-1.12-4.61-4.41,30.23-5.49,60.14-7.67,89.18,6.07A115.74,115.74,0,0,1,928.62,68.94Z"/><path class="cls-8" d="M488.31,266.56c8.26-18.07,21.08-32.84,34.51-47.06,23.23-24.62,45.56-50.18,72.33-71.19,2.1-.89,2.93.4,3.56,2.06.12,4.78-3.25,7.49-6.31,10.24C557.51,192,524.17,224.83,496.49,263a11.91,11.91,0,0,1-5.12,4.35A3.92,3.92,0,0,1,488.31,266.56Z"/><path class="cls-9" d="M658.93,101c38.15-26.65,80.88-43.73,124.16-59.67,2.37-1.08,3.07.29,3.33,2.29-6.38,7-15.59,8.79-23.65,12.34-31.28,13.76-63.29,25.92-91.48,45.84-2.77,2-5.9,3.36-9.51,2.82C660,104,658.61,103.16,658.93,101Z"/><path class="cls-10" d="M74,487,60.07,450.9c-1.75-3.06-.77-4.89,2.54-5.67,15.62,14.09,35.17,12.62,54.06,13.64,8.63.46,17.35.22,25.09,5.05,1,3.67-1.81,4.24-4.14,5.23-13.82,2.59-27.39-1.71-41.13-1.57s-15,1-17.69,14.45C78,484.44,77.47,487.22,74,487Z"/><path class="cls-11" d="M473.22,800.7l2.26-2.79c7,2.82,4.94,10.47,8.17,15.3a131.65,131.65,0,0,0,6.82,14.35c6.31,13.76,13.18,27.16,24.22,37.89,3.93,5.94,9.71,9.68,15.71,13.15,6.44,4.34,12.36,1,18.35-1.25,1.68.71,2.59,1.76,1.66,3.66-7.84,9.41-14.73,10.33-25.9,3.26-11.73-7.42-20.59-17.85-27.48-29.55C487,837.71,476.47,820.77,473.22,800.7Z"/><path class="cls-12" d="M214.1,209.27c-.3,2.95-2.63,2.62-4.61,2.87-4.91.59-6.14-3.51-8.11-6.53-19.15-29.49-40.8-56.78-68.1-79.23-3.45-2.83-7-5.82-8.09-10.57,0-2,1.22-2.92,2.93-3.43,32.63,26.21,58.34,58.5,81.3,93.18C210.68,207.47,211.13,209.79,214.1,209.27Z"/><path class="cls-13" d="M162.39,664.29a175.92,175.92,0,0,1-32.38-47c-.76-2.11.41-3.16,2.13-3.92,6.85.39,12.82,4.07,19.48,5.23,2.19.78,4.15,1.84,4.88,4.27-4.45,11.76-1.6,22.07,6.07,31.53a12.29,12.29,0,0,1,3,7.21C165.28,663.37,164.57,664.71,162.39,664.29Z"/><path class="cls-14" d="M162.39,664.29l2.31-2.58c10.74,2.42,15.91,12.95,25.3,17.46,3.62,1.73,6.45,5,10.43,6.39,18.55,6.55,37.15,12.86,56.75,15.51a5.38,5.38,0,0,1,2.63,2.33l1.89,4.8c-30.95-1.28-58.66-12.16-84.21-29C171.6,675.28,165.71,671,162.39,664.29Z"/><path class="cls-15" d="M230,244.05l2.4-.14c17,24,27.66,51.17,38.94,78,1.72,4.1,2.92,8.43,4.37,12.65.91,2.52-.57,2.93-2.54,2.91-3-2-4.48-5.1-5.68-8.21-9.75-25.29-22.9-49-34.29-73.48C231.52,252.13,229.32,248.45,230,244.05Z"/><path class="cls-16" d="M439.06,357.9l-2-2.53c8.63-27.67,24.42-51.44,40.66-75,2.25-.32,2.87,1.13,3.19,2.93-.31,5.13-3.09,9.24-5.78,13.3-11.07,16.67-19.85,34.58-28.59,52.51C444.85,352.68,444.5,357.52,439.06,357.9Z"/><path class="cls-17" d="M128.12,112.38l-2.68,2.2c-6,1.15-9.69-3.38-14.21-5.84C97.43,101.25,83.13,96,67,98.31c-2.29-.55-4.84-.83-4.49-4.2,20.45-11.3,37.47-1.18,54.33,9C121,105.58,124.39,109.25,128.12,112.38Z"/><path class="cls-18" d="M74,487c.72-1.57,1.45-3.13,2.18-4.7a3.46,3.46,0,0,1,3.76,1.82c10.15,22.07,19.83,44.31,25,68.23-.62,1.81-1.51,3.26-3.78,2.86Q87.53,521.14,74,487Z"/><path class="cls-19" d="M658.93,101l2.54,2.19c.37,3.21-2,4.71-4.11,6.2-18.33,13.13-36.63,26.31-54.3,40.35a6,6,0,0,1-5.24,1.4l-2.67-2.78C615.14,130.8,636.83,115.6,658.93,101Z"/><path class="cls-20" d="M101.1,555.25l2.35-2.65c2.84,0,3.8,2.12,4.57,4.23A376.74,376.74,0,0,0,131.72,608c1.08,2,2.12,4,1,6.4l-2.74,2.9C117.76,597.81,107.41,577.48,101.1,555.25Z"/><path class="cls-21" d="M393.8,357.4l-4.6,2a6,6,0,0,1-5.33,1.09c-15.32-3.94-30.71-7.27-46.64-7.2a6.47,6.47,0,0,1-4.87-2.55c.1-1.74.21-3.49.31-5.24C353.78,345.7,374.37,348.51,393.8,357.4Z"/><path class="cls-22" d="M323.23,348.44l-.39,2.78c-5.56,7.1-14.62,4.82-21.6,8.12a105.12,105.12,0,0,0-13.92,4.73c-6.22,1.47-11.5,6.89-18.64,4.5l-4.28-1.88c1-8.08,11.43-5.24,13.68-11.88,1.05-1.19,2.18-2.22,4-1.66,1.44,6.19,5.17,3.32,8.59,2.28C301.3,352.18,311.69,347.6,323.23,348.44Z"/><path class="cls-23" d="M62.42,446.18c-2.07.93-2,2.93-2.35,4.72a334.22,334.22,0,0,1-24.58-61.64l2.33-2.7c4.64.58,5.9,4.44,6.91,7.93a308.52,308.52,0,0,0,17,45.22C62.69,441.72,63.53,443.89,62.42,446.18Z"/><path class="cls-24" d="M550.41,881l-2-2.88c-3.63-5.78-.61-11.58.06-17.33,1-8.55.17-17.14.76-25.7.39-2.73.88-5.41,3.35-7.15,2.38-1,.28-5.76,4.27-5.26a2.61,2.61,0,0,1,2.24,3.16c-5,1.68-2,5.52-2,8.32C556.81,850.09,557.78,866.12,550.41,881Z"/><path class="cls-25" d="M457.24,82.64,455,78.05c5.26-9.48,11.45-18.19,20.36-24.65l2.52,2.28c-1.87,9.05-10.53,13.47-14.34,21.2C461.55,78.94,461.39,83,457.24,82.64Z"/><path class="cls-26" d="M785.78,43.28l-2.69-2c5.91-3.16,12.06-5.57,18.82-6.1l4.84,2.22C801.27,44.79,794,45.66,785.78,43.28Z"/><path class="cls-27" d="M282,353.15l-2.11,2.41c-8-4.23-8.21-11-6.13-18.56l1.94-2.41Z"/><path class="cls-28" d="M479.91,282.84l-2.16-2.43c2.74-5.22,6-10.06,10.56-13.85l2.42,0C491.08,274.6,487.2,279.86,479.91,282.84Z"/><path class="cls-29" d="M237,5.27,223.19,5C228-2.64,232.55-.67,237,5.27Z"/><path class="cls-30" d="M62.53,94.11l4.82,2.33c-2.15,6-6.78,5.46-11.6,4.45l-.19-3A6.43,6.43,0,0,1,62.53,94.11Z"/><path class="cls-31" d="M797.34,489.09a66,66,0,0,0,6.69.81c33.81.77,47.2,23.64,52.6,49.83,3.34,16.19,1.18,32-5.06,47.35-1.7.28-3.43-.44-3.42-2,.11-12-6.65-11.29-15.5-9.5-44.34,9-88.89,16.83-133.57,23.91-4.78.76-9.76,1-15,4.21,6.29,5.75,14.38,6.12,21.12,9.34,3.3,1.57,11,3.33,1.75,8.12-19.39-2.17-37.16-10.2-55.68-15.5-37.48-11.28-74.48-24.21-112.84-32.42-25.44-8.75-51.9-13-78.21-18a54.93,54.93,0,0,0-7.78-1.43c-14.56-1.61-16.3-4.31-7.2-15.19,11.81-14.12,19-30.67,27.46-46.61,12.43-5.84,26-6.05,39.25-7.93,4.41-.62,9,0,13.31-1.62,7.71-1.6,15.77.35,23.35-2.44,16.16-2.1,32.54,1.21,48.65-2.05,4.1-.94,8.27-.81,12.43-.91,23.06,1.43,45.94-4.68,69-1.62,14.21,3.71,28.81.13,43.1,2.3,22.41,2.56,44.79,5.47,67.15,8.44C792,486.61,795,486.73,797.34,489.09Z"/><path class="cls-32" d="M908.36,209.81c12.4-.18,22.12,6.58,26.69,18.12,18.65,47.17-21.49,96.58-57.54,98.12-12.32.52-24.77.95-37.1,2.24-3.35,3.24-7.63,2.83-11.7,2.8-26.7-.15-52.81,5.43-79.21,8.17-11.53,1.2-23.17,1.5-34.5,4.25-39.58,6.11-76.81,20.19-114.11,34-16.07,4.92-31.19,12.26-46.66,18.71-4.12,1.71-8.17,3.73-12.81,3.6-1.83-.39-3.12-1.33-3.41-3.3,2.37-6.78,8.81-9.12,14.08-12.5,39.42-25.37,80.4-48.13,120.82-71.81a111.18,111.18,0,0,0,10.59-6.58c16-10.09,31.23-21.27,46.47-32.45,4-2.92,8.42-5.87,10.65-10.08,8.87-16.75,25-22,41.21-27.27,19.41-6.29,39.24-11,59.17-15.29,14.21-2.13,28.23-5.13,42.19-8.47C891.38,209.06,899.8,208.74,908.36,209.81Z"/><path class="cls-31" d="M819.92,486.8l-10.8-.08a2.78,2.78,0,0,1-1.71-2.43c5-13.19,19-16.51,27.81-25.54,2.42-2.47,6.69-3.23,6.56-8.3-11.63,8.8-24.85,15-36.11,24.28-1.75,1.43-3.14,3.46-5.14,4.39-3.1,1.45-4.47,3.59-4.24,6.91a12.5,12.5,0,0,1-9.59.14c-5.23-8.93,2.73-12.39,7.61-15.74,8.77-6,16.62-13.09,24.86-19.7,1.93-1.55,5-3.71,3.33-6.39-2.11-3.34-5.61-1.34-8,.2-6.73,4.22-12.93,9-18,15.38-7,8.82-13.09,18.65-23.35,24.41-5.25.67-10.48,1.27-14.81-2.83-4.45-9.46,2.81-14.53,7.63-20.57,3.19-4,10.16-6.8,8.47-12.4-1.85-6.08-9.19-3-14-4.41-17.55-5.06-32.46-.37-45.95,11.49-7,6.13-15,11-22.42,16.75,9.29-2.21,10.16-1.82,11,4.79a10.72,10.72,0,0,1-3.7.76c-27.46-2.22-54.9-.39-82.31-.14-5.62-1.79-4.81-4.26-.23-6.07,5-2,10.52-1.69,15.66-1,27.24,3.46,51.28-2.34,70.52-23.15a11.66,11.66,0,0,1,1.82-1.33c17-12.15,16.87-14.66-1-24.87-17.72-10.1-28.85-8.72-43.14,5.76s-31.73,25.41-46.92,39c-3.5,3.12-7,5.73-6.12,11.1a2.86,2.86,0,0,1-2.71,1.94c-9.91.86-19.82,1.6-29.76,1.1a10.06,10.06,0,0,1-3.38-.71c-4.42-5.16,1.46-6.52,3.55-6.6,15.56-.61,24.89-11.58,35.31-20.63,15.12-13.14,30.64-25.8,46.16-38.46,7.67-6.26,7.23-9.07-1.3-13.86-18.4-10.33-29-9.41-45,4.22-29.05,24.71-59.74,47.44-88,73.13-3.76,3.42-9,3.94-12.92,6.88-3.7.46-7.08,3.28-11.08,1.55-2.62-7.2,2.95-11.09,6.82-15.07,5.72-5.88,12.19-11,17.2-16.22-10.83,6.74-21.67,15.52-34,21.83-6,3.09-6.24,8.92-9.11,13.51-4.93,1.65-6-1.84-6.2-5.26-.46-7.72-2.25-15.5.37-23.17a5,5,0,0,1,.62-.88c16,8,25.4-5.42,35.45-12.57,26.4-18.81,53.25-36.95,79.86-55.45,4.76-3.31,7.68-7.08,7.3-13,.83-2.64,3.46-2.48,5.35-3.49,19.48-6.86,38.53-15.05,58.84-19.38,9.2,6,19.72,9.2,29.87,12.84,8.71,3.13,17.78,1.66,25.52-4.63,9.33-7.59,18.79-15,26.44-24.42,5.47-2.28,11-3.91,17.06-3,1.43.48-.32-.29,1.11.2,5.37,1.85,13.31,3.6,13,9.19-.38,6.54-9,6-14.09,6.12-14.64.31-22.72,10.94-32.38,19-4.35,3.65-3.5,7.66,1.12,11.3,17,13.38,45,14.07,62.8,1.41,5.24-3.73,10.52-7.39,15.62-11.31,4.94-3.79,10.06-6.83,2.92-14-4.5-4.53.5-7.91,4.74-8.41,17.63-2.08,33.29-9.11,48.27-18.11,8.92,7.89,19,14.79,22.77,27.05-10.22,16.31-24.3,29.4-36.59,44-2.18,2.58-4.94,4.65-6.85,7.46-2.73,4-1.35,6.33,3.23,6.89A33.85,33.85,0,0,0,869,412.59c6.22-4,12.54-10.59,21.3-5a35.81,35.81,0,0,1-2,16.57c-3.47-1.36-1.3-7.24-5.38-7.44-2.54-.12-4.26,2.81-5.38,5.15-2.26,4.72,1.3,6.69,4.49,8.72a7.46,7.46,0,0,1,3.38,4.24c-4.59,11.35-8.87,22.88-17.84,31.76-9.46-4.42-17-1.06-24.41,5.23C836.05,477.73,829.56,484.77,819.92,486.8Z"/><path class="cls-32" d="M742.69,177.56q41.68-23.7,83.36-47.41c16.69-9.53,34.66-16.27,52.13-24.1,5.89-2.64,12.39-3.08,18.83-3.14,3.52,1.32,7.06,2.61,10.57,4,22.18,8.56,34.43,27.49,33.06,51.28-.48,8.33-2.55,16.35-4.69,24.41-4.12,15.54-12.63,25.45-29.76,25.51-9.31,3.39-19.42,3.08-28.75,6.33-13.75,3.07-27.68,5.14-41.48,7.88-21.75,5.36-43.79,9.61-64.61,18.37-12.21,5.14-16.24,2.47-15.42-10.53,1-15.82-2-29.74-13.94-41.16C738.8,185.92,733.12,180.73,742.69,177.56Z"/><path class="cls-33" d="M743.72,701.31C730,715,712.41,713.62,695.24,713.94c-12.41,2.45-23.48-3.45-35.13-5.66-40-7.58-75.89-25.55-111.21-44.84a12.69,12.69,0,0,1-4.14-3.75c-1.79-3.48-5.21-5.4-7.79-8.12-7.23-7.65-5.74-13.44,4.17-16.7,20.11-6.63,41-9.53,61.87-11.83a98.32,98.32,0,0,0,17.72-3.39c2.92-.88,6.33-1.15,8.29,1.76s.21,6-1.61,8.32c-6.2,8-13.9,14.71-19.4,22,3-3.1,7.46-5.88,11.55-9.18,10.31-8.31,21.38-11.65,34.78-8.28s27.66,4,40.79,9.25c18.85,9.44,32.74,24.43,45.33,40.86A18.72,18.72,0,0,1,743.72,701.31Z"/><path class="cls-34" d="M706.27,619c.72-.21,1.73-.18,2.11-.66,1.11-1.37-.2-1.57-1.14-1.88-7.82-2.61-15.69-5.06-23.41-7.94-2.45-.91-6.9-.47-6.16-5,.58-3.51,4.08-4.24,7-4.8,8.82-1.72,17.64-3.43,26.53-4.7,40.74-5.86,81.1-13.82,121.53-21.43.73-.14,1.39-.6,2.12-.76,15-3.21,15-3.2,14.76,11.43,0,1.26,1.3,2.53,2,3.8-7.9,33.41-44.74,59.09-81.17,56.57-21-6.31-41.64-13.45-62.18-21A3.22,3.22,0,0,1,706.27,619Z"/><path class="cls-35" d="M711.18,777.47c4.92,5.1,1.06,10.25-.8,14.55-10.06,23.25-25.38,41.11-51.29,47.25-4-1.26-5.71-4.7-7.44-8.09C643,814.34,635.56,797,627.26,780c-3-6.24-3-12.57,2.86-16.25,13.09-8.22,16.5-19.68,14.07-34.08-1-5.6,1.8-9.16,6.76-4.87C671.12,742.24,694.87,755.61,711.18,777.47Z"/><path class="cls-36" d="M862.91,332.76c-11.49,14.62-28.47,17-45.06,20.17-2.88.55-7-.5-7.63,3.13-.63,3.31,3.36,3.18,5.64,4.26,4.18,2,4.39,4.88,1.15,8a175.72,175.72,0,0,1-38,27.79c-11.63,6.27-49.07-4.3-57-14-4-4.86-1-8.31,2.32-11.7,13.17-13.51,28.12-23.28,48.55-21.59-2.69-6.19-8.59-6-12-9.33,7.94-6.39,18-5.11,27-6.46a248.81,248.81,0,0,1,55.17-2.34C849.57,332.47,856.68,328.47,862.91,332.76Z"/><path class="cls-37" d="M767.87,645.93c8.23,12.66,6.92,26.39-4.07,38.9-2.94,3.34-6.67,6-10,9-5.27,3.12-6.47-1.84-8.43-4.53-25.81-35.41-59.31-60.91-99.57-77.63-5.88-2.44-12.46-2.86-18.71-4.34C590.08,595,551.9,590,513.21,588a80.43,80.43,0,0,0-21.2,2.17c-4.34-1.34-7-3.8-5.78-8.81,5.38-8.09,13.42-6.44,21.24-5.91,20.75,1.39,41.48,3,62.14,5.36,27.81,6.06,54.55,15.91,81.95,23.43,33.28,12.11,67.67,20.81,101,32.8C758.16,639.1,764.37,640.2,767.87,645.93Z"/><path class="cls-38" d="M486.7,582.47c.63,3,2.79,4.82,4.93,6.67a28.18,28.18,0,0,1,13.25,19c4.1,20.33,14.75,34.93,33.43,43.88a19.79,19.79,0,0,1,7.05,5.57c40.73,25.1,84.38,42.75,131.44,51.78,6.21,1.19,12.3,3,18.44,4.54l-.08,2.74c-3.89,3.8-8.4,2.17-12.76,1.38-14-2.52-27.65-6.37-42.55-10.31,16.34,17.72,35.56,30.41,52.64,45.55,7.63,6.76,16.9,12.16,20.86,22.42l-2.17,1.75-66-54.58c6.29,19.8,2.61,34.21-14.35,43.28-5.33,2.85-4.18,5.88-2.15,10,10.23,21,20.28,42,30.39,63.06l-5,2.27c-10.25-17.19-18.46-35.45-27.16-53.43-4.6-9.51-10.31-15.46-21.59-14.13-6.8.8-13.08-2.47-20.35-4.1,1.7,11.93,10.06,21.43,7.56,33.27-.8,1.61-1.93,2.72-3.88,2.59-5.36-5.76-6-13.59-8.71-20.48-5-12.69-9.58-25.35-22.85-32.11a11.1,11.1,0,0,1-5.47-6.91,3.39,3.39,0,0,1,3-3.45c12.44,3.65,21.78,13.2,34.08,17.49a53.53,53.53,0,0,0,37.64-.27C638.77,755.4,644,745.6,640.57,733c-4.33-16-11.91-29.55-29.33-34.53a562.24,562.24,0,0,1-92.14-48.17c-4.14-2.67-5.9-2.4-8.44,2.36-6.56,12.29-6.89,24.15-.17,36.28a3.75,3.75,0,0,1-2.85,3.42c-5.06-.56-6-5.89-9.31-8.41-2.46,1.31-2.93,4.27-5.2,5.52-2.6-1.83-2-4.67-2.22-7.23-2.48-3.59-.14-6.62,1.44-9.44,6.1-10.86,7.8-22.87,8.78-34.9,1.08-13.26-4.2-25.38-10.05-36.69C483.5,586.5,471.32,575.43,458,566c-8.72-6.18-18.28-10.66-29.56-7.39a4,4,0,0,1-2.06-2.52c.25-7.23,6.34-10.16,10.55-14.48,11.25-12.23,21.75-24.93,27.39-41,1.08-3.08,2-6.62,5.9-7.74a4.29,4.29,0,0,1,3,1.11c-4.88,18.21-14.43,33.71-26.93,47.63-1.82,2-5.73,3.94-4.38,7.18,1.59,3.81,5.71,2.47,9,2.37,2.95-.09,6.09-.88,8.46,1.81a11.36,11.36,0,0,1,1.78,2.35c3.65,5.51,9.74,8.1,14.51,12.27S486,575.3,486.7,582.47Z"/><path class="cls-39" d="M591.28,802.34c-1.13-13.05-7.54-24.4-12.61-39.12,13.49,7.21,26.29,9.83,39.76,7.87,1-.15,2.86,1.25,3.45,2.38,11.68,22.24,24.51,43.94,32.2,68.07a94,94,0,0,1-56.23-6.81C591.42,824.8,590.45,813.75,591.28,802.34Z"/><path class="cls-37" d="M552.4,745.88c23.53,12.75,30.79,35.55,36.47,59.32,3.62,8.71,7.74,17.34,3.87,27.12-17.72-6.93-30.49-20.15-42.91-33.83C541,765.2,528.3,733.59,509,704.9c-4.21-6.23-8.5-12.43-15.84-15.48-1.67-5.41,3.45-7.14,4.6-12l9.68,14c8.23,5.76,12.25,15,18.2,22.6C534.18,725,544.76,734.2,552.4,745.88Z"/><path class="cls-40" d="M899.47,100.5c-1.69-.68-3.87-2.42-5-1.89-13.56,6.49-17.29-6.1-24.28-12.28a5.18,5.18,0,0,1-1.83-5c3.1-20.21-5.6-34-23.28-42.95a19,19,0,0,1-2.72-2.11c17.68-1.08,51.17,3.44,84.18,34.77,3.62,4.31,7.34,8.53,10.81,13,3,3.79,3.85,7.53-1.8,9.78C924,98.38,913.07,106.71,899.47,100.5Z"/><path class="cls-41" d="M481.84,814.63l-6.36-16.72c-.69-9.72-5.64-18.69-5.08-28.64-1-2.27-1.06-5.7,1.8-4.8,17.2,5.46,32.26-4.22,48.37-6.12,3.73-.43,7.94-4.13,10.83,1.52q8.11,21.68,16.24,43.36,1.27,7.82,2.56,15.65c-3.7,5.21-7.15,1.85-10.46-.43-7.73-5.31-15.39-10.57-24.64-13.22-8.65-2.47-16.21-2.13-22.52,5.14C489.8,813.57,486.6,816.2,481.84,814.63Z"/><path class="cls-35" d="M713.35,775.72C688.09,750.85,657.41,731.93,632,703c22.88,5.85,42.59,11.92,63.19,13.73,16.74,4,17.75,4.41,18.69,22.8C714.47,751.49,718.3,763.73,713.35,775.72Z"/><path class="cls-36" d="M890.25,407.54c-7.66-.78-14.23,2.43-19.5,7.19-8.23,7.45-17.83,6.83-27.51,6.33-6.13-.32-10.48-4.34-5.34-9.36,16.89-16.45,29.7-36.61,47.78-51.89C891.27,375.33,893.51,391.17,890.25,407.54Z"/><path class="cls-42" d="M629.39,605.28c28.69,4.73,52.4,19.6,74.54,37.34,17.36,13.91,34.21,28.45,45.34,48.28a5.51,5.51,0,0,0,4.5,2.89c-3,3-5.8,6.22-10,7.52-6.62-26.83-27.87-40.73-48.55-55.13-18.32-12.59-37.13-24.29-57.51-33.33C634.22,611.33,629.11,611.1,629.39,605.28Z"/><path class="cls-36" d="M819.92,486.8c9.35-7.37,18.54-14.95,28.1-22,6.72-5,13.6-5.71,19.46,1.77C852.83,485.31,837.3,491.92,819.92,486.8Z"/><path class="cls-43" d="M481.84,814.63c2.21-1.14,4.77-1.88,6.57-3.48,14.38-12.83,23.5-13.22,41-3.11,6.72,3.89,11.4,12.09,20.81,10.84l2.34,9.07q-.3,3.43-.61,6.87c-7.86-2.38-12.13-9.55-18.46-14-4-2.83-7.78-5.77-12.46-7.47-15.19-5.49-20.48-3.61-28.37,10.44-1.11,2-2,4.09-4.31,5Z"/><path class="cls-44" d="M843.08,330.63c-23.69,2.61-47.68,2-71.18,6.68-3.66.72-7.32,1.41-11,2.12-6.24-.75-12.21.64-18.15,2.33-6.82,4.23-14.46,4.05-22.07,4.11-3.11-.82-6.28-1.57-8.14-4.63,42.48-5.67,84.62-14.61,127.84-12.95Z"/><path class="cls-45" d="M767.87,645.93c-27-12.61-55.89-20-84.22-28.84-10.75-3.35-21.53-6.55-31.72-11.43q-1.84-1.32.13-2.44L706.27,619l56.63,20.08c2.81,1,5.64,2,7.5,4.54Z"/><path class="cls-46" d="M808.4,485.19a10.68,10.68,0,0,1,.72,1.53c-3.69,2-8.45-1.39-11.78,2.37-25.41-.6-50.38-5.21-75.5-8.49,2.55-3.55,6.77-3.51,10.34-4.89,9.32-1.33,18.34-.93,26.48,4.6L774.54,482c4.37-2.18,7.89-.13,11.33,2.31l11.28,0C801.13,481.48,804.88,481.7,808.4,485.19Z"/><path class="cls-36" d="M885.32,434.78c-2.76-1.13-5.77-1.89-8.24-3.48-3.2-2.05-6.66-5.06-4-9.19,3-4.64,7.07-11.42,12.06-10.74,5.51.76,1.58,8.38,3,12.74A19.13,19.13,0,0,1,885.32,434.78Z"/><path class="cls-47" d="M592.74,832.32c1.28-9.41-3.39-18-3.87-27.12l2.41-2.86c3.8,10.47,5.44,21.38,6.57,32.39Z"/><path class="cls-48" d="M876.71,212.62c9.69-2.42,19.46-4.32,29.48-4.55l2.17,1.74c-7.62,4.35-16.54,1.91-24.44,4.76C881.23,215,878,217.52,876.71,212.62Z"/><path class="cls-18" d="M834.91,493.82c5-2.7,9.22-5.88,12.32-3.31,3.32,2.75-.77,7.06-.81,11.84Z"/><path class="cls-49" d="M55.75,100.89l11.6-4.45c15.94-5.6,29.24,2.74,42.86,8.51,5.45,2.32,10.18,6.37,15.23,9.63,17.18,16.71,35,32.72,50.39,51.27,12.26,14.76,22.19,31.05,33.66,46.29,9.42,19.74,8.09,41.78,13.13,62.5,2.17,8.92,7.86,17.5,4.72,28.11-16.79-28.53-36.87-53.92-62.79-74.05-13.82-10.73-28.83-19.4-47.65-14.11-4.31,1.89-8,.58-11.39-2.25C85.4,195.44,65,178.93,43,164.48a14.21,14.21,0,0,1-5.64-6.82c-7.53-17.29-2.37-32,9.07-45.54C49.6,108.42,52.65,104.64,55.75,100.89Z"/><path class="cls-50" d="M146.21,348.74c-20-20.46-31.74-44.63-32.59-73.53-.86-29.67,27.17-46.42,54-32.66,12.07,6.2,21.13,15.78,29.39,26,12.09,14.91,24.14,30,34.5,46.12,7.9,12.28,11.19,27,15.74,40.94,1.75,5.36,2.57,11,6.22,15.62.27,4.78-3.21,7.38-6,10.43-6.55,7.28-15.21,12.31-21,20.49-3.91,5.53-8.92,3.86-13.93.71-10.9-6.85-20.81-15-31-22.8C169.72,369.68,155.78,361.69,146.21,348.74Z"/><path class="cls-51" d="M44.15,337.53c-11.57-1.39-18.4-10.16-22.29-18.94C14,300.92,10,282,15,262.35c5.41-3.7,10.83-1.92,16,.38,20.24,9,39.63,19.76,59,30.59a10.42,10.42,0,0,1,4.37,5c1.45,1.17,3.6,2,4.24,3.54,9.28,21.87,29,33.94,45.61,48.84,9.4,4.19,16.24,11.81,24.12,18,2.14,1.69,4.38,3.94,2.93,6.56-1.75,3.14-5.26,2.51-8.07,1.32-10-4.23-20-8.36-30.13-12.17-24.77-9.9-50.87-15.13-76.52-21.91C52.1,341.41,47.56,340.87,44.15,337.53Z"/><path class="cls-52" d="M19.28,257.66c-7.47-6.53-8.5-15.62-9.31-24.58-1.37-15,2.49-29,8.78-42.46,1.91-4.06,4.37-8,9.76-8.15a38.5,38.5,0,0,1,12.37,5.05c16.39,10.16,31.48,22.08,46.71,33.84a17.38,17.38,0,0,1,6.5,9c-7.67,19.67-7.4,39.31.26,58.92-1.66,5.46-1.72,5.61-7.21,3.16-11.63-5.18-22.38-12.08-33.84-17.63S30.13,264.35,19.28,257.66Z"/><path class="cls-53" d="M268.68,368.57l18.23-6.52c12-.41,24.31-3,35,5.36.42,7.2.08,14.4.2,21.59-17,24.25-37.45,44.22-66.55,53.34-8.6-7.61-15.68-17-26.13-22.46-.75-4.66.79-9.6,5.47-9.1,10.82,1.16,17.24-5.08,24.07-11.43,1.6-1.48,3.68-2.63,6-1.15,5.64,2.06,6,1.92,5.1-.89-1.68-4.95-3.25-10.16-6.07-14.46C259.24,375.58,261.07,371.34,268.68,368.57Z"/><path class="cls-54" d="M273.8,337c1.33,6.42,2.91,12.76,6.13,18.56-1.32,9.11-11.35,6-15.53,11.13-6.27,4.2-7.4-.82-8.77-5-10-30.94-19.19-62.17-23.52-94.48-1-7.57-7.64-14.94-2.08-23.13C246,274.36,260.73,305.3,273.8,337Z"/><path class="cls-55" d="M162.38,233.49c-9.35,2.27-17.58.73-25.62,3.11-18.39,5.44-24.31,11.31-26.67,30-.49,3.85-.47,7.39-5,9.07-6,2.21-9.73,3.28-11.88-5.43-6.34-25.82,4.63-46.76,28.82-52.59C134.35,214.67,148.76,220.08,162.38,233.49Z"/><path class="cls-56" d="M30.52,180.66c-5-5.58-5.78-11.57-1.81-18a11.85,11.85,0,0,1,13.47.27c23,15,44.32,32.12,65.1,50a7.3,7.3,0,0,1,2.27,3.83l-12.9,11.14C74.27,212.59,52.7,196.19,30.52,180.66Z"/><path class="cls-57" d="M229.67,419.35c13.15,2,18.86,12.79,25.83,22.08a12.07,12.07,0,0,1,5.25,5.26,100.58,100.58,0,0,1,8.88,46.09c-.2,4.5-.08,9.13-4,12.45a4.27,4.27,0,0,1-3.45.64c-4.36-4.35-2.35-9.74-2.56-14.87-.9-22.55-5.13-43.92-22.85-60.07-11.29-6-16.3-5-27.43,5.34-4.87,7.53-11.41,14-13.92,23A102.89,102.89,0,0,0,190.06,492c-.56,3-.85,6.14-4.6,7a5.69,5.69,0,0,1-3-5.46c.6-9.11-3.72-15.17-11.26-19.45-1-3.08,1.11-4,3.35-4.79,3.62-.5,8.09.31,9.2-4.7,3.95-18,16.39-31.37,25.18-46.67,4.67-8.14,2.73-11.72-4.33-16.1S190,393.66,183.86,388c-.77-3.25-7-5.81-1.31-9.92,11,7.85,22,15.76,33.12,23.5,2,1.42,4,5.3,7.14.93,8.6-12,20.88-20.39,30.64-31.26,2.38,1.83,1.62,4.45,1.72,6.85-10.41,12.61-24.81,21.65-32.52,36.65-.57,1.29-2.83,2.68-2,3.47,1.25,1.13,3.32-.55,5.11-.61C227.4,417.5,228.88,417.69,229.67,419.35Z"/><path class="cls-58" d="M220.74,413.51c8.68-14.55,18.95-27.54,34.43-35.46q4.91,10.08,9.8,20.15c-5.3,2.3-8.2,7.37-12.48,10.83-3.72,3-7.54,6.65-12.83,4.26-6.62-3-8,1.76-10,6.06l-3.21-.07Q218.48,421.47,220.74,413.51Z"/><path class="cls-59" d="M212.16,38c-.12-9.69,1.64-16.21,5.07-22.15,1.68-2.9,4.07-5.88,8-5.17a8.6,8.6,0,0,1,7.2,7.72C234,29.7,231,40.14,224.77,49.48c-3.42,5.14-7.51,4.32-10.44-1C212.06,44.34,212.15,39.75,212.16,38Z"/><path class="cls-60" d="M182.55,378c-2,3.66,3.25,5.29,2.42,8.62a4.72,4.72,0,0,1-5.19.9c-16-6.8-32.44-12.43-47.4-21.43-.44-2.16.8-3.17,2.58-3.81L169.86,376l1.08-1.7-26.85-23.63,2.12-2Z"/><path class="cls-61" d="M109.54,216.71c-22-17.81-43.72-35.87-67.07-51.89-4.5-3.08-8.78-3.91-13.76-2.2,1.07-4.86,6.74-1.63,8.68-5C62.69,173,85.25,192.08,108,210.79c2.73,2.25,5.24,4.09,8.86,3.8C115.09,217.52,112.08,216.29,109.54,216.71Z"/><path class="cls-62" d="M19.28,257.66c24,9.24,46.47,21.74,69.25,33.56,2.55,1.32,6,5.32,5.82-1.91,4.1,3.06,2,6-.11,9-20.43-10.4-40.77-21-61.36-31.08-5.51-2.7-11-7-17.93-4.9Q17.13,260,19.28,257.66Z"/><path class="cls-63" d="M30.52,180.66a392.8,392.8,0,0,1,66.13,47.19l-2.56,2.54a714.93,714.93,0,0,0-65.58-47.92Z"/><path class="cls-64" d="M264.46,505.26c5.36-16.21,1.27-31.86-2.86-47.49-1.05-4-2.53-7.85-3.81-11.77a8,8,0,0,1,5.36-5.34c25.07-9.28,44.51-25.48,58.91-47.91l1.15-1.1c5.07-10.14,4.18-21.58,6.92-32.23q1.13-4.32,2.23-8.65c19.63-1.58,38.41,2.36,56.84,8.67a82.55,82.55,0,0,1,27.2,13.87c-1.47,5.06-5.58,6.81-9.62,5-8.92-4-10.21,2-12,7.95-9.23,2.58-19.53.81-27.61,8.26-5.22,4.81-9.78,9.93-10.88,16.75-4.1,25.29,1.17,48.92,14.88,70.39,9.44,14.78,21,27.62,37.7,34.72a52.32,52.32,0,0,0,16.32,4.17c20.41,1.72,32.9-7.17,35.46-33,1.33-13.49.2-27.16-.32-40.74,1.58-3.06,3-6.28,6.26-8q2.24,9.36,4.46,18.72c4.81,12.18,4.27,24.25-.77,36.22-6.94,18.83-16.88,35.75-31.6,49.6-10.21,1.62-17.08,9-24.78,14.78-11,8.23-22.88,12.54-36.69,11.46-14-1.1-17.93-7.68-12.48-21.28,3.42-3.46,4.77-7.36,3.46-12.32a42,42,0,0,1-1.88-11.13c.14-13.52-3.57-18.89-16.33-22.93-15.81-5-31.19-3.33-46.1,3.72-3.74,1.77-7.06,4.38-11.15,5.43-2.95.3-6.05,1.11-8.85.2-7.11-2.32-13.64-4-17.52,5.08-.68,1.59-2.54.29-3.51-1C261.21,511.64,261.56,508.24,264.46,505.26Z"/><path class="cls-65" d="M461.68,75.82c3.7-8.08,10.84-13.38,16.16-20.14,2.88-1.76,5.82-3.16,9.35-3.24,8.37-.2,11.89,4.81,8,12.23-3,5.66-7.85,9.84-13.3,13.23a43.1,43.1,0,0,1-10.77,5.48C465.1,85.2,459.72,84.67,461.68,75.82Z"/><path class="cls-64" d="M320.82,391.59q-.09-12.27-.17-24.56c-5.11-6.74-14.83-3.73-20.34-9.64,6.93-4.21,15.27-3.22,22.53-6.17q.18,20.22.37,40.43l-.48.44A1.45,1.45,0,0,1,320.82,391.59Z"/><path class="cls-66" d="M461.68,75.82c.75,6.63,4.33,7.8,9.88,5.12,3.27-1.57,6.47-3.37,10.29-3-3.47,5.86-9.69,8.09-15.16,11.19-7.15,4.06-9.58.54-9.45-6.45Z"/><path class="cls-67" d="M370.68,755.72a47,47,0,0,0,8.07,17.06c10.45,13.81,12.06,30.91,16.64,46.9a68.1,68.1,0,0,0,1.72,7.57c4.2,12.08,2.28,17.82-9.61,20.43-12.75,2.8-25.82,2.5-37.14-6C341.86,825.27,340.5,807,337,789.3c-.91-4.55,1.36-8.37,5.49-10.27,9.55-4.39,17.43-10.28,21.71-20.35C365.19,756.32,367.51,754.48,370.68,755.72Z"/><path class="cls-68" d="M457,830.42c3.07,12.8,2.68,25.82,2.26,38.83-.21,6.59-3.05,12.15-6.93,17.28-5.35,1.54-9.86.15-13.61-3.91-1.12-10.29-3.38-20.08-11.87-27.09-3.37,1.27-.56,8.45-6.73,6.83-8.07-11.05-14.8-22.76-17.69-36.34,4.8-7.83,18-11.54,29.4-8.3C441.06,820.33,448.69,826.08,457,830.42Z"/><path class="cls-55" d="M298.41,841.54c-29.54-32.65-39.8-71.46-36.43-114.62,0-.37,0-.76,0-1.13.69-4.17,1.61-9.48,6.36-9.36,5.68.14.52,6.48,3.92,9,2.54-3.07-.69-8.27,3-11.16,2.69,1.48,1.88,4.32,2.33,6.16,5.67-13.38,16.72-23,25.95-34,2.13-2.54,5-4.54,5.64-8.1,2.93-.81,5-.23,5.19,3.29a4.3,4.3,0,0,1,.81,3c-7.68,11.18-17.81,20.37-25.51,31.54A105.15,105.15,0,0,0,282.59,729c-1.73,2.6-2.62,6.13-6.7,6.18-.41-1-.95-2.95-1.23-2.91-4.25.56-3.61,4-3.09,6.59,2.66,12.91,5.57,25.66,10.91,37.93s14,22.4,17.95,35.15a43,43,0,0,0,0,20.76C299.92,835.68,301.64,839.19,298.41,841.54Z"/><path class="cls-69" d="M457,830.42c-4.59,3.12-7.27-.17-10.71-2.65-14.12-10.19-28.83-11.54-43.86-1.75-3.17-3.21-3.32-7.7-4.93-11.58q-.94-7.86-1.91-15.72c-1.18-3.34-2.36-7.24,2.71-7.78a108,108,0,0,0,46.2-16c.94-.58,2.13.24,3,1,3.19,13.66,7.56,27.07,8.81,41.14C456.72,821.48,456.8,826,457,830.42Z"/><path class="cls-70" d="M348,841.57c-17.7-6.71-30.73-19.46-42.62-33.52-4.52-5.35-1.28-12.48-2.74-18.63-5.17-7.38-1.16-14.83.66-21.77,1.78-6.75,6.85-3.19,9.5-.34,5.64,6.05,12.48,9.58,20.15,12,6.24,6.56,5.61,15.28,6.82,23.25C341.81,815.72,348.23,828,348,841.57Z"/><path class="cls-71" d="M275.89,735.18l4.48-7.07c4.46-.41,8.75,1.3,13.32.69,4.37-.59,8.26.8,9.36,6,3.35,18.4.13,36.47-2.61,54.56-1.34,2.38-1.06,5-1.52,7.89C288.09,777.68,275.75,758.83,275.89,735.18Z"/><path class="cls-72" d="M300.44,789.35c-.3-18.66,2.38-37.28.56-56,.42-5.27-2.67-11.46,3.94-15.1a3.24,3.24,0,0,1,3.27,1.12c2.57,9.93-2.12,20.09.92,30,.79,11,8.08,17.08,16.83,22,3.45,1.95,8,2.51,9.2,7.34-.69,1.72-1.55,3.1-3.72,1.89-11.41.2-17.74-8.21-26-16-1,8.88-1.86,16.79-2.73,24.71h-1.11Z"/><path class="cls-73" d="M331.44,780.69l3.11-2.4c7.62-5.15,18.54-5.2,23.07-15.08,3.56-4.65,1.39-12.48,8.37-15.23-.27,3.69,3.84,4.73,4.69,7.74-4.83.91-4.36,5.74-6,8.77-3,5.48-6.24,11.15-12.25,12.69-13.18,3.37-13.9,11.44-11,22.65,3.56,13.8,6,27.89,9,41.86l-2.33-.12c-5-16.88-9.92-33.8-12-51.38C335.58,786.58,335.82,782.47,331.44,780.69Z"/><path class="cls-74" d="M420.15,862.36a25,25,0,0,0,2.55-3.48c1.47-2.91-3.2-7.49,1.27-9s5.8,4,7.75,6.63c5.73,7.59,12.5,15.35,7,26.14C430.6,877.66,424.13,871.16,420.15,862.36Z"/><path class="cls-4" d="M300.46,832.7a23.93,23.93,0,0,1,0-20.75Z"/><path class="cls-75" d="M264.65,516.67c1.71-11.32,7.4-14.58,17.27-8.17,3.28,2.14,6.58-2.41,9.5.7.14,3.64-2.13,6.33-3.64,9.33-3.7,7.35-4,14.41,2.1,20.8,2.34,2.46,4.68,5,6,8.14,3.11,7.3,6.7,8.83,13.41,3.08,5.66-4.85,13.87-2.1,20.69-4.4,5.68-1.92,11.61-3.09,17.37-4.86,8.11-2.48,14.76-.47,18.91,7.48-4,14.59-1.55,17,13.22,18.07,18.19,1.33,30.28-9.53,43.19-19.24,4.77-3.6,9.16-8.35,15.94-4.25l-11.35,11.57c-3.36,5.74-8.72,9.06-14.13,12,5.6-1.16,8.36-7.78,14.5-8.42,8.84-9.19,17.52-3.4,25.39,1.09C480,575,498.3,597.75,503.67,628.45c3.3,18.86-3.21,37.07-12.76,53.74L479.33,696c-6.84-5.94-.3-10.33,2.12-14.73,3-5.37,8.62-9.25,9.66-18.08-12.1,3.79-22.5,8.17-30.42,15.94-13.58,13.33-31.39,16.81-48.08,23.08a5.8,5.8,0,0,1-5.35-.89c3.61-11.64,5.56-23.68,20.78-27.58,8.52-2.18,7.06-13,10.09-20,8.86-10.49,16.18-21.16,13.74-36.38-3.13-19.63-23.8-31.9-40.16-22.9-7.9,4.35-8.48,6.93-1.83,12.56,5.46,4.62,5.83,8.68-.26,12.36-4.48,2.71-7.61,7.37-12.95,8.78-28.24-.5-56.11-3.21-82.71-13.65a19.53,19.53,0,0,1-9.51-7.59c-3.05-7.79.21-12.11,7.79-14.17-6.87,1.65-13.35,1.38-18.81-3.75-1.23-.63,2.75-2.87-1.38-3.16-20.06-1.42-34.08-14.6-48.92-26.11C252.09,546.28,256.28,530.43,264.65,516.67Z"/><path class="cls-76" d="M198.36,687.18a131.44,131.44,0,0,1-33.66-25.47c-3.93-6.2-9.73-11.19-12-18.46-2.21-7-2.25-13.77,2.7-19.82a13.33,13.33,0,0,1,7.48-8c30.11-14.19,59.92-29.19,93.19-34.94,15,1.83,29.12,7,43.47,11.18,8.66,2.54,1.63,9.8,3.4,14.52.32,6.6-4.12,10.13-8.71,13.56-6.13,4.6-9.73,10.39-8.54,18.4.35,3.25,2,6.68-1.32,9.41-5.25,4.81.92,9.63,0,14.45-9.69-8.44-21.92-4.28-32.87-6.3-7.26-1.33-12.2,5-16.54,10.25-5.8,7-12.57,11.49-21.77,12.91-7.85,1.21-15,2.56-19-6.7-.56-1.28-2.54-1.37-4.33.18,1,6.63,11.13,6.57,11.06,14,0,.29-.36.62-.62.86C199.77,687.78,199.11,687.72,198.36,687.18Z"/><path class="cls-77" d="M304.34,604.9c18.7,13.59,40.92,15.42,62.67,18.45,10.37,1.44,20.91,1.65,31.37,2.42,3.94,1.29,7,4.3,10.93,5.59,8.21,2.74,12.61,6.27,5.61,15-4.52,5.66,1,6.7,4.89,7.88,6.14,1.84,12.53-1.91,18.66.76.59,15.79-1.52,19.14-15.1,24-4.86,1.73-10.26,2.14-8.13,10.4,1.33,5.11-4.63,8-8.11,11.33-9.45,9-21.92,8-33.45,9.91-7,1.14-14.09-.55-21.15-.24-13.39-6.13-22.44-16.66-30.24-28.8-2.42-3.76-1.58-6.92-1.3-10.49,0-.51-.05-1-.08-1.55,0-1.9-.23-3.82-2-4.94-8.12-5.13-6.55-10.61-.64-16.24,5.47-5.21,4-9.1-2.39-11.68-6.22-2.49-9.15-6-5.75-12.84,1.65-3.34-.15-5.73-3.56-6.83-4.37-1.4-5.51-4.56-4.82-8.75C301.81,606.53,302.35,605.16,304.34,604.9Z"/><path class="cls-78" d="M352.53,710.4c1.88-3.21,5.06-3,8-2.79,16.05,1.2,31.29-2.93,46.57-6.88,15.7-7.2,34.24-7.25,47.54-20.87,8.71-8.91,20.69-13.66,32-18.88,2.45-1.14,5.21-2,7.43.11,2.53,2.37.45,4.86-.51,7.23-2,5-5.65,8.82-8.88,13S477,689.62,479.33,696c-14,19.52-34.46,27-56.95,29.38C397.67,728.05,373.63,725.61,352.53,710.4Z"/><path class="cls-79" d="M531.4,759.87c-10.73.08-20.48,5.09-30.95,6.26-9.74,1.08-19.36,8.15-29.39,1l-.66,2.15a176.25,176.25,0,0,1-1.47-54c1.28-9.94,13.32-15.29,20.67-22.48,1.82-1.78,6,2.17,8,4.84C512.07,716.66,525.09,736.44,531.4,759.87Z"/><path class="cls-80" d="M447.52,775.9c-14.46,10.36-30.39,16.79-48.28,17.36-4.68.15-2.65,3.51-3.61,5.46-5.41-20.31-5.28-40.82-2.82-61.53.69-5.81,2.94-7.94,8.61-7.25a94.4,94.4,0,0,0,11.29.47c15.89.06,20.2,2.82,25.59,17.59C441.66,757.19,444.47,766.59,447.52,775.9Z"/><path class="cls-81" d="M198.36,687.18c.12-6.7-6.56-6.45-9.86-9.65-1.81-1.75-5.1-2.75-4.19-5.93.79-2.79,4-3.24,6.37-4.21,2.53-1,5.34-1.3,7.08,1.43s-.71,9.35,4.78,8.65c6.52-.82,13.53-.42,19.59-3.92,1.63-.94,3.81-1.64,4.67-3.09,9.38-15.79,23.84-17.84,40.67-17.82,8.83,0,12.41,4.22,16.88,9.4l2.38,2.86c-2.41,7.71-10.1,11.84-12.93,19.35-1,2.77-4.21,5.33-3.86,8,1.37,10.58-6.39,9.36-12.49,10.48C236.53,702.22,217.43,694.74,198.36,687.18Z"/><path class="cls-82" d="M366,748c-2.87,5.22-2.19,11.82-6.41,16.51-12.9,1.23-19.19-5.23-23-22.45-.91-4.13,3.19-11.13-4.09-12-5.73-.69-8.84,4.51-11.11,9.57-2.8,6.21-8.11,9.58-14.34,11.7-3.14-10.85-1.43-21.61.63-32.35.65-12.2.89-24.56,13.28-31.84,10.93,14.33,23.76,26.34,40.85,32.95,4.25,1.64,5.53,4.19,5.06,8.65C366.21,735.1,366.25,741.55,366,748Z"/><path class="cls-83" d="M284.36,647.59c-.71-2.31-2.84-4.21-2.06-7,1.62-6.53,2.89-13.13,7.57-18.48,3.79-4.32,8.23-6.25,13.92-5.55,6.09.74,9.42,3.38,6.08,9.69-2.53,4.78-1.79,6.91,3.5,9.17,11.95,5.1,11.85,7.18.74,16.42-9.18.93-18.49,4.76-27.39-1.14Z"/><path class="cls-84" d="M257.45,702.76c5.75-1.6,8.16-4.49,10.09-11.14,3-10.44,9-20.57,19.19-26.72,5.72,3.38,8.82,10.14,16.26,11.37-9.95,17.38-23.89,26.58-43.18,27.13Z"/><path class="cls-85" d="M385.88,776.67c-7.21-13.3-17.53-25.61-14.48-42.29.55-3-3.81-10.16,4.35-8.27,5.39,1.25,14.34.55,12.67,10.67C386.24,749.92,387,763.14,385.88,776.67Z"/><path class="cls-86" d="M286.72,650.74l27-.21c-.22,5.31-2,11,5.45,13.55,2.77.95,4.2,4,1.64,7.15l.14-.12C307.74,678,293.34,669.39,286.72,650.74Z"/><path class="cls-87" d="M309.25,678.33c2.92,1.62,3.47,3.15.67,5.81-12.72,12.08-24.34,25.13-33.94,42.79-.31-6.06-.48-9.35-.65-12.64,0-6.13,2.17-10.47,8.26-13.08C294.61,696.51,299.79,685,309.25,678.33Z"/><path class="cls-88" d="M321,687.11c-8.46,8.93-8.41,21.41-13.28,31.84l-2.32,0c-4.8-6-.13-11.34,1.24-16.82,1.56-6.2,5-11.68,7.54-17.5l.3-3A9.17,9.17,0,0,1,321,687.11Z"/><path class="cls-89" d="M132.41,364.52,185,386.65c9.19,5.79,18.31,11.68,27.59,17.32,4.39,2.67,6,4.28,2.12,9.76-8.19,11.47-15.17,23.85-22.13,36.15a51,51,0,0,0-5.88,15.72c-1.32,7.21-4.7,8-10.46,5.33a140.77,140.77,0,0,1-23.83-1.32c-4.09-.65-8-1.34-10.8-4.78-16.86-1.54-33.73-4.19-50.6-4.28-12.66-.06-21.67-4.31-28.56-14.37-8.93-15.21-14.6-31.74-19.78-48.5-1.19-3.83-1.6-8.12-4.82-11.12-2.91-9-3.51-18.31-4.54-27.6-.86-7.84,1.11-14.07,8.71-17.62,2.41-1.17,4.83-2,7.6-1.3,25.35,6.94,51.19,12,76.1,20.55C128.19,361.44,130.75,362.22,132.41,364.52Z"/><path class="cls-90" d="M132.41,364.52C102.57,355.63,72.65,347,42,341.34l2.16-3.81c30.81,6.25,61.66,12.4,90.81,24.78Z"/><path class="cls-91" d="M488.7,427.72,472,440c-4.58-13.57-10.21-25.83-17.84-37-5.51-8.08,1.24-14.73,4.09-19.64C487,333.73,516,283.69,557,243.08c29.4-29.12,66.8-44.46,108.67-47.09,17.81-6.3,45.53,9.26,52.19,29.32,4.9,14.8,3.82,29.34-3.4,43-8,15.1-17.44,29.26-31.91,39.18-30.24,18.21-61.29,35-91.59,53.16S531,398,503.2,420C499,423.31,495.19,428.3,488.7,427.72Z"/><path class="cls-92" d="M479.91,282.84l10.82-16.32c29.95-41.33,64.78-78.08,103.42-111.3a40.35,40.35,0,0,0,3.67-4.13C618,133.74,640,118.78,661.47,103.14c17.7-9.68,35-20.18,53.21-28.84,23.34-11.11,47.37-20.75,71.1-31,7-2.06,14.42-2.31,21-5.88,16.81-1.16,32.66.43,46.32,12.22,12.11,10.44,15.58,25.95,7.68,40.1-2.32,4.31-6.55,6.14-10.65,8-40.85,18.73-79.82,41-118.48,63.77-2.81,1.66-5.4,4.42-9.25,3-3.4.81-5.42,4.62-10.17,2.88-31-11.42-58-.34-84.73,14.73-53.68,30.31-93.19,74.69-127.34,125-18.88,27.82-35.91,56.63-52.16,86-16-14.44-16-14.44-8.91-35.22A805.13,805.13,0,0,1,479.91,282.84Z"/><path class="cls-3" d="M680.66,307.2a170.6,170.6,0,0,0,27.32-33c19.49-30.7,11.31-74.23-37.88-77.35a34.07,34.07,0,0,1-4.41-.88c0-.75,0-1.5,0-2.24,6.9-4.75,14.37-2.91,21.52-1.32,18.33,4.09,32.35-3.68,45.08-15.55,2.54-1.5,5.15-2.61,8.12-1.22l2.29,1.9c-1.22,2-4.74,3.82-1.28,6.45,19.66,14.91,19.51,35.74,16.83,58.86a403.36,403.36,0,0,1,77-22c2.34-.73,4.92-2,4.94,2.29-26.16,7.08-52.79,12.53-78,22.92-3.11,1.28-6.65,1.57-8.64,4.77-16.72,26.75-44.43,40.07-69.26,56.91A2.56,2.56,0,0,1,680.66,307.2Z"/><path class="cls-36" d="M597.77,380.31c3.93,4.62,2.33,8.13-2.14,11.18-21.08,14.34-42.22,28.59-63.16,43.13q-19.37,13.44-38.19,27.67c-7.53,5.7-14,8.12-19.2-2.44-2.13.65-2.91-.2-2.56-2.31-1.58-13.3,8.92-18.92,16.64-26.31,11.46-12.31,25.83-20.73,41.05-26.59,19.19-7.4,37.76-16.29,57.2-23C590.63,380.51,593.88,377.09,597.77,380.31Z"/><path class="cls-55" d="M733.92,177.84c-.31,4.73-2.59,7.4-7.24,9.22-15,5.9-29.28,14.57-46.56,7.15-4.13-1.77-9.59-.39-14.44-.46-15.83-4.46-30,2.76-44.45,6.89-10.6,3-20.47,8.66-31,12.33,30.12-20.58,58.73-44.31,97.75-46.05,7.26-.33,14.13,1.75,21,3.37,4.55,1.06,8.86,1.85,12.79-1.52C727,170.23,732.53,171.26,733.92,177.84Z"/><path class="cls-93" d="M733.92,177.84c-2.76-4.74-9.93-3.56-12.12-9.07a5.34,5.34,0,0,0,.68-1.9c42.45-27.08,87-50.27,132.07-72.63,2-1,4-2.07,6.4-1.66,5.52-3.1,10.72-2.6,12.89,3.62,2.47,7.11-2.79,9.78-8.63,12-44.67,16.78-84,43.48-124.81,67.49Z"/><path class="cls-94" d="M597.77,380.31c-37.76,13.63-75.11,28.16-108.61,50.92l-.46-3.51c59.13-47.94,125.91-83.65,192-120.52l3.68.59c-30.08,20-62.38,36.32-93.19,55.1-17.68,10.77-34.91,22.3-52.33,33.48a5.16,5.16,0,0,1-3.13,2.51,7,7,0,0,0,5.42-.28c19.2-8,37.83-17.42,57.88-23.31,2.22-.83,3.27-.08,3.11,2.31Z"/><path class="cls-95" d="M466.55,438.81c-.71,3,.11,7-4.79,7.27-4.46-1.1-5-5.26-6.54-8.56-10.84-23.33-27.5-40.17-52.61-47.66-2.91-.86-5.88-1.68-6.73-5.22-1.17-3.33-5.58-6.62-3-9.87,2.35-2.92,6.88-1.42,10.34.16,4.73,2.14,9.15,2.12,13.14-1.62C442.57,387.87,458.16,410.57,466.55,438.81Z"/><path class="cls-96" d="M861,92.58c-40.38,20.74-80.4,42.14-119.81,64.68-6,3.45-10.74,9.79-18.66,9.61l-.11-2.41A1142.38,1142.38,0,0,1,860.75,89.72C860.82,90.68,860.89,91.63,861,92.58Z"/><path class="cls-97" d="M472.52,457.54l2.56,2.31c1.81,8,.88,16.19.6,24.29-.14,4,.34,6.06,4.62,3.25,5.32-4.24,11.06-6,17.6-3l11.28-1.72c2.51-2.09,5.42-2.39,8.51-2,2.94.77,5.85,1.59,7.7,4.31-13.84,2.14-27.68,4.23-41.5,6.48-3.62.59-7.16,1.68-10.73,2.54l-2.92-.24c.76-12.06,3.59-24.08.77-36.22Z"/><path class="cls-32" d="M171.4,473.16c18.83.56,11.4,15.63,13.86,25.22,6.64,8.24,3.93,19.66,9.74,28.34,2.45,3.65,4,8,6.92,11.45,4.81,11,13.15,17.89,24.43,21.72,8.32,2.82,14.6,9.07,21.53,14.15,2.68,2,5.33,5,.61,8-28.24,9-55.87,19.42-82.22,33.08-4.91,2.54-9.83,5-15.31,6.11-6.66-.71-13-2.32-18.21-6.87-12.75-19.17-21-40.48-29.3-61.76C95,528.91,86.86,505.13,76.14,482.34c.33-16.61,1.56-18,18.07-17.54,14.17.43,28.32,1.48,42.47,2.26C148.36,468.46,160.52,467.16,171.4,473.16Z"/><path class="cls-98" d="M171.4,473.16c-11.69-1.37-23.36-2.87-34.72-6.1l4.9-2.23c11.61,1.64,23.45,2,34.63,6.1Z"/><path class="cls-68" d="M488.32,828.76c5.16-27.66,26.57-25.18,45-11.5,6.76,5,14.37,9.66,18.64,17.56.68,14.59.51,29.11-3.56,43.31-5.42,8.06-11.82,7.48-18.76,2.15,3.24-12.22-3.83-19.71-12.19-27.33-3,4.81,1.2,11.14-4.15,14.56C501.59,856.76,494.09,843.32,488.32,828.76Z"/><path class="cls-99" d="M513.26,867.51c.15-2.62-.08-5.33.53-7.84,1-4-4.6-9.32,0-11.22,5-2.05,7.71,4.56,10.89,7.74,10,10,11.11,16.65,4.9,24.09C522.43,878.24,517.33,873.53,513.26,867.51Z"/><path class="cls-100" d="M151,621.23a436.81,436.81,0,0,1,97.56-40.56c2.37.68,5.38-.76,7.1,2.11-35.07,9.43-68.68,22.5-100.23,40.65C154.48,621.54,152.63,621.57,151,621.23Z"/><path class="cls-101" d="M300.31,357.39c5.35.83,10.67,1.81,16,2.45,4.73.58,4.62,3.74,4.31,7.19-11-3.47-22.83-1.12-33.75-5C290.83,358.9,295.51,358,300.31,357.39Z"/><path class="cls-102" d="M652.06,603.22c0,.82-.08,1.63-.13,2.44l-81.56-22.84c-11.87-2-24.43-1.45-34.47-9.84.53-2.28,1.88-3,4.07-2.18C578.14,578.81,615.17,590.78,652.06,603.22Z"/><path class="cls-103" d="M540,570.8l-3.55,2.25c-3.54,2.43-7.29,1.2-10.84.32-18.9-4.71-37.83-9.31-57-12.75-3.65-.65-7.48-1.42-9.28-5.44,0-.74,0-1.47,0-2.2C486.79,556.24,513.91,561.13,540,570.8Z"/><path class="cls-104" d="M606,477.59a6.48,6.48,0,0,1,1.12-1.71c2.06-2.05,4.22-2.06,6.46-.3,29.45-.16,58.91-1.14,88.35.52-7.4,6.11-15.74,2.18-23.71,2.22L608.94,480C607.9,479.22,606.41,479.06,606,477.59Z"/><path class="cls-105" d="M570.46,477.83l2.32.62c8.42,2.33,17.35-1.35,25.67,2.19-16.43,1.93-32.94,2-49.44,2.07-3.73.4-7.82,3.12-10.77-1.64,3.56-5.37,9.92-3.1,14.6-5.44C558.88,475,565.06,473.31,570.46,477.83Z"/><path class="cls-106" d="M678.17,478.32c7.79-1.9,16.11,1.8,23.71-2.22l2.32-.61c9.72-5.18,18.73-3.78,27.17,2.93-2.66,3-6.46,1-9.53,2.18C707.26,480.4,692.64,480.7,678.17,478.32Z"/><path class="cls-107" d="M538.68,480.52c2.94,3.09,6.84,1.67,10.33,2.2-7.74,2.13-15.66,2.4-23.62,2.25-2.39-.57-5.15.18-7.09-2,4.9-4.87,11.26-4.07,17.32-4.44A5.39,5.39,0,0,1,538.68,480.52Z"/><path class="cls-108" d="M598.45,480.64c-8.47-1.78-17.4,1.85-25.67-2.19l33.17-.86,3,2.37Z"/><path class="cls-109" d="M602.1,377.6,599,375.29c36.87-14.68,74.09-28.16,113.58-34.05,2.54.65,5.49-.08,7.51,2.27-5.67,6-13.65,5.67-20.77,7-12.75,2.35-24.76,8.59-38.16,7.44Z"/><path class="cls-110" d="M840.23,223.19l-4.94-2.29c13.47-4.46,27.67-5.23,41.42-8.28,2,2.19,4.76,1.46,7.21,1.95C869.72,219.31,855,221.3,840.23,223.19Z"/><path class="cls-111" d="M541.11,398.6c-3.16,2.34-6.38,4.48-10.91,3.86,2.11-3.55,5.37-4.81,8.62-6.09Z"/><path class="cls-36" d="M536.45,479.88,518.3,483l-9.12-.32q39.59-31.82,79.14-63.68c8.45-6.85,16.64-14.05,24.78-21.29,11.72-10.41,43.83-6.47,52.55,6.4,2.26,3.32,1.68,5.26-1.28,7.5-24.29,18.35-47.22,38.36-70,58.45-7.12,6.27-17.39.78-23.86,7.79l-16.91.42C547.94,479.67,541.91,476.8,536.45,479.88Z"/><path class="cls-36" d="M613.53,475.58l-6.46.3c-5.38-1.25-6.47-3.56-1.82-7.31C626.85,451.14,649.38,434.9,669,415c6.18-6.26,15.7-3.27,23.72-1.72C701.82,415,709,421,716.51,425.81c7.75,5,7,11-.23,16.05-13.23,9.24-26.66,18.19-38.39,29.39-3.11,2.95-7,2.16-10.75,2.18-14.32.05-28.63-.05-42.94.08C620.58,473.54,616.58,472.29,613.53,475.58Z"/><path class="cls-36" d="M731.37,478.42l-27.17-2.93c-4.56-4.08-10.23-.84-16-2.65,12.62-12.43,27.72-20.93,41.43-31.22,2.18-1.64,5.63-1.83,8.56-2.2,11.34-1.47,22.35,2,33.56,2.73,9.23.62,10.28,5.52,4.19,12.87-6.53,7.88-17.37,12.84-17.27,25.29C749.5,480.56,740.61,477,731.37,478.42Z"/><path class="cls-36" d="M661.15,357.93c19-7.66,39.07-10.52,58.93-14.42,7.56-.77,15-2.85,22.7-1.75-9.25,24.78-40.32,38.07-63.09,25.7C673.59,364.15,663.28,368.61,661.15,357.93Z"/><path class="cls-36" d="M857.31,363.65c-2.45,3-5,6.23-7.71,9.3-10.73,12.05-21.29,24.26-32.42,35.94-5.44,5.71-24.81,1.06-27.36-6-1-2.84,1.3-4.22,2.89-5.49,15.85-12.6,32.08-24.69,49.47-35.14a18.36,18.36,0,0,1,12-2.34C856.11,360.15,857.83,360.73,857.31,363.65Z"/><path class="cls-36" d="M712.15,391.73c12.36,1.73,26.8,5,39.64,13.48,5.86,3.86,5.89,7-.38,10.58-11.93,6.83-47.42-2.47-54.29-14.33-1.3-2.26-1.55-3.95.1-6.08C700.51,391.18,705.06,391.55,712.15,391.73Z"/><path class="cls-36" d="M785.87,484.33c-4.24,1.55-7.53-1.66-11.33-2.31,12.17-12,19.92-28,34.69-37.59,2.2-1.43,4.32-3.15,6.73-4,3.95-1.47,8.63-2.52,11.36,1.55,3,4.52-1.91,6.87-4.43,9-8.34,6.93-15.76,15-25.43,20.32C792.25,474.11,787.33,477.84,785.87,484.33Z"/><path class="cls-36" d="M808.4,485.19l-11.25-.84c-.27-1.58-4.22-1.7-2-4,12.66-13.5,30.49-20.17,43.74-33,2-1.94,6.08-2.26,7.59,1.48,1.7,4.25-1,6.59-4.39,9.08C830.41,466.43,816.86,472.68,808.4,485.19Z"/><path class="cls-36" d="M497.9,484.38l-17.6,3c-2.48-6.16-.68-9.51,5.51-12.83,11.5-6.16,22.15-13.92,33.29-20.78,3.32-2,7.12-3.32,13.46-6.19C520.23,462.08,506,470.37,497.9,484.38Z"/><path class="cls-36" d="M667.1,389.36c6.1-2.88,9.88-3.27,13,.52.45.55.21,2.61-.24,2.81C675.51,394.65,672.47,391.6,667.1,389.36Z"/><path class="cls-112" d="M629.39,605.28c18.25,10.69,38.6,17.55,55.4,30.93,3.82,3,7.92,5.58,10.38,10-16.75-5.81-34.47-7-51.62-10.84-6.67-1.51-11.67,2.49-16.61,5.71-9.05,5.9-17.71,12.4-28.08,17.12l30.82-35.66c-10-2.74-16.58,3.3-24.41,3.68-22.17,1-44,5.56-65.4,11.73-6.77,1.94-6.27,5.55-2.36,11,2.39,3.28,9.55,2.17,7.85,8.75C536.86,653,527.89,649,520,643.46c-5.48-3.87-10.32-8.5-11.75-16.68-2.39-13.63-8.46-26.25-16.65-37.64,2.16-2.79,4.58-4.44,8.5-4.4C544.25,585.17,587.59,590.32,629.39,605.28Z"/><path class="cls-113" d="M459.29,555.18l77.13,17.87,34,9.77c-2.34,2.73-5.67,2.61-8.32,1.65-19.43-7.05-40.09-1.86-59.78-6.35a17,17,0,0,0-15.57,4.35c-8.48-9.57-18.48-17.4-28.67-25a1,1,0,0,1-.2-.91A11.09,11.09,0,0,1,459.29,555.18Z"/><path class="cls-114" d="M611.51,696.08c18.51,5.19,33.72,25.41,33.41,44.42-.18,11.35-7.89,20-20.61,23.72-18.22,5.31-35,1.72-50.79-8-6.41-3.93-12.58-8.25-18.86-12.4-5.69-3.22-11.85-6.06-11.61-14.17,3.84-4,8.47-4,13.6-3.31,9,1.19,11.16-1.76,7.86-9.94-.43-1-1.13-2-1.62-3-1.44-3.05-3.72-6.43-.62-9.37,3.83-3.6,6.87.24,10,2,2.59,1.52,4.73,3.76,8.06,4.94C586.7,698,598.27,695.25,611.51,696.08Z"/><path class="cls-115" d="M611.51,696.08l-22.15,7c-3.19,1-5.49,2.64-4.2,6.51.72,2.18,1.71,4.65-.62,6.11-2.73,1.7-4.81-.46-6.92-2.1-4.32-3.36-8.78-6.54-13.73-10.2-2.52,6.2,2,8.93,3.9,12.53s3.78,7.21.09,11.27c-3.2,3.52-6.22,5.14-10.58,2.24-5.3-3.51-10.08.69-15.12,1.18-7.27.62-8.38-6.45-11.74-10.18-8.44-9.34-17-18.85-21.2-31.17-16.39-15.86-.93-31.06,1.13-47.74C542.47,663.38,576.67,680.34,611.51,696.08Z"/><path class="cls-73" d="M509.24,689.31c10.6,14.08,19.07,29.88,32.94,41.35l12.48,13.2-2.26,2c-18.69-15.06-33.35-33.48-45-54.4Z"/><path class="cls-116" d="M427.66,558.54C422,565,415.49,569.9,403.54,571.66l23.75-16.74C427.41,556.13,427.53,557.33,427.66,558.54Z"/><path class="cls-117" d="M320.82,391.59a6,6,0,0,1,1.91.49c-7.24,21.93-25.2,33.41-43.56,44.22-6.71,3.95-14.23,6.51-21.38,9.7-.77-1.52-1.53-3.05-2.29-4.57a19.2,19.2,0,0,1,8.22-5.37c21-8.07,36.93-22.45,49.58-40.73C315.27,392.48,316.38,389,320.82,391.59Z"/><path class="cls-118" d="M236.76,428.35c15.38,8,18,23.64,22.81,38,4.3,12.73,3.5,25.85,2.86,38.95.86,18.53-4.59,34.92-17.25,48.51-9,9.62-13.18,10-24.93,4.36-8.13-3.92-14-10.09-18.25-17.9-7.92-11.1-14.19-22.79-13.15-37.08,30.75,2.25,52.62-26.6,46.83-61.52C235,437.27,231.06,432.32,236.76,428.35Z"/><path class="cls-119" d="M236.76,428.35c-1.87,3.91.42,7.34,1.37,10.87,6.3,23.68-8.61,58-29.23,66.37-6.67,2.72-13.76,4.78-19.12-2.89-4-3.15.32-8-2.4-11.44,1-11.69-.23-23.78,6.33-34.44,4.66,2.88,4.07,12.76,12.52,10.22,6.59-2,9.61-7.89,11.48-14.13,2.43-8.11-1.83-12.56-8.77-15.49-1-.41-1.46-1.63-1.8-2.71C217.93,423.12,226.46,421.29,236.76,428.35Z"/><path class="cls-120" d="M202.46,539.49c2.78,3.06,5.42,6.28,8.36,9.18,18,17.74,30.23,12.48,41.67-7.71,6.11-10.8,9-23.12,9.94-35.69.68,0,1.35,0,2,0q.09,5.72.19,11.41c-4.18,15.73-8.1,31.59-21.17,42.91-.84,3.14-2.69,4.33-4.62,3.56,15.38,12.11,35,17.85,54.41,24.25,7.47,3.57,15.61,3.72,24.1,5-7.36,1.33-12.15,5-13,12.48l-1.92,2.65c-.56,1.05-1.11,1-1.67,0,3.16-11.29-.77-15.63-12.76-16.61-10.94-.89-21.59-5.3-32.37-8.16-2.41-.55-5.18.12-7.1-2.11-4.73-9.2-13.57-14.37-22.2-17.41-12.64-4.46-20.64-12.56-26.78-23.6A1.76,1.76,0,0,1,202.46,539.49Z"/><path class="cls-121" d="M207.14,434.71c5.07,3.18,14.06.41,14.35,10.93s-4.09,18.36-11.92,24-13.64.42-15.86-12.79C195.72,448,202.54,442,207.14,434.71Z"/><path class="cls-122" d="M202.46,539.49l-2.92.17c-10.22-11.86-12.77-26.39-14.28-41.28,2.26-1.91,1.54-4.71,2.12-7.12l2.4,11.45C190.13,516.31,196.39,527.86,202.46,539.49Z"/><path class="cls-53" d="M220.74,413.51c.35,3.47,2.32,5.32,5.71,5.77l-11.34,3.43C215.2,417.89,218.23,415.85,220.74,413.51Z"/><path class="cls-123" d="M395.88,384.64c33.41,8.16,54.54,29.53,65.88,61.44,3.85,14.9,3.14,30.12,1.66,45.07-2.78,28.05-26.71,40.26-54.53,28.66-20.52-8.55-34.34-24.33-44.28-43.4-9.13-17.51-14.09-36.15-12.61-56.53,1.62-22.22,15.76-36,38.24-35.11C392.12,384.84,394,384.69,395.88,384.64Z"/><path class="cls-124" d="M366.29,548.77c-7.48-5.13-14.75-6.82-24-3.11-7.83,3.13-16.48,5.49-25.39,4.84-3.05-.22-5.91.08-7.66,3.45-5.06,9.73-10.12,5.52-13.74-.83a89.57,89.57,0,0,0-9.59-13.73c-6.91-8.17-4.81-18,5.54-30.19,17.5-11.74,36.43-15.91,57.1-10.86,15.7,3.83,20.69,10.64,20.61,26.64,0,4.43,1.63,8.87,2.61,13.29C372.88,543.35,372,547.28,366.29,548.77Z"/><path class="cls-125" d="M314.14,684.68c1.26,8.47-5.15,14.7-6.5,22.39-.7,4-3.25,7.63-2.28,11.93-4.52,3.86-1.16,10.13-4.36,14.4-2.94-3.12-6.62-3.09-10.07-1.64-4.86,2-7.74-.44-10.56-3.65C288,710.84,300.92,697.62,314.14,684.68Z"/><path class="cls-67" d="M307.05,751.3c6.72-5.67,12.06-12,15.8-20.38,1.57-3.52,9.62-5.75,14.6-5.54,3.14.14,1.47,6.61,1.56,10.21.37,14.48,8.1,25.54,20.57,28.9-5.27,10.22-14,14.07-25,13.8C322.29,772.45,308.15,768.55,307.05,751.3Z"/><path class="cls-126" d="M438.47,655a30.21,30.21,0,0,1-23.08,1.31c-6.94-2.29-8.63-6.62-2.93-11.48,7.65-6.52,4.05-8.57-3-10.49-4.76-1.29-9.44-3.08-11.06-8.61,3-6.12,9.52-8.16,17.16-13.15-2.61-1.12-4.15-1.47-5.28-2.33-3.66-2.79-10.61-3.36-9.43-9.69,1-5.56,6.89-7.81,11.58-9.93,12.37-5.59,29.75-.06,36.75,11.65C458.54,618,459.62,639.84,438.47,655Z"/><path class="cls-127" d="M293.27,587.39c-21.14-2.17-40.19-9.42-56.69-23.62,1.07-3.16,4.85-2.39,6.9-4.19a60.36,60.36,0,0,1,15.33,8.67c9.94,7.92,21.13,13.6,33.79,16C294.48,584.61,299.4,585,293.27,587.39Z"/><path class="cls-4" d="M300.75,607.55h1.67c.73,2-.24,4.67,2.09,6.13,11,6.91,11,6.9,5.9,17.65,2.07.87,4.12,1.72,6.16,2.6,11.4,5,12.22,7.67,3.34,16.82-5,5.14-7,8.11,1.15,11.81,4.59,2.08,6.1,5.93-.21,8.67,0-2.58-.05-5.25-3.08-6.28-8.47-2.85-7.55-8.25-4-14.42l7.29-8.32c-1.66-3.42-5.07-3.6-7.78-4.18-7.18-1.54-10-4.68-5.5-11.51,4.65-7.13.27-8.3-5.52-8.4-10.63-.18-13.17,8.55-16.75,15.82-1.08,2.19-.22,5.33-3.2,6.69-1.18-10.83,2.62-19.29,12.42-24.25C298.69,614.37,299.78,611.2,300.75,607.55Z"/><path class="cls-31" d="M536.45,479.88c5.17-6.1,11.23-2.78,17.1-1.63-4.61,3-10,.84-14.87,2.27Z"/><path class="cls-128" d="M379.49,389.2c9.56-3.51,18.54.27,27,3.35,42.17,15.33,61,58.52,53.3,99.74-4.71,25.07-24.72,33.53-49.53,23.39-23.46-9.6-37.48-28.26-46.83-51,3.64-6,8.54-2.93,12.95-1.58,23.41,7.19,39.38-6.86,35.6-31.08-2.46-15.77-8.54-28.65-23.81-35.82C384.91,394.61,381.61,392.49,379.49,389.2Z"/><path class="cls-129" d="M379.49,389.2c29.1,8.54,40.9,35.5,34.06,61.4-3.86,14.6-19.93,22.13-34.18,16.82-5.14-1.92-9.92-5.83-15.92-2.79-8.38-17.62-9.81-36.08-5.45-54.82C360.58,398.73,368.49,392.05,379.49,389.2Z"/><path class="cls-130" d="M330,501a61.44,61.44,0,0,1,25.31,4.15c12.11,4.86,14.48,14.06,5.77,23.94-14.43,16.34-33.72,18-53.72,16.43-4.41-.35-9.11-1-13-2.92-9.54-4.59-11.08-13-5-23.26,8.9,9.37,19.07,8.89,29.94,4.08C331.37,518,333.67,513.39,330,501Z"/><path class="cls-131" d="M330,501c8.81,8.87,8.9,12.06-.74,19.65-8.83,7-19,10.74-30.36,8.48-4.73-.94-9.07-3.89-9.56-9.79C299.28,505.1,313.79,501.12,330,501Z"/><path class="cls-132" d="M366.18,530.7c-.91,5.91,3.82,9.55-1,12.59-1,.64-4.94-1-5.48-2.35C357.92,536.28,363,535.56,366.18,530.7Z"/><path class="cls-133" d="M301.93,555.53c-2.39-.66-3.25-2.82-3.58-4.94-.53-3.35,2.07-2.17,3.51-1.82,1.76.43,5.1-.38,4,3.36C305.3,553.81,304.44,555.64,301.93,555.53Z"/><path class="cls-134" d="M432.2,595.75c14.15,4.63,22.32,19.07,19.65,34.75-2.08,12.26-14.21,23.11-25.68,23-10-.12-12-3-6.86-11.1,4.8-7.53-2.41-8.65-5.56-12,.21-1.11.45-2.56,1.34-3C428.56,621,433,609.84,432.2,595.75Z"/><path class="cls-135" d="M432.2,595.75c3.64,16.08,7.59,21.43-18.45,34.6-3.72-.49-8.38-1-8.88-5.09-.44-3.63,4.26-4.74,7.12-6.2,6.67-3.41,7-6.74.94-11.31-3-2.24-9.64-3.45-7.44-7.91,2.09-4.26,7.68-6.92,13.56-6.39C423.51,593.85,428.08,593.44,432.2,595.75Z"/><path class="cls-136" d="M388.79,420.75c0,5.64.42,8-.08,10.16-1.37,5.79-4.61,10.37-10.42,12.36s-9.15-1.95-12.54-5.59c-5.26-5.64-6.72-12.6-6.05-19.93.7-7.66,3.54-13.87,12.51-14.91,9.41-1.08,14,3.83,15.83,12.32A37.58,37.58,0,0,1,388.79,420.75Z"/></g></g></svg>