<svg xmlns="http://www.w3.org/2000/svg" viewBox="0 0 750.77 956.88"><defs><style>.cls-1{fill:#060404;}.cls-2{fill:#0a0908;}.cls-3{fill:#0d0909;}.cls-4{fill:#090909;}.cls-5{fill:#211d19;}.cls-6{fill:#1d1c1c;}.cls-7{fill:#1c1c1c;}.cls-8{fill:#e0a9c4;}.cls-9{fill:#2c2c2d;}.cls-10{fill:#36282e;}.cls-11{fill:#ceccd6;}.cls-12{fill:#464645;}.cls-13{fill:#29231e;}.cls-14{fill:#af8658;}.cls-15{fill:#ac8356;}.cls-16{fill:#ab8154;}.cls-17{fill:#b78f61;}.cls-18{fill:#ae8557;}.cls-19{fill:#956e51;}.cls-20{fill:#987255;}.cls-21{fill:#b7b7c6;}.cls-22{fill:#ac7187;}.cls-23{fill:#966f52;}.cls-24{fill:#c8a57a;}.cls-25{fill:#ba9264;}.cls-26{fill:#c6a378;}.cls-27{fill:#dcdae1;}.cls-28{fill:#a97f54;}.cls-29{fill:#ba9365;}.cls-30{fill:#c6a277;}.cls-31{fill:#b49376;}.cls-32{fill:#c5a175;}.cls-33{fill:#ac886b;}.cls-34{fill:#c09b6d;}.cls-35{fill:#ad8a6c;}.cls-36{fill:#b3768d;}.cls-37{fill:#c5a276;}.cls-38{fill:#ae7289;}.cls-39{fill:#b3768e;}.cls-40{fill:#b29174;}.cls-41{fill:#c39f75;}.cls-42{fill:#b48f69;}.cls-43{fill:#d28aac;}.cls-44{fill:#cac9d3;}.cls-45{fill:#ad7188;}.cls-46{fill:#120c0c;}.cls-47{fill:#d289ab;}.cls-48{fill:#b1758c;}.cls-49{fill:#c883a2;}.cls-50{fill:#c782a0;}.cls-51{fill:#daa7c0;}.cls-52{fill:#b67891;}.cls-53{fill:#e0adc6;}.cls-54{fill:#cf86a8;}.cls-55{fill:#aa6f85;}.cls-56{fill:#c4829f;}.cls-57{fill:#b2758d;}.cls-58{fill:#c8a579;}.cls-59{fill:#f6f5f6;}.cls-60{fill:#bb9466;}.cls-61{fill:#d38aad;}.cls-62{fill:#bf7e99;}.cls-63{fill:#bc9566;}.cls-64{fill:#070304;}.cls-65{fill:#080505;}.cls-66{fill:#dcc4aa;}.cls-67{fill:#0a0706;}.cls-68{fill:#e5bbd0;}.cls-69{fill:#f5f4f5;}.cls-70{fill:#3a2f2d;}.cls-71{fill:#af738a;}.cls-72{fill:#ebeaeb;}.cls-73{fill:#3c312f;}.cls-74{fill:#e1b0c8;}</style></defs><title>Recurso 19</title><g id="Capa_2" data-name="Capa 2"><g id="Capa_1-2" data-name="Capa 1"><path class="cls-1" d="M54.82,508.15c5.47-3.08,11-6.24,17.62-4.88,3.09.63,4.6-1,6.26-3.29,5-6.84,10-13.73,15.58-20.16,4.3-5,4-8.92-.77-13.23-15.68-14.19-28.3-31-39.83-48.57-11.85-18.06-21.4-37.5-22.94-59.24C29.3,338.5,21.33,321.5,10.3,305.3c-.84-2.28.65-2.88,2.37-3.3,4.68.43,7,4.11,9.07,7.44,15.91,25.33,41,37.15,67.76,46.5,3.15,1.1,6.52,1.55,8.13,5a3.32,3.32,0,0,1-1.06,3.07c-10.41,3.13-19.28-2-28.4-5.51-4.1-1.56-7.92-3.84-11.84-5.83s-7.61-4.52-11.4-6.82c-2.4-1.45-4.82-4.88-7.69-3-3.4,2.2-1.22,6.11-.68,9.22a178,178,0,0,0,26.18,66.67c9.27,14.29,19.55,27.8,32.14,39.41,25.57,25.12,55.36,42.61,90.52,50.45,10.08,2.25,20.18,4.47,30.1,7.34,32.85,9.49,64.31,1.46,95.7-7.45,25.95-6.85,48.24-20.39,68.48-37.66,23.12-20.8,39.68-46.08,51.08-74.9,2.33-8,7.74-14.79,8.83-23.25,6.15-21.58,7.28-43.54,5.21-65.77,1.49-5.13-2.83-12.39,5.47-15,6.78,8.71,4.33,19.29,4.64,28.82,1.2,36.35-10.73,69.66-26.92,101.48-12.9,25.34-31.72,46.13-53.89,63.55-11.23,8.83-23.86,16-36.29,23.1-4.3,2.46-4.61,4.21-2.93,8.29,12.6,30.54,12.89,61-.88,91.34-4.6,10.16-6.94,19,1.29,30.58,9.1,12.81,10.83,29.73,7.38,46-1.45,6.84-.57,11.37,6.42,15.07,17.89,9.46,26.17,26.42,32.15,44.72,2.12,6.47,4.21,11,12.64,12.59,12.68,2.46,24.41,8.72,31.29,20.84,1.86,3.28,4,3.58,7.25,3.2a79.38,79.38,0,0,1,51,10.66c4.06,2.42,6.25.36,8.41-2.23C506,773,541.23,770.39,559.43,782c8.09,5.15,12.39,4.44,17.64-4.27,10.82-18,28.23-20.64,47.55-18,14,1.94,14,1.49,9.64-11.33-5.56-16.43.22-30.73,9.38-43.76a211.22,211.22,0,0,1,22.68-27.25c21-21.21,32.3-47.24,39.22-75.68.32-1.33-.46-4,2.55-3.72,3.52.67,4.1,3.44,4.53,6.32-.23,14.18-7.66,25.93-13.59,38-6.14,12.46-13.26,24.54-22.59,35.05a35.93,35.93,0,0,1-3.13,3.82c-9.42,8.89-17.15,19.11-24.49,29.79-16.4,23.9-2.32,68.43,30.24,72.07,5.21,1.58,12.45-2.94,15.47,5.17l-17.1,3.09c8.74,16.38,11.93,33,5.17,50.34-1.05,2.69.9,4,2.1,5.78,6.8,9.87,6.09,19.62-1.3,28.64s-17.67,12.57-28.8,8.94c-6.24-2-11-1.83-16.34,1.55-8.71,5.53-18.43,4.93-28,3.43-5.4-.86-7.39-.13-8.43,6C599,912.86,590.2,919,572.63,918c-1.78-.09-4-.27-5.33.62-18.13,12.2-37.82,10.2-57.69,6.54-3.38,22.33-17.73,32.75-39.78,28-6.11-1.31-10.71,1.73-16,2.57-28.21,4.46-52.38-4.76-73.47-22.54a26.51,26.51,0,0,0-23.46-6.09c-23.39,4.68-42.63-4.66-61.23-16.59-3.13-2-5.64-3.91-9.68-4.24-17.91-1.49-29.14-15.24-25.88-32.72,1.14-6.13-1.16-7-5.49-8-12.17-2.87-24.58-5.06-34.11-14.39-2-2-4.93-3.26-8.19-1.89C199.92,854.6,191.46,848,184.77,839c-8-10.76-12.68-22.6-5.77-36.09,6.76-13.21,2.38-27.3-10.42-33.93A84.81,84.81,0,0,1,153,758.5c-7.82-6.55-15.43-12.22-27.12-12.63C107,745.21,94.43,720,103.53,704c3.62,3.19,2.83,8,4.35,11.92.78,4,1.61,7.94,4.29,11.19,3.56,4.82,8.37,8,14.19,10.5-1.26-5.84-4.17-10.68-7.1-15.5-3.1-5.45-3.72-11.75-6-17.46-.91-4.18-2.33-8.1-5.55-11.14-.41-.56-1.19-1.61-1.18-1.62,12-9.16,6.07-23.82,10.75-35.25,3.67-9-6.71-11.1-9.33-17.1-.83-2.12.46-2.94,2.13-3.53,12.74,4.95,21.71,16,34.48,21.11,5.76,2.31,11.24,5.38,17.27,7.12,6.65,2.45,13.41,4.58,20.23,6.53,37,7.74,72.37,5,104.52-17.1,29-17.78,42.61-45.22,48.52-77.5a44.08,44.08,0,0,0-.26-21.59,43.54,43.54,0,0,1-.9-8.67c.2-6.81-2.14-13.1-4.1-19.45-2.45-8-7.7-10.54-15.41-7.19-9.54,4.15-19.49,6.22-29.74,8.14-56.17,10.55-107.58-1.76-155.83-30.83-7-4.19-14.1-8.1-21.08-12.23-3.7-1.52-6.44.24-8.87,2.72-27,27.59-37.35,71.36-18.73,104.9,5.46,9.85,13.37,18.58,15.54,30.18-.8,1.7-1.85,2.93-4,2-12.24-9.73-17.34-24-23.61-37.52-1.73-3.73-2.3-6.79-7.42-8.05-19.06-4.72-30-26.94-23.27-46,6.66,1.85,3.33,8.53,6,12.32,2.71,7.53,4.39,15.58,10.67,21.32,1.33,1.21,2.73,2.85,4.72,2.1s1.92-2.88,2-4.68c.26-6.21-.21-12.44.31-18.66,1.63-10.21,3.44-20.38,6.82-30.16,1-3.08-.68-3.89-3.31-3.73s-5,1.17-7.58.49C55.49,510.94,54.32,510.08,54.82,508.15Z"/><path class="cls-2" d="M450.27,291.91c-4.43,4.85-1.11,10.94-2.61,16.26-5.31-1.6-4.34-6.25-4.71-10.08-4-41.32-18.39-78-46.81-108.84-10-10.87-19.2-22.42-31.69-30.53-2,.33-2.11,1.86-2.28,3.28-2,17.29-10.65,24-28.31,22.52-11.79-1-23.34-3.48-35-5.22-7.63.34-14.38-3.1-21.5-5-13.85-3.67-27.66-7.46-39.93-15.33-6.57-4.2-12.39-9.1-16.73-15.72-3.13-4.79-3.38-9.29-.69-14.46,4.93-9.45,4.74-9.55-6.71-9.82-4.35-.72-9.95,1.59-11.86-5,8.42-.77,16.89-2.52,25.25-2.08,10,.53,16.65-4,20.67-11.87,5.58-10.86,13.53-19.16,23-26.3,2.18-.38,2.86,1,3.14,2.75-7.52,16-20.66,27.71-31.81,40.84-16.77,19.76-15.87,26.83,8,37.43,16,7.11,33.11,10.18,50.27,12.89,11.1,2.7,22.15,5.41,33.69,5.7,15.54.39,16.95-.68,18.26-16.1a31.79,31.79,0,0,1,.87-5.47c1.54-2.94,1.41-7.48,6.58-7,12.65,9.9,25.94,19.09,37.79,29.88,15.93,14.51,27,33.26,35.79,52.47C442.21,247.48,447.23,269.6,450.27,291.91Z"/><path class="cls-3" d="M12.36,303.11,10.3,305.3c-21-35.94-9.54-68.5,30.69-82.2,4-1.36,6.6-3,8.81-7.12,3.79-7,9.14-13.23,13.84-19.78,2.08-.6,2.87.67,3.38,2.34-3.95,17.23-3.95,17.3,14.27,17.52,4.81.06,9.28,1.38,13.8,2.71,15.55,3.66,30.78,8.12,44,17.66,6.49,6.22,15.28,9.41,21.35,16.19,3.59,5.39,11.87,7.87,10.29,16.49-3.59,2.37-5.83-.68-8.48-2.1-4.19-3.8-7.27-8.81-12.51-11.46-23-17.34-48.69-27.62-77.5-29-25.18-1.16-46.61,6.13-59.64,29.8a43.18,43.18,0,0,0-2.68,6.11c-1.77,10.56-2,21,2,31.18C13,296.69,14.33,299.86,12.36,303.11Z"/><path class="cls-4" d="M710.38,604.12q-1.15-3-2.29-6.09c11.42-2.94,19.2,2.1,24.33,11.77,22.46,42.25,23.58,85.83,7.3,130.24-4.18,11.38-8.42,23-19,30.38-2.43-.14-2.74-1.87-2.81-3.77,8-19.5,17.53-38.39,20.54-59.66,3.42-24.19,3.63-48-5.24-71.27-1.2-3.14-1.39-6.52-2.26-9.72-1.81-6.06-5.2-11.27-8.9-16.29C719.23,605.55,715.66,603.05,710.38,604.12Z"/><path class="cls-5" d="M65.92,198.58l-2.28-2.38c24.72-31.82,56.13-54.62,93.31-69.73a210.2,210.2,0,0,1,44.48-12.4c4.09,3.73,9.26.85,13.73,2.24-.51,4-3.75,4.17-6.6,4.53-47.87,6-88.45,26.85-122.64,60.62C78.51,186.28,74.82,195.49,65.92,198.58Z"/><path class="cls-6" d="M359.35,144.88q-2.13,3.42-4.24,6.84c-4.3-3.59-3.46-8.55-3.61-13.3-.33-10.28,1.27-20.66-1.36-30.84-1.8-12.84-.95-25.77-.94-38.66,0-20.75-3.42-41-7.1-61.32-1-2.43-1.78-4.91-.91-7.57,7.28-.17,7.93.09,9.56,7.23,4.31,18.92,5.92,38.18,6.53,57.54,1.58,17.67.21,35.37.72,53.05.12,4-.78,8.12.8,12.05Q359.07,137.39,359.35,144.88Z"/><path class="cls-7" d="M272.4,75.76l-2-1.94c15.46-21.43,35.12-39,53.27-57.9,2.12-.55,2.84.73,3.21,2.46-2.57,8.42-9.36,13.87-14.76,20.12-9.8,11.35-21.5,21-30.68,33C279.43,74.1,277,77.63,272.4,75.76Z"/><path class="cls-8" d="M105.79,717.15c-3.56-3.91-1.72-8.75-2.26-13.19.13-4-.14-8.14,4.15-10.49,9.67-2.23,5.67,5.94,7.39,9.76C117,711.2,113.93,715.89,105.79,717.15Z"/><path class="cls-9" d="M718.84,768l1.84,2.38c-6,9.92-15,15.4-26.15,17.79-5.65-3.53-12.09-.58-18-2.2.26-4.07,3.58-4.55,6.31-4.56,11.92,0,22-4.31,30.84-12.13A5.76,5.76,0,0,1,718.84,768Z"/><path class="cls-10" d="M41.11,545.85c-3.75-3.72-.19-9.48-3.69-13.27,2.2-10.72,6.4-20,17.4-24.43l2.52,2.25c-1.27,6.23-8.55,8.29-10,14.43a39.34,39.34,0,0,0-3.32,15.23C43.74,542.33,43.24,544.51,41.11,545.85Z"/><path class="cls-11" d="M358.8,129.9c-3.54-13.09-.72-26.41-1.37-39.6-.41-8.49-.12-17-.15-25.5,4.25,8.66,1.72,17.9,2,26.84C359.61,104.38,359,117.14,358.8,129.9Z"/><path class="cls-12" d="M325.86,18.23l-2.19-2.31A53.87,53.87,0,0,1,341.19,0l2.49,4.14C338.57,9.91,334.7,17.23,325.86,18.23Z"/><path class="cls-13" d="M110.14,637.08l-2.22,2.42-16.2-15.39L95,621.05C103.18,623.38,109.11,627.9,110.14,637.08Z"/><path class="cls-14" d="M170.38,269.68c-.77-7.28-7.76-10.18-11-15.71-2.14-4-1.72-7.12,3.09-8.64a35.68,35.68,0,0,1,6.54-1.28c24.32-3,45.67-13.93,67.57-24,18.09-8.32,33.32-18.92,43.79-36,4.34-7.07,12.07-6,18.68-7.7,11.3,1.61,22.58,3.41,33.9,4.8,18.58,2.29,25.8-3.79,26.93-22.32.13-2.11-1-5,1.95-5.57,1.38-.28,3.41,1.15,4.72,2.29,26.81,23.54,50.88,48.88,64.52,83.09a249.85,249.85,0,0,1,16.61,69.51c3.89,22.72.79,44.8-6.08,66.54a8.07,8.07,0,0,1-7.91-5.12c-1.88-4.68-3.43-8.1-9.93-7.92-5.41.16-6.31-5.28-6-10.06.31-5,2-10.08-1.28-15.74-5.26,5-7.23,11.05-10,16.53-6,11.77-13.59,21.94-25.32,28.7-6.49,3.74-11.34,9.47-15.78,15.44a48.78,48.78,0,0,1-14.73,13.3c-4.12,2.39-8.8,3.67-12.43.24-6.58-6.21-10.48-1.78-14.67,2.72-6.79,7.32-12.75,15.35-20,22.34-7.57,7.33-15.8,14-25.69,17-12.82,4-19.48,11.07-17.16,25.45,8.13.18,15.06-4.19,21.27-9.21,11.15-9,23.43-7.78,35.87-4.9,7.8,1.81,8.74,7.09,1.2,15.16-9.1,9.76-9.41,20.23-5.82,31.85-39.24,14.54-78.31,15-119,4-30.32-8.21-58.09-19.92-83.54-37.9-7-5-12.44-11.44-18.14-17.7,6.19-8.34,3.56-15.5-2.56-22.6-14.53-16.87-24.49-36.65-35-56.05-3.38-6.23-5.46-12.87-5-20.1.33-4.73,1.9-8.64,6.91-10.19,13,5.61,25.3,13,40,13.44A290,290,0,0,0,143,364.45c27.43-1.79,51-22.87,43-54.64-1.86-7.47-2.73-15.28-7.17-21.9-2.28-5.81-5.65-11.08-8.37-16.68C170.46,270.72,170.42,270.2,170.38,269.68Z"/><path class="cls-15" d="M108.18,480.91c27.06,17.28,54.52,33.61,86.51,40.34,28.1,5.92,56.05,10.18,84.94,4.15,13-2.72,25.87-4.64,37.86-10.94,5.49-2.88,11-1,13.39,5.59,3,8.3,6.08,16.63,5.8,25.69-.72,1.13-3.06-1.33-2.62.55,6.91,30.21-9.77,52.44-25.21,75-7.49,10.92-17.68,20.15-20.29,34-20.4,17.67-45.39,21.06-70.86,22.48-12.39.7-24.83.36-36.47-5,2.78-8.56-1.13-13.18-8.24-18-38.59-26.08-61.53-60.65-56.52-109.51.15-1.47-.51.13.17-1.06,9.92-17.26-2-29.79-9.23-43.36C104.82,494.05,103.16,487.34,108.18,480.91Z"/><path class="cls-16" d="M323.36,728.2c-7.16,17.28-21.57,27.32-36.82,38,5.73-31.2-1.27-47.53-22.1-53.39-13.36-3.75-29.65,4.1-34.14,17.52C223.44,750.9,227.79,763.14,256,779c-22,1.38-41,1-59.57-5.77-14.93-7.18-26.61-18.64-38.36-29.85-15.37-14.66-25.25-32.5-28.89-53.66a116.35,116.35,0,0,0-4.48-18.28c-1.85-5.33-2.08-10.86,1-16,15.58,7.37,29.91,17.21,46.82,22,46.39,13.16,88.64,4.43,127.76-22.72,10.91-2.21,17.47,1.58,22.05,14.06C329.53,688.33,333.44,708.2,323.36,728.2Z"/><path class="cls-17" d="M313.22,510.53c-6.68-5.12-7.49-20.89-1.14-27.75,4-4.35,10.66-9,9.45-14.14-1.48-6.26-9.86-1.57-14.82-3.78-9.33-4.16-16.19,1.54-23.33,6.18-8.9,5.79-17.67,12.19-30.57,9,3.5-4.66,6.82-8,5.05-14.65-1.7-6.45,5.19-11.32,11.28-12.88,19-4.85,32.05-17.84,44.16-31.87,3.84-4.45,7.62-9,11.66-13.26,4.25-4.51,8.19-9.62,13.18-.34,2,3.8,6.36,3.77,9.76,1.38,4.5-3.17,9.49-6.21,12.76-10.46a94.43,94.43,0,0,1,24.9-23.1c11.23-7.09,16.57-19.53,22.24-31.24,2.33-4.82,5.1-13.29,9.4-11.91,6.77,2.16,4.1,10.81,3.84,16.82-.28,6.39-4.87,15.54,8.49,8.87,2.73-1.36,5.09,1.86,4.81,4.52-.65,6.23,3.48,9.28,7.25,12.74.16,8.69-6.13,14.79-8.93,22.29-4.46,2.29-8.43,5.48-13.78,6-3.87.37-6.68,3.15-8.5,6.48-10.43,19.1-26.16,33.66-41.22,48.82-3.47,3.49-8.16,6.49-7.82,13.23,6.74,1.05,14.08-7.61,20.15.81C361.64,490.28,339.47,504.07,313.22,510.53Z"/><path class="cls-18" d="M379.28,761.46c4.05,14.3-2.18,26.86-7,39.48-7.36,19.13-20.65,33.5-38.62,46.28.18-8.41.58-15.15-2.37-21.58C322.7,807,308,802.29,293.77,805.84c-15.06,3.76-23.72,21.81-20.12,38.72.76,3.58,2.39,7,3.62,10.45.25,8.74-4.63,7.65-8.69,3.65-6.22-6.14-12.51-12.27-17.33-19.83a242,242,0,0,0-31.45-39.27c-5.58-4.91-12.21-9.16-11.68-18,24.66,4.83,48.78,4,72.53-5.38,9.26-3.65,16.78-9.77,23.25-16.33,11.46-11.64,24.39-22.53,30.45-38.61,16.72,2.74,28.52,12.85,38.22,25.91a22.06,22.06,0,0,1,4.35,15.63c0,.36-.41,1.73.4,1.21S378.37,762.13,379.28,761.46Z"/><path class="cls-19" d="M506.13,825.77c16.41,27.86,13.34,56.59,3.67,85.54-2,6.1-4.64,3.5-7.61.18-6-6.68-13.31-10.3-22.63-9-25.87,3.7-33.31,21.18-18.48,45.9a62.06,62.06,0,0,1-32.37,2.25c-16.1-3.25-32.28-7.56-45.14-19.33-4.25-3.89-4.36-5.64.64-8.73,11.27-7,22.45-14.1,33.63-21.18,20.46-13,23.65-33.52,26.36-54.38,1.17-9-.07-18.31-.22-27.48,12.65-11.28,33.78-12,50.31-1.82C498.36,820.26,501.58,824,506.13,825.77Z"/><path class="cls-20" d="M280.87,868.13a11,11,0,0,1,3.05-1.14c49.39-2.26,80-29.12,96.73-74.14a31.13,31.13,0,0,1,2.71-4.69c6.74-5.59,14-5.51,21.56-2a98.32,98.32,0,0,1,18.83,11.27c2.58,2,5,4.7,8.67,2.14,21.47,43.5,1.76,93.82-36.77,110.72-2.4-3.31-.66-7-.81-10.48-.72-16.68-12.21-29.43-26.87-29.39-15.21,0-27.15,13.59-26.81,30.43,0,1.85.19,3.69.29,5.53C325.06,893,305.5,885.17,287,875.52,284.09,874,281.45,871.79,280.87,868.13Z"/><path class="cls-21" d="M718.84,768c-11,13.28-26.1,16.91-42.28,18-25.95-10-39.3-29.23-37.78-54.41.67-11.08,5.81-20.53,12.22-29s14-15.9,21.09-23.8a4.78,4.78,0,0,1,1.94,1c4.37,4.39,4.39,13.69,13.45,12.73,10.22-1.08,19.59-4.79,25.94-13.22,7.52-10,10.85-21.74,11.6-34.18a69.42,69.42,0,0,0-.44-14.41c-1-6.6,1.59-9,8-7.44C752,673.83,745.92,721.93,718.84,768Z"/><path class="cls-22" d="M163.4,265.84l7,3.84-.19-.1c2.71,5.58,6.68,10.51,8.66,16.49,11.39,16.14,12.08,44.33,1.88,59.38A39.15,39.15,0,0,1,155.43,362c-19.31,3.65-39.14,7.28-58.5-.79a212.67,212.67,0,0,1-42.18-17.67c-15.13-8.45-27.4-19.36-36.53-34-1.51-2.42-3.88-4.3-5.86-6.42-6.73-13.74-9-27.95-4.57-42.88A5.76,5.76,0,0,1,10,262.62c14,33,41.73,44,74.57,46.32,10.26.74,20.55,1.4,30.94.16,21.49-2.56,34.23-13,40.25-34C157,270.86,157.28,266,163.4,265.84Z"/><path class="cls-23" d="M581.11,802.09c15.5,20.93,23.5,43.82,18.91,70.27-1.17,6.73-2.81,8.54-9.87,5.38-12.39-5.55-28.69,1-33.94,12.47a17.3,17.3,0,0,0,2.2,18.81c4.13,5.29,2,6.87-2.95,9.58-11.89,6.58-24.06,5.72-36.54,3.18-5.81-1.19-7.66-3.34-5.12-9.92,9.44-24.46,11.07-49.42,3.16-74.86-2.69-8.65-8.14-15.69-11.59-23.83C509.1,798,521.17,788,538.1,790.66,552.59,792.93,567.84,794.38,581.11,802.09Z"/><path class="cls-24" d="M108.18,480.91c.15,6.82-1.48,13.83,2.12,20.3a14.22,14.22,0,0,1,1,1.93c8.72,15.38,6.94,30.33.08,46.14-6.53,15.05-.32,30.39,5.07,44.07,6.68,17,15.31,33.58,30.07,45.77,6,5,13.38,7.79,19.37,12.74,3.13,2.59,4.73,5.76,3.26,9.75-1.4,3.78-3.61,6.57-8.31,4.61C144.1,663.06,131.14,652.87,118,643c-2.63-2-5.23-4-7.85-5.95L95,621.05c-13-19.13-26.31-37.91-27.1-62.64-.73-23,6.09-43.26,19.17-61.73a103,103,0,0,1,10.29-12.84C100.1,481,103.05,476.09,108.18,480.91Z"/><path class="cls-23" d="M652.84,781c7.76,5.53,18.91,5.8,22.72,17.6,3.59,11.12,6.41,21.69,4,33.52-1.19,5.86-3.15,6.56-8.75,6.13-21.56-1.69-34,12.47-28.82,33.2,1.52,6.1-.5,7.76-5,9.82-9,4.13-18.15,6.33-28,4.24-4.86-1-7.59-2.67-5.67-9.05,8.7-28.83-1.85-53.52-17.62-76.88-1.54-5.2,1.85-6.46,5.78-7,4.73-.7,9.65-1.14,14.23-.12C623.42,796.32,639,792.55,652.84,781Z"/><path class="cls-25" d="M56.92,350c-8.32,10.2-4.3,20.4.83,29.92,11.18,20.75,22.5,41.42,38,59.46,6.13,7.14,7,14.58-3.24,19.56-23.12-20.7-39.49-46.08-50.09-75-5.5-15-11.1-30.39-9.2-47.91C42.66,338.89,48.41,346.9,56.92,350Z"/><path class="cls-26" d="M208.12,781.52c3.63,5.92,6.89,12.16,13.21,15.84,3.76,14.18,10.43,26.3,22.36,35.54,7,5.46,7.2,13.27,3,21-1.21,2.24-3.05,3.1-5.39,1.34-29.77-10.1-46.49-32.1-54.78-61.3-4.15-14.63-1.34-17.35,13.21-14.67C202.59,779.78,205.33,780.75,208.12,781.52Z"/><path class="cls-27" d="M710.38,604.12c7.77-11.46,9.44.25,13.34,3.53,2,18.32,1.31,36.42-3.25,54.4-2.93,11.57-10,19.56-19.74,25.45-12.16,7.36-21.78,3.16-26.52-11.2A221.61,221.61,0,0,0,709,612.7C709.93,609.9,711.11,607.18,710.38,604.12Z"/><path class="cls-28" d="M652.84,781c-5.19,13.68-27.14,18.21-39,15.54-7.41-1.68-14.7-.56-21.94-1.54-4.15-.56-4.64,2.37-6.18,4.58-10.07-4.7-10.61-11-4.3-19.74C598,756.81,638.82,757.3,652.84,781Z"/><path class="cls-29" d="M160.85,666.22c9-5.91,9.9-9.71,1.15-13.62-24.13-10.8-37-31.67-46.76-53.8-8-18.22-14.38-38.39-4.24-58.73,4.8-9.63,6.68-19.09.92-29.18-1.52-2.66-1.13-6.43-1.62-9.68q7,11.88,14,23.77c1.4,2.39,1.3,4.64.29,7.36-10.65,28.55-7.19,55,10.55,80.15,6.84,9.71,15.23,18,21.91,27.78,5.27,7.69,14.31,10.18,21.94,14.6,8.64,5,9.3,11.42,2.24,17.84C174,672.09,167.45,669,160.85,666.22Z"/><path class="cls-30" d="M381.49,472.33c-5.11-2-9.76-1.29-14.67,1.31-2.44,1.29-6.25,3.91-8.9,0-2.29-3.38.2-6.49,1.95-9.15a52,52,0,0,1,6.64-7.39c15.52-15.71,32.14-30.45,42.38-50.67,2.18-4.31,6.67-8.22,11.64-6.56,5.28,1.77,7-7.2,12.13-2.87-1.2,11.5-7.94,20.31-14,29.55C407.84,443.11,398.08,460.48,381.49,472.33Z"/><path class="cls-31" d="M280.87,868.13c10.49,7.39,21.38,13.33,34.07,16.93,11,3.13,18.1,13.61,26.51,21.34,2.42,4.9,4.84,9.79,7.31,14.76-31.85,4.72-60.05-18.07-74.07-44.3C270.51,869.05,274.5,868,280.87,868.13Z"/><path class="cls-32" d="M125.7,655.36c4.42,38,13.24,73.65,47.39,97.44,8.61,6,14.95,15.16,25.73,18.46,1.25.38-1.62,1.12-2.38,1.91-43.23-10.29-70-37-78.3-80.84C115.72,679.64,116.82,666.36,125.7,655.36Z"/><path class="cls-33" d="M506.13,825.77c-4.33,3.46-6.55-.74-9.1-2.76-12.7-10.06-26.83-10.88-42.19-8.3-4.53.76-5.54,7.46-10.86,4.86-3.8-8.42-4.73-17.78-9.17-26.1-4.21-7.9,3.15-7.7,7.38-7.8,17.79-.4,33.23,6.27,46.65,17.52C496.18,809.36,503.42,815.91,506.13,825.77Z"/><path class="cls-34" d="M323.36,728.2c-.47-.93-1.59-2.23-1.3-2.75,10.37-18.6,2.67-36.7-1.93-54.63-2.45-9.53-8.69-16.39-19.85-16.17,6.77-6.76,13.73-13.34,20.24-20.34,4.32-4.67,6-1.7,7.87,2,6.12,12,9.87,25,10.11,38.31C338.83,693.77,332.52,711.49,323.36,728.2Z"/><path class="cls-35" d="M581.11,802.09c-10.39-1.74-21.08-2.46-31.1-5.43-21.79-6.46-30.86-3.72-43,15.13a7,7,0,0,1-1.68,1.38c-1.37-1.69-2.75-3.38-4.11-5.08-9.57-12-9.15-13.76,5.06-21C532.91,773.53,561.2,779.2,581.11,802.09Z"/><path class="cls-36" d="M319,815.6c9.67,6.48,12.76,15.08,9.42,26.21-3.42,11.38-13.29,18.63-25.51,18.74-18.46.18-28.47-12.43-23.79-29.95,3,11,13,5.66,19.34,7.25,7,1.76,12-4.56,12.88-12.07C311.92,820.7,310.79,814.79,319,815.6Z"/><path class="cls-37" d="M288.56,655.26c-5.81-11,4-17.61,8.86-23.38,14.9-17.83,25.57-37.42,34.27-58.86,4.52-11.16-2.31-21.11,1.42-31.54,2.61-.18,1.26,3.84,3.57,4.26.14,2.85.29,5.69.43,8.54a65.09,65.09,0,0,1,0,23C332.62,610.6,317.56,637.3,288.56,655.26Z"/><path class="cls-38" d="M374.58,877.85c9.09,1,15,5.65,15.93,15.08,1.38,14.63-2.26,22.51-12.66,26.2-8.9,3.15-18.82,4.47-25.9-2.92-6.5-6.8-7.12-16.12-3.9-25.26,11.6,8.25,18.29,6.48,23.36-6.27C372.34,882.33,372.61,879.71,374.58,877.85Z"/><path class="cls-39" d="M281.57,730.17a26.88,26.88,0,0,1-4.26,34c-8.23,8-23.4,9.75-32.86,3.84-10.65-6.66-14.65-20.18-9.79-33.1,2.35,10,9.94,12.28,18.67,12.72,9.5.48,15.39-4.86,18.12-13.21C273.47,728.24,276.15,726.73,281.57,730.17Z"/><path class="cls-22" d="M481.3,906.66c13.71-2.88,20.25,7.86,21.61,19.3,1.29,10.95-10.35,23.56-22.25,25-10.62,1.33-19.28-5.78-21.06-17.82-.68-4.59-2-9.54,1.5-13.8,4.1,1.36.32,10.35,7.84,8.27,6.21-1.72,10.25-5.68,11.33-12.28C480.75,912.49,479.71,909.42,481.3,906.66Z"/><path class="cls-40" d="M432.42,799.59c.44,5.89-2.05,6.37-6.26,3.31-3.87-2.81-7.53-5.92-11.48-8.61-9.53-6.5-19.66-10.37-31.32-6.13-.59-7.38,3-14.22,2.34-21.8-.55-6.25,4.54-4.16,7.87-3.05C412,769.45,425.66,780.84,432.42,799.59Z"/><path class="cls-41" d="M379.28,761.46c-.31,3.07-.63,6.14-1,9.76-6.34-5.65-1.59-13.36-5.42-19.1-7.48-11.24-16.75-20.29-29.21-25.65-3.34-1.44-7.07-2-9.3-5.27a5.71,5.71,0,0,1,.14-1.1c1.85-6.17,2.09-15.6,8.26-16.58,6.91-1.09,13.2,5.73,17.85,11.58C371.38,728.66,378.06,744,379.28,761.46Z"/><path class="cls-42" d="M241.33,855.23c6.73-6.19,8.17-12.88,1.27-19.79-3.84-3.84-8.9-6.6-12.22-10.79-6.21-7.84-10.35-16.77-9-27.29A192.12,192.12,0,0,1,253.06,837c4.92,8,12.42,13.34,17.78,20.79,3.88,5.39,4.39-1.45,6.43-2.77l8.9,7.08C269.21,865.1,255,862.24,241.33,855.23Z"/><path class="cls-43" d="M281.57,730.17c-3,1.13-6.67-1-7.49,5.81-1.36,11.26-16.08,17.46-27.82,13.65-7.15-2.32-14.53-4.44-11.6-14.72l1.89-2.82c3.11-.4,5.71.83,8.33,2.36,2.94,1.73,6.05,1.54,7.45-1.88,1.58-3.86-1.5-5.16-4.47-6.12-1.77-.56-3.55-1.07-4.68-2.73C254.73,712,268.56,714.36,281.57,730.17Z"/><path class="cls-44" d="M674.21,676.3c4.5,7,9.69,14.69,19.07,11.48,11-3.75,20-11.16,23.35-23.11,4.59-16.6,6.76-33.53,5-50.84-.2-2,1.32-4.12,2-6.18,3.61,4.83,7.64,9.43,8.83,15.65-4.69,2.24-5.75,5.26-4.91,10.84,2.23,14.66-1.64,28.65-8.16,41.74-6.8,13.66-19.83,18.88-33.54,20.16-10.51,1-10.82-10.1-13.85-17.25Z"/><path class="cls-45" d="M658.74,843.91c12-4,21.46-.61,24.46,8.86,3.21,10.16-5.06,25.65-15.42,28.89-9.41,2.94-17.11-2-20.14-13,1.81-2.44,4.45-3.53,7.13-4.74C666.75,858.57,667.7,853.53,658.74,843.91Z"/><path class="cls-46" d="M96.93,361.22c22.11,3.73,44,3.45,65.26-4.53a35.64,35.64,0,0,0,22.94-38.8c-1.53-11.11.66-23.2-7.8-32.66q1.17-1.82,2.66-.25c9.51,17.38,15.46,36,7,54.79-8,17.57-23.88,26.38-43.35,27.51-15.72.92-31.6,3-46.7-3.88C96.9,362.67,96.91,362,96.93,361.22Z"/><path class="cls-43" d="M319,815.6c-1,2.39-4.92,1-5,5.77-.21,18.25-8,22.86-26.14,17.31-4.58-1.4-10.55-.18-8.76-8.08.84-3.28,1.5-6.66,4.52-8.82.32.2.64.38.94.59,3.46,2.37,5.37,10.57,11,5.1,4.87-4.77-2.73-7-4.66-10.42a7,7,0,0,1-.87-2C299.79,806.15,309.37,810.81,319,815.6Z"/><path class="cls-22" d="M585.65,879.92c9.41,2.55,11.38,9.82,10.07,17.93-1.11,6.84-3.47,14.22-12,15-7.37.68-16.46,5-20.23-6.4.1-1.09.1-2.83.77-3.06C575.64,899.45,580,889.1,585.65,879.92Z"/><path class="cls-47" d="M41.71,539.05c-1.57-6,1.3-10.94,4-15.91,7.08,2.05,13.23,2.75,14.86-7.18,1.13-6.9,5.32-7.18,10.4-3.41q-3.78,16.59-7.55,33.19c-.84,5.33-1.73,9.21-8.26,3.92C50.71,546.09,41.17,549.12,41.71,539.05Z"/><path class="cls-48" d="M41.71,539.05c2.47,8.92,12.87,3.4,16.34,8.47,5.59,8.16,2.73-4.15,5.33-1.78.21,7,.54,14,.59,21,0,2.36,1.48,5.58-1.67,6.82-2.61,1-4.94-1-7-2.47-8.67-6.15-12.43-15.14-14.2-25.22Z"/><path class="cls-49" d="M585.65,879.92c-.31,14.8-10.55,21.26-22.2,26.54C555.21,888.94,563.94,878.5,585.65,879.92Z"/><path class="cls-47" d="M374.58,877.85c1.08,8.48-2.32,14.83-9,19.79-5.56,4.1-10.25.5-15.28-1.25-3.16-1.1-1.56-3.61-2.21-5.44C353.57,879.81,362.09,874.81,374.58,877.85Z"/><path class="cls-50" d="M481.3,906.66c3.81,6.16,2.56,12-1.38,17.46s-10.4,8.34-16.36,6.87c-4.65-1.14-1.26-7.67-2.46-11.6C464.09,909.18,472.51,907.62,481.3,906.66Z"/><path class="cls-50" d="M658.74,843.91c5.32.12,9,1.58,9.29,8.09.26,6.93-3.16,11.22-8.78,13.8-3.56,1.63-7.72,2-11.61,2.89C646.4,858.21,646.3,848.24,658.74,843.91Z"/><path class="cls-51" d="M70.93,512.55c-4,0-9.12-2.1-7.58,5.93.93,4.88-2.64,8.4-7.41,9.14-4,.62-9.13,2.17-10.27-4.48,2-6,6.64-9.55,11.67-12.74C61.79,511.62,67.89,502.37,70.93,512.55Z"/><path class="cls-52" d="M285.09,900.79c-20.07-7.26-25-16.26-18.61-31.54C272.07,879.71,276.79,889.76,285.09,900.79Z"/><path class="cls-53" d="M243.18,723.72l6.54.17c3.67.09,6.34,1.54,7,5.44.62,3.66-1.11,6.35-3.91,8.41s-6.08,2.42-9.07.26c-2.51-1.8-4.8-3.92-7.18-5.91A15.39,15.39,0,0,1,243.18,723.72Z"/><path class="cls-54" d="M187.58,833.25c-6-8.64-10.61-17.47-3.91-29.15,5.56,6.52,7.32,14,10.91,20.49C196.55,831,193.06,832.91,187.58,833.25Z"/><path class="cls-53" d="M290,815a19.86,19.86,0,0,1,2,.93c4.26,2.59,10.19,4.22,8.69,10.93a7.59,7.59,0,0,1-7.25,5.87c-7.39.22-8.57-5.47-9.78-11C284.86,818.73,287.31,816.79,290,815Z"/><path class="cls-55" d="M121.44,721.53c5.78,4.82,6.41,11.89,9.51,20.24-9.3-3.25-16.62-5.64-20.57-13.52C111.14,721.16,116.27,721.31,121.44,721.53Z"/><path class="cls-56" d="M121.44,721.53c-3,3.35-8.9,1.94-11.06,6.72-2.94-3.12-5.5-6.39-4.59-11.1,3.11-4.63,9.51-7,9.28-13.92Q118.27,712.38,121.44,721.53Z"/><path class="cls-57" d="M187.58,833.25c2.67-2.62,6.09-4.62,7-8.66,5,5.76,7.58,13.25,14.85,19.17C198.81,844.29,192.76,839.66,187.58,833.25Z"/><path class="cls-15" d="M337.15,577.32q0-11.52,0-23C339.82,562,340.18,569.63,337.15,577.32Z"/><path class="cls-58" d="M83.66,180.66c35.59-38.36,80.75-57.09,131.5-64.35,3.31.11,6.63,0,9.92.38,1.74.19,3.41,1.13,5,1.7-.18,1.16-.06,2.06-.45,2.53-13.1,15.83-8.51,28.81,13.08,38.27a341,341,0,0,0,34.17,12.68c8.1,2.75,4.05,6.91,1,10.52-11,13-21.82,25.59-39.12,31.48C226,218.24,214,225.36,201.58,231c-20,9.1-41.58,9.37-63.16,7.91-13.41-8.87-28.69-13.2-43.72-18.15-2.79-3.09-4.47-6.51-3.2-10.8,10.08-6,17.88-15,27.51-21.63,7.87,1,14.08-4.16,20.71-6.64C157.55,175.05,175,167,191,156.39a7.23,7.23,0,0,0,1.63-1.49c4.31-5.45,10.91-12.11,8.18-18-2.51-5.4-11.32-1.94-17.42-1.23-15.63,1.79-30.29,6-42.79,16.21-7.49,6.11-14.59,12.44-18.29,21.7-15.3-4.54-24.73,5-34.28,14.33C83.69,187.21,82.71,184.51,83.66,180.66Z"/><path class="cls-59" d="M325.86,18.23c6.67-3.76,9.67-12.19,17.82-14.06,6.94,10.3,5.06,22.72,6.44,33.87,2.82,22.59,2,45.64,2.68,68.49a98.41,98.41,0,0,1-1.17,31.66,91,91,0,0,1-8.75-33c-.7-8.42.47-16.78-6.78-23.63-3.51-3.32-2.38-9.14-1.65-13.93,1.18-7.66,1.89-15.39,3.2-23.07-8.13,41.27-22.18,80.82-34.57,120.85-.67,2.19-.53,5.66-4.63,4.5a159.8,159.8,0,0,1-56.27-15.48C223.81,145.69,222,136.5,234.91,121q18.81-22.56,37.49-45.22C290.75,57.08,309.22,38.5,325.86,18.23Z"/><path class="cls-11" d="M298.45,169.92c14.45-44.53,28-89.32,40.32-134.64,4.39,9.63-.21,18.63-.36,27.8-.12,7.8-6.48,16.77,5.87,21.12,1,.33,1.6,3.41,1.32,5-2.82,16.1,5.29,30.83,7.2,46.53V106.53c2.85,15,.78,30.16,2.31,45.19-1.18,25.8-3.67,27.92-29.93,24.33C316.11,174.81,307.07,173.24,298.45,169.92Z"/><path class="cls-60" d="M138.42,238.93c3.28-1.81,6.71-3.05,10.54-2.65,27.13,2.83,51-7,74.6-18.65,8.09-4,16.21-8.09,24.89-11.24,14.39-5.23,20.52-20.48,31.2-30.42.19-.18-1.76-2.68-2.72-4.1,7.69-.07,14.27,5.34,22.11,4.5-10.68,2.43-17.1,9.46-22.94,18.53-11.76,18.28-32.46,24.09-50.42,33.62-19.29,10.24-39.72,16.88-61.47,18.7-5.58.47-3.26,4.54-4.84,6.75C152.73,248.48,144.36,245.4,138.42,238.93Z"/><path class="cls-61" d="M9.43,256.21c11.32-23.47,31.69-32.86,55.94-32.71,32.22.2,61.84,9.82,86.92,31.11,4.61,28.22-8.24,47.59-36,52.15-26.5,4.36-52.24,1-76.37-11.63C27.66,288.7,18.2,279.85,14.47,266A22.93,22.93,0,0,0,9.43,256.21Z"/><path class="cls-62" d="M9.43,256.21c3.57-1.5,5.19-.3,6,3.52,6,27.39,27.72,36.37,51.05,42.19,16.74,4.17,34,5.24,51.32,1.48,21.42-4.64,32-16.52,32.43-38.08.06-3.72-.09-7.42,2-10.71,5.34,2.12,7.4,7.49,11.11,11.23-3.51,2.17-3.8,5.57-4.53,9.34-4.11,21-22.16,35.53-43.75,36.91-16.82,1.07-33.68,1.17-50-2.59C41,304,20.65,292.23,9.17,268.89c-1.23-2.51-.95-5.76-1.38-8.66C8.34,258.89,8.89,257.55,9.43,256.21Z"/><path class="cls-63" d="M92.54,209.77l2.16,11c-9.24-3-18.85-1.67-28.27-2.08-8.76-.38-9.23-3.68-5.35-10.21,1.87-3.15,3.24-6.6,4.84-9.91,5.57-6.32,10.72-13.05,17.74-17.92l4.21,6.6C91.57,194.32,85.89,203.33,92.54,209.77Z"/><path class="cls-64" d="M295,307.56c-10.81,8.1-23.08,5.54-33.1-6.91-8.52-10.58-7.18-25.43,3.74-34.5,8.38-7,18.16-10.11,28.74-5.49,10.9,4.76,16.59,14.1,16,25.54-.51,9.59-4.81,18.32-15.51,21.44.22-8.54-4.13-11.91-12.28-10.69-3,.44-7.82-1.26-8,3.3-.11,3.72,4.58,4,7.68,5C286.4,306.63,291.25,303.9,295,307.56Z"/><path class="cls-3" d="M180,285l-2.66.25c-2.7-5.08-7.2-9.32-7.14-15.65C175.63,273.32,178.46,278.74,180,285Z"/><path class="cls-65" d="M273.19,609.64c.17,18.56-15.91,34.57-34.63,34.47s-33.88-16.67-34.44-37.72c-.44-16.81,17.33-33.07,36.44-33.33C258.09,572.83,273,589.53,273.19,609.64Z"/><path class="cls-66" d="M121.33,174c-.13-4.52.68-8.37,4-12.11,18.91-21.32,43.15-29.84,70.79-30.13,11.09-.11,10.59,1.42,7,11.25-5.83,15.82-18.41,21.77-32.29,27.55-14.68,6.11-28.89,13.37-43.31,20.09-3.32,1.55-6.42,1.68-8.74-1.81C115.94,183.26,117.93,178.51,121.33,174Z"/><path class="cls-67" d="M121.33,174c1.94,5.44-2.94,9.68-2.59,14.84-7.45,8.58-13.81,18.55-26.2,20.92-11.93-5.34-6-14.42-4.67-22.51a34.8,34.8,0,0,1,15.44-15.38C109.84,168.43,116,168,121.33,174Z"/><path class="cls-68" d="M52.12,263.28c-3.26-.37-6.8-.06-9.73-1.26-6.21-2.54-12.14-5.92-12-14,.15-7.87,7-9.16,12.23-10.71a29.43,29.43,0,0,1,20.47.94c5.7,2.5,10.42,5.31,9.48,12.87-1,7.74-6.46,10.18-12.75,11.65-2.43.57-5.12.09-7.69.09Z"/><path class="cls-69" d="M289.43,288.84c-7.06-1.29-12.44-5.63-12-12.33.38-5.81,5.9-10.82,12.18-10.63s11,4.61,10.95,11.48S295.66,287.57,289.43,288.84Z"/><path class="cls-70" d="M295,307.56c-8.34,1-16.75,2.62-23.65-4.47-3.77-3.88-2.92-6.56,1.9-7.91a36,36,0,0,1,19.67-.24c8.21,2.38,5.46,7.79,1.94,12.7Z"/><path class="cls-43" d="M212,598.62c3.48-12.65,15-21.62,27.21-21.27,15.25.45,23.16,7.42,26.81,23.63,2.08,5.7,0,10.23-4.46,13.56C245.05,627,214.18,616.47,212,598.62Z"/><path class="cls-71" d="M212,598.62c8.68,11.87,19.37,20.16,35,18.27,9.51-1.15,18.16-4,19-15.91,3.2,13.74-1.5,26.21-12.57,33.39-10.77,7-19.62,6.15-31-2.92C212.24,623.29,208.06,610.15,212,598.62Z"/><path class="cls-72" d="M115.05,180.17c-.86,5.08-3.13,9.77-9.11,10.52a4.6,4.6,0,0,1-5.12-5.65c1.44-4.95,4.3-9.67,10.16-10.45C114.36,174.14,115.12,176.89,115.05,180.17Z"/><path class="cls-73" d="M102.44,199.06c-2.24,5.15-5.45,6.76-9.92,5.45A2.94,2.94,0,0,1,91.19,202C93.44,197.26,97.47,198.13,102.44,199.06Z"/><path class="cls-74" d="M241.21,593.53c-1.41,4.83-4.39,9-9.32,9.53s-8-3.3-8.11-8.27,3.08-8.28,8-8.8C236.92,585.45,239.76,588.67,241.21,593.53Z"/></g></g></svg>