<svg xmlns="http://www.w3.org/2000/svg" viewBox="0 0 514.51 956.36"><defs><style>.cls-1{fill:#030302;}.cls-2{fill:#050504;}.cls-3{fill:#161012;}.cls-4{fill:#080704;}.cls-5{fill:#0b0a07;}.cls-6{fill:#353026;}.cls-7{fill:#3c382b;}.cls-8{fill:#7b7b7b;}.cls-9{fill:#c0a55a;}.cls-10{fill:#efd97d;}.cls-11{fill:#d1ba68;}.cls-12{fill:#c1a75b;}.cls-13{fill:#b69b54;}.cls-14{fill:#b39853;}.cls-15{fill:#b49853;}.cls-16{fill:#b79b54;}.cls-17{fill:#efe0a0;}.cls-18{fill:#a18346;}.cls-19{fill:#9f8345;}.cls-20{fill:#bba159;}.cls-21{fill:#c0a65a;}.cls-22{fill:#ac914d;}.cls-23{fill:#d6bc69;}.cls-24{fill:#aa8f4d;}.cls-25{fill:#a28446;}.cls-26{fill:#ba9f56;}.cls-27{fill:#b59a53;}.cls-28{fill:#ae934e;}.cls-29{fill:#e6d079;}.cls-30{fill:#ebd57c;}.cls-31{fill:#edd77c;}.cls-32{fill:#d9c06c;}.cls-33{fill:#d8c06b;}.cls-34{fill:#a78b4b;}.cls-35{fill:#f1e6ae;}.cls-36{fill:#edd67b;}.cls-37{fill:#eedf9f;}.cls-38{fill:#a28448;}.cls-39{fill:#9f8146;}.cls-40{fill:#a88a4a;}.cls-41{fill:#e6d07b;}.cls-42{fill:#a08246;}.cls-43{fill:#f7f7f8;}.cls-44{fill:#bfa459;}.cls-45{fill:#312817;}.cls-46{fill:#eee2ad;}.cls-47{fill:#c3a85c;}.cls-48{fill:#eed980;}.cls-49{fill:#b29652;}.cls-50{fill:#2d2414;}.cls-51{fill:#a18448;}.cls-52{fill:#ab904e;}.cls-53{fill:#cab063;}.cls-54{fill:#1c170d;}.cls-55{fill:#353131;}.cls-56{fill:#edd980;}.cls-57{fill:#251e11;}.cls-58{fill:#231c10;}.cls-59{fill:#d6bd6b;}.cls-60{fill:#443823;}.cls-61{fill:#7c693b;}.cls-62{fill:#635630;}.cls-63{fill:#766237;}.cls-64{fill:#eee0a1;}.cls-65{fill:#1f190e;}.cls-66{fill:#5e4b2b;}.cls-67{fill:#e2ca75;}.cls-68{fill:#040303;}.cls-69{fill:#e9d37b;}.cls-70{fill:#322817;}.cls-71{fill:#f4eac1;}.cls-72{fill:#c4ab5e;}.cls-73{fill:#201b0f;}.cls-74{fill:#31291a;}.cls-75{fill:#2e2718;}.cls-76{fill:#332b1a;}.cls-77{fill:#604d2b;}.cls-78{fill:#f6f0d8;}.cls-79{fill:#150f11;}.cls-80{fill:#3d3938;}.cls-81{fill:#fcfcfc;}.cls-82{fill:#252021;}</style></defs><title>Recurso 1</title><g id="Capa_2" data-name="Capa 2"><g id="Capa_1-2" data-name="Capa 1"><path class="cls-1" d="M2.67,209.6A1.09,1.09,0,0,1,3,208c6.18,1.27,4.89,6.49,5.24,10.51.63,7.33-.23,14.73.62,22,3.08,7.74,6.51,15.27,11.71,20.44-2.48-6.88-5.63-14.56-6.94-22.87.11-9,.8-17.77,8.55-24,3.45-2.79,3.05-6.3,2-10.07C22,196.16,21,188.11,19.84,179.25c-4.21,6.37-5.83,13.29-9.06,19.41-1.16,2.18-2.36,5.72-5.24,4.51-2.68-1.13-1.45-4.48-.66-6.94a1,1,0,0,1,.35-1.6c1.34-1.53,1.17-3.55,1.77-5.32A.83.83,0,0,1,7.43,188c1.33-1.2.88-3.24,2.13-4.48v0C11,182,10.86,180,11.42,178.14c17.52-47,45.82-85.91,86.76-115.3a4,4,0,0,1,1.54,2.83c-.55,5.9-5.37,8.45-9.21,11.82-21.87,19.15-40.19,41.11-53.82,67C29.58,158,28.5,171.85,32,186.32c6.64,27.6,10.06,56.07,22.1,82.24,2.2,4.78,3.77,10.1-.76,14.44-4.73,4.54-10.26,3.08-15.54.83-7.49-3.18-13.45-8.9-22.85-14.14,5.89,4.09,9,7.13,10.77,11.32.16,6.1,4.61,9.57,8.32,13.5,9.89,13.31,22.55,23.95,34.14,35.61C73.43,335.43,80.4,334,86.92,334c4.06,0,7.89-1.58,11.92-1.83,8.41.76,16.69,2,23.91,6.85,3.15,2.16,7,3.33,9.42,6.51.35,1.89-.61,3-2.21,3.79-8.39,1.31-14.94-4.83-22.91-5.68-5.41-.58-10.67-1.84-16.08-.35-12,2-12.65,2.19-9.19,13.88,6.36,21.54,16.57,41.39,29.19,60,7.5,12.74,14.8,25.65,28.53,33,6.46,2.61,8.48-2.75,11.16-6.44,13.69-18.81,25.84-38.85,43.71-54.29,2.59-3.11,7-5,6.56-10.08a8.73,8.73,0,0,0-1.94-1.85c-6.72-5-17.5-2.88-21.63-12.36a4.38,4.38,0,0,1,1.71-2.71c9.5-2.72,18.11,2.08,25,6.27,13.14,8,26,5.81,39.43,3.89a25.85,25.85,0,0,1,3.27-.51,38.54,38.54,0,0,0,9.48-1.41,35.78,35.78,0,0,1,7.71-.91,25.63,25.63,0,0,0,7.23-1A20.53,20.53,0,0,1,274,368a40.34,40.34,0,0,0,8.22-1.44c1.32-.45,2.66-.82,4-1.2s2.7-.92,4.07-1.34a29.21,29.21,0,0,1,4.33-.9,50.84,50.84,0,0,0,7.49-1.74c31.52-4.8,60.12-18.12,89.07-30.43,2-.73,4-1.34,6-2.2.93-.5,1.88-.93,2.84-1.38,43-20.76,74.84-52.48,94.59-96.13,2.8-6.19,3.07-12.84,4.24-19.34,1.43-4.77.71-9.87,2.16-14.65.77-1.61,1.75-2.92,3.84-2.58,4.33,13.26,3.13,26.26-2.66,38.72a235.3,235.3,0,0,1-45.73,66c-5.1,5.2-4.85,8.31-.62,13.52,16.84,20.72,30.09,43.87,44,66.54,2.65,4.31,5,9.08,5.57,14.35,1,1.94.06,3-1.72,3.64-5.5-1.42-6.39-6.68-8.75-10.66-13.91-23.38-26.72-47.51-45.58-67.52-1.82-1.68-2.79-4.53-6-4.28a23.75,23.75,0,0,0-2.43,1.19c-14.57,10.71-31.81,16.47-47.13,25.77-34,16.11-69.74,26-106.51,33.49-22.14,4.48-44.44,7.19-66.72,10.24-13,1.77-19.9,10.4-26.78,19.63-3.36,4.5-.83,7.63,3.37,9.68,7.65,3.72,15.6,6.77,23.41,10.14,4.42,1.9,9,3.5,12.26,7.31,3.64,5.93,9.2,9.13,15.71,11a23.06,23.06,0,0,1,5.1,2.16c24.38,15.12,51.24,19.85,79.44,19.31,4.24-.08,11.45-.66,11.37,3.84-.11,5.89-7.32,4-11.74,4.34-4,.31-8.11.14-12,1.48-14.36,1.82-28.51,2.17-41.36-6.13-28.64-15.28-58.9-27.35-87.48-44.79,7.38,35.76,13.24,70.63,27.8,103.2a38.9,38.9,0,0,0,11.11,14.87C250,557.38,271.24,570,293,581.81c10.87,5.92,20.87,5.3,31.26-1.21,8.75-5.49,17.48-11,26.32-16.39,8.16-4.92,16.67-9.19,25.08-13.65,36.6-23.71,76.33-42.37,111.12-69,2.93-1.67,2.09-7.07,6.83-7,5.22,5.61,3.2,11.08-2.34,13.76-16.49,8-15.82,23.27-17.8,37.86-6.53,48.25-15.54,96-30.47,142.47-16.27,50.68-44,94.85-75.68,136.92-2.1.69-3-.61-3.66-2.25-.36-8.65,6.76-13.29,10.64-19.66,2.28-3.73,4.72-7.36,7.11-11,21.63-28.21,36.34-59.94,47.6-93.43,10.84-32.24,22.23-64.37,27.47-98.15,3.34-21.53,8.4-42.78,10.62-64.47.21-2,4.28-7.52-3.17-6.19-34.24,18.38-65.81,41.22-100.27,59.16-5.25,2.73-8.07,7.08-9.52,12.87-5.66,22.63-14.05,44.38-21.66,66.38-1.44,4.16-2.77,8.53-7.27,10.67a3.83,3.83,0,0,1-3.86-2.53c-1.74-7.78,2.31-14.35,4.76-21.16,6-16.63,12.1-33.19,16-51.72-14.35,5.39-26.19,18.25-42.94,12.28-6-2.32-10.87-6.67-16.83-9-15.07-6.41-27.48-17.23-41.69-25.08-2.19-1.22-4.62-3.76-7-2.19-3.3,2.17-.71,5.39.09,8C237,579,243.31,589,243.16,600.85c-1.58,12.87-9.49,23.1-14.68,34.43-2.68,5.86-3.27,10.22,1.65,14.75,21.3,19.58,38.54,42.64,55.84,65.62,3.16,4.19,6.5,4.05,10.61,2.61a4.54,4.54,0,0,1,3.59,3,20.56,20.56,0,0,1,1.06,6.41c-.4,7.5,3.07,13.53,7.56,19,13.51,16.54,20.18,36.59,28.76,55.65,4,8.8,4.52,17.76-.43,26.54-1.28,2.27-2.64,4.64.35,6.73,1.12,1,2.06,2.12,1.19,3.77-.8,4.27-4.15,5.73-7.68,7.1-8.27,3.21-12.77,10-17.29,17.23-20.37,32.52-45.19,61-77.28,82.57-8.06,5.42-17.39,8.08-26.8,9.84-8.17,1.53-14-3.42-19.16-8.91-27.35-29-49.28-61.45-62.71-99.31-9.24-26-20.62-51.41-23.62-79.28-.3-2.83-2-4.71-3.67-6.62-21.3-24.48-31-53.83-37.08-85.07C56.26,640.52,52.13,604,54.13,567c.18-3.16-.8-5.34-2.56-8-6.15-9.18-11.84-18.66-17.46-28.18s-7.33-19.22-2-29.45c6,1.05,3.87,6.86,6,10.16,1.68,4.41,3.3,8.86,4.8,13.33,2.83,8,5.07,19.21,11.58,21.67s12.77-7.91,18.56-13.16,15.44-6,18.62-14.61c.26-1,.59-2,.92-3a49,49,0,0,0,1.4-6.22c3.49-21.83,10.64-42.78,15.38-64.29,1.09-3.56,2.26-7.28-1.5-9.95-3.38-2.4-6.23-.07-9,1.72s-5.27,4.06-8.93,3.48c-6.11-3.36-1.34-5.7.82-8.22,3.23-3.76,9.35-4.87,10-10.94A12,12,0,0,0,98.33,415,221.17,221.17,0,0,1,85.6,396.38c-4-9.71-8.55-19.21-11.47-29.34-1.08-8.2-5.51-5.27-9.76-2.93-1.62-.61-2.81-1.44-1.89-3.44,8-13.39,3.51-22.24-7.54-32.72A289.36,289.36,0,0,1,11.1,275.17C-.28,257.55-1.37,238.78,1.07,219,2.72,216.08,1,212.56,2.67,209.6Z"/><path class="cls-2" d="M98.46,65.81c-.09-1-.19-2-.28-3a2.62,2.62,0,0,1,1-1.86,1.11,1.11,0,0,1,1.36-.93c24.74-18,49.94-35.33,78.71-46.5C199.34,5.74,220.49,1.74,241.84.48c43-2.53,84.93,4.94,124,22.75,33.93,15.48,66.27,35.1,88.92,65.77,21.69,29.37,40.92,60.54,49.4,96.89.65,2.82.48,5.85.69,8.78-.78,1-1.56,2-2.35,2.92-4.27-1-3.88-4.82-5-7.82C482,146.66,462.7,105.46,428,74.26c-16.64-15-34-29.85-55.58-37.94-26.23-13.44-53.91-23.41-83.19-25.57-33.14-2.45-66.67-2.23-98.81,8.3C174.61,24.21,160,32.56,145.3,40.28c-11,7.33-23.62,12-34.24,20.07C107,62.52,104,67,98.46,65.81Z"/><path class="cls-3" d="M7.34,243.53c-4.44-6.62-1.14-14.06-2.22-21-.75-4.84,2-10.19-2.16-14.52a19.5,19.5,0,0,1,1.92-11.75c.3,1.78.61,3.56,1,5.59,6.49-8.82,6-21.24,16.27-28.74,1.77,12.54,2.25,24.24,6.49,35.18,1.06,2.75,1.12,5.23-1.9,6.51-11.33,4.81-9.63,15.13-10.5,24.38A19.19,19.19,0,0,1,7.34,243.53Z"/><path class="cls-4" d="M502.88,396.82l2.5-3c1.93,3.71,4.13,7.31,4.51,11.62,2.07,5.4,2.78,10.82.09,16.25-10.28,8.11-16.43,19.79-25.23,29.18a2.08,2.08,0,0,0,0,3.14,5.4,5.4,0,0,0,.58,1.27c.83.89.72,2.28,1.64,3.12l2.91,5.71a1.13,1.13,0,0,1,.82,1.51l2.91,9.05c-3.25,2-.27,7.14-4.37,8.74a7.94,7.94,0,0,1-2.35-4.46,58.42,58.42,0,0,0-1.89-8.54c-4.61-12.93-6.52-14.11-20.05-11.19s-27.51,3.37-41.13,6a33,33,0,0,1-4.84.89,64.41,64.41,0,0,0-8.12,1.4c-2.34.23-4.56.06-6.23-1.91,1.14-7.85,7.76-8.18,13.3-8.93,12.42-1.67,24.44-5.8,36.89-6.63,18.25-1.21,29-12.63,38.57-26.11,1.67-2.4,4.87-3,6.53-5.48,1.23-.81-1.32-1.06-.23-.07.56.51.25.53-.61.87a8.35,8.35,0,0,1-3,1,4,4,0,0,1-3.15-2.88c-.19-5.78,5.22-8.15,7.5-12.43C501.92,402.42,500.52,399,502.88,396.82Z"/><path class="cls-5" d="M40.33,478.45c3.86-9.93,7.53-19.94,11.65-29.76,2.77-6.6,3.51-12.29-1.9-18.26-11.33-12.52-12-26.18-2.74-40.29,2-.62,2.94.56,3.65,2.13.93,7.7-4.07,16.49,4.21,22.83,5,6.56,12.9,8,19.71,11.33,1.31,1,2.15,2.25,1.54,4-4.17,3.36-9.11,1.93-14.28,2.29,2.93,5.7,6.61,9.3,13.56,8.1,3.65-.63,7-.16,5.55,5.11-2.53,2.94-6,4.31-9.46,5.66-9.18-1.87-14.13,2.17-16.88,10.89-2,6.29-5.81,11.93-7.71,18.37-1.06,3.63-3,6.81-7.16,7.73-1.79-.47-3-1.28-1.91-3.36.32-1.32.63-2.64.94-4C39.34,480.27,40.23,479.54,40.33,478.45Z"/><path class="cls-6" d="M365,803.25l2.35,2.4c-7.75,12.75-17.56,23.76-28.64,33.69-.91-1-1.83-1.94-2.75-2.9.24-7.85,7.81-10,11.64-15.09C353.8,815.75,355.77,806,365,803.25Z"/><path class="cls-7" d="M49.79,392.65c-.82-.83-1.63-1.67-2.45-2.51,3.92-10.41,9.32-20,15.14-29.47l2.21,2.7C64.49,375.55,58.87,385,49.79,392.65Z"/><path class="cls-7" d="M38.16,485.25c.76.86,1.51,1.73,2.27,2.6,2.23,8.92-.38,16.93-4.65,24.63-3.93-2.81.34-8.35-3.7-11.12C33.64,495.81,34.87,490.14,38.16,485.25Z"/><path class="cls-8" d="M510,421.66l-.09-16.25C515.58,410.8,516.47,416.21,510,421.66Z"/><path class="cls-3" d="M2.67,209.6c.25,3.28,1.45,6.72-1.6,9.44C1.12,215.81.31,212.44,2.67,209.6Z"/><path class="cls-9" d="M484.73,454c-1.58-1.06-1.61-2.11,0-3.14C484.75,451.88,484.74,452.93,484.73,454Z"/><path class="cls-9" d="M487,458.37a2.29,2.29,0,0,1-1.64-3.12C486.66,455.87,487.54,456.74,487,458.37Z"/><path class="cls-3" d="M7,189.31c.46,2.12.34,4.05-1.77,5.32C5,192.58,5.19,190.68,7,189.31Z"/><path class="cls-3" d="M9.56,183.49c.21,1.93-.28,3.53-2.13,4.48A4.37,4.37,0,0,1,9.56,183.49Z"/><path class="cls-3" d="M11.42,178.14c.46,2.17.34,4.14-1.87,5.37C9.5,181.49,9.58,179.51,11.42,178.14Z"/><path class="cls-9" d="M490.68,465.59c-1.15,0-1.25-.62-.82-1.51C490.69,464.29,491.35,464.58,490.68,465.59Z"/><polygon class="cls-10" points="100.5 60.05 100.16 60.98 99.14 60.98 99.54 60.04 100.5 60.05"/><path class="cls-7" d="M40.33,478.45a2,2,0,0,1-1.23,2.84Z"/><path class="cls-11" d="M374.13,34.34c19.61,6.92,34.56,21,50.62,33.27,21.52,16.5,36.59,38.44,48.74,62.07,9.43,18.32,20.82,35.89,26,56.21,1,3.9,2,7.8,2.93,11.7-1.6,4.87,2.43,10.33-1.57,14.94-2.18,5.35-6,9.66-9.17,14.36-3,4.29-7.78,6.86-11,11-.95,1-1.89,2.07-2.77,3.17a15.15,15.15,0,0,1-1.89,2.11c-3.15,2.63-8.1,2.86-9.82,7.4a14,14,0,0,1-4.42,3.89c-3,1.72-6.48,2.5-9.28,4.64-6.44,4.91-12.17,10.84-19.93,13.83-6.83,3.11-13.76,6.06-18.24,12.58a263.11,263.11,0,0,1-57.13,21.82,72.24,72.24,0,0,0-7.53,2.64,144.79,144.79,0,0,1-22.33,7.35c-1.5.36-3,.73-4.52,1a6.32,6.32,0,0,1-4.35-.83c-1.15-2.14.06-4.48-.51-6.7,8-3.9,13.47-10.43,19.12-17.1a274.26,274.26,0,0,1,25-25.65,11.18,11.18,0,0,1,2.67-3.53c15-12.91,14.88-12.85,5-29.66-10.32-17.57-23.45-32.18-41.58-42.08-13.21-7.21-25.33-7.37-38.48,1.12C258.31,214.14,231.83,239.56,209,269c-5.44,7-12.12,15.37-8.12,24s14.46,4.82,22.3,5.51c4.36.39,8.95-.69,12.91,2.12.95,7.27-7.68,5.55-9.34,10.79,8.43,2.23,12,12.34,21.29,14.34a5,5,0,0,1-.29,4.81,8.57,8.57,0,0,1-4.7,2c-7.13,0-14.79-4-21,2.85-6.55,3.36-13.69,1.7-20.55,2.44-21.74,2.34-43.46,5.38-65.37,2.06-4.65-.88-8.91,1.79-13.49,1.57-7.59-3.93-15.8-5.68-24.16-6.92-3.46-3.77-7.9-6.05-12.43-8.2-3.25-1.41-6.64-2.64-8.53-6-1.21-3-6.49-3.48-5.36-7.52.82-2.92,4.11-2.45,6.69-2.41,13,.2,13.6-.63,10.77-14.61a25.62,25.62,0,0,1-.76-5.15c.06-9.19-.63-18.39.49-27.54,4.33-22.86,3.09-46.44,8.45-69.12,7.34-31,17.37-61,37.57-86.56,2.46-3.11,4.79-7.42,9.57-6.14s4.73,6.08,5.78,10c1.79,6.59-.12,12.28-3.52,17.9-3,4.89-6.6,9.66-6.47,17.29,8.73-4.61,13.88-11.42,20-17,4.67-4.3,9.43-7.28,15.73-3,3.09,2.08,6.16,1.84,9.28-.28,21.76-14.74,42.27-30.63,58.92-51.5,7.62-9.54,3.5-18.82,4.07-28.21.17-2.68-4.2-2-6.69-1.86-4.75.28-9.41,2.21-14.26.82-2.24-.64-4.15-1.86-4.71-4.22-.64-2.68,1.47-4,3.31-5.12,4.12-2.58,8.78-4,13.34-5.39,23.21-7.2,46.18-15.88,71.36-10.29,6.42,1.42,13.28-.11,19.9.76C345.69,24.4,359.72,30,374.13,34.34Z"/><path class="cls-12" d="M364.94,803.25l-15.69,19.91c-2.45.74-3.48-1-3.79-2.73-5.42-31.45-24.18-56.22-41-82-2.23-3.41-3.9-7.06-5.77-10.63-1.37-2.1-.36-4.25-.13-6.38,7.2-21.5,13.16-43.52,26.23-62.57A580.9,580.9,0,0,0,352,579.56c1.26-4.7,2.76-8.09,7-10.29,35.64-18.6,68.05-42.69,103.92-60.89,3.62,3.67,2.59,8.18,2.31,12.57-3,46.74-15.85,91.23-29.91,135.62a613.13,613.13,0,0,1-40.94,98c-3.57,6.87-9.71,12.17-11.61,20Z"/><path class="cls-13" d="M502.82,405.7,494,417c-1.62,3.75-4.84,5.51-8.5,6.48-16.41,4.36-32.09,11.18-48.82,14.45-17.17,3.79-34.45,7.05-51.59,11-22.16,3.46-44.15,8.72-66.87,6.54-20.22.53-40.2-.36-58.7-9.93-3.89-6.25,2.36-6.28,5.2-8,9.46-5.71,19.88-10.19,24.61-21.38,1.3-3.07,3.42-6.08,3.3-9.35C292.13,392,302,385,313.58,381.55c25.88-7.76,48.46-21.89,71.8-34.64,3.5-1.91,7.77-3,8.58-7.84l48.93-26.61v0c5.88-4.76,4.88,2.41,7.05,4.07-.32,14.76.69,29.09,7.2,42.92,7.56,16,19,27.68,34.79,35.24C497,397.07,502.28,399,502.82,405.7Z"/><path class="cls-14" d="M251.84,927.29c-4.55-15.53-11.52-29.64-22.21-42.07-11.92-13.88-25.4-25.5-42.17-32.9-8.76-3.86-17.8-4.12-26.64.23-5.75-11.34-4.65-24.12-7.59-36.06-3.09-12.53-1.48-25.49-3.31-38.14-1.25-6.36-1.22-12.88-2.4-19.27,11-7.73,23.3-7.89,35.8-6,44.63,6.75,74.48,34.79,99.12,69.82,8.45,12,16.4,24.49,18.95,39.57,1.13,6.71.7,12.42-4.92,16.91C280.34,894.18,264.14,908.92,251.84,927.29Z"/><path class="cls-15" d="M192,679.62a1.91,1.91,0,0,1-.8,1.66,6.18,6.18,0,0,1-1.7,2l0,.05c-9.93-4.2-17.69-10.51-22.86-20.38-7.92-15.13-18.59-29.08-17.69-47.58-1.5,14-1.5,14-8.95,14.25-3.24-4.64-2.2-9.94-2.39-15-1.07-28.33,1.23-56.57,2.2-84.83.08-13.69.45-27.36,3.69-40.77,5.22.38,5.18.39,6.75,7,.63,2.67-.17,6.85,3.7,7,3.2.08,4.22-3.65,5.23-6.37,1.81-4.83,2.43-9.94,3.41-15a46.68,46.68,0,0,1,14.81-26.37c7-6.27,9.2-5.48,12,3.75C201.17,502.85,215,546,232,588.09c3.12,7.68,2.92,14.46-.94,22.11-11.45,22.7-22.78,45.44-37,66.61A5.36,5.36,0,0,0,192,679.62Z"/><path class="cls-10" d="M91.88,296.81c5.24,15,1.58,18.32-17.69,15.87-1.32,3.9,5.94,2.23,4.17,6.43-5.88,3.41-9.7-1.29-13.58-4-13.5-9.31-25.72-20.31-38.73-30.3-.22-.48-.43-1-.64-1.45-3.3-6.83-12-10-12.83-19.94,6.67,4.91,12.53,9.47,18.64,13.65,3.91,2.68,7.66,5.87,12.73,6.33,8.66.78,12.24-3.19,8.58-11.1-12.12-26.16-15.89-54.56-22.8-82.11-2.61-10.39-5.14-22-2.25-31.42A117.71,117.71,0,0,1,41.78,129c13.56-20.45,29.27-39,48.23-54.6,3.11-2.57,6.52-4.88,8.45-8.61l11.18-6.66c3.08,1.16,4,3.54,3.7,6.6a9.06,9.06,0,0,1-2.28,4.17c-.48.53-1,1-1.49,1.55-10.2,12.9-8.83,17.31,7.27,23.43-.31,7.15-2,14.23,2.45,21.12,2,3.09-.91,7-2.5,10.3-2.72,5.61-5.63,11.13-7.64,17.06-4.55,25.19-15,49-15.64,75.24-.34,14.18.11,28.52-1.63,42.7q-.1,15.57-.2,31.13c-5.51-.46-4.49-5-4.82-8.29-.63-6.2-.12-12.47-.69-18.71C82.79,278.17,83,291,84.67,304.13,89.87,303.27,88.85,298.28,91.88,296.81Z"/><path class="cls-13" d="M273.73,801.28c-14.6-13.95-28.14-29.07-46-39.27-20.28-11.58-41.83-17.7-66.5-16.76,11.11-18.22,21.76-35.66,32.4-53.1,2.69-2,4.54-4.82,6.8-7.24,12.32-13.18,26.39-16.8,42.87-8.35a708,708,0,0,1,56.91,71.66c11.72,16.76,19.86,35.18,28.44,53.51,3.94,8.42,4.12,16.37.09,24.35-5,9.86-10.14,19.65-16.9,28.47-7.53-1.47-6.51-8.83-9-13.58-7.16-13.82-14.92-27.07-27.1-37.18l.14,0A4.19,4.19,0,0,0,273.73,801.28Z"/><path class="cls-16" d="M418.38,463.69l4.23-.64c5.17.58,10.31.94,15.37-.77,3.92-1.33,7.65-1,9.3,3.28,1.5,3.87-1.62,6.2-4.29,8.13-13.62,9.85-29.39,15.59-44.54,22.35-33.48,14.95-60.27,38.38-85,64.67-4.47,4.75-5.68,11.06-8.5,16.6a7.39,7.39,0,0,1-7.38,1.2c-22.35-9.67-45.55-18.06-62.89-36.25-7.64-8-4.15-18,6.22-19.91a10.65,10.65,0,0,1,7.49,1.34c5.16,3.07,8.8,1.4,12.48-2.83,8.87-10.19,20.74-18.44,19.25-34.55a39,39,0,0,0-5.17-16.73c-1.92-3.28-1.5-6.06,3.52-3.9,13.1,7.11,27.36,6.65,41.6,6.4,26.82-1.64,53.51-4.73,80.21-7.64a10.12,10.12,0,0,1,5.39.93h5.43C413.36,464.13,416.2,465.33,418.38,463.69Z"/><path class="cls-17" d="M144.86,706.08c-1,5.34,1.81,10,2.76,15,.79,2.4,1.76,4.9-2.48,4.57h0c-.71-.78-1.64-1.43-1.76-2.61-24.27-39.65-35.06-83.84-45.4-128.57C89.33,557,99.57,522,106.4,486.36c2.68-14,7.23-27.61,11.34-42.94,8.81,7.46,16.11,14,25.35,17.53,1.29,2.08.75,4.4.88,6.63-.35,2.82.89,5.52.69,8.34a47.59,47.59,0,0,0-1.15,8.16c-.51,2.78-.59,5.62-1.23,8.38-2.62,3.9-.7,8.13-.89,12.22-.12,1.3-.3,2.58-.54,3.86C138.76,574.47,138.44,640.34,144.86,706.08Z"/><path class="cls-18" d="M278.45,465.68c-.95.53-3.72-.07-2.22,2.1,10.27,14.89,9.34,31.18-2.61,43.87-4.54,4.81-9.82,8.88-13.42,14.64-2.87,4.59-6.78,5.42-10.92,1.21-5.71-5.8-10.76-3.12-15.14,1.57-5.56,6,.48,9.1,3.74,12.67,13,14.26,31.13,20.09,47.57,28.62,6.09,3.16,12,7.55,19.61,6.45l1.26-.09c1.71-.11,3.43,0,5.14-.27,2.2-.36,4.33-1,6.46-1.56,1.2-.37,2.42-.71,3.6-1.13.73-.33,1.48-.61,2.22-.9,1.08-.48,2.15-1,3.2-1.54.7-.39,1.42-.73,2.14-1.07s1.41-.74,2.13-1.1,1.42-.71,2.14-1,1.41-.72,2.11-1.06,1.42-.69,2.14-1c1.06-.53,2.12-1.08,3.17-1.66.72-.43,1.47-.8,2.23-1.16a14.77,14.77,0,0,1,3.75-1.41,8.73,8.73,0,0,1,2.84.11c1.76.88,3.77,1.62,2.33,4.24-12.09,8.48-24.43,16.46-38.12,22.29-4.52,1.93-8,2-12.5,0-26.47-11.82-50.33-27.8-73.56-44.91-8.75-6.44-11.27-16.26-14.81-25.4-12.16-31.41-18-64.45-24.89-98.67Z"/><path class="cls-19" d="M394,339.07c1,2.07,5.91,3.92.49,6.38-24.44,11.14-45.64,28.78-72.16,35.76A57.47,57.47,0,0,0,310,386c-8.59,4.53-13.43,9.42-14.61,20.73-2.17,20.7-19.3,29.41-36.87,36.18-10.65,2.62-18.5-3.35-26.56-8.67-11.73-7.08-24.9-11-37.11-17.09-8.87-4.39-9.17-7-3.4-15,9.64-13.34,21.73-19.74,38.78-20.73,28.27-1.63,55.75-9.3,83.5-14.91C341.77,360.85,367.89,350.14,394,339.07Z"/><path class="cls-13" d="M283,585.61c6,1.75,11,5.2,16.06,8.64-2.85,4.15-8.45,4.52-11.5,8.43-6.73,8.61-10.1,18-7.17,29a184.06,184.06,0,0,0,7.9,21.92,195.6,195.6,0,0,1,13,53.46c.66,4.93-.72,9-4.88,12-2.88,2.89-4.59,9.46-9.91,1.71-18.16-26.41-39.94-49.84-61.78-73.17-3.38-3.61-3.39-5.27-.94-9.72,6.49-11.81,13.41-23.55,17.17-36.68,1.24-2,.84-4.27,1.22-6.4,2.71-15.07,8.12-18.58,22.94-14.18C271,582.4,277.19,583.39,283,585.61Z"/><path class="cls-10" d="M35.78,512.48c-.74-8.65,2.74-16.49,4.65-24.63,5.62-5.47,5.26-13.62,8.92-20,1.65-2.86,2.8-6,4.19-9,5.51-12,5.61-12,17.94-8.95,11.57.12,21.9-5,32.8-7.7,2.63-.65,6.72-4.45,8,1.87L96.1,512.35c-1.22,1.36-1,3.22-1.67,4.79h0c-5,4.41-10.84,7.57-16.16,11.51-15.64,11.59-23.77,10.85-37.36-3Q38.34,519,35.78,512.48Z"/><path class="cls-20" d="M205.2,949.77l-9.63-5.86c-4.68-10-14.21-16.3-18.68-26.9-7.69-18.21-11.54-37.34-16.69-56.17,7.54-9,17.9-6.11,25.4-2.78,29.47,13.07,50.71,34.5,59.86,66.34a11,11,0,0,1-.06,3.28C236.28,942.83,220.85,946.5,205.2,949.77Z"/><path class="cls-21" d="M300.17,707.83c-3.27-.45-4.26-2.68-3.93-5.53,2.3-20-7.95-36.85-13.6-54.84-1.64-5.24-3.95-10.28-5.43-15.56-4.78-17.12,5.52-34.68,21.85-37.65,12.7,3.75,22.78-2.9,33.14-8.38,4.17-2.21,8.3-4.51,13.41-7.28-3.3,27.88-16.13,51.85-23.17,77.52-1.78,10.14-6.56,19.19-10.48,28.55-.6,1.27-1.45,2.41-2.11,3.65-.4,1.28-.59,2.62-1.09,3.87a35.48,35.48,0,0,1-1.62,3.55c-.35.79-.74,1.55-1.11,2.32a27.82,27.82,0,0,0-1.29,5.1C303.89,705.37,303.08,707.63,300.17,707.83Z"/><path class="cls-22" d="M464.93,249.83c-.89-8.89,7.8-5.24,11.18-8.54,5-4.61,11.41-8,13.66-15.14,2.52-5.51,6.48-9.84,11.12-13.62,1.44,12.64-5.57,22.38-11.12,32.65-9.47,17.51-18.85,35.54-34.59,48-17.71,14-34.57,29.78-56.84,36.92-4.64-1.35-1-8.89-4.87-8.66-9.22.55-18.45-2.58-27.53,0-12.83,3.64-25,9.12-37.29,14.17A72.46,72.46,0,0,1,290,340c-2.21-4.33,1.61-4.83,4-5.47,4.49-1.22,7.68-3.59,9.42-7.89a7.62,7.62,0,0,1,2.1-2.17,30.49,30.49,0,0,1,5.46-2.22,22.81,22.81,0,0,1,4.09-.91,30.13,30.13,0,0,0,5.25-1.25,12.32,12.32,0,0,1,2.75-.56,7.45,7.45,0,0,1,4.17,1,4.62,4.62,0,0,1,1.28,2.61c-.09,1.67-1.22,2.65-2.37,3.62-1.16.79-2.89.74-3.71,1.61s-1.36.09-.5.07a7.16,7.16,0,0,0,5.37-2.67c4-5.39,12.71-2.47,15.9-9.17a17.59,17.59,0,0,1,.67-2.78,4.23,4.23,0,0,1,3.32-2.52c1.14-.2,2.42.05,3.32-.89-.14-1-.91-1.81-1.1-2.79,1.63-2.34,4.17-2,6.53-2.25,20.84-3.21,40.73-8.94,57.92-21.84,2.71-9.06,11.44-9.67,18.24-13,9.17-.84,15.42-5.82,19.59-13.77,2.41-2.77,6.15-2.65,9.12-4.19,1.66,1.06,3.19.65,4.79-.25C468.77,250.51,465.64,250.51,464.93,249.83Z"/><path class="cls-23" d="M87.92,712.25c-18.82-27.56-26.48-58.61-27.42-91.4-.49-17.25-3.24-34.43-1.64-51.75.26-2.88-.59-5.93,1.46-8.5,1.51,12.78,7.94,20.44,21.48,21.08,3.68.17,3.87,5.84,8,5.77,4.56,9.8,5.18,20.62,7.62,30.95,3.39,14.33,7,28.54,11.59,42.54,1.41,4.35,4.25,9,.35,13.59-7.3,11.79-14.75,23.51-16.46,37.75a2.3,2.3,0,0,1-3.11,2.07l-.1-.1A3.87,3.87,0,0,1,87.92,712.25Z"/><path class="cls-24" d="M305.09,326c.86,6.66-2.1,10.24-8.76,10.79-2.46.21-5.15-.29-6.8,2.3,0,8.63-3.45,15.2-12.23,17.26-12.58,2.95-22.34,10.57-32.19,18.17-8.18,3.53-17.43,1.12-25.66,4.75-2.51,1.1-4.51-1.29-6.67-2.76-10.36-7.07-22-10.85-34.33-12.93-5.15,1.92-9.61-.9-13.56-3-10.7-5.8-23.38-6.86-33.32-14.29-3-1.5-6.71-1.73-8.95-4.72,2.88-4.16,6.71-5.83,11.7-4.39,9,4.19,18.58,3.28,27.94,2.94,27.62-1,55.07-4.19,82.46-7.69,16.79-2.14,33.14-7,50.09-8.36C298.55,323.71,302.14,322.72,305.09,326Z"/><path class="cls-25" d="M405.65,465.37c-7.44,3.22-15.19,4.41-23.32,4.92-20.75,1.3-41.46,3.12-62.28,1.79,7.34-2.76,15.27-.83,22.77-3.24-12.15-2.51-24.61-1.47-36.83-2.11A88.29,88.29,0,0,1,270.38,457c-8.19-4.09-16.65-7.63-25-11.41,2.54-7.6,7.48-2.21,10.39-1.18,19.89,7,40.06,11.81,61.34,10.55.41,0,.86,0,.89-.06a2.79,2.79,0,0,0-.11-2.14c22.86,1.5,45.06-3.53,67.42-6.93,6.29,2.25,12-.75,17.89-2,12.42-2.55,24.95-4.6,37.23-7.8,18.73-4.38,36.4-12.59,55.6-15.28a2.33,2.33,0,0,1,.75,3.1c-5.5,6.88-11,13.7-16.46,20.64-3,3.87-7.45,4.66-11.68,5.5-15.82,3.13-31.55,6.7-47.57,8.82C415.58,459.56,409.17,459.41,405.65,465.37Z"/><path class="cls-26" d="M196.06,389.74c-17.54,18.44-32,39.23-46.52,60-2.84,4.08-5.82,8.42-11.09,2.63-7.59-12.9-15-25.89-18.4-40.7-1-4.24-2.86-8.41,0-12.62,3.19-.45,7,.77,7-5,.09-9.61,6.39-17.17,10.21-25.45,3.43-7.44,8.41-7.14,13.05,0,1.81,2.77,3,5.89,5.29,8.4,7.87,8.68,9.89,9,20.09,2.63,5.45-3.41,11.16-4.43,16.64-.86C196.06,381.13,199.15,384.62,196.06,389.74Z"/><path class="cls-27" d="M245.11,374.49c4.56-11.41,15.51-15,25.31-18.69,8-3,16.06-4.13,16.51-14.91,0-.64,1.7-1.22,2.6-1.83,23.5.6,44.42-8.53,65.5-17.19,8.43-3.46,16.91-7,26.4-3.14,2.68,1.08,5.75.17,8.59-.93,3.12-1.21,6.85-2.15,9.36.39,2.73,2.78-.6,5.18-1.76,7.74-.48,1.05.44,2.74.72,4.13l-.07,0c-1.09,1.4-3.14.9-4.3,2.16-29.88,13.6-59.54,27.86-92.81,31.45-2.17,1.44-5,.17-7.14,1.72l-3.89.51c-1.05.21-1.79,1-2.76,1.41l-4.26.69c-2.73,2.09-6.37-.16-9.1,1.92l-.9.44-1-.09c-2.08,1.56-4.81.32-6.95,1.62l-8.22.75c-3,1.52-6.55-.05-9.56,1.56Z"/><path class="cls-24" d="M142.41,630.27c6.29-6.85,0-15.86,4.73-24.57,3.74,7.89,6.42,15,6.78,22.83s2.19,14.48,8.18,19.78c2.84,2.51,3.61,6.35,5.37,9.54,3.95,7.13,5.84,16.3,15.92,18.15,4,.74,3.27,5.55,6.07,7.36-8,18.58-16,37.1-29.89,53.37a139.62,139.62,0,0,1-12.71-37.43C139.26,676.68,139.1,653.59,142.41,630.27Z"/><path class="cls-28" d="M196.06,389.74c-4.57-13-11.92-15.08-21.6-5.37-5.62,5.65-9,6.34-15.1,0-4.85-5.08-9.84-9.37-12.14-16.33-1.62-4.94-6.06-3.93-6.91-.24-2.38,10.35-12.07,17.88-10.86,29.51.28,2.66,1.37,6.54-2.35,7.72-4.9,1.54-3.36-5-6.5-6-4.47-1.81-4.43-5.85-4.82-9.69a26.09,26.09,0,0,0-1.23-7.83,26.48,26.48,0,0,1-.85-3.14,25.21,25.21,0,0,1-1-5.45c0-14-2.85-26.12-19.29-29.4-1-.19-1.53-1.53-2-2.55,9.13-4,17.41.73,25.9,2.69,4.16,1,8.1,2.86,12.14,4.33,17.52,2.59,33.08,10.55,48.85,17.93l24.55,10.89h0C207.49,384.77,199.05,385.82,196.06,389.74Z"/><path class="cls-29" d="M122.85,699c2.54,4.88,5.2,9.71,7.6,14.66,6.07,12.5,14.53,23,28.48,32.38-26.84,6.91-39.75,23.58-41.05,49.31-4.94-6.48-6.28-12.16-8.66-36-2-5.94.69-12.31-1.64-18.23l0-4.31a1.69,1.69,0,0,0-.08-2.36l0-4.32c1.59-9.27,3-18.61,8.77-26.47C118,701.48,119,698.25,122.85,699Z"/><path class="cls-30" d="M151.92,776.58c4.46,10.11,1.17,20.95,3,31.44,2.49,14.73,6.64,29.35,5.95,44.53-6.75,6.44-11.17,14.14-12.14,23.92-4.35-2-5.21-5.81-6.93-8.86-9.43-16.79-14-35.46-20.07-53.5-4.8-14.3,4.32-26,9.72-38.15,5.44,9.55,8.35,20,11.52,30.46,1.46,4.81,1.7,10.13,6.6,15.36-.91-11.87-.88-22.38-.7-32.89C148.9,784.61,148.11,780,151.92,776.58Z"/><path class="cls-31" d="M91.43,341c5.78,1,10.66,4.89,16.89,4.82,3.93,0,5.91,3.14,5.58,6.86-.86,9.68,2.7,18.93,2.39,28.52-1.71,6.53-1.3,13-.2,19.62,1.17,7,1.33,14.1-6.42,18.16a191.11,191.11,0,0,1-32.75-69c-1.75-7-.28-9.43,6.81-8.74A55.24,55.24,0,0,0,91.43,341Z"/><path class="cls-32" d="M382.76,774.49c-2-1.28-1.79-2.76-.7-4.63,20.4-34.93,37.43-71.27,48.58-110.34,6.34-22.24,15.94-43.63,21.19-66.08,4.65-19.87,8.61-40.23,8.8-60.93.07-8.11,3.37-15.91,2.28-24.13,2-1.5,4.14-4.52,6.45-3.42,3.87,1.83,1.84,6,1.4,8.92-8.52,57.6-19.45,114.56-40,169.42-11.81,31.52-25,62-45.6,88.94A19.1,19.1,0,0,1,382.76,774.49Z"/><path class="cls-33" d="M502.82,405.7c-2.95-3.78-6.65-6.09-11.21-8-30-12.4-47.32-46.72-44.28-76.67a5.65,5.65,0,0,1,2.62-4.54c19.61,17.91,30.35,42,44.33,63.81,3.33,5.2,5.76,11,8.6,16.5C502.46,399.78,506,402.77,502.82,405.7Z"/><path class="cls-34" d="M189.41,459c-2.75-5.57-5.37-7.63-10.65-1.68-7.31,8.22-12.61,16.82-13.94,28.1-.84,7.1-1.89,14.58-7.47,20.37-4.31,4.47-6.19,3.15-8.69-1.73-2.68-5.22.61-11.2-2.84-16.09-4-5.61-.9-10.64,1.29-15.75.38-10.65,4.32-19.41,11.62-27.52,8-8.9,14.44-19.22,22.79-28.95C183,430.52,188.18,444.37,189.41,459Z"/><path class="cls-35" d="M73.56,427.59c-7.25-2.17-15.65-2.12-19.78-10.29-1.25-2.71-2.52-5.55-1.59-8.53,4.57-14.48,10.48-28.37,19.09-41a4.41,4.41,0,0,1,4.77-2l11.62,30.18c1.33,8.83,1.88,17.87,6.8,25.76C88.85,428.47,81.06,427.53,73.56,427.59Z"/><path class="cls-36" d="M89.81,587.45l-.71,5.77C83,580.74,72.51,580.72,60.32,581.8V560.6c-.36-8.9,7.17-12.41,12.29-17.32,4.21-4,9.38-7,14.34-10.67,4.35,4.11,4.11,9,3.27,14.22C88.06,560.33,86.34,573.88,89.81,587.45Z"/><path class="cls-37" d="M151.92,776.58c.53,15-2,30.06,1.7,44.93.52,2.09.71,4.57-1.9,5.65-2.42,1-4.22-.33-5.61-2.22a8.75,8.75,0,0,1-1.56-2.89c-3.72-15.55-11.39-30-13.15-46.09a58.16,58.16,0,0,1,16.12-16.88C155.71,763.23,149.84,770.9,151.92,776.58Z"/><path class="cls-38" d="M298.71,727.84c10.75,8.82,16,21.65,23.65,32.72,9.33,13.58,16.13,28.57,22.56,43.8,2.67,6.3.09,13.26,4.33,18.8l-13.34,13.28c-2,.4-3.2,3.19-5.76,2-.18-.36-.57-.87-.47-1,13.37-17.69,6.63-34.53-1.9-51.48-7.1-14.11-13.11-28.77-23.75-40.88C299.87,740.39,297.1,734.64,298.71,727.84Z"/><path class="cls-39" d="M283,585.61c-6.62.28-13.08,0-19.54-2.18-12.37-4.21-12.88-3.77-18,7.93-1.44,3.31-3,6.57-4.55,9.85-1.2-12.34-7.18-23.18-10.67-34.8-.95-3.16-4.74-7-.53-10,3.54-2.53,7.21.52,10.15,2.3C254.37,567.45,268.65,576.59,283,585.61Z"/><path class="cls-40" d="M489.52,479l-.3,4.35c-35.64,26.36-75.13,46.45-112.89,69.37a4,4,0,0,1-1.47-3.85,8.7,8.7,0,0,1,1.19-2.72,22.39,22.39,0,0,1,3-3.49c9.87-8.55,21.68-14,32.78-20.56,21.59-12.81,42.76-26.33,63.82-40C479.75,479.48,483.76,474.82,489.52,479Z"/><path class="cls-41" d="M160.2,860.84c4.28,1.47,4.48,5.24,5.28,8.88,3.57,16.14,7.78,32,14.7,47.19A87.5,87.5,0,0,0,193.88,938c1.29,1.52,5.38,2.74,1.69,5.89C179.34,931,168.39,913.76,158.71,896,152.6,884.79,151.2,872.18,160.2,860.84Z"/><path class="cls-42" d="M243.28,676.56c-18.18-4.42-33.66-.61-45.54,14.69-.66.85-2.72.62-4.13.9,3.3-16.95,17.38-27.81,23.72-45.43Z"/><path class="cls-43" d="M27.62,217.73c11.37,19.66,12.46,41,22.47,59.57C26.51,273,15.17,244,27.62,217.73Z"/><path class="cls-44" d="M86.68,323.88c4,3.51,12.32,2.22,11.78,10.7-15.83,6.11-29.31,3.57-40.63-9.9C49.3,314.54,39.1,305.85,31.3,295a2.52,2.52,0,0,1,.15-2.85c7.41-.14,11.13,6.12,16.22,9.76,10.65,7.61,20.62,16.19,33,21.08C82.63,323.78,84.39,325.52,86.68,323.88Z"/><path class="cls-45" d="M142.41,630.27c.39,23.08.69,46.16,4.45,69-2.29,1.78-1,4.61-2,6.78-6.71-22.12-7.11-45-7.2-67.75-.18-44.19.67-88.39,1.1-132.59,5.75,1.49,2.26,6.05,2.89,9.15.87,4.24-1,8.8,1.16,13-.72,25.75-1.58,51.49-2.09,77.25C140.55,613.52,139.89,622,142.41,630.27Z"/><path class="cls-46" d="M109.67,419c4.16-7,5.31-13.91,2.81-22.09-1.57-5.11-3.16-11.89,3.81-15.69v0c1.78,1.9.33,4.66,1.8,6.64.51,3.8.55,7.72,2.52,11.19,1.28,15.83,8.25,29.66,15.05,43.6,1.44,2.94,5.56,5.5,2.8,9.76C124.39,445.11,116.14,432.8,109.67,419Z"/><path class="cls-47" d="M40.92,525.61c15.44,12.23,29.38,8.76,42.63-3.89,2.92-2.79,6.51-4.83,10.89-4.57.35,5.22-.92,8.21-6.8,10.6-13,5.3-22.43,16.11-33.81,25.94C50,543.88,43.13,535.91,40.92,525.61Z"/><path class="cls-48" d="M76.05,365.76c-10.57,15.82-19.57,32.32-22.27,51.54-9.7-6.86-6.29-15.84-4-24.65,4.72-9.88,11.45-18.75,14.9-29.28,2.46-2.9,2.36-7.66,7.09-9.43A23.81,23.81,0,0,1,76.05,365.76Z"/><path class="cls-18" d="M80,445.3c0-1,.09-3-.93-2.57-12.48,5.2-16.68-4.38-23-12.73,7.26-.5,13.67,1.37,19.93-.13,8.33-5,17.9-6.09,27-8.72,4.21,4.28-.72,5-2.66,7-3.62,3.69-10.27,4.45-10.74,11.16C88.19,444.26,85.41,446.93,80,445.3Z"/><path class="cls-49" d="M89.8,714.35c2.92-15.05,6-30,19.57-39.82-1.52,7.09-2.45,14.38-4.69,21.24-2.84,8.73-4.91,17.42-3.67,27.73C95.87,721.05,92.19,718.56,89.8,714.35Z"/><path class="cls-12" d="M80,445.3l9.61-6c4.2-.71,6.8-4,10.12-6.14,3-1.95,6.77-4.18,10-1.26,3.45,3.12,6.91,7,2.58,12.13-9-.53-16.77,4.15-25,6.55-5.55,1.61-10.62,2.51-15.74-.72A19.13,19.13,0,0,1,80,445.3Z"/><path class="cls-50" d="M317.89,452.75l5.68,2.91c-20.91,3.58-40.11.06-59.28-6.42-5.89-2-11.58-8.15-18.91-3.66-5.55-2.49-11.88-4.08-13.4-11.34l26.56,8.67A145,145,0,0,0,317.89,452.75Z"/><path class="cls-51" d="M275.74,803.79c7.42.13,10.11,6.25,13.91,11,9.67,12,15.58,26.09,22.17,39.8l-4.1,7.5C303.91,838.54,287.56,822.4,275.74,803.79Z"/><path class="cls-52" d="M82.86,712.37a48.7,48.7,0,0,0,14.73,16.17c8.93,6.12,4,15.69,3.84,24.28a138.21,138.21,0,0,1-21.25-38C79.69,712.54,80.69,711.83,82.86,712.37Z"/><path class="cls-53" d="M251.84,927.29c-.41-4.19.3-7.78,3.59-11,12.37-12.09,24.5-24.42,36.75-36.64,1.29-1.3,2.7-2.78,4.29-.27a2.22,2.22,0,0,1-.85,1.79,4.85,4.85,0,0,1-1.72,2.06l-.1.09a16.26,16.26,0,0,1-2.08,2.23l0,0a16.83,16.83,0,0,0-2.07,2.39l.05-.06a11.72,11.72,0,0,0-2.35,2.15h0c-.78.71-1.52,1.45-2.23,2.22h0a31.13,31.13,0,0,0-2.22,2.23h0a9.53,9.53,0,0,0-2.12,2.48C272.93,908.82,264.42,920,251.84,927.29Z"/><path class="cls-52" d="M122.85,699c-7.93,9-11.47,20.11-15.27,31.12,1.63-16-1-32.63,7.81-48.83C118.6,687.73,121.92,692.82,122.85,699Z"/><path class="cls-54" d="M300.17,707.83c.89-2.22,1.79-4.43,2.68-6.65,1.42-1.14,1-3.18,2.12-4.45l0-.09c1.44-1.06,1.09-2.85,1.72-4.24.31-1.21.61-2.42.91-3.63a6.55,6.55,0,0,1,1.56-3.08c5.38-9.43,6.59-20.72,13.24-29.58l2.37,2.78c-8.66,20.89-14.9,42.8-26.23,62.57l-2.19-2.39Z"/><path class="cls-55" d="M7.34,243.53c.72-6,5.32-4.1,8.86-4.38,2.77,8.95,5.53,17.91,8.67,28C14.53,261.48,10.6,252.75,7.34,243.53Z"/><path class="cls-56" d="M94,421c-11.12-6.07-8.79-15.53-6.3-25,5.46,5.44,8.67,12.47,13.11,18.63C102.22,420.65,100,422.83,94,421Z"/><path class="cls-57" d="M142.81,527.88c-5.42-6.64,1-15.44-4.05-22.14l-.06-2.32c2-3.81,0-8.17,1.65-12l.58-7.75c1.58-2.08.24-4.85,1.65-7,.2-2.85.39-5.69.58-8.54.29-1,.85-1.16,1.69-.63.43,1.73.43,3.67,2.26,4.72L145.82,488C142.63,501.11,144.32,514.62,142.81,527.88Z"/><path class="cls-58" d="M178.32,365.94C161.4,361.69,146,353.45,129.47,348l2.1-1.79c16.55,3.29,31.7,10.35,46.88,17.33C178.41,364.35,178.37,365.14,178.32,365.94Z"/><path class="cls-59" d="M205.2,949.77c14.16-6,29.5-9.81,40.2-22.09.89,1.69,1.49,3.52.47,5.24C240.75,941.58,216,951.78,205.2,949.77Z"/><path class="cls-16" d="M376.18,547.91l.15,4.84q-12.21,6.71-24.41,13.42c-.8-2.17-2.6-2.65-4.63-2.74C354.78,554.27,364.27,548.84,376.18,547.91Z"/><path class="cls-60" d="M94,421c3.61-.7,7.35-1.26,6.81-6.39,2.64,1.56,2.31,4.1,2.19,6.58-7.85,6.47-18,5.73-27,8.72l-2.42-2.28C79.67,423.25,87.82,425.18,94,421Z"/><path class="cls-61" d="M145.14,725.61l2.48-4.57c2.44,2.86,2.71,6.42,3.59,10.83C147,731.2,145.24,729.27,145.14,725.61Z"/><path class="cls-62" d="M82.86,712.37l-2.68,2.49c-2.44-2.67-3.24-5.94-4.49-10.61C80.73,706,81.2,709.72,82.86,712.37Z"/><path class="cls-52" d="M107.58,741.14c3.31,5.83,1.79,12.09,1.64,18.23C106.43,753.5,107,747.32,107.58,741.14Z"/><path class="cls-63" d="M31.8,292.38c-.17.88-.33,1.76-.5,2.64-7.45-7.61-7.45-7.61-5.89-11.63l-.24-.06C27.52,286.24,32.81,287,31.8,292.38Z"/><path class="cls-24" d="M247.38,374.24c2.78-3,6.27-1.69,9.56-1.56C254,374.93,250.63,374.09,247.38,374.24Z"/><path class="cls-24" d="M274,370c2.51-3.15,5.95-1.83,9.1-1.92C280.43,370.34,277.16,369.88,274,370Z"/><path class="cls-24" d="M265.16,371.93c1.89-2.36,4.47-1.79,6.95-1.62C270.1,372.15,267.67,372.19,265.16,371.93Z"/><path class="cls-15" d="M144.85,467.51c-.57.19-1.13.4-1.69.63,0-2.4,0-4.79-.07-7.19C147.05,462.24,144.3,465.32,144.85,467.51Z"/><path class="cls-24" d="M294,365.43c1.91-2.53,4.57-1.92,7.14-1.72A8.27,8.27,0,0,1,294,365.43Z"/><path class="cls-22" d="M394,332.26c.91-1.75,2.52-2.14,4.3-2.16A4.39,4.39,0,0,1,394,332.26Z"/><path class="cls-47" d="M94.43,517.14c-.76-2.06,0-3.58,1.67-4.79A4.41,4.41,0,0,1,94.43,517.14Z"/><path class="cls-24" d="M189.5,683.31c.57-.67,1.13-1.35,1.7-2A1.83,1.83,0,0,1,189.5,683.31Z"/><path class="cls-49" d="M87.92,712.25l1.78,2C88.49,714.14,87.78,713.57,87.92,712.25Z"/><path class="cls-61" d="M143.38,723c1.34.36,2.08,1.12,1.76,2.61A2,2,0,0,1,143.38,723Z"/><path class="cls-24" d="M192,679.62c.71-.94,1.41-1.88,2.12-2.81C193.41,677.74,192.71,678.68,192,679.62Z"/><path class="cls-51" d="M273.73,801.28a2.57,2.57,0,0,1,2.15,2.55Z"/><path class="cls-24" d="M287.37,367.35l2.76-1.41Z"/><path class="cls-14" d="M293.9,883.23l1.72-2.06Z"/><path class="cls-14" d="M291.72,885.55c.69-.74,1.39-1.48,2.08-2.23C293.11,884.07,292.41,884.81,291.72,885.55Z"/><path class="cls-14" d="M289.62,888l2.07-2.39Z"/><path class="cls-14" d="M287.32,890.07l2.35-2.15Z"/><path class="cls-14" d="M285.09,892.29l2.23-2.22Z"/><path class="cls-14" d="M282.88,894.52l2.22-2.23Z"/><path class="cls-14" d="M280.76,897l2.12-2.48Z"/><path class="cls-52" d="M107.53,734.47c1.46.74,1.52,1.52.08,2.36C107.58,736,107.56,735.26,107.53,734.47Z"/><path class="cls-30" d="M107.35,141.32c.67-5.69,4.37-10.08,6.48-15.16s6.7-9.1-.43-15.21c-4.73-4.06,1.06-10.8,2.83-16.21,1.22-2.37,3.53-3.23,5.78-4.18A25.88,25.88,0,0,0,127.18,88c7.12-4.69,13.58-10.28,20.55-15.16,1.2-.91,2.41-1.8,3.56-2.79,6.16-5.78,12.27-11.58,16.58-19,3.5-6,1.54-8.45-5.08-9.34s-14,3.73-19.84-2.55c29-18.6,60.27-29.49,95-32,37.67-2.7,74.08,1.3,109.41,14.33C356.6,25,365.22,30,374.13,34.34c-.94,1.79-2.83,3.28-4.34,2.15C358.47,28,343.7,30,331.74,23.57c-22.85-2.14-45.75-7.34-68.42,1.2a20.4,20.4,0,0,1-7.64,1c-9.94-.17-19.33,3.14-27.35,8-16.12,9.74-33.48,17.66-48.8,28.18-26.16,18-48.19,40.73-60.88,70.92C116.63,137.61,115.2,143.94,107.35,141.32Z"/><path class="cls-64" d="M143,39.19c5.78,1.86,11.53-.74,17.31-.1,4.5.51,10.26-2,12.82,3.54,2.14,4.57-1.86,8-4.13,11.73a64.85,64.85,0,0,1-17.19,18.13c-.75.7-1.48,1.42-2.18,2.16-7.59,5-13.9,11.75-22.26,15.62-1.18,1.3-3.29.73-4.41,2.17l-6.68,2.3c-5.12,1-11.16,2.12-14-2.85-3.14-5.47-2.84-11.94,1.66-17.47,1.82-2.23,2.56-5.37,5.72-6.39,3.21,16,9,18,23.47,8.29a116.28,116.28,0,0,0,22.48-19.41c1.71-1.92,3.64-4,2.34-6.82-1.45-3.19-4.5-3.64-7.51-3.36-9.2.85-16.2,6.43-23.65,11.13-4.76,3-8.18,8.7-15,7.89l-2.13-6.6C118.85,49.35,131.72,45.64,143,39.19Z"/><path class="cls-9" d="M376.18,547.91l-28.89,15.52c-.72,0-1.44.06-2.17.05-.73.76-1.61,1.35-2.27,2.18q-1.08.06-2.16.06a29.12,29.12,0,0,0-2.29,2.16c-.71,0-1.43.06-2.14.06a24.88,24.88,0,0,0-2.3,2.17c-.71,0-1.43,0-2.15,0-.75.74-1.62,1.34-2.3,2.15l-2.18.05-2.27,2.13-2.2.08c-.73.72-1.48,1.43-2.24,2.12-3.78.35-7.08,3-11.09,2.28-1.19-1.35-3.23-.91-4.46-2.17h0c-3.24-9.09,3.23-14.76,8.16-20.11,30-32.6,65.14-58,107-73.34,8.06-3,14.62-8.45,22.22-12.14,1.8-.88,4.18-2.58,3.26-5.08-1.08-2.95-4.11-2.93-6.66-2.4-5.57,1.15-11.14,4.58-16.42-.69,17.59-3.39,35.57-4.58,52.91-9.31,2.53-.69,4.51-.39,5.57,1.9,3.49,7.54,9.5,14.2,8.43,23.39-2.6,0-5,.21-7.34,1.83-33.51,23.32-69.44,42.78-103.75,64.85a29.16,29.16,0,0,0-2.25,2.2Z"/><path class="cls-65" d="M496.11,420.65c-17.95,7.15-36.52,12.22-55.34,16.45-2.2.85-4.43,1.77-4.22-2.13A515.7,515.7,0,0,0,494,417l2.13,2c.57.38.75.74.54,1.09S496.31,420.65,496.11,420.65Z"/><path class="cls-66" d="M496.11,420.65a5.36,5.36,0,0,1,.06-1.6c2.79-2.14,5.59-4.27,10.61-8.1-2.84,7-7,9.52-10,12.92Z"/><path class="cls-25" d="M418.38,463.69c-2,2.57-4.65,2-7.3,1.67C413.19,463.4,415.73,463.3,418.38,463.69Z"/><path class="cls-67" d="M107.35,141.32c10.29-3.54,11.55-13.82,14.75-21.77,5.38-13.37,15.23-23.08,24.64-32.89,4.13-4.3,9.16-7.5,12.58-13,5.36-8.7,14.73-13.58,23.64-17.5C197.89,49.55,211,40.3,225,32.17c9.16-5.35,19.81-7.59,30.83-9.44C269.93,20.35,283.87,19.64,298,19c8.36-.41,16.43,3.11,25,.85,2.23-.58,6.54.77,8.72,3.76a326.53,326.53,0,0,1-33-1.89c-18.67-2-36.16,5.31-53.87,10-7,1.85-13.63,5.19-21.12,8.12,3.25,4.93,7.43,4.29,11,3.1a34,34,0,0,1,12-1.54c5.55.14,13.57-1.17,5,7.94-1.35,1.44-2.5,3.5-.95,4.9,8.87,8,1.23,14.91-2.67,20.06C234,92.79,218,109.62,197.18,121a31.35,31.35,0,0,0-7,5.34c-5.41,5.41-10.34,10-17,1.14-2.81-3.73-5.94-.32-8.33,1.95-6.68,6.36-13.37,12.7-19.91,19.19-1.86,1.85-3.26,4.41-6.32,2.32a5.65,5.65,0,0,1-2-7c2-5.13,3.78-10.76,7.22-14.87,5.42-6.5,5.53-13.07,3.59-20.5-.55-2.13-.21-4.91-2.63-5.63-3.11-.91-4.15,2.23-5.82,4-13.32,14.44-19.55,32.65-27,50.24C101.41,182,97.31,207.83,95.85,234.51c-.48,8.84-.13,18.27-4,26.81-5.86-20,2.8-40.43-1.93-60.47-.72-3,1.69-5.53,2.84-8.21,5.21-12.24,8.09-25.16,9.83-38.21C103.29,149.44,104.47,145.23,107.35,141.32Z"/><path class="cls-68" d="M236.2,301.39c-9.6-.19-19.22,0-28.79-.67-10.29-.73-13.43-5.93-10.22-15.8,5.45-16.78,17.86-28.86,29.3-41.26a312.06,312.06,0,0,1,65.25-54.19c11.32-7,22.83-6.92,33.74-1.37C350,200.59,366.92,220.79,379,245.2c2.66,5.36,2,10-2.72,13.84s-9.2,7.31-13.8,10.95a5,5,0,0,1-1.59,2,33.8,33.8,0,0,1-3.49,1.94,19.35,19.35,0,0,1-2.7.88c-1.88.87-3.53,2.12-5.35,3.11-34.62,14.37-70.79,22-108,24.94A6.84,6.84,0,0,1,236.2,301.39Z"/><path class="cls-69" d="M356.18,272.72a1.52,1.52,0,0,1,1.64-.59c1.1-.15,1.83-1,2.81-1.43a2.07,2.07,0,0,1,1.89-.71c1,.7,1.79,1.93.75,2.64-13,8.68-23.22,20-31.56,33-3.25,5.08-9.72,2.89-13.3,6.76-5.28,4.78-12.09,4.41-18.48,5.69-13.23,2.64-26.35,5.8-39.68,7.93-4.26.69-8.67,1.7-12.93-.28-5.37-.67-12,2.85-13.58-7.25-1-6-9.75-2.56-15.36-5.53,5.63-5.66,12.26-7.82,17.82-11.56,17.63-3.5,35.59-4.64,53.23-8.44,21.23-4.58,41.72-11.3,62.14-18.41C352.88,273.36,354.82,273.78,356.18,272.72Z"/><path class="cls-70" d="M305.09,326c-21.67,1.56-42.72,7.45-64.28,9.56-35.17,3.44-70.34,7.73-105.81,5.84-2-.1-4.37,1-6.16-1.35,1.91-1,3.69-2,5.48-2.91,29.73,2.2,59.2-.4,88.56-4.85,6.44-4.78,13.83.78,20.46-1.88l3.93-.54c13-7.12,27.85-6.07,41.75-9.19,9.56-2.14,19.38-4.44,29.43-3.35l4.45-1c1-.33,1.73-1.25,2.82-1.42l23.68-7.3c1.68.48,4-.11,4.44,2.51-1.88,1.51-3.71,3.16-6.44,2.6l-2.58,1.07c-3.69,6.14-10.24,5.41-16,6.66-2.1-.19-4.25-.84-6.1.81l-2.24.45c-1.49.8-3.31.69-4.76,1.65l-4.18.77c-1.44.57-3.17.34-4.36,1.58l-1.09,0Z"/><path class="cls-71" d="M91.88,296.81c-.09,2.57,0,5.16-.29,7.71-.38,3.34-2.26,5.52-5.79,5.32a5,5,0,0,1-4.93-5c-.28-15.72-1.62-31.56,3.91-46.78.33-.93,1.4-1.58,2.66-2.94,3.8,4.76,1.61,10.05,2.21,14.79,1,7.5-2,15.36,2,22.59C91.75,293.91,91.81,295.36,91.88,296.81Z"/><path class="cls-72" d="M318.45,317.3c-6.69,4.89-14.87,3.38-22.3,4.83-16.18,3.17-32.57,5.21-48.88,7.71,0-1.37,0-2.74,0-4.11,23.64-4.71,47.12-10.34,71.09-13.34C320.83,314,318.47,315.66,318.45,317.3Z"/><path class="cls-73" d="M31.8,292.38l-6.63-9.05c12.51,4.94,21.65,14.63,31.7,22.94,6.58,5.45,13.34,10.21,21.49,12.84a17.83,17.83,0,0,0,8.32,4.77c-.78,6.65-4.27,1.66-5.85,1C62.47,317.13,47.18,304.66,31.8,292.38Z"/><path class="cls-27" d="M413.85,283.5c1.58.35,4.85,1.23,2.27,2.76a155.51,155.51,0,0,1-57.29,20.57c-.87.13-1.93-1-2.9-1.49C375.78,299.5,394.94,291.83,413.85,283.5Z"/><path class="cls-74" d="M451.68,256.73c1.38.49,5.09.21,3.09,2.39-6.42,7-14.23,12.65-23.52,14.93-2.31.57.39-2.28.84-3.55Z"/><path class="cls-75" d="M489.77,226.15l2.12.14c-3.64,6.71-6.74,14-15.78,15a2.39,2.39,0,0,0,.56-1.51,3.29,3.29,0,0,1,2-2.74C481,232,486.8,230.51,489.77,226.15Z"/><path class="cls-72" d="M243.34,330.38c-6.59,3.13-13.56,2.15-20.46,1.88C228.91,323,236.52,331,243.34,330.38Z"/><path class="cls-76" d="M464.93,249.83c3-.36,4.08-4.28,8.66-3.71a21.49,21.49,0,0,1-10.51,9.8c-2.54,1.19-2.34-1.64-2.28-3.38Z"/><path class="cls-72" d="M325.72,314.89l-2.82,1.42Z"/><path class="cls-22" d="M478.7,237l-2,2.74A2.58,2.58,0,0,1,478.7,237Z"/><path class="cls-77" d="M436.55,435c.81,1.88,2.67,1.69,4.22,2.13-15.4,5.55-31.61,7.47-47.54,10.63-2.6.52-5.91,1.27-7.92-1.91Z"/><path class="cls-33" d="M442.9,312.44l.92.55-.93-.53Z"/><path class="cls-78" d="M111.77,65.75c8.41-5.93,16.1-12.92,25.4-17.55,3.27-1.63,6.62-3.43,10.14-4.18,5.11-1.09,10.56-1.46,14,3.82,3.88,5.94-1.55,8.7-4.66,11.92-9.22,9.56-18.74,19-31.52,23.63-4.8,1.74-10.32,4.76-15.39-.77-4.64-5.07-.7-9.74-.15-14.59Z"/><path class="cls-45" d="M140.35,491.4c-.08,4.07,1.71,8.4-1.65,12C138.27,499.28,138,495.16,140.35,491.4Z"/><path class="cls-15" d="M142.58,476.68a7.62,7.62,0,0,1-1.65,7A6.58,6.58,0,0,1,142.58,476.68Z"/><path class="cls-16" d="M305.07,576.8c1.83,0,3.5.35,4.46,2.17C307.68,579,306,578.65,305.07,576.8Z"/><path class="cls-16" d="M334,570.11l2.3-2.17Z"/><path class="cls-16" d="M320.62,576.69l2.24-2.12Z"/><path class="cls-16" d="M325.06,574.49l2.27-2.13Z"/><path class="cls-16" d="M329.51,572.31l2.3-2.15Z"/><path class="cls-16" d="M338.4,567.88l2.29-2.16Z"/><path class="cls-16" d="M342.85,565.66l2.27-2.18Z"/><path class="cls-13" d="M305,696.73a5.6,5.6,0,0,1-2.12,4.45C302.81,699.34,303.22,697.71,305,696.73Z"/><path class="cls-13" d="M306.73,692.4a4,4,0,0,1-1.72,4.24C305,695,305.25,693.45,306.73,692.4Z"/><path class="cls-13" d="M309.2,685.69l-1.56,3.08Z"/><path class="cls-24" d="M327.3,325.72v-4.44c5.68-2.46,11.21-5.51,17.77-4.44,1.05,5-2.53,5.81-6,6.59C335.18,324.31,331.23,325,327.3,325.72Z"/><path class="cls-24" d="M328.67,325.18c-3.89,5.72-7,8.27-11.92,6-1.27-.58-2.62-2.3-1.59-3.49C318.53,323.79,323.27,326.63,328.67,325.18Z"/><path class="cls-27" d="M345.07,316.84c-6.11.71-11.39,4.77-17.77,4.44h0c-.73-.43-1-.85-.71-1.26s.5-.61.75-.61l17.48-5.64Z"/><path class="cls-27" d="M347.4,312.7c1.94-1.38,3.84-2.85,6.44-2.6C353,314.15,351.06,315.57,347.4,312.7Z"/><path class="cls-24" d="M307.22,325.69a4.47,4.47,0,0,1,4.36-1.58C310.47,325.6,308.87,325.72,307.22,325.69Z"/><path class="cls-24" d="M315.76,323.34a5,5,0,0,1,4.76-1.65C319.34,323.39,317.59,323.49,315.76,323.34Z"/><path class="cls-24" d="M327.34,319.41c0,.62,0,1.24,0,1.87l-4.54,0A4.55,4.55,0,0,1,327.34,319.41Z"/><path class="cls-31" d="M118.08,387.86c-2.28-1.76-1.85-4.25-1.8-6.64C118.64,383,118.41,385.4,118.08,387.86Z"/><path class="cls-26" d="M202.87,376.83l-.93.95c.05-.19.05-.45.18-.56a3.32,3.32,0,0,1,.75-.39Z"/><path class="cls-16" d="M376.18,547.91l2.25-2.2Z"/><path class="cls-10" d="M122.91,92.44c.92-1.84,2.58-2.17,4.41-2.17C126.39,92.08,124.72,92.4,122.91,92.44Z"/><path class="cls-10" d="M149.58,74.65l2.18-2.16Z"/><path class="cls-79" d="M256.24,274.65c-.05-2.35,1.49-4,2.39-6,6.24-13.82,8.58-26.71-8.5-37.92,14.4-13.07,27.48-27.29,44-37.48,12.43-7.65,25.67-5.35,39.22,6.48,4.94,4.31,10,8.36,15.31,12.25,14.12,10.34,22.83,24.43,23,42.69-13.21.3-25.77-4.44-39.2-3.95-24.23.88-46.48,6.53-66.19,21C263.33,273.88,260.33,276.21,256.24,274.65Z"/><path class="cls-80" d="M365,261.25c-20.63,13.51-44.13,19.17-67.71,24.41-12.11,2.69-24.39,4.6-36.59,6.87-3.49,1.07-7.51,2.75-9.58-1.59-1.62-3.38,1.16-6.28,3.36-8.72,11.27-12.48,26.43-18.19,41.63-23.88,19.05-7.12,38.71-8.42,58.63-5.81C359.28,253.12,367,252.13,365,261.25Z"/><path class="cls-81" d="M220.5,290.44c-12,0-16.83-7.89-10.87-18.2,5.76-10,13.87-18.14,21.34-26.77,1.66-1.92,3.85-4,6.16-4.62,5.39-1.44,10.87-5.95,16.6-1.31,5.11,4.14,3.86,9.87,2.93,15.35C253,276.46,238.85,290.39,220.5,290.44Z"/><path class="cls-82" d="M365,261.25c-2.22-6.9-8.34-6.1-13.53-6.54-29.46-2.5-56.74,4.54-82.39,18.92-5,2.79-8.63,6.81-12.53,10.66-1.73,1.71-4.86,3.36-3.72,6.16,1.4,3.46,5.21,1.37,7.87,2.08-6.32,4.64-13.38.49-21.38,2.94,4.08-9.75,12.88-13.39,16.89-20.82,10.54-6.4,20.09-14.18,32.07-18.52,27.8-10.06,55.37-12.33,83.37-1.47A12.64,12.64,0,0,1,365,261.25Z"/><path class="cls-11" d="M356.18,272.72c-1.08,1.75-2.74,2-4.61,1.82A5.13,5.13,0,0,1,356.18,272.72Z"/><path class="cls-11" d="M360.63,270.7l-2.81,1.43Z"/></g></g></svg>