<svg xmlns="http://www.w3.org/2000/svg" viewBox="0 0 781.48 943.63"><defs><style>.cls-1{fill:#5c566d;}.cls-2{fill:#141211;}.cls-3{fill:#080103;}.cls-4{fill:#1a161e;}.cls-5{fill:#262727;}.cls-6{fill:#222223;}.cls-7{fill:#201f22;}.cls-8{fill:#292a2a;}.cls-9{fill:#151211;}.cls-10{fill:#252428;}.cls-11{fill:#262627;}.cls-12{fill:#2e2d2e;}.cls-13{fill:#333433;}.cls-14{fill:#433a54;}.cls-15{fill:#1e1d20;}.cls-16{fill:#262528;}.cls-17{fill:#171515;}.cls-18{fill:#2a272d;}.cls-19{fill:#2d2c2e;}.cls-20{fill:#383226;}.cls-21{fill:#272529;}.cls-22{fill:#2b292f;}.cls-23{fill:#3a393d;}.cls-24{fill:#353537;}.cls-25{fill:#2c2c2d;}.cls-26{fill:#1f1e21;}.cls-27{fill:#332d24;}.cls-28{fill:#393a39;}.cls-29{fill:#2c2b2c;}.cls-30{fill:#2c2c2e;}.cls-31{fill:#5d5f5e;}.cls-32{fill:#28241b;}.cls-33{fill:#232324;}.cls-34{fill:#3f3f40;}.cls-35{fill:#48494b;}.cls-36{fill:#1c1c1e;}.cls-37{fill:#414142;}.cls-38{fill:#444445;}.cls-39{fill:#343336;}.cls-40{fill:#28282a;}.cls-41{fill:#515253;}.cls-42{fill:#424242;}.cls-43{fill:#3e3832;}.cls-44{fill:#525554;}.cls-45{fill:#292929;}.cls-46{fill:#1d1b20;}.cls-47{fill:#444446;}.cls-48{fill:#1d1919;}.cls-49{fill:#464549;}.cls-50{fill:#3b352a;}.cls-51{fill:#535655;}.cls-52{fill:#242425;}.cls-53{fill:#453c2b;}.cls-54{fill:#424146;}.cls-55{fill:#474748;}.cls-56{fill:#62583c;}.cls-57{fill:#636364;}.cls-58{fill:#504835;}.cls-59{fill:#59595b;}.cls-60{fill:#4a4a4d;}.cls-61{fill:#eaecf1;}.cls-62{fill:#1c180d;}.cls-63{fill:#d6dade;}.cls-64{fill:#5b556c;}.cls-65{fill:#c29c53;}.cls-66{fill:#696779;}.cls-67{fill:#5c566e;}.cls-68{fill:#9493a1;}.cls-69{fill:#92919f;}.cls-70{fill:#8f8e9c;}.cls-71{fill:#e3e8f0;}.cls-72{fill:#b5c0bf;}.cls-73{fill:#e3c45c;}.cls-74{fill:#e2e7ee;}.cls-75{fill:#e2e8ee;}.cls-76{fill:#e6c85c;}.cls-77{fill:#b4b7c5;}.cls-78{fill:#92919e;}.cls-79{fill:#d1ac54;}.cls-80{fill:#080204;}.cls-81{fill:#534f4d;}.cls-82{fill:#b3b6c3;}.cls-83{fill:#e1e6ee;}.cls-84{fill:#5f5971;}.cls-85{fill:#e9edf2;}.cls-86{fill:#e6c75d;}.cls-87{fill:#656077;}.cls-88{fill:#5d586f;}.cls-89{fill:#d3af57;}.cls-90{fill:#c4c1be;}.cls-91{fill:#3b3636;}.cls-92{fill:#c8a254;}.cls-93{fill:#eacc5c;}.cls-94{fill:#e3e8ef;}.cls-95{fill:#bec1cd;}.cls-96{fill:#9796a5;}.cls-97{fill:#565150;}.cls-98{fill:#8d8c9a;}.cls-99{fill:#edd992;}.cls-100{fill:#2c2c2f;}.cls-101{fill:#8b8784;}.cls-102{fill:#363021;}.cls-103{fill:#27241f;}.cls-104{fill:#e8d48d;}.cls-105{fill:#464030;}.cls-106{fill:#3e3d3f;}.cls-107{fill:#615c74;}.cls-108{fill:#8f8d9e;}.cls-109{fill:#534e4d;}.cls-110{fill:#393434;}.cls-111{fill:#1e1b15;}.cls-112{fill:#e1c35c;}.cls-113{fill:#e9ecf0;}.cls-114{fill:#9493a0;}.cls-115{fill:#ebeef1;}.cls-116{fill:#4c4161;}.cls-117{fill:#c19e4f;}.cls-118{fill:#1a1b1b;}.cls-119{fill:#b6c2c1;}.cls-120{fill:#fafbfb;}.cls-121{fill:#ebeef4;}.cls-122{fill:#4d4d4e;}.cls-123{fill:#5b6060;}.cls-124{fill:#9faaa9;}.cls-125{fill:#92909e;}.cls-126{fill:#6a667c;}.cls-127{fill:#9594a2;}.cls-128{fill:#d8dcda;}.cls-129{fill:#e4e8f0;}.cls-130{fill:#e8ca5b;}.cls-131{fill:#3e3e40;}.cls-132{fill:#e1e6ec;}.cls-133{fill:#ead380;}.cls-134{fill:#30231b;}.cls-135{fill:#252425;}.cls-136{fill:#d6dbda;}.cls-137{fill:#91909d;}.cls-138{fill:#fafafa;}.cls-139{fill:#6b6a7d;}.cls-140{fill:#b5b5bd;}.cls-141{fill:#e5e9f1;}.cls-142{fill:#dde1e9;}.cls-143{fill:#cba555;}.cls-144{fill:#bbbac2;}.cls-145{fill:#d0d0d1;}.cls-146{fill:#e1c25b;}.cls-147{fill:#eedfa5;}.cls-148{fill:#e4e8ec;}.cls-149{fill:#b5b8c6;}.cls-150{fill:#dfe3ea;}.cls-151{fill:#dfe3eb;}.cls-152{fill:#dee2e9;}.cls-153{fill:#9695a3;}.cls-154{fill:#574524;}.cls-155{fill:#e2e7ef;}.cls-156{fill:#dee2ea;}.cls-157{fill:#b5b8c4;}.cls-158{fill:#525457;}.cls-159{fill:#323134;}.cls-160{fill:#e9d58d;}.cls-161{fill:#837e7c;}.cls-162{fill:#252526;}.cls-163{fill:#4d4f51;}.cls-164{fill:#181718;}.cls-165{fill:#777e7c;}.cls-166{fill:#1b1b1d;}.cls-167{fill:#757478;}.cls-168{fill:#f5ecc9;}.cls-169{fill:#241610;}.cls-170{fill:#281e10;}.cls-171{fill:#4d3a23;}.cls-172{fill:#583b28;}.cls-173{fill:#535457;}.cls-174{fill:#1c1b1c;}.cls-175{fill:#f5eabc;}.cls-176{fill:#ca7976;}.cls-177{fill:#faf2f2;}.cls-178{fill:#6f6c6e;}.cls-179{fill:#b4464e;}.cls-180{fill:#e09287;}.cls-181{fill:#e5a69d;}.cls-182{fill:#f4e4e5;}</style></defs><title>Recurso 2</title><g id="Capa_2" data-name="Capa 2"><g id="Capa_1-2" data-name="Capa 1"><path class="cls-1" d="M219,744.89l0-19.9c5.92,3.8,1.31,9.69,2.83,13.46,2-22-8.17-42.34-13.8-63.63a8.7,8.7,0,0,1,.87-3.32c25.77-27.17,36.14-60.89,41.52-96.85,1.13-7.52-1.86-14.41-1.88-21.68,1.79-3.74,2.34-8.21,6.2-10.77,5.19-.91,8.23-4.29,10-9,2.8-7.33,8.43-11,15.45-14.11,20.18-9.07,39.82-19.2,55.55-35.43a17.44,17.44,0,0,0,4.56-7.2,9.46,9.46,0,0,1,1.55-2.73c15.13-11.17,28.24-24.21,37.75-40.62a17,17,0,0,1,6.09-6.2c2.37-1.41,4.78-1.84,7.09.09s2.26,4.5,1.17,7c-2.06,4.74-5.55,8.58-8.69,12.58a209,209,0,0,0-23.77,38c-5,10.34-11.69,19.37-21.28,26-12,8.45-26.17,12.12-39.6,17.33-7.43,2.88-14.83,5.72-22.07,9.08-7.72,3.59-8.89,8.6-5.27,15.75,3.11,6.17,6.21,12.44,2.9,19.61-3,13.13-5.3,26.32-4.94,39.85.48,18.33-8.65,33.72-16.26,49.2-17.35,35.32-19.53,71.46-9.07,108.87.1,1.87,1,3.47,1.64,5.18,2.85,7.7,1.32,11.71-7.93,13.45-32.11,6-62.43,17.14-90.47,34.22-6,3.65-11.11,8.21-16.37,12.72-4.91,4.19-7.75,1.45-7.81-3.53a26.94,26.94,0,0,1,4.11-15.53c2.12-1.86,1.52,5.49,5.94,1,10-10.24,23.91-15,37-19.83,13.49-5,23.2-14.17,33.06-23.62a24,24,0,0,1,1.76-2.38c2.74-3.2,6.48-5.8,6.36-10.72C214.91,755.7,220.48,751.55,219,744.89Z"/><path class="cls-2" d="M339.43,508.25c10-7.74,16.92-17.85,22.09-29.27,7.27-16,18.13-29.7,28.8-43.49,1.6-2.07,4.65-4.55,1-7.31-3.51-2.65-5.58.52-7,2.78-7.81,12.79-16.55,24.8-28,34.58-4.54,3.87-8.49,9-15.36,9.08,0-.5,0-1-.05-1.52,2.81-6.76,9.66-9.5,14.44-14.29,9-9,16-19.48,23.33-29.79,1.62-2.29,2.24-4.45.71-7-3.38-7.88-11.16-13.65-11.11-23.17a4.19,4.19,0,0,1,2.84-3.33c4.18.67,5.18,4.33,6.93,7.31.69,1.27,1.35,2.56,2.08,3.83.55.8,1.06,1.63,1.59,2.45,3.46,4.85,8.07,8.62,12.11,12.91a28.48,28.48,0,0,0,3.22,2.56c.8.43,1.55.93,2.3,1.43s1.52,1,2.26,1.54c.41.23.78.49,1.19.72.86.42,1.68.86,2.54,1.3s1.8.81,2.69,1.25c14.54,7.41,29.87,8.71,45.76,6.19,7.8-1.23,12.84-3.64,11-13.49-1.52-8.1,2.65-11.64,10-8.47,5.92,2.56,6.74-.13,8.14-4.19a144.45,144.45,0,0,0,4.24-15.84c4-18.16-3.66-30.14-19.76-37.73-.45-.29-.87-.6-1.32-.88s-.83-.63-1.26-.94c-6.21-6.05-14.2-8.72-22.05-11.71-3.84-1.46-7.84-3.74-7.22-8.46.66-5,5-6.91,9.66-7.33a103.3,103.3,0,0,1,20.85.1c-8.33-6.89-20.31-9.36-28.73-17.79.26-1.92,1-3.13,3.21-2.24l3.79-1.83a3.18,3.18,0,0,1,3-.65c10.39,6.61,20.19,14.6,31,20,16.73,8.4,34.9,14.91,52.87,1.47a3.69,3.69,0,0,1,3.72,2.12c.75,3.51-4.34,5-2.94,8.68,1.72,1,3.59.93,5.4,1.17a20.81,20.81,0,0,1,2.95.46c3.13.75,6.24,1.56,9.34,2.37,18.45,4.8,18.45,4.8,23.57-14,1.27-4.62-1.11-6.66-5.22-7.8-3.77-1-8-1.38-10.08-5.59a4.3,4.3,0,0,1,3-3.43,15.06,15.06,0,0,1,8.52.06c20.66,5.09,39.09-.11,56.06-12.09a6.29,6.29,0,0,1,4.89-.13A4.44,4.44,0,0,1,632,301.6c-.77,6.52-6.7,7.5-11,10.33-3.89,2.56-10,2.59-10.6,9a52.44,52.44,0,0,0,2.28,6.18c8.16,19.26,7.58,21.56-9.14,34.8-3.23,2.55-5.34,5.91-7.72,9.14-6,8.14-11,9.82-19.67,4.86-22.25-12.82-45.83-12.57-70.08-8.66-6.8,1.1-9.87,4-7.9,10.95-1.46,5.07-3.33,10.08-2.63,15.53,0,1.61,0,3.21-.09,4.82-2.63,8.26.45,12.37,8.8,14.82,29.16,8.55,50.81,27.5,68.61,51.38,2.26,3,4.88,5.48,8.49,6.52,27.61,8,54.44,18.43,82.19,26a15.67,15.67,0,0,1,3.16.84c14.71,4.2,19.43,16.48,23.6,29.21,1.14,5.89,5.59,11.32,2.54,17.8a3.39,3.39,0,0,1-3.13.7c-6.56-5.15-7.77-13-9.68-20.27-2.36-8.94-7.26-14.39-16.29-17.23-27.43-8.64-54.12-19.54-80.74-26.55,6.1,17.45,17.24,33.77,15.94,54.06-5.06,2.37-6.47-1.77-8.51-4.78-7.45-34.92-21.92-65.83-50.75-88.49a22.29,22.29,0,0,1-2.49-1.81c-1.58-1.3-3.07-2.69-4.62-4-10.43-7.65-22.14-12.56-34.54-15.84-3.35-.88-7.34-2.51-10.16,1.15-3,3.91-1,7.63,1.28,11.05,8.45,12.66,15.45,26.63,30.35,33.5a11.12,11.12,0,0,1,4.64,4.53c3.23,5.14,8.59,8.88,10,15.24.61,2.74,2.91,5.86.06,8s-5.22-.93-7.49-2.48a22.76,22.76,0,0,0-4.75-2.58c-12.23-10.11-20.06-23.81-29.44-36.23-3.29-4.35-6.56-8.73-9.64-13.24-.64-.78-1.21-1.61-1.78-2.45a24.22,24.22,0,0,1-1.59-2.56,81.43,81.43,0,0,0-4.9-8.45c1.06,5.35,3.65,9.62,5.8,14.06.49.85.94,1.73,1.38,2.6.76,1.28,1.53,2.54,2.37,3.77,7.87,16,18.56,30.27,27.85,45.4,9.41,17.35,26.07,27.2,40.53,39.35,14.28,12,28.2,24.36,37.09,41.21,3.39,6.44,8.57,10.7,15.16,13.59,7.05,3.09,12.49,7.63,12.78,16.17-.64,3.51-1.47,6.82-6.21,6.19,0-8.46-1.59-15.17-11.76-17.6-5.49-1.31-5,2-6.37,4.46-2.72.56-3.18-1.5-3.87-3.3-.35-1.38-.56-2.79-.89-4.17a17.92,17.92,0,0,0-1.92-3.81c-14.27-28.74-40.38-45.84-64.15-65.25-13.57-11.22-30.09-15-46.75-16.19-19.49-1.42-39.25-2.33-58.61,2.48a14.19,14.19,0,0,1-7.06.12c-1.76-.64-3.09-1.68-3.29-3.71,1.14-2.29,3.19-3.42,5.42-4.35,3.4-1.16,6.9-2,10.36-3,17.47-4.21,35.14-3.17,52.81-2.13,10.79,3.1,23,1.27,32.47,8.95.73.69,1.28,2,2.11,2.09,1.11.14,1.3-.33.42-.31a1.88,1.88,0,0,1-1.64-1.05,78.52,78.52,0,0,1-15.57-22c-6.07-12.3-15.58-16.11-28.21-15.14-16,.15-31.45,3.29-46.79,7.31a71,71,0,0,0-10.17,4.4c-10,4.08-17.5,11.74-25.72,18.37-13.7,12-21.41,26.81-21.59,45.22a4.85,4.85,0,0,1,1.79,3.56c-.5,3.66-2,6.71-5.28,8.64-2.47.72-3.51-1.6-5.24-2.47a1.52,1.52,0,0,1-1.49-.87c-.17-4.11,2.13-7.93,1.33-12.11.21-13.78,2.55-27,9.75-39a3.4,3.4,0,0,1,4.07-1c9.38-4.54,14.54-14.26,23.55-19.26,7.86-5.37,16.79-8.75,25-13.45,8.31-3.06,16.7-5.85,25.51-7.17,3.8-.15,7.63,0,11.29-1.33a27.41,27.41,0,0,1,4.75-.8c7.11-.41,14.26.09,21.69.23-4.78-13.16-5.73-13.73-17.13-10.4-13.6,4-27.22,3.24-40.86.38-4.74-2.27-9.47,1.37-14.22,0a6.86,6.86,0,0,1-1.79-2.38c-3.07-7-6-3.55-9.64-.23-11,10.11-18,23.06-24.46,36.05C363,491.11,354.71,502,346.05,512.82,342.51,513.22,339.43,513,339.43,508.25Z"/><path class="cls-3" d="M545.49,670.6a74.05,74.05,0,0,1-17.43,13.73,3.44,3.44,0,0,1-1-2.84c2.15-7.59,9-12.77,9.24-21.74.43-20.36-11.31-33.07-25.71-44.4-6.88-5.43-15-8.85-22.58-13.27a11.3,11.3,0,0,1-4.21-4.57c0-1.66.88-3,2.41-3.13,14.41-1.18,17.69-13.52,23.35-23.34,2.39-4.14.06-6.89-4-8.39-14.81-5-29.6-10.07-45.16-12.27-9.29-2.94-19.38-.33-28.52-4.19a3,3,0,0,1-.89-3.29c8-4.27,16.43-4.93,25.27-3.45a282.48,282.48,0,0,1,52.49,14.24c27.67,12,49.17,30.3,60.42,59.15,1.73,4.43,2.57,9,3.55,14.49,3.34-2.65,4.06-7.38,8.25-8.2,1.81.41,3,1.2,2,3.29a91.14,91.14,0,0,1-16,25.77c-4.26-.27-3-2.89-2.64-5.52C560.2,653.47,548.8,659.23,545.49,670.6Z"/><path class="cls-4" d="M348,146.26c-1,4.31-6.61,7.94-2,13.1,1,1.49.81,3.36,1.64,4.89a1.77,1.77,0,0,0,.42,1.7c1.17,1.34.8,3.3,1.9,4.68l2.38,6.24c.94,2.19-.42,2.65-2.13,2.85-5-1.77-5-7.52-8.29-10.78-5.86,10.53-5.86,10.53,6.81,13.26,1.39,1,2.23,2.16,1.45,3.93-1.95,1.79-4.44,2.2-6.9,2.37-7.95.53-12.21,4.8-13.18,12.59-1.77,5.61-1.68,11.73-4.68,17-7.2,3.81-10,2.6-9.74-4.78.16-5.37,1.64-10.67,1.4-17-9.3,2.79-17.1,7.48-24.48,13-.87.65-2.22,1.5-2.15,2.33,1.1,14.18-12.32,13.05-19.41,18.56-2.72-.26-3.34-2.1-3.36-4.41,3.59-6.62,3.18-12.71-.92-19.3-10.35-16.63-15.91-35.85-27.63-51.78a7.92,7.92,0,0,1-1.41-2.81,2.92,2.92,0,0,1,1.59-2.49c6.1-1.51,9.51,2,11.74,6.82a107.82,107.82,0,0,1,6,14.72c.23.34.38.59.41.65a3.35,3.35,0,0,1-.51-1c-3.14-8.83-6.3-17.56-11.69-25.22a22.14,22.14,0,0,0-2-1.77c-2.15-1.36-4.29-.34-6.44.07a9.74,9.74,0,0,1-6-.62c-1.44-1-2.23-2.22-1.43-4,11.18-6.56,19.11-5,25.9,5.24,3.87,5.82,5.82,12.48,8,19,4.05,12.05,8.23,24,14.76,35.08,3.23,5.48,6.23,6.3,11.07,2.29a33.5,33.5,0,0,1,11.39-6.33c16.62-5,23.8-17.39,27.63-33.19,1.48-6.12.22-8-5.75-7.87-3.55.07-7.38.34-10.07-2.92,0-2,1.26-3,2.88-3.8,5.62-1.77,11.43-.95,17.15-1.22,10,1.62,10.31,2.82,3,14.09,5.87-4,3.32-13.81,11.58-15.61.25-.05.63.31.89.54C348.45,144.83,348.45,145.48,348,146.26Z"/><path class="cls-5" d="M210.24,473.45c-4.48,21.87-21.5,33.94-37.14,46.84-32.31,26.63-65.5,52.18-97,79.76-20.77,18.17-40.79,37.23-62.89,53.84-1.74,1.31-3.35,2.8-5.12,4.05-2.05,1.45-4.18,3.37-6.82,1.23-2.26-1.83-.83-3.95-.23-6,3.8-12.88,7.83-25.68,13.7-37.8a2.16,2.16,0,0,1,2.87.13c2.65,6.14-.33,11.46-2.44,16.92a22.73,22.73,0,0,0-2.91,8.4,22.41,22.41,0,0,1-.85,2.9c1.41.23-3.7,5.58,1.16,2.08,14.79-10.68,28-23.36,41.69-35.38,32.08-28.15,64.42-56,98.66-81.49,10.58-7.88,19.57-17.47,29.92-25.58,21.23-16.61,23.1-34.42,8.4-61-2.27-4.09-10-9.07-4.72-12.41s9.48,4.6,12.55,9.36c4.37,6.79,7.05,14.39,9.38,22.1C209.6,465.34,212.23,469.05,210.24,473.45Z"/><path class="cls-6" d="M630.75,301.74l-.29-3.26c.72-3.87,4.77-5.39,6.17-8.73.93-1.07-.47.31.54-.75a6.09,6.09,0,0,0-.65.9c-2.47,2.91-4.21,6.77-9,6.44a2.8,2.8,0,0,1-1.79-2.31c3.4-9.52,12.66-14.7,17.08-23.79,5.07-10.41,6.18-20.13.95-30.34-10.31-20.12-19.22-40.91-30-60.84-16.17-29.84-30-60.94-47.41-90.13a16.74,16.74,0,0,1-2.54-7.17c.15-1.73.56-3.25,2.72-3.32,6.51,6.16,6.59,17.14,15.91,21.2a6.65,6.65,0,0,1,2.15,2.2c3.29,12,10.86,20.14,22.48,24.55.3,1.83-.65,2.93-2.15,3.72a5.94,5.94,0,0,1-7-1.86c4.49,11.37,10.57,21.35,16.06,31.65,2.78,5.22,5.59,7.2,11.13,4.08,7-4,11.71-1.11,14.92,5.63,3.31,6.92,7.11,13.6,10,20.71.41,1,.74,1.93,1.06,2.92a40.4,40.4,0,0,0,2.55,5.75c2.61,5.2,5.34,10.32,7.59,15.69,2.75,6.52,3.23,12.66-2.32,18.06-4.2,4.07-3.45,8.87-3,14.14,1.74,19-5.11,35.57-16.11,50.59C637.85,300.19,635.17,303.31,630.75,301.74Z"/><path class="cls-7" d="M628.68,600c5.83,11.91,15.14,21.28,23.46,31.29,36.56,44,54.78,95.42,62.28,151.43,2.48,18.47,3.81,36.12-1.39,54.84-4.41,15.88,2.76,32.27,7.84,47.88,2.7,8.29,6.23,16.33,6.88,25.17.54,2.39,1.26,4.86-2.29,5.58-7.49-11-9.56-24.06-14.14-36.17-6.39-18.79-6.51-37.85-2-56.95,3.42-14.32.23-28.23-2.08-42.16-3.21-19.37-8.55-38.31-12.2-57.58-4.75-15-12.07-29-18.43-43.31-.5-.87-.93-1.78-1.35-2.69a36.93,36.93,0,0,0-3-5.11C662.59,654,650,637.8,635.76,622.81c-4.17-7.17-11.62-12.92-9.92-22.67A2.11,2.11,0,0,1,628.68,600Z"/><path class="cls-8" d="M446.62,306.28l-2.3,0c-.15-8.78,4.44-16.12,7.3-24,1.67-.16,2.46.93,3.16,2.15.7,1,1.81,1.48,2.75.72,14.67-11.9,31-21.6,45.49-33.73,5.74-4.8,7.86-10.17,7.18-18.06-1.72-19.83.94-39.8-1.07-59.65-1-.86-2.08-1.71-1.05-3.21q2.12-3.37,4.22-6.75c2.08-.87.93-7.62,5.89-3.22,2.45,5.18,1.57,10.73,1.74,16.16.83,26.23,0,52.45,1.21,78.73,1.05,22.81,11.07,36.83,30.79,45.65,2.81,4,7.28,6.75,9.07,11.58l-2.49,2c-5.69,3.7-11.38,7.33-16.19,12.25-2,2.07-4.18,5.26-8.06,3l-2-1.64c-.27-6.27,5.75-7.74,8.88-11.35,2.74-3.16,3.47-5.41-.46-7.81-19.12-11.65-29.45-28.47-28.58-52.78C487.94,272.39,467,289,446.62,306.28Z"/><path class="cls-9" d="M507.72,560.76c6.29,1.73,7.79,4.89,4.72,11.16-3.7,7.55-9.37,13.69-13.4,20.87s-10.66,1.44-15.24,4.45l-1.31,1.07c-7.83.88-15-2.2-22.34-4-22.25-5.39-43.29-2.68-62.8,9.34-9.31,5.74-16.19,13.5-15.67,25.52.15,3.25,1.24,6.43.75,9.73-.53,1.65-1.34,3-3.4,2.73-10.52-15-16.79-31.87-20.55-49.72-.14-5.59,2.72-3.95,5.57-2.31a10.49,10.49,0,0,1,1.79,4.68c.44,8.39,4.36,15.63,7.55,23.76,2.69-5.47,5.46-10,9.31-13.84.69-.81,1.43-1.55,2.19-2.3s1.51-1.56,2.31-2.3c12.62-11.27,27.75-16.3,44.31-17.78a110.39,110.39,0,0,1,40.8,5.53c13.41,4.33,15,3,23-9.14C499.21,572.28,500.72,564.52,507.72,560.76Z"/><path class="cls-10" d="M219,744.89c4.81,7.47-3.76,11.59-4.45,17.68-.06,5-5.21,6.73-7,10.66l.06-.09c-12.34,13.62-27.91,22.18-45.37,26.7-12.16,3.15-23.33,7-31.31,17.29-2.83,5.87-4.73,11.91-3.58,20.15,6.11-4.94,10.94-9.84,16.65-13.28,28.24-17,58.25-29.76,90.8-36,13.91-2.69,13.88-2.81,10.17-16.88.73-1,1.47-1,2.21,0,6.61,15.79,6.43,16.74-10,20.2-38.56,8.12-74.59,21.73-105.36,47.15-1.64,1.35-3.21,3.64-5.54,2-2.84-2.06-3.58-5.44-3.62-8.77-.18-17.07,12.9-32.85,30.13-36.3,14.38-2.88,28-7.47,40-16.24A74,74,0,0,0,219,744.89Z"/><path class="cls-11" d="M651,199.65l-2.58-5.42a22.65,22.65,0,0,0,2.14-2.24c28.38-23,58.49-43.62,87.95-65.14,8-5.82,15.7-11.94,23.74-17.59,8.93-6.27,9.34-13.67,6.22-23-2.24-6.69-7.61-11.61-9.39-18.42.27-1.72.93-3,3-2.63,10.48,10.11,14.72,22.84,16.57,37,3.85,29.38,4,58.64-1.29,87.85a2,2,0,0,1-2.89-.58c-2.58-4.78-2.29-10-1.38-15,3-16.31,1.27-32.72,1.61-49.08.06-3.21.6-7.24-2.4-9.12-3.48-2.17-6,1.46-8.47,3.32-17.37,13.28-35.63,25.34-53,38.56-4.84,3.67-8.61,7.79-10,13.81a5.31,5.31,0,0,1-3.25,3.26c-5.59-3.12-10-1.16-14.68,2.55C672.85,185.89,663.17,194.6,651,199.65Z"/><path class="cls-12" d="M238.47,150.83l2.31,2.11c-9,11.09-9.34,11.35.44,25.16,8,11.25,14.86,23.22,23.07,34.3,2.58,3.48,5.33,7,5,11.75-.11,1.93-.23,3.87,1.35,5.39,1.94,1.88.86,3.91.32,5.92-5,7.25-4.55,17.37-12.25,23.2a4.85,4.85,0,0,1-3.59-2.81c-.53-7.22,2.69-13.47,5.61-19.64,2.66-5.59,2.12-10.18-1.25-15.24-5.36-8.07-11.55-15.68-15.19-24.06-.12,2.25,1.17,6-3.61,6.89a6.65,6.65,0,0,1-3.62-3.14,15.31,15.31,0,0,1-.38-11.31c1.77-1.29,2.16-2.52-.21-3.6-3.26-3.46-4.95-8-7.81-11.69-2.49-3.25-3.83-8.77-9.46-7.21-5.85,1.62-8.55,6.24-8.75,12.31-.37,11.62-.38,23.17,5.36,33.83,1.2,2.22,2.37,4.53,1,7.17-6.29,2.93-7.27-2-8.94-6-4.26-12.48-3.18-25.66-4.76-39.77-22.4,15.5-39.78,34.86-57.95,53.33a8.46,8.46,0,0,1-3.21.15,3.87,3.87,0,0,1-.86-3c24.92-28.8,51.8-55.3,86.26-72.76C230.78,150.44,234.35,147.44,238.47,150.83Z"/><path class="cls-13" d="M17.08,615.44l-2.38-.05c23.89-62.83,49.73-124.78,80.67-184.55,9.06-17.52,24.54-23.68,41.62-28.46,3.65-.8,3.32,1.29,2.07,3.27-1.74,2.75-4.76,3.93-7.63,5.17-14.34,2.88-23.57,11.65-30.41,24.38C72.93,487.43,50.23,542,28.56,597.1a24.83,24.83,0,0,1-1.12,2.78c-.37.88-.82,1.75-1.26,2.61s-.82,1.69-1.25,2.53c-.8,1.69-1.39,3.47-2,5.23C21.5,612.58,21.1,616.05,17.08,615.44Z"/><path class="cls-14" d="M348,146.26c-8.39,1.78-6.44,11.35-13.84,16.9,2-5.27,3.56-8.71,4.54-12.31,1.31-4.76-1.82-3.3-4.2-2.65-9.64-11.31-19.62-22.4-23.67-37.28.35-2.2,1-4.17,3.55-4.71,10.06,8.77,14.07,21.79,22.75,32.36,5.15-6,7.18-14.15,13.36-19.22,5.65-2,5.77-9.17,10.78-11.8,2.47-2.15,8.2-.84,7.63-5.81-.39-3.52-4.73-3.76-7.66-4.85-2.63-1-5.67-1.19-7.2-4.09-.28-2,1.24-2.58,2.62-3.26a9.5,9.5,0,0,1,2.14.08c23.52,6.38,25.32,12.12,10,30.54C361.69,128.7,355,137.55,348,146.26Z"/><path class="cls-15" d="M361.05,109.11c-3.1,3.45-1.72,10.49-8.71,10.81-.82-5.36-2.84-8.26-9.38-8.29-9.2,0-18.61-.65-27.33-4.47-2.79.39-2.73,2.56-2.87,4.61-14.2.1-28.38-.17-42.55,1.74-13.48,1.83-18.4-4.49-14.6-17.52,4.56-15.62,12.08-20.19,30.67-18.65a19.53,19.53,0,0,1,6.87.94c11.53,6.64,24.79,3.08,37,6.25,8.71,2.26,17.71,3.38,26.58,5l-2.48,2.34c-4.28,3.39-9,1.87-13.62,1.16a435.71,435.71,0,0,0-49.79-5.27,23.88,23.88,0,0,1-5.06-.67C275,84.9,269,87.54,265.12,96c-2.63,5.79-1,8.31,5.45,7.43,26.55-4.12,53.19-2.3,79.77-1.24C354.53,102.34,360.24,102.59,361.05,109.11Z"/><path class="cls-16" d="M683.74,823.59c-16.1-43-28.61-87.15-45.63-129.77-8-19.93-15.39-40.06-23.06-60.1-.63-2.31-1.32-4.64,1.89-5.66,7.49,4.91,7.76,13.71,10.54,20.87,15.65,40.27,33,79.92,45.14,121.49.5,1.53,1,3.08,1.51,4.6.4,1,.73,2,1,3,2.11,7.51,5.2,14.74,6.83,22.4,1.16,7.71,6.65,14.12,6.65,22.18a3,3,0,0,1-2.1,2.11A3.45,3.45,0,0,1,683.74,823.59Z"/><path class="cls-17" d="M422.73,302.27c0,.5,0,1,0,1.51,1.41,3.17-1.58,4.06-3,5.79-.69.71-1.43,1.36-2.16,2A75.63,75.63,0,0,1,389,328c-10.13,1.92-16,7.87-17.57,18.15-.49,3.17-1.11,6.5-3.53,9a8.25,8.25,0,0,1-4.89,1c-3.9-.93-8.11-.43-11.83-1.8-14.69-5.41-28.39-2.83-42.06,3.82-12.38,6-24,4.8-33.6-6.08-3.27-3.71-8-4.91-12.1-7.14-2.65-2.4-.93-3.84,1.14-5.21a14.91,14.91,0,0,1,3.12-1.06c2.1-.44,4.22-.84,6.35-.15a24.61,24.61,0,0,1,8.06,6.82c6.38,7.61,13.7,9.56,22.51,4.49.95-.42,1.92-.78,2.9-1.14s2-.78,3-1.14c22-8.64,44.12-16.85,66.51-24.4,13.8-4.66,27.17-10.41,38-20.69,2.08-2,4.41-3.9,7.73-3.06A1.85,1.85,0,0,1,422.73,302.27Z"/><path class="cls-18" d="M247.18,771.06H245c-11.15-33-10.37-65.64,3-97.8,4.61-11.09,9.5-22.11,15.06-32.75,8.71-16.7,4.5-35.18,8-52.57,1.15-5.7,1.74-11.46,4.37-16.75,1.33.32,1.5,1.66,2.21,2.53-5.45,19.34-1.42,40.14-8.42,59.1-5.64,15.27-13.55,29.69-19.3,44.93C238.31,708.42,240.27,739.73,247.18,771.06Z"/><path class="cls-19" d="M141.83,227.32l3.41.41-2.73,2.42c-1.23-.23-2,.77-2.91,1.22l-1,.18-1-.31q-1.33-.72-2.73-1.32c-9.24-10.94-9.6-23.15-.17-33,17.08-17.77,37.82-30.62,59.37-42.12,6.41-3.42,9.46-7.19,9.34-15-.2-14.19,2.6-28.16,6.58-41.82a2.1,2.1,0,0,1,2.74.16c3.92,8-.68,15.52-1.53,23.22-1.2,11,1.77,15.9,11.56,17.78a32.67,32.67,0,0,1,4.42-.5,3,3,0,0,1,2.43,1.44l2.51,1.94c-.32,4.32-4.05,4.83-7,5.77-23.8,7.69-44.55,20.93-64.68,35.29a23.37,23.37,0,0,1-2.38,1.58c-1.54.9-3.13,1.74-4.59,2.79-.64.55-1.31,1.07-2,1.6s-1.24,1.15-1.86,1.72l-.89.89c-.57.65-1.16,1.25-1.76,1.86-.29.33-.59.63-.88,1-.58.66-1.2,1.28-1.82,1.9-1.91,1.87-3.77,3.79-5.63,5.71a19.61,19.61,0,0,0-4.16,5.37C131.69,216.07,137,221.61,141.83,227.32Z"/><path class="cls-20" d="M528.06,684.33c-1,1-1.79,2.6-3,3-31.78,11.22-43.07,41.38-60.39,65.76-11.81,16.62-22.12,34.31-33.26,51.4-1.44,2.21-2.67,6.12-6.23,4.84-2.3-.84-2.78-4.07-3-6.7q-.85-10.32-1.73-20.65a4.15,4.15,0,0,1,2.8-1.13,4.36,4.36,0,0,1,2.54,1.56c2.49,4.87.76,10.38,2.45,15.66,2.4-.36,2.24-3,3.63-4.19,11.73-18.2,22.12-37.26,34.85-54.82q11-15,20.75-30.86c6.5-10.49,6.14-14.2-2.28-23.07a56.34,56.34,0,0,1-4.54-4.74c-1.83-2.42-5.69-5.16-2.37-8.13,3-2.69,6,.69,8.48,2.73,3.08,2.58,6.49,5.15,8.39,8.57,5.41,9.75,11.89,8.28,19.83,3.39,3.67-2.27,7.25-6.79,12.71-3.74l.58.41Z"/><path class="cls-21" d="M277.62,573.73l-2.21-2.53c1.1-6.1-1.14-11.32-4-16.54-4.68-8.63-3-15.4,6.54-19.29,15.39-6.29,30.88-12.36,46.19-18.85,5.31-2.25,10.19-5.49,15.27-8.27l6.14,4.08c3.7,5.9-1,10.82-1.93,16.17-1.42,8.5,1.59,11.31,10.5,9.45,1.26,4.55.66,8.48-3.78,11.09-10.94-4.54-17.78-13.56-24.57-22.62-1.8-2.41-2.27-5.81-7.22-3.61-12.63,5.6-25.67,10.28-38.48,15.49-6.49,2.63-9.2,6.49-4.62,13.44A23,23,0,0,1,277.62,573.73Z"/><path class="cls-22" d="M295.11,396.61c-5.79-6.95-11.69-13.81-17.35-20.87-7.21-9-18.57-10.83-27.94-16-5-2.73-5,3.64-5,6.88.2,10.56-6.54,16.53-14.94,19.05-11.78,3.53-21.59,9.74-31,17.05a13.48,13.48,0,0,1-2.27,1.93l-.13.13a1.62,1.62,0,0,1-2.73-.54,5.29,5.29,0,0,1,.07-3.36c6.68-9.22,16.31-14.29,26.59-18.1,9.48-3.51,15.93-8.7,18.23-19.45,2.5-11.71,7.7-13.81,17.58-7.39,15.1,9.83,31.5,9.7,48.3,8.38,3.24-.25,6.43-1.35,9.71-.38a6.53,6.53,0,0,1,3.68,3.32,4.21,4.21,0,0,1-.5,3.08c-9.34,6-20.28,3.37-31.39,5.24,2.74,6.32,9.08,9.22,10.89,15.14A9,9,0,0,1,297,394,4.51,4.51,0,0,1,295.11,396.61Z"/><path class="cls-23" d="M255.69,543c-3.31,2-.16,8.65-6.21,8.73l-.76-.55c-1.42,1.39.2,2.75.06,4.18-2.68,24.09-11.42,46.41-19.7,68.85a8.66,8.66,0,0,1-4.1,4.91c-2.08-.26-3.39-1-2.29-3.4,6.89-24.39,17.6-47.74,19.9-73.39.31-3.45,2.49-6,4.91-8.27,4.54-4.2,8.63-8,9-15.29.32-6,5.67-9.93,11.48-12a195.87,195.87,0,0,0,36.25-17.19c1.69.54,2.81,1.49,2.52,3.47-7,7.84-16.69,11.35-26,15-8.9,3.52-16.11,7.86-18.9,17.71A10.67,10.67,0,0,1,255.69,543Z"/><path class="cls-24" d="M300.16,477.12c-7.12-25.92-13.57-51.89-5-78.81a3.58,3.58,0,0,1,4.19-.73,3.94,3.94,0,0,1,1.39,2.66,12.65,12.65,0,0,1-.58,3.05c-3.68,13.22-1.87,26.65-1.45,40,.19,6.16,2.75,7.22,8.31,4.4,7.17-3.63,13.1-9.17,20.38-12.52,4.25-2,8.15-4.88,13.14-4.87a5,5,0,0,1,3.52,2.84c-.25,5.27-5.15,5.51-8.34,7.2-7.43,3.92-9.76,8.65-5.12,16.43,2.49,4.17,5.74,8.44,4.61,14a4.66,4.66,0,0,1-2.81,1.05c-5.67-1.76-6.36-7.4-9-11.53-2-3.14-2.78-8.6-8.22-6.39C310,456,304,457.94,303.24,465c-.33,3.2,1.35,6.39.37,9.66C303,476.21,302.12,477.46,300.16,477.12Z"/><path class="cls-25" d="M720.67,45.26a1.15,1.15,0,0,0,1.6.39c2.9,1.75,6.5-.14,9.37,1.78l13,4.87c.41,2-.88,2.79-2.44,3.38-13.54,1.11-23.3,9.83-33.16,17.54-25,19.5-52,36.06-77.5,54.76a8.45,8.45,0,0,1-5,1.8,3.23,3.23,0,0,1-2.91-3.12c2.93-7.31,9.8-10.68,15.71-14.56,28.29-18.54,55-39.26,83.5-59.18-3.35-1.29-7.59-.38-9.17-4.16.14-2.69,2.35-3.09,4.24-3.84A2.59,2.59,0,0,1,720.67,45.26Z"/><path class="cls-26" d="M685.5,823.71h2c5.73,4.9,7,11.67,7.52,18.63a83.78,83.78,0,0,1,.08,15.27c-1.75,16.73,1.9,31.71,13.32,44.4,6,8.89,9.53,18.78,11.85,29.7,2.89-1.1,2.66-5.2,5.75-5.49,2.72,1.17,2.38,3.19,1.5,5.36q-.89,3.7-1.78,7.41c-.54,2.23-1.6,4.73-3.93,4.63a5.89,5.89,0,0,1-5.57-4.47c-4.84-17.81-12.76-33.95-24.94-48-2.79-3.23-2.71-8.16-2.39-12.64,1.2-16.81.56-33.49-3.85-49.88C684.59,826.93,684.31,825.26,685.5,823.71Z"/><path class="cls-27" d="M350.11,185.26l-2.67-2.12a3.45,3.45,0,0,1,2.93-4l2-2.23,2.47,4.26c2.68,2.47,5.55,1.32,8.4.44,46.48-.59,74,28.66,79.41,63.58a44.86,44.86,0,0,1-.72,17.27,2.09,2.09,0,0,1-2.94-.65c-4.67-11.13-3.29-23.55-8.65-34.81-12.67-26.65-34.3-37.37-62.4-38.12C361.88,188.28,355.21,190.64,350.11,185.26Z"/><path class="cls-28" d="M566.53,78.44c-.51.68-1,1.37-1.52,2.06-6-.24-6.92-5.8-9.31-9.46-11-16.78-19.32-35.16-30.54-51.82-1.47-1.41-1.63-4.11-5-4.42-.9,12.93-.1,25.82-.55,38.67-.15,4.29,1.46,9.61-4.45,11.92-3.29-6-1.45-12.21-.93-18.37,0-13.08,0-26.16.07-39.24,0-2.89.19-6.63,3.16-7.58,3.42-1.1,4.59,2.66,6.21,5C539.93,28.47,552.79,53.71,566.53,78.44Z"/><path class="cls-29" d="M453.47,284.92l-1.85-2.65C464.49,242,483.83,205,508.08,170.49l1.66,2c1.61,5.68-2.18,9.66-4.81,13.68-17.95,27.57-31.59,57.25-43.79,87.68C459.5,278,459.18,283.45,453.47,284.92Z"/><path class="cls-30" d="M194.51,402.76c0,.71,0,1.42,0,2.12a1.4,1.4,0,0,1,.65,1.54c-.18.53-.37.8-.56.8-2.38,3.33-3.84,6,.35,9.76,6.12,5.49,10.87,12.28,12.9,20.55,1.17,2.2,1.25,4.09-1.46,5.19a4.45,4.45,0,0,1-3.29-2.51c-5.75-14.18-16.81-23.64-28.68-32.39-1-2.63,1-3.81,2.46-5.29,7.48-17,21-29.19,34.1-41.61a81.36,81.36,0,0,0,14.3-17.35c2.51-1.11,3.89.35,5.07,2.24a5.56,5.56,0,0,1-.24,3.05c-11.87,15.12-27.9,26.4-39,42.25-2.48,3.54-5.51,6.75-6.85,10.95C187.27,408.59,191.29,400,194.51,402.76Z"/><path class="cls-31" d="M514.27,47c1.8,5.86-1.21,12.31,2.17,18,4.13,3.51,3.8,8.43,3.83,13.06q.29,34.23,0,68.45c0,4.63.31,9.56-3.91,13l-4.06,4.2q.35-54.12.67-108.25C513,52.6,512.47,49.63,514.27,47Z"/><path class="cls-32" d="M379,641.65l1.83-2.09c9.19,3.74,11.68,13.67,18.29,19.8,4.7,4.35,7.86,11.71,16.48,8.44a7.43,7.43,0,0,1,2.81,4.35c2.75,23.69,6,47.33,4.15,71.29-.8,1.88-1.68,3.67-4.19,3.49-1.62-19.83-3.52-39.64-4.67-59.5-.3-5.15-2.94-7.61-6.16-10.6C396.4,666.48,386,655.41,379,641.65Z"/><path class="cls-33" d="M220.53,73.43c1.43-2.46,2.87-4.91,4.3-7.36a6.38,6.38,0,0,1,2.32,2.18c14.36,22.27,28.9,44.4,45.49,65.11,3.83,4.79,8.28,7.92,14.68,8.08,3.52.09,7.49,0,9.09,4.4a5.4,5.4,0,0,1-.79,3.11c-13.77,4.37-19.74,2.43-30.64-11.14-13.66-17-25.71-35.17-38.53-52.78q-2.55-3.52-5.11-7.06C220.56,76.55,219.54,75.16,220.53,73.43Z"/><path class="cls-34" d="M582.65,102.54l-.21-2.9C614,76.6,648,58.53,685.65,47.78a3.18,3.18,0,0,1,.82,3c-4.74,6.43-12.49,7.1-19.14,9.63-24.66,9.42-47.77,21.74-70,35.92C592.91,99.2,588.75,103.38,582.65,102.54Z"/><path class="cls-35" d="M751.75,421.93c4,15.09,2.53,30.2.13,45.31-2.43-1.06-3.58-3.17-4.47-5.47C748.35,446.49,741,440,726,437.28c-13.34-2.44-27.19-4.08-39.93-9.61-2-4,1.26-4.94,3.67-6.4,14.68.49,28.63,4.6,42.63,8.62,5.36,1.54,11.45,4.84,15-3.1C748.41,424.79,749.51,422.85,751.75,421.93Z"/><path class="cls-36" d="M727.24,323.77c-1.74,5.13-7.83,7.37-8.68,13.09.79,1.77-.1,3.08-1.18,4.35-16.89,15-34.93,28.4-55.55,38-4.24,2-8.36,4.6-13.43,3.26a3.88,3.88,0,0,1-2.79-3.46c4.6-6.39,12.51-6.89,18.73-10.39,18.14-10.23,34.71-22.38,48.84-37.75.66-.74,1.38-1.43,2.1-2.11s1.39-1.41,2.1-2.09c2.59-2.16,4-5.93,8.09-6C727,321.15,728.29,321.8,727.24,323.77Z"/><path class="cls-37" d="M749.57,462l2.31,5.28C748.63,499.64,732,525,709.7,547.39a3.61,3.61,0,0,1-2.94-3.08C708.5,537,716.1,534,719,527.46a23.9,23.9,0,0,1,1.8-2.55c13.35-14.26,18.82-32.14,23.29-50.49C745.18,470,745.16,465,749.57,462Z"/><path class="cls-38" d="M727.24,323.77l-2-2.06c-1.9-3.64.65-6.34,2.26-9,13.9-22.74,25.74-46.4,33-72.17.78-2.77,1.8-5.59,4.67-7.09,2.06-.26,3,1.1,3.74,2.65C760.66,268,745.46,296.61,727.24,323.77Z"/><path class="cls-11" d="M769,236.14c-.94-1-1.88-2-2.83-3-3.63-8.37,1.9-15.94,2-24.34-8.73,4.67-15.29,12.92-25.31,15.27a3.29,3.29,0,0,1-3-3c1.5-5,6.16-7,9.8-9.86,8.69-6.84,18.18-12.72,25.44-21.26l2.39.13C777.11,205.89,773.75,221.14,769,236.14Z"/><path class="cls-39" d="M229.41,345.77l-4.14-2.2.48-2.2c.33-1,1.34-1.72,1.08-2.92,6.32-13.51,15.68-1.78,24.14-3.35-6.68-12.28-14.86-24-19.56-37.52a3.57,3.57,0,0,1,3-.63c4,2.25,6.14,6.14,8.05,9.94,6.45,12.78,13.16,25.3,25.05,34.06l-4.83,2.32c-5.6,2.79-10.6-.61-15.62-1.92C240.08,339.53,234.25,340.11,229.41,345.77Z"/><path class="cls-40" d="M628.68,600l-2.42.05c-7.16-2.09-6-8.42-6.94-13.63-.08-2,0-4-.2-6a8.1,8.1,0,0,0-1.86-3.65c-4.28-3.8-9.68-5.86-14.15-9.3-3.06-2.34-6.28-4.78-5.75-9.42a4.85,4.85,0,0,1,3.73-2.68c4.18.51,7.65,3,10.3,5.67,11.64,11.7,25.55,11.44,40.14,8.64a11.65,11.65,0,0,1,5.38.18c1.61.73,2.87,1.69,2.38,3.75-8.28,3.42-17.25,3.21-25.85,3.83s-9.55,3.89-7.36,10.84C627.28,592.13,627.84,596.12,628.68,600Z"/><path class="cls-41" d="M233.85,297.54l-2.44,0c-12.7-26.43-18.91-54.69-23.46-83.41,2.45,3,4.83,6.19,9.4,5.73a8.33,8.33,0,0,1,.51,3.13,28.34,28.34,0,0,1-.47,3.18c1.44,19.38,8.26,37.39,14,55.7C232.92,286.94,236.27,291.82,233.85,297.54Z"/><path class="cls-42" d="M225.17,69.42c-.11-1.12-.23-2.24-.34-3.35,13.74-20.94,28.51-23.58,48-8.72a103.69,103.69,0,0,1,20.28,20.93l-4.52,2.1c-6.2-5.1-11.16-11.53-17.56-16.41-15.69-12-25.57-11.4-39.68,2.22C229.68,67.84,228.41,70.61,225.17,69.42Z"/><path class="cls-43" d="M363.58,591.34c-2-2.8-3.62-1.52-5.1.59-5.23-13.53-4.89-27.94-6.63-42l4.75,2c5.85,8.18.8,18.51,5.93,27.52,5.43-6.87,9.75-14.79,17.35-19.63a8.66,8.66,0,0,1,4.69-1,7.35,7.35,0,0,1,3,1.24,4.2,4.2,0,0,1,.53,3c-7.82,7.33-14.79,15.32-19.54,25.07C367.63,590,366.24,591.83,363.58,591.34Z"/><path class="cls-44" d="M176.87,402.53l-2.05,4.5c-7.32,4.23-13.69-2.62-20.4-1.15,4.34,1.44,9.27,3.08,13.35,6.18,2.86,2.17,7,4.22,3.88,9.13-9.75-.08-16.71-8.44-26.52-8.74-4.85-.15-10.37,1.09-14.28-3.46,1.28-2.92,7.25-1.48,6.14-6.61C150.3,396.58,163.59,399.72,176.87,402.53Z"/><path class="cls-45" d="M659.29,573.66l-3.08-2.54c4.41-7.54,13-7.43,19.79-10.2,7.72-3.16,13.31-7,14.37-15.72a6.83,6.83,0,0,1,2.07,0,1.79,1.79,0,0,1,2.15-.41,7.78,7.78,0,0,1,1.47,1.77,2.67,2.67,0,0,0,2.8,1.27c2.88-.84,5-4,8.56-2.6l2.28,2.19C695.46,561.07,678.16,568.86,659.29,573.66Z"/><path class="cls-46" d="M209.38,672.75c3.22,10,6.28,20,9.71,30,4.24,12.29,4.57,24.84,3.4,38-3.14-5.15.82-11.39-3.49-15.78-1.88-15.61-7.11-30.34-11.82-45.2C207.49,677.31,204.26,673.73,209.38,672.75Z"/><path class="cls-47" d="M716,339.4l2.59-2.54c14.14,15.91,22.59,34.73,28.13,55-1.37,1.37,0,4.61-3.19,4.73-3-1.44-3.53-4.47-4.32-7.22a143,143,0,0,0-20.77-43C717,344.29,715.34,342.22,716,339.4Z"/><path class="cls-48" d="M545.49,670.6C543,666.3,545,662.84,548,660c5.88-5.48,9.92-12.28,14.5-18.72,1.17-1.64,1.76-5.91,5-4.08s.64,4.32-.82,6.31c-1.2,1.64-1.54,3.2.29,4.64A88.21,88.21,0,0,1,545.49,670.6Z"/><path class="cls-49" d="M209.38,672.75c-2.35,1.85-1.41,4.71-2.2,7-3-5.84-2.18-11.64-.29-17.65,4-12.72,10.47-24.34,15.8-36.47.58.94,1.17,1.87,1.76,2.81,3,3.13.64,6.1-.61,8.79a289.5,289.5,0,0,0-13.55,34.88A5.51,5.51,0,0,0,209.38,672.75Z"/><path class="cls-2" d="M332,470.81l2.52,0a8,8,0,0,1,6.44,3.85h0c.17.92.34,1.83.5,2.74-9.88,10.63-20.35,20.42-35,24.16l-2.24-2,2.54-2.38a10.07,10.07,0,0,1,3.44-4.88A105.91,105.91,0,0,1,322.58,484C328,481,331.14,476.82,332,470.81Z"/><path class="cls-50" d="M440,262.43c.65,0,1.3,0,2,0-.16,1.69-.32,3.38-.47,5.07-.48,1-.3,2.14-.83,3.11-1.7,13-8,23.34-17.93,31.67-.1-1.13-.2-2.26-.29-3.39C428.28,286.72,432.29,273.68,440,262.43Z"/><path class="cls-51" d="M205.54,442.18c2.27-.81,1.93-2.9,2.3-4.65,5.08,11.69,5.57,23.68,2.4,35.92.83-4.85-4.89-7.19-4.54-11.86C208.38,455.1,201.41,448.68,205.54,442.18Z"/><path class="cls-52" d="M744.32,396.86l2.37-5c2.15,9.94,5,19.76,5.06,30q-1.07,2.42-2.12,4.83C743.55,417.56,740.65,407.79,744.32,396.86Z"/><path class="cls-53" d="M582.92,622.42l-2-2.42c-1.17-11.24,2.93-20.7,9.88-29.2l2.46,4.78A142.32,142.32,0,0,1,582.92,622.42Z"/><path class="cls-54" d="M617.22,628.69c-.72,1.68-1.44,3.35-2.17,5-2.84-8.1-2.71-16.63-3.7-25a7.7,7.7,0,0,0,4.56-6.59c4.14.77,3.48,4,3.51,6.86C616.52,615.31,621.53,622.53,617.22,628.69Z"/><path class="cls-55" d="M220.53,73.43c1,1,2,2.07,3.05,3.11-1.83,8.18-3.28,16.55-11.26,21.51L210,98A65.71,65.71,0,0,1,220.53,73.43Z"/><path class="cls-56" d="M418.4,746.93c.77-.83,1.54-1.67,2.3-2.51,7.57,4.18,4,11,4,16.92-1,3-1.76,6.09-4.71,7.9A67.26,67.26,0,0,1,418.4,746.93Z"/><path class="cls-57" d="M742.32,54.38l2.3-2.08c6.87,2.92,13.4,6.28,17.5,12.94l-2,2.17C752.12,65.83,746.36,61.29,742.32,54.38Z"/><path class="cls-52" d="M685.62,49.83c0-.68,0-1.36,0-2l6.56-2.71c8.78-.76,17.58-2.09,26.27.7l-4.81,2C704.54,51.49,695.3,53.59,685.62,49.83Z"/><path class="cls-58" d="M418,308.2l4.75-4.42c6,1.24,12.41.49,17.76,4.3L438,310.35C430.78,314.55,424.3,312.28,418,308.2Z"/><path class="cls-59" d="M311.27,494.25q-2.25,1.44-4.48,2.9l-6.63-20,2.3-2.67C308.75,479.55,312,486,311.27,494.25Z"/><path class="cls-60" d="M727.57,931.59c-.67-1.55-1.34-3.11-2-4.66q-5.67-5.68,0-11.37l2.19-4.92A26.15,26.15,0,0,1,727.57,931.59Z"/><path class="cls-61" d="M718.48,45.77c-8.71-1.92-17.52-.49-26.27-.7,9.51-3.23,19-3.45,28.46.19Z"/><path class="cls-62" d="M420,769.24l2.16-6.79c5.13,6.34,4.35,12.85.59,19.46l-2.27.1Z"/><path class="cls-4" d="M363.27,181.57c-2.92,2.11-5.79,3.4-8.4-.44Z"/><path class="cls-61" d="M731.64,47.43c-3.22-.1-6.5.12-9.37-1.78C725.57,45.3,729,44.35,731.64,47.43Z"/><path class="cls-17" d="M300.41,397.62l-5.23.69a1.65,1.65,0,0,1-.07-1.7c.22-1.2.43-2.4.64-3.6C298.61,393.22,300.13,394.79,300.41,397.62Z"/><path class="cls-63" d="M347.7,164.25c-1.95-1.15-1.76-3-1.64-4.89A4.11,4.11,0,0,1,347.7,164.25Z"/><path class="cls-64" d="M685.5,823.71l-.39,4.91a4.75,4.75,0,0,1-1.37-5C684.32,823.65,684.91,823.69,685.5,823.71Z"/><path class="cls-65" d="M440.66,270.6c-.66-1.29-.73-2.43.83-3.12A2,2,0,0,1,440.66,270.6Z"/><path class="cls-63" d="M350,170.63a4,4,0,0,1-1.9-4.68A4.18,4.18,0,0,1,350,170.63Z"/><path class="cls-66" d="M139.6,231.37l2.91-1.22A2.11,2.11,0,0,1,139.6,231.37Z"/><path class="cls-67" d="M196.59,404.67l2.27-1.93Z"/><path class="cls-67" d="M194.59,407.22l-.09-2.33a11.7,11.7,0,0,1,2-.09Z"/><path class="cls-67" d="M226.83,338.45l-1.08,2.92Z"/><path class="cls-66" d="M134.9,229.92l2.73,1.32Z"/><path class="cls-68" d="M210.29,672.15c-2.59-11,4.43-19.36,7.92-28.67,1.9-5.07,4.15-10,6.24-15a419,419,0,0,0,23.13-76.22c.27-1.36.93-1.51,1.92-.62l0,0c9.14,19.26,2,38.21-3,56.29-6.29,22.56-14.7,44.88-32.68,61.65A31.84,31.84,0,0,1,210.29,672.15Z"/><path class="cls-69" d="M306.49,501.52l35-24.16c2.49,3.42-.57,5.37-2.35,7.12-17.08,16.81-37.48,28.6-59.44,37.63-6.3,2.59-10.26,6.16-12.62,12.41-1.88,5-3.39,11.32-11.38,8.43,4.63-16.65,15.4-26.34,32.2-30.78C294.56,510.41,300.32,505.18,306.49,501.52Z"/><path class="cls-70" d="M130.93,817.13c3-9.49,9.08-15.2,19.23-17,21.5-3.85,40.32-13.67,57.45-27C201.72,784.46,192,792,180.93,797.06c-15.71,7.28-32.3,12.6-46.13,23.64C128.77,825.52,132.06,818.55,130.93,817.13Z"/><path class="cls-70" d="M207.55,773.23c.44-4.78,5-6.9,7-10.66C216.66,769.05,211.28,770.6,207.55,773.23Z"/><path class="cls-71" d="M663.79,499.26c-10.19,1-18.62-4.87-27.84-7.49-17.44-5-34.45-11.41-51.84-16.55a25.53,25.53,0,0,1-14.61-10.11c-17.14-23.5-38.58-42-67.3-49.23-11.73-3-13.76-7.64-9-17.48.86-2.07.51-4.26.59-6.41.29-4.63-1.85-10.67,6.25-10.75,2.7.28,5.33,1.12,8.07,1.18a41,41,0,0,1,6.52.94,25.6,25.6,0,0,0,6.68,1c14.39,0,28.26,4.78,42.67,4.47,4.1.11,8.63.48,11.21,3.58,8.33,10,19.89,11.27,31.51,12.67,9.12,2.1,18.51,2.8,27.49,5.59,13,3.37,26.11,6,39,9.59,9.8,2.73,10.9,5.05,8.65,15.88a47,47,0,0,0-2.22,6c-.31,1.5-.71,3-1.14,4.45a25.94,25.94,0,0,0-1.11,6,43.79,43.79,0,0,1-1,8C672.42,473.56,672.08,487.71,663.79,499.26Z"/><path class="cls-72" d="M527.74,19.1,565,80.5q30.72,58.48,61.42,117c5.89,11.29,11.46,22.75,17,34.23,10.92,22.7,8.71,36.07-8.78,54.24-3,3.15-6.18,6.18-9.28,9.27-1.64,3.31-5.19,4.42-7.74,6.68-1.53,1.11-3.59,1.27-5,2.65a9.37,9.37,0,0,1-1.79.82,5.66,5.66,0,0,0,1.93-1c1.36-1.29,3.37-1.19,4.7-2.42,2.36-1.25,4.18-3.63,7.21-3.53a3.18,3.18,0,0,1,2.06,1.64c-16.65,14.63-35.84,19-57.3,14.15-2.8-.63-5.64-1.07-8.47-1.6-2-3.06-10.13-1.38-6.72-8.65,3.15-2.49,6.11-2.48,8.85.61,2.11,1.56-3.44,2.08-.66,2.92,3,.91,5.84,3,8.55,2.05,2.08.7.77-1.6.54-.15-.06.33-.39.19-1.07.11-2.31-.29-4.36-.68-3.26-3.84,6.3-3.32,13.32-3.68,20.14-4.2,7.4-.55,9.38-3.57,7.68-10.64-3.51-14.54-8.29-28.71-11.9-43.21-.44-1.77-1-3.51-1.35-5.3-.81-4.21-3.35-9.78,1.06-12.09,4.82-2.52,7,3.31,9.78,6.51,8.9,10.42,19.51,18.8,31.3,26.63-.69-46.78-1-47.92-24-84.85-1.35-2.17-2.54-4.47-4.73-5.92-3.93-2.59-8.63-4-11.57-8.05-4.06-5.61-8-11.3-12.42-18.74a68.41,68.41,0,0,1,.83,16c-.22,3.19.17,7.7-3.64,8.28-4.35.66-5.71-3.83-6.82-7.26-2.36-7.28-4.11-14.75-7-21.86a97.9,97.9,0,0,0-5.33-12c-4.42-10.81-6.67-22.24-9.16-33.53-3.83-17.39-9.57-34.18-14.54-51.22a110.14,110.14,0,0,0-3.26-17C521.26,23.11,519.94,17.75,527.74,19.1Z"/><path class="cls-73" d="M418,308.2,438,310.35c12.86,4,24,10.89,34.65,20.12-9.94,0-18.85-.06-27.76,0-3.36,0-7.22.63-7.73,4.47s2.91,5.41,6.14,6.37c8.72,2.59,17.3,5.39,23.73,12.35-7,10.08-12.14,21.12-20.16,30.84-12.94,15.69-30.28,19.49-48.14,22.85a122,122,0,0,1-19.49,1.74,1.48,1.48,0,0,1-.71-1.51,10.29,10.29,0,0,0-1.71-2.67l-4.95-8.7C362.69,383.13,363,369,367.2,354.4c.76-3.1,1.93-6.17,2.21-9.31,1.09-12.32,8-18.35,20-19.26a39.47,39.47,0,0,0,25.34-7.2c4-2.79,4.59-5.82,3.6-9.92Z"/><path class="cls-74" d="M690.37,545.2c4.4,8.12.53,12.35-6.93,15.18-9.12,3.45-18.16,7.15-27.23,10.74-22.62,9.54-39.72-1.17-55.92-15.23-4.1-6-5.83-12.41-2.56-19.43-1.38-18.48-9.74-34.77-16.22-51.64-.86-2.24-2-4.35-4-8.42,24.81,8.27,47.45,17.36,70.91,23.17,21.69,5.37,35.58,16,38.8,38.72C687.56,540.69,689.28,542.9,690.37,545.2Z"/><path class="cls-75" d="M749.57,462c-4.84,24-10.6,47.61-28,66.32-3.94-7.47-12.19-3.74-17.64-6.77-8.37-4.66-11.27,2.75-16.06,6.19-3.4-12.33-9.33-22.75-21.5-28.44.79-13,6.76-24.77,8.62-37.51,1.83-4.2,1.54-8.82,2.57-13.18,3-7.14,2.08-15.76,8-21.85,20.15,1.31,39,8.74,58.69,12.26,3.71.66,5.76,2.34,5.49,6.57C749.41,451,749.6,456.48,749.57,462Z"/><path class="cls-75" d="M651,199.65c12-9.34,23.93-18.74,36-28,4.39-3.36,8.58-4.69,9.79,3a8.85,8.85,0,0,1,5.07,6.61c2.35,11.37,7.94,21.55,11.72,32.4,1.2,5.16,2.34,10.35,4.46,15.25,2.7,6.39.78,11-4.84,15C696,256.25,678.16,267.57,661,280a69.4,69.4,0,0,0-11.18,10.4c-4.37,4.8-5.12,11.19-7.41,16.9-1.62,4.05-2.7,8.43-7.09,10.61-6.16-1.33-12.12-.62-18.12,1.27-3.27,1-6.77,3.21-10.22.2-.33-6.51,6.11-4.71,9-7.29,4.49-4,11.78-4.07,14.76-10.3,18.44-16.11,25.63-36.38,20.9-60.26-.93-4.67-.18-7.06,3.13-8.88,8.12-4.46,7.49-10.24,3.63-17.22C655.62,210.32,653.46,204.9,651,199.65Z"/><path class="cls-76" d="M509.82,556.52c-14.8-3.64-28.91-9.49-44.07-12.24a121.61,121.61,0,0,0-34.55-1.6c-6,5.3-13.51,2.88-20.31,4.05-6.84-2.92-4.24-8.2-3.1-13,2.44-10.19,7-19.83,7.83-30.44,32.14-6.76,64-7.53,95,5.1,5.69,2.32,11.2,5.19,15.05,10.33-.83,11.38-4.51,22-8.94,32.36C515.59,553.86,514.32,557.55,509.82,556.52Z"/><path class="cls-74" d="M446.62,306.28c1.35-2.53,2.07-5.85,4.13-7.45,20.57-16,41.36-31.66,64.21-49-2.22,30,9.09,50.09,35.94,61.35l-18.68,17.1c-8.52,10.34-19.21,9-31.2,7.76C478.31,333.63,463.1,319.14,446.62,306.28Z"/><path class="cls-65" d="M468.45,354.76c5.37,3,9.51,7.94,15.62,9.78,2.66.8,4,2.58,4.5,5.49,3,18.05,2.41,35.49-8.13,51.93-1.67-1.29-3.17-2.28-4.47-3.49-2.23-2.09-4.58-4-7.66-2s-2.83,5.4-1.23,7.82c6,9,.72,12.64-7,14.42-19.32,4.45-38.16,4.11-55.46-7.3-1.07-2.4-3.12-4-4.84-5.86-5.06-5.48-3.52-9.82,2.37-13.25,4.4-2.57,8.88-5.25,13.77-6.6,23.49-6.45,37.64-22.28,45.57-44.56.61-1.7,1.19-3.45,2.64-4.7C465.46,355.63,467.17,355.74,468.45,354.76Z"/><path class="cls-65" d="M509.82,556.52c7.42-7.17,8.32-17.13,10.72-26.28a39.38,39.38,0,0,1,5.17-11.5c24.74,18.58,49.51,37.14,63.69,65.93.57.89,1.42,1.64,1.38,2.83s0,2.2,0,3.3q-4.95,14.61-9.88,29.2l-9.43,16a86.46,86.46,0,0,0-9.76-33.29C550.26,580.6,531,567.55,509.82,556.52Z"/><path class="cls-77" d="M607,319.33c6.1-1.63,12.46-2.67,18.22-5.1,4.77-2,7.18.2,9.93,3,3.12,3.25,1.68,6.85.63,10.29-5.61,18.51-12.91,36.42-19.7,54.5-1.19,3.17-3,5.85-6.19,7.33-14.55,4.67-29.25,3.73-44,1.22-19.39-1.87-38.72-4.22-57.95-7.44a28.21,28.21,0,0,1-11.07-4c-6-11.81-6-11.88,5.91-13.94C529.11,360.6,555,359,579,374.51c6.93,4.51,11.86.76,15.09-5.43a27.54,27.54,0,0,1,11.83-12.37c9.52-5,11.28-12.92,6.9-22.19C610.43,329.58,607.8,324.83,607,319.33Z"/><path class="cls-78" d="M621.38,578.35l.36,6.17c-4.5,4.26-9.57,3-14.3.93C601,582.7,595,578.91,591,573.14c-16.47-23.19-37.32-41.65-60.63-57.66-8.51-5.85-13.59-15.09-20.18-22.82-11.06-14.36-20.95-29.44-28.48-46a6.4,6.4,0,0,1-1.54-2.48,4.71,4.71,0,0,1-.67-1.89c-1-3-2.79-6.24,2.49-7v.08c.29,1.17,1.3,1.67,2.15,2.32,13.46,16.56,24.28,35.18,39.27,50.55,25.27,21,47.75,45,72.55,66.51a5.15,5.15,0,0,1,1.62,3.93C603,567,613.2,569.2,619.78,576A4,4,0,0,1,621.38,578.35Z"/><path class="cls-79" d="M539.42,439.37c29.53,22.38,45,53.26,53.36,88.41.16.66-.95,1.62-1.47,2.44-9.83-6-14.79-16.64-23.19-24.22a319.53,319.53,0,0,0-39-29.72,8.26,8.26,0,0,1-2.16-4.09c1.69-6.76,4.17-13.16-.43-20.27-2.55-3.94-.44-8.62,5.12-9.46A16.58,16.58,0,0,0,539.42,439.37Z"/><path class="cls-80" d="M529.93,474.68c24.5,14.05,46.21,31.19,61.38,55.54l6.42,6.24q1.28,9.72,2.56,19.43l-2.75,2.8c-25.87-22.27-52.1-44.17-74.17-70.44,5.27-2.4,5.33,5,10.24,4.82-2.38-6.46-2.88-13.51-10.07-17.21-1.56-.8-1-2.39.49-3.32a2.51,2.51,0,0,1,2.14-.15,11,11,0,0,0,1.73,1.39C528.59,474.05,529.27,474.35,529.93,474.68Z"/><path class="cls-65" d="M525.61,473.38a1.81,1.81,0,0,0-1.58-.84c-18.77-7.63-27.9-24.53-38.71-39.91-3.25-4.63-2.77-8.13-.26-12.83,3-5.52,6.78-2.77,10.32-2.06a100.59,100.59,0,0,1,39.36,17.67c.26,2.74,2.19,3.65,4.53,4.12l.15-.15c1.14,4.17,1,6.41-4.7,5.24s-9.77,3.45-5.76,7.27c8.68,8.24,2.26,14.07-.94,20.8l-1,1.21Z"/><path class="cls-81" d="M415.81,470.52a129.19,129.19,0,0,1,50.49-8.14c4.44.52,8.32,1.19,7.73,7.42s3.14,11.55,5.18,17.22c1,2.85,3.81,6.51-1.92,7.87-19-.29-38-.71-56.91,2.18C415.53,488.79,416.74,479.47,415.81,470.52Z"/><path class="cls-82" d="M369.73,398.51c.85,9.37,10.67,14.61,11.11,24.17-.33.47-.67.94-1,1.42-2.18,2-4.94,2.9-7.7,3.78-16.33,5.25-18.08,4.36-25.75-11-4.85-9.7-8.89-19.74-13.29-29.63-1.6-3.6-2.91-7.45-1.6-11.56,7.44-8.35,20.22-7.92,32.59,1.06C367.92,383.5,368.9,391,369.73,398.51Z"/><path class="cls-83" d="M341,474.62c-3.89,1.64-4.9-1.56-6.44-3.85-.54-1.31-1-2.65-1.63-3.92-10.52-21.7-10.52-21.7,10.52-33.49,1.78-4,5.14-4.75,9-4.16,10.47,1.59,19.85-1.3,28.65-6.72l-.22.2c2.32.39,6.27-1.48,2.69,4.08C371.8,445,357.93,461.13,341,474.62Z"/><path class="cls-84" d="M573.55,365.79c-22.41-8.58-45.47-8.84-68.74-5-16.52,2.71-30.09-2.08-41.05-14.59,3.77-4.61,9.1-3.13,13.9-3.42,8-.48,16.13.57,23.65-3.2,19.34,2.33,38.19,7,57,11.9,7.59,2,12.42,6.94,15.79,13.69Z"/><path class="cls-85" d="M354.14,538c-2.81,1.52.81,8.52-4,6.69-5.12-2-11.95-5.12-10.38-12.92,1.33-6.58,3.84-12.93,5.82-19.39,17.7-24.66,28.31-53.9,49.62-76.32,3.55-3.73,5.16-1.79,8.05-.49,3.67,1.66,5.64,3.39,1.74,6.82-1.49,2-2,4.64-4,6.34-15.76,13.57-27.24,30.43-37.27,48.4C358.09,510.13,354.37,523.63,354.14,538Z"/><path class="cls-86" d="M389.68,479.68,366.82,501.6a5.81,5.81,0,0,1-.55-.78,9.1,9.1,0,0,1-.32-1c-.07-9.6,5.21-17.28,10-24.69A112.47,112.47,0,0,1,405.09,445c4.34-.88,7.77-6.55,13-2.47,1.45,1,3.74.58,4.75,2.27,4.81,8.12,12.22,8.72,20.66,8.2,4.19-.25,10.31-2.51,12,4.78l-4,.07c-3.62,1.85-7.78-.21-11.41,1.55l-26.35,7.17C403.06,466.07,394.8,470,389.68,479.68Z"/><path class="cls-87" d="M510.14,492.66c25.93,28.75,61.42,47.37,84,79.89,6,8.73,15.8,14,27.63,12,.69,5.42.86,11,4.52,15.56,1.2,8.43,7.46,14.18,11.27,21.24,1.13,3-.9,3.84-3.12,4-8.39.8-16.06-6.68-16.79-16.23,0-2.48.48-5.07-1.71-7-1.38-6.14-4.92-10.6-10.83-12.69-9.16-3.24-14.59-10-19.46-18.05-11.5-19-28.13-33.06-45.53-46.4C528.31,516,516.45,506.83,510.14,492.66Z"/><path class="cls-88" d="M574.1,365.15c7.28-.19.24-4.1,1.52-5.84,7.23-12.17,10.06-25.58,11.19-39.47,9.37-1.61,18.63-3,19.76,10.65-1,1.68-.07,3.28.25,4.88.13.7,0,1.6.95,2A3,3,0,0,1,609,334.7c4.36,7.69,2.48,13.92-4.7,18.59-4.65,3-8.74,6.51-11.65,11.26-5.78,9.4-12.17,9-19.05,1.23Z"/><path class="cls-89" d="M466.43,356.62c-5.54,12.07-10.32,24.26-19.72,34.51-10.31,11.24-24.17,14.24-36.85,20.22-12.29,5.79-12.18,6-4.4,17.47.32.48-.53,1.74-.83,2.63a2.66,2.66,0,0,1-1.89-.9,4.39,4.39,0,0,1-2-1.55l-.08,0a5,5,0,0,0-3.06-1.75,1.5,1.5,0,0,1-1.38-.75c-.82-.55-1.62-1.12-2.42-1.7-5.86-4.28-11.52-8.75-14.58-15.64a9.3,9.3,0,0,1,9.23-4.23c15.33,1.51,29.77-3.37,42.52-10.3,11.79-6.42,20.74-17.53,26.53-30.2,2.16-4.73,3.63-9.51,9.51-10.7l0,.13A3,3,0,0,1,466.43,356.62Z"/><path class="cls-90" d="M381.16,492.84c7.63-7.37,15.14-14.9,25.71-18.08,8.91,4.16,10.46,11.88,5,24.84L407.35,502c-8.19,7.6-18.18,12.59-27.37,18.72-1.94,1.3-4.66,2.33-6.67-.52A43,43,0,0,1,381.16,492.84Z"/><path class="cls-91" d="M477.29,494.89c1.71-1.3,1.81-2.68.82-4.65-3.69-7.33-8.91-14.18-6.75-23.33.87-3.72-4.07-2.2-5.06-4.53,12.41-1,22.19,1.87,27.88,14.7,4.16,9.38,12.34,16.65,16,26.54l.06-.06C499.78,498.67,488.19,498.12,477.29,494.89Z"/><path class="cls-92" d="M455.5,457.73c-3.08-3.71-7.56-2.91-11-2.12-12.63,2.84-20.85-2.13-26.33-13.13,16.64,2.76,33.26,4.6,49.13-3.23,3.94-1.95,5.7-1,7.47,2.7,2.67,5.52,5.81,10.81,9.33,17.24Z"/><path class="cls-93" d="M381.12,560.84A118.14,118.14,0,0,0,361,587.67a101,101,0,0,1-4.42-35.81l4.54-8.85c2.16-5.9,1.59-14.37,11.9-12.6C374.28,540.94,381.77,549.81,381.12,560.84Z"/><path class="cls-74" d="M687.88,527.7c3.11-12.61,3.12-12.65,18-8.29,2.4.7,4.67,2.11,7.26,1,9-4,9.25,1.39,8.43,7.9l-.13,0c-8.2,6.06-13,16.17-23.2,19.82-2,.38-2-2.8-4.06-2.4a2.87,2.87,0,0,0-1.75-.48Z"/><path class="cls-94" d="M534.26,329.87c4.64-3.85,9.17-7.83,13.94-11.51,3-2.28,5.76-5.58,10.31-3.73,4.06,1.16,8,2.88,12.19,3.34,7.41.82,7.58,4.72,5.25,10.21-12.82,3.2-25.49,6.85-37.26,13.06l-2.15-.2c-2.3-1.37-5-.52-7.4-1.4-1.88-.23-5.44.54-2-3.05C529.39,334.23,531.88,332.1,534.26,329.87Z"/><path class="cls-95" d="M538.69,341.24c10.53-9.77,22.79-14.57,37.26-13.06-5.18,21.16-6,21.73-26.05,16.69C546.1,343.91,542.42,342.46,538.69,341.24Z"/><path class="cls-96" d="M501.31,339.56c.35,1.38,5.64,2.63-.34,4.14-12.31,3.13-24.81,1.68-37.21,2.48l-24.3-10.92A218.36,218.36,0,0,1,501.31,339.56Z"/><path class="cls-97" d="M381.16,492.84l-7,28.88c-2.47,8.4-10.34,12.59-15,19.28-2.34-6.46-.43-12.82,1.48-18.75C364.39,510.47,371.05,500.36,381.16,492.84Z"/><path class="cls-98" d="M586.81,319.84c4.34,12.26-1,31-11.18,39.47-5.26-5-5.73-10.13-1.42-16.34a37.21,37.21,0,0,0,6.39-18.34C580.93,320.18,582.72,318.82,586.81,319.84Z"/><path class="cls-99" d="M415.62,503.31c6.45,1.79,2,5.82,1.51,8.65-2.09,11.28-8.8,21.48-7.8,33.5-1.41,6.08-5.9,5.71-10.54,5-5.73-3.71-2.75-8.46-1.11-12.63,4.15-10.51,9.23-20.68,10.4-32.14a2,2,0,0,1,2.15-1.7Z"/><path class="cls-100" d="M496.88,379.1c22.45,5.48,45.55,6.54,68.27,10.11.71.57.93,1.12.66,1.64s-.52.76-.77.76l-45.79-4.41c-1.41-1-3.18-.85-4.72-1.46l-6.36-.64c-1.93-1.82-4.75-.33-6.76-1.83-10.74-2.55-5.68,6-7,10,0,1.06-.52,1.4-1.51,1C492.73,388.85,490.74,382.9,496.88,379.1Z"/><path class="cls-101" d="M411.86,499.6c-1.79-8.25,4.31-18.1-5-24.84l8.94-4.24c6.68,8,3.47,17.62,4.57,26.55C418,499.59,414.79,499.06,411.86,499.6Z"/><path class="cls-102" d="M405.09,445c-17.33,15.23-31.35,32.82-39.14,54.86l-2.23-2.73c7.1-23.26,22.31-40.42,41.26-54.74C405,443.21,405.05,444.08,405.09,445Z"/><path class="cls-103" d="M410.23,504a12.69,12.69,0,0,1-1,1.55,339.68,339.68,0,0,0-30.69,20.89c-2,1.37-3.84,3.12-6.41,3.47-5.59,2.74-6.89,9.09-11,13.07l-2-2c3.3-7.76,9.74-13.06,15-19.28,11-6.62,20.41-16,33.2-19.7Z"/><path class="cls-104" d="M389.68,479.68c-.45-10.81,12.36-17.83,24-13.16Z"/><path class="cls-105" d="M369.73,398.51c-3.94-6.1-3.62-13.6-6.58-20a14.37,14.37,0,0,1-2-11c.94-3.37,1.74-6.76,1.2-10.32a3.89,3.89,0,0,1,1.16-2.63l3.7-.14c-.2,14.14.8,28.14,4.62,41.84Z"/><path class="cls-106" d="M676.56,461.84c-2.9,12.61-5.19,25.38-10.18,37.42h-2.59q5.24-20,10.46-40C675.68,459.51,675.84,460.93,676.56,461.84Z"/><path class="cls-107" d="M481.94,435.3c-2.61,1.7-2.09,4.51-2.49,7-5.58-6-6.29-14-11.23-23.53C477,423.75,480.29,428.87,481.94,435.3Z"/><path class="cls-72" d="M637.29,288.61c0,4.89-4.94,6.31-6.83,9.87l-3.69,1.61-.27-.31c-1.64-2.54,1-3.2,2-4.54l9-6.43Z"/><path class="cls-108" d="M609,334.7V341c-1.91-3.36-7-6.06-2.38-10.49Q607.77,332.59,609,334.7Z"/><path class="cls-92" d="M440.07,459.35c3.45-3.1,7.49-1.84,11.4-1.55C447.89,459.91,444,459.75,440.07,459.35Z"/><path class="cls-79" d="M539.27,439.53c-2.87.12-6.27.82-4.54-4.12A7.2,7.2,0,0,1,539.27,439.53Z"/><path class="cls-95" d="M529.14,339.64c2.68-.68,5.29-.94,7.4,1.4A8.76,8.76,0,0,1,529.14,339.64Z"/><path class="cls-77" d="M492.87,394.3a5.23,5.23,0,0,1,1.51-1c.62,1.93.61,3.71-1.16,5.1Z"/><path class="cls-53" d="M590.78,587.5l-1.38-2.83Z"/><path class="cls-89" d="M376.77,404.94l1.71,2.67Z"/><path class="cls-65" d="M393.77,424.76l2.42,1.7Z"/><path class="cls-73" d="M466.43,356.62l.51-2.8a1.64,1.64,0,0,1,1.51.94Z"/><path class="cls-65" d="M397.57,427.21l3.06,1.75Z"/><path class="cls-107" d="M480.12,444.19l1.54,2.48Z"/><path class="cls-65" d="M400.71,429l2,1.55Z"/><path class="cls-91" d="M510.18,503.62l1,.42-.9-.48Z"/><path class="cls-107" d="M484.1,437.7,482,435.38Z"/><path class="cls-65" d="M414.12,668.29c-1,5.06-2.51,6.9-7.18,2.36a185.83,185.83,0,0,1-26.08-31.09c-.71-3-1.41-5.91-2.12-8.86,1.63-5.76,5.26-7.07,10.74-5.2,32.48,11,59.95,1.18,84.45-20.55,3.74-3.31,7.77-5.31,12.82-4.93l1.69-.1c11.68,5.09,22.6,11.4,32.07,20,21.84,19.93,23.94,38.5,7.19,63.29-7.11,3.53-14.39,6.78-21.27,10.71-4.14,2.35-5.83,1.63-8.26-2.43-5.53-9.24-10.93-13.9-19.95-17.75,4.25,4.48,8.6,8.88,12.72,13.48,4.57,5.1,6.25,10.94,2.19,17-8.11,12.07-14.85,25.09-24.65,36-4.57,2.27-6.24,6.92-9,10.72-2.07,2.87-4.41,6.53-8.77,4.48-3.75-1.75-2.82-5.53-2.32-8.74,1.85-11.94,5.55-23.38,9.48-34.76,2.85-8.26,5.86-16.49,8-25,3.53-14.29,1.9-17.1-12.26-21.23a54,54,0,0,0-5.34-1.15C436.37,661.21,425.09,663.3,414.12,668.29Z"/><path class="cls-109" d="M363.58,591.34c7.14-10.09,10.71-23.12,23.52-28.54,5.21-3.18,11.47-5.09,14-11.55,9.9-3,19.28-8.61,30.29-6.23,10.2.38,20.51-.52,30.47,2.66,3.2,4.42-1,6.49-3,9.09-8.16,10.3-18.55,18.39-27.64,27.77a80.19,80.19,0,0,0-43.93,17.63,8.35,8.35,0,0,1-2.09,2.06h-.1c-8.2-.38-14.66-5.1-21.59-8.64Z"/><path class="cls-110" d="M431.18,584.54c-.3-4.49,2.37-6.71,5.63-9.5,9.43-8,18.7-16.41,25-27.36,15.84,2.46,31,7.21,45.88,13.08-3.08,5.74-5.86,11.66-9.28,17.2-10.74,17.36-10.93,17.6-29.77,11.26C456.4,585.09,443.91,584.26,431.18,584.54Z"/><path class="cls-111" d="M431.38,545a120.33,120.33,0,0,0-30.94,8.77c-3.39,4.06-6.83,8-13,6.81l-3.45-.43c.39-3.75,3.5-5.13,6.06-7a36,36,0,0,1,4.54-2.74,9.44,9.44,0,0,1,2.49-.76l1.31,0,10.93-4.18a62.77,62.77,0,0,1,21.87-2.78Z"/><path class="cls-65" d="M483.8,597.24l4.64,2.68-1.08.75c-1.9.36-3.85.79-3.29-2.33A.87.87,0,0,1,483.8,597.24Z"/><path class="cls-112" d="M350.11,185.26c6.61-.07,13.26-.81,19.79.84,6.92.66,7.07,7.17,9.86,11.4a167,167,0,0,1,8.5,14.88c1.5,2.88,3.31,5.93-1.15,8-10,1.86-20.91-.2-29.83,6.61-6.95,4.39-14,8.61-18.59,15.83-10.92,12.92-15.74,28.35-18.12,44.68-.91,6.26-.07,12.33,5.46,16.66,9,3.83,18-.73,27,0,6.25,2.21,3.24,4.6.37,7.52-8.73,8.87-19.09,15.57-29.24,22.58-6.2,4.28-13.2,8-15.34,16.19l0,0c-.84.46-1.69.91-2.54,1.35-15.26,6.5-18.39,5.31-33.12-12.5-4.78-2.18-6.36-6.85-8.43-11.06-5.84-11.88-9.22-24.59-11.34-37.55-.84-5.15-1.88-11,3-15.35,1.62-.27,2.59.65,3.57,1.8,8.63,10.2,13,10,20-1.36,4.54-7.42,8.29-15.27,9.79-24,1.85-10.77-1.46-14.75-12.23-14.46-3.35.09-6.58.66-8.36-3.12l1.56-4.65c3.36-4.19,5.18-10.63,13.21-6.5,2.91,1.49,4.64-2.32,3-4.76-4-5.9.17-8.4,3.94-11.13,9.12-6.61,19.19-11.46,30.7-16.66-1.31,8.51-2.67,15.79-3.47,23.14-.38,3.6-1.75,9.71,5.65,4.85,7.67-4.61,2.4-12.17,4.14-18.14C327.73,184.2,340.52,187.09,350.11,185.26Z"/><path class="cls-113" d="M212.32,98.05c4.82-6.61,5.59-15.34,11.26-21.51,14.14,19.38,28.51,38.59,42.33,58.19,7.39,10.48,16.51,15.82,29.47,13.46,6.34-3.23,12-.92,17.56,2.15l21,1.19c-3.4,11-6.77,21.67-9.92,32.38-.9,3.05-3.4,3.4-5.66,4.45-11.18,5.21-22.74,9.87-32,18.35-4.45,4.07-5.95.95-7.95-2.33a166.1,166.1,0,0,1-16.5-36.68c-1.53-4.85-3-9.75-4.83-14.48-6.19-15.81-11.39-18.23-27.42-13.09l-.94-.17-.94.18c-.95.37-1.88.76-2.8,1.16-10.3,3.07-18.31-4.53-16.89-16.47C209.14,115.86,210.88,107,212.32,98.05Z"/><path class="cls-61" d="M225.17,69.42a3.86,3.86,0,0,0,.92-.57C232.9,61.46,237.53,50,250.3,52.38c17,3.17,30.49,11.9,38.33,28-19-3.86-25.41-.37-31.34,20.47-2.26,7.93,1,10.81,8.93,10.09,12-1.08,24-1.54,36-2.87,4.5-.5,7.76.42,10.58,3.7,5.12,13.42,16.71,23,21.77,36.43l-18.34-.1c-7-.18-14.09,1.1-20.77-2-19.35.57-27.93-13.81-37.07-27.06C247.07,102.62,234.69,87,225.17,69.42Z"/><path class="cls-114" d="M157,183.25c22.32-18.7,48-31.26,75.14-41.18l6.07-.75c2.25-.47,4.55-1.36,6.48.8l-.08,0c1.66,5.62-3.57,6.12-6.29,8.48l.14.27c-24.09,7.28-42.48,23.48-60.7,39.61-12.52,11.07-23.91,23.42-35.81,35.2-4.37-6.17-8.34-12.51-9-20.32l4.08-4.92c3.89,2.5,6.66.69,9.5-2.13,4.11-4.09,8.07-8.31,12.55-12.07C161.16,184.47,156.78,185,157,183.25Z"/><path class="cls-115" d="M269.33,224.15c-12.32-18.29-24.55-36.64-37-54.83-4.88-7.13-6.55-12.65,4.65-14.41,1.34-.21,2.55-1.29,3.82-2,7.79,7.06,10.32,17.22,15.1,26,5.52,10.16,9.77,21.05,15.81,30.86C275.6,216.19,275.19,220.2,269.33,224.15Z"/><path class="cls-63" d="M350.37,179.1c.1,2.13-1.65,2.92-2.94,4H332.51l8.52-22.4C346.9,166.69,346.23,174.08,350.37,179.1Z"/><path class="cls-116" d="M238.33,150.56l6.29-8.48c9.66,7.88,11,19.42,13.42,30.49l.1-.09c-4.22-3.77-5.66-9.21-8-14C247.54,153.35,244.17,150.35,238.33,150.56Z"/><path class="cls-117" d="M327.82,200.34c.28,6.43,10.17,15-4.14,18.14Z"/><path class="cls-118" d="M295.42,146.05c7,0,14-.6,20.77,2-1.08.75-2.16,1.5-3.25,2.24-6,.46-11.78-.89-17.56-2.15C295.4,147.47,295.41,146.76,295.42,146.05Z"/><path class="cls-116" d="M244.7,142.12l-6.49-.8C240.72,138.81,242.89,139,244.7,142.12Z"/><path class="cls-116" d="M258,172.57l1.63,2.22c-2.45.52-1-1.54-1.53-2.31Z"/><path class="cls-119" d="M205.54,442.18c.33,6.47,5.36,12.9.16,19.41-3.43-11.82-7.61-23.18-18.44-30.55,4.64,5.89,7.82,12.6,10.83,19.37,10.18,22.86,6.15,37.62-12.68,54.29-29.5,26.1-61.44,49.15-91.31,74.74-29,24.86-57.74,50-87.58,76-1.22-6.36,1.54-10,3.79-13.73h0c.31-3-.4-6.28,2.27-8.67,6,1.19,7.19-4.48,10.28-7.33,11.84-10.9,18-25.94,27.68-38.44C66.92,571,79.18,551.41,93.67,533.63c6.21-7.61,11.62-15.91,17.81-23.56,2.22-2.74,4.9-6.09,9.15-4,3.83,1.88,4.15,5.85,3.84,9.54-.88,10.82-8.87,18.11-13.27,27.52,5.24-10.41,17.24-9.58,24.78-15.27a198.33,198.33,0,0,0,27.71-24.69c2.95-3.26,5.9-6.59,7.24-10.84,1.09-3.43,2.94-7.71-4.24-5.86-7,1.8-7.38-2.82-6-7.65,1.31-4.62,2.82-9.07,1-14.61-3.33,2.95-5.76,6.52-9,9.19-3,2.46-6.19,7-10.17,3.83-4.23-3.39-.32-7.57,2-10.43,8.52-10.48,15.17-22.41,24.52-32.17,4.39-4.57,5.75-8.93,3.21-14.59-6.28-10.11-17.72-10.82-29.4-15.07,12.4-4.37,22.07.43,31.95,2.07C190.94,413.61,200.32,426.08,205.54,442.18Z"/><path class="cls-120" d="M51.93,589c-10.44,16.3-19.86,33.28-34.82,46.29-5.25,4.57-4.27.85-4.53-2.32l4.5-17.57,4.25-6.61c1.41-1.3,1-3.32,1.94-4.8a1.86,1.86,0,0,1,.71-1.75,12,12,0,0,0,1.29-2.64l.41.38-.44-.35c10.22-7.93,16.34-19.54,25.43-28.4,3.83-3.73,9.46-11.42,14-7.59,5.6,4.73-2.67,9.82-5.23,14.59C57.37,582.12,54.42,585.44,51.93,589Z"/><path class="cls-121" d="M742.32,54.38c6.74,3.22,12.3,8.06,17.75,13,1.76,2.3,3.65,4.51,5.24,6.92,12.54,18.91,11.26,28.06-6.74,41.31-35.9,26.42-72,52.53-108,78.76a7.32,7.32,0,0,1-1.91-2.12c-3.65-7.13-7.78-14.06-10.81-21.44s-7.15-9.06-13-3.82c-7.15,6.4-9.38,3-12.49-4.17-5-11.59-11.46-22.54-17.91-34.9L604,129c7.44,0,14.93,2.18,22.32-.4q49.73-35.08,99.44-70.15C730.73,55,735.53,50.61,742.32,54.38Z"/><path class="cls-61" d="M685.62,49.83l28-2L729.76,51,624.3,126.69c-5.84,7.15-11.8,4-17.77.21-15-1.19-20.85-11.41-23.88-24.36C614.68,80.49,649.55,64,685.62,49.83Z"/><path class="cls-94" d="M657.62,223.19c0,4.77-3.71,6.38-6.6,8.1-3.51,2.09-4.1-1.8-5.1-3.73-8.22-15.72-16.13-31.61-24.49-47.27-3.79-7.1,3.1-7.73,5.94-10.46,4.37-4.18,5.64,1.14,6.74,3.42C642.16,189.88,649.89,206.66,657.62,223.19Z"/><path class="cls-122" d="M606.53,126.9c5.93.65,11.89,4.07,17.77-.21l2,1.95c-7.31,7.56-14.82,3.68-22.32.4Z"/><path class="cls-123" d="M628.53,295.24q-1,2.28-2,4.54l-8.9,2.05.13.15c1.23-3.74,4.18-5.53,7.62-6.76Z"/><path class="cls-75" d="M648.62,192.28l1.91,2.12-2.1-.17A6.73,6.73,0,0,1,648.62,192.28Z"/><path class="cls-124" d="M637.48,288.81c.19-.53.39-1.07.58-1.61.26.3.51.61.76.92l-1.53.49Z"/><path class="cls-125" d="M617.62,609.14c4.13,8.15,8.46,16,19.9,12.18,14.68,15.36,28.3,31.48,37.13,51.08,1.32,1.16.81,3.26,2.23,4.37h0a357.74,357.74,0,0,1,16.77,65.42c2.49,15.25.41,30.58,2.53,45.79.64,4.58-1,10.19-6.39,11.52s-7.46-3.79-9.52-7.46c-2.66-4.74-4.43-10-7.57-14.48a7.37,7.37,0,0,1-.5-1.78q-.75-1.31-1.41-2.67c-15-49.19-36-96.17-53.56-144.42C617.7,622.18,611.74,615.54,617.62,609.14Z"/><path class="cls-64" d="M707.69,904.62C695.56,893,689.85,879.29,692.14,862a74.81,74.81,0,0,0-4.59-38.29l-7.82-22.13c1-1.1,2-2.32,3.49-2.38,10.84-.42,14.14-3.65,13.07-14.49-1.79-18.3-2.2-36.77-6-54.85-1.13-5.3-.51-9.48,6.4-9.26,8,28.57,14.31,57.48,17.41,87,1.18,11.23-4,21.31-4.62,32.21-.77,14,1.11,27.49,4.5,40.92-3.9,3.07-3.32,7.52-3.64,11.71S711.07,901.12,707.69,904.62Z"/><path class="cls-126" d="M696.65,720.61c-4.9,2.06-5.36,5.48-4.7,10.57,2.36,18,6.69,35.67,6.78,53.9a34.93,34.93,0,0,1-1,9.69c-3,10.84-11.42,6.16-18,6.82q-3.53-12-7-24c6.78,4,8.26,11.77,12.67,17.48,3.82,5,5,3.4,7.09-1.21,2.35-5.19-.13-10,0-14.91.8-33.13-5.14-65-16.8-96-.9-2.39.39-4.22,1.23-6.19C685.41,690.5,691.45,705.37,696.65,720.61Z"/><path class="cls-127" d="M707.69,904.62c0-6.38-.24-12.77-.09-19.14.1-4,1-7.5,6.34-4.69,4.56,11.36,9.19,22.7,11.62,34.77,0,3.79,0,7.58,0,11.37l-4.21,15C716,927.64,714.08,915.24,707.69,904.62Z"/><path class="cls-126" d="M676.88,676.77a4.29,4.29,0,0,1-2.23-4.37A4.55,4.55,0,0,1,676.88,676.77Z"/><path class="cls-128" d="M527.74,19.1c-4.44,1.19-4.85,3.51-3,7.6a32.22,32.22,0,0,1,3.11,16.4c-.54,1.61-3.33-1.46-2.72.88a122.49,122.49,0,0,1,3.59,23.52c1.3,21.86,13.79,40,20.25,60.1.3.94,1.68,1.23,2.82,1.16,7.92,12.16,9.74,26.77,15.75,39.89,3.26-9.92,1.09-19.63,1.68-30.17,3.9,5.87,7.66,11.85,11.76,17.57,3.9,5.44,6.3,12.77,15,12.68,1.1,0,2.6,1.48,3.26,2.65,10.91,19.26,23.75,37.6,28.72,59.71.39,1.72.87,4.24,0,5.29-6,7.16-3.16,14.28-.58,21.57,1.2,3.4,2.92,7.75-.69,10-4.1,2.55-6.82-1.58-8.46-4.62-3.54-6.52-11.52-6.62-16.35-13.21-4.58-6.25-11.81-12.53-17.8-19.3-.65,12.71,4.46,23.81,7.06,35.4,2.22,9.89,5.18,19.62,8,29.37,1.7,5.94-1.13,8-6.49,8.47-8.65.78-17.29,1.7-25.94,2.57-1.41.93-2.71,1-3.87-.42-2.26-3.06-5.52-2.25-8.58-2.2-12.65-2.05-21.66-10.29-30-18.9-5.24-5.43-4-13.64-5-20.7-3.94-28.65-1.78-57.51-2.45-86.27-.15-6.19-.33-12.39-.49-18.58q0-47.26.08-94.53V5.45C524.17,8.52,525.15,14.46,527.74,19.1Z"/><path class="cls-129" d="M453.47,284.92a645.77,645.77,0,0,1,56.27-112.4c2.87-2.17,2.83.27,2.86,2,.4,22.57.71,45.15,1.13,67.72.11,5.39-4.21,7.52-7.49,10-17.67,13.45-35.57,26.61-53.72,40.12C450.29,289.61,454.65,287.46,453.47,284.92Z"/><path class="cls-130" d="M484.07,598.34l3.29,2.33c-6.11,1.5-10.25,5.81-15,9.62-24.75,20-52.09,29.5-83.52,17.69-4.91-1.85-7.36-.43-10.13,2.72-2.32-14.14,5.8-23.72,16.33-29.64,21.89-12.3,45.4-17.34,70.25-8.45C471.47,594.81,477.82,596.45,484.07,598.34Z"/><path class="cls-43" d="M363.47,595.59c8.62-.69,14.9,4.49,21.59,8.64-4.3,5.79-8.41,11.71-11.75,20C369.13,613.8,364.11,605.5,363.47,595.59Z"/><path class="cls-43" d="M385.16,604.23l2.09-2.06Z"/><path class="cls-74" d="M775,189.94a19.39,19.39,0,0,1-9.76,13.31c-8.71,5.16-16.56,11.79-24.77,17.8-1.73,5.12-6.33,7.42-10.12,10.6-6.42,5.39-10.77,4.18-13.47-3.65-3-5.2-2.17-11.77-5.9-16.72-4.5-13.06-10.61-25.64-11.68-39.7-.58-3.88-1.63-7.24,2.82-10.45,23.6-17,46.88-34.42,70.3-51.66.51-.38,1.36-.3,3.09-.63C779.89,136,776.55,163,775,189.94Z"/><path class="cls-131" d="M699.31,171.58q6.45,20.05,12.89,40.12a2.47,2.47,0,0,1-.46,3.45c-7.13-12.7-11.22-26.53-14.94-40.49C697.63,173.63,698.47,172.61,699.31,171.58Z"/><path class="cls-115" d="M238.72,188.87q0,6.16.05,12.33l-.21,1.45c.17,3.46.24,6.92.32,10.39.06,2.62.1,5.24,0,7.86a32.32,32.32,0,0,1-.83,6.5c-2,4.36,0,10.18-4.82,13.56-8.85-4.23-13.16-12-16.13-20.79l.21-.27c-11.57-13.41-9.92-29.81-9.66-45.61.13-7.75,8.45-9.67,13.88-12.12,4.64-2.08,5.16,4.78,7.28,7.68,3.6,4.93,6.42,10.43,9.57,15.69A3.23,3.23,0,0,1,238.72,188.87Z"/><path class="cls-132" d="M240.93,203.89c.65-3.16,1.31-6.32,2.28-11l23.27,32.84c1.51,2.14.79,4.13-.43,6.06-4.73,7.47-6.8,16-9.9,24.16-3.87,9.37-5.29,9.5-13.58,1.28-8-6.58-7.44-15.41-6.36-24.37.33-4,1.34-7.93,1.34-12C239.91,215.45,236,208.78,240.93,203.89Z"/><path class="cls-133" d="M269.12,234.19c2.73,1.28,5.29.94,8.3.36,11.38-2.17,17.24,3.55,15.58,15.14-1.63,11.28-6.33,21.56-12.82,30.77-2.94,4.17-6.49,9.79-13.06,7.8-6.09-1.85-9.06-6.83-9.36-13.25-4.72-5.7-3.65-11.13.74-16.41C262,250.45,263.87,241.58,269.12,234.19Z"/><path class="cls-134" d="M258.5,258.6c-.16,5.47-2.28,10.86-.74,16.41-4.52,18.95,3.32,35.58,9.95,52.4,1.59,4,3.62,7.9,5.45,11.84l-4.64,1.8c-5.52-8.37-10-17.38-17.61-24.39-5.09-4.68-7.85-11.16-8.59-18.25a71.73,71.73,0,0,0-1.08-7.86,6,6,0,0,1,1.37-4.57,4.88,4.88,0,0,1,4.7-.06,7.82,7.82,0,0,1,1.74,2.65c1.15,7.15,2.32,14.31,6.21,20.69-5.64-11.24-3-23.68-5.24-35.36a3.23,3.23,0,0,1-4.3-3.37c.34-4.57-3.38-7.76-4-12,.26-1.61.84-2.85,2.83-2.47l6,6.39,5.65-6.55C256.93,256.81,257.72,257.7,258.5,258.6Z"/><path class="cls-66" d="M133,205.32c3.9,6.37,9.21,12.12,9,20.32a3.82,3.82,0,0,1-.13,1.68C131.55,223.3,129.13,217.28,133,205.32Z"/><path class="cls-135" d="M240.93,203.89c-.31,5.72.3,11.56-2.32,17-.75,1-1.46,1-2.15-.06q0-4,0-8c1.86-3.75-.15-8,1.63-11.8l.7.25Z"/><path class="cls-132" d="M238.72,188.87l-.3-3.33C240,186.52,240.15,187.63,238.72,188.87Z"/><path class="cls-136" d="M51.93,589c1.42-9.45,10.6-15.1,12.94-25.78C56,569.86,48.68,575.67,43.32,584c-4.33,6.77-9,14-18.08,15.63C41,557.91,57.75,516.58,77.17,476.34c7.58-15.7,15.41-31.23,23.67-46.58,6.55-12.2,16.55-18.85,30-20.77,15.25-1.74,28.3,4.78,41.42,11,8.06,4,6.56,7.79,1.23,14a412.61,412.61,0,0,0-30.91,41.53c9.82-2.48,14-11.29,21.81-18.83,0,8.72,3.44,15.69-1.46,22.58-1,1.46-1.8,3.57-.3,5,2.31,2.28,3.89-.18,5.41-1.47,7.14-6,6.88-.19,6.68,4.36-.58,13.23-10.94,20.13-19.47,27.59-5.46,4.78-10.8,9.68-16.19,14.55-3.13,2.82-5.2,8.4-11.44,3.81-2.88-2.1-5.18,1.83-7,3.85-4,4.58-7.68,9.52-13,12.92-.41-9.25,6.09-14.43,8.87-21.42.79-2,2.59-3.54,3.54-5.48,2.5-5.07,4.74-12-.17-14.9-4.57-2.7-6.89,4.42-9.59,8q-25.47,33.3-51,66.52C57.27,585.12,54.38,586.91,51.93,589Z"/><path class="cls-136" d="M23.27,604c.46,2,0,3.72-1.94,4.8C21.36,607,21.54,605.19,23.27,604Z"/><path class="cls-136" d="M25.27,599.64,24,602.28Z"/><path class="cls-137" d="M361.05,109.11c-5.5-4.51-12.25-4.06-18.65-4.33-25.14-1-50.28-1.15-75.35,1.54-.61-9.3,2.73-16.72,10.46-22,4.4,3.24,9.15,5.37,15.13,4.58-2.52-.38-4.24-1.11-3.87-3.84,22.1-.41,43.69,3.94,65.44,6.86,3.69,1.22,7.34,2.6,11.09,3.64,3.92,1.08,8.09,2.22,8.43,6.94.41,5.75-5.44,4.44-8.47,6.26C364.17,109.37,362.47,109,361.05,109.11Z"/><path class="cls-138" d="M315.63,107.16c9.84.45,19.7,1.47,29.52,1.22s12.17,3.09,7.19,11.54c-6.06,7.19-9.28,16.12-14.94,25.47C331,131.15,320.16,121.07,315.63,107.16Z"/><path class="cls-139" d="M278.1,85.22c-5.75,6-6.93,14.29-11.05,21.1-5.09,1.08-7.56-.64-6.82-6.15,1.51-11.3,12.45-18.35,24.43-15.65C282.68,86.75,280.47,86.75,278.1,85.22Z"/><path class="cls-140" d="M278.1,85.22l6.56-.7,4.11.5c3.14,3.76,8.51.31,11.84,3.61C290.89,93.89,282.19,92.56,278.1,85.22Z"/><path class="cls-126" d="M670.78,773.11l1.41,2.67Z"/><path class="cls-65" d="M386.93,219c3.29-5.34-3.09-7.09-4.45-10.69-3-7.85-8.24-14.83-12.58-22.16,37.57.24,70.55,25.86,70.1,76.33-3.4,13.33-8,26.08-17.56,36.45a94.45,94.45,0,0,1-37,24.05c-25.61,9-51.08,18.3-76.61,27.49-3.1-4.13-1.84-7.35,2.07-10.06,15-10.42,30.18-20.65,44-32.66.15-.13,0-.72-.12-1a3.72,3.72,0,0,0-.75-.79,3.46,3.46,0,0,1,.67-2.91c16.43-8.85,31.6-18.94,41.72-35.49s9.37-27.56-4.62-41.71C389.84,223.78,386.94,222.38,386.93,219Z"/><path class="cls-67" d="M363.5,354.54c0,.73,0,1.47,0,2.21-15.88,4.18-31.36,10.54-48.32,8.86-7.55.75-15.12,1.3-22.64,2.28-14.93,1.94-28.26-2.65-39.95-11.11-6.76-4.89-9.8-1.62-10.3,3.68-1.66,17.23-13.53,23.18-27.59,27.86-8,2.67-14.28,8.48-20.21,14.44-7.8,7.28-11.26,7.23-13.47-.2,16.56-15.47,35.38-28.78,46.87-49.08,1-1.76,3.1-3.29,1.51-5.75a10.69,10.69,0,0,0,0-2c-.17-8.12,4.71-10.07,11.4-8.59,7.37,1.64,14.57,4,21.84,6.09,5.17.28,10.61.65,13.84,5.22,8.88,12.58,20.41,13.63,32.56,6.65C327.37,344.61,345.3,348.84,363.5,354.54Z"/><path class="cls-141" d="M243.12,286.75c0,1.34.09,2.67.13,4,.94,2.31.2,4.9,1.19,7.2.43,9.71,7.16,15.56,13.35,21.72a35.49,35.49,0,0,1,10.73,21.37l-.49-.29-.54.19c-7.94-1.52-12.91-6.36-16.61-13.45-5.3-10.18-11.32-20-17-30-7.39-20.58-14.45-41.29-18.36-62.85-.63-3.49-4.43-8,.75-11.37,7.4,4.61,9.7,13.63,16.34,18.9,2.34,5.95,8.74,9.31,10.17,15.85,1.83,4.18,8.74,6.71,4.21,12.95C246.85,276.55,247.3,282.22,243.12,286.75Z"/><path class="cls-142" d="M366.67,342.87c-.77,3.95-.86,8-7.23,6.19-6.78-1.91-13.89-2.68-23.85-4.49,10.72-4,18.58-7.48,26.79-9.71,9.07-2.47,4.51,4.16,4.4,7.67Z"/><path class="cls-143" d="M418.32,308.71c1.8,2.21,7.28,2.33,3.59,7.56-5.87,8.34-22.14,13.35-32.53,9.56A140.12,140.12,0,0,0,418.32,308.71Z"/><path class="cls-73" d="M366.67,342.87l-.31-.3.42-.05.32.33Z"/><path class="cls-65" d="M306.28,351.75l2.54-1.35Z"/><path class="cls-144" d="M157,183.25c2.16.86,8.58-1,3.18,4.75-5.18,5.49-10.51,10.82-15.87,16.12-6,5.92-6.69,1.14-7.27-3.72l6.52-6.26a3.4,3.4,0,0,0,2.48-2.17L146,192a3.87,3.87,0,0,0,2.32-2.18l-.06.05a15.69,15.69,0,0,0,2.5-1.85l.07-.05c1.82-1.93,4.61-2.59,6.25-4.76Z"/><path class="cls-145" d="M206.59,135.66c3,4.72,7.12,6.48,4.28,10.67-.62.92-3.28,1.72-3.79,1.25C204,144.73,205.68,141.26,206.59,135.66Z"/><path class="cls-114" d="M157.07,183.24c-.9,3.14-3,4.63-6.25,4.76A8.66,8.66,0,0,1,157.07,183.24Z"/><path class="cls-114" d="M225,141.3l2.8-1.16Z"/><path class="cls-114" d="M146.05,192l-2.48,2.17Z"/><path class="cls-114" d="M148.31,189.85,146,192Z"/><path class="cls-114" d="M150.75,188.05l-2.5,1.85Z"/><path class="cls-146" d="M448.25,661.56c24.93,5.9,26.16,8.17,18.5,32.59-6.15,19.62-14.34,38.71-16.74,60.15,5.44-.08,7.11-3.92,9.45-6.79,2.49-3.06,3.52-7.93,9-7.28l-35.2,54.71c-2.31-2.39-2.44-5.4-1.52-8.17,8.8-26.51,7.34-55.3,16.56-76.7-2,8-6.14,20.47-8.53,33.42-.47,2.53-1,6.11-3,6.72-11.21,3.35-8.37,12.53-9.12,20.3-.4,4.18.89,8.9-3.49,11.93a14.06,14.06,0,0,0-1.41-.53q-.28-9.74-.59-19.46c-.15-6,1.5-12.21-1.44-18q-2.22-36.92-4.45-73.83c4.25-10,13.66-7.74,21.48-8.75C441.12,661.41,444.76,663.59,448.25,661.56Z"/><path class="cls-147" d="M424.14,782.44c.47-8.68.78-17.36,1.53-26,.21-2.42,1.79-6.8,2.59-6.77,14.08.62,8.93-11.63,11.44-17.86,4.63-11.54,7.22-23.91,12.28-35.56-8.45,32.54-9.65,66.34-18.7,98.7-1.44,2.78-2.48,5.84-6.16,8.16A56.18,56.18,0,0,1,424.14,782.44Z"/><path class="cls-148" d="M335.71,531.83c-12.65-11.5-12.31-12.5,5.23-19.25.19.31.61.68.55.9C339.7,519.27,337.86,525.05,335.71,531.83Z"/><path class="cls-149" d="M300.41,397.62,295.75,393c0-.47,0-.94,0-1.41,1.84-14.45,15-22.81,31.85-20.25,5.73,4.12,4,11.24,6.73,16.69,5.45,11,9.79,22.6,15.63,33.48,3.47,6.46.62,8.49-5.82,7.84s-11.67-3.77-16.84-7.19c-10.23-6.76-20.77-13.19-27.17-24.26Z"/><path class="cls-17" d="M300.11,397.91c12.48,9.28,23.33,20.8,38.06,27a46.66,46.66,0,0,0,14,3.49c-11.64-19-17.82-38.12-26.09-56.37a4.37,4.37,0,0,1-1.65-1.2,3.61,3.61,0,0,0-1.78-1c-.71-.08-1.4-.21-2.09-.35a4.68,4.68,0,0,1-2.79-1.55l-2.56-2.33c16.18-2.56,31.48-9.86,48.32-8.86,3.09,2.79,2.37,5.71.31,8.68-10.72-2.07-21.16-2.35-30.42,4.78a6.91,6.91,0,0,0-.12,3.72,2.69,2.69,0,0,1-.27,2.34c3.9,16.84,13.13,31.5,19.38,47.38,1.46,3.71,3.88,4.19,7.71,4.13,7.52-.12,13.78-4.37,20.95-5.3-5.33,7.58-13.81,7.7-21.72,9-5.27.85-10.61,1.28-15.91,1.9l-2.24-2.43c-17.87-4.58-31.8-14.55-41.46-30.34Z"/><path class="cls-150" d="M325.65,369.92a3.74,3.74,0,0,1,.42,2.1c-13.79.83-24.77,6-30.34,19.58l-17.85-19.38c14.93,1.48,26.91-.86,38.94-2.68,1.48-1,3.41-.48,4.9-1.47a2.08,2.08,0,0,1,2.09,0A4,4,0,0,1,325.65,369.92Z"/><path class="cls-149" d="M321.72,368.07c-1.28,1.69-3,1.92-4.9,1.47.34-.52.65-1.05.94-1.6Z"/><path class="cls-1" d="M249.5,551.64c-.64.2-1.29.4-1.92.62,0-2.35-.82-5.79,2.95-5.12C252.06,547.41,250,550.07,249.5,551.64Z"/><path class="cls-151" d="M299.73,400.59c11.74,13,26.23,22.16,41.46,30.34-15,6.43-27.21,17.87-43.25,23.8-3.35-16.4-3-32.37-2.12-48.34C296,404.14,296.36,401.11,299.73,400.59Z"/><path class="cls-152" d="M311.27,494.25q-4.41-9.9-8.81-19.8c-3.56-15.56-1.79-18.28,13.55-24.67,4.31-1.79,5,.48,6.36,3l9.65,18c2.59,4.84,3.07,8.76-2.9,11.95C322.9,486.08,317.2,490.38,311.27,494.25Z"/><path class="cls-153" d="M229.42,347.73c7.75-1.4,3,3,2.05,4.88-8.75,16.9-22.57,29.42-37,41.06-4,3.25-6.53,9.67-13.39,8.9C192.59,380.25,211.21,364.17,229.42,347.73Z"/><path class="cls-154" d="M448.25,661.56c-3.43,4.18-8.06,2-12.17,2.17-7.31.4-14.66.4-19.83,6.86l-2.13-2.3C423.62,656.54,436.2,660.38,448.25,661.56Z"/><path class="cls-155" d="M744.32,396.86l5.31,29.9c1.07,7.57-1.31,10.33-9.36,8.05C723.64,430.1,707,425.31,689.8,423c-11.21,1.54-21.2-3.82-31.77-5.86-6.71-1.29-13.33-3.2-20.11-4.29-8.45-2.95-17.22-4.47-26-5.75-8.46-1.9-17.18-2.33-25.52-4.75-3.19-.93-6.82-2.13-6.73-6,.1-4.37,4-4.38,7.33-4.49,7.95-.28,15.69-2.67,23.69-2.35a29.73,29.73,0,0,0,6.58-2,109.81,109.81,0,0,1,17.36-4.84c4.73-.71,9.44-1.71,14.28-1.35,22.76-7.08,41.4-21,59.4-35.93,2.5-2.08,5.14-4,7.71-6C731.16,355.72,737.53,376.39,744.32,396.86Z"/><path class="cls-6" d="M637.8,411.21c17.79,1.92,34.66,7.9,52,11.77l-4.23,3.74-6.39,22.11a2.09,2.09,0,0,1-2.59.46,2.13,2.13,0,0,1,0-2.65c.16-1.28.33-2.57.49-3.85.81-1.54.84-3.33,1.52-4.91,4.95-9.65,1.51-13.69-8.78-15.52-12.34-2.18-24.39-6-36.57-9.12C633.22,409.14,635.74,410.7,637.8,411.21Z"/><path class="cls-156" d="M742.78,223l28.27-19.28c.23,10.81-4,19.84-4.9,29.39-9,31.65-23.27,60.87-40.86,88.56l-6.53,6.62a5.53,5.53,0,0,0-2.35,2.22l0,0c-13.25-4.81-26.14-10.52-40.2-13.17-8.69-1.64-17.5-1-26.09-2.91-3.53-.77-7.57-.48-8.15-5.5-.09-6.32,3.66-11.49,5.17-17.33,9.5-11.77,22.49-19.38,34.75-27.51,18.06-12,35.65-24.61,53.28-37.18A29.34,29.34,0,0,1,742.78,223Z"/><path class="cls-157" d="M643.59,308c5.6,6.58,13.44,3.76,20.35,4.88,18.48,3,37.46,4.48,52.49,17.68a170,170,0,0,1-70.12,48.34c-3.86,3.93-9.22,3.8-14,5.17-5.55,1.33-12.79,5.95-16.33,2.52-4.11-4,1.82-10.42,3.57-15.65,6.09-18.15,14-35.66,18.66-54.33C638.94,313.52,639.13,309.12,643.59,308Z"/><path class="cls-158" d="M632.85,382.88c4.09-2.68,8.89-2.95,13.46-4l2.55,2.44a28.78,28.78,0,0,1-13.81,3.63A4.41,4.41,0,0,1,632.85,382.88Z"/><path class="cls-157" d="M716.41,330.55l2.35-2.22Z"/><path class="cls-75" d="M696.57,547.44c10.62-3.39,14.72-15.22,24.88-19.21q-7,8.49-14,17c-3.89,1.47-6.26,5.73-10.84,6a2.87,2.87,0,0,1-.92-2.58Z"/><path class="cls-159" d="M742.78,223c-17.59,14.7-36.87,27-56,39.55a358.59,358.59,0,0,0-38.27,28.71,2.93,2.93,0,0,1-.37-3.86c19.57-17,41.86-30.29,63-45.13,5.06-3.56,6.89-6.9,4.82-12.5-.84-2.28.21-2.71,2.18-2.23,1.84,5.21,4.05,8.19,9.55,3,3.85-3.61,8.48-6.41,12.77-9.57C741.24,221.72,742,222.38,742.78,223Z"/><path class="cls-87" d="M621.38,578.35l-1.6-2.31Z"/><path class="cls-12" d="M231.5,243.73l-15.26-20.41c.29-1,.59-2.09.89-3.14,6,5.93,10.33,13.08,14.73,20.18A2.54,2.54,0,0,1,231.5,243.73Z"/><path class="cls-160" d="M391.58,553.92,384,560.17l-2.88.67c-4.56-9.84-10.72-19.22-9-30.9l4.5-4.24c4.68,1.79,4.32,6.33,5.32,10C383.81,542.53,388.15,548,391.58,553.92Z"/><path class="cls-161" d="M387.45,560.6l13-6.81c-.79,8.4-6.56,9.46-13.34,9C387.22,562.07,387.33,561.34,387.45,560.6Z"/><path class="cls-75" d="M694.19,545.65l1.56-1.07c.27.95.55,1.9.82,2.86-.62,1-1.23,1-1.85,0A1.62,1.62,0,0,1,694.19,545.65Z"/><path class="cls-74" d="M694.72,547.44h1.85c0,1.24,0,2.48,0,3.72C694.53,550.64,694.74,549,694.72,547.44Z"/><path class="cls-162" d="M612.74,391.4,578,393.85c10.82,11.22,24.09,8,35,11.51-1,5-4.51,2.09-7.06,2.24-11.34-1.86-24-.23-30.94-13.08-1.72-3.18-6.66-1.81-10-2.91l.11-2.4c15.33.11,30.67.28,45.91-1.84a3.86,3.86,0,0,1,3,2.34A1.31,1.31,0,0,1,612.74,391.4Z"/><path class="cls-163" d="M606,407.6c2.26-1,5.28.29,7.06-2.24,8.36,1.47,16.91,2.17,24.75,5.85l-4.58,2Z"/><path class="cls-164" d="M677.12,448.8c.69,0,1.38,0,2.06,0q-1.3,6.51-2.62,13l-2.31-2.62.71-7.07C675.19,450.72,675.29,449.2,677.12,448.8Z"/><path class="cls-77" d="M501.41,383.27a6.94,6.94,0,0,1,6.76,1.83C505.62,385.59,503.26,385.38,501.41,383.27Z"/><path class="cls-75" d="M677.12,448.8,675,452.14c-.21-2-.29-4.06,1.6-5.5C676.74,447.36,676.93,448.08,677.12,448.8Z"/><path class="cls-75" d="M678.57,437.88l-1.52,4.91C676.87,440.94,677,439.18,678.57,437.88Z"/><path class="cls-77" d="M514.53,385.74a4.63,4.63,0,0,1,4.72,1.46A4,4,0,0,1,514.53,385.74Z"/><path class="cls-138" d="M551.8,128.76c-.16,1.42.2,3.46-.6,4.14-2.34,2-3.14-.78-3.59-2.08-7.4-21.26-20.21-40.64-22-63.88-.82-10.42-2.37-20.79-3.65-31.71,5.15,1.33,2.39,6.64,5.93,7.87C539,70.76,542.92,100.46,551.8,128.76Z"/><path class="cls-8" d="M562.86,306.19l3.87.42,9.61,3.32c-7,1.6-12.86-.7-18.85-2.06C558.6,305,561.21,307.13,562.86,306.19Z"/><path class="cls-165" d="M613.3,304.24c-2.25,4-5.6,4.79-10.47,3.31,2.91-3.92,6.66-3.55,10.28-3.51Z"/><path class="cls-123" d="M617.6,301.83c-.68,2.14-2.55,2.16-4.3,2.41l-.19-.2c.89-2.14,2.63-2.38,4.62-2.06Z"/><path class="cls-166" d="M613.9,389.93l-2.84-2.56c8.28-23.3,18.28-46,24.09-70.15,5.72-9.32,5.42-21.27,13-29.78.12,1.28.25,2.57.37,3.86q-2.46,8.32-4.94,16.67c-9.05,25.78-18.1,51.56-27.49,78.33l16.75-3.42,2.2,2.06-17.34,5.17A3.84,3.84,0,0,1,613.9,389.93Z"/><path class="cls-167" d="M718.16,227.58c-.73.74-1.46,1.48-2.18,2.23-1.89-4.75-4.69-9.24-4.24-14.66.16-1.15.31-2.3.46-3.45C716.16,216.26,716.6,222.13,718.16,227.58Z"/><path class="cls-65" d="M529.93,474.68a9.5,9.5,0,0,1-1.84.27l-.84-.67.2-1,.57-.54Z"/><path class="cls-2" d="M527.45,473.23a17.77,17.77,0,0,0,.64,1.72l-2.48-1.57A16.11,16.11,0,0,1,527.45,473.23Z"/><path class="cls-156" d="M333,376.27a2.47,2.47,0,0,1-.52-1.79A13,13,0,0,1,331,372c-.71-1.6-2.42-3.4-1.07-5,4.55-5.34,27.8-6.26,33.89-1.56q-.33,6.54-.68,13.07C352.57,371.9,339.59,370.94,333,376.27Z"/><path class="cls-168" d="M391.58,553.92c-9.24-2.87-9.56-11.85-12.67-18.82-1.29-2.9-1.54-6.25-2.27-9.4,9.74-8.53,19.24-17.46,32.6-20.12,2.65,12.83-5.84,22.63-9.22,33.82-1,3.37-3.91,6.37-1.62,10.24h0a6,6,0,0,1-2.24,1.54Z"/><path class="cls-99" d="M396.19,551.17l2.24-1.54Z"/><path class="cls-169" d="M386.93,219c21.14,13,24.91,30.28,11.37,50.61-10.83,16.25-24.65,28.59-43.48,34.75-2.15,1-2.76-.27-3-2.07,1.95-3.45,5.69-4.38,8.77-6.26a84.8,84.8,0,0,0,23.71-17.87,61.69,61.69,0,0,0,13.56-22.18c6.63-19.1-11.73-37-28-30.46-1.65.66-3.56.71-5.21,1.56-2.37,1.11-4.74,2.25-7.48,1.8-1.6-.53-2.88-1.31-2.48-3.32C364.31,217.7,375.48,217.64,386.93,219Z"/><path class="cls-170" d="M323.46,306.56c-6-4.62-5.9-11.38-5.46-17.74,1.22-18.08,6.89-34.55,19.36-48.2,2.22-.18,2.74,1.26,2.92,3-6.26,12.65-13.74,24.79-14.89,39.44-.4,5.08-1.44,10.08.06,15.13a21.15,21.15,0,0,1,1.27,6.34C326.3,306.32,325.64,307.69,323.46,306.56Z"/><path class="cls-171" d="M323.46,306.56l2.66-1.83,1.17-1.14c8.46,1.26,16.62-4.35,25.17-1.1l2.36,1.82a7.7,7.7,0,0,0-.77,1.58C343.87,306.82,333.79,312.29,323.46,306.56Z"/><path class="cls-172" d="M339.37,242.66l-2-2c4.2-6.85,10.73-11,17.36-15.11l2.16,1.94c.44,4.46-3.65,5.38-6,7.67C346.34,236.53,344.9,242.73,339.37,242.66Z"/><path class="cls-120" d="M10.31,641.68l1,.92-1-.93Z"/><path class="cls-173" d="M231.5,243.73l.36-3.37c5-3.44.39-9.64,3.9-13.51,2.72,1.65.55,4.88,2.21,6.87-.09,8.12-.73,16.39,6.54,22.36l-1.76,2C238.31,253.82,234.26,249.29,231.5,243.73Z"/><path class="cls-174" d="M238,233.72q-1.09-3.43-2.21-6.87.36-3,.7-6.06c.72,0,1.43.05,2.15.06Q238.28,227.28,238,233.72Z"/><path class="cls-132" d="M238.07,201c.07,4,.58,8.1-1.64,11.79C236.37,208.73,234.9,204.52,238.07,201Z"/><path class="cls-175" d="M286.55,254.06c-.52,6.26-4.72,14.24-10,21.52-4.69,6.47-9.76,5.37-13.46-1.34-5.51-10,3.08-31.66,13.75-35.15C282.51,237.24,286.8,242.47,286.55,254.06Z"/><path class="cls-176" d="M249.37,273.12c.81-1.14,1.58-3.22,2.43-3.26,3-.12,1.24,2.45,1.3,3.63.63,14.07.42,28.23,7.69,44.22-10.79-9.4-13.57-18.74-13.42-29.32C251,283.69,247.54,278.06,249.37,273.12Z"/><path class="cls-177" d="M249.37,273.12c4.22,4.45,2.42,9.88,2,14.87-.22,2.79-2.56.93-4,.41-.17-.59-.36-1.17-.58-1.73-2.49-5-1.64-9.51,2.31-13.44Z"/><path class="cls-178" d="M249.1,273.23c-2.67,4.15-2,8.87-2.31,13.44l-3.67.08c-.6-5.7,1.44-10.76,3.84-15.73Z"/><path class="cls-178" d="M244.44,298a7.82,7.82,0,0,1-1.19-7.2C245.22,292.9,245,295.39,244.44,298Z"/><path class="cls-82" d="M331,372c.5.83,1,1.67,1.49,2.51C332,373.64,331.51,372.8,331,372Z"/><path class="cls-149" d="M325.65,369.92l-1.84-1.84C325.37,367.74,325.91,368.43,325.65,369.92Z"/><path class="cls-77" d="M613.9,389.93l3.81.18c-1.33,1.71-3.05,1.87-5,1.29A12.71,12.71,0,0,1,613.9,389.93Z"/><path class="cls-179" d="M339.37,242.66c3.63-2.78,5-8.16,10.41-8.89,1.5,1.5,1,3.28.7,5-1.5,7.51,2.61,7.81,8.11,6.33a14.35,14.35,0,0,0,2-.74c5.19-2.32,11.42-3.76,12.2-10.71.74-6.62-7.13-4.88-9.39-8.78,15.83-5.52,24.31-4.12,32.29,5.3s8.59,23,1.05,35.43c-3.17,5.24-6.21,10.7-11.46,14.33a45.46,45.46,0,0,0-61.54,19.78c-4.21-17.12,1-32.44,9.12-47.16C334.78,249.12,337.19,246,339.37,242.66Z"/><path class="cls-180" d="M323.76,299.73c.22-15.06,12.64-19.33,23-24.33C362,268,377.22,270.52,385.3,280c-6.75,7.64-13.91,14.74-24.15,17.62q-11.34-22.38-27.91-1.9c-2.2,2.72-2.91,6.88-7.16,7.7a5.63,5.63,0,0,0,0,1.36C325.33,303.06,324.54,301.4,323.76,299.73Z"/><path class="cls-181" d="M326.08,303.37c2.82-7.64,7.21-13.8,14.73-17.69,13.91-7.19,20.05-3.72,20.34,11.89l-8.69,4.92C343.7,303.74,335.08,309.11,326.08,303.37Z"/><path class="cls-182" d="M363.42,224.89c4.73.44,10.9-2.2,12.92,4.65s-2.62,11.3-7.68,14.12c-6.17,3.45-13.45,8.21-20.26,3.73-5.57-3.66.07-9.06,1.38-13.62l7.1-6.32Z"/></g></g></svg>