<svg xmlns="http://www.w3.org/2000/svg" viewBox="0 0 884.53 951.92"><defs><style>.cls-1{fill:#040302;}.cls-2{fill:#010000;}.cls-3{fill:#090706;}.cls-4{fill:#0a0808;}.cls-5{fill:#0d0b0c;}.cls-6{fill:#100f0b;}.cls-7{fill:#211f1b;}.cls-8{fill:#0f0e0c;}.cls-9{fill:#121112;}.cls-10{fill:#0c0a0a;}.cls-11{fill:#0f0d0e;}.cls-12{fill:#282621;}.cls-13{fill:#151412;}.cls-14{fill:#131011;}.cls-15{fill:#201b17;}.cls-16{fill:#1c1b18;}.cls-17{fill:#181310;}.cls-18{fill:#1a1615;}.cls-19{fill:#212121;}.cls-20{fill:#211f1f;}.cls-21{fill:#151310;}.cls-22{fill:#222224;}.cls-23{fill:#3a332c;}.cls-24{fill:#373739;}.cls-25{fill:#272521;}.cls-26{fill:#47453e;}.cls-27{fill:#39362f;}.cls-28{fill:#231f1b;}.cls-29{fill:#393334;}.cls-30{fill:#3b3132;}.cls-31{fill:#47474a;}.cls-32{fill:#4b483d;}.cls-33{fill:#b8b8b8;}.cls-34{fill:#0a0a0a;}.cls-35{fill:#916f71;}.cls-36{fill:#afb2c2;}.cls-37{fill:#c4c7d8;}.cls-38{fill:#f1e9b2;}.cls-39{fill:#c0b38d;}.cls-40{fill:#ba9360;}.cls-41{fill:#784e2e;}.cls-42{fill:#c4b68d;}.cls-43{fill:#915f32;}.cls-44{fill:#8e5e32;}.cls-45{fill:#ae858b;}.cls-46{fill:#f4ecb2;}.cls-47{fill:#794f2e;}.cls-48{fill:#a27544;}.cls-49{fill:#d7cb9d;}.cls-50{fill:#bd9661;}.cls-51{fill:#7a502e;}.cls-52{fill:#a67946;}.cls-53{fill:#8f6034;}.cls-54{fill:#d9cea0;}.cls-55{fill:#a47643;}.cls-56{fill:#976637;}.cls-57{fill:#eee7b0;}.cls-58{fill:#a57744;}.cls-59{fill:#794e2e;}.cls-60{fill:#a47745;}.cls-61{fill:#a37543;}.cls-62{fill:#9c906f;}.cls-63{fill:#2f1c10;}.cls-64{fill:#2f2929;}.cls-65{fill:#3e3424;}.cls-66{fill:#564f3c;}.cls-67{fill:#543d41;}.cls-68{fill:#625a46;}.cls-69{fill:#362a26;}.cls-70{fill:#c3b690;}.cls-71{fill:#a97c4a;}.cls-72{fill:#fcfcfc;}.cls-73{fill:#b68c58;}.cls-74{fill:#cec197;}.cls-75{fill:#cbccd8;}.cls-76{fill:#433530;}.cls-77{fill:#c9bb92;}.cls-78{fill:#e7e7ea;}.cls-79{fill:#1e1414;}.cls-80{fill:#bd9561;}.cls-81{fill:#f4ecb3;}.cls-82{fill:#936133;}.cls-83{fill:#f4edb3;}.cls-84{fill:#cdc095;}.cls-85{fill:#d8b7bd;}.cls-86{fill:#ae858c;}.cls-87{fill:#b07f92;}.cls-88{fill:#ebdfd0;}.cls-89{fill:#a87a48;}.cls-90{fill:#ca9ea6;}.cls-91{fill:#cfc196;}.cls-92{fill:#deacc5;}.cls-93{fill:#22171b;}.cls-94{fill:#edd4e1;}.cls-95{fill:#ca9ba4;}.cls-96{fill:#a67a48;}.cls-97{fill:#f4ecee;}.cls-98{fill:#987377;}.cls-99{fill:#d7b5bc;}.cls-100{fill:#fbfbfb;}.cls-101{fill:#d4d6e4;}.cls-102{fill:#c499a2;}.cls-103{fill:#c5c5c5;}.cls-104{fill:#312225;}.cls-105{fill:#c699a2;}.cls-106{fill:#c598a1;}.cls-107{fill:#916f72;}.cls-108{fill:#ececf3;}.cls-109{fill:#443133;}.cls-110{fill:#f0e9b2;}.cls-111{fill:#4b4334;}.cls-112{fill:#605944;}.cls-113{fill:#090806;}.cls-114{fill:#c3b68f;}.cls-115{fill:#706750;}.cls-116{fill:#c3c6d8;}.cls-117{fill:#ecedf3;}.cls-118{fill:#d8b6bc;}.cls-119{fill:#fbfbfc;}.cls-120{fill:#0a0708;}.cls-121{fill:#ca9ea7;}.cls-122{fill:#d0c397;}.cls-123{fill:#070605;}.cls-124{fill:#dfd5a5;}.cls-125{fill:#f8f5dc;}.cls-126{fill:#c2b58e;}.cls-127{fill:#dbd0a1;}.cls-128{fill:#ddd2a2;}.cls-129{fill:#d9cfa0;}.cls-130{fill:#746b53;}</style></defs><title>Recurso 3</title><g id="Capa_2" data-name="Capa 2"><g id="Capa_1-2" data-name="Capa 1"><path class="cls-1" d="M191.11,811.49c26.09,3.63,43.95-13.07,63-26.15,6-4.08,2.52-11.25-5.49-14.41a466.74,466.74,0,0,1-126-73.93c-.67-2.09.61-2.85,2.27-3.37,7.67.12,11.6,6.55,17.11,10.26,4.45,3,8.53,6.53,13.42,8.87a534.91,534.91,0,0,0,99,52.5,118.4,118.4,0,0,0,16.85,5.09c71.36,22.24,142,18.42,212.08-5.83a29.52,29.52,0,0,0,4.07-1.68c1.92-1,4.7-1.49,5-3.89.37-3.36-3-3.74-5.18-4.69-28.37-12.3-56-25.94-81-44.3-1.5-1.1-3.1-2.36-5-2.1-14.06,2-23.77-6.74-33.12-14.58-34.2-28.68-56.66-64.94-69-107.9-8.1-28.16-13.55-56.5-11.44-85.84.83-11.47-2.63-19.93-12.41-26a60.35,60.35,0,0,1-11.68-10.05q-6.15-6.74-12.84-12.95a153.25,153.25,0,0,1-32.35-41.11c-6.95-12.67-9.47-25.88-1.24-39.24,2-.63,3.21.37,4.17,1.94-.27,25.08,12.07,44.37,28.51,61.74a50.86,50.86,0,0,0,9,10.43c10.63,11.11,21.52,21.92,34,31a16.59,16.59,0,0,1,4.35,7.5c1.26,8.66.58,17.39.8,26.08-1.9,22.25,4.83,43.19,9.87,64.36,10.64,50.74,36.95,91,81.65,121.13-1.69-7.35-4.47-12.54-5.78-18.14-.8-3.44-3.73-7.41-.07-10.19,3.88-3,7.77.16,11,2.39,10,6.85,20,13.61,30.47,20.51-.28-4-3.65-8.06-.2-11.44s7.75-1.34,11.46-.18c10.45,3.27,20.3,7.33,32,3.36,6.56-2.22,7.07-3.73,5-9.58-3.05-8.76-1.7-10,8.22-9.33-9.8-19.61-19.64-38.75-28.94-58.15-2.75-5.72-8.83-13.45-3.2-18,6.44-5.23,10.9,4.13,16,7.65,9.5,6.59,16.74,16.08,27,22.46,1.45-4.43-.24-7.53-.46-10.73-.57-8.21,2.94-10.75,10.64-7.58,3.07,1.26,6.4,2.75,8.37,5.2,8.42,10.47,18.77,5.87,28.77,4.24,4-.65,3.65-4,3.85-6.9.45-6.32-1.17-12.38-2.26-18.53-1.56-8.82,1.79-11.42,10.42-8.59,4.69,1.54,8,5.12,12,7.72,5.12,3.34,8.58,2.51,8.15-4.32-.3-4.88-.75-9.36,3.55-13.09,2.63-2.28,1.13-5.53.17-8.27-1.46-4.16-2.94-8.31-4-12.58-.89-3.45-3.91-7.3-.93-10.38,3.75-3.89,7.31.65,11.47,1.85-4.26-8.16-7.93-16.22-12.72-23.7-1.85-4.37-3.5-8.81-5.61-13.08-1.73-3.52-4.81-7.35-2.26-11.23,3.07-4.65,7.64-.59,12.09,0-5.14-8.21-10.25-15.32-15.4-22.41-2.51-3.47-6.36-7.37-3.78-11.79,3-5.11,7.82-1,11.85-.69,1.09.08,2.15.44,5.33.74-14.63-10.54-27.09-21-40.88-29.7-.44-.24-.87-.51-1.31-.75l-1.26-.83a84.51,84.51,0,0,0-10.6-8c-.86-.52-1.69-1.1-2.53-1.67s-1.78-1.08-2.66-1.64c-25.12-14.83-49.23-31.52-76.57-42.23a230.57,230.57,0,0,0-42-12.2c-3.83-1.28-7.95-1.16-11.78-2.48-2.23-1.1-5.53-1.79-5.37-4.66.2-3.76,4-3.83,6.74-4.06,6.53-.52,13.11-1,19.45,1.34,2.64,1.75,5.75.93,8.63,1.45,2.37,2.18,4.11,4.85,7.63,5.93,48,14.76,88.79,42.7,128.8,71.85,11.24,8.2,21.85,17.29,32.46,26.31,3.25,2.76,10,4.71,7,10.61-3,6.17-8.22,1.59-12.52.54-2.66-.65-5.26-2.64-8.62-.57,6.29,10.46,12.57,20.59,18.47,30.94,1.33,2.33,8,6.91-1.62,7.33-2.05.1-.79,1.62-.53,2.38a18.65,18.65,0,0,0,1.64,2.86q7,12.41,14,24.84c7.86-4.5,15.67-9,23.58-13.46,2.87-1.6,5.85-3.8,8.94-4.09,26.41-2.47,41.93-23.29,62-36.4a133.25,133.25,0,0,0,12.16-9.45c20.84-17.32,44.06-19.29,69.11-11.29a256.84,256.84,0,0,1,79.18,41.69c.55,2.21-.82,3-2.58,3.41-5.45-.09-9.69-3.14-13.93-6-15.33-10.17-31.89-18-48.51-25.65-17.08-7.9-35.09-9.92-53.65-8.6a21.94,21.94,0,0,0-12.16,4.58c-18.76,14.62-38.91,27.43-56.48,43.58a59.71,59.71,0,0,1-7.36,5.91c-1.23.91-2.46,1.82-3.61,2.82-10.65,10.6-21.35,21.09-31,32.65-5.7,6.78-7.55,13.06-3.58,21,.82,1.63,1.34,3.41,2,5.11,6.15,15.14,6.29,15.27,19.68,6.47a307.48,307.48,0,0,1,52.35-27.84c13.48-6.85,28-11.2,41.68-17.62,8.51-4.11,18.07-5.06,26.65-9,15.26-4.09,30.14-9.75,46.08-11a24.35,24.35,0,0,1,6.2,2.19,29.83,29.83,0,0,1,2.83,1.41A122.89,122.89,0,0,1,831,527.52c13.93,9.81,36.71,3.58,44.17-12a3.69,3.69,0,0,1,3,.19c8.71,7.34,8.42,11-1.95,15.6-9,4-18.24,7.18-28.24,11.06,11.44,13.17,27.18,20.71,36.57,35.36-17.12,15-39,18.79-59.9,24.56-43.57,12-88.23,18.14-133.21,21.49-17.1,1.27-34.38.21-52.24.21,3.84,20.11,7.68,39.59,11.23,59.12,1.17,6.46,1.85,13.05,0,19.58.73,3.17,2,6.71-.45,9.28-1.5,1.57-3.07-.67-4.09-2.15-4.21-6.8-.93-14.35-2.08-21.52a432.17,432.17,0,0,0-18-71.34c-8.85-26.18-19.36-51.71-30.48-77-4.55-11.67-10.5-22.64-16.9-33.37a9.12,9.12,0,0,1-1.34-2.9c-.22,1.85,1.39,2.94,1.92,4.49,5.71,8.21,9.45,17.45,14,26.27,1.74,3.39,2.89,6.8.57,10.41-8.25,1.31-10.63,5.06-6.87,13.23,2.86,6.22,5.6,13.38-4,17.6-3.18,1.4-1.82,5.11-1.75,8,.24,10.11-2.9,12.45-12.69,9.77-5-1.37-9.56-3.76-15.49-6.37.55,6.59-.88,12.43-1.3,18.39-.49,7-1.14,13.5-10.25,14.24-1.38.11-.33-.88-1,.22-9.46,15.69-17.12,3.37-25.26-1.52-3.09-1.86-5.65-4.7-9.65-5.32-1.83,3.71.45,7.09.67,10.57.19,3,.62,6.11-2.41,7.89-2.87,1.68-5.76.65-8.27-1.12-9.93-7-19.8-14-28.51-22.81,6.84,15.84,16.13,30.47,22.56,46.47a102.61,102.61,0,0,1,4,11.43,15.43,15.43,0,0,1,.7,5.44c-.19,2-1.81,2.94-3,4.29-8.47,9.48-16.1,20.38-31.06,18.91a79.12,79.12,0,0,1-22.18-5.06c-1.18.14-1.54.64-1.21,1.47,1.7,4.27,6.91,9,3.15,13-4.53,4.8-9.45-.71-13.74-3-9.68-5.14-19.67-9.76-28.81-16,11.48,16.15,27.21,27.13,44.35,36.41,28.23,15.27,58.1,26.66,88.49,36.65,20.9,6.86,41.87,13.71,65.15,16.84-15-14.41-33.74-22.8-45-39.56a3.15,3.15,0,0,1,2.46-3.55c3.65-.31,6.14,2,8.7,4,23.13,17.78,47,34.52,71,51.16,2.09,1.46,4.22,2.9,5.16,5.47-.19,1.8-.65,3.23-3,2.25-33.62-18-73.56-12.54-107.49-29-12.27-6-22.17-2.88-33.49,3.11-18.19,9.63-38.35,14.38-58.32,19.24-4.49,1.09-12.13-1-12.63,5.05-.68,8.2-4.68,17.46,3.37,24.95,12.67,11.79,27.51,18.51,44.74,17,14.93-1.29,26.13,4.43,36.11,14.38a2.2,2.2,0,0,1,.12,3.05,6.79,6.79,0,0,1-3.1,1.34,9.61,9.61,0,0,1-4.87-.87c-10.08-9.13-21.54-11.92-34.56-7.39a9.53,9.53,0,0,1-3,1.07c-12.8-5-23.79-13.73-37.7-16.89-6.11-1.38-7.14-9.75-7.82-15.92-2.47-22.35.1-18.64-23.76-18.38a16,16,0,0,0-11.81,5.1A6,6,0,0,1,376,801.7c-4.64-4-9.86-5.29-16.12-4.91-16.28,1-31.9-4.7-48.05-5.46-2.79-.13-6.11-2.23-8,1.15s.34,6.3,2.57,8.85c3.35,3.84,8.91,5.36,11.06,10.49-.11,2.84-2.08,3.56-4.4,3.88-4.83.15-8.83-2.8-13.66-3.47-7.22-1-6.88-8.73-7.6-14.22-1-7.73-3.63-13.17-12.11-14.51-4.31-.68-8.43-3.25-12.87-2.49-6,1-4,7.1-6,10.69-.9,1.62-1.62,3.74-3.39,4.18-14.18,3.57-24.71,14.44-38.34,19-11.64,3.89-23.35,7.2-34.89-.47a3,3,0,0,1,.2-3.18A8.59,8.59,0,0,1,191.11,811.49Z"/><path class="cls-2" d="M404.67,174.14c1.45,1.62,3.86,3.34,2.95,5.49-1.19,2.81-4.35,2.24-6.86,1.86-11.92-1.83-23.87-3.55-35.72-5.77-6.88-1.29-7,1.45-5.78,7,1.88,8.56,2.93,17.3,4.33,26,.74,2.34,1.26,4.59-2,5.5-6.5-5.61-6.06-13.83-7.66-21.17-1.44-6.62-2.76-13-9.22-16.72-6.56-2.53-13.6-2.53-20.4-3.55-14.44-2.15-29-3.47-45.2-2.17,12.52,12,22.79,24.88,32.74,37.95,6.1,8,14.09,15,15.48,25.92-1.27,5.28-4.11,4.19-7,1.56-2.71-2.44-5-5.32-8.08-7.4-7.8-5.28-10.51-4.63-13.73,4.09-2.28,6.14-5.92,4.3-9.42,1.91-8.75-6-17-12.66-25.59-18.91-.81-.59-1.58-1.24-2.34-1.89-.4-.3-.77-.64-1.16-.94-1.16-.5-3.22-2-3.19-1.64.47,4.91-3.18,9.61-.72,14.55a11.67,11.67,0,0,1,.54,3c-.29,3.49-1.44,6.94-4.91,8-10.62,3.11-7,8.86-3.13,14.8,10.64,7.3,14,15.93,9.51,29.18-4.67,13.82-10.78,27.14-15.14,42,26.8-15.11,49.12-34.6,71.08-54.46,5.31-4.8,9.88-10.91,11.3-18.56.46-2.49,1.12-5.14,4.32-5.7,7.68,4.63,4.62,10.29,1.47,15.88-9.78,17.31-25.86,28.39-40.64,40.72-2.5,2.09-5.42,3.68-8,5.71-.74.71-1.52,1.38-2.3,2s-1.48,1.37-2.24,2c-8.14,6.46-16.4,12.76-24.24,19.59-9.79,7.16-18.63,15.43-27.79,23.35a4,4,0,0,1-3.44-2.86c-1.16-8.24,3.37-14.93,6.45-21.84,7-15.81,12.52-32.21,19.13-48.16,3.69-8.93,1.69-15.19-5.38-21.26-21.8-18.73-44.19-36.55-70.06-49.49-7.56-3.78-15.35-7.15-22.45-11.8-8.33-5.22-12.76-16.22-24.47-16.45-1.52-1.53-1.69-3.08-.12-4.7,10.06-7.27,22.3-7.43,33.68-9.32,38.47-6.36,77.5-7.08,116.33-9.8a26.69,26.69,0,0,1,5.49.37,22.75,22.75,0,0,1,3.76.75c10.51,2.56,21.22.36,31.79,1.32,27,4.71,54.2,7.92,81.13,13A18.06,18.06,0,0,1,404.67,174.14Z"/><path class="cls-3" d="M124.85,178.86c1,.68,1.92,1.36,2.89,2-3.67,11.08,3.71,18.87,8.23,27.52a180.3,180.3,0,0,1,13.74,59.46,55.47,55.47,0,0,1-.25,8.74,21.63,21.63,0,0,1-.64,3.36c-3.15,11.69-6.77,23.22-13.1,33.67-2.08,3.42-4.21,6.93-8.15,8.66a3.12,3.12,0,0,1-3.73-2.24c1.92-10.13,9.69-17.95,11.19-28.24.55-3.69,3.51-7.85-1.84-10.53a4.41,4.41,0,0,1-2.56-3.5c3.09-11.69-8.24-11.9-13.56-16.77-4.48-4.09-9.28-3.06-13.92.38-8.32,6.16-15.63,13.14-19.87,22.82a21.26,21.26,0,0,1-1.25,2.7A41,41,0,0,0,77.61,296c-1.76,3.94-3.64,7.84-2.52,12.35.61,2.75,4.57,3.71,3.87,7.16a8.78,8.78,0,0,1-4.56,4c-4.55,1.73-9.13,3.33-14.08,1.73a5.2,5.2,0,0,1-2.25-2c2.42-5.6,6.66-10.45,7-16.91,1.38-3.09-2.24-6.27.1-9.35.81-6.12,8.62-10.36,6-16.94a101.5,101.5,0,0,0-21.9-33.75c-10.9-11.11-25.45-11.68-39.31-14.36-11.9-2.3-11.6-2.68-6.9-13.67C13,190.9,31.16,180,55.5,177c7.24-.89,15.51-.32,20.63-7.57a2.92,2.92,0,0,1,2.66-.79c3.92,1.34,5.1-1.82,6.56-4.19,7.33-11.81,16.47-22.21,25.37-32.8.51-.87,1.09-1.7,1.68-2.51.86-1.25,1.77-2.46,2.66-3.69,4.85-6.77,9.34-13.89,15.49-19.55,9.87-9.09,13-21,15.1-33.51,1.41-1.75,3-3.13,5.47-2.18V86.85c11.6-10.36,21.21-19.68,31.58-28.07,26.78-21.69,55.76-39.88,87.63-53.26a3.59,3.59,0,0,1,.89,2.91c-4.39,6.31-11.4,9.16-17.81,12.35-35.52,17.71-65.25,43-93.66,70.16-6.6,6.25-13,12.73-19.34,19.22a39.64,39.64,0,0,0-2.61,3.56,21.82,21.82,0,0,1-1.67,2.47c-7.61,10.53-17.7,19-25.12,29.65a57.19,57.19,0,0,1-3.09,5.3A121.17,121.17,0,0,0,99,163.68c-2.74,4.71-.63,6.77,4.13,7.24,4.59.45,8.59-1,12.41-3.5,50.52-33.57,107.21-50,165.37-60C272.4,90.59,292.57,88.8,296.2,77.9c-2-.12-6,1.1-6.67-2.81-.84-4.63,3-7.15,5.58-10.11.64-.69,1.35-1.33,2.05-2s1.31-1.23,2-1.83c.28-.32.6-.62.89-.94.5-.67,1-1.33,1.53-2a38.83,38.83,0,0,1,2.92-3.93,37.57,37.57,0,0,1,2.64-2.71,22.82,22.82,0,0,1,1.74-1.54,5.78,5.78,0,0,0,1.35-1.4c-.07,0-.12-.87-.19-.87-.58-.47-1.09-.93-1.63-1.44a2.21,2.21,0,0,1-.28-2.21,8.33,8.33,0,0,1,2-.9c3.7-.57,8.37-4.38,10.84-.27,2,3.4-2.91,6.09-5.16,8.84-2.08,2.54-4.26,5-6.44,7.46S305,64,301.78,67.61h10.93c.38,7.77-6.4,10-9.21,14.62-1.24,2.07-3.86,3.31-5.86,4.93-4.41,3.6-12.22,9.74-10.82,11.93a19.46,19.46,0,0,0,18.84,8.55c2.91-1,6-2.63,7.2,2.15-3,3.84-7.41,4.39-11.75,5-36.62,5.17-72.8,12.15-107.31,26-2.13.63-4.35.91-6.46,1.62-1,.34-2,.6-3.06.84-19.74,7.34-39.37,14.92-56.31,27.88C125.68,172.89,120,174,124.85,178.86Z"/><path class="cls-4" d="M376.35,800.76l2.7-3c7.63,6.14,5.43,13.31,2.19,20.59a7.8,7.8,0,0,1-3.16,1.65c-12.4,4-21.37,13.5-32,20.25-16.93,10.7-35,13.53-54.24,12.93-2.88-2.92-5.27.78-7.95.67a32.27,32.27,0,0,1-4.71.37,38,38,0,0,0-9.25,1.17c-10.24,1.55-20.28-2-30.52-1.14-8.95.76-9.53,1.58-5.23,9.68,1.55,2.92,3.07,5.8,3.52,9.12a45.7,45.7,0,0,1,.1,12.08c-1.13,7.15,2.52,7,7.49,5.57,3.81.41,8.58-1.1,9.72,4.74-6.24,1.54-12.67,2.41-17.87,6.89-6.39,5.51-13-.84-19.56,0a3.27,3.27,0,0,1-.44-2.89c8.85-6.3,13.19-14.34,9.73-25.37-1.66-6.68-5.06-8.07-11.29-4.68-5.08,2.77-9.66,6.83-15.81,7.41-1.6-.54-2.87-1.29-2.1-3.33-1.52-4.87-5.56.34-7.73-1.93-2.32.65-4.71,1.62-6-1.56,1.83-6.06,7.11-5.9,11.72-5.88,8.05,0,14.06-2.72,18.5-9.68,5-7.89,13.1-10.46,22-10.25,13,.32,25.27-1.11,37.49-6.72,10.63-4.87,22.53-3,33.41,1.17,7.45,2.83,14.37,2,21.52-.25,6.25-2,9.13-5.82,6.91-12.49a4.84,4.84,0,0,1,2.3-4.12C358.89,830.06,365.87,812.21,376.35,800.76Z"/><path class="cls-5" d="M184.43,869.33c1.33,1.94,3.43,2,5.47,2.27-10.69,5.55-23.05,5.08-34.09,9.42a3.5,3.5,0,0,1-2.69-1.23c.66-6.65,6.41-8.58,11.06-10.77,7-3.31,10.11-7.87,7.93-15.5-.35-.88-.68-1.77-1-2.64s-.94-1.62-1.46-2.4c-.3-.35-.58-.73-.89-1.09-.69-.68-1.35-1.37-2.05-2-7.34-5.68-12.39-1.35-16.46,4.28a164.11,164.11,0,0,0-12.31,20.62,13.71,13.71,0,0,0-1.44,5.25c-.39,9,1.07,10,8.78,6,2.56-1.36,4.84-3.48,8-1.82a3.43,3.43,0,0,1,.82,2.83,40.47,40.47,0,0,1-3.24,2.92c-5.35,3.93-10.58,12.19-17.52,7.31-7.13-5-6.61-14.91-3.05-22.18,5-10.18.5-10.74-7.51-9.68a3.51,3.51,0,0,1-.74-3c13-4,18.17-15,23.28-26.15a16.07,16.07,0,0,1,5.06-5.68,52.15,52.15,0,0,1,10.26-5.93c2.77-.94,5.58-1.91,8.53-1.5,20.44,2.83,40.55.87,60.45-4.1a4.57,4.57,0,0,1,3.92,3c-1.64,5.84-7.33,6.71-11.52,9.44-11.78,3.16-23.87,3-35.93,3.1-11,.12-22.37-3.29-30.6,3.92,3.74-1.21,9.56-3.5,15.28.66,4.87,3.54,9.23,7.23,11,13.21C183.36,854.91,183.4,862.18,184.43,869.33Z"/><path class="cls-6" d="M647.64,707.48c.43.86.86,1.71,1.3,2.56a9.36,9.36,0,0,0,1-2.22c.27-1.71.33-3.45.47-5.18,5.36,12.65.3,25.74.82,38.59.49,11.94.23,23.6,4,35a3.27,3.27,0,0,1-3,.88c-3.28-1.47-4.91-4.39-5.94-7.51-10.85-33.11-29.21-62.72-43.79-94.08a34.43,34.43,0,0,1-2.09-4.43,11.17,11.17,0,0,1-.59-3.24,7.19,7.19,0,0,1,.9-3.16,3.22,3.22,0,0,1,4.33-.88c12.33,16.48,20.27,35.44,30,53.41,3.1,5.74,6.77,11.33,8.28,17.87-5.71-29.73-16-58.21-23.95-87.35-1.14-4.2-3.12-8.29-1.63-12.83.81-1.64,2-2.67,3.94-2.47,6,3.78,6.65,10.41,8.2,16.28,4.76,18.07,13.5,35,15.08,54C645.06,704.55,646.65,706,647.64,707.48Z"/><path class="cls-7" d="M78.71,169.54l-2.58-.1c9.38-36,19.37-71.7,40.31-105.35,3.69,8.78-.25,15.38.44,24.54,7.77-11.85,13.84-22.1,21-31.56,3.75-5,7-15,13.26-12.51s.75,11.77,1.13,18c.15,2.5-.72,5.07-1.13,7.61l-3.86,2.22c-4.09-3.6.47-8.49-2.18-13.08-8.69,10.82-14.93,22.87-22.88,33.73-3.14,4.3-5.06,13.29-12,9.9-5.56-2.72-.3-9.88-.29-14-3.17,9.24-9.17,18.58-11.79,29.29a45.92,45.92,0,0,0-1.94,7.59,26.33,26.33,0,0,1-.82,3.17c-3.42,10.6-7.27,21.06-10.25,31.81C84.14,164.34,84.06,169,78.71,169.54Z"/><path class="cls-8" d="M103,677c-7.87-9.92-18.69-14.69-30.64-17.3C59,656.78,51.76,648.57,49.54,635.07c-1.43-8.66-4.82-17-4.35-26-1.16-2.44.34-2.92,2.27-3.09,2.09,1.2,3.15,3.16,4,5.29A116.81,116.81,0,0,1,55,627.37c2,15.28,12.87,21,25.49,25.34,5.91,2,8-.69,8.4-6.3.4-5.24-2.06-13.93,3.5-14.68,6.91-.93,6.07,8.37,8.17,13.41,2.49,6,4.32,12.3,11.87,14.51,1.73-5.63-2.47-10.76.71-15.58a4.75,4.75,0,0,1,3-1.1c5.54,1.78,4.2,7.22,5.91,11,3.43,14.53.15,18.62-14,15.81-9.78-1.95.79,4.12-2.1,4.56C105.76,676.08,105.1,677.35,103,677Z"/><path class="cls-9" d="M122.64,858.47c0,.8.1,1.59.14,2.39-9,5.34-18,10.34-28.57,4.11-2.18.9-2.81-.35-3-2.18,1.42-2.83,4.09-4.3,6.84-5.13,8.85-2.69,10-8.61,7.31-16.31-2.85-8.34-7.3-9.6-14.82-4.58-8.39,5.59-15.67,11.75-19.2,21.48-.95,3.65-7.69,6.82-.87,11.09,1.72.71,3.8,1.1,3.38,3.72-4.17,2.65-8.77,7.86-13.44,3.86-5-4.3-2.32-10.43,0-16.07A55.48,55.48,0,0,1,74.8,840.64c5.56-5,11.73-9.42,14.53-17.1,1.26-3.46,4-7,8.59-7.54,2.08-1.09,4-1.25,5.37,1.07-.24,3.08-1.64,6.09,2.6,8.29,5.4,2.8,8.41,8,10.16,13.79.71,3.93,1.41,8.16.31,11.79C114.37,857.48,119.39,857,122.64,858.47Z"/><path class="cls-10" d="M336.68,924.17c-9,1.71-17.62,4.41-25.49,9.07-4.93,2.93-9.48,3.21-14.22,0-1.27-1.89-6-.65-4.57-5,10.07-5.5,16.31-12.77,11.5-25.09-6.86-10.33-9.72-11-20-4.81-2.78,1.69-5.3,3.86-8.89,3.22-3.43-.51-2.83-4.06-4.47-5.92h0c-1.29-1.91-.62-3.84-.13-5.79,1-3,2.47-5.5,6-6a9.86,9.86,0,0,1,3.94,1.78c1.78.71,3.5.24,5.29-.1,16.65-3.15,24.83,1.33,31.3,17a40,40,0,0,1-.41,15.89,8.48,8.48,0,0,1-2.31,3.87,34.91,34.91,0,0,1,16.67-2.81C333.45,920.19,336.77,920.06,336.68,924.17Z"/><path class="cls-11" d="M336.68,924.17c-1.84-2.52-4.71-1.89-7.22-2.35.92-4.33,4.61-4.2,7.76-4.63,12.51-1.68,22.67-7.37,31.42-16.51C381,887.73,393.07,874.4,411,868.33c15.31-5.18,28.5-1.71,41.07,7.14a3.24,3.24,0,0,1-.81,3.16c-6.19,1.42-11.4-2.13-16.85-3.75-12.83-3.81-23.57-.87-33.81,7.24-9,7.11-17.56,14.76-24.56,23.6C365.73,918.75,352.2,923.16,336.68,924.17Z"/><path class="cls-12" d="M18.94,524.86c7-32.59,18.72-63.66,31.51-94.31,6.89-16.5,14.56-32.67,21.88-49,3.36,0,3.41,2.6,3.85,4.9-2.4,14.31-9.73,26.83-15.56,39.73C46.06,458.38,33.84,491.25,26,525.72c-.57,2.51-1,5.1-3.84,6.2C18.29,530.85,21.32,526.62,18.94,524.86Z"/><path class="cls-13" d="M18.94,524.86c2.77,1.72,1.71,4.78,2.5,7.2,4.43,6.27,2.56,13.33,2.26,20.09a179.36,179.36,0,0,0,2.48,41.21c.46,6,4.6,11.29,3.61,17.22,2.08-2-2.4-9.34,5.45-8,3.29,4.77-1.7,10.12,1,14.92V630C16.85,616.78,10.16,573.63,18.94,524.86Z"/><path class="cls-14" d="M451.26,878.63l.2-2.43c3.5-4.17,9.18-3.91,13.42-6.62.88-.56,2.8-1,3-.43,5,11.23,13.47,4.08,19.94,3.1,10.64-1.6,7.94-12.31,10.85-19.19a3.92,3.92,0,0,1,1.45-1.58l4.86.38.33,1.18c0,.41,0,.82,0,1.22,0,1.23.2,2.45.29,3.68a10.47,10.47,0,0,1-.12,2.5c-.27,1.23-.58,2.45-.83,3.69a16.74,16.74,0,0,1-1.38,5c-2,2-.4,2.1,1.19,2.22,3.06,1.09,5.73,3.24,10,3.4-.29-7.61-4.62-13.34-8-19.43a5.28,5.28,0,0,1-.2-3l.48-3.33c4.07,2,6.61,5.44,8.91,9.14,1,1.44.75,3.32,1.67,4.79a2.59,2.59,0,0,0,.54,1.82c.5.93,1.41,1.64,1.48,2.79a2.56,2.56,0,0,0,.71,1.64c1,1.36.65,3.3,1.85,4.6,1.6,8.74-1.28,12.34-9.92,8-7.77-3.86-15.1-2.71-23-.12C476.23,885.87,463.27,887.13,451.26,878.63Z"/><path class="cls-15" d="M308.1,44.15l2.51,2c-.82,5-5.31,4.18-8.51,5.29-13.5,4.68-27.65,7.12-41.2,11.71-4.77,1.62-11,2.72-14.34-2C243.43,56.78,247,52,249.43,48a388.2,388.2,0,0,0,21-39.78c0-.89-.09-1.78-.13-2.67L282.76,0,252.82,56.35C272.13,52.16,289.56,45.56,308.1,44.15Z"/><path class="cls-16" d="M312.4,109.62c-1.79-2.23-4.46-1.43-6.74-2,13.71-4.34,28.09-2.43,42-4.49,1.75-.26,3.81-.27,4.33,2.1.48,2.18-1.24,3.25-2.69,4.29-5.9,4.21-11.84,8.37-18.93,13.36,17.26,6.23,33.78,11.14,48.66,19.87a6.62,6.62,0,0,1-2.84,5.69,6.16,6.16,0,0,1-6.12-.25c-.54-4.52-4.39-5.09-7.66-6.53-10-4.42-20.65-7.11-31.08-10.34-4.05-1.25-9.46-1.46-10.21-6.78-.71-5,3.84-7.42,7.22-10.12,1.42-1.13,3.06-2,4.56-3.18C326.27,108.07,318.77,115.63,312.4,109.62Z"/><path class="cls-17" d="M411.48,346.13c-2.22.59-2.4,6.49-6.39,2.45-14.95-26.66-28.12-54-35-84.06-1-3.84-2.57-7.54-2.68-11.59.53-2.78.1-6.27,4.54-6.16C380.4,281.77,395.79,314,411.48,346.13Z"/><path class="cls-18" d="M124.88,319.74c.56.66,1.12,1.33,1.67,2,0,10-8.38,11.35-15,13.91a28.61,28.61,0,0,1-15,1.18c-3.82-.65-6.49.11-6.49,4.68-2.89,8.18.47,18.2-7.34,24.91-3.84-.5-3.08-3.07-2.5-5.56.29-2.16.48-4.34.9-6.48,4-20.42,3.65-20.29-16.09-25.47-6.06-1.6-18.11-.38-13-13.74,1.91-1.12,3.34-.12,4.74,1,.92,1,1.09,2.4,1.93,3.44l-.16-.16c14.8,6.43,30.76,6,46.35,7.66C112.59,328,117,318.85,124.88,319.74Z"/><path class="cls-19" d="M197.64,873.53l2.39,2.32c.34,7.48-7.5,10.38-9.28,16.67a10.8,10.8,0,0,0-1.32,4.14c-.24,3.79-3.1,8.48,1.25,11,3.65,2.11,6.5-2.12,9.62-3.71,5.45-2.77,10.71-6.28,17.28-3.53a5.44,5.44,0,0,1,0,2c-8.6,4.81-17.19,9.64-25.81,14.42-6.81,3.78-10.3,1.25-11.35-6C178.06,894.62,183.45,882,197.64,873.53Z"/><path class="cls-20" d="M102.71,818l-4.79-2c2.61-2.92,6.1-2.13,9.22-1.79,13.72,1.53,26.75-1.58,39.77-5.26,7.25-2.05,14.53-4.71,22.18-1.6,1.8,2.11,4.68.42,6.66,1.88l8.52.77q1.28.43.93,1c-.24.43-.49.65-.75.65l0,2.07c-5.86,5.43-12.34,1.2-18.55,1.18-12.91.33-25.2,4.71-38,5.77C119.47,821.44,110.52,824.34,102.71,818Z"/><path class="cls-21" d="M36.28,617.51c-3.88-5-.9-10.89-2.33-16.19-4.82-6.8-.33-13.61-.07-20.42a24.19,24.19,0,0,1,.73-3.46c1.2-3.42,1.36-7,1.93-10.57,1.3-6.09.75-12.34,1.78-18.42.4-2.33.57-5.74,3.94-5.52,3.09.21,3.52,3.48,3.62,5.86.47,11.25,1.4,22.44,2.57,33.63.53,5.05.87,10.12,1.63,15.15a15.66,15.66,0,0,1,0,3.93,6.93,6.93,0,0,1-2.77,5l-2.12,2.59L43,595.56c-3.79-3.85-2.54,1.81-4.1,2.17Q37.6,607.63,36.28,617.51Z"/><path class="cls-22" d="M261.65,950.74c-6.41,3.45-7.55-1.39-8.62-5.7-2.41-9.67-.18-18.69,4.39-27.28,3.18-.42,3.6,2,4.33,4.14.25,7.5-1.83,15.05.57,22.5A13.41,13.41,0,0,1,261.65,950.74Z"/><path class="cls-23" d="M371.94,246.77c-2.88,1.54-1.82,4.42-2.31,6.78-1.07-.12-2.47-.09-2.82-1.2-4-12.64-9.32-25.1-5.52-38.84.76-1.62,1.53-3.25,2.3-4.87Q367.76,227.71,371.94,246.77Z"/><path class="cls-24" d="M261.65,950.74l-2.26-4.15c1.5-1.43,2.56-3.26,4.11-4.67a76,76,0,0,1,19.15-12.18c3.15-1.39,6.4-4,10-.77l4.34,4.25C282.2,933,273.07,944.18,261.65,950.74Z"/><path class="cls-25" d="M652.36,776.45l2.88-.17c4.24,6.86.53,12.15-4.38,16-4.59,3.56-10.14,7.94-16.33,2l2.28-2C643.16,788.1,648.68,783.19,652.36,776.45Z"/><path class="cls-26" d="M404.67,174.14l-3.93,2c-1.25-1.48-3-2.39-4.48-3.55-7.69-6.36-16.93-10.94-22.68-19.56a4.12,4.12,0,0,1,2.28-3.77,2.36,2.36,0,0,1,2.79.4C385.29,160,398.56,163.26,404.67,174.14Z"/><path class="cls-27" d="M103,677l1.84-1.88c10.75,2.29,16.56,9.75,20.29,19.39L122.61,697C115.38,691,108.39,684.81,103,677Z"/><path class="cls-28" d="M850.77,498.48l2.4-2.33c8.64,6.1,17.88,11.43,25,19.51l-4,.45c-5.07.73-8-3.1-11.54-5.49C858.46,506.75,851.92,505.22,850.77,498.48Z"/><path class="cls-29" d="M259.87,922.86c-.54-1.83-.43-4-2.45-5.1l13.07-22.12,4.85,4.69C271.78,908.93,267.39,917,259.87,922.86Z"/><path class="cls-30" d="M55.65,317.56,52,315.17q6.57-11.1,13.13-22.2c-1.61,3.66,6.51,4.7,2.42,9C62.36,306.24,61.45,313.77,55.65,317.56Z"/><path class="cls-29" d="M272.08,890.56l-1.59,5.09L255,895.48c-3.21-3.32-7.53-1.19-11.2-2.27C252.43,884,262.28,887.6,272.08,890.56Z"/><path class="cls-31" d="M73.83,873.06l-4.28-1.77c6.1-8.4,13.6-11.2,22.32-8.32l2.34,2Z"/><path class="cls-32" d="M80.22,360.86l2.17,4.93c1.14,8.32-1.06,15.37-7.8,20.71q-1.12-2.46-2.26-4.94Z"/><path class="cls-33" d="M38.9,597.73c-.38-3.52-.85-7.05,1.59-10.64,3.84,2.12,2.51,5.51,2.51,8.47Z"/><path class="cls-34" d="M378.65,149.65l-2.31-.45c0-.5.05-1,.07-1.52.17-2,.69-3.86,2.67-4.91l6.1,2.62c.59,5.65-5.33,1.34-6.53,4.26Z"/><path class="cls-26" d="M378.65,149.65c1.33-2.72,5.52-1.05,6.53-4.26,1.54.21,3.2,1.07,2.22,2.58C385.24,151.29,381.68,149.54,378.65,149.65Z"/><path class="cls-35" d="M175.75,809.23c-2.52.44-4.89.34-6.66-1.89C171.55,807.13,173.89,807.34,175.75,809.23Z"/><path class="cls-35" d="M184.45,811.7a12.26,12.26,0,0,1-.18-1.7,6.91,6.91,0,0,1,6.84,1.49Z"/><path class="cls-36" d="M522,873.7a4.53,4.53,0,0,1-1.85-4.6C522.11,870.08,522.55,871.69,522,873.7Z"/><path class="cls-36" d="M517.4,862.85c-1.77-1.18-1.88-2.93-1.67-4.79C517.77,859.14,518.08,860.82,517.4,862.85Z"/><path class="cls-36" d="M519.42,867.46c-1.38-.45-1.68-1.49-1.48-2.79C519.16,865.22,519.83,866.06,519.42,867.46Z"/><path class="cls-37" d="M153.31,880.45l2.5.57-1.71,1.47c-.19-.76-.37-1.52-.55-2.28Z"/><path class="cls-38" d="M74.59,386.5l7.8-20.71c3.81-8.36,2.71-17.66,5-26.32,4.66-3.21,8.46.11,12.22,1.93a85,85,0,0,0,19.63,7c8,1.71,14.37-.74,17.57-7.79,8.75-19.31,13.64-39.44,9.68-60.86l.51-2.13a9,9,0,0,0,0-8.85c-1-21.19-7-41.25-13.9-61.1,2.8-8.9,8.81-12.84,18.11-11.69,37,15.52,68.7,38.95,98.45,65.42,4.81,4.28,4.51,8.43,2.86,13.73-7.3,23.5-18,45.65-26.78,68.57-.78,2-1.37,4.16-2,6.23,0,7.41-1.13,14.48-5.93,20.49-4.46,14.28-3.73,27.44,4.73,40.75,8.88,14,19.35,26.46,30.2,38.77a185.82,185.82,0,0,1-23.88,47.64c-7.27,10.63-11.5,21.93-10.62,35,.43,6.38-.71,12.31-5.49,17.19-3.33,3.4-3.23,8-3.28,12.41s.16,8.79-.46,13.15c-.49,3.39-1.69,6.55-5.34,7.6-4.25,1.21-5.64-2.28-7.37-5-1.43-2.2-2.51-4.6-3.87-6.8-4.5-2.19-3.23,2.21-4,3.78-4.73,9.19-19,16-29.35,13.16-1,9.55-.07,19-.64,28.43-.23,3.67-.53,7.62-4.79,9-4.54,1.53-7.77-.53-9.93-4.56-2.51-6.08-4.05-12.64-8.68-17.69-5.51-11.85-13.76-3.82-21-2.89a6.24,6.24,0,0,1-2-2.42c-1.9-5.69-.2-11.82-2.19-17.49-1.3-4.89-.84-10.19-3.31-14.69,2.33,7.29,2,14.75.84,21.87s-3.43,15.07-13.82,13c-4.3-.85-5.17,1.32-5.4,4.7-.21,2.94,0,5.89-.49,8.83a16,16,0,0,1-.83,3.18c-2.55,5.36-6.07,8.22-12,4.63a9.16,9.16,0,0,1-2-2.47,34.69,34.69,0,0,1-1.32-4.16c-4.41-14.19-5.87-15.06-19.31-11.57a6.36,6.36,0,0,1-2.76-1.28c-.48-.9-1-1.79-1.57-2.65-4.89-18.42-3.16-37.48-4.87-57.5-5.31,9.21-.3,18.62-4.42,26.6-1.81,2.81.19,6.34-1.73,9.13a1.72,1.72,0,0,1-.38,1.86c-4.85,4.59-6.32,12-12.66,15.34-3.28-16.57-4.62-33.22-2.56-50.09.53-4.33.25-8.77.34-13.16C31.83,480.86,54,434,74.59,386.5Z"/><path class="cls-39" d="M125.16,694.52l-20.29-19.39c-1.32-4.34-6.93-6.34-7.26-12.92,7.86,3.61,14.45,10.19,22.33,5.14,5-3.2-.33-7.92,0-12-.72-2.52-1-4.83,2.56-5.24,6.66,3.91,7.18,11.67,10.89,17.44,1.76,2.75,3.16,6.51,7.29,5.22,3.94-1.22,2.28-4.76,2-7.55a18.46,18.46,0,0,1-.17-4.39c.3-2.17.45-4.71,2.88-5.46,2.68-.82,3.92,1.64,4.92,3.43,3,5.43,5.2,11.59,10.74,15,15.76,9.82,32.15,8.49,48.65,2.09,5.32-2.06,5-6.83,4.65-11.22-.5-5.87-2.59-11.43-4-17.14-.64-2.69-2.18-6.27,1.39-7.75,2.89-1.2,4.17,2.13,5.88,3.95,5,5.37,6.88,13,12.84,17.76,3.25,2.59,5.87,9.33,10.21,5.91,4.58-3.61,11.57-5.15,12.61-13.6,1.55-12.48,1.69-24.88,1.79-37.35,0-2.94-.24-5.9.39-8.79.31-1.43.91-2.94,2.56-3.28s2.66.93,3.4,2.15c2.28,3.77,4.11,7.8,6.56,11.48,1,1.54,1.74,3.37,3.91,3.34,2.79,0,3.28-2.53,4.32-4.37a8.56,8.56,0,0,0,.86-4.28c-.33-27.94,3.1-56-2.8-83.75,5.78,27.47,2.2,55.27,2.74,82.92.06,3.48-.86,7-4.77,7.68-3.51.6-5.07-2.84-6.28-5.3-7.65-15.51-14.63-31.27-14.27-45.63a388.47,388.47,0,0,1,3.39,63.06c-.15,5.14-1.28,10.35-.93,15.32.69,9.79-7.08,13.36-12.22,18.82-2.49,2.64-6,1.25-7.84-1-14.75-18.53-31.65-36-31.26-62.2,4.11-5,5.76-10.41,5.46-17.12-.37-8.28-.33-16.87,6-23.78a10.84,10.84,0,0,0,2.4-8.29c-1.62-16.79,5.55-30.58,14.75-43.65a193.76,193.76,0,0,0,21.92-40.37c1.73-4.37,3.33-10.36,10.58-8.67,7.67,6.18,15.28,12.46,23,18.52,3.5,2.73,3.22,6.3,3,10-2.77,42.57,5.14,83.4,21.51,122.48s41.46,71.34,79.11,92.53c1.27.71,3.33,2.37,3.63,2.09,10.58-9.81,14.33,3.36,20.07,6.68,24.78,14.33,49.48,28.66,76.18,39.22,3.63,1.44,8.87,2.16,8.76,7-.08,3.49-4.93,3.79-7.8,5-42.28,17.8-86.68,24.42-132.19,23.47-30.4-.64-60.74-3.08-89.26-15.32,1.57-10.83,7.45-14.74,19.56-12.08,11.75,2.59,23.34,6,38,3.87C293.25,746.4,261.16,729,230.29,706c-1.5,8.15.19,15.24-7.59,17.8-8.18,2.7-15.7,2.71-23.09-2.3s-14.58-9.89-22-14.59c-6.52-4.12-12.73-6.66-16.89,3-1.28,3-4,4.12-7.07,4.46C142.25,710.41,135.61,699.73,125.16,694.52Z"/><path class="cls-40" d="M394.61,352.42c23.9,3.42,46.13,11.83,67.09,23.47,18.29,10.16,36.67,20.21,53.76,32.38.81.55,1.6,1.12,2.38,1.71v0c-.11,6.18-5.15,7.51-9.45,8.7-6.72,1.84-6.22,5.14-2.59,9.28,6.47,7.39,13.1,14.65,18.75,22.74,3.73,6.63,6.21,13-3.18,17.25-3.9,1.74-4,5-2.93,8.38,2,6.39,2.31,13,2.91,19.58,1.19,12.93-5.71,19.91-18.32,17.39-7.46-1.49-10.33-.55-9,7.65,1.28,7.82-2,12.14-10.53,10.71-3-.5-5.95-.54-8.55,1.1-16.13,10.23-31.06,4.06-45.5-3.79-6.08-3.3-11.7-5.08-18.74-4.24-34.6,4.13-68-2.09-100.47-13.55-12.69-4.48-14.32-7.64-14.32-21.3,0-11-3.17-21.81-1.76-32.88a27.39,27.39,0,0,1,.78-5.25c2.53-8.41.08-17.7,4.51-25.78,10.77-19,19.85-39.1,37-53.92C353.28,357.44,372.16,349.9,394.61,352.42Z"/><path class="cls-41" d="M571.4,509.14c5.3,9.18,10.61,18.35,16.2,28-6.7,1.86-10-4.93-16.27-4.79,2.85,9.43,5.57,18.37,8.23,27.34.85,2.9,3.44,5.95-3.07,6.32-5.11.3-1.81,5-2,8-.25,4.14,2.52,9.71-2.23,12s-8.95-1.56-12.53-4.85c-1.35-1.24-2.56-2.76-4.13-3.62-3.75-2.06-8.09-5.8-11.94-2.88-3.17,2.39,1,6.62,1.17,10.16.23,4,1.42,7.95,1.56,11.94.27,8.05,1.94,17.88-12,12.08-1.12-.47-3.85,0-4,.57-3.94,14.07-9,2.29-13,.33-5.22-2.59-9.8-6.46-14.86-9.42-2.07-1.21-4.4-3.55-7-1.92-2.86,1.78-1.08,4.51-.63,7,1,5.23,1.74,10.5,2.85,17.36-18.61-10.68-30.41-27.28-47.88-37,8.84,28.53,25.4,53.28,36.52,80.69-5.29,1.22-7.36-4-12-4.1-1.89,5.2,1.8,8.88,3.77,12.82,2.42,4.82,1.93,6.82-4,8.12-13.79,3-26.88,2.42-39.8-3.67-2.26-1.07-5.78-3.2-8.24-.8-2.75,2.68.68,5.33,1.39,8,.56,2.09,1.69,4,3.24,7.59-17.39-7.61-30.13-20.39-48-29.74l10.76,33.1c-33.11-7.34-81.19-74.92-87.59-122.15a27.62,27.62,0,0,1,16.58-5.09c24.58,1,49-3.51,73.54-2.31,27.81,1.36,54.46-4.89,81.54-9.71,31.75-5.65,57.7-20.14,79.62-43.14C560.88,511.52,564.85,507,571.4,509.14Z"/><path class="cls-42" d="M550.91,734.4c15.75,15.2,34.15,27.22,53.42,43.08-17.87.18-31.73-4.13-45.47-8.16-41.54-12.18-82.42-26.13-120.5-47.21-15.15-8.39-29.17-18.17-40.83-31.12-3.23-3.58-5.72-7.36-5.4-14,14.61,11.65,30.82,18.2,47.17,28-.67-9.13-7.43-13.73-9.31-20.51,4-1.5,6.56,1.3,9.41,2.48,14,5.83,27.8,5.35,41.36-1.11,7.64-3.64.05-9,1.42-14,3.29-2.42,6.08,2.89,10.55,1-6-26.1-22.39-47.69-33.47-73.41,12.5,5.7,19.41,16,29.22,22.4,2.74,1.81,5,4.4,7.78,6.1,2.29,1.38,4.56,4.94,7.6,2.48,2.46-2-.08-4.65-.64-7-1.2-5.23-2.06-10.55-3.22-16.68,11.16,4.23,18.86,11.83,27.74,17.53,2.49,1.6,7.65,4.94,6.86-.73-1.19-8.55.22-9.47,7.83-6.8,4.67,1.64,7.06-2.38,6.64-6.31-.92-8.65,3.94-17.25-1.83-27,9.4.33,14.78,6.12,21.59,7.84,7.51,1.89,11.14,1.63,9.95-7.81-.48-3.86-6.89-13.86,6.54-11,2.41.51,2.17-3,1.47-5.2-1.73-5.58-3.07-11.3-5-16.8-2.68-7.51-1.13-9.74,6.49-6,1.2.59,2.88.2,4.34.26,3.07-1-1.21-7,4.32-6.44C609.58,563,619.17,589,628,615.34c-1.32,11.59-2,12-12.13,6.52-4.31-7.79-5-16.87-9.41-24.32,2.53,7.69,7.47,15.17,6.8,24.06-4.5,3.24-7.15-2.15-11.78-2.4-4.21,7.25,2.14,13.61,2.4,20.42.09,3.92-1.11,7.17-4.78,9.09-2.93.46-3.45,2.5-3.19,5-1.31,7.29-3.68,13.28-13,9.47-3-1.23-4.77.1-6.64,2.13-2.73,3-5.92,2.15-9.11.75a17.4,17.4,0,0,1-2.63-1.57c-2.2-.87-5.83-6.16-5.34,1.5.23,3.55,2.13,6.8,4.1,9.83a66.23,66.23,0,0,1,5.16,9.33,12.4,12.4,0,0,1,.86,3c0,.52-.1,1-.14,1.55-1.23,3-4,5.39-6.59,3.87-7.5-4.44-15.19-1.44-22.77-1.71-7-2.31-11.48-8.86-18.89-11.33-4.37,11.9-1.13,21,9.07,27.93,3.58,2.45,7.18,5,9.15,9.16C541.28,724.5,548.46,727.81,550.91,734.4Z"/><path class="cls-43" d="M301.5,425.61l-4.26,26.54c-2.48-1.83-1.57-4.3-1.25-6.81-3.24,10.11.19,21.33-5.86,30.75a168.13,168.13,0,0,1-32.81-30.74c-1.38-6.93,1.43-13,4.17-19,7-15.3,12.07-31.33,17.84-47.09,1.89-3.52,3.62-7.16,5.65-10.6,2.6-4.4,3.5-7.75-.62-12.53-6.31-7.32-3-15.12,2.22-21.84,4.47-5.74,9.27-11.25,13.43-17.21,2.8-4,2.38-6.66-3.7-6.4-5.85.26-12.56,2.83-16.69-4.18,8.85-7.54,17.56-15.27,26.61-22.58,9.22-7.45,16.66-16.37,23.35-26.08,3.11-4.5,3.6-8.64.29-13.08-3.15-2.35-3.4-5.83-3.63-9.32-13.17-25.72-33.58-45.76-54.48-68.06,26.34-1.09,50.39.85,74.21,6.14,9.67,28.66,10.54,59.71,23.71,87.43.62,1.31.86,2.76,2.38,3.39,8.43,27.71,19,54.51,33.75,79.53,1,1.77,1.25,3.39-.72,4.69-8.45-4.25-17.39-1.62-28.19-2.5l6.42,4.24c-1.42,2.11-3.66,2.44-5.85,2.24-23.92-2.22-38.89,11.52-52.11,28.77C315,394.84,308,410.09,301.5,425.61Z"/><path class="cls-44" d="M571.4,509.14c-11.28,4.1-17.6,14.24-25.91,21.82-20.26,18.5-45,26-70.95,31.37-25.08,5.2-50,10.39-76,9s-51.94,3.84-78,2c-5.21-.37-9.18,5.49-14.64,2.31-6.59-21.6-13.22-43.19-11.11-66.24,3.88-3.18,7.61-1.23,11.34.34,36.49,15.34,74.16,23,113.85,17.46,8.87-1.23,15,5,22.13,8.4,4.27,2,8.21,4.74,12.68,6.55,6.25,2.54,11.94,3.41,17.2-1.93a8.37,8.37,0,0,1,4.9-2.39c10.11-1.09,21-.15,18.25-16.64-.78-4.64,6.22-4.36,10.79-3,13,3.78,16.41,1.06,16.26-12.57-.07-6.59.5-13.2-1.49-19.67-1-3.33-.77-6.92,2-9.2,10.12-8.28,5.5-16.77.74-25.36a8.83,8.83,0,0,0-2.27-3.62c-11.95-13.89-9.9-21.56,7.77-29.2l-.15,0a1.18,1.18,0,0,0,2,.56c16.44,9.35,30.52,21.77,46.63,33.71-8.81,3.44-14.93-.89-24-2.41,8.21,15,19.18,25.92,25.52,39.62-.77.39-1.37,1-2,1-5.14,0-9.62-8.39-13.2-4.49-3.76,4.1,3.18,9.36,4.65,14.39C569.31,503.69,570.42,506.4,571.4,509.14Z"/><path class="cls-45" d="M272.08,890.56c-9.31,2.27-19.16-1.3-28.3,2.65l-11.47,5.22c4.64-9,3.39-17,3.09-24.89,3.64-.22,3.26,2.43,3.62,4.79.33,2.15,1.27-.44,1.94,0,19.31-3.86,36.47-11.59,49.46-27,32,.85,58.29-12.11,81.31-33.2,1.29-1.18,2.82-2.67,4,.18.88,4.28-2.58,7.1-3.89,11,2.35-3.93,3.8-7.93,6.73-11,4.13-6.77,2.16-13.68.45-20.57,1.59-6.74,7.32-4.82,11.61-5.22,8.22-.78,18.51-4.15,24.15-.53,5.46,3.5,2.67,14.91,3.89,22.78,1,6.64,3.73,10,11.69,13.06,11,4.21,23.41,8.27,32.05,17.78a3.94,3.94,0,0,1,2.09,2.21c.65-2.15-1.31-3.63-1.46-5.57,14.08-3.9,27.37-4.61,37.08,9.17.15,23.22-1,24.16-33.68,26.53-1.68-2.82,2.71-3.94,1.48-8.08-4.34,6.38-10.51,6-16.49,6.27-29-12.83-40.57-9.94-65.52,11.28C373.28,898.26,364.39,914,346.53,918c-5.69,1.29-11.38,2.53-17.07,3.8-6.06-.67-11.29,2.22-17.45,4.38,1.05-6.13,2-11.73,3-17.33a218.48,218.48,0,0,0,31.8-17.35c10-6.74,11.91-14.57,6.76-25,1.74-5.9,6.66-9.35,10.52-13.62a120.93,120.93,0,0,0-8.53,9c-2.08,2.52-4.49,5.82-7.6,5.94-12.38.49-24,8-36.26,5.55-12.12-2.41-21.43.47-29.74,8.87a7.64,7.64,0,0,1-4.86,2.25A11.66,11.66,0,0,0,272.08,890.56Z"/><path class="cls-40" d="M850.77,498.48l13.5,10.83c.61,3.24-1.63,5.05-3.93,5.84-14.48,5-28.85,11.38-44.65,5.22h0c-1.17-1.28-3.26-.77-4.35-2.21-16.83.93-32.23,8.17-48.61,11.12-10.9,2.22-21.63-.46-32.37-1.45a307,307,0,0,1-52.67-9.18c-6.23-1.7-14.12-2.64-14.66-11.9,19.1-18.43,40.67-33.87,62.88-48,11.17-7.09,26-3.83,38.77-1.18,25.88,5.34,48.48,18.65,71,31.82C840.76,492.36,845.74,495.45,850.77,498.48Z"/><path class="cls-46" d="M566.31,685.92q-2.23-4.39-4.46-8.79a18.44,18.44,0,0,1-2.38-9c-.08-4.52,2.27-6.43,6.79-4.24h0c10.7,9.35,22.77,7.93,35.11,4.49a1,1,0,0,1,.65,1.18c-.09,1.4.78,2.3,1.69,3.18C620.5,705,637.84,737.08,650,771.54a51.15,51.15,0,0,0,2.33,4.91c-.55,9.83-5.18,15.62-15.55,15.75-28.82-18.72-56.5-39-83.78-59.91a41.89,41.89,0,0,1-15.4-12.8c-3-6.79-9.85-10-15.23-13.86-11.15-8-3.07-19-6.08-28.17-1-3,4.08-1.33,5.84-.14,6,4.11,11.81,8.61,17.68,12.95,5.57,2.21,10.69,5.48,17.37,2.39,3.7-1.72,7.3,2.46,11.65,3.2,1.33-2.59.48-5.12-.49-7.65h0C567.74,687.42,567,686.65,566.31,685.92Z"/><path class="cls-35" d="M166.66,811.93l17.82,1.84c19.05,7.25,34.68-1.89,50.9-9.91,6.73-3.33,10.87-12.46,21.16-9.42,2.07.61,3.26-6.63,3.4-10.53.24-7,2.88-9.4,9.62-6.22a23.85,23.85,0,0,0,7.35,2.18c12.1,1.34,18.78,6.66,17.65,20.14-.28,3.36-1.6,12.4,8.61,8.78,2.23-.79,6.17,3.3,9.32,5.14,8.75,2.2,18.14,3,24.09,11.21,6.63,6.71,5,11.5-3.45,14.64s-16.37,6.07-26.15,2c-12.66-5.26-26.46-7.08-39,1.31-9.5,6.35-19.88,3.5-29.92,3.86-10.41.38-19.44,1.5-23.91,13.24-2,5.17-7.49,7.39-13.82,6.61-5.38-.67-11.06-1.15-15.9,2.53l-6.73,1.6c6.54-7.32,1.82-14.68,2.73-21.74,8.49-3.43,17.25-6.1,25.53-10.17,6.8-3.33,12.68-7.22,15.94-14.28l11-6.39c.81-1.46,2.76-1.61,3.55-3.09-1.81,1.11-4-.58-5.8.83-18.22,8.28-37.58,6.81-56.7,5.95a81,81,0,0,0-13.89.69C156.86,815.83,163.64,815,166.66,811.93Z"/><path class="cls-47" d="M793.63,604.45c-24.25,5.52-49,7.84-73.62,10.71-24.35,2.84-48.63,4.77-73.35,3.42-12.45-.68-12.94-8-15.72-15.52-3.12-8.43,4.73-8.3,8.87-11,21.25-13.84,43.33-26.07,67.44-34.3,14.81-2.68,25.83,6,36.91,13.2,8.3,5.4,4.65,12.57-1.43,18.78,7,1.46,12.66-.16,18.33-1,10.2-1.51,19.65,0,27.71,6.94C791.43,598,795,599.85,793.63,604.45Z"/><path class="cls-48" d="M775.94,531.52c20.6-10,39.17-8.95,57.4,6.84C847.93,551,863.68,562.28,878,575.78,862,587,844,590,827.15,595.72c-11.6-.13-24.13,4.26-33.26-7.52-2.25-2.9-6.16-1.23-9.38-1.24-8.08,0-16.32.42-20.41-9-5.13-11.75-9.07-23.3,2-34.1,3.08-3,7.46-4.85,8.68-9.53A9.13,9.13,0,0,1,775.94,531.52Z"/><path class="cls-49" d="M153.62,714.31c1.51-1.56,3.37-2.91,4.47-4.73,7.48-12.28,9.08-12.78,21.4-4.92,7.41,4.72,14.66,9.7,21.86,14.74,5.49,3.85,10.84,4.29,17.58,2.76,8-1.81,9.65-5.26,7.1-12.25-.58-1.62-2.05-3.44-.42-5.06,2-1.93,4-.45,6.06.36,7.21,2.89,13.42,7.41,19.61,12,20.68,15.23,43.78,26.33,66.17,38.63a79.42,79.42,0,0,1,9.49,5.49c1.78,1.32,5.65,1.87,4.14,5.4s-4.45.89-6.79,1c-11.86.8-23.34-1.31-34.62-4.65-9.47-2.81-16.22-.32-19.72,9.3-17.14-2.17-31.79-11.19-47-18.07C198.58,743.36,175.06,730.53,153.62,714.31Z"/><path class="cls-50" d="M226.05,352.49c6.26-10.84,16.8-17,26.38-24.28,5.05-2.19,9.69-5.15,14.52-7.75,5.3-2.85,11-4.28,17-3.18,9,1.65,11.81,8.2,5.62,14.81-5.58,6-9.17,13.19-14.39,19.35-4.18,4.93-6.32,10.13,2.72,13.36,8.4,3,5,9.06,2.59,14.52-6.31,17.8-16.08,34-23.34,51.42-1.35,3.23-2.45,8.11-8.14,5.65-12-10.46-19.74-23.91-26.74-37.89-4.14-8.23-3.28-16.89-2.05-25.56A30.79,30.79,0,0,1,226.05,352.49Z"/><path class="cls-51" d="M694.23,555.73a464.54,464.54,0,0,0-60.16,33.71c-5.7,3.78-7.45,2-10-3.37C610.52,558,610.38,557.72,632.44,535c7.11-7.34,13.49-15.46,22-21.37,5.09,2.45,9.6,5.85,10.95,11.46,2.21,9.14,8.79,13.87,16.3,17.9C687.22,546,692.61,549,694.23,555.73Z"/><path class="cls-52" d="M524.28,449.81c4.41,5.2,5.61,11.8,7.89,17.95,1.38,3.74.65,7.07-3.18,8-8.25,2-7.11,7-4.68,12.55,3.47,8,.68,16.35,1.48,24.54.86,8.81-9.8,12.87-19.14,8.74-2.82-1.24-5.58-4.44-9-1.57-2.77,2.33-1.24,5.18-.66,8.11,2.41,12.07,1.74,12.28-10,10.67-4-.55-10.42.15-12.38,2.78-10,13.44-20.85,4.82-28.5-.39-11.47-7.8-21.64-11.86-36.19-10.21-36.77,4.16-71.93-4.32-105.62-19.12-3.05-1.34-6-2.79-9.45-2.49q-.16-14.33-.35-28.64c-1.13-8.36-5.74-17,2.37-24.5,0,11.38.64,22.78-.05,34.11-.54,8.87,3.22,13.87,11,16.74,11.63,4.31,23.88,6.64,35.66,10,18.84,5.44,37.52,5.43,56.51,5.48,4.38,0,8.72.19,13-1.45s9.27-1.18,12.52,1.94c8.41,8.08,19.72,8.47,29.75,12.19,4.45,1.66,8.55,0,12.64-2,5.88-2.81,10.68-10.24,18.89-3.49,2.4,2,5.36-1.55,5.25-4.87-.1-2.87-1-5.74-1.79-8.56-2.19-8.31,1-10.25,8.59-7.57,15.76,5.54,20.71,1.53,19-14.77-.57-5.43.07-10.93-2.18-16.21-2.82-6.62-4.59-11.2,6.32-13.55,9.64-2.07-1.09-9.39,0-14.41C522.73,448.88,523.49,448.91,524.28,449.81Z"/><path class="cls-53" d="M775.91,533.69c5.15,1,3.9,2.42.88,5.28-3.92,3.73-10,5.32-12,10.76-2.27,6.27-8.14,12.54.47,19.36,4,3.15-1.82,12.6,7.86,14.17,5.51.89,10.74,1.75,16.08,0,2.6-.85,6.18-1.49,6.85,1.06,3,11.21,11.71,8.51,19.37,9.09,4,.29,7.84,1.5,11.75,2.3-10.78,4.4-22.15,6.57-33.52,8.73-8.41-11.56-20-15.92-33.55-12.68-7.37,1.76-14.47.87-21.68,1.62-.1-1.28-.47-2.23-.16-2.61,12-14.78,12-14.81-5.25-23.4-8.23-4.09-16.2-9-25.74-9.6l.07.05c.79-.55,1.58-1.1,2.38-1.64a3.79,3.79,0,0,1,2.11-.5c1.25-1.24,3.21-.77,4.5-1.89,17.42-7.21,34.58-15.11,52.78-20.31l1.36.12c1.36.07,2.73.08,4.09.08Z"/><path class="cls-54" d="M263.91,460.77c-4.71,1.34-6.6,5.37-7.89,9.33-6.65,20.37-20,36.94-30.74,55-3.61,6.07-6,12.26-5.66,19.62.41,8.6,1,16.84-6.61,24.22-5.29,5.16-2.74,14.26-1.67,21.15,1.13,7.27-1.66,10-7.32,12.1-6.77-6.49-9.46-18.09-6.15-26.61,2.82.87,1.22,6.73,5.49,5.42,3.31-1,3.13-4.56,3.13-7.52,0-5.5-.15-11,0-16.5.08-2.49,0-6.39,1.42-7.2,9.92-5.69,7.43-15,7.28-23.44-.19-11.68,5.09-21.05,11.15-30.36,7.77-12,15.92-23.81,19.52-37.85,1.07-4.19,4.58-5.44,6.83-8.15C257.36,452.64,260.45,456.89,263.91,460.77Z"/><path class="cls-44" d="M694.23,555.73c-6.69-6.45-14.8-10.85-22.54-15.81-2.35-1.5-5.28-3.77-5.82-6.17-1.8-8-7-13.81-11.42-20.13L657,512c4-.31,8.18-.9,11.55,1.86,16,13.07,35.61,13.92,54.66,16.78,5.44.82,11.17.8,13.17,7.51C723.05,545.81,708.27,549.88,694.23,555.73Z"/><path class="cls-55" d="M736.34,538.18c-8.05-7.51-18.73-4-28-6.41-13.89-3.59-29.06-3.29-39.38-15.62-3.21-3.83-8.7-.68-12-4.12l6.07-5.28c6.1,8.79,16,9.69,25.13,11.28,21,3.64,41.81,8.84,63.44,7.71,3.68-.19,6.73,4.36,11.13,3.54C754.52,534,745.14,535.21,736.34,538.18Z"/><path class="cls-56" d="M815.69,520.37c17-.22,33.68-1.68,48.58-11.06l9.84,6.8c5.07,6.26.55,9.35-4.33,11.43-8.06,3.42-16.48,6-24.6,9.28-3.24,1.32-5.63.51-8.12-1.26Z"/><path class="cls-57" d="M616.85,619.75c7.07,7,8.82.5,11.19-4.41,10.91,29.78,18.62,60.25,19.6,92.14-5.29-2.33-4.82-7.75-6.17-12-6.59-20.83-12.36-41.93-20.39-62.3C616.12,629.81,613.36,625.77,616.85,619.75Z"/><path class="cls-58" d="M301.5,425.61c3.64-24.84,18.3-43.72,34.72-61,12.46-13.14,29-17.51,47.1-14.28,3.79.59,7.95-.87,11.29,2.1-39.69,2.06-66,23.38-83.42,57.69C308.44,415.52,307.18,422,301.5,425.61Z"/><path class="cls-59" d="M641.83,512.78c-8.35,12.75-19.77,22.67-27.45,35.7-2,3.47-4,3-6.25-.71-8-13.11-7.88-14.43,5.83-22.33a106.12,106.12,0,0,1,9.82-5C629.76,517.83,635.81,515.34,641.83,512.78Z"/><path class="cls-60" d="M524.28,449.81l-2.3,0c-6.89-7.91-13.81-15.79-20.65-23.74-4.34-5-3.95-8.84,3.39-9.25,5.65-.31,9.32-3.51,13.11-6.91,4.33,2.07,8.57,4.26,11.18,8.57-5.49,3.16-5.28,11.74-13.24,13.13-3,.51-.56,4.54.61,6.51C518.76,442.19,521.61,445.94,524.28,449.81Z"/><path class="cls-61" d="M249,436.39c3.18-.11,4.33-2.53,5.17-4.94,6.46-18.36,17.08-34.71,25.19-52.27a1.37,1.37,0,0,1,2.24,0c-5.74,22.91-16.54,44-24.26,66.15Z"/><path class="cls-62" d="M596.91,538.21c-2.73,1.28-.81,5.68-4.32,6.44,1.77-11.25-7.3-18.37-10.63-27.69-1.2-3.35-3.23-6.41-4.89-9.6-.69-2.36.4-2.91,2.49-2.45Z"/><path class="cls-63" d="M296.86,456.23c-3.64,7.89-.85,16.4-2.37,24.5q-2.17-2.33-4.36-4.64c.45-11.27,1.13-22.5,6-35.54.53,5.46.82,8.53,1.12,11.6C297.11,453.51,297,454.87,296.86,456.23Z"/><path class="cls-64" d="M316.7,812.21l23.07,10.09-3.19,2.84-24.09-11.21Z"/><path class="cls-65" d="M226.05,352.49q-2.93,10.23-5.86,20.45l-2.38-2.48c-.51-7.55,2.95-13.95,5.93-20.49Z"/><path class="cls-66" d="M537.63,719.49a48.17,48.17,0,0,1,15.4,12.8l-2.12,2.11C545.44,730.36,540.2,726.11,537.63,719.49Z"/><path class="cls-67" d="M463.07,842.31c3.58,3.2,5.83,7,5.62,12.46-4.3-2.17-5-5.82-6.25-9.1Z"/><path class="cls-68" d="M579.56,504.91l-2.49,2.45c-2.15-2.73-4.29-5.47-3.74-10.15C577.12,498.83,577.84,502.32,579.56,504.91Z"/><path class="cls-53" d="M775.94,531.52c0,.72,0,1.44,0,2.17l0,0c-2,1.49-4,1.27-6.09.38l-.76-.55C771,531.6,773.4,531.28,775.94,531.52Z"/><path class="cls-47" d="M716.31,553.8a4.47,4.47,0,0,1-4.5,1.89A4.75,4.75,0,0,1,716.31,553.8Z"/><path class="cls-56" d="M811.34,518.16a4.28,4.28,0,0,1,4.35,2.21A4.11,4.11,0,0,1,811.34,518.16Z"/><path class="cls-60" d="M530.83,419.11c-1.06,1.26-1.61.67-2-.56A2,2,0,0,1,530.83,419.11Z"/><path class="cls-47" d="M709.7,556.19l-2.38,1.64Z"/><path class="cls-45" d="M506.34,852.25a3.13,3.13,0,0,0,.24,1.28,1.33,1.33,0,0,1-2,0,5.49,5.49,0,0,1,.45-1.69A2.23,2.23,0,0,0,506.34,852.25Z"/><path class="cls-60" d="M517.84,410l-2.38-1.71Z"/><path class="cls-69" d="M326.24,235.46a13.18,13.18,0,0,1,3.63,9.32c-3.64,20.59-20.49,30.79-34.22,43.41-15.35,14.11-33.31,24.73-49.81,37.3-1.75,1.34-3.43,3.33-5.71,1.72-3-2.15-.61-4.6.23-6.81,5.16-13.6,10.5-27.1,15.19-40.91,4.25-12.51.83-19.93-9.21-26.24-.9-6.62,4.11-10.72,7-15.58,2.16-3.63,4.06-6.71,1.73-10.8h0c.69-8.66,2.57-13.07,6.58-15.4h0c.72.75,1.51,1.43,2.29,2.11l30.23,21.19c7.1-2.19-4.13-7.82,3.94-11.09,9.37-3.81,13.87,2.07,20.09,5.77C321.15,231.19,320.18,238.1,326.24,235.46Z"/><path class="cls-70" d="M124.85,178.86c-2.66.24-6,2.63-7.56-1.36s2.72-3.58,4.4-4.91c18.75-14.77,40-24.64,62.77-31.41,1.19,6.06,4.61,8.64,11,8.11,6.19-.52,12.45-.26,18.71-.48,30.53-.09,61.05-.76,91.46,2.38a18.12,18.12,0,0,1,3.57.6c4.8,2.07,10.08,1.43,15.08,2.47a10.93,10.93,0,0,1,3.14,1.35c4,3.28,4.14,5.67-1.47,7-3.06.74-6.27-2.54-9.18.46-11.16-.13-22.33-.12-33.36-2.2,7.25-2.64,14.65-.89,22-1.4-7.3,1-14.72-1.56-21.95,1.41-39.83,1.66-79.68,3.37-119.2,9C150.94,171.79,137.46,173.63,124.85,178.86Z"/><path class="cls-71" d="M281.58,379.2l-2.24,0c.52-5.55,6.82-13.7-6.88-12.13-5.18.59-6-10.38-.91-16.45s10.58-12.09,15.82-18.17c2.12-2.46,5-5,3.36-8.58-1.75-3.72-5.5-4.1-9.38-4.37-5.88-.42-10.62,2.21-15.56,4.61-4.23,2.05-8.19,5.09-13.36,4.12a156.8,156.8,0,0,1,24.85-19.6,6.65,6.65,0,0,1,2.18-1.94l.16-.15c5.87,3.07,12.05,2.37,18.19,1.36,2.43-.41,5.06-2.49,7,.19s1,5.81-.79,8.2q-7.18,9.59-14.84,18.82c-7.42,9-7.22,13.51,1.35,21.53,2.24,2.09,2.31,4.42.8,6.89C288.1,368.76,284.83,374,281.58,379.2Z"/><path class="cls-72" d="M228.83,192c-10.57,25.87-11.77,26.36-42.33,16.18a74.14,74.14,0,0,0,16-25.39C211.94,178.05,227.18,183.38,228.83,192Z"/><path class="cls-73" d="M372.06,264.36c-4.32,5.74-3.63-1.31-4-2-10.37-20.36-14.2-42.6-18.4-64.76-1.15-6-2.17-12.25-5.55-17.69-1.61-2.59-2.95-5.46,1.84-6.37,8.44.79,8.12,8.38,9.73,13.68,2.58,8.54,3.79,17.5,5.59,26.29,2.57,13.39,3.79,27.07,8.35,40Q370.84,258.95,372.06,264.36Z"/><path class="cls-74" d="M316.77,163.11c2.18-3.42,5.71-2,8.73-2.49,5.88-1.07-.24-2.94.21-4.41,4-3.85,8.83-2.54,13.47-1.85,20.56,3,41,6.45,59.2,17.57,2,.7,2.42,2.33,2.36,4.2Z"/><path class="cls-75" d="M228.83,192c-.49-2.68-1.55-4.48-4.71-5-7.24-1.17-14.42-2.78-21.62-4.21,2.27-4.56-.25-12.47,6.08-13.69,8.8-1.68,18-1.33,27.1-1.15,3.11.06,1.95,3.46,1.15,5.2C234,179.37,233.16,186.43,228.83,192Z"/><path class="cls-76" d="M166.41,182.34c5.19,3.32,9-2.65,14.22-2,6.39.83,12.36,1.73,12.13,9.29-.22,7-3.95,12.48-12,13.09-8.86.67-13.78-5.22-18.54-11.31C161.25,187.33,161.55,183.79,166.41,182.34Z"/><path class="cls-77" d="M151.25,196a46.22,46.22,0,0,0-18.11,11.69c-4.79-5.1-6.17-12-9.31-17.89-2.82-5.34.59-6.86,3.91-8.93,7.13-1.32,13.19-1.21,16,7.56C144.78,191.46,148.68,193.52,151.25,196Z"/><path class="cls-78" d="M166.41,182.34q-2.1,4.56-4.21,9.11c-4.37,2.71-8.7,3.8-9.52-3-.69-5.73-.86-11.57,7.19-13.6C168.08,172.77,165.72,178.58,166.41,182.34Z"/><path class="cls-79" d="M255.08,226.87c4.3,3.79,5.17,7.44.43,11.83-4.28,4-3.75,11.17-9.17,14.55-6.5-3.89-2.88-10.5-4.14-15.79-.51-2.13,1-3.79,3.16-3C253,237.37,253.92,232,255.08,226.87Z"/><path class="cls-79" d="M261.65,211.47c-.87.63-2.53,1.75-2.49,1.81,3.89,6.14-2.33,9.21-4.09,13.59-2.31-1.51-4.54-5-3.43-6.18,4.71-5.07,1.71-9.66-1-15.19C256.17,206.09,258.92,208.76,261.65,211.47Z"/><path class="cls-79" d="M263.94,213.57l-2.29-2.11Z"/><path class="cls-43" d="M279.46,306.67l-2.18,1.94Z"/><path class="cls-80" d="M270.46,8.19c3.71,2,1.32,4.17.18,6.29q-9.58,17.86-19.22,35.7c-1.88,3.45-4.45,6.62-3.85,13.12l63-17.15a1.62,1.62,0,0,0,1.33-.06c1.89,1.24,1.76,2.65.34,4.17a15.24,15.24,0,0,0-1.6.45A2.93,2.93,0,0,0,308.33,53l-2.22,2.63c-3.49-.83-6.65.43-9.41,2.18-11.6,7.33-24.31,12-37.34,15.86-.91.46-1.85.84-2.8,1.22-4.58,2-9.5,3.15-14,5.29,3.62,7.53,18.86,1.1,15.53,14.87-2.38,3.47-6,5-9.78,6.3C227,107.85,207,118,186.09,125.61c-22.32,8.07-44.56,16.43-67.81,21.56-5.35,1.18-5.35,1.15-9.21-2.34,7-11.82,17.39-20.73,26.51-30.73,2.42-.94,4.26-2.74,6.35-4.19,7.81-5.4,9.31-4.68,11.4,5.16,10.9-3,23.84-3.6,22.66-19.46-3,.46-8.75,7.06-10.43-3.63-.7-4.48-5.8,2-7.83-1.7C176.29,70,197.8,53.16,220.19,37.36,236.09,26.13,253.8,18.07,270.46,8.19Z"/><path class="cls-81" d="M398.38,171.93c-8.94-2.7-17.84-5.55-26.82-8.08a207.78,207.78,0,0,0-45.85-7.64v0c-4.84-2.94-10.62.73-15.46-2.23h0c-33.07-4.42-66.23-4.24-99.44-2.22-6.84.09-13.68.27-20.51.21-2.33,0-4.57,2.76-7,.25,4.28-3.3-3.35-7.79,1.11-11.07a2.72,2.72,0,0,1,2-.47c1.31-1.17,3.28-.74,4.61-1.88,38.85-16.35,80.17-22.41,121.32-29.21l29.73-1.86c-6,4.38-10,7.17-13.87,10.1-2.28,1.72-5.74,3.33-5.32,6.38.46,3.25,4.29,3.15,7,4,13.15,4.25,26.28,8.58,39.35,13.11,3.41,1.18,7.08,3.08.95,6.11,1.45,1.34,3.55,2.17,3.68,4.58Z"/><path class="cls-45" d="M102.73,178.66c5.74-1.65,9.61.32,12.75,5.46,7.53,12.29,11.41,26.07,16.46,39.35,4.27,11.21,8.89,22.25,9.16,34.74.15,7.25-1.88,7.5-7.2,4.78a277.7,277.7,0,0,1-26.49-15.48C91,236.68,75.82,222.85,55.63,219.8c-16.18-2.44-33-6.09-49.43,5.6C7,218.74,9.62,215,12.08,211.17c19.4,4.05,38.65,1.71,57.3-3.35C84.65,203.69,96.09,193.51,102.73,178.66Z"/><path class="cls-82" d="M248.39,98.82l8.76-4.45c2.19-3.51,7.93-6.43-.13-10.6-5.28-2.73-5.15-7.67.24-11.37h0A154.92,154.92,0,0,0,287.12,63c4.18-1.86,8.18-3.15,12.06.51-1.56,4.63-7.48,5.91-8.74,11.62,5.17,2,9.46-3.19,16.14-1.6-7.32,6.89-13.61,13-20.08,18.88-9.75,8.89-9.75,9.22,3.82,16.1-10.52,1.94-19.46,3.48-28.35,5.23-46.3,9.14-90.63,23.62-131.83,47.2-8.26,4.73-14.24,14.33-25.76,13-4-.48-9,0-11.11-3.43s2.29-6.48,4.31-9.29c3-4.1,4.08-9.61,9.07-12.19,45.29-9.14,88.24-25.12,129.86-44.85C240.44,102.33,244.56,100.89,248.39,98.82Z"/><path class="cls-83" d="M96.12,118.71c2.09-13.22,8.84-24.56,15.51-36.27-.6,6.72,1.77,13.52-1,20.83,13.16-16.15,22.7-34.85,38.13-49.87l-1.53,19C149.55,98,127.76,110,116,127.55a7.35,7.35,0,0,0-1.91,2.7,1.35,1.35,0,0,1-.89,1.46c-2.94,1.33-5.93,2.58-8.94,3.7-7.82,2.91-9.79,1.29-10.58-8.31a1.66,1.66,0,0,1,.43-1.73C96,123.52,94.17,120.54,96.12,118.71Z"/><path class="cls-35" d="M19.66,222.8c18.89.18,36.6-2,52.94,7.52,4.13,2.4,8.34,4.63,12.47,7,20.52,11.89,20.64,12,3.17,27.88-4.15,3.75-5.06,12.67-11.59,11.31-5.4-1.12-3.86-9.6-7-14.14-5-7.2-9.79-14.58-14.56-21.95-5.51-8.54-14.57-10.24-23.41-12.59C28,226.88,23.55,228.09,19.66,222.8Z"/><path class="cls-84" d="M146.5,279.79c4.55.38,4.9,3.57,4.81,7.11-.44,18.4-3.13,36.45-10.59,53.36-5.85,13.26-16.22,15.4-33.35,8.09-6.7-2.86-12.57-7.6-20-8.88-1.29-7.47,3.14-6.39,7.94-5.6,12.72,2.1,23.78-.46,31.21-12.13C138,310,141,294.31,146.5,279.79Z"/><path class="cls-85" d="M14,208.37c2.78-8,8.36-13.44,15.78-17.17,2.22.28,4,1.66,5.91,2.57a6.39,6.39,0,0,0,7.87-1.45c2.9-2.91.22-5.24-.84-7.73,17.36-6,35.38-6.15,53.42-6.15,2.29,6.89-2,10.92-6.36,15.05-13.87,13.2-31.55,16.43-49.47,18.7-6.85.86-13.8,2.65-20.74.79C17.18,212.34,12.91,213.36,14,208.37Z"/><path class="cls-86" d="M124.88,319.74c-14.23,17.11-32.39,8.56-49.18,7-5.93-.55-13.73.45-17.17-7.24,5.42,1.11,10.48-.59,15.58-2,18.42-3.41,32.94-14.84,48.7-23.71,2.74-1.54,3.44-4.6,4.29-7.42a9.87,9.87,0,0,1,6.68-6.43c5-3.23,7.29-2.43,6.06,3.93A92.39,92.39,0,0,1,124.88,319.74Z"/><path class="cls-87" d="M80.75,284.3c4.41-13.43,14.89-21.29,26.12-28.45,3.4-2.16,6.14-.53,9,1.42,4.56,3.08,9,6.63,14,8.63,8.54,3.39,6.05,7.35,1.63,12-4.46,7.52-9.75,13.95-19.32,14.85C102.21,288.21,90.82,288.7,80.75,284.3Z"/><path class="cls-88" d="M157.73,90.28c5,.36,6.72-5.47,11.79-6.29,2.36,4.24-2.42,7.21-1.94,11.58,5.76,1.64,9.29-4.92,13.81-4.56-.71,19.85-15.41,24.86-31.59,28.28-2.88-3.07,1.63-6.53.27-10.27-6.1-2.08-7.78,9.16-14.49,5.08a3.13,3.13,0,0,1,1-1.86,2.31,2.31,0,0,1,1.47-1.88C144.09,103.12,150.33,96.14,157.73,90.28Z"/><path class="cls-89" d="M248.39,98.82A142.94,142.94,0,0,1,203.9,122c-26.92,8.42-52.69,20.31-80.43,26.2-5.6,1.19-11.1,2.68-16.82.82q1.21-2.12,2.42-4.23c8.48,1.36,16.23-1.9,24-4.25a910.46,910.46,0,0,0,101.68-38C239,100.65,243.47,98.71,248.39,98.82Z"/><path class="cls-90" d="M14,208.37c8.46,7.42,17.52,1.52,26.06.61,16.64-1.76,33-4.59,46.52-16.52,4.77-4.2,7.26-8.75,9.56-14l6.64.22a7.42,7.42,0,0,1-.77,9.22C91.31,197.45,82.73,210,66.41,211.6c-13,1.28-25.71,5.52-39.09,4.27-5.5-.51-10.94-.57-15.24-4.7Z"/><path class="cls-91" d="M93.63,127.1c1.58,7.09,4.66,10.42,11.6,4.84a6,6,0,0,1,7.92-.23c-9,13.62-21.84,24.47-28.23,40.11-1.61,4-5.48,2.43-6.21-2.28Q86.17,148.33,93.63,127.1Z"/><path class="cls-92" d="M80.75,284.3c12-1.3,23,1.91,33.78,6.68-6.28,12.95-27.58,22.75-42.62,19.61.1-5.61.22-11.22,3.93-15.95,6.19,3.75,12.32,6.33,18.44-.7-4.16-4.36-11.39-2.09-14.27-7.75A2.19,2.19,0,0,1,80.75,284.3Z"/><path class="cls-93" d="M71.91,310.59c16.74-1,30.28-9,42.62-19.61l17-13.07,2.23,2-4.72,5.65C115.47,301,99.7,312.7,78.41,314.81,77,312.29,72.68,314.15,71.91,310.59Z"/><path class="cls-94" d="M80,286.19a66.35,66.35,0,0,0,7.35,2.05c4.26.69,9,.09,12,4.08,1.21,1.66-.3,3.59-2,4.43-5.09,2.49-9.72,6.89-16.2,4.26a7.74,7.74,0,0,1-5.26-6.37C75.74,291.09,77.46,288.43,80,286.19Z"/><path class="cls-95" d="M78.41,314.81c20.23-3.94,34.86-17.6,50.65-29.23.44,3.84.1,7.74-3.49,9.79C110.38,304,96.15,314.58,78.9,319.19a4.11,4.11,0,0,1-4.79-1.7Z"/><path class="cls-96" d="M299.18,63.55c-10.68-1.56-19.07,6-29.13,7.34-4.25.55-8.45,1.59-12.79,1.51,13.86-6.23,28.88-9.9,41.42-19.12,2.35-1.72,5.75-1.08,7.43,2.3l-2.68,3.57q-1,1.14-2,2.19h0c-.72.74-1.53,1.4-2.2,2.2Z"/><path class="cls-97" d="M42.67,184.59c3,1.08,8.71.08,6,6-2.15,4.75-6,8.5-12.07,7.11-3.34-.77-5.41-3.47-6.91-6.5C33,186.92,37.68,185.48,42.67,184.59Z"/><path class="cls-98" d="M55.65,317.56c1.65-7,4.8-12.79,11.92-15.57-.9,6.92-.15,14.67-8.88,17.66Z"/><path class="cls-84" d="M147,268.81c3.08,3,3,5.91,0,8.85Z"/><path class="cls-15" d="M312.28,50.26c-.11-1.39-.22-2.78-.34-4.17C315.21,47.22,314.71,48.66,312.28,50.26Z"/><path class="cls-70" d="M191.08,138.83a3.74,3.74,0,0,1-4.61,1.88A4.39,4.39,0,0,1,191.08,138.83Z"/><path class="cls-82" d="M299.18,63.55l2.2-2.2Z"/><path class="cls-82" d="M308.33,53c.79-.74,1.57-1.49,2.35-2.24C309.9,51.46,309.12,52.21,308.33,53Z"/><path class="cls-82" d="M301.39,61.34l2-2.19Z"/><path class="cls-91" d="M114,130.25l1.91-2.7Z"/><path class="cls-80" d="M138.1,110.36l-1.47,1.88Z"/><path class="cls-99" d="M239.69,880.28c-4.54-.27-.42-6-4.29-6.74-.85-4.4-3.31-8-5.63-11.7-1.45-2.31-5.49-3.8-3.7-7.12s5.54-3.09,8.82-3c11.55.44,23.09,1,34.64,1.49,3.17-1.09,6.63,0,9.77-1.28l4.39-.35c.85,6.42-4.16,8.77-8.34,11.23-7.47,4.4-15.22,8.34-23.69,10.55C247,874.6,242.74,876.34,239.69,880.28Z"/><path class="cls-100" d="M188.79,891.16c1.66-6.64,7.45-10.24,11.24-15.31,6.73-4,13.12-8.8,20.27-11.74,7.69-3.17,7,4.49,8.71,8.62,2.45,8.08-1.34,13.28-7.87,17.31a54,54,0,0,1-24.85,7.86C192.33,898.18,186.64,898.53,188.79,891.16Z"/><path class="cls-101" d="M188.79,891.16c.36,1,.43,2.65,1.14,3,12.07,6,37.2-7.82,39.07-21.43,4.34,15,1.4,22.11-11.42,27.69-8.52,1.43-15.91,5.36-22.76,10.39s-9.32,1.61-9.24-5.06C185.64,900.78,184.88,895.38,188.79,891.16Z"/><path class="cls-102" d="M239.69,880.28c-.76-6.46,3.7-7.56,8.56-9,13.25-3.88,26.64-7.71,35.44-19.68,2.23-.54,4.4-2.41,6.73-.25C280.15,872.66,260.19,877,239.69,880.28Z"/><path class="cls-103" d="M274.78,847.15c7.78-6.63,16.18-7.79,26.6-2.83-7.54,3.87-14.55,2.81-21.31,3.32C278.26,848.07,276.44,848.47,274.78,847.15Z"/><path class="cls-104" d="M378.6,818.37c-.8,6.75-5.76,11-9.52,16.13a32.16,32.16,0,0,1,6.68-16.15Z"/><path class="cls-102" d="M279.3,852c-2.95,2.71-6.42,1.58-9.77,1.28C272.56,851.07,276,851.72,279.3,852Z"/><path class="cls-102" d="M274.78,847.15l5.3.49C278.21,848.55,276.19,851.19,274.78,847.15Z"/><path class="cls-105" d="M221.9,824.74c.88,6.17-1.27,10.46-7.33,12.83-11.21,4.4-20.92,13.13-34.14,11.62-7.72-13.74-12.79-15.84-30.07-12,6.86-7.79,13.52-12.9,24.63-10.9C190.57,829.09,206.28,826.13,221.9,824.74Z"/><path class="cls-106" d="M166.66,811.93c.1,5-7.35,5.39-6.56,10.8l-8.3,4.88c-8.74,4.16-16.9,9.69-26.7,11.41-3.86.68-7.74,2.28-11.34-.75-3.85-6.77-8.07-13.1-16.94-13.4.76-4,3.33-5.45,5.89-6.89,17.37,2.28,34.21-.66,50.91-5.09C157.9,811.76,162.21,810.8,166.66,811.93Z"/><path class="cls-107" d="M113.76,838.27a85.56,85.56,0,0,0,26.77-7.87c3.55-1.78,7-3.85,11.27-2.79-2.63,3.85-6.56,7.37-7.63,11.61-2.92,11.65-9.24,18.53-21.53,19.25l-9.55,2.86C115.33,853.46,114,845.86,113.76,838.27Z"/><path class="cls-37" d="M173.57,851.16c4.9,11.39,3.49,14.73-7,19.26-5.11,2.2-10.35,4.67-13.23,10l.24-.24c-2.63-.81-3.61,1.76-5.42,2.64-4,1.94-8.15,8-11.68,5.32-4-3-3.44-9.7-2.23-15.08a21.48,21.48,0,0,1,1.67-3.83c1.79,2.32,3.4,3.06,6.25.92,6.16-4.62,12.61-8.82,17.93-14.49C163.7,851.81,167.72,848.63,173.57,851.16Z"/><path class="cls-108" d="M173.57,851.16c-4.42,1-8.52,2.18-11.63,6.14-6.57,8.36-16.12,13-24.5,19.17-2.44-2.21-.73-5-1.55-7.21a84.51,84.51,0,0,1,15.49-25c5.43-6,12-9,17.73.3a9.36,9.36,0,0,0,2.06,2.5h0a7.26,7.26,0,0,1,1.67,2.26A1.76,1.76,0,0,1,173.57,851.16Z"/><path class="cls-109" d="M230.69,816.09c3.61-2.47,7.42-4.21,12.51-3.91-2.54,4.51-6.36,5.41-10.26,6.17Z"/><path class="cls-37" d="M172.84,849.34l-1.67-2.26Z"/><path class="cls-37" d="M171.17,847.08l-2.06-2.5Z"/><path class="cls-110" d="M601.53,639.63c-.64-5.77-5.22-10.44-4.48-16.65.39-3.21-.44-7.05,3.14-8.66s4.67,2.3,6.72,4.1a49.11,49.11,0,0,0,5.4,3.65c4.3,3.58,5.71,8.5,6.36,13.77,9.5,36.23,23.67,71.27,27.77,109-13.32-27.6-28.59-54-42.88-80.86-.63-.66-1.24-1.33-1.84-2a8.52,8.52,0,0,1-1.41-3.92,6.1,6.1,0,0,1,.81-2.73C605.81,650.23,602.34,644.89,601.53,639.63Z"/><path class="cls-54" d="M601.37,668.37c-9.07,10-22.4,8.3-35.11-4.49,2.43.43,6.55,1.91,7,1.13,3.72-6,6.78-6.37,13.53-3,6.23,3.1,4.65-6.21,7.73-9,6.51,2.35,5,8.66,6.67,13.44A3.91,3.91,0,0,1,601.37,668.37Z"/><path class="cls-111" d="M618.67,635.84l-6.36-13.77c-.54-9.84-6.14-18.22-9.21-30.35,9.34,9.17,9.14,19.79,13.75,28-.35,5,3.54,8.72,4.23,13.41C620.28,634.06,619.47,635,618.67,635.84Z"/><path class="cls-112" d="M601.22,666.39,594.55,653c.74-2-2.57-3.82-.33-5.7.36-.31,1.9.79,2.9,1.23,3.8,1.86,3.11,5.88,4.3,9a4,4,0,0,0,.58,2q.79,1.32,1.53,2.67a3.67,3.67,0,0,1,0,1.89Z"/><path class="cls-54" d="M603.71,672.73,602,669.55Z"/><path class="cls-91" d="M96.12,118.71c.37,2.55.41,5-2.06,6.66C94,122.93,94.16,120.54,96.12,118.71Z"/><path class="cls-113" d="M197.87,575.58c.1,9.32,4.09,17.74,6.15,26.61,3,26.11,17.82,45.62,34.27,63.76,6.5-.42-1.12-18.39,12.13-7,4.72-35.29.59-69.51-.58-104.13,4,22.55,10,44.31,23.24,66.79,4.14-34.58,3.12-66.78-.26-99.08,7.57,15.37,7.7,31.85,7.41,48.15-.3,16.77,1.73,33.76-3.24,50.27-.63,2.09-.39,4.72-2.84,5.51-3.09,1-4.67-1.53-6-3.67-3.45-5.44-6.73-11-11-18,.8,17.12-1.12,32.59-1.37,48.07-.18,11.24-9.08,14.32-15.57,18.11-6.27,3.66-9.56-5.08-13-9.18-5.32-6.38-9.39-13.81-15.31-20.31q2.85,11.25,5.7,22.49c2.09,8.21-.91,13.51-9.06,15.93a79.65,79.65,0,0,1-35.93,2.39c-14.26-2.33-21.7-12.45-26.86-26.89-1.61,5.4-.42,8.65.15,12,.62,3.63,1.15,8.22-2.66,9.86-4.13,1.78-8.24-1.2-10.24-4.65-4-7-7.19-14.43-10.71-21.69-3.92-.65-.85-7.57-6.2-6.94H114c-6-2.54-5.42-8-5.59-13-.38-11.56-2.15-23-3.3-34.47,2.66-13.52-.82-27.34,2-40.85,5.9,7.25,1.87,16.41,4.67,24.25,2.33,6.52-.81,13.54,1.82,20v0c2.55,2,3,5,3.51,7.82,3.78,19.79,11.27,38.26,20.42,56.81-.41-13.77-3.84-26.55-5.6-39.54-.74-5.42-2.22-10.83.85-16.05a3.08,3.08,0,0,1,3.14-.83c3.08,2.27,4.09,5.63,4.86,9.11,1.89,10.86,5.8,21.09,9.34,31.5,6.79,19.94,22.53,25.83,41,27.21,15,1.13,20.09-5.6,16.28-20.17q-9.6-36.64-16.3-74c-.73-3.5-1.47-7-.79-10.57.53-2.69,1.89-4.94,4.91-1.86Q196.57,572.54,197.87,575.58Z"/><path class="cls-114" d="M107.22,597.57c5,15.08,2.77,31.22,6.8,46.45l3,20c-20.34-2.52-18-20.62-24.33-34-3.15,7.81-1.63,14.24-.91,20.41.93,8.07-2.4,8.09-8.82,6.66-24.64-5.5-32.65-22.93-33.73-45.65a3.85,3.85,0,0,1,2.12-2c1-.29,2.12-.29,3.17-.5,14.18-2.78,14.18-2.79,19.51,10.83h0c1.73,2.25,2.44,6.49,5.45,6.27,4.44-.34,3.7-5.58,5.57-8.48,0-.72.07-1.44.06-2.16,1.18-3.71,3.27-5.57,7.54-6.34C99.19,607.87,105.4,605.21,107.22,597.57Z"/><path class="cls-115" d="M116.11,644c.51-1.35.66-4.46,2.78-1.71,1.82,2.36,2.33,5.73,3.42,8.65-2,.84-1.85,2.81-2.39,4.43Z"/><path class="cls-114" d="M47.31,606.52c.19-1.5.39-3,.59-4.49a1.28,1.28,0,0,1,1.92,0h0c2,2.68,2.63,5.45.47,8.36l-1.05,1Z"/><path class="cls-116" d="M91.87,863c-8.44.1-15.22,4.63-22.32,8.32-4.09,1.26-7.89,1.72-5.63-4.48,1.21-3.3,3.51-6.2,5.31-9.27,9.31-5.45,20-8.14,29-14.19,1.48-1,4.13-2.06,5.06-1.11,4.88,5,2.06-3.11,4.25-2.34C110.36,858.54,114.27,854.56,91.87,863Z"/><path class="cls-117" d="M107.52,839.9c-.23,1.44-.31,4.09-.71,4.14-13.54,1.63-23.26,13-36.88,14.3-.2,0-.46-.52-.7-.8,3.12-14.07,14.85-20.72,25.58-27C101.76,826.39,105.59,833.48,107.52,839.9Z"/><path class="cls-118" d="M314.87,902.22c-9.46-16.49-14.62-17.91-34.64-12-4.55,1.35.16-2.08-.35-3.19,4.82-10.75,13.93-15.2,24.71-13.5,16.4,2.59,31.67-.71,47-5.62,6.2,1.58,5.32,6,3.87,10.32C351.72,889.24,327.22,903.6,314.87,902.22Z"/><path class="cls-119" d="M259.87,922.86c3.73-8.49,8.41-16.33,15.47-22.53,2.47-1.36,5.18-2.41,7.38-4.11,10.89-8.41,16.42-7.22,23.46,5.33,1.08,3.7,1.28,7.07-2.44,9.66-10.35,7.2-19,17.18-31.71,20.52-7.1,1.86-6.81,7.52-8.08,12.62-.9,2-2.49,2.62-4.56,2.24C257.57,938.64,258.45,930.75,259.87,922.86Z"/><path class="cls-120" d="M351.47,868.76c-10.56,8.67-23.67,9.53-35.83,8.23-13.95-1.49-25.81-.4-35.76,10.06l-2.82-2.57c7.8-11,17.66-15.06,31.78-14.55,19.51.7,39.93.36,53.8-17.92,1.72-2.28,3.63-5.8,8.69-4.28-4.57,7.85-12.25,12.29-17.74,18.68C354.38,868.55,352.69,868.44,351.47,868.76Z"/><path class="cls-101" d="M264,944.35c-5.37-9.4-1.18-12.63,8-15.89,14.07-5,26.3-13.52,34.23-26.91C311.36,920,309.87,923,292.63,929,281,930.23,273.3,938.82,264,944.35Z"/><path class="cls-121" d="M351.47,868.76l2.12-2.35c7.88,3.67,8.57,9,4.1,16-10.05,15.66-25.21,22.92-42.72,26.46q-.06-3.33-.1-6.65c11.14-3.64,21.79-8.62,30.83-15.89C350.55,882.43,358.54,877.48,351.47,868.76Z"/><path class="cls-122" d="M23.66,595.31c3.16-6,4.44-13.53,12.66-15.34L34,601.32c-2.41,3.88-1.09,8.41-2.33,13.74C27.82,608.21,24.73,602.21,23.66,595.31Z"/><path class="cls-36" d="M504.56,853.55a6.22,6.22,0,0,0,2,0c8.74,5.82,9.43,15.66,13.61,25.43-8-.71-13.76-2.41-18.18-7.62a2.12,2.12,0,0,1-.17-2.35q.68-3.32,1.34-6.63a11,11,0,0,1,.84-2.28,4.79,4.79,0,0,1,0-1.77,4,4,0,0,1,.24-4.48Z"/><path class="cls-45" d="M504.29,853.83l-.24,4.49C503,856.76,502.47,855.23,504.29,853.83Z"/><path class="cls-45" d="M501.84,869c.06.79.12,1.57.17,2.35a9.38,9.38,0,0,1-.72-1.59C501.24,869.55,501.65,869.25,501.84,869Z"/><path class="cls-45" d="M504,860.08l-.84,2.28Z"/><path class="cls-123" d="M374,152.07c-1.71-1.15-4.92-1.08-3.68-4.58l6.14.19c0,.51,0,1-.07,1.53Z"/><path class="cls-122" d="M36.7,578.11c-.42-3.23-1.34-6.56,1.73-9.13C38.26,572.1,39,575.4,36.7,578.11Z"/><path class="cls-124" d="M49.82,602H47.9l-.18-2.15Z"/><path class="cls-125" d="M126.44,521.26c-2.61-1.78-3.34-4.2-3.7-6.77-.49-3.47.58-8.42-4.62-8.49-4.89-.06-4.3,5.29-5.55,8.43-2.72,6.8-4.84,13.83-7.35,20.72-.75,2.06-1.91,4.18-4.47,4.31s-3.86-1.88-4.42-4.1c-1.47-5.8-6.3-10.81-2.84-17.75,2.06-4.13-1.2-8.52-1.83-12.84-.85-5.87-6.3-4.24-9.68-5.31-3.74-1.18-4.35,3-5.41,5.57C73.28,513,73,522.34,63.83,529.47v-48.9c-2.09.1-3-.14-3.41.21-3.62,2.85-5.94,11.83-10.82,7-2.9-2.87-1.84-15.56,1.53-17.87,10.47-7.16,12.09-20.83,23.07-27.59,4,6.27-.32,12.11-1.25,17.72s-.87,10.94-1,16.41c-.06,2.1-.49,4.94,2.37,5.4,2.35.38,4.08-1.74,5.11-3.62,1.56-2.88,2.45-6.11,3.94-9s1.78-7.05,5.84-7.19,1.17,5.51,4.76,6.5c3.61-.58,3-5.67,6.59-6.59,3.55,1.69,1.7,5,2.25,7.69,1,5-3.07,13,4.09,14.15,6.16.95,9-6.44,11-12a51.61,51.61,0,0,1,8.2-15.56c3.7,9.78,7.94,12.32,13.3,2.46.9-1.66,2.8-4.1,5.24-2.55a6.15,6.15,0,0,1,2.11,4.69c-.48,11.75-.6,23,13.33,28.15,2.92,1.08,3.38,5.77,2,7.91-5.41,8.25-5.9,17.86-8.5,26.87-.63,2.19-1.54,4.63-4.09,4.38-3-.29-2.28-3.19-2.49-5.27-.35-3.63-.13-7.43-1.17-10.86-1.14-3.76.24-8.69-8.13-8.31-8,.37-6.38,5.35-8.07,8.87C128.37,515,130,518.47,126.44,521.26Z"/><path class="cls-126" d="M133.53,608.7,141.6,672c-15.68-21.81-25.43-45.57-28-72,14.1-9.54,16.61-9.31,22.8,2.08-.25.33-.5.66-.72,1A11.15,11.15,0,0,0,133.53,608.7Z"/><path class="cls-127" d="M195.25,569.49c-6.69,3.24.35,8.53-1.85,12.43,1.54,4.64,2.37,7.54-4.84,8.67-5.6.87-12.18,2.88-14.55,11-1.92,6.52-7.92.92-12,.32-2.17,6.52-.85,12.21-.05,17.92,1.33,9.45-2.26,17.19-8.07,16.16-7.85-1.39-11.35-7.06-10.15-15.21l1.12-1.11c2.4,2,4.11,5.78,8.17,4s2.6-5.67,2.66-8.76c.18-8.83.06-17.65.09-26.48,0-2.58-.23-5.62,2.6-6.71,2.42-.93,4,1.43,5.15,3.2,3.17,5,5.92,4.94,8.72-.26.68-1.27,1.67-3.37,2.54-3.39,11.88-.21,11.89-9.32,12.68-17.83A10.92,10.92,0,0,1,195.25,569.49Z"/><path class="cls-124" d="M107.22,597.57c.68,10.72-7.31,13.4-15.07,14.23-3.52.37-4.78,2.26-7,3.58,0-4.39-.59-8.88.16-13.13s-.4-11,8.73-4.64c8.09,5.63,9.47-5,10.46-9.75,1.38-6.67.17-13.83.39-20.77.12-3.86-1.35-8.16,2.28-11.35C105.49,569.69,107.62,583.63,107.22,597.57Z"/><path class="cls-124" d="M50.31,610.41q-.23-4.17-.47-8.36a7.73,7.73,0,0,1,2.15,0c5.4,1.48,7.74-9.2,12.63-4.39,5.77,5.68,10.26,13,9.44,22.08-1.82-2.27-3.74-4.47-5.43-6.83-2.2-3.07-3.3-8.48-8.23-2C57.47,614.77,53.75,610,50.31,610.41Z"/><path class="cls-124" d="M85.08,617.54c0,.72.06,1.44,0,2.15-.25,4.6-.65,11.66-4.63,11.76-5.64.15-6.16-6.61-6.41-11.7C78.55,623.1,82.08,621.65,85.08,617.54Z"/><path class="cls-127" d="M138.38,617.49l-2.52-8.78c-1.75-2.09-2-4.26-.34-6.53l.92-.09c6.31,4.17,7.55,10.75,8.38,17.54l-.19.16C141.71,621.32,140.08,619.3,138.38,617.49Z"/><path class="cls-126" d="M113.65,600c-3-6.46-2-13.29-1.82-20C115,586.43,113.76,593.29,113.65,600Z"/><path class="cls-128" d="M568.37,688.21c2.72,1.6,3.37,4.58,4.67,7.11.86,1.68,1.35,3.47-.53,4.8s-3.46.65-4.83-.75c-4.7-4.81-8.68-6.82-15.64-2-3.52,2.44-8.42-3.9-12.2-7.11,7.69-1.08,15.37-5.71,22.91,1.32C564.88,693.57,567.18,690.6,568.37,688.21Z"/><path class="cls-129" d="M601.42,657.47q-2.16-4.5-4.3-9c2.38-2.49,5.3-4.72,4.41-8.85,1.57,3.13,2.91,6.41,4.77,9.35C610.18,655.14,606.53,656.65,601.42,657.47Z"/><path class="cls-54" d="M566.26,663.87c-10.48,1.43-2.16,9.1-4.41,13.26-2.85-2-3.81-5.15-4.55-8.3-.84-3.58-4.7-8.05,0-10.57C561.74,655.91,564.09,660.6,566.26,663.87Z"/><path class="cls-128" d="M566.31,685.92l2.09,2.29Z"/><path class="cls-48" d="M769.85,534l6.09-.38C774.05,536,772.07,536.93,769.85,534Z"/><path class="cls-74" d="M210.82,151.79c1.91-2.23,4.52-2.09,7.08-2.08,29.19.11,58.43-1.56,87.52,2.25,1.67.22,3.23,1.35,4.84,2C277.16,150.91,244,152.16,210.82,151.79Z"/><path class="cls-74" d="M283.43,160.92c7.79-4.87,16.12-1.48,24.26,0H283.43Z"/><path class="cls-74" d="M310.24,154c5.15.75,10.78-1.82,15.46,2.23C320.55,155.45,314.88,158.34,310.24,154Z"/><path class="cls-96" d="M257.26,72.4c-2.52,4.77-3.65,9.09,3.4,10.9,2.28.59,5.9-1.08,6.51,2.34s-2.63,4.87-5.1,6.36c-1.56.93-3.28,1.59-4.92,2.38.23-3.67-.48-6.62-5.07-6.5-6.13.15-10.32-4.5-17.93-5.43C242,75.43,250,74.86,257.26,72.4Z"/><path class="cls-129" d="M603.53,662.13,602,659.46Z"/><path class="cls-42" d="M138.38,617.49l6.25,2.3a6.86,6.86,0,0,0,.12,2.19c2.05,5.18,3.29,13.26,10.11,11.67s5.59-8.86,4-15c-1-3.81-.94-8-.78-12,.14-3.47-1.89-8,1.87-10.16,4.31-2.45,4.94,3,7.22,4.85,2.76,2.24,6,1.7,5.54-1.28-2.13-14.25,12.15-8.13,16.93-13.91,1.81-2.19,3.35-.91,3.77-4.29,6.36,27.06,12.78,54.11,19,81.2,1.83,7.91-1.74,12.37-9.51,14.24-25.37,6.12-47.11-5-56.12-29.29C143.15,638.16,138.64,628.39,138.38,617.49Z"/><path class="cls-130" d="M135.52,602.18c.11,2.17.23,4.35.34,6.53h-2.33c-2.45-1.77-2.41-4.36-1.49-6.64C132.74,600.31,134.34,601.68,135.52,602.18Z"/></g></g></svg>