<svg xmlns="http://www.w3.org/2000/svg" viewBox="0 0 936.45 979.5"><defs><style>.cls-1{fill:#cec39f;}.cls-2{fill:#210f0c;}.cls-3{fill:#38231f;}.cls-4{fill:#221c1c;}.cls-5{fill:#24120e;}.cls-6{fill:#413b38;}.cls-7{fill:#282622;}.cls-8{fill:#291d19;}.cls-9{fill:#3b3833;}.cls-10{fill:#a9878b;}.cls-11{fill:#2a2520;}.cls-12{fill:#2b2622;}.cls-13{fill:#353029;}.cls-14{fill:#342e25;}.cls-15{fill:#4b332e;}.cls-16{fill:#2d241a;}.cls-17{fill:#252420;}.cls-18{fill:#322c23;}.cls-19{fill:#171613;}.cls-20{fill:#2f2d29;}.cls-21{fill:#3f2b26;}.cls-22{fill:#472f2a;}.cls-23{fill:#4a4842;}.cls-24{fill:#322c27;}.cls-25{fill:#383530;}.cls-26{fill:#504e46;}.cls-27{fill:#2f2e2a;}.cls-28{fill:#38322a;}.cls-29{fill:#38342d;}.cls-30{fill:#312f28;}.cls-31{fill:#2f2d2a;}.cls-32{fill:#42403b;}.cls-33{fill:#312927;}.cls-34{fill:#2e2c28;}.cls-35{fill:#695e49;}.cls-36{fill:#1c1a16;}.cls-37{fill:#1d1b18;}.cls-38{fill:#65645e;}.cls-39{fill:#38332a;}.cls-40{fill:#4b4841;}.cls-41{fill:#22201e;}.cls-42{fill:#5f564b;}.cls-43{fill:#1b1512;}.cls-44{fill:#615e54;}.cls-45{fill:#4d4b45;}.cls-46{fill:#4f4c48;}.cls-47{fill:#393831;}.cls-48{fill:#605d56;}.cls-49{fill:#705f61;}.cls-50{fill:#5d4238;}.cls-51{fill:#827679;}.cls-52{fill:#282119;}.cls-53{fill:#373633;}.cls-54{fill:#443e36;}.cls-55{fill:#685f61;}.cls-56{fill:#1d1a1b;}.cls-57{fill:#e99881;}.cls-58{fill:#cd5a40;}.cls-59{fill:#b69158;}.cls-60{fill:#ede2b7;}.cls-61{fill:#201816;}.cls-62{fill:#1f1716;}.cls-63{fill:#e99780;}.cls-64{fill:#1f1918;}.cls-65{fill:#27211e;}.cls-66{fill:#1d1913;}.cls-67{fill:#3c3125;}.cls-68{fill:#362b29;}.cls-69{fill:#ae8a8e;}.cls-70{fill:#987c56;}.cls-71{fill:#e06849;}.cls-72{fill:#e0684a;}.cls-73{fill:#ea9780;}.cls-74{fill:#cf5a41;}.cls-75{fill:#b38e93;}.cls-76{fill:#b38d92;}.cls-77{fill:#e8bac6;}.cls-78{fill:#ccc19c;}.cls-79{fill:#af8a8e;}.cls-80{fill:#cdc29c;}.cls-81{fill:#e2d4a9;}.cls-82{fill:#ddd2aa;}.cls-83{fill:#eee2b6;}.cls-84{fill:#4e493b;}.cls-85{fill:#f5c979;}.cls-86{fill:#d55e43;}.cls-87{fill:#edc0cd;}.cls-88{fill:#e3d9b1;}.cls-89{fill:#110e0d;}.cls-90{fill:#c4a46f;}.cls-91{fill:#4d3425;}.cls-92{fill:#c2a26d;}.cls-93{fill:#4a3a27;}.cls-94{fill:#cbc19c;}.cls-95{fill:#cd674f;}.cls-96{fill:#dddee9;}.cls-97{fill:#b5a989;}.cls-98{fill:#cbc09b;}.cls-99{fill:#9b947f;}.cls-100{fill:#705c47;}.cls-101{fill:#9c947f;}.cls-102{fill:#9f9881;}.cls-103{fill:#b38e56;}.cls-104{fill:#ada790;}.cls-105{fill:#4c4233;}.cls-106{fill:#9c9580;}.cls-107{fill:#8d714c;}.cls-108{fill:#bb965e;}.cls-109{fill:#c9be9a;}.cls-110{fill:#b2a88a;}.cls-111{fill:#e46a4b;}.cls-112{fill:#f39c82;}.cls-113{fill:#f8dcaa;}.cls-114{fill:#c5a570;}.cls-115{fill:#403a30;}.cls-116{fill:#dcd1aa;}.cls-117{fill:#454033;}.cls-118{fill:#e5d9ae;}.cls-119{fill:#e0d2a8;}.cls-120{fill:#f4ecce;}.cls-121{fill:#ddd1a8;}.cls-122{fill:#eee3b8;}.cls-123{fill:#dbd0ab;}.cls-124{fill:#1e1c17;}.cls-125{fill:#f9e9c7;}.cls-126{fill:#13120f;}.cls-127{fill:#e3d7ad;}.cls-128{fill:#615b4a;}.cls-129{fill:#23201a;}.cls-130{fill:#92754e;}.cls-131{fill:#d5c9a3;}.cls-132{fill:#efe2b6;}.cls-133{fill:#161511;}.cls-134{fill:#eecc7a;}.cls-135{fill:#d28473;}.cls-136{fill:#f5cf82;}.cls-137{fill:#5b482a;}.cls-138{fill:#d2c59f;}.cls-139{fill:#312c22;}.cls-140{fill:#585142;}.cls-141{fill:#edbecb;}.cls-142{fill:#ebbcc9;}.cls-143{fill:#2d2123;}.cls-144{fill:#4c393c;}.cls-145{fill:#171310;}.cls-146{fill:#f7f7f8;}.cls-147{fill:#221f19;}.cls-148{fill:#28251e;}.cls-149{fill:#1a1813;}.cls-150{fill:#403b30;}.cls-151{fill:#211e18;}.cls-152{fill:#403c31;}.cls-153{fill:#27241e;}.cls-154{fill:#1c1a15;}.cls-155{fill:#211f1a;}.cls-156{fill:#555042;}.cls-157{fill:#564f40;}.cls-158{fill:#958b70;}.cls-159{fill:#181612;}.cls-160{fill:#57301f;}.cls-161{fill:#74553a;}.cls-162{fill:#7f673d;}.cls-163{fill:#fae7c2;}.cls-164{fill:#947746;}.cls-165{fill:#ea9881;}.cls-166{fill:#1a120e;}.cls-167{fill:#412b29;}.cls-168{fill:#cfd0db;}.cls-169{fill:#babbbb;}.cls-170{fill:#836948;}.cls-171{fill:#96774d;}.cls-172{fill:#2d261e;}.cls-173{fill:#c7ae86;}.cls-174{fill:#2c2116;}.cls-175{fill:#4f4a43;}.cls-176{fill:#e0d3ac;}.cls-177{fill:#5c5546;}.cls-178{fill:#564244;}.cls-179{fill:#363232;}.cls-180{fill:#dad0a9;}.cls-181{fill:#474236;}.cls-182{fill:#39342a;}.cls-183{fill:#d8cda9;}.cls-184{fill:#dbd0a9;}.cls-185{fill:#d8cea8;}.cls-186{fill:#271410;}.cls-187{fill:#b38f57;}.cls-188{fill:#6c6452;}</style></defs><title>Recurso 5</title><g id="Capa_2" data-name="Capa 2"><g id="Capa_1-2" data-name="Capa 1"><path class="cls-1" d="M612.63,823.2c-1.91,2.07-4.28,2.24-6.82,1.61-4.48-2.54-9.19-.62-13.19.53-21.55,6.16-43.94,5.26-65.79,8.63-5,.77-9.48,2.28-13.37,5.47-2.59,1.54-6,4.06-8.27,2-4.76-4.33-8.54-4.13-13.72-.82-3.63,2.32-7.13-.45-7.34-4.26-.49-9.24-6.54-15.82-10.11-23.59-4-8.68-3-17.74-2.13-26.79a38.91,38.91,0,0,1,1.38-5.11c5.62-20.53,16.81-37.64,32.59-51.66,8.55-7.6,14.49-16.14,14.24-28.05,3.85-27.5,10.16-54.35,20.67-80.11,1.65-4,2.33-8.9,7.6-10.29,7.08,4.37,7.68,11.59,8.16,18.81,2,29.89,10.46,58,28.43,81.77,6.64,8.76,8.26,16.59,8.11,26-.07,5.14-2.43,8.15-7.85,4.06a17,17,0,0,1-2.74-3.58c-.82-1.37-1.08-3-1.93-4.33a1.78,1.78,0,0,0-1.88.86c-7.8,7.4-8-.69-10-5-3.87,1.71-6.29,5.78-11.92,4.55-5.3-1.16-8.18,4.3-11,8.15-4.93,6.65-7.82,14.55-12.75,21.22-7.13,9.64-13.9,19.49-23.41,27.17-4.13,3.33-9.45,8-1.33,13.23,20.58,5.32,40.4,17.55,62.68,6.32,4.43-2.24,9.6-1.62,14.37-2.81,14.25-3.53,18.29-8.16,19.74-23.38.84-5.81-3.43-11.59-.14-17.41,4.39-3.3,8.92-1.43,12.68.64,19.89,11,41.37,12.34,63.29,11.07,6.45-.38,10.29,1.43,10.08,8.52-1.13,5.63-6,7.41-10.25,9.62-21.12,10.87-43,19.82-66.27,24.89C613.25,821.4,612.26,821.72,612.63,823.2Z"/><path class="cls-2" d="M476.7,813.56c3.49,6.54,10.7,11.26,9.56,20.11-.21,1.66.26,4.17,1.39,5.07,2.3,1.83,3.9-.85,5.66-2l7.87-5.19c5.71-.19-.32,13.17,9.33,7a1.8,1.8,0,0,1,2.77,0c-4.81,11.71-14.63,20.22-20,31.67-2.84,6-7,11.5-9.95,17.54C469.44,909,457.35,931.38,444,953c-2.89,4.6-6.47,8.79-9.21,14,6.59,1.66,13-.48,18.91,1.65,1.54.78,2.74,1.76,2.36,3.74-10.65,3.07-21.45,2.22-32.25,1.19l-1.57-.26-.8-1.37c2.32-8.33,9.14-13.92,12.88-21.39,14.5-21.82,26.77-45,40.24-67.4a226.7,226.7,0,0,0,23.09-40.4c-4.87.89-7.8,3.86-11.39,4.86-5,1.37-7-.91-7.29-6.52-14.29,14.4-28.05,28.09-41.69,41.9-9.33,7.76-15.42,18.51-24.42,26.56-3.29,2.94-5.86,7.09-11.08,7a6,6,0,0,1-3.67-5.09c1.08-7.72,8.6-9.7,13-14.44,5.29-5.71,11-11,16.39-16.63,14-12.48,24.27-28.56,39.05-40.3,10.78-8.56,6.73-18.37,1.75-28.08a6,6,0,0,1,1-3C473.7,807.32,474.4,811.76,476.7,813.56Z"/><path class="cls-3" d="M443.37,784.82l6-.38c1.76.75,3.17,1.7,2.3,4-13.05,6.08-27.44,7.48-41.06,11.68-24.9,7.7-49.33,16.61-73.41,26.5-43.58,18.51-84.88,41.59-126.68,63.64-4.12,2.57-8.21,5.18-12.19,8-8.51,6-8.73,8.2-.39,14.9,14.3,11.49,30.82,18,48.84,21a8.74,8.74,0,0,1,2.84,1.47,3.3,3.3,0,0,1,.47,3c-23.79,1.81-43.22-8.6-60.6-23-9.63-8-8.94-13.68,1.61-20.15,57-34.92,116.06-65.54,178.85-88.69a552.84,552.84,0,0,1,71.32-21.43A2.81,2.81,0,0,0,443.37,784.82Z"/><path class="cls-4" d="M612.63,823.2c-2.49-.91-6.76-1.23-.26-3.32,13.14-4.23,26.17-8.83,39.13-13.58,13.65-5,26.9-10.9,38.64-19.71,6.78-7.69,14.8-13.3,25.16-15,1.68.78,2.84,1.83,2,3.9q-1.53,6.4-3.07,12.82c-2.89.83-3.43-2.36-5.4-3.1-10.81,2.7-17,10.32-22,19.66-4.73,9-7.92,18.83-15.11,26.29a22.9,22.9,0,0,0,14.84-3.4c6.59-3.84,6.6-10.92,8.38-17.12,3.74-7.72,2.09-18.36,12.22-22.59a4.39,4.39,0,0,1,2.18,2.29c1.27,9.88-6.33,18.07-5.74,28.11,5.73-1.2,5.56-5.76,6.44-9.65.73-2,1.17-4.39,4.19-4.05,1.69,19.38-.27,16.34-14.73,25.67-19.1,12.34-36.82,2.48-55,3.35-1.42-1.07-3.26-.81-4.81-1.47l-2-.69c.34-5.91,5.16-4.25,8.38-4.66,4.09-.51,8.3-.22,11.05-4.14a5.54,5.54,0,0,1,2.74-1.4c5.74,1.18,9.28-1.36,11.51-6.53,1.77-4.14,4.27-7.94,6.22-13.15-11.48,6.45-22.94,11-34.59,15-3.63,1.25-7,2.89-8.1,7.1-1.29,5-4.53,5.38-8.65,3.67a9.29,9.29,0,0,1-2.09-.53,1.42,1.42,0,0,1-1-1.76,1.29,1.29,0,0,0-.56-1.76c-1.08-.05-2.17.1-3.08-.64Z"/><path class="cls-5" d="M452.11,786.73l-2.71-2.29,9.27-2.57c1.61-1.56.19-6.9,5.22-4.22,5.13,8.75,6.07,18.59,7.4,28.34a5.71,5.71,0,0,1-1.45,3.13l-.15,2.33c-4.63.5-8.32,2.81-12.09,5.47-24.89,17.6-51,33.41-76,50.89-30.38,21-63.75,36.86-94.89,56.52-6.39,3.09-12.84,6.06-19.09,9.44-10.6,5.76-10.66,8.35-.06,14.85a122.17,122.17,0,0,0,23.2,11.12c3.77,1.34,8.15,2.08,9.49,6.89-.51,1.85-1.43,2.94-3.5,1.85-16.6-6.2-34.34-10.41-45.57-26.05-.67-2,.3-4.48-1.57-6.21l.15.17c-.24-6,5.13-6.4,8.63-8.48,4.76-2.83,10.35-4,15-7.1,33.7-20,68.5-38,101.44-59.32,25-16.79,50.32-33.11,75.18-50.13C464.24,801.67,464.53,798.72,452.11,786.73Z"/><path class="cls-6" d="M936.45,450.17c-2,6.91-6.53,12.15-12.14,16.11-5.2,3.68-6.12-2.31-7.85-4.94-3-4.63-5-5.94-8.31-.06a36.16,36.16,0,0,1-14.25,14.14c-40,21.74-60.47,58.83-76.75,99-3.93,9.72-6.41,20-9.56,30.08a2.25,2.25,0,0,1-2.93-.19c-2.74-4.41-.91-8.72.31-13a243.84,243.84,0,0,1,53.86-97.79c2.58-2.87,6.93-5.25,4.45-10.41a10.8,10.8,0,0,1-.46-3.24,6.39,6.39,0,0,1,1.24-3,6.64,6.64,0,0,1,3.09-.77c13.81,2,23.68-4.91,32.3-14.52,3.79-5.85-1-6.22-4.57-6.78-15.4-2.38-30.81-4.77-46.5-3.3-2.69-1.8-9.55-.89-4.93-7.5,26.38-4.29,52.24-4.41,75.91,10.56,4.68,3,6.8,0,9.35-2.83C931,449.83,933.25,447.52,936.45,450.17Z"/><path class="cls-7" d="M114.18,206.36l17.79,2.3c-16.76-8.52-31.51-16.12-46.34-23.52-19.82-9.9-34.14-25.58-46.21-43.66a23.73,23.73,0,0,1-2.9-6.1c-4.4-14.22-1-18.2,13.7-15.84,4,.65,8,1.81,12,2.74a5.61,5.61,0,0,1-2.88,3.82,15.85,15.85,0,0,1-2.13.65c-4.54,1.3-10.85-4.12-13.46,1.2s2.48,10.54,5.46,15.12c14,21.48,34.26,35.2,57.12,45.58,1.43.7,2.84,1.44,4.26,2.15,1,.42,2,.91,2.92,1.4,22.75,10.69,45.79,20.73,68.82,30.79,6.76,3.82,16,3.14,20.42,11.21-.11,2-1.36,3.11-3.16,3.72-9,.61-16.48-4.27-24.25-7.57-11-4.68-22-9.17-33.64-12-11.35-4.69-24.42-3-35.26-9.57C107.76,204,111.22,206,114.18,206.36Z"/><path class="cls-8" d="M864.35,477.27l0,2.46c-5,1-7.4-2.92-10.16-5.82-3.38-3.57-5.31-8.32-8.44-12-10.19-12-9.33-22.93,1.8-33.54a24.93,24.93,0,0,1,2-2.45,28.16,28.16,0,0,1,2.17-2.2c2.62-2.38,5.09-4.91,7.51-7.51,1.9-2.49,5.87-4.48,3.85-8.21-2.33-4.31-6.4-1.78-9.83-1.2-5.12.73-10.23,1.3-15.15-.92a3.55,3.55,0,0,1-1.63-2.72c2.36-4.12,6.94-4.48,10.65-6.27,1.28-.41,2.26,1.93,3.13.79.38-.49-2-1.63-2.29-3.17.68-2.43,2.57-3,4.75-3.14,7,.5,11.33,6.47,18.17,9-5-13.25-16.55-21.61-21.25-34.18a3.45,3.45,0,0,1,2.95-3.3c5,1.44,7.76,5.57,10.92,9.21,6.21,8.89,11.07,18.78,19.45,26a23.51,23.51,0,0,0,5.31,1.83c6.48-.84,8.91-7.06,13.61-10.23,1.75-1.26,3.55-2.34,5.84-1.49a5.38,5.38,0,0,1,1.09,4.55,14.82,14.82,0,0,1-1.93,4.38c-1.26,2.58-4.11,3.74-5.8,6.27,4.4-2.69,6.79-7,10.08-10.4a2.5,2.5,0,0,1,2.88.08c3.77,8.21-3,11.21-7.74,14.61-5.62,4-3.41,6.07,1.13,8.22.68,2-.49,2.88-2,3.57-5.39,1-8.79-2.9-12.84-5.21s-7.5-6.21-12.9-4.92a28.86,28.86,0,0,0-2.55,1.41c-.38.33-.78.61-1.17.93-12,10.09-21.15,22.89-32.36,33.72-.55,3.93,4.69,1.46,5,4.5C853.83,459,861.7,466.64,864.35,477.27Z"/><path class="cls-9" d="M673.49,82.5c-2.65-26.64-5.9-53.12,11.86-76.9,6.31-8.44,9.71-6.7,13.26.94,11.55,24.9,19.92,50.91,26.29,77.58,2.53,10.61,5,21.23,7.47,31.84-.64,1.73-1.54,3.11-3.71,2.81a5.89,5.89,0,0,1-2.36-2.51c-5.95-18.74-8.86-38.34-15.86-56.78-3.61-14.28-9.38-27.86-13.87-41.86-.79-2.46-1.38-5.79-4.28-6.18-3.61-.49-4.95,3-6.15,5.67-7.08,15.55-7.61,32.11-7.08,48.8a34.36,34.36,0,0,1-.93,7C676.87,76.24,676.9,80.21,673.49,82.5Z"/><path class="cls-10" d="M626.21,827.49c2-1.45,7.32,1.31,6.27-1.77-3.49-10.19,5-9.54,9.6-11.35,13.36-5.24,26.67-10.51,41.66-19.08-5.12,10.71-8.86,19.42-13.37,27.72-3.87,7.1-8.23.67-12.35-.32l.13-.14c3,5.31-.73,5.9-4.57,7-5.24,1.5-11.06-1.89-15.93,2.09C634.07,829.6,629.27,831,626.21,827.49Z"/><path class="cls-11" d="M648.48,228.79c10.44-19.74-.2-39.24-.76-58.84-.15-5.58-1-11.14-1.47-16.7-1-2.16,0-3.29,2-3.79,8.41,9.77,6.08,22.25,7.62,33.5,3.14,22.95,9.88,44.78,17.34,68.42,3.15-7.37,4.15-13.79,7.17-19.26,2-3.69,3.37-10.45,10.3-5.31-.19,9.38-6.07,16.94-8.18,25.75-2,8.17-4.18,16.06-.9,24.44,2.31,5.9,1.54,10.87-4.93,14.29-4.7,2.47-5.4,7.92-7,12.58-.69,2.06-1.11,5-3.81,4.91-3.48-.13-3.26-3.51-3.82-6-.25-4.24.47-8.65,3.05-11.75,8-9.6,5.53-19.17,1.66-29.44-4.09-10.85-7.77-21.88-10.84-33.14-2.57,4.78.5,12.22-6.75,14.9C646.53,238.62,647.87,233.68,648.48,228.79Z"/><path class="cls-12" d="M743.72,197.77c2.14,16.72,1.26,32.91-5.49,48.82a129.33,129.33,0,0,0-9.63,62.1,4.61,4.61,0,0,1-.6,5.8c-7.91,4.16-16.44,2-24.72,2.49-8.37-1.85-18,3.36-25.31-4.44,4.5-6.78,11.55-4.21,17.53-4.32,22.74-.44,22.85-.23,25.77-22.71,2.27-17.45,8.53-34.72,2.8-52.6-1.09-10.13-6.72-19.39-5.79-29.91a3,3,0,0,1,2.87-1.52c12.08,9.69,10,24.48,13.63,35.27a70.62,70.62,0,0,1,2-11c2.46-6.83,1.81-14,2.16-21C739.67,201.79,739.37,198.17,743.72,197.77Z"/><path class="cls-13" d="M678.45,311.7c8.22,4.16,17.13.46,25.55,2.27-1.39,4.67-5.47,4.76-9.11,4.95A290.38,290.38,0,0,1,575.71,300.2a6.77,6.77,0,0,1-2.33-3.1c.12-3,2.16-2.66,4.16-2.4,22.42,5.73,44.65,12.35,69.21,15.83-5.46-13.15,1.8-22.89,6.51-33.26a2.64,2.64,0,0,1,3.3.21c4.86,7.3,5.19,15.74,6,24,.72,4.66.68,9.81,8.18,7.39A6.67,6.67,0,0,1,678.45,311.7Z"/><path class="cls-14" d="M460.21,735.64a441.91,441.91,0,0,1,42-153.6c1.71-3.58,5.25-6.75,3.35-11.44,4.23-1.52,4.82,1.82,5.94,4.46-4.66,14-10.82,27.43-16.8,40.92a530.35,530.35,0,0,0-25.18,96.16c-1.95,8.45-1,17.24-3.05,25.68-.87,3.59-.48,7.59-3.76,10.28C456.57,745,460.35,739.94,460.21,735.64Z"/><path class="cls-11" d="M673.49,82.5c1.18-3.15-.45-6.92,2.16-9.74,3.57,2.5,3.29,6.43,3.7,10.09,2,17.46,4.51,34.84,8.63,51.93a307.46,307.46,0,0,0,14.79,60.05,21.74,21.74,0,0,1,1,7.52,22.74,22.74,0,0,1-.95,5.73c-3.67,9.4-3.27,19.18-2.7,29,.11,1.88.59,3.72.71,5.6.26,4.35,2.07,10.85-3.34,11.48-4.74.55-5.39-6.15-6.64-10.45-2.62-9,2.42-17.79.34-26.71,3.22-10.84,1.82-21.17-1.89-31.82-5.21-14.93-7.62-30.63-10.62-46.14-1.34-6.17-2.77-12.32-4.48-18.4-2.56-9.26-.34-19.89-8-27.68-1.21-1.24-2.2-2.56-1.43-4.44a8.7,8.7,0,0,1,6.52-2.29,3.84,3.84,0,0,0,2.23-3.06Z"/><path class="cls-15" d="M252,363.08A175.2,175.2,0,0,0,191,373c-12.33,4.26-23.31,10.37-35.21,21.3,7.11-19.74,19.27-30.4,34.9-37.47,8.53-3.86,16.92-8.36,26.44-9.58,2.4-.31,3.15-1.63,2.8-3.85a3.12,3.12,0,0,1,3.08-.28c2.27,2.12,6.2,3.51,3.51,7.86-10.74,3.74-22.06,5.91-32.05,11.72-5.81,2.39-10.95,5.93-16.22,9.23,4-2.79,8.61-4.09,13.14-5.59,2-.63,4-1.3,5.95-2.12A29.07,29.07,0,0,1,200.4,363c13-3.45,26.45-4.64,39.59-7.44C244.89,356.61,250.1,357.18,252,363.08Z"/><path class="cls-16" d="M454.39,228.53c3.36,21.77,21.06,26.89,38,32.89a2,2,0,0,1-.14,2.79c-7.52,2.42-13.42-3.3-20.85-4.06-.88,10.21,8.15,14.8,12.32,22a3,3,0,0,1-2,2.95c.05,0-.92.5-.92.5a10.3,10.3,0,0,0,.4,1.07,39.26,39.26,0,0,1,2.47,5.11c.5.85,1,1.72,1.53,2.56.33.38.62.79.95,1.17,5.37,5.67,10.69,11.36,16.91,16.13,2.89,2.21,6.28,4.26,5.61,8.82a5.34,5.34,0,0,1-2.79,1.35c-5.12-.23-8.59-3.37-11.94-6.46.28,3.11,4.45,6.74-.41,10a7.5,7.5,0,0,1-6.1-4.55c-14.19-28.77-29.66-57-36.74-88.72A5.23,5.23,0,0,1,454.39,228.53Z"/><path class="cls-17" d="M210.94,297.84c-48.95-12.1-87.69-39.41-117.88-79.45-1.26-2.32-1.2-4.26,1.56-5.4,10.64,8.24,19.27,18.59,28.64,28.13A173.76,173.76,0,0,0,180.48,280c11,5.41,24,6.15,33.43,15.09C214,297.18,213.28,298.41,210.94,297.84Z"/><path class="cls-18" d="M281.16,99.38c47.09,19.31,93.61,39.71,134.89,70.22,3.92,2.9,8.1,5.5,10.69,9.85a3.92,3.92,0,0,1-3.54,3.11c-13.29-6.34-23.61-17-36.12-24.66-30.58-18.72-63-33.35-95.84-47.41-4.15-1.78-8.35-3.43-11.66-6.68a4.58,4.58,0,0,1-1.08-3.11A2.2,2.2,0,0,1,281.16,99.38Z"/><path class="cls-19" d="M59.25,124.65l2.94-2.37,12.12,1.21L47.93,108.87c-.4-2.2,1-3.05,2.74-3.61,4.53-.6,7.77,2.34,11.4,4.19C88.51,123,115,136.37,143.31,145.75c6.14,3,13.76,2.91,18.47,8.88-.06,3-2.26,3.83-4.64,4.45-12.28-.33-23.31-5.34-34.18-10.15-14.76-6.55-30-11.62-45.29-16.56-1-.3-2.06-.68-3.06-1.07-3.4-1.51-7.22-1.33-10.7-2.54C61.92,127.89,60.1,126.82,59.25,124.65Z"/><path class="cls-20" d="M356.34,432.12c-30.26-2.12-56-14.82-79.17-33.73-10.7-8.75-11.6-13.31-4.6-21.74a2.5,2.5,0,0,1,2.87.9,10.48,10.48,0,0,1,.58,3.28c0,9.28,7.19,13.59,13.23,18.36,20.31,16,43.79,23.92,69.3,26.43,10.42.65,20.76,1.95,31.11,3.16,2.93.34,7.22.67,7.24,3.89,0,4.22-4.58,4-7.76,4.33-7,.67-14.17-.45-21.17.92a16.53,16.53,0,0,1-7.1.28,7,7,0,0,1-2.87-1.66C357.19,435.17,357.77,433.26,356.34,432.12Z"/><path class="cls-21" d="M296.79,968.48l2.74-2.1c4.07-3,8-.36,11.8.59,18.23,4.61,30-5.18,40.57-17.81,13.53-10.12,24.35-23.34,37.92-33.41,2.83-2.11,5-5.92,9.59-4.32l2.46,5.53c-1.06,10.19-8.7,15-16.18,20a3.3,3.3,0,0,1-2.77-.83c-1.44-6.86,4.86-8.57,8.13-12.27.13-.34,1.59,0,.52-1,.14.71-.23,1.14-1.14,1.32-6.24,3.81-8.7,11.7-15.77,14.57-8.77,7.63-17.61,15.18-26.28,22.92C330.06,978,319.3,979.46,296.79,968.48Z"/><path class="cls-22" d="M456.07,972.4l-2.63-2.27c.76-4.63,4.69-4.6,7.85-4.76,13.41-.68,21.78-7.11,24.43-20.51,7.39-20,14.53-40.05,20.42-60.54,4.16-8.1,3.15-18.09,9.26-25.48,2.23-.7,3.13.62,3.68,2.45a717.19,717.19,0,0,1-31.88,98.55C482,972.85,468.07,972.1,456.07,972.4Z"/><path class="cls-23" d="M717.29,775.51l-2.89-3c4.14-9.63,13.87-14.25,19.82-22.27,24-22.54,38.55-50.81,49.52-81.33,2.14-5.93,2.77-12.65,7.92-17.22a3.39,3.39,0,0,1,3.08.75c-7.84,36.23-24.94,67.75-49.32,95.29C736.7,757.58,726.71,766.28,717.29,775.51Z"/><path class="cls-24" d="M519.08,861.29l-2-2.62c-3-3.22-2-6.93-.8-10.33,1.43-4.22-.21-7.05-3.17-9.62l-2.64-.14c4.13-6.08,10-6.58,17-7.22,22.07-2,44.34-2.68,66-8.15,3.86-1,8.78-3.17,12.3,1.6-23.56,5.56-47.31,9.71-71.61,10.07-5.61.08-9.88,1.63-10.39,9C523.39,849.75,520.74,855.48,519.08,861.29Z"/><path class="cls-25" d="M358.56,434c0,.73.06,1.46,0,2.19-2.8,5.31-1.92,9.56,2.63,13.82,9.89,9.25,21.59,14.39,34.69,16.86,11.57.39,23.11,0,34.65.14a54.13,54.13,0,0,1,8.92.4c2.8.51,6.83.38,7,4,.21,3.93-4,3.74-6.69,4.24-4,.74-8.21-.16-12.13,1.41-7.63.41-15.06,4-22.89,1.57-2.82-.78-1.43-4.85-4.33-5.58-19.79.74-34.88-9.16-48.07-22.3-3.6-3.58-9.58-8.73-2.73-15.11,1.46-.4,3.06-.32,4.32-1.33l2.37-.43A1.43,1.43,0,0,1,358.56,434Z"/><path class="cls-26" d="M124.9,57.16l4.34.11c1.48.65,3.18.55,4.64,1.29,32.88,8.78,66.36,15.42,98.39,27.3a5.19,5.19,0,0,1-3.75,3.73c-8.07.18-15.24-3.55-22.79-5.52C180.4,77.46,155,71.21,129.67,64.5c-2.55-.68-5.15-1-7-3.21C121.73,59,123.05,57.94,124.9,57.16Z"/><path class="cls-27" d="M494.7,550c.76-.86,1.53-1.71,2.29-2.56.62-.43.84-.87.65-1.32s-.39-.68-.59-.68c-17.9.39-36.06,2.12-50.68-11.84-3.24-3.09-6.45-6.05-9-9.84-4.67-6.87-2.75-10,5-10.66a2.73,2.73,0,0,1,2.88.65,5.7,5.7,0,0,1,0,3.12c1.8,10.63,15.23,20.37,29.36,21.1,10.13.53,20.31-.54,30.44.62a8.93,8.93,0,0,1,2.8,1.34c2.59,4.81-3.31,5.49-4.16,8.64-1.49,2.15-3.09,4.13-5.94,4.44A3.66,3.66,0,0,1,494.7,550Z"/><path class="cls-28" d="M803.61,306.37c20.23,1.82,36.26,13.57,52.62,23.68,10.86,6.71,24.12,10.84,31,23.11a14.37,14.37,0,0,1,.5,3.25c-2.48,1.88-4.19,0-5.77-1.39-9.83-8.75-21.46-14.72-32.6-21.45-14-7.42-27.61-15.51-42.8-20.34-2.53-.8-4.94-1.9-6.26-4.47C800.53,306.74,801.28,305.46,803.61,306.37Z"/><path class="cls-29" d="M492.34,263.9c0-.83,0-1.65.05-2.48,24.09,7,46,19.53,69.48,27.91,4.21,1.5,8.34,3.21,12.51,4.82-.1.48-.2,1-.29,1.42s0,1,0,1.56c-6.2,3.41-11.43-.28-16.74-2.5-5.15-2.15-10.34-4.11-15.64-5.83-13.91-5.75-27.42-12.42-41.34-18.16C497.13,269.31,492.7,268.87,492.34,263.9Z"/><path class="cls-30" d="M50.47,106.61l-2.54,2.26c-20-9.28-36.58-22.29-45.65-43.16C-.17,60.07-2.19,54.23,4.84,50l1.1,1c2.34,6.54,3,13.62,6.55,19.76.48.85.91,1.73,1.35,2.61A26.46,26.46,0,0,0,16.39,77c7.65,8.91,17,15.7,26.82,22C46.15,100.88,50.47,101.78,50.47,106.61Z"/><path class="cls-31" d="M743.72,197.77c-2.26,2-1.65,4.79-2.09,7.29-4.83-1.23-5-5.43-5-9,.08-7.61-2-14.93-2.36-22.44-.61-15-3.33-29.66-5.37-44.45a19.52,19.52,0,0,1-.68-5.48,7.51,7.51,0,0,1,2-5l2.14-2.71C739.92,142.71,740.83,170.37,743.72,197.77Z"/><path class="cls-32" d="M444.74,515.54a15.14,15.14,0,0,0,0-1.65c1.23-4.35-2.9-2.89-4.5-4.17-14.54.91-26-5.82-36.66-14.68-8.27-6.9-9.2-13.52-3.09-22,2.72,0,3.37,1.8,3.49,4-.56,13.87,9.84,18.37,19.84,23,4.13,1.92,8.88,1.69,13.28,2.74,6.81,2.32,14.57-1.11,21,3.46,2.05,3.41-.75,6.19-1.19,9.3a6.32,6.32,0,0,1-2.61,2.08C450.74,518.55,447.33,518.86,444.74,515.54Z"/><path class="cls-33" d="M415.78,976.51c-18.23,3.32-36.67,3.28-55,2.67-10.49-.36-12-3.67-7-11.27l1.81.73c15.6,5.51,31.56,2.82,47.41,1.9,6.59-.39,13.3-2.82,19.23,2.21l-.17-.17a1.36,1.36,0,0,1,.56,1.83l-5.52,1.39Z"/><path class="cls-34" d="M664.77,88.5c.74.79,1.48,1.57,2.23,2.35a4.61,4.61,0,0,1-1.69,5.91c-11.21,8-12.72,20.21-14.41,32.39-2.48,5.53,1.09,10.95.34,16.45a6.31,6.31,0,0,1-2.52,4.37c-.83,1.09-1.65,2.19-2.47,3.28-2.91-19.66-6.86-39.46,8.26-56.51C657.48,93.39,660.05,89.63,664.77,88.5Z"/><path class="cls-35" d="M803.61,306.37,801,308.58c-2.52,3.49-6.38,3.87-10.06,3.78-18-.43-35.77,1.66-53.59,3.48-3.36.35-6.78.41-9.18-2.72l.45-4.43c18.72-1.41,37.43-3,56.16-4.11C791,304.21,797.56,303.38,803.61,306.37Z"/><path class="cls-36" d="M494.7,550l2.16,1.68c2,5.09,6,8.6,10,11.89,7.67,6.24,15.77,8.35,24.6,1.87a33.26,33.26,0,0,1,11-5.42,8.23,8.23,0,0,1,3,0,3.8,3.8,0,0,1,2.11,1.85,6.85,6.85,0,0,1-.68,4,12.54,12.54,0,0,1-1.28,2.25,11.67,11.67,0,0,1-1.85,1.66,26.08,26.08,0,0,0-2.67,2.59,4,4,0,0,1-2.26,1.16c-.92.05-1.83.06-2.75.1-8.16,2.85-15.91,10.84-24.94,2l-5.63-5a32,32,0,0,1-12.61-11.94C491,555.33,489.19,551.87,494.7,550Z"/><path class="cls-30" d="M4.84,50c1.58-4.08,5.3-4.46,8.85-5.14a41.13,41.13,0,0,0,8.8.55,131.38,131.38,0,0,1,39.33,5.86c2.84.87,5.85,1.34,7,4.72-1,2.78-3.27,4-5.91,4.67-16.72-1.51-33-6.56-50-5.67-3.59.19-6.36-1.92-8.11-5.16Z"/><path class="cls-37" d="M424.41,181.66l2.33-2.21a186.78,186.78,0,0,1,27.65,49.08c-.66,1.06-1.33,2.12-2,3.18-.77,0-1.77,0-2.11-.46C440.06,215.56,430,199.79,424.41,181.66Z"/><path class="cls-38" d="M283.93,371.11l-23.41-4.68c1.05-2.57,3.2-3.8,5.66-4.66,12.32-1.16,24,3,36,4.38a7.22,7.22,0,0,1,2.75,1.94c1.72,3.42,4.79,4,8.24,4.12s7.46-.35,9.77,3.48a3.14,3.14,0,0,1-1.63,2.91c-7.73,2.87-15.61,2-23.47.94a8.17,8.17,0,0,1-2.92-1.63C295,369.57,288.36,372.16,283.93,371.11Z"/><path class="cls-39" d="M229.42,88l2.85-2.14,28.79,7.5a3.62,3.62,0,0,1,1.34,2.15c.72,2.73,2.78,4.77,3.8,7.36s1.39,5.34-1.27,7.44c-6,2.65-11.66,1.38-17.27-1.17a5.36,5.36,0,0,1-3-4.06A5.44,5.44,0,0,1,247,102.8c1.84-1.2,4.36-.06,6-1.61C246.21,94.87,235.69,95.31,229.42,88Z"/><path class="cls-40" d="M21.37,47.31c-3,.46-5.88.78-7.68-2.44C33.53,39.71,53.22,43.16,72.91,46c4.48.64,8.93,1.39,13.4,2.08a2.76,2.76,0,0,1,0,3.38,6.84,6.84,0,0,1-4.78,2.51C65.76,52.7,50.62,47.53,34.76,47,30.27,46.82,25.81,45.87,21.37,47.31Z"/><path class="cls-41" d="M223,342.65l-3.07.72c-12.66-5.62-21.85-15.63-31.17-25.3-3.91-4.07-6.27-9.4-4.23-15.51,3.48-.75,4.16,2.33,5.76,4.17A82.53,82.53,0,0,0,216,334.13c2.76,1.85,5.75,3.52,7,6.95C223,341.6,223,342.12,223,342.65Z"/><path class="cls-42" d="M460.21,735.64c2,3.71-.65,8.34,2.35,11.84,6,9.95,5.82,19.94.16,30l-4.05,4.43C458.94,766.46,456.51,751,460.21,735.64Z"/><path class="cls-43" d="M265.48,363.84l-5,2.59L252,363.08l-11.27-6.21c-6,.35-11.08-1-13.62-7.24-1.75-2.1-5.36-3.1-4.06-7l.06-.25c7.28-1.52,11.23,4.64,16.65,7.37,5,2.5,9.89,5.07,15,7.34C258.42,359.13,263.19,359.5,265.48,363.84Z"/><path class="cls-44" d="M187.68,307l-3.14-4.43c4.32-5.05,10.22-1.79,15.29-2.93,3.66-.83,8,2.3,11.11-1.79l2.46-2.34c2.62-1.75,4.39-1,5.42,1.88,0,3.21-.84,6.07-3.36,8.25a14.82,14.82,0,0,1-7.19,1.9C201.4,307.69,194.51,308.21,187.68,307Z"/><path class="cls-45" d="M794.74,652.44l-2.47-.19c-3.49-7.25,1.67-13.62,2-20.49,3.78-9,2.65-20,10.88-27.22l2.4,0c-.07,2.23-.15,4.46-.22,6.69a4.59,4.59,0,0,0-1,2.27C801.9,626.29,800.57,640,794.74,652.44Z"/><path class="cls-46" d="M655.4,277.35c-.72,0-1.43,0-2.14-.08-4.81-15.84-8.61-31.78-4.78-48.48,1.59,4.58-1.28,9.86,2.19,14.15A41.62,41.62,0,0,1,655.4,277.35Z"/><path class="cls-47" d="M84.22,51.73l3-2.29a7.67,7.67,0,0,1,5.84,0l31.86,7.73-2.84,2.32C108.24,62.82,95.88,59,84.22,51.73Z"/><path class="cls-21" d="M358.16,963l18.55-22.15c1.32-2.53,2.52-5.19,6-5.27l1.58,1.4c.77,9.66-8.53,12.35-12.74,18.57-3.5,3-6.21,7-10.82,8.64A2.44,2.44,0,0,1,358.16,963Z"/><path class="cls-48" d="M95.22,213.71l-2.16,4.68c-5.44-9.25-1.55-13.19,7.9-13.85,4.51-.32,9-.36,13.22,1.82L107,208.53C104.13,212.65,99.33,212.39,95.22,213.71Z"/><path class="cls-49" d="M708.3,791.3c-.23-.76-.46-1.53-.68-2.29.13-3.25-.41-6.91,4.4-7.37.63,2.26,0,5,2.2,6.69v16.44l-1.94,4.34C702.53,805.07,711,796.94,708.3,791.3Z"/><path class="cls-50" d="M906.56,388.88l-3.39,2-1.33-.91c-3.09-6.21-6.12-12.45-6.43-19.59,1.29-2,2.82-3.38,5.4-2.25a10.78,10.78,0,0,1,4.87,6.39l-.2,1.12a6.9,6.9,0,0,0,.83,3.32,17.57,17.57,0,0,1,.78,2.32,23.8,23.8,0,0,0,1,3.7,6.32,6.32,0,0,1,.36,2.66A1.48,1.48,0,0,1,906.56,388.88Z"/><path class="cls-51" d="M936.45,450.17l-5.9,2.22-1.37-1a99.55,99.55,0,0,1-4.54-21.12,4.43,4.43,0,0,1,3.52-3.31C930.77,434.76,935.32,441.86,936.45,450.17Z"/><path class="cls-52" d="M900.81,368.11l-4.51,2.24a14.51,14.51,0,0,1-2.5-1c-1.74-.6-3.76-.19-5.32-1.46A16.84,16.84,0,0,1,885.6,361a4.5,4.5,0,0,1,1.44-4.19c.07-1.21.14-2.42.2-3.63C892,358,897.7,361.84,900.81,368.11Z"/><path class="cls-53" d="M295,375.15a12.15,12.15,0,0,1,0,1.81c-6.27,5.07-12.85,7.48-20.32,2.44,0-.78-.05-1.56-.08-2.34-.54-.51-.67-.91-.38-1.23a1.07,1.07,0,0,1,.76-.39l17.76-1A1.61,1.61,0,0,1,295,375.15Z"/><path class="cls-54" d="M261.07,95.37c0-.67,0-1.34,0-2L279.4,98.6l-.09,1.48q-.07.92-.06,1.83C271.08,105.62,265.78,101.34,261.07,95.37Z"/><path class="cls-50" d="M914,393.14a10.75,10.75,0,0,0-1.87.17c-3.87-.78-2.72-4.95-4.69-7l.06.12c-2-1.9-.19-5.12-2.35-7l.09.15a3.16,3.16,0,0,1-.1-4.53l.54-.55C910.46,379.82,912.62,386.3,914,393.14Z"/><path class="cls-55" d="M904.87,418.52l2.52-2.55c3.75,1.59,8.33.92,11.43,4.26a2,2,0,0,1-.31,3C913.32,423.52,907.74,425,904.87,418.52Z"/><path class="cls-56" d="M919,422.33a4.06,4.06,0,0,0-.2-2.1c4.85-.17,7.63,2.55,9.34,6.75l-2.38,2.33C921.89,428.58,919.53,426.35,919,422.33Z"/><path class="cls-10" d="M619.45,822.8l4.53-2a1.81,1.81,0,0,1,.56,1.89c-.2.62-.41.93-.61.93.06,1.13.13,2.26.19,3.38C621.44,826.83,620.19,825.1,619.45,822.8Z"/><path class="cls-57" d="M249.65,936.22c2.68,1.53,2.81,3.7,1.58,6.22-2.1-.79-.71-2.59-1.12-3.85C250,937.8,249.8,937,249.65,936.22Z"/><path class="cls-10" d="M639.64,832.32c2-.7,3.49.06,4.81,1.47C642.49,834.48,640.78,834.33,639.64,832.32Z"/><path class="cls-58" d="M443.37,784.82c-.47,1.21-1.21,1.2-2.09.46Z"/><path class="cls-59" d="M279.31,100.08a1.58,1.58,0,0,1,.08-1.49l1.78.79A4.3,4.3,0,0,1,279.31,100.08Z"/><path class="cls-9" d="M673.52,83.15a2.7,2.7,0,0,1-2.23,3.06Z"/><path class="cls-60" d="M806.36,613.47c.33-.76.67-1.51,1-2.27Z"/><path class="cls-61" d="M355.9,965.43l2.26-2.44.36.58c1,1.79-.11,2.42-1.6,2.82Z"/><path class="cls-62" d="M353.75,967.91c.72-.83,1.44-1.65,2.15-2.48l.35.37c.63,2.13-.07,2.92-2.24,2.26Z"/><path class="cls-63" d="M422.59,974.41c-.19-.61-.37-1.22-.56-1.83a6.34,6.34,0,0,1,1.8,1s-.27.94-.27.94Z"/><path class="cls-63" d="M415.78,976.51l.36-.88.94.16s-.38.88-.38.88Z"/><path class="cls-60" d="M805.19,604.54q-4.22,13.94-8.41,27.88c-6.57,11.13-12.15,22.86-19.44,33.55-3.08,4.51-6.7,11.2-12.94,8.69a17.42,17.42,0,0,1-10.88-17.11c.16-5.27,1.84-10.4,2.66-15.62.88-5.6-1.75-6.92-6.54-5.08a51.17,51.17,0,0,0-14.43,8.79c-5,4.15-10,5.75-14.39-.7-3-4.45-6.06-3.5-9.24-.32-14.45,14.46-26.31,31.09-38.82,47.14-4.83,6.2-2.58,11,4.71,11.39s8.26,4.28,7,9.73c-1.23,5.14-2.94,10-1.88,15.53,1,5.26-.65,12,9,9.21,3.6-1,6,2.44,6.35,6.35.19,2.27-.57,4.51-.59,6.76,0,3.66-1.9,8.55,1.79,10.51,4.13,2.21,6.41-2.8,8.88-5.23,7.47-7.32,17.37-10.53,26-15.94,2.45-1.54,5.84-3.64,8.17-.71,2.56,3.21-1.07,5.33-2.93,7.52-1.45,1.72-3.31,3.11-4,5.4-5.24,8.5-14,13.42-20.82,20.23l-24.26,14.08c-1.71-4.17-3-6.19-9.28-5.7-21.74,1.7-43.55,1.31-63.21-10.81-3.4-2.09-7.6-2.89-11.43-4.28-5.08-4.89-2.75-11.13-3-16.86-.16-4.37,1.76-8.82-1-14.12-3.62,3.54-5.26,8.08-8.32,11.44a18.61,18.61,0,0,1-2.37,2.41c-.46.35-.93.67-1.4,1a6.79,6.79,0,0,1-3.33,1c-3.5-1.29-3.77-4.23-3.75-7.34a6.07,6.07,0,0,1,2.57-4.54c1.77.11,4,5.2,4.57,1.44,1.09-6.89-.22-14.15-.53-21.26-5.54.36-5.67-5.13-8.44-7.51-7.36-6.35-10.14-14.83-12.95-23.21-6.52-19.5-16.61-38.25-14.62-59.8.6-6.51-4-11.31-4.71-17.29-3.46-9.49,3.6-15.54,7.36-22.68,4.2-5.15,9.7-8.7,15.21-12.24a7.38,7.38,0,0,1,3.24-.09c20.59,12.54,49.12-1.77,60.76-25.15,4-8,2.9-18,10.38-24.3,2.36.77,3.56,2.77,4.64,4.74,4.65,8.48,11.37,11.72,20.78,8.53,22.31-4.58,44.89-5,67.5-4.36,10.88.32,21.09.31,27.47-10.79a11.73,11.73,0,0,1,7.29-5.07c16.65,3.27,30.58-4.78,45-10.88,16.54-7,31.12-17.32,46-27.23,8.11,3.38,3.91,6.78.2,10.56a220.64,220.64,0,0,0-59.65,111.22A4.81,4.81,0,0,0,805.19,604.54Z"/><path class="cls-64" d="M608,784.08c-.93,16.27-6.85,23.78-22.31,26.08A83.55,83.55,0,0,0,564.11,816a26.44,26.44,0,0,1-3.2,1.13c-9.63,2.77-47.26-5.37-55.22-11.93-1.08-1.91.05-2.92,1.54-3.79,6.83,1.7,13.36,5.76,20.8,2.73a22.55,22.55,0,0,0,4-.94,21.7,21.7,0,0,0,2.24-1.42,13.35,13.35,0,0,0,2.33-3.45c3.79-10.25,6.33-21,11.17-30.79,1.49-3,3.5-7.2,7.08-6,4.17,1.41,2.24,5.93,1.17,8.9-3.95,11-6.53,22.47-11.63,33-2.88,5.93-.84,7.22,4.72,7.37,6.93.19,13.49-.74,19.42-4.55a32.4,32.4,0,0,0,3.62-2.51,33.55,33.55,0,0,0,3-3.08c1.24-1.5,2.24-3.29,4.37-3.76a3.68,3.68,0,0,1,2.58,1.43c2.81,5.81,7,4.33,11.3,2.14,5.26-3,6.2-8.7,8.45-13.58a8,8,0,0,1,3.2-3.37A2.65,2.65,0,0,1,608,784.08Z"/><path class="cls-65" d="M508.35,802.22l-2.66,3c-3.87-1.79-9.35-4.7-4.48-8.76,21.52-18,31.73-44.63,50.64-64.48,1.76-1.84,3-7.06,6.7-.24,1.89,3.52,4.29-2.86,6.77-4.28,1.84-1,2.65-3.72,5.69-3.69,2.35,3.35-.52,8,2.84,11.69,3.4-.49,3.48-3.89,4.71-6.29a2.27,2.27,0,0,1,2.94.49,16.09,16.09,0,0,1,.23,6.59c-1.64,4.26-3.56,9.35-8.65,9-4.9-.35-4.31-6.28-6.1-9.85-2,.1-2.76,2.74-4.36,2.78-13.18.35-17.42,10.5-22.76,19.91-6.46,11.41-12.8,23.1-24.1,30.71C510.88,792.07,510.85,797.77,508.35,802.22Z"/><path class="cls-66" d="M469.84,809.12l-.06-2.52c-4.59-27.91,5.91-50.7,24.51-70.35,9.79-10.35,20.9-19.53,22.61-35a5,5,0,0,1,3.6-4c3.26,1.15,2.33,3.63,1.9,5.95.18,11.28-4.44,19.94-13.08,27.27-16.05,13.61-27.93,30.22-33.37,51a19.81,19.81,0,0,1-1.21,2.85c-.41,9.85-2.38,19.81,2,29.34Z"/><path class="cls-67" d="M522.4,703.15l-2.46-5.35c-4.74-5.58-1.15-11.57-.56-17.28,1-9.41,5-18.12,7-27.32,5.24-15.71,9.61-31.76,16.62-46.84,3.13-6.73,5.11-14.35,12.34-18.37a3.46,3.46,0,0,1,3.29.83c-3.08,7.5-8.19,14.12-9.63,22.33-12.88,25.61-20.13,52.92-24.33,81.14C524.14,696,524.66,699.85,522.4,703.15Z"/><path class="cls-68" d="M580.87,736.31c0-2.23,0-4.47,0-6.7.85-.84,1.48-.75,1.84.44.16,2.11.33,4.23.49,6.35,1.93,1.92.23,4.9,2,6.88.87,2.1-1.74,5.56,2.46,6.37a7.53,7.53,0,0,0,2.17-2l.07-.1a4.47,4.47,0,0,0,1.76-2.17l11.24-18.73c7.73,13.27,1.16,26.59,3.35,39.15L608,784.08l-1.07,0-1.06,0a9.28,9.28,0,0,1-4.08-5.28,20.81,20.81,0,0,1-1-4.92c-1.17-10.1-3.51-20.22.65-30.36-1.33.65-1.45,1.88-2.1,2.73-4,5.23-7.91,14.26-15.09,10.37C577.64,753.07,577.11,744,580.87,736.31Z"/><path class="cls-69" d="M585.17,743.28a6.28,6.28,0,0,1-2-6.89l2.5,2.39Z"/><path class="cls-69" d="M582.69,730.05a7.72,7.72,0,0,0-1.84-.44l-2.29-.45C580.55,726.63,581.92,726.94,582.69,730.05Z"/><path class="cls-70" d="M474.74,784.22l1.21-2.85Z"/><path class="cls-71" d="M399.41,911.43l-45.15,38.83c-4.85,2.57-9.6,7-13.59-1.53-2.19-4.69-6.45-2.05-10-1.09-2.81.77-6.29,2.78-8.12-.57-1.64-3,1.42-5.44,3.22-7.78,2.47-3.22,6.39-5.26,8.07-10.12-8.06,1.28-14,6.05-20.75,9-4.53,2-10,5.39-12.29-2.9-.22-.78-.35-1.94-.91-1.8-9.37,2.44-10-6.52-14.13-10.82C312.2,904,341.62,890.54,368.66,873c4-2.62,8.38-4.79,12.58-7.18,6.16,2.12,13.05,5.08,18.88,3,14.39-5.1,20.53,5.67,28.76,12.88Q414.15,896.6,399.41,911.43Z"/><path class="cls-71" d="M369.78,954.35,384.27,937c6.43-6.18,12.63-12.56,17.6-20,13.38-9.7,20.09-25.89,34-35.06a27.77,27.77,0,0,0,16.28-2.23c4.88-2.38,9.73-7.15,13.19,2,.88,2.32,4-.23,6.16-.21s5.42-2,5.08,2.71c-12.77,23.27-25.86,46.35-40.71,68.37-5.39-1.17-10.27-.65-14.63,3.31-2.67,2.43-6,6.13-9.71,3.43-4.49-3.24-.65-7.43.51-11.15a5.15,5.15,0,0,0,.19-2.89c-6.13,4.5-13,7-19.29,11C385.63,960.84,377.23,958.83,369.78,954.35Z"/><path class="cls-58" d="M428.88,881.75c-5.34-2.55-12.91-2-14-10.45-.26-2-2.15-1.76-3.61-1.24-7.53,2.67-15.6.25-22.88,1.87-7.12,1.59-5.63-3.14-7.16-6.07,25.75-20.44,55-35.74,81.14-55.61,3.53-2.69,5.21-1.2,7.31,1.2,10.57,18.68,10.51,20.19-6.08,35.16C451.35,857.67,442.11,871.69,428.88,881.75Z"/><path class="cls-72" d="M508.56,884.43a384.66,384.66,0,0,1-20.9,61.08c-2.55,2.29-6,2.91-8.85,4.67-8.61,5.23-9.56,4.58-11.19-7.91-6.83,9.42-15,13.67-25.68,9.65,13.08-21.85,24.71-44.57,39.4-65.45,2-.9,4.94-.32,6.15-2.47C494.87,870.88,501.65,879.54,508.56,884.43Z"/><path class="cls-63" d="M369.78,954.35c3.73,2.49,6.87,1.91,9.85-1.48,1.4-1.59,4.63-3.77,5.36-.9,2.83,11.15,6.35,2.19,8.7.3,6.85-5.51,16.35-6,22.05-15.1,3.1,9.55-4.83,13.82-3.76,20.78,8.64.85,12.95-18.31,23.9-5.43L422.2,972.75c-19.48.73-39,1.55-58.46,2.14-4.66.14-10.45,1.09-9.73-6.83q2.72.47,2.24-2.26c1.86.39,2.34-.63,2.27-2.23C364,962.57,365.42,956.69,369.78,954.35Z"/><path class="cls-58" d="M476.59,884.15c-5.79-3.18-9.25,3.31-14,3.62-3.79-2.85.78-6.51-.73-9.12-2.81-1-3.89.86-5.47,1.68-6.58,3.4-13.07,9.23-20.51,1.57,13.6-17.54,31-31.32,45.76-48.53,2.32,5.29-2.5,8.93-.22,13.54,7.25-1.35,12.39-6.4,20.95-12.14C497,855.36,486.83,869.76,476.59,884.15Z"/><path class="cls-73" d="M441.94,951.92c8.49-2.92,19.53-.78,23.77-12.26.55-1.5,2.62-3.13,4.68-2.06s1.5,3.17,1.32,5c-.27,2.82-3,5.49-.33,8.89,6-.14,8.46-11,16.28-6-5,19.38-6.08,20.29-25.59,22.8-2.9.37-5.75,1.2-8.62,1.82H428.9Z"/><path class="cls-74" d="M508.56,884.43c-3.38-.47-7.92,6.56-10-3.19-1.52-7.13-4.89-1.09-6.65,1.69-2.6,4.13-4,11.44-10.58,3.54,9.81-16.44,16.73-34.83,31.81-47.75,7-1.28,9.83.42,6.58,8-1.57,3.68-1.78,7.95-2.61,11.95Q512.83,871.56,508.56,884.43Z"/><path class="cls-71" d="M376.57,863.21c-32.65,22-67.66,40.06-101.84,59.49-5.8-1.15-11.28-3.92-17.58-2.65-2.42.49-7-1.63-5-3.92,6.12-7.23,1.48-19.54,10.72-23.81-12.89,9.86-28.36.23-43.06,2.47-5.05.77-8.82-1.22-10.62-6.27,41.14-23.42,82.66-46.07,126.68-63.72,6.58-.18,13-.48,14.23,8.65.92,6.55,5.15,3.14,8.53,2.17,5.2-1.5,11.11-7.22,15.53-3s-2.74,9.13-3.78,14.06-4.64,10.28,4.06,11.95C376.23,859,377.18,861.05,376.57,863.21Z"/><path class="cls-58" d="M376.57,863.21c-.18-.33-.52-.65-.54-1-.38-6.69-17,5.5-10.58-9.16,2.5-5.75,2.19-12.76,7.78-17.13.37-.29.15-1.32.28-2.88-4.77,1.74-9.45,2.92-13.62,5.08-7.52,3.9-13.86,7.63-12.95-6.38.48-7.34-8.84-2.18-11.1-7A506.6,506.6,0,0,1,444.6,788.71c2.53-.53,5-1.32,7.51-2,9.23-1.41,9.75,6.34,12.26,11.85,2.81,6.16-2.6,7.95-6.08,10.28Q417.52,836.17,376.57,863.21Z"/><path class="cls-57" d="M209.16,888.52c6.12,7.15,14.56,2.65,21.71,3.64,11.39,1.58,23.62,4.45,35.15-3-9.41,7.2-1.69,21.26-15.41,28.08,10.35.77,19.51-4.62,24.12,5.49L249.8,936.39c-23.41-1.31-43.11-11.06-60.23-26.65-3.69-3.36-4.86-6.31.56-9.39C196.62,896.66,202.83,892.48,209.16,888.52Z"/><path class="cls-75" d="M712,781.64c-1.47,2.46-2.94,4.91-4.4,7.37-7.77,5.62-6.45,15.52-10.69,22.8-8.89,2.89-11.94,8.86-9.34,17.8-6.11,6.17-13.63,4.82-22.46,3.86,10.8-8.6,14.39-20.74,20-31.66C691.1,790.31,702.39,781.77,712,781.64Z"/><path class="cls-76" d="M708.3,791.3c4.56,5.21-.93,12.68,4,17.81,2.28,10.46-6.09,12.06-13.13,15.77C699.52,812.52,705.22,802.25,708.3,791.3Z"/><path class="cls-77" d="M687.59,829.61c-8.21-3.35-5.8-9-1.46-12.78,2.66-2.3,3.42-12.14,10.8-5C695.45,818.6,697.19,827.09,687.59,829.61Z"/><path class="cls-70" d="M529,652.22c-2.91,15.22-8.45,29.91-9.1,45.58-1,15.05-8.29,26.1-19.36,36.38-20,18.54-32.08,41.27-29,69.89.08.77-1.16,1.68-1.79,2.53q-3.52-14.58-7.06-29.16-.08-15-.16-30a244,244,0,0,1,4.62-36.54c3.47,2,2.85,6.91,6.7,9.37,6.06-6.19,8.38-15.32,16.52-19.47,1.94-1,2-4,1.85-6.28-1-21.51,12-40.35,11.74-61.73,0-1.88,1.44-3.43,3.27-4.3,11.41-.42,11.19,9.69,13.92,16.39C522.89,649.13,523.92,652.42,529,652.22Z"/><path class="cls-57" d="M285.8,922.6c5.69-.06,10.22.8,6.28,8.12,3.36,2.23,5.78-1.09,8.62-1,1.34,0,3.35.23,3.88,1.09,4.27,6.91,4.11,6.83,11.55,2.88,5.6-3,11.36-5.68,17.19-8.17,1.92-.82,4.65-1.27,5.94,1.26,1.06,2.08-.86,3.52-2.17,4.72-4.87,4.47-9.88,8.79-14.84,13.17l2.09,2.49c3.73-1.38,7.49-2.65,11.16-4.16,3.24-1.34,7.27-1,7.57,2.11.88,9.12,6.26,6.15,11.19,5.14-.95,1.15-1.94,2.27-2.82,3.46-13.82,18.6-31.73,20.29-51.91,12.66C286.86,960.59,273.61,956,262,948.1c-9.78-6.62-9.79-9.27.33-14.53C270,929.58,278,926.23,285.8,922.6Z"/><path class="cls-78" d="M864.59,481.63c-8.78,11.17-20.68,17.58-33.13,24a256,256,0,0,1-43.38,17.72c-4.87,1.47-10.34,4.71-12.39-3.63a4.25,4.25,0,0,1-.16-4.69c5.47-5,2.57-10.26.33-15.31a465.89,465.89,0,0,1-18-45.82c-1.64-7.15-7.16-14.87-2.11-21.55,9.24-12.22,19.56-23.69,34.71-29.3,10.43-3.87,21.4-3.17,32.1-4.67a14.72,14.72,0,0,1,5.17-.09c3.21.9,6.75,1.14,8.91,4.27a3.2,3.2,0,0,0,1.06,1.68c-4.67,5.39-11.49,1.58-17.29,4,6.83,4.65,14.07,7.64,21.42,10.43,4.22,1.61,8.76,3,9.07,8.71-13.24,20.6-13.27,20.63,1.91,40.5,3.36,4.4,6.08,9.5,11.54,11.89C864.38,480.37,864.47,481,864.59,481.63Z"/><path class="cls-79" d="M843.54,445.47c7.79-14.76,19.76-25.75,32.36-36.18a7.93,7.93,0,0,1,6.92,3.07c11.84,14.39,26.46,25.32,42.45,34.58a10.23,10.23,0,0,1,4.35,5l.93.46c-1.1,4.19-3.6,7.36-8,10.46-7.49-12.46-20-14.79-33.18-16.32C874.08,444.75,858.87,443.45,843.54,445.47Z"/><path class="cls-69" d="M864.35,477.27c-7.28-7.94-14.07-16.16-15.86-27.3,18.09-4.7,35.84.26,53.32,3.21,9.69,1.64,3.11,7.11-.83,10.46A98.37,98.37,0,0,1,878,477c-3.79,1.64-7.81,2.28-11.8.31l-.92.06Z"/><path class="cls-77" d="M866.19,477.29c13.45.19,22.82-10.06,34.79-13.65-6,9.56-16.06,12.84-25.87,16.32C871.82,481.14,868.46,480.54,866.19,477.29Z"/><path class="cls-80" d="M304.33,370.19a11.83,11.83,0,0,1-.66-1.61c-4.07-3.88.1-8.95-2.68-14-5.41-9.79-13.83-12.52-23.17-15.32-7.17-2.15-17.1-3.2-9.58-15.22,1.74-2.78-1.05-4.66-3.25-6.23-2.55-1.83-6.73-2.05-6.66-6.55a2.2,2.2,0,0,1,1.86-.86c1.16.23,1.25-.49.74-.39-5.57,1.11-10.64-.88-15.82-2.27-1.54-.39-3-.89-4.53-1.42s-3-1-4.62-1.28c-4.75-2.06-11.2-.62-14-6.75,2.22-3.51,3.19-6.82-1.13-9.65-2.2-1.45-4.36-3-6.5-4.52-14.84-10.63-14.66-12.75,2.63-21.43-3.5-3.79-8.34-4.81-12.17-7.3-3.48-2.27-7.87-4.37-7.4-9.11.49-4.93,5.24-5.84,9.31-6.86,5.18.1,9.2,4.29,15.65,4.43.29,0-1.43-2.26-1.1-.78.12.57-.22.83-.91.54C214,241,206.52,240.53,202,234.3l-20.51-9.24c-4.57-5.7-10.7-10.26-7.81-19.59,1.72-5.55-4.87-7.75-8.33-11-3-2.76-7.61-5.16-6-9.89,1.39-4,6.2-2.56,10.33-2.76-12.12-8.33-13.57-12.31-9-23.3,2-1,3.83-.92,5.45.74.77,5.52,4.18-.95,5.7,1.23,3.52.92,6.91,2.22,10.36,3.35-6.86-3.48-15.2-3.26-21.23-8.77l-18.52-6.94c-1.82-3.55-7.13-5.65-4.16-11.18,1.85-3.45-.92-5.28-3.11-7.54-7.8-8.08-17.68-14.17-23-24.67-2.24-4.42-7.36-4.84-11.63-6.28C71.16,88.62,41.19,81,11.22,73.3A37.69,37.69,0,0,1,4.71,49.84c8.46,4.47,17.65.57,26.36,2.36C42,54.44,53,56.51,63.9,58.65c11.32-2.95,21.72,1.83,31.88,5,38.44,11.89,77.59,21.56,115.08,36.45,2.43,1,5,1.68,6.95,3.63-.34,8.5-6.65,5.63-10.6,4.8-8.48-1.78-17-3.21-25.56-4.39-10.43-1.44-13.11.55-12.71,11.23.49,13.08,5.11,24.16,16.8,31.48A178.28,178.28,0,0,0,212,159.91c3.43,1.44,8.59,3.23,7.83,7-.95,4.73-6.14,2.22-9.71,2.36-4.91.19-12.7-3.23-10.61,7.31,3,16.62,11.63,28.91,27.28,36,9.53,4.33,18.58,9.7,28.43,13.39,3.43,1.29,7.15,2.54,8.69,6.53-1,3.49-4,3.82-6.85,4.33-3.81.36-7.68-.11-11.45.65-4.42,2.76-1.59,6.21-.39,8.93,7.28,16.58,17.15,30.8,34.1,39.2,14.22,7,28.72,13.33,43.38,19.32,2.61,1.06,6.78,1.92,6.07,5.58-.65,3.36-4.67,3.12-7.63,3.44a36.76,36.76,0,0,1-5.65.16c-5-.19-6.87,1.33-5,6.69,5.12,14.4,12.62,26.56,27.44,32.75,8,3.34,16,6.69,24.26,9.38,3.07,1.3,7.78,2.26,7.38,5.9-.63,5.82-7.68,2.94-11.61,6.57,6.87,14.52,17.58,25,32.53,31,8.77,3.52,18,5.54,27.22,7.56,6.32,2.14,13,2.81,19.31,5a3.7,3.7,0,0,1,1.67,2.62c-.38,1.72-1.68,2.48-3.13,3.05-1.66.67-3.52,1-4.4,2.89,5.12,15.91,16.83,24.64,31.92,29.71a23.83,23.83,0,0,0,7.82,1.14c3.38.08,6.79-.11,10.05,1.08a4.54,4.54,0,0,1,3,3.77c-3.39,9,4.83,21.05,17.17,25.48,4.78,1.72,9.7,1.22,14.55,1.81,2.26.28,4.92.45,5.88,2.74,1.19,2.87-1.57,3.88-3.47,4.81-5.36,2.62-3.3,6.22-1,9.29,5.59,7.57,12.29,13,22.68,12.62,5.65-.21,12.25-2.27,16.72,3.75a16.48,16.48,0,0,0,14.42,21c3.69.35,7.31-1.44,11-.28a4.42,4.42,0,0,1,1.9,2.27,6.51,6.51,0,0,1-.74,2.83c-.41.85-.84,1.71-1.2,2.58,2.52,9,8.83,8.64,15.86,6.45,5.35-1.31,9.53-5.19,14.74-6.76.84-.47,1.27.33,1.86.63.27-.77-.1-1.16-1.16-1.18a5.9,5.9,0,0,1-2.3-3.93c-.6-14.57,11.16-24.41,25.7-21.65,4.34.82,5.2,3.68,5,7.48-1.5,28.74-35.91,52.83-63,44.1-2.19-1.59-4.32-3.74-7.12-.9-2.4,2.16-4.45,5-8.3,4.26a51,51,0,0,1-13.91-3.45c-4.45-1.94-7.58-4.81-4.85-10.3a1,1,0,0,1,.12-1.14,4.2,4.2,0,0,0,1.79-2.36,14,14,0,0,0,1-2c-.52-3.29-2.15.12-3.1-.51-3.49,2.16-6.95,4.37-10.46,6.49a26.43,26.43,0,0,1-38.2-12.79c-.27-.66.88-1.9,1.37-2.87l4.7-3.7c4.38-4.25,10.06-5.14,15-7-2.1-1.56-5.56,3.43-8.29.13l-2.4-.56c-5.51-.76-10.9-1.92-16.62-1.2-6.3.78-13.13,1.68-14.12-8.08-.44-4.29-5.19-3.57-8.19-4.67-5.42-2-10.8-3.87-11.23-10.94a15.26,15.26,0,0,1,.7-1.73c11.51-5.47,23.24-1.71,35.11-1.26a139,139,0,0,0-21.19-1.37c-3.93-.05-8.36,1.36-11.47-2.59-7.46-3.9-16.13-.35-23.65-3.87,6.71-5.74,5.63-14.48-2.23-17.88-8.71-3.77-8.71-3.77-13.23-9.22,3.94-3.1,8.53-.72,12.46-1.63-1.88-.34-4.32.82-6-1.33l21.67-3.67c-20.62-2.83-38.43,2.16-55.69-2.65,2.86-4.83-3.68-13.86,8.13-15-8.06-2.92-15.93-3.08-21.21-8.92-1.81-2-5-4.61,0-6.73,1.53-.66,3.41,0,5.11-.36-1.49.16-3,0-4.48.13-5,.43-10.2,3.69-14.68-1.34,9.72-4.64,20.6,1.95,31.2-3.55-14-1.93-27.44-1.65-40.37-5.05,1.3-1.87,3.38-1.14,5.12-1.54-1.09.05-2.19.11-3.28.06-5.71-.28-9-3.48-6.84-8.8,2.44-6.13-.14-7.25-5.12-7.77a41.43,41.43,0,0,1-12-2.9c-5.53-2.37-8.09-6.92-3.76-11.52,7.35-7.79,3.38-11.16-3.95-14.31a8.08,8.08,0,0,1-4.06-3.77c.2-.58.41-1.16.61-1.73.2-.3.53-.89.6-.86,1.08.48,1.37-.59.78-.62C317.21,373.45,310.19,375.17,304.33,370.19Z"/><path class="cls-81" d="M161.23,159.45c-1.09,7.67-1.4,14.83,7.77,18.37,2.84,1.1,8.07,2.18,6.8,6.12-1.52,4.73-5.59.25-8.55.29-2.14,0-4.28,0-6.86,0,1.54,5.32,5.56,6.87,8.55,9.55,4.7,4.21,12.91,6.86,6.58,16.57-2.74,4.2,2.5,7.91,6.58,10.27,3.26,1.88,4.07,3.6-.63,4.44-23.86-9.61-47.58-19.51-70.2-31.86-6.24-8.34-16.53-15-9.4-28.26,2.91-5.4-3.13-7.12-6.69-8.33-11.41-3.89-20.76-10.64-29-19.21-3-3.08-6.22-6-2.28-10.56,4,0,8-.3,11.34,2.58l0,0c15.51,2.78,29.92,8.82,44.28,15a225.17,225.17,0,0,0,37,12.56C157.79,158.29,160.36,157.21,161.23,159.45Z"/><path class="cls-82" d="M206.6,241.18c-1.8,2.95-7.77,1.15-7.53,5.57.2,3.58,4.31,4.79,7.25,6.48,5.79,3.32,12.49,5.09,18.48,10.75-7.24,2.17-14,3.72-19.62,8.66,5.35,6.39,12.51,10.34,19.23,14.89,2.46,1.66,5.11,3.74,4.4,7.27s-4.14,2.39-6.51,3a2.63,2.63,0,0,1-4.08-.39l-4.82-1.9-34-13.73c-3.43-5.13-8.39-8.52-13.35-11.95-6.15-4.26-8.71-9.41-3.57-16.23,5.38-7.14,1.48-10.77-5-13.79s-13.74-4.56-19.17-9.56c-3.06-2.81-6.36-6.15-5.05-10.72,1.45-5.07,6.35-2.51,9.73-3.33,19.91,3.63,37.22,14.42,56.22,20.56C202.14,237.51,205.84,236.89,206.6,241.18Z"/><path class="cls-60" d="M143.05,216.19c-1.66,3.39-8.08.19-7.82,4.62.23,3.91,3.34,7.52,7.25,9.39A200.45,200.45,0,0,0,161,238.37c9.21,3.31,11.05,8.94,4.58,15.81-7,7.4-3.29,11.49,3.54,14.25,6,2.44,8.23,8.41,13,11.86l-2.66,1.48c-35.64-13.29-61.8-38.35-84.23-68.06.85-8.78,8-3.19,11.8-5.18A158.48,158.48,0,0,1,143.05,216.19Z"/><path class="cls-83" d="M63.9,126.84c2.35,11.54,12.29,16.14,20.6,21.94,4.23,2.94,9.65,4.11,14.41,6.32,6.55,3.05,12,5.06,4.26,14.2-5.92,7,4.77,12.79,6.9,19.57.45,1.43,3.39,2.09,1.2,4.33l-2.21-.82a9.39,9.39,0,0,1-2.43-1.42c-26.21-9.78-47-26.27-62.08-50a38.5,38.5,0,0,1-3.61-7c-1.29-3.41-3.89-7.36-1.32-10.55,2.35-2.9,6.37-.52,9.63-.18s6.67.92,10,1.39Z"/><path class="cls-84" d="M206.6,241.18l-7.33-4.43L202,234.3l22.07,10C216.62,246.72,212.12,241.52,206.6,241.18Z"/><path class="cls-81" d="M106.63,191l2.43,1.42Z"/><path class="cls-85" d="M728.15,313.12c24.24-2,48.41-5.3,72.83-4.54,18.18,4.55,34.46,13.25,50.18,23.15,1.66,5.42,7.82,5.48,10.93,9.23,3,3.57,8.33,5.68,6.86,11.83a6.21,6.21,0,0,1-4.46,1.22c-6.59-1.44-9.3-7.94-14.58-11.1,6.23,3.8,9.08,12.18,17.62,12.83,4.3,1.84,5.43,6.34,8.06,9.59,2.45,4.18,5.68,8.17,3.39,13.53-7.42,3.76-10.34-6.92-17.08-5.37l-9.1-9.82c-6-1.94-9.53-7.29-14.35-10.86-16.54-12.28-36-14.7-55.57-17-25-1.36-50-5.8-75.12-1.59-31,.87-61.64,5.61-92.4,8.92-7.06,1.4-14.21.73-21.32.89-12,.15-23-4.24-33.77-8.48-26.95-10.65-55-19.56-76.76-40.21l-.05-.09a3.12,3.12,0,0,1-1.57-2.15q-1.78-4.28-3.55-8.54l.7-.72,4.38.33c.53.09,1.05.19,1.58.27,15.36,10.23,30.48,20.86,47.18,28.9a197.18,197.18,0,0,0,59.92,19.54c-20.83-3.07-40.46-9.94-59.24-19.47-8.15-4.32-17.35-7.08-22.89-15.32,4.79-6.53,10.36-3.85,15.94-1.35,3.67,1.65,6.18,3.11,11.38.74,6.82-3.1,13.51,4.32,20.09,6.67-3.71-2.33-8.24-4-12-6.9-3.6-2.77-5.43-6.13-3.06-10.66l31.78,10.58c37.86,12.55,76.41,20.76,116.6,18.47,4.45-.25,9.09.57,13.33-1.63Z"/><path class="cls-86" d="M850.75,365.78c7.35,10.34,14.81,20.59,22,31.07,1.44,2.12,4.89,4.71,1.55,7.73-3.07,2.79-4.45-1.22-6.36-2.38-4.78-2.87-9.33-6.14-14-9.25-8.86-3-17.88-5.53-26.45-9.35-7.44-4-15.55-6.1-23.54-8.56-9.21-2.62-18.35-5.44-27.74-7.36-17.16-1.22-34.3-2.1-51.4.64a57.91,57.91,0,0,1-19,0c-11.2-2.75-22.52-1.52-33.81-1-1.12.06-2.18.68-3.31.76-4,.3-9.56,1.71-10.43-3.46-.79-4.74,4.52-6.69,8.57-7.46a188.58,188.58,0,0,1,32.6-3.78c12.06-.2,24.17,1.35,36.17-.81,21.92-3.59,43.34.89,64.64,5,10.07,1.93,20.22.36,30.16,2.51,5.52,1.19,4.32-3.75,5.4-6.54C845.71,351.56,847.24,359.88,850.75,365.78Z"/><path class="cls-87" d="M929.62,451.93c-21.55-9.6-38.18-25.43-53.72-42.64l.07-.08a6.57,6.57,0,0,1,2.11-2.15c3.21-3.38,6-2.77,9.41.18,5.22,4.55,10.63,9,17.38,11.28,4.19,3.24,9.71,1.53,14.15,3.81q3.39,3.48,6.76,7C928.05,436.68,932.05,443.76,929.62,451.93Z"/><path class="cls-88" d="M850.86,427.34c-7.24-7.64-18.34-7.52-26.54-13.31-3.52-2.48-8.44-3.06-11.16-9.81h24.5l17.31.08c6,3.07,5,8.64,4.88,13.89L853.19,425c-.82.74-1.88,1.24-2.36,2.33Z"/><path class="cls-89" d="M828.14,381.7c9,2.83,18.67,4.08,25.77,11.25-2.17.19-4.4.29-5.14,3a1.1,1.1,0,0,1-.7,1.74c-2.53,4.69-7.07,4.59-11.47,4.87-3.16-.19-6.8,1.32-8.9-2.57a11.51,11.51,0,0,1-2.18-4.81,27.21,27.21,0,0,1,.52-10.63A5.93,5.93,0,0,1,828.14,381.7Z"/><path class="cls-90" d="M861.9,373.49c.35-2.22.32-5.05,3.82-2.74,4.38,2.87,8.7,5.83,13,8.76,7.8,5.58,8.11,12.72,4.27,20.71-7.38.28-7.58-7-10.82-10.82C868.18,384.6,865.28,378.84,861.9,373.49Z"/><path class="cls-91" d="M850.75,365.78c-4.85-4.11-7.47-10.6-13.88-13-4.49,1.06-8-1.43-11.72-3.23-10-4.9-20.64-7.06-31.6-8.35-4.79-.56-9.84-1-13.53-4.94.39-3.93,2.83-3.38,5.43-2.51,21.74,1.3,42.37,6,59.5,20.51,3.07,2.61,5.25,6.27,7.85,9.45C852.11,364.37,851.43,365.08,850.75,365.78Z"/><path class="cls-92" d="M903.17,390.86c-5.27,4.06-6.92,13.33-16.34,11.4-3.07-5.16-1.48-11.23-3.25-16.64,4.26-3.42,2-9.65,5.68-13.33,7.71,1.85.61,8.33,3.6,10.78a12.05,12.05,0,0,1,.49-5.8c8,1.18,4.54,10,9,13.55Z"/><path class="cls-93" d="M885,384c1,6.05,2.55,12,1.79,18.25l-3.79-2a51.38,51.38,0,0,0-4.27-20.71L873.34,366c-.78-2.53.75-2.88,2.69-2.86C882,368.76,887,374.9,885,384Z"/><path class="cls-94" d="M859.85,418.19,855,404.3c5.71-5.74,11-.88,12.67,2.86C870.09,412.67,863.34,415,859.85,418.19Z"/><path class="cls-95" d="M907.44,386.29c3.27,1.2,2.59,5,4.69,7a8.74,8.74,0,0,1-.39,2.21c-3,6.37-7.71,12.09-14.29,13-5,.72-2.94-3.27-.38-5.57,2.78-2.49,5.4-5.14,8.09-7.73a2.67,2.67,0,0,0,1.35-2.35c0-1.34,0-2.68,0-4C906.85,388,907.14,387.16,907.44,386.29Z"/><path class="cls-96" d="M848.07,397.67a1.68,1.68,0,0,0,.7-1.74c2.81-1.25,4.89-.31,6.06,2.36.17.39-.92,1.73-1.68,2.07C850.44,401.58,848.22,401.48,848.07,397.67Z"/><path class="cls-79" d="M878.08,407.06,876,409.21Z"/><path class="cls-50" d="M906.51,392.9l-1.35,2.36Z"/><path class="cls-78" d="M850.83,427.36l2.36-2.33Z"/><path class="cls-97" d="M730.13,122.67c.19,1.47.37,2.94.56,4.41.62,1.17,0,2.76-.84,2.49-14.16-4.39-26.68.34-38.93,6.75-1.74.91-3.47,1.47-5.16-.12-6.4-20.66-8.57-42-10.11-63.44l.81-7.06c8.27-10,8.79-22.4,10.63-34.4.39-2.54.63-5.73,3.69-6.35,3.34-.67,5.47,1.95,7.22,4.39,3.77,5.24,5.67,11.35,7.78,17.37,1.59,4.53,2.46,9.55,7.27,12.19,7,19,11.49,38.78,15.63,58.6C729.59,119.1,729.1,121.1,730.13,122.67Z"/><path class="cls-98" d="M713.05,58.9c-7.12,1.47-7.73-4.23-9.31-8.64-3-8.36-4.54-17.42-12.5-24.35-5.14,13.65,2.25,31.53-14.78,39.79-1.06-19-.51-37.57,9.52-54.65,4.74-8.09,8-7.45,11.36.88A385.74,385.74,0,0,1,713.05,58.9Z"/><path class="cls-99" d="M730.13,122.67c-1.73-1.37-1.89-3.18-1.45-5.17a8.43,8.43,0,0,1,1.56,1.16C730.2,120,730.17,121.33,730.13,122.67Z"/><path class="cls-4" d="M658.15,822.55l-1.36-.69c.2,0,.46,0,.59.08a4.76,4.76,0,0,1,.64.76Z"/><path class="cls-100" d="M693.9,215.74c2.29,9.9-3.37,19.88.41,29.81.91,2.39.69,5.23,4.07,7.36-.12-15.85-6-31.58,2.48-46.27,6.56,6.22,10.78,14.27,16.43,21.22,2.49,3.06,4.51,6.19,9.06,3.67,7.93,17.57.14,34.75-1.28,52.09-.43,5.25-2.07,10.88-.8,15.71,2.78,10.54-3.66,11.36-10.7,11.65-11.7.49-23.41.5-35.12.72-7.1-1.09-16.88,2.59-17.59-9.9a2.61,2.61,0,0,1,3.71.28c.18,1.11.08,2.39.61,3.3,1.91,3.28,1.53.2,1.73-.73,1.6-7.46,1.66-15.86,11.86-17.61,2.7-.46,1.94-3.22,1.37-4.57-8.58-20.6,1.83-37.76,9.74-55.38C691.2,223.3,686.94,217.53,693.9,215.74Z"/><path class="cls-101" d="M693.9,215.74c-3.55,3,.4,8.67-4,11.35-6.2-1.56-6.13,4-7.35,7.14-3,7.93-5.41,16.13-8.76,26.37-15.43-36.75-20.32-73.67-25-110.63l.45-4.67c3.83-8.51,11.29,1.06,15.17-2.78,4.36-4.32,8-7.72,14.3-4.31a2.74,2.74,0,0,0,2.13.16c5.88,20.63,8.52,42.1,16.53,62.21C699.33,205.68,694,210.41,693.9,215.74Z"/><path class="cls-102" d="M664.57,302.08l-3.71-.28-5.46-24.45q-2.35-17.21-4.72-34.41c.73-7.3,1.44-14.61,5.38-23.41,6.61,20.39,12.37,38.72,18.58,56.9,1.36,4,.22,6-2.45,8.64A24.55,24.55,0,0,0,664.57,302.08Z"/><path class="cls-99" d="M685.76,136.2c9.26-6.95,20-9.47,31.18-11.39,5.12-.89,9.35.41,13.75,2.27a192.86,192.86,0,0,1,6.23,45.6c-3.24,11.46-.77,23-.19,34.48.33,6.62,1.91,13.29,2.68,20L733.94,246c-3.23-16.81-5.58-31-12.69-43.67a18.12,18.12,0,0,1-5.32-5.46c-6.53-10.52-6.59-10.48-14.93-1.86-7.85-12.58-8.9-27.28-12.54-41.15C687,148.13,686.63,142.09,685.76,136.2Z"/><path class="cls-103" d="M726.35,231.53c-1.17,3.3-2.35,9.26-6.6,3.52-6.73-9.11-15.89-16.77-18.89-28.42.2-1.32.4-2.65.59-4,1.32-6,1.27-15.57,7.29-15.81,6.83-.28,7.56,9.44,10,15.39C721.67,211.91,725.63,221.3,726.35,231.53Z"/><path class="cls-104" d="M739.41,227.14c-9.66-17.11-6-35.82-6.31-54,0-1.53,2.42-.94,3.82-.43l4.71,32.38C742.37,212.57,742.2,220,739.41,227.14Z"/><path class="cls-105" d="M718.75,202.24l-8.53-15c-5.57,4.1-5.87,10.55-8.77,15.46L701,195c.67-1.71,1.22-3.48,2-5.12,1.46-2.92,2.67-6.91,6.36-6.81,3,.09,4.27,3.7,5.58,6.34,2.12,4.29,4.19,8.6,6.28,12.91Z"/><path class="cls-106" d="M653.49,287.46C655.63,295,657.2,300,658.35,305c.46,2,3.48,5.21-1.31,6-3.46.55-6.85.21-7.67-4.31C648.27,300.6,650.12,295.19,653.49,287.46Z"/><path class="cls-107" d="M529,652.22c-3,.84-3,6.2-6.54,5.23s-2.13-5-3-7.72c-2.4-7.42-2-16.53-11.22-20.21-3.95-5-1.62-11.56-4.5-17.06-3.5-.57-5.88,13.58-11.1,1.34,6.88-12.38,8.95-27.11,18.5-38.19,7.45,2.76,14.29,2.31,20.67-3.09,1.23-1,4.25-6.38,5.91.2,0,.5,0,1,0,1.51-1.53,5.58,2.72,6.84,6.37,8.6,3.9,1.89,8.71,2,11.57,5.95C542.6,608.16,537.42,630.86,529,652.22Z"/><path class="cls-108" d="M492.68,613.8c1.92.6,3.22,5.43,5.87,1,2.13-3.57,4.35-7,8.48-8.93-1.65,8.15,3.61,15.67,1.25,23.65-4.33,4.55-4.18,11.66-3.52,15.87,1.76,11.22-4.65,19.35-7.33,28.8-1.66,5.83-3.5,11.54-2.6,17.7,1,7.1.68,12-7.91,15.83-6.06,2.69-7.16,13-13.17,18.13-5.39-3.8-6.47-9.13-6.56-14.91A411.14,411.14,0,0,1,492.68,613.8Z"/><path class="cls-109" d="M648.55,128.84c-.74-16,6.4-28.2,18.45-38,5.48-1,6.19,3,6.73,6.73,1.08,7.41,1.88,14.87,2.8,22.31-5.18,4.56-10,9-10.38,16.93-.16,3.82-4.1,6.7-8.43,4.49C652.79,138.79,645.35,137.57,648.55,128.84Z"/><path class="cls-110" d="M648.55,128.84c.09,7.72,7.48,10.22,11.75,10.67,6,.63,4.35-6.57,4.4-10.75.1-8.43,4.83-10,11.83-8.87,2.92,5.81,3.63,12.14,4.24,18.48-1,6.23-3.36.41-5,.53-1.12.08-3.12-.35-3.24,0-4.72,13.49-15.77,3.61-23.32,6.42C648.58,139.83,645.89,134.43,648.55,128.84Z"/><path class="cls-111" d="M227.07,349.63l13.62,7.24c-13.68,6.12-28.89,5.13-43,9.21-1.18-2.33-3.79-3.14-5.37-5.05C203.11,354.82,214.48,350.36,227.07,349.63Z"/><path class="cls-112" d="M192.31,361c2.72.69,7.93-1.28,5.37,5.05V366c-1.48,1.11-3.43.94-5,1.83l-21,9.34A39.58,39.58,0,0,1,192.31,361Z"/><path class="cls-111" d="M192.69,367.82a5,5,0,0,1,5-1.83C196.49,367.9,194.58,367.83,192.69,367.82Z"/><path class="cls-59" d="M261.07,95.37a42.41,42.41,0,0,0,18.18,6.54c36.68,16.73,74.27,31.55,108.56,53.24a352.45,352.45,0,0,1,36.6,26.51l28,50.05c8.44,29,21.75,56,34.81,83.12,1.84,3.82,2.68,8.77,7.93,10,.42.33.84.66,1.28,1,30.37,52.58,76.41,87.08,129.93,112.92a5.66,5.66,0,0,1,2.86,3.49,88.6,88.6,0,0,0,28.61,23.16c8,8.24,8,19.52,11.21,29.58.5,3.88,5.11,4.15,6.44,7.28.38,1.1.33,2.35.93,3.33,1-.63,1.8-1.49,3-1.7a6.24,6.24,0,0,1,2.66,1.39c13.42,15.25,32.64,15.13,50.27,18.48a66.15,66.15,0,0,0,26.76-.9c2.85-.65,6.25-1.67,6.39,3.3-5,11.25-15.16,10.82-25,11-23.7.39-47.47-.54-70.87,4.39-14.76,1.81-21.26-5-23.12-24.16,8.47-21.64-.34-46.76-21.65-59.5-29.59-17.69-57.36-38.08-85.13-58.34-38.94-28.41-65.07-66.86-81.41-112.2-7.83-21.73-16.14-43.45-26.43-64a133.81,133.81,0,0,0-32.26-41.09c-36.17-31.38-79.88-48.36-122.5-67.61-3.16-1.43-6.07-3-8.14-5.92-1.13-3.13-3.94-5-5.63-7.77C263.24,98.84,257.81,98.92,261.07,95.37Z"/><path class="cls-113" d="M542.29,286.55c1.24,12.53,15.15,11.53,20.75,19.48-4.43,2.08-7.94-1.84-11.91-1.78-5.4.07-10.43-11.89-16.51-.68-.13.23-6-2.2-8.81-4-5.13-3.29-10.28-4.1-15.86-1.53-11.57.35-17.86-9.26-26.66-14.15l.13.23c-8.87-7.51-15.84-16.21-17.58-29l26.5,8.75Z"/><path class="cls-114" d="M483.51,295.3c9.9.37,14.87,9.26,22.71,13.4a387.6,387.6,0,0,0,68.26,27.89c6,1.82,11.64,4.89,18.16,4.6-1.49,5.42-6.14,4.83-10.06,4.94-7.85.24-15.72.53-23.56-.33a31,31,0,0,1-5.34-1.44c-1.68-.41-3.39-.75-5.06-1.22C534.1,338,520.18,331.76,509.52,320,500.72,311.92,489.89,306,483.51,295.3Z"/><path class="cls-115" d="M546.4,345.18c-8.52-7.39-19.93-9.55-28.91-16.1-3.91-2.86-7.86-5.67-11.8-8.5l3.82-.55c13.42,6.63,25.56,15.7,39.69,21,1.62,1,3.18,2.39,1.87,4.22C549.92,346.84,548,346.61,546.4,345.18Z"/><path class="cls-114" d="M481.89,293.06l1.57,2.15Z"/><path class="cls-85" d="M478.34,284.52A11.57,11.57,0,0,1,477,283c1.32-1.63,1.62-.29,2,.76Z"/><path class="cls-116" d="M11.22,73.3c4.26-2.77,8.79-.89,12.72.2,27.8,7.73,55.47,15.93,83.18,23.94,4.46,1.3,7.14,3.33,9.35,8.28,4.45,10,14.51,15.46,22.37,22.63,3.18,2.9,9.64,4.11,2.29,9.24-6.3,4.4,4.28,6.63,1.29,10.56-30.35-9.05-57.74-24.71-85.89-38.68-2-1-4-1.91-6.06-2.86-13-8.78-27.58-15.67-36.58-29.47A7.52,7.52,0,0,1,12.05,75,1.93,1.93,0,0,1,11.22,73.3Z"/><path class="cls-117" d="M161.23,159.45,156.44,157l4.5-1.9c10.13,2.79,20.33,5.42,28.74,12.91l-19.51-6.11c-1.49.53-2.94.87-4-.83C164.89,159.45,163.11,159.29,161.23,159.45Z"/><path class="cls-118" d="M321.92,377c5.89-.48,9.54,4.9,15.45,5.55,5.15.57,2.25,4.79.35,7.66-2.51,3.79-9.78,5.81-7,11.33,2.41,4.8,9.26,3.72,14.15,5.07,3.15.88,6.69,0,9.82,1.74,2.76,1.57,4.42,3.44,1.51,6-10.16,8.91-.32,9.26,5.38,11.91l-5.74,1.3c-29.34-1.6-54.39-13.52-76.15-32.63-4.16-3.65-11.83-7.65-5-15.5L295,377Z"/><path class="cls-119" d="M365,436.13h25.51c-3.56,5-8.85.24-12.12,4.06,7.3,9.64,19.46,7.18,29.2,11.23-1.77,4.25-5.72,3.72-8.47,5.12-4.11,2.08-7.68,3.9-3,9,1.06,1.15.62,1.56-4,2.89-16.44-1.44-28-11.18-38.54-22.69-6.83-7.48,2.69-6.66,5-9.52Z"/><path class="cls-120" d="M735.22,752.28c-2.12-5.84,6.33-6.5,5.63-13-11.94,7.82-25.5,11.56-34.84,22.55-2.16,2.54-4.28,7.24-9,4.84-3.61-1.85-2.64-5.9-2.74-9.23-.07-2.27-.42-4.64.09-6.78,2.24-9.22,1.82-15-9.68-8.57-2,1.09-6.08.86-5.11-1.44,3.72-8.73-4.26-17.65,1.53-26.42,2.94-4.46,4.84-11.8-5.69-7.16-3.84,1.7-5.9-.57-7.25-3.28-2.66-5.36-.92-10.53,2.39-14.85,6.87-8.93,14-17.66,21.29-26.26,6.31-7.46,12.9-14.69,19.53-21.87,4.19-4.53,8.16-7.39,11,1.51,2.31,7.11,6.69,6.1,10.85,1.42,4.45-5,10.59-7.09,16.23-10.06,2.73-1.43,5.83-3,8.53-1,3.25,2.4,2,6.1,1.24,9.4-1,4.4-1.61,8.9-3,13.14-2.87,8.47,3.79,13.9,8.22,17,5,3.51,8.44-4.31,11-8.23,6.94-10.6,13-21.76,19.52-32.67.07-.11.73,0,1,.21a3.51,3.51,0,0,1,.77.81q-2.25,9.92-4.51,19.83c-9.51,27.94-19.31,55.71-37.93,79.3C748.48,739,742.49,746.2,735.22,752.28Z"/><path class="cls-121" d="M426.18,474.72l7.41,1-.06,1.19-11.41.66c4.21,4,8.72,5.94,14,7.26,2.64.66,9.6.11,7.2,5.74-2.07,4.86,1.78,13.76-8.07,14.24-14.61.63-24.35-7.66-33-18-3.41-4-3-7.23,1.77-9.69Z"/><path class="cls-122" d="M84.22,51.73l37.85,7.75L229.42,88c11.12,3.79,22.79,6.5,32.32,16.89l-14.28-.67c-14-1.38-27.13-6.1-40.11-10.88A809.54,809.54,0,0,0,107.51,64a30.37,30.37,0,0,0-12.29-.55c-9.13-1.06-18-3-26.36-7-15.39-5.35-31.3-7.94-47.49-9.14,19.94-5.45,39.05,1.29,58.43,4C81.27,51.48,82.75,51.58,84.22,51.73Z"/><path class="cls-123" d="M455.72,515.6A22.48,22.48,0,0,0,473.84,525c3.15.12,7.39,1.3,6,4.76-4.81,12.13,4.37,9,9,7.87,6.48-1.58,11.56.75,17,2.85-22.4,2-44.74,3.6-62-15.28-3.18-3.48-8.77-7.3.88-9.67Z"/><path class="cls-124" d="M508.28,541.05,521,538.17c-7.38,6.38-13.48,7.91-19.39,9.79C501,542.88,506.44,543.74,508.28,541.05Z"/><path class="cls-125" d="M868.59,352.58c-3.31-6.1-8.57-10.27-13.9-14.47-1.88-1.48-6.18-2.17-3.53-6.38C864,338.8,877.22,345.36,887,356.79l.23,4.46c-.6,7.12-1.53,7.37-9.29,2.48a20.35,20.35,0,0,0-2.5-1.49,15.2,15.2,0,0,1-2.42-1.53l-1-1a17.38,17.38,0,0,1-1.67-2.24C869.5,356,867.86,354.7,868.59,352.58Z"/><path class="cls-80" d="M12.05,75c.61.72,1.23,1.44,1.84,2.17Z"/><path class="cls-126" d="M458.87,508.65c11.93-.48,23.67.73,35.14,5.22H456.42C452.55,509.92,456.45,509.64,458.87,508.65Z"/><path class="cls-127" d="M544.36,566.87c0,6.24,3.94,7.79,9.28,8.58,3.86.57,7.53,2.39,11.28,3.65-7.88,10.13-19.23,9.21-28.34-2.28.22-2,1.94-3,2.93-4.47.26-.58.55-1.14.86-1.69a5.67,5.67,0,0,1,2.07-2.27Z"/><path class="cls-128" d="M544.15,560.83l6.72-6c1.84,4.5-1.58,5.07-3.62,6.52Z"/><path class="cls-107" d="M542.44,568.39l-2.07,2.27Z"/><path class="cls-128" d="M546.27,563.37l-1.79,2.36C545.07,564.94,545.67,564.16,546.27,563.37Z"/><path class="cls-107" d="M539.51,572.35l-1.72,2.59c-.66-.5-.87-1-.66-1.5s.43-.76.65-.76l0,0A2.27,2.27,0,0,1,539.51,572.35Z"/><path class="cls-66" d="M68.86,56.45l26.26,5.12c16.56,1.86,32,8.15,48,12.2,24.2,6.14,47.55,15,70.9,23.71a13.12,13.12,0,0,1,6.47,4.39c.26,2.28-.54,3.45-3,2.84-35.61-11-70.68-23.66-106.73-33.22C95.11,67.33,79.52,62.94,63.9,58.65Z"/><path class="cls-81" d="M258.74,311.74c3.66,1.75,7.78,2.94,10.85,5.43s6.8,6.22,1,9.78c-7,4.28-2.62,6.26,1.5,7.87s8.53,3.58,12.82,3.58c13.37,0,15.33,12.9,22.66,19.55,4.21,3.81-5.7,5.79-3.85,10.62l-38.2-4.73c-4-1.14-8.24-1.7-11.51-4.65a36.27,36.27,0,0,1,1.2-8.94c3.54-11.46,3.68-12.31-8.8-13.94-16.07-2.1-25.69-13.06-35.94-23.46-2-2.05-4-4.74-1.56-8l7.07-.78c3.93-3.14,8.18-2,12.41-1a3.27,3.27,0,0,1,1.81,2.65c-1.86,3.6-5.37,1.29-8.72,2.51,3.93-.78,7.61.77,10.11-2.61a9.13,9.13,0,0,1,4.75-1c2.31,0,4.4,1,6.63,1.36C248,308.47,254.31,307.51,258.74,311.74Z"/><path class="cls-129" d="M304.33,370.19c7.9,2.26,16.05,2.65,24.69,2.85-2,2.85-4.56,1.44-6.49,2.21-5.52-.09-11.06,0-16.56-.33C302.53,374.7,301,373.13,304.33,370.19Z"/><path class="cls-130" d="M270.65,106.67c8.67,8.34,20.54,10.43,30.9,15.34,25.89,12.28,52.74,23.15,76.19,39.47,15.05,10.46,30.56,21.54,42.11,36.59,17.41,22.69,25.32,50,36.15,75.78s20.54,51.64,37.36,74.49c14.48,19.68,30.77,37.52,50.75,51,28,18.9,54.76,39.59,83.89,57,17.4,10.41,26.58,28.37,25.57,50.08-.21,4.35-2.3,6.93-4.83,9.68-3.39.39-4.7-2.13-5.72-4.51-16.22-37.68-46.22-62.81-78-86.32-26.71-19.72-54.73-37.81-77.94-62-21.57-22.44-36.55-48.32-45.9-78.41-9.25-29.75-19.08-60-40.67-83.85-15.58-17.25-35.08-29.68-54.74-41.69-26.85-16.41-55.37-29.25-85.05-39.64-6.09-2.14-13.61-3.62-13-12.9,5.85,1.79,11.78,2.89,17.93,2.12A6.32,6.32,0,0,1,270.65,106.67Z"/><path class="cls-66" d="M247.7,106.83c3.42,6.61,9.63,8.89,16.19,11.17,48.21,16.73,92.45,40.49,131.68,73.57,17.88,15.07,25.12,36.09,35,55.94,9.5,19.11,13.14,40.16,21.43,59.6,17.63,41.38,50.38,69,85.42,94.78,24.9,18.29,50.76,35.24,72.76,57.49,16.54,16.73,28.55,35.88,38.57,56.73,3.15,21.84,4.61,23.6,20.59,24.88.5.41.66.8.47,1.19s-.36.56-.53.56c-13,3.19-17.71,0-22.85-15.42-4.62-5.24-5.49-12.22-8.31-18.29-13-28-34.36-48.78-57.53-68.06-.82-.66-1.59-1.36-2.37-2.06-.41-.31-.8-.66-1.22-1-.89-.57-1.74-1.18-2.62-1.77s-1.83-1.13-2.72-1.74c-29.72-23.22-62.55-42.42-88.59-70.37-21.2-22.76-37.36-47.84-45.73-78.41C429,255.26,415.94,226.57,395.55,202c-16.78-20.21-39.57-32.49-61.77-45.38-26.54-15.42-54.76-27.13-83.73-37.07-3.52-1.21-7.49-1.63-9.71-5.27,1-3.21,2.76-6.28,2.06-9.87a1.78,1.78,0,0,1,2.73.49Z"/><path class="cls-131" d="M245.13,104.9l-2.18-.08c-1.78,5.1-4.9,7.47-10.35,5.15a21.08,21.08,0,0,1-2.62-1.16c-1.22-.59-2.44-1.21-3.71-1.71a19,19,0,0,1-3.68-1.5c-1.17-.71-1.53-2.08-2.4-3-37.56-14.41-76.06-25.85-114.67-37-3.55-1-6.94-2.66-10.4-4,2.68-1.44,5.25-2.61,8.57-1.79,34.94,8.64,69.94,17.14,103.53,30.37,13.24,5.22,27.81,6.56,40.24,14.07Z"/><path class="cls-66" d="M270.65,106.67c-.71,2.89-2.81,2.69-5,2.28-.74-2.66-1.49-5.32-2.23-8Z"/><path class="cls-132" d="M208.87,304.87C218.54,320,230.5,331.81,249.43,334c3.3.38,6.51,1.47,9.8,2,6,1,9.5,3.34,2.54,7.8-6,3.82-2.12,11.88-7.8,15.35-11.35-3.66-20.72-11-30.9-16.79-13.4-10.2-27.66-19.53-35.39-35.41C194.22,301,201.79,305.41,208.87,304.87Z"/><path class="cls-133" d="M242.52,307.23l-6.3-1c-2.29-1.35-5.11.21-7.37-1.35l-12.91-.82c-.36-2.61-1.09-5.36,2.28-6.69l4.08.39L238.2,303a10.68,10.68,0,0,1,2.75,1.25l3.91.77C245.33,307.08,244.8,308.08,242.52,307.23Z"/><path class="cls-134" d="M902.36,390.82c-7.64-1.7-5.28-9.16-7.91-13.75-2-3.17-4.8-6.47,1.36-8.3a2.86,2.86,0,0,0,.49,1.58C897.74,377.35,903.71,383,902.36,390.82Z"/><path class="cls-135" d="M905.15,379.43c3.19,1.51,2.24,4.42,2.35,7C904.59,384.8,905,382.07,905.15,379.43Z"/><path class="cls-135" d="M905.14,375.05c0,1.51.07,3,.1,4.53C901.77,378.15,903.83,376.59,905.14,375.05Z"/><path class="cls-136" d="M875.65,361.34c3.85-2.74,7.83,10.11,11.62-.1.83,2.23,1.67,4.45,2.5,6.67a3.47,3.47,0,0,1-.17,4.51c-2.76,3.38,4.66,10.77-4.56,11.59-2.3-7.18-5.08-14.13-9.31-20.42a1.39,1.39,0,0,1-.56-1.48C875.32,361.6,875.48,361.34,875.65,361.34Z"/><path class="cls-137" d="M889.6,372.42l.17-4.51c2.5-3.15,4.81-4.94,6,.86-3.48,2.27-1.27,5.48-1.36,8.3-.37,3.27-.74,6.54-1.22,10.81C890.07,382.41,893,376.7,889.6,372.42Z"/><path class="cls-138" d="M574.6,433.78a2,2,0,0,1,1.83,1.06,3.14,3.14,0,0,1,1.88,1.58l.21.15a15.48,15.48,0,0,1,2.32,2c27.5,19.68,48.94,44.42,62.44,75.68,1.76,4.08,3.7,8.3,3.14,13-4.29,13.79-8.16,27.46-17.87,39.12-9.37,11.26-32.75,21.95-51.76,15.06-1.31-.48-1.94-2.86-2.89-4.35-.63-2,.27-2.63,2.16-2.28,28.49,9.32,57.62-12.77,62.35-40,.37-2.16,2.08-4.34.1-6.3s-4.12-.83-6.07.5c-.93.64-2,1.88-2.82,1.74-15.56-2.69-17,7.37-17,18.76-3.68,6.47-10.86,7.38-16.65,10.5-7.88.82-13.87-1.14-15-10.24l-.18.22c.85-.81,1.64-1.67,2.49-2.48l-.12.18c3-4.64,8.08-6,12.52-8.35.87-.49,1.86-.83,2.75-1.36-2,.51-3.76,1.69-5.67,2.53-6.44,3.48-13.64,4-20.59,4.57-10.36.77-19.22-9.82-16.58-18.77,9.29-10.13,23.06-7.32,34.33-11.76,1.35-.69-.62-2.34.23-1.09.25.38,0,.77-.65.93-14.19,3.26-28.18,8.13-43.11,5.39-1.93-.92-2.34-2.35-2-4.48.82-5.86,3.67-12.26-5.52-15-3-.87-2.41-4.94-.68-7.77,9.72-4.59,20.09-2.26,30.16-2.89.88-.73,1.64,1.25,2.47.16.21-.28-.46-.55-1.31-.22-2.52-.29-5.26.77-7.43-1.35-6.64-13.52-.2-27.43-1-41.16C560.66,439.75,566.45,434.61,574.6,433.78Z"/><path class="cls-139" d="M669.27,542.74a8.54,8.54,0,0,1,.06-1.75c13.68-4.39,27.86-4.79,42-5.2,12.36-.36,24.72-1.11,37.06-.93,7.84.11,12.81-3.23,16.28-9.75,2.91-4.83,3.09-12.6,11.9-11.05a4,4,0,0,1-.53,3.19c-.13.82-.25,1.63-.38,2.45-.32.19-.78.3-1,.58-10.29,17.67-26.33,20.31-45,18.71C709.52,537.26,689.35,540.14,669.27,542.74Z"/><path class="cls-66" d="M537.78,572.68c0,.75,0,1.51,0,2.27,7.45,10,17.38,11.52,27.13,4.15l6.87-4.25a1.61,1.61,0,0,1,.79,1.73c-.18.63-.38.94-.59.94l-13.35,11.3-3,0c-5.76-1.08-11.51-2.08-16.79-5C532.81,580.52,531.18,577.08,537.78,572.68Z"/><path class="cls-140" d="M572,577.52c-.07-.89-.14-1.78-.2-2.67,1.24-2,1.91-4.84,5.22-3.57a31.74,31.74,0,0,1-1,3.59l-2.16,2.28A7.34,7.34,0,0,1,572,577.52Z"/><path class="cls-1" d="M591.63,745.38l-1.76,2.17Z"/><path class="cls-1" d="M589.8,747.65l-2.17,2Z"/><path class="cls-69" d="M580.87,736.31c1,6.58,1.93,13.16,3,20.54,10-4.1,13.22-13.28,18.91-20.71-.37,13.21-1.38,26.09.45,38.92-6.5-.81-8,3.29-9.36,8.58-1.77,6.62.42,12.7,1,19-5.46.55-14.39,11-14.06-4.94-3.85-4.51-1.86-9.17-.15-13.66a53.94,53.94,0,0,0,2.77-13.43c-1.27,3.93.48,8.92-4.1,11.7-4.21-1.45-1.84-7-5.4-8.9-11,13.67-12,20.29-4.15,28.39-1,7-7,3.14-9.76,5,3.11.44,6.67-1.73,10.47-1.11l1.18,1c-10.89,9.63-23,8.26-36.1,4.82,12-14.68,12.52-33.06,19.67-48.79-10.33,11.17-10.46,26.86-17.49,39.47a6,6,0,0,1-2.78,1.88,7.55,7.55,0,0,0-1.65.11c-3.33-2.22-7.5-2.83-10.5-5.47,1.62,3.43,8.49,1.83,7.69,7.8-7.86,1-16.29,5-22.16-4.31-1.87-5.5-1.4-10.56,3.79-13.93,13.56-8.8,20.47-22.65,27.82-36.18,3.46-6.35,9.24-16.81,13.3-15.25,8.77,3.36,10.25-3.77,15.32-6.34l4.2,15.26Z"/><path class="cls-141" d="M569.87,802.82c-8.76-.31-11.33-4.6-8-12.6,2-4.85,3.83-9.78,6.16-14.46,1.75-3.49,3-9.19,7.85-8,4.23,1,2.39,6.4,2.72,10,.14,1.49.3,3,.44,4.46,2.74,5.21.41,10.37-.17,15.55l-2.1,4.84a26.48,26.48,0,0,1-2.74,1A4.24,4.24,0,0,1,569.87,802.82Z"/><path class="cls-142" d="M594.87,802.65c-5-7-5.91-23.85-1.34-29.62,4.4-5.57,6.89-.66,9.71,2l.72,4a11.82,11.82,0,0,1,.07,7.81C602.75,793.18,601.67,799.59,594.87,802.65Z"/><path class="cls-143" d="M578.83,797.72q.09-7.77.17-15.55c3.51-5.31-.48-13,7.39-18.84-2,12.49-3.81,23.43-5.58,34.38Z"/><path class="cls-144" d="M530.51,806.53c-3.78-4.83-12.47-5.23-12.5-17.11,3.42,9.69,12.89,7.53,15.31,14.78A2.78,2.78,0,0,1,530.51,806.53Z"/><path class="cls-1" d="M604,786.9c0-2.61,0-5.21-.08-7.82.63,1.67,1.25,3.33,1.88,5Z"/><path class="cls-144" d="M535,804.09l2.78-1.88Z"/><path class="cls-69" d="M573.66,802.7l3.07-.14a2.26,2.26,0,0,1-2.63,2l-.8-.81Z"/><path class="cls-69" d="M574.1,804.58l-2.43,2.13.16.13c-.61-2.18-.07-3.17,2.32-2.28Z"/><path d="M778.63,365.55c9.36.82,18.13,3.86,26.82,7.18.88,1.35.32,2.66-.06,4-.8,3,.89,5.35,2.11,7.82,2.2,8.34,9.09,12,15.77,15.79-2.14,2.1-5,1.86-7.46,1.65-25-2.09-41.31,12.47-56.83,29.1-3.75,4-2.09,7.37-1.24,11.28s1.54,8.1,2.3,12.15c1.23,1.33,1.14,2.85.65,4.42-5.62-1.27-12-1.09-15.11-7.41-.16-.33-.3-.9-.51-.93-2.1-.33-.16,1.46-.93,1.92-1.8,6.23-6.53,7.3-12,7-6.44-5.62-8.47-13.81-12.27-21-3.93-14.5,4.9-24,14.09-32.23,14-12.6,27.07-26.12,40.15-39.64C775.43,365.65,776.78,364.53,778.63,365.55Z"/><path class="cls-145" d="M760,459.14c0-1.55,0-3.1,0-4.65,7.2,17.24,14.16,34.59,21.72,51.66,3,6.85-1.61,8.55-5.69,11.1,0-1.1,0-2.2-.05-3.3-4.65-8.23-13.64-12.06-19.36-19.2-.79-.68-1.52-1.41-2.25-2.16-.38-.37-.73-.75-1.1-1.12a133.25,133.25,0,0,1-16.86-21.24c-2.2-3.3-5.55-6.47-3.51-11.21,2.08-3.56,8.43-1.47,9.1-6.9a4.81,4.81,0,0,1,5.11,5.93c-5.67,14.81,8.22,19.77,14,28.71,2,3.12,5.29,5.36,8.16,8.59-1.7-8.32-5.34-15.36-8.68-22.55C758.54,468.43,755.84,463.86,760,459.14Z"/><path class="cls-146" d="M823.27,400.31c-13,2.45-15.79-6.9-18.72-16.13,9.6-.17,17.48,3.19,23.06,11.28.8,1.48,1.47,3,.1,4.51Z"/><path class="cls-147" d="M227,104.93l2.51,1.32a1.27,1.27,0,0,0,2.08.71c4.25,1.73,8.65,4.2,11.39-2.14,1.2,3.43.91,6.48-2.29,8.77-6.6,4-13.3,3.67-20.54,1.46-12.29-3.75-25.13-5.06-37.79-7-8.46-1.26-11.35,2-9.87,10.29,1.84,10.42,6.43,19.06,15.84,25,19.94,12.56,42.15,20.15,63.46,29.71,19.57,8.78,40.28,14.76,59.51,24.4.41,2.09-.75,3.26-2.41,4.14-6.26,2.1-11.75-.78-17.42-2.69-19.22-6.5-37.38-15.92-57.16-20.85-7.58-2-15.29-3.44-23-4.86-4.92-.91-8.87-.16-11.34,4.63a2.58,2.58,0,0,1-2.88-.43c-4.49-8.95-1.54-12.89,8.19-11.92,4.08.41,8.1,1.33,12.72.95-8.71-4.19-17.42-8.35-26.12-12.55-17.22-8.31-26.12-21.52-26.11-41.21,0-10.84,5.3-13.24,14.13-12s17.73,3.26,26.62,4.73c3.67.61,7.61,3.22,11-.72l2.69-2.14,2.54,1.07C223.62,105.78,225.11,106,227,104.93Z"/><path class="cls-147" d="M256.43,234.5c2.11-1.15,6.08,2.39,6.65-2.65,2.29-1.68,4.91-1.1,7.45-1.1a7.11,7.11,0,0,1,3.94,2.43c1.58,2.58,4.51,4.82,2.21,8.43-3.06,1.85-5.92.83-8.76-.6-2.6-1.66-5.32-1.38-8.09-.45-3.77,1.07-7.77.19-11.42,1.53-.87,1.09-.56,2.22-.09,3.37,11.71,26.33,33.19,40.69,59.47,49.43,6.73,2.24,13.26,5.17,19.89,7.77,9.32,5.06,20.47,6,29,12.76a3.91,3.91,0,0,1-.21,3.19c-8,5.09-16.12-.5-24.18.17-5.58.46-11.13-1.16-18.07-.33,6.18,14.55,13.21,26.93,28.46,33.08,7.14,2.88,15.69,3.25,20.86,10.28.45,2.15-.91,3-2.59,3.62-17.23-6.4-35.73-10.73-46.14-28.29-.58-1-1.15-2-1.69-3-12.77-23.47-12.68-23.63,15.34-23.07-16.89-7.53-32.2-14.35-47.5-21.19-21.11-9.43-33.16-26.48-40.38-47.78-1.26-3.71-2.21-6.37,2.43-7.8A23.72,23.72,0,0,0,256.43,234.5Z"/><path class="cls-148" d="M544.62,517.69c16.15,1.3,31.89-3.27,48.18-2.84-12.48,3.63-25,7-36.95,12.11-.65-.51-.88-1-.68-1.57s.4-.82.61-.82c-4.35-3.48-9.53-2.19-14.07-1.52-12.28,1.82-20-4.9-26.76-13.32-7.12-8.88-6.07-11.67,4.89-16.13-16.94.91-30.81-4.21-39.69-19.29-2.74-4.64-5.07-9.06,2.77-10.95,2.18-.71,3.08.55,3.63,2.36,2.54,11.67,10.83,19,23.37,19.73a279.69,279.69,0,0,0,30.09-.11c7.64.63,15.79-2.2,22.69,3.32l8.32.2c.9.29,1.24.66,1,1.12s-.48.74-.75.74c-11.27,1.63-22.84,1.07-33.87,4.5-5.75,4.83-12.67,5.47-19.43,6C523,510,523,510,544.62,517.69Z"/><path class="cls-149" d="M361,365.43l3.11-2.35c9.1-4.28,16.8,2.69,25.32,3.12,11,2.38,22.06,3.91,33.14,5.59,3.16.48,8.18.29,8.12,4.09-.08,4.78-5.39,4.09-8.89,4.47-10.53,1.16-20.66-3-31.15-2.5-6.57-1.31-13.14-2.83-19.95-2.21-2.19.19-4.88-.06-5.65,2.55-.56,1.89,1.12,3.45,2.38,4.83,10,10.86,20.72,20.42,35.9,23.65,6,1.27,12.88,1.29,17.09,7.19-.21,2-.92,3.27-3.23,2.35-22.39-3.09-42.58-10.45-56.11-30-2.86-4.15-8.84-8.06-6.36-13.6,2.34-5.24,9-.51,13.65-3C366.84,366.36,363.31,366.86,361,365.43Z"/><path class="cls-150" d="M417.15,416.21l2.58-2.12c1.94-2.65,4.71-2.75,7.61-2.5,18.2,2,36.29,5,54.65,5.58,4.28.14,10.82-.27,10.79,5.32,0,6.51-6.94,5.41-11.5,5.74a118.06,118.06,0,0,1-14.57,0c-9.61-1-19,2.18-28.66,1.23a7.74,7.74,0,0,1-4.65-3.12,2.81,2.81,0,0,1,.21-3.47l4.19-.44c4.19-1.79,8.68-.1,12.5-1-3.9,0-8.27.76-12.57-.5A58.63,58.63,0,0,1,417.15,416.21Z"/><path class="cls-151" d="M270.14,231.93c-2.39,3.44-4.71.31-7.06-.08-17.06-5.74-33.42-13.22-48.33-23.19-10.69-7.14-15.93-18.47-17.71-31.24l2.65-.18a6.45,6.45,0,0,1,4.71,4.42c6.64,18.07,21.13,27.37,37.84,34.23,1.4.69,2.76,1.43,4.15,2.14,1,.41,1.87.89,2.79,1.38C255.66,224.43,265.74,223.43,270.14,231.93Z"/><path class="cls-152" d="M485.57,465.65l-2.65-2.29L480.87,461a15.34,15.34,0,0,0-11,.05,9,9,0,0,1-7.56-1.45,6.41,6.41,0,0,1,3.8-4.59c13.18-3.12,26.54-1,39.81-1.37a28.54,28.54,0,0,0,9.27-1.18,22.55,22.55,0,0,1,9.43-.27c5.36,1.87,5.74,4.64,1.47,8.24-10.43,2.17-20.91,4.15-31.24,6.83C491.65,468.08,488.25,468.58,485.57,465.65Z"/><path class="cls-153" d="M555.78,524.57l.07,2.39c0,9.13,8.91,17.76,17.47,16.34,7-1.17,13.92-3.28,20.88-5,2.4-1,2.76.2,2.34,2.21-4.8,1.79-7.75,7.05-13.41,7.24-13.38,1.49-24.73-1.19-31-14.79C550.23,528.71,548.81,524.91,555.78,524.57Z"/><path class="cls-154" d="M465.13,457.06l-2.82,2.53c-17.3-3.84-33.56-20.73-33.45-34.76a3.26,3.26,0,0,1,4.32-.07l2.43,2c3.18,11.21,12.55,17,20.84,23.63C459.29,452.68,463.34,453.38,465.13,457.06Z"/><path class="cls-155" d="M580.94,549.86c4.09,4.67,7.91,9.81,15.28,8.64,2.27-.73,2.95.23,2.52,2.37-8.63,5.67-14.43.16-20-5.32C575.66,552.54,576.71,550.41,580.94,549.86Z"/><path class="cls-156" d="M598.74,560.87l-2.52-2.37,16.38-8.9a2.7,2.7,0,0,1,2.51,2.77l-.09.09Z"/><path class="cls-157" d="M242.52,307.23l2.34-2.21,19.22,4.74c-1.51,2.7-3.68,1.45-5.34,2C253.24,310.59,247.55,310.09,242.52,307.23Z"/><path class="cls-158" d="M437.73,420.87c3.93-.56,7.85-.82,12,.66a21,21,0,0,1-12,.87A11.2,11.2,0,0,0,437.73,420.87Z"/><path class="cls-159" d="M256.43,234.5c-4.5,2.64-9,2.83-13.41-.16C247.5,233.17,252,233.72,256.43,234.5Z"/><path class="cls-154" d="M469.87,461c3.65-2.92,7.32-2.37,11-.05Z"/><path class="cls-81" d="M166.2,161.06l4,.83c-1.39,1.65-3,2.2-4.89.91A17.34,17.34,0,0,1,166.2,161.06Z"/><path class="cls-158" d="M433.18,424.76l-4.32.07a4.15,4.15,0,0,1,4.75-2A8.35,8.35,0,0,1,433.18,424.76Z"/><path class="cls-138" d="M615.11,552.37l.84.52-.93-.43Z"/><path class="cls-153" d="M583.25,547.6c0,1.66-1,2.37-2.49,2.48C580.93,548.6,581.52,547.53,583.25,547.6Z"/><path class="cls-157" d="M241,304.25,238.2,303Z"/><path class="cls-83" d="M75.19,129.4l-2.39,1.79c-.71-2.69,1.79-1,2.44-1.77Z"/><path class="cls-16" d="M546.4,345.18c4.23.84,4.09-1.27,2.8-4.16l4.48.47c1,.4,1.89,1.29,3.12,1.15,12,.37,24,1.4,35.84-1.46l21.5-.72c4.31-.15,9.09-3.22,12.54,2-9.1,6.67-20,4.91-30.15,6.06-22.79,2.57-45.71,2.78-68.62,2.46-2.2,0-4.48-.09-6.92,2,5.46,9,11.31,15.67,23,17.14,14.33,1.82,28.44,1.31,42.67.47,5.2,1.75,11,.5,16,3.19,1.23,8.29-5.45,6.05-9.17,6.2-15.37.64-30.77,0-47.1.43,1.17,3.93,4.46,5.17,6.73,7.09,19.6,16.57,41.17,30.24,63.4,42.93,3.56,2,7.55,3.49,9.94,7.17a2.87,2.87,0,0,1-.27,3.23c-54.26-24.07-99.3-59-129.94-110.84-.89-1.5-1-3.47-1.45-5.21,9.22,19.6,26.43,21.09,44.87,19.95A47.78,47.78,0,0,1,546.4,345.18Z"/><path class="cls-160" d="M626.06,342.42c-3.65-2.61-8-.68-11.91-2,31-3.93,61.92-9,93.33-9,3.6-.37,8-3.5,9.76,2.7-7.85,4.81-16.69,4.84-25.44,5.33-15.52-1.15-30.67,2.38-46,3.75C639.23,343.87,632.48,346.34,626.06,342.42Z"/><path class="cls-161" d="M716.91,333.73c-2.57-3.16-6.34-1.26-9.43-2.23,9-3.75,18.5-2,27.73-2,16.82.1,33.64,1,50.24,4.17l-4.9,2.27a6.54,6.54,0,0,1-5.88,2.85c-16.92-1.79-33.93-.61-50.86-1.72A8.79,8.79,0,0,1,716.91,333.73Z"/><path class="cls-162" d="M532.86,311.89c19.76,9.32,40.4,16,61.61,21.17-23.18.08-43.67-8.83-63.74-19.21A3.28,3.28,0,0,1,532.86,311.89Z"/><path class="cls-16" d="M532.86,311.89l-2.13,2c-16.73-8.52-34.58-15.27-47.44-30,10,2.6,16.71,11.44,26.66,14.15Q521.4,305,532.86,311.89Z"/><path class="cls-163" d="M866.7,357c-2.66,3.3-4.57.76-6.35-1-6-5.84-11.94-11.79-20.17-19.95,12.27,3.48,17.26,11.46,24.5,16.17C865.9,353.62,868.32,354.46,866.7,357Z"/><path class="cls-164" d="M866.7,357c-.67-1.58-1.34-3.17-2-4.75l3.91.31q1.47,2,2.95,4a5.32,5.32,0,0,0,2,2.46l0-.05a25.47,25.47,0,0,0,2.25,2.4l-.06-.05c.05.75.08,1.5.08,2.25L873.34,366Q870,361.48,866.7,357Z"/><path class="cls-71" d="M626.06,342.42c22-2.66,43.87-6.57,66.15-5.89-1.65,6.61-7.18,3.3-8.29,3.65,15.73,6.31,34.52,10.61,53.44,14.34-3.35,3.69-7.77,2.14-11.73,2.19-17.64.22-35.31-.51-52.85,2.32a30.52,30.52,0,0,0-15.89,6.68c18.26-.78,33.64-5.3,48.69.11-5.89,5-13.55,4.38-20.22,4.82-12.26.82-24.47,2.09-36.72,3a230,230,0,0,1-60.74-.28c-13.17,1-26.43,0-39.51.66-19.36.92-26-12.92-37.07-27C551.34,349.64,588.73,346.48,626.06,342.42Z"/><path class="cls-165" d="M737.36,354.52c-14,2.55-29.65.19-39.87-6-9.39-5.7-18.4-2.76-27.76-7.16,7.33-5.57,16.15.06,22.48-4.82l24.7-2.8c21.26-.4,42.46.61,63.64,2.25,19.52,3.06,39.51,4.53,56.32,16.76-.23,4.29,3,7.49,4.29,11C805.79,364.47,772.24,352.39,737.36,354.52Z"/><path class="cls-166" d="M648.86,370.67l56.72-4.85c19.59-.43,39-4.46,58.72-2.54,4.81.47,9.86-.43,14.33,2.27l-2.83,2.77c-9.24,4.87-19,2.43-28.61,2.11C733.29,370,719,369,710.79,384c-9.95,14.2-19.06,29-31.12,41.67-3.83,4-6.59,9.46-13.27,9.42-2.58-1-3.18-3-2.76-5.48,9-12.42,20.83-22.55,29.28-35.52,4.08-6.28,8.65-12.23,12.64-20.22a82.22,82.22,0,0,0-22.2.23c-4.46.67-8.9,1.88-13.39,1.42-9.16-.94-16.83,1.35-22.39,9.08-3.76-1.44-3.92-5-4.74-8.12a7.69,7.69,0,0,1,.49-3.18C644.57,371.13,647.25,372,648.86,370.67Z"/><path class="cls-167" d="M803.2,375l2.25-2.27c7.68,2.7,16.34,2.89,22.69,9,0,.79-.09,1.58-.14,2.37C818.58,384.22,809.33,383.9,803.2,375Z"/><path class="cls-168" d="M803.2,375l24.8,9.07-.39,11.39-23.06-11.28C804.28,381.09,796.46,379.12,803.2,375Z"/><path class="cls-169" d="M839.85,395.12c-2.83.46-3-1.1-3.07-2.57s0-3.24,1.69-3.61a2.22,2.22,0,0,1,2.7,2.63A13.16,13.16,0,0,1,839.85,395.12Z"/><path class="cls-170" d="M732.94,459c5.47,12.07,15.2,21.1,22.67,31.73-3.34,8.42-8.46,15.93-12.15,24.2-2.74,6.14-8.82,8.52-15.08,8.1-15.67-1-30.18-5.65-42.63-15.78-4.17-3.39-4.53-8.54-6.82-12.76a13.23,13.23,0,0,1-2.5-3.65c-.46.9.4,1.44.59,2.17,1,3.76,3.15,7.92-3.06,9.32-1.84-2.19-6.68-.5-6.63-5.14-.06-12.62-5.79-23.87-8.64-35.83-.35-9.61,5.46-13.88,13.89-14,13.32-.12,26-1.59,37.42-9.29,3.64-2.45,7.92-1.51,11.92-.15Z"/><path class="cls-171" d="M680.56,493.32c9.38,20,27.41,25.07,47,27,7.28.71,12.48-2.22,15.36-10.15,2.6-7.19,5-15.26,12.69-19.39h-.05a7.58,7.58,0,0,0,2.44,2.31c5.62,4.64,11.18,9.36,16.89,13.9,2.65,2.1,4.31,4.07,1.13,7L764.7,525.11c-24.84,6.3-48.45-.28-71.94-7.17a20.78,20.78,0,0,1-14-13.33C676,500.3,678.51,496.85,680.56,493.32Z"/><path class="cls-172" d="M660.49,461.22c3.07,11.84,9.64,23,6.84,36-4.53-10.35-4.81-22.2-11.23-31.88a30.82,30.82,0,0,1-10.87-15.44,11.42,11.42,0,0,1,2.14-6.16c12-12.65,13-8.22,5.35-26.77-3.33-8-6.4-16.14-6.38-25,1.09-3.33,3.41-9.79,6.07-3,4.9,12.48,9.69,25.17,13.37,38.17.17.6-.48,1.36-.91,2,0,1.88.14,3.71,1.92,4.89,1.47,1.25.48,2.28-.28,3.34a19.05,19.05,0,0,1-2,1.73c-.32.28-.67.55-1,.83-.62.59-1.27,1.15-1.91,1.73-.29.31-.61.59-.91.9-.57.65-1.17,1.26-1.76,1.88-.27.33-.57.64-.84,1a17.83,17.83,0,0,0-1.29,2.18,7.33,7.33,0,0,0,.52,5c.63,1.21,1.14,2.47,1.69,3.71C659.75,457.82,661.44,459.14,660.49,461.22Z"/><path class="cls-173" d="M646.49,450.12c4.3,4.38,8,9.13,9.61,15.21-2.45,3.29-4.94.85-6.55-.57-6.91-6.08-13.3-12.73-21.72-16.94-2.16-1.08-4.76-3.79.64-4.58C636.53,440.15,642.19,443.35,646.49,450.12Z"/><path class="cls-174" d="M680.56,493.32q-.91,5.65-1.82,11.29a4.08,4.08,0,0,0-.5,1.9,26.24,26.24,0,0,0-1.7,2.59c-2.45,2.64-4.14,3.46-3.38-1.45.27-1.77.53-3.53.8-5.3,5-6.67-1.82-12.51-1.43-19.12C677.21,485.22,677.15,490.67,680.56,493.32Z"/><path class="cls-175" d="M646.49,450.12c-5.5-3.63-11.91-4.87-18-6.88l-2.27-2.44a13.13,13.13,0,0,0,0-2.08c9.24-3.37,15.87,2.09,22.73,6.75Z"/><path class="cls-171" d="M676.54,509.1l1.7-2.59Z"/><path class="cls-115" d="M556.8,342.64l-3.12-1.15Z"/><path class="cls-136" d="M873.5,359l-2-2.46Z"/><path class="cls-136" d="M875.71,361.39l-2.25-2.4Z"/><path class="cls-132" d="M231.59,306.82c-3.42,3.84-7.39,1.63-11.28.49l9.56-.84C230.6,305.79,231.17,306,231.59,306.82Z"/><path class="cls-157" d="M231.59,306.82l-.81-.43-.91.08a8.91,8.91,0,0,0-1-1.56c2.66-.66,5.24-.89,7.37,1.35Z"/><path class="cls-94" d="M526,458.77c3.24-3.14,1.17-4-1.88-4.37-11.18-2.22-22.88,2.42-33.92-3.12-5.32-2.67-11.75-3-9.4-12,1.44-5.51-4.37-3.38-7-4.27-4.87-1.67-12.42-.55-8.67-9.78L490.69,424c-21.32-5.68-43.51-4.2-64.67-9.92.14-1-.17-1.59-.9-1.56-6.66.2-11-4-12.57-9.35-1.76-6,6.35-5.09,9.45-10.49-13.74-1.66-24.51-8.45-33.91-17.58l40.77,2.61c-13.61-4.15-27.82-4.31-41-9.43-1.88-4.49-6.91-5.75-9.58-9.57-5.1-7.29-4.19-10.18,5-13.38a63.05,63.05,0,0,1-12.08-3.95c-4.95-2.15-6.61-6-5.32-11.07,1.34-5.27,5.56-5.59,9.92-5,3,.43,5.93,1.2,8.88.42,1.28.64-.41-.22,1-.22.81,0,.46-.28-.68-.56-9.74-2.4-20.43-1.76-28.76-8.77-9.79-4.24-20.58-5.85-29.88-11.39,1.15-6.85-4.35-9.66-8.07-13.67-7.22-7.79-6.92-11.14,2.25-17.1-15.37-.73-19.29-12.9-25.5-22.64-1.47-2.31-2.11-4.86.66-6.93,15.11,3.08,29.52,8.53,44.11,12.93a2.76,2.76,0,0,1,1.6.77c.16-.67-.2-.92-1.18-.79-17.76-5.35-35.17-11.5-53.13-15.83a31.69,31.69,0,0,1-14.5-8.24l-2.49-1.38c-7.15-4.61-16-5.93-22.63-11.54-.54-1-1.28-1.85-1.88-2.8-1.95-3.08-5.55-6.15-3.12-10,2.82-4.51,7.27-2.23,10.77-1.34-11.29-4.66-21-19.81-19.47-30.76,19.11,3.06,35.9,12.71,53.83,19.11,6.7,2.39,13.26,5.16,20.42,5.93,4.13.11,8.09,1.14,14.61,2.83-5.88-1.75-9.62-2-11.9-5.23C270.59,185.26,232,168.45,193.9,150.5c-14.53-6.84-22.66-18.16-25-33.77-1.21-7.91.66-13.65,10.63-11.92,9.26,1.61,18.59,2.85,27.8,4.71,11,2.22,22,4.86,33.36,4.07,22,7.65,44,15.1,65.11,25.23A482.67,482.67,0,0,1,375,179.42c25,17.61,40.28,42.37,52,69.92,6.49,15.31,11.63,31,16.57,46.88,10.64,34.26,32.68,61.17,60,83.45,23.07,18.81,47.34,36.13,71.08,54.11-7,6.17-17.3,11.21-7.79,23-11.91,9.27.81,21.71-4.11,31.88a108.91,108.91,0,0,1-24.94-.08c-1.89-1.75-4.23-1-6.39-1.15-3.54-.3-8.56,1.28-9.24-3.79-.61-4.58,4.29-5.28,7.63-6.65,1.35-.55,3-.75,3.51-2.64-2.68-3-5.45-.43-8,.13-5.07,1.11-9.67.44-13.81-2.71-2.09-1.58-4.39-3.24-3.92-6.3.51-3.36,3.56-3.49,6-3.91C517.75,460.86,522.37,462.05,526,458.77Z"/><path class="cls-94" d="M580.84,438.61l-2.32-2Z"/><path class="cls-94" d="M578.31,436.42l-1.88-1.58Z"/><path class="cls-66" d="M227,104.93c-2.18,2.1-3.51,1.4-4.24-1.29Z"/><path class="cls-66" d="M231.56,107c-1.34,1.67-1.78.7-2.08-.71Z"/><path class="cls-176" d="M544.62,517.69c-11.77,2.84-20.16-2.39-27.52-11-4.14-4.83-2.76-7,2.7-8.11,5.86-1.2,11.75-2.26,17.63-3.38.93,1.5,1.53,3.66,2.88,4.37,3.06,1.6,10.46,0,9.42,2.33C547.44,507.09,549.51,513.63,544.62,517.69Z"/><path class="cls-177" d="M596.54,540.54l-2.34-2.21c2.92-2.44,6.4-3.28,11.12-3.85C603.22,538.81,599.73,539.46,596.54,540.54Z"/><path class="cls-94" d="M571.3,490.72a6.54,6.54,0,0,0-.27-1.86l1.66.75Z"/><path class="cls-178" d="M574.15,804.56l-2.32,2.28c-7.17-.22-15.2,6.34-22-3.66,7.25.92,13.87,3.47,20.07-.36l3.79-.12A4,4,0,0,0,574.15,804.56Z"/><path class="cls-107" d="M656.08,454.56c-1-3-8-5.65-.59-9.21a12.79,12.79,0,0,0,2.47-2.23h0c.8-.7,1.52-1.47,2.31-2.19l0,0a3.32,3.32,0,0,1,2.89-.78c15.54,1.57,29-1.94,40.49-13.63a46.47,46.47,0,0,0,13.1-26.8c.49-3.37,3.23-9.58-5.58-8.35-3.24.46-3.19-4.39-3.43-7.36,6.35-18.07,22-16.86,36.46-17.11,10.51-.18,21,.91,31.56,1.44C763.6,382.7,749,394.7,735.92,408.15c-8,8.23-18,15.82-14,29.83a46.17,46.17,0,0,0-19,7.36c-8.48,5.7-18.6,4.91-28.35,4.62-7.92-.24-13.36,2.54-14.12,11.26l-2.6-4.18C657.28,456.22,656.68,455.39,656.08,454.56Z"/><path class="cls-179" d="M760,459.14c.26,13.67,10.2,23.94,12.88,36.77.35,1.69,1.25,3.26,3,7.62-17.34-12.49-27.55-27.34-38.11-41.79,3.05-4,4.82.48,7.74.13-.21-3.59-.84-7-3.47-9.75.29-2.44-1-5.11,1.91-8.28C745.9,453,754.8,453.88,760,459.14Z"/><path class="cls-170" d="M758,493.06l-2.44-2.31Z"/><path class="cls-180" d="M233.81,175.47c5,14.94,11.92,28.18,29.14,33.05-6.83,2.94-12.35-1.92-18.22-1.25-3,5.52,6.32,7.89,2.78,13.12l-2.36-.69a9.93,9.93,0,0,1-2.47-1.46c-21.26-6.37-36.26-19.33-43-41-1.83-6.13-.85-9.42,6.69-7.59C215.46,171.86,224.66,173.55,233.81,175.47Z"/><path class="cls-181" d="M310.77,198.11c6,1.56,12.47,1.8,17.52,5.88-.25,1-.49,2-.74,3l-19.49-6.53Z"/><path class="cls-81" d="M295.11,245.34c6.28,14.51,15.19,26.55,34.39,30.06-7.08,4.77-13.47-1.09-14.24,4.58-.64,4.78,3.56,9.61,8.17,12.46,5.26,3.25,10.31,6.22,3,12.37-15.54-6.51-31.27-12.59-46.56-19.64-17.8-8.2-26.45-24.71-35-41.07a4.76,4.76,0,0,0-1.65-3.22c5.09-7.09,12.13-.84,18-2.63,2.32-.91,4.6-1.35,6.76.4,2.7,2.06,5.91,1.84,9,2C284.06,238,289.88,240.51,295.11,245.34Z"/><path class="cls-116" d="M385.76,327.67c-2.53,2.52-5.43,1.93-8.38,1-3.5-1.1-7.54-3.32-9.33,2-2,5.94,2.28,7.66,6.84,9.29,5.73,2,12.18,2.72,17.09,7.17-1,1.24-1.4,2.1-1.94,2.25-4.13,1.08-10.45-5-12,.44-2.21,7.63,6.85,10.31,11,15.22.93,1.11,4.18-.33,3.06,2.56-.25.67-2.76.46-4.22.66l-23.75-5.19c-6.91-2.84-13.64-6.3-20.78-8.38-20.33-5.94-26.2-23.77-36.08-41.53l49,5.79C366.37,320.83,377.07,320.83,385.76,327.67Z"/><path class="cls-151" d="M295.11,245.34l-18.18-4.69-4.3-7.34L344.81,257c.65,2.23-.19,3.12-2.45,2.7Z"/><path class="cls-182" d="M385.76,327.67c-9.63-3.64-20.27-3.87-29.54-8.71,0-.92,0-1.84,0-2.76,12.77,3.15,26.07,4.5,38.92,10.22C391.34,330.46,388.5,326.69,385.76,327.67Z"/><path class="cls-151" d="M267.89,238.65l-6.76-.4C263.54,235.72,265.8,235.74,267.89,238.65Z"/><path class="cls-80" d="M243.14,240.88l1.65,3.22Z"/><path class="cls-183" d="M526,458.77c-3.31,7.49-11.33,2.9-17.15,6.52,5.54,6.65,11.07,10.43,19,4.83,3.34-2.35,6.21-2.15,9,.68,1.32,1.34,2.87,2.76,2.25,4.82-1.07,3.6-4.19,3.91-7.27,3.89s-5.77,1.19-8.47,3.06c3,7.12,11.05.84,14.36,6-11.18,1.28-22.36.1-33.43-1-10.62-1-16.56-9.28-21.95-17.42-1.83-2.77,1.22-3.64,3.19-4.55C499.3,464.88,512,457.78,526,458.77Z"/><path class="cls-184" d="M388.09,375.09c13.22,1.75,21.28,15.73,35.91,14.88,3.9-.23,5.22,3.08.95,6.63-3.28,2.74-7.61,2.51-11.92,5.93,6.21,1.83,7.1,9.28,13.81,9.69a3.08,3.08,0,0,1-.08,1,3.41,3.41,0,0,1-.74.84l-6.29,0c-21.74-4.75-42.1-12-56-31-1.72-2.34-5.44-4.21-3.92-7.38,1.37-2.86,5.18-2.57,8.22-2.6C374.76,373.08,381.57,372.57,388.09,375.09Z"/><path class="cls-185" d="M465.16,425.23c-.27,4.77,1.95,7,6.71,6.53,6.12-.62,11.39,2.24,17.31,3.16-.88,5.12-9,3.66-7.06,9.29,1.56,4.48,6.95,2.1,9.68,3.94,10,6.78,22.17,1.17,32.32,6.25l-8.27.44c-2.38,1.1-5.08.39-7.49,1.32-14.39,1.62-28.81,1-43.23.9-13.43-3.71-21.83-13.89-30.33-23.86-1.76-2.06-4.73-5,.81-6.43Z"/><path class="cls-94" d="M242.68,218.24l2.47,1.46Z"/><path class="cls-94" d="M508.36,456.16c2.18-2.21,4.84-1.7,7.49-1.32C513.55,456.4,511,456.36,508.36,456.16Z"/><path class="cls-186" d="M641.39,374.27l-37.41.91c-5.27-1.39-11,1.27-16.08-1.85l61-2.66-5,2.41C643,373.46,642.21,373.85,641.39,374.27Z"/><path class="cls-100" d="M648.56,393.47c-2.21-2.87-2.24-6.12-1.69-9.47,1.47-9.17,7.33-11.31,15.83-11.19,15.7.21,31.26-3.75,48.69-2-14.31,21.07-25.83,43.21-46.52,58.26-6-13.07-12.6-26-14.39-42.65C649.48,390.11,649,391.79,648.56,393.47Z"/><path class="cls-187" d="M707.78,384c3.09,6.89,7.14,7.39,12.28.37-.29,16.58-.61,31.71-13.3,42.79-5.34,4.67-10.87,9.16-16.56,13.4-3.76,2.8-7.57,6.44-12.66,1.42-2.13-2.1-5-.58-7.12,1.2-3.76,3.13-6.08,1.35-7.88-2.28-.64-.5-.82-1-.55-1.36s.51-.58.75-.58l.15-.17a5,5,0,0,1,2-2.16l1.9-2.65C683.8,420.06,695.23,401.56,707.78,384Z"/><path class="cls-71" d="M641.39,374.27l2.47-1.19a1.09,1.09,0,0,1-.52,1.05Z"/><path class="cls-170" d="M656.08,454.56l1.81,2.47Z"/><path class="cls-170" d="M658,443.12l-2.47,2.23Z"/><path class="cls-170" d="M660.26,440.94,658,443.13Z"/><path class="cls-170" d="M662.74,439c0,.65-.1,1.3-.2,1.94-.74,0-1.48,0-2.23,0Z"/><path class="cls-170" d="M664.89,436.62l-2,2.16Z"/><path class="cls-188" d="M342.36,259.69l2.45-2.7c1.79,0,4.46.11,3.58,2.4C347.14,262.68,344.5,261.37,342.36,259.69Z"/></g></g></svg>