<svg xmlns="http://www.w3.org/2000/svg" viewBox="0 0 975.29 861.15"><defs><style>.cls-1{fill:#0a0809;}.cls-2{fill:#0b0a0b;}.cls-3{fill:#121012;}.cls-4{fill:#070606;}.cls-5{fill:#1c191c;}.cls-6{fill:#1d1b1a;}.cls-7{fill:#0e0c0e;}.cls-8{fill:#0c0a0c;}.cls-9{fill:#0d0b0c;}.cls-10{fill:#141214;}.cls-11{fill:#191717;}.cls-12{fill:#161515;}.cls-13{fill:#1f1c1f;}.cls-14{fill:#171615;}.cls-15{fill:#231f23;}.cls-16{fill:#232023;}.cls-17{fill:#111;}.cls-18{fill:#161413;}.cls-19{fill:#181716;}.cls-20{fill:#181615;}.cls-21{fill:#2a252a;}.cls-22{fill:#1a1919;}.cls-23{fill:#3d3a37;}.cls-24{fill:#4c4946;}.cls-25{fill:#2f292f;}.cls-26{fill:#4b4743;}.cls-27{fill:#454342;}.cls-28{fill:#4a4745;}.cls-29{fill:#886c8d;}.cls-30{fill:#a083ac;}.cls-31{fill:#d6c4ae;}.cls-32{fill:#8d7090;}.cls-33{fill:#fefefe;}.cls-34{fill:#be9ba1;}.cls-35{fill:#946c78;}.cls-36{fill:#dec1c7;}.cls-37{fill:#d2d3de;}.cls-38{fill:#a285ac;}.cls-39{fill:#f1e3ce;}.cls-40{fill:#ecdcc7;}.cls-41{fill:#cea9b1;}.cls-42{fill:#c08ea4;}.cls-43{fill:#342d2c;}.cls-44{fill:#323132;}.cls-45{fill:#e7e7ed;}.cls-46{fill:#a185ac;}.cls-47{fill:#b7a2c1;}.cls-48{fill:#876b8c;}.cls-49{fill:#b89e7f;}.cls-50{fill:#8b6f8f;}.cls-51{fill:#9d80a8;}.cls-52{fill:#cab195;}.cls-53{fill:#ccc4b0;}.cls-54{fill:#aca291;}.cls-55{fill:#876c8c;}.cls-56{fill:#b4a0bf;}.cls-57{fill:#9e82aa;}.cls-58{fill:#b3aa9e;}.cls-59{fill:#886c8c;}.cls-60{fill:#f3e3ca;}.cls-61{fill:#b5aca0;}.cls-62{fill:#765f82;}.cls-63{fill:#d1c1ae;}.cls-64{fill:#8a7091;}.cls-65{fill:#b5aba0;}.cls-66{fill:#393636;}.cls-67{fill:#392e33;}.cls-68{fill:#f1e1ca;}.cls-69{fill:#d0c0ae;}.cls-70{fill:#9d80a7;}.cls-71{fill:#cebeaa;}.cls-72{fill:#ccbca8;}.cls-73{fill:#8d7193;}.cls-74{fill:#3e303e;}.cls-75{fill:#8c7090;}.cls-76{fill:#b6a2c1;}.cls-77{fill:#cebea9;}.cls-78{fill:#0f0c0e;}.cls-79{fill:#a288ae;}.cls-80{fill:#b39ebe;}.cls-81{fill:#38332f;}.cls-82{fill:#e7d8c3;}.cls-83{fill:#efdec8;}.cls-84{fill:#f1e0ca;}.cls-85{fill:#0e0a0b;}.cls-86{fill:#171414;}.cls-87{fill:#181317;}.cls-88{fill:#120f0f;}.cls-89{fill:#24201f;}.cls-90{fill:#efdfc9;}.cls-91{fill:#dacab6;}.cls-92{fill:#181515;}.cls-93{fill:#46394a;}.cls-94{fill:#291f29;}.cls-95{fill:#ecdfc7;}.cls-96{fill:#f2ead6;}.cls-97{fill:#fdfdfd;}.cls-98{fill:#d4d4df;}.cls-99{fill:#8f494d;}.cls-100{fill:#b2515a;}.cls-101{fill:#f9f6f6;}.cls-102{fill:#d8786d;}.cls-103{fill:#8e494d;}.cls-104{fill:#b69b7e;}.cls-105{fill:#d7bfa6;}.cls-106{fill:#c7ae93;}</style></defs><title>Recurso 6</title><g id="Capa_2" data-name="Capa 2"><g id="Capa_1-2" data-name="Capa 1"><path class="cls-1" d="M11.7,580.35C5.58,580.46.35,576.51,0,571.81c-.38-5.28,6.47-6.35,11.09-7.69,6.89-2,14.16-4.12,21.13-2.85,13.18,2.41,23.84-2.18,34.92-8.48,20.75-11.8,43.5-18.74,66.58-24.37,5.58-1.37,7-3.62,8.25-9.43,3.1-14.93,1.74-27.88-8.59-39.83-3.23-3.74-4-9.65-5.82-14.56-1.12-2.28.15-3.09,2.11-3.5,5.53,2.09,6.47,7.83,9.46,11.93,22.52,32.85,23.78,28.6,54.85,23.41,11.53-1.92,23-4.53,34.46-6.85s21.14.72,29.13,8.59c15.08,14.86,30.58,29.29,44.35,45.47,9.6,11.28,22,19.62,33.46,28.83,12.22,9.8,22.13,21.87,31.45,34.09,15.45,20.26,8.88,60.08-11.16,76.59a4,4,0,0,1-4.19-2.28c-.94-4.27,1.59-7.46,3.36-10.89,2.41-4.13,3.47-8.76,4.88-13.26,3-8.25,3.14-17,4.74-25.52,1.07-5.72-1.17-10.43-4.18-14.81-8.56-12.45-18.83-23.34-30-33.52-6.64-6-10.78-4.36-15.48,2a165.7,165.7,0,0,0-26.08,52.29,36.16,36.16,0,0,0-1.78,9.5c-5.34,29,5.06,44.26,34,49.79,1.65,1,2.77,2.25,2,4.36-21,9.71-42-3.3-46.12-28.54.71-4.51-2.66-8.5-1.7-13.06a33.4,33.4,0,0,1,.5-3.33c5.65-22.54,5.67-22.68-17.32-25.42-15.64-1.87-31.34-3.3-47-4.92,1.12-2.24,3.12-3.35,5.32-4.2,17.85-3,35.2,3.25,52.91,3,3.2-.05,7.2,2.69,9.41-1,2-3.26-.73-6.65-2.5-9.38-12.32-19-24.42-38.22-39.24-55.51-4.85-5.67-7.36-3.11-10,1.64-5.68,10.3-10.86,20.89-14.42,32.07C207.57,608.86,197.71,614,178,607.35c-7.84-2.65-15.31-6.49-22.83-10s-13.1-8.93-14.23-17.77A137.53,137.53,0,0,1,138.48,546c.37-7.88-3-9.7-10.32-7.9a239.65,239.65,0,0,0-55.61,20.79c-18.89,9.31-18.91,9-43.29,10.6-5.64.36-14.72-2.31-14.09,9C14.66,580.26,13.71,581.29,11.7,580.35Z"/><path class="cls-2" d="M250.05,183.88c2-3.47,4.9-6.36,9-5.58,21.09,4,41.8,8.36,59,23.35,18.32,16,22.72,36.83,23.45,59.13.49,15.06.2,15.83,14.6,14.91,6.55-.41,12.75.69,19,2.09-1.19,6.24-6.41,4.43-10.34,5.22-38-2.7-73.13,5.54-104.69,27.52-17.06,11.87-31.89,26.24-46.3,41.11-9.35,7.55-12.78,19.15-19.46,28.52-8.88,12.47-21.13,17.9-36.35,16.68a2.08,2.08,0,0,1-.53-3c7.41-2.29,6.91-5.32,1.87-10.47-20.1-20.54-43.62-37.16-64.19-57.12-2.48-2.41-8.36-4.39-5.9-8.31,2.78-4.43,7.49-.5,11,1.23,28.44,14.14,54.64,31.91,80.06,50.81,6,4.49,9,3.45,12-2.42a6.15,6.15,0,0,1,1.2-1.9c18.18-15.65,21.56-35.1,15.64-57.52-2.43-9.18-.17-18.75.65-28.12,5.46.57,4.28,5.12,5.11,8.47.18,10.11-.92,20.35,2.46,30.19.9,2.62.81,7,4.79,6.42,4.14-.63,4.38-4.88,3.87-8.23a126.69,126.69,0,0,1-1.22-24.75c1.07-24.43,8.12-47.19,19.54-68.68.53-.95,1.15-1.86,1.76-2.75.84-1.36,1.68-2.71,2.44-4.11,2.74-3.46.35-10.51,5.39-11.38,5.71-1,8.48,5.09,11.81,9,1.21,1.42,2.31,2.94,3.49,4.4,9.93,16.71,16.27,34.76,17.93,54.07.73,8.43,3,10.72,11,7.68a96.55,96.55,0,0,1,26.33-6c7.07-.59,11.43-4.52,10.75-11.81-2.52-27.4-10.24-51.92-37.91-64.56-14.17-7.08-28.95-11.42-45-10C250.49,187.17,249.2,186.1,250.05,183.88Z"/><path class="cls-3" d="M676.69,157c-19.43,5.1-37-2.58-52.72-11.28-28.65-15.86-46.05-41.87-54.1-73.5-6.71-26.34,3.77-61.36,40-70.15,21-5.12,39.91.31,59,5.3,21.86,5.71,42.29,15.75,62.08,26.83,16.35,9.15,29.07,22.39,41.37,36.15.87,2.27-.47,3.2-2.3,3.84-4.69.09-7.55-3.14-10.42-6.05-32.81-33.28-73.86-49.83-118.62-59-12.15-2.48-24-1-35.71,2.33-22,10.3-32.5,29.57-28.33,52,1.43,25.5,14.91,44.55,32.7,61.28a27,27,0,0,1,2.61,1.88c1.28,1,2.49,2.05,3.69,3.14,13.5,12.87,30.85,16.94,48.17,21.07C668,153.31,675,149.79,676.69,157Z"/><path class="cls-4" d="M574.59,750a52.64,52.64,0,0,0-4.79,2.91c-6.49,4.91-11,5.32-10.51-5.6-27.56,30-55.4,58-87.63,81.29-4.52,3.27-9.54,5.83-14.33,8.72-1.94.83-2.92-.17-3.53-1.87a7.16,7.16,0,0,1,1.84-4.3c2.77-3.2,6.39-5.32,9.76-7.78,36.3-25.18,68-55,92.79-91.87.5-.94,1.07-1.83,1.64-2.73q1.2-2.12,2.51-4.15C586,692.19,604.65,657,620.84,620.4c2-4.47,3.65-9.19,6.95-12.87,2.94-3.27,6.24-5.27,7.27,1.61-1.18,6.48-3.85,12.51-5.71,18.79-5.7,14.4-13.23,27.92-20.29,41.66-2.94,5.73-3.32,9.85,3.07,12.87A6.27,6.27,0,0,1,614,685a3.49,3.49,0,0,1-1.3,2.79,10,10,0,0,1-4.53,1.29c-4.89-.31-9.86-.81-12.43,4.86-1.09,2.33.78,4.9-.53,7.21-2.61,3.12-6.24,5.23-8.65,8.83A132.3,132.3,0,0,1,600,701a12.4,12.4,0,0,1,4.58-1.56,3.75,3.75,0,0,1,2.74,1.5,5.13,5.13,0,0,1-.4,4.66c-10.48,8.51-22.47,15.31-30.9,26.15-3.11,4-9,8-3.33,14.38C573.89,747.12,575,748.18,574.59,750Z"/><path class="cls-2" d="M880.5,722.34c-1.19-2.67-1.73-5.43-5.82-5.81-34.16-3.12-61-20.27-83.22-45.23-5.14-5.77-8.49-5.18-13.87-1.45-23,15.95-48.91,24.71-76.19,29.26-9.37,1.56-15.93,5-20.78,13.27-7.11,12.06-17.21,20.86-31,24.81a5.45,5.45,0,0,1-4.76.07,3.82,3.82,0,0,1-.33-3.15c2-2.69,4.87-4.37,7.57-6.25,10-5.14,16.89-13.17,23.29-23.87-21.83-1-41.79-4.26-61-11.34-2.07-1.66-3.08-3.52-1.15-5.94l-.09.1a8.57,8.57,0,0,1,4.78-2.26c21.8,4.16,43.34,10.22,65.93,8.33a201.37,201.37,0,0,0,87.48-28.07c5.72-3.42,6.58-7.27,3.72-13.16-3.23-6.67-8.38-12.81-7.26-21a4.73,4.73,0,0,1,3.42-3.55c4.79,1.26,5.45,5.75,7.17,9.35,4.06,8.43,8,16.91,14,24.24,22.86,27.61,51.73,44.7,87.22,50.36,3.61.58,8.24.53,9,5.33.67,4.46-1.42,8.07-6,9.72C880.54,725.58,879.48,724.54,880.5,722.34Z"/><path class="cls-5" d="M770,73.05c.75-.9,1.5-1.81,2.26-2.71,33,31.55,60,67.41,78.57,109.37,16.23,36.7,29.3,74.63,35.81,114.19,9.74,59.28,11.16,118.34-14.77,174.82a5.11,5.11,0,0,1-3.78-4.12c2.71-14,7.38-27.56,10.55-41.49,9.52-41.87,7.51-83.75.62-125.65-1-5.95-1.13-12-2.44-17.86-12.58-43.89-24.11-88.21-48.17-127.72-15.35-25.21-34.18-47.81-54-69.63C772.31,79.63,768.14,77.86,770,73.05Z"/><path class="cls-6" d="M880.5,722.34l2.37,3c4.13,4.28,1.21,8.79.46,13.24a18.41,18.41,0,0,1-3.19,6c-5.53,6.3-12.63,10.71-19.22,15.71-7.09,5.38-11.56,12.63-16.33,20.77,11.31-2.93,20.22-7.79,26.63-16.73a19.9,19.9,0,0,1,5.92-5.21c2.54-1.54,5.63-4,8.16-1.41,2.87,2.93-.38,5.46-2.26,7.66C877.35,772,872.28,779,869.2,787.24c-4.05,8.77-5.29,17.59-.67,28,6.83-7.2,10.21-15.53,16-22a26.73,26.73,0,0,1,1.79-2.65,39.44,39.44,0,0,1,3.15-3.68c7-7.82,16.73-11.51,25.17-17.14,2.09-1.4,4.93-3,7.18-.49s.42,5-1.06,7.18c-3.87,5.59-8,11-10.59,17.38-1.37,3.82-3.87,7.39-2.58,12.41,4.67,1.14,7.15-2.81,10.4-4.79,7.91-4.92,14-12.11,21.73-17.29,1.11-1,2.24-1.94,3.31-3s2-2.19,2.84-3.37c3-4,5.38-8.77,10.94-10,1.83.15,2.67,1.34,3.06,3-13.1,21.28-34.33,33.31-54,47-6,4.22-6.63-2.61-7.12-6.19-1.32-9.73,3.37-18.19,9.06-29.2-16.32,7.52-21.83,20.4-29.06,31.69-1.41,2.21-2.13,4.89-3.69,6.94-5.25,6.89-9.38,6.46-13.46-1-4.79-8.83-4.11-18.18-3.07-27.66.26-2.39,3.1-5.18.1-7.22-2.45-1.65-5.06-.05-7.34,1.41-1.27.82-2.46,2-3.86,2.33-3.45.88-7.12,4.5-10.47,1.24-3.6-3.51-1-7.47.6-11.4,4.38-10.9,11-20.23,21.32-25.55C871.83,746.49,878.37,736.17,880.5,722.34Z"/><path class="cls-7" d="M959.83,770.79l-1.94-2.41a6.25,6.25,0,0,1-1.42-5c5.43-24.39,8.49-49.12,10.43-74,1.1-14.05-1.49-26.17-16.37-32.69-32.69-14.29-50.71-41.69-63.64-73.32a133.7,133.7,0,0,1-8.29-27.05c-2.22-18.49-8.39-36.39-8.15-55.25a5.8,5.8,0,0,1,4.06-3.81c4.51,14,6.91,28.44,9,42.93a171.78,171.78,0,0,0,36.73,85,74,74,0,0,0,28.7,21.52c19.21,8.25,28.18,22.62,26.07,42.85-2.38,22.85-2.23,46.05-8.27,68.46C965.43,762.8,963.62,767.34,959.83,770.79Z"/><path class="cls-8" d="M831.19,225.33c-9.19-13.26-14.71-28.54-24-41.87-20.11-28.77-46.27-50.07-76.53-66.91-5.4-3-9.32-2.33-11,4.23-2.63.88-4.25-.52-5.61-2.5-2.59-23.52-15.16-40.49-34.7-52.84-6.17-3.9-12.74-6.58-20.21-6.21-2.43.28-4.88.44-7.3.78a13.39,13.39,0,0,0-3.94,1.6c-2.12,1.31-3.88,3.5-6.81,2.83-2.16-1.45-2.42-3.57-2.1-5.9,6.57-10.63,15.89-14.41,27.39-10.74C677.08,51.24,687,56.34,695.44,64c9,8.5,17,17.78,21.71,29.54,2.32,5.81,6.72,9.79,12.07,12.8.93.49,1.82,1,2.71,1.59,1.39.78,2.77,1.59,4.14,2.41,40.23,21.12,69.38,53.28,91.47,92.41,3.85,6.82,7.93,13.72,6.47,22.17A2,2,0,0,1,831.19,225.33Z"/><path class="cls-9" d="M400,779.92c11.46-3.43,13.09-14.11,15.4-23.12,8.39-32.59,25.13-61.06,42.09-89.5,1.74-2.91,3.91-5.55,3.49-9.24-.82-3.83-7,0-7.06-5,14.84-5.3,20.09-19.1,27.44-31,3.74-6.08,8.2-11.67,12.22-17.56,7.45-11,15.44-21.63,22.35-33a37.84,37.84,0,0,1,10-10.67c1.5-1.07,3.37-2.29,5.15-1,2.37,1.64,1.43,4,.53,6.13a51.66,51.66,0,0,1-5.91,9.66c-24.62,34-46.49,69.81-68.18,105.73a119.49,119.49,0,0,0-6,11c-14.6,26.51-25.82,54.48-35.9,83a24.48,24.48,0,0,1-2.86,4.34c-3.56,3.45-7.38,6-12.58,3.5A2.11,2.11,0,0,1,400,779.92Z"/><path class="cls-10" d="M362.94,280.42c3.95-1.35,8.7,1,12.14-2.64,32.48,0,61.1,11.54,86.87,30.38,8.6,6.29,13.35,6.11,21.3-1.87,29-29.13,63.39-49.21,104.54-56.1,3.49-.88,7-2.4,10,1.19-1.27,4.54-5.42,5.11-8.92,5.61-24.4,3.47-45.72,14.31-66.16,27.34-.94.63-1.92,1.2-2.88,1.79-.46.31-1,.6-1.41.91-16.76,11.57-33.16,23.5-44.35,41.11a43,43,0,0,1-5.75,6.95c-2.28,2.32-4.5,6.39-8.22,4.23-4.51-2.62-2-7,0-9.89,5.46-8.24,1.5-13.15-5.17-17.7-24.2-16.51-50.75-25.83-80.14-26.66a44.9,44.9,0,0,1-6.75-.41C365.63,284.07,363.53,283.15,362.94,280.42Z"/><path class="cls-8" d="M874.51,497.23,872,500.4c-5.4-3.37-6.12-9.4-7.64-14.63-11.63-40-40.08-64.2-75.88-81.57-18.74-7.32-38.54-8.66-58.26-10.44a9.09,9.09,0,0,1-3.24-1.48,2.21,2.21,0,0,1-.33-3.15c44.46-5.47,82.15,8.05,112.69,40.89,6.29,6.77,9.6,6,11.66-2.75q1.29-5.49,2.62-11c4.31-.45,4,3,4.66,5.58-7.91,17.81.58,31.43,11.35,44.47l2.19,2.36C867.76,478.68,873.84,487.7,874.51,497.23Z"/><path class="cls-11" d="M454.49,652.75c1.41,2.72,6.14,1.33,6.53,5.31-12.78-2.54-24.2,0-34.63,8.15a541.49,541.49,0,0,1-73.85,49.26c-14.06,7.73-28.72,7-43.62,3.32a5.9,5.9,0,0,1,3.11-3.94c6.56-2.39,13.47-.69,20.14-1.61,12.16-1.7,22.93-6.72,33.14-13.53,20.37-13.59,40.31-27.79,60-42.32,7.71-5.68,16.56-8.91,25.45-12,3.42-1.19,8.3-3.18,10,1.18S455.63,649.53,454.49,652.75Z"/><path class="cls-3" d="M831.19,225.33l2.54-.05c5.25.6,5.66,5.33,7.45,8.83,8.4,16.43,13.59,34.06,19.16,51.55a49.6,49.6,0,0,0,2.41,8.42,25.63,25.63,0,0,1,1.07,3.53c7.56,29.27,6.46,58.79,2.64,88.39-.38,3-1.26,5.9-3.77,8-5.24-1.18-3-4.8-2.54-7.83-.6-19.9,1.54-39.76-.47-59.73-3-29.63-12.68-57.19-23.42-84.55-1.24-3.16-2.45-6.32-3.67-9.48-.49-1.61-.34-3.38-1.25-4.88A15.83,15.83,0,0,1,831.19,225.33Z"/><path class="cls-12" d="M193.65,625.26c-12.05,1.06-24-.6-36-1.24C130,622.54,103,628,75.75,631.44c-11.07,1.41-21.65,1.51-31.68-4.06-1.46-1.59-1.32-3.27-.29-5,2-1.9,4.72-3.77,7-2.5,15.22,8.63,30.46,1.06,45.67.49a33.61,33.61,0,0,0,8.82-1.5,22.25,22.25,0,0,1,3.69-.79c29.3-.9,58.59-2.37,87.89-.44,3.75.24,7.6.17,10.44,3.31.36,5.63-5.07,1.83-6.74,4.16l-2.3.13A3.3,3.3,0,0,0,193.65,625.26Z"/><path class="cls-13" d="M654.12,391.34c-1.72,9.79-3.08,19.65-6.87,30,24.32-6.69,41.93-25.36,65.7-30.56,4.65-.57,9.32-1.47,13.84.66l-.16-.22c.78,4.49-3,4.76-5.56,5.46-17.09,4.74-32.28,13.69-48,21.42-8.51,3.11-16,9.26-25.86,8.35-3.45-2-5.13-5.05-5.74-8.85,3-12,.58-25.41,9.49-35.82C655.22,383.86,653.59,388,654.12,391.34Z"/><path class="cls-14" d="M645,734.58c0,.73,0,1.46,0,2.19-.17,1.39-1.6,1.42-2.36,2.16-10.12,1.15-17.91,7.31-26.43,12-4.71,2.6-9.41,9.09-14.93,5.69-5.83-3.59,0-10.17-.34-15.89-9.82.73-17.64,6.29-26.35,9.2l-2.93-2.26c1.22-7,7.56-8.5,12.49-10,12.81-3.86,24.54-9.23,34.43-18.37a15.62,15.62,0,0,1,4.87-2.84c2.8-1.13,6.16-2.75,8.11.56,2.1,3.56-1.32,5.35-3.76,7-8.09,5.53-16.53,10.69-20.11,22.57,8.87-4.37,15.93-10,24.59-12C636.51,733.71,640.74,730.71,645,734.58Z"/><path class="cls-15" d="M212.15,289.51c-1-3.13.67-6.93-2.43-9.51-.85-16.69,4.83-32.16,11.08-46.89,7.46-17.55,16.14-34.83,29.25-49.23.81.94,1.61,1.88,2.42,2.81-1.6,10.81-10.86,17.56-14.36,27.37-11.53,21.49-21,43.61-21.39,68.6C216.67,285.57,216.08,288.85,212.15,289.51Z"/><path class="cls-16" d="M157.41,393.82l0,2.59c-4.17,7.72-13.3,7.52-19.36,12.21-5.11,2.5-9,6-10,12a42.43,42.43,0,0,0-1.57,14.31c-.35,9.17,7.51,17.26,3.52,26.89l-2.43,2.79c-3.63-5.83-5.31-12.45-6.69-19C113.76,411.74,118.62,405,157.41,393.82Z"/><path class="cls-14" d="M383,855.3c-2.54,2.47-4.59,7.63-8.55,5.23-2.46-1.48-3.7-6.46-3.88-9.95-.6-12.26,6.35-22,11.51-32.38,1-2.07,4.87-3.61,2.47-6.48-2.14-2.56-4.82-.19-7.21.55a5,5,0,0,1-3.4.28c-1.83-1.16-2-2.68-.92-4.45,5.83-4.82,12.56-6.09,19.88-5.12a5.77,5.77,0,0,1,3.64,3.27c-1.4,10.46-9.57,17.7-13,27.27-2.24,6.3-6.25,12.22-2,19.13A7,7,0,0,1,383,855.3Z"/><path class="cls-17" d="M654.12,391.34c-3.53-2.53-1.75-6.57-2.77-9.82a9.47,9.47,0,0,1-2.41-8.43c3.82-17.32-1.78-34.54-.42-51.79,0-2.88.28-5.8-.66-8.61a40.43,40.43,0,0,1-1-6.28,32.91,32.91,0,0,0-1.14-5.82,35.43,35.43,0,0,1-1-4.29c-.39-1.95-1-3.85-1.51-5.77a12.41,12.41,0,0,1-.28-4.7c.68-2.07,1.19-4.33,4.23-3.6a.72.72,0,0,1,.49,1.13c.43,1.94.42,4,1.73,5.67a1,1,0,0,1,.44,1.45c1.21,2.4.09,5.33,1.71,7.64.18,1.24.37,2.48.56,3.73,1.21,2.4.09,5.32,1.7,7.63,5.44,21.81,4.87,43.84,2.32,65.94-1.74,2.46-.69,5.26-1,7.9-.13,2.74.38,5.52-.64,8.19Z"/><path class="cls-18" d="M311.73,715.93l-2.81,2.86c-32.24-7.58-48.79-26-33.72-59.53,2.16,3.88,6.07,7.16,4.21,12.4-5.75,11.57.4,26.15,14.23,33.53,3.65,1.95,7.75,2.87,11.47,4.69C307.65,711.52,311.55,711.7,311.73,715.93Z"/><path class="cls-19" d="M7.12,629.14c5.88-15.08,16.74-25.79,30.52-33.65-2.38-4.22-6.15-5.21-9.29-7.09,0-2.32,1.59-3.09,3.4-3.71,6.35-.9,11.83.73,15.14,6.46,2.5,4.32.24,7.7-3.46,10.26-15.56,6.06-23.83,19-30.84,33.09C6.77,636.81,6.34,633.6,7.12,629.14Z"/><path class="cls-20" d="M436.25,847.89c-2.37,1.84-4.62,3.87-7.15,5.46-3.29,2.07-5.82,7.75-10.14,5.23-4.92-2.88-3.26-8.82-2.3-13.5a76.27,76.27,0,0,1,4.26-12.8c1.21-3,.21-4.14-2.68-4.37a3.44,3.44,0,0,1-.54-3c2.5-4.1,7.29-5.09,10.78-7.89,2.16-1.75,4.88-5,7.72-2.33,3,2.88.56,6.41-1.24,9.17-3.07,4.72-6.2,9.3-8.07,14.75-2.73,8,.78,8.23,6.77,6.1C435.39,845.08,436.68,845.78,436.25,847.89Z"/><path class="cls-15" d="M647.2,282.23c-2.07,1.16-2.17,3.32-2.68,5.27-6.48-2.83-6.15-9.59-8.25-14.83-2.84-7.06-5.71-13.79-14.25-15.42-7.94-3.13-17.37,1.42-24.68-4.83-2.61-3.18-6.4-1.33-9.55-2.23,14.85-4.14,29.45-2.75,43.69,2.54,7.5,2.78,9.4,10,11.63,16.79C644.5,273.75,645.84,278,647.2,282.23Z"/><path class="cls-21" d="M715.69,118.46l3.91,2.32c1.61,20.44-23.13,36.52-42.91,36.21-3.66-4.44-9.84,0-13.65-3.9,2.57-3.64,6.56-3.45,10.21-3.35,19.59.52,33.32-7.32,39.21-26.83A7.27,7.27,0,0,1,715.69,118.46Z"/><path class="cls-22" d="M372.86,810l2.34,1.79c.58.93.33,1.52-.74,1.75-1.79.45-3.6.87-5.38,1.37-3,.85-5.89,5.45-8.81,1.92s-.54-8,2-11.27a60.1,60.1,0,0,1,19.17-16.92c2-1,2.94,0,3.49,1.81-1,5.2-5.71,7.59-8.56,11.4C374.55,804.26,370.11,805.68,372.86,810Z"/><path class="cls-23" d="M418.19,825.4c0,.84,0,1.67.05,2.51L383,855.3l-3.91-.81c-.3-3.39,1.69-5.74,4-7.51,9.47-7.15,19-14.2,28.79-20.93A5.89,5.89,0,0,1,418.19,825.4Z"/><path class="cls-24" d="M7.12,629.14c1,2.23.14,8,5.23,2.88,4.55-5.11,10.82-6.8,17-8.6,3.05-.61,6.17-.83,9.19-1.61a9.85,9.85,0,0,1,3.11-.1,4.08,4.08,0,0,1,2.44,1.78c0,1.3,0,2.6,0,3.89-9.24,2.44-18.71,3.88-27.52,8.08C8.8,639.15,6.09,637,7.12,629.14Z"/><path class="cls-25" d="M860.15,386.14c1,2.38-.12,5.39,2.25,7.34,4.41,11.33,1.82,21.23-6.1,30-.59-2.51.32-5.58-2.64-7.22C854.3,405.92,857.75,396.14,860.15,386.14Z"/><path class="cls-26" d="M436.25,847.89l-2.18-2c4-9,12.12-10.31,20.57-11l2.69,2.37A69.49,69.49,0,0,1,436.25,847.89Z"/><path class="cls-27" d="M30.66,586.53l-2.31,1.87c-5.43-2.93-12.07-3.36-16.65-8l2.61-2.08c2.09-2.62,4.25-.65,6.4-.11,1.27.56,2.51,1.21,3.75,1.84a24.85,24.85,0,0,1,2.45,1.29C28.7,582.65,31.16,583.53,30.66,586.53Z"/><path class="cls-28" d="M384.07,791l-2.67-2.29c5.72-4,11.51-7.8,18.64-8.76,0,.8,0,1.61,0,2.42C396.72,789,391.36,791.77,384.07,791Z"/><path class="cls-1" d="M200.52,625.1c1.85-2.37,4.61-1.72,7-2.13,3-2.47,5.94-2.4,8.77.32-1.14,1.88-3,2.12-5,2.3Z"/><path class="cls-15" d="M653.83,309.48c-2.61-2.09-2.17-4.86-1.7-7.63A10.52,10.52,0,0,1,653.83,309.48Z"/><path class="cls-15" d="M651.57,298.12c-2.58-2.1-2.23-4.85-1.72-7.64C650.43,293,651,295.57,651.57,298.12Z"/><path class="cls-13" d="M656,382.11a5.15,5.15,0,0,0-1.58.85c-.33-2.72-1-5.52,1.71-7.54Q656.09,378.77,656,382.11Z"/><path class="cls-29" d="M193.65,625.26c1.51-1.82,3-1.85,4.57,0Z"/><path class="cls-30" d="M831.34,227.5a4.46,4.46,0,0,1,1.25,4.88C830.66,231.14,830.6,229.42,831.34,227.5Z"/><path class="cls-15" d="M649.42,289c-2.07-1.43-2.2-3.45-1.73-5.66C649.43,284.9,649.51,286.94,649.42,289Z"/><path class="cls-31" d="M311.73,715.93l-7.2-4c-1.32-7.27,3.91-7.4,8.3-6.76,17,2.48,28-6.81,37.9-18.62a7.52,7.52,0,0,1,3.85-4.39c18.6-21.33,27.83-62.2-.76-87.47-31-27.44-62.17-55.13-89.52-86.42-13.85-15.83-29.43-18.76-48.48-13.67-10.9,2.9-22.24,4.12-33.14,7-16,4.26-28.06-.44-37.21-13.92-3.17-4.67-7.17-8.81-9-14.31.23-5.15,4.31-3.7,6.56-3.05,10.54,3,20.82,1.66,31.1-.93,4.08-.6,5.88-5,9.79-5.89,22.87-10.68,46.61-9.6,70.75-5.94,12.9,2,25.64,6.66,39,3.65,5.47.38,10.58-7.38,16.36-.81,1.91,7.12-3.37,12.07-5.49,18-1.93,5.37-4.56,10.8-.79,16.24,4.17,6,10.51,3.93,15.63,2.48,27.52-7.82,56.78-9.44,82.6-23.3a20.44,20.44,0,0,1,5.18-1.09c12.95,1.43,20.56,7.2,23.51,17.76-2.65,4.74-7.38,5.63-12.07,5.92-4.34.27-.75,3.25-1.9,4.47-.63,1.71-1.67,3.87,1.42,3.86,4.46,0,8.91-.47,13.36-.87,2.85-.26,6.65-1.38,7.63,2.44,1.19,4.6-3.3,4.75-6.09,6.33-1.69,1-5.11-1.7-5.17,2.45a4.9,4.9,0,0,1-4.09,3.44c8.22-.92,15.86-4.83,24.27-4.89,6,0,9.36,4.07,12.61,8.28,10.25,13.24,16.22,28.58,21.62,44.2.48,5.23,2.58,10.21,2.44,15.53-.67,8,1.09,14.81,8.76,19,1.63.89,2.89,2.37,2.17,4.58-7.34,11.75-15.4,23.12-21.78,35.37-4.41,8.47-10.29,12.26-19.34,12.16l-1-.48-.94-.48,6.91-4.47a75.42,75.42,0,0,0-36.3,15.13,746.83,746.83,0,0,1-63.08,43.82C345.27,715.44,329.38,720.47,311.73,715.93Z"/><path class="cls-32" d="M175.65,472.88c-13,3.64-26.13,1.24-39.22.51L130,461.81q-3.18-13.67-6.35-27.33c5.82-3.4,11-.76,16,2,13.16,7.21,27,9.65,41.51,5.71,18.44-5,37.53-2.68,56.16-5.53,14.77-2.26,28-8.66,41.69-14,9.5-3.73,19.31-9.13,26,4.46,1.47,2.95,4.3,2.54,6.85.91a21.89,21.89,0,0,0,4.32-3.64c27.79-30.19,63.26-43.51,103.12-47.22,3.38-.31,6.73-1.08,10.09-1.33,19.94-1.43,37.22-7.77,50.52-23.87,5.46-6.6,13.44-10.93,21.21-14.9,4.66-2.39,9.28-3.67,12.9,1.81.15,7.6-6.71,10.44-10.44,15.4-2.22,2.95-5.06,5-1.29,9.55,10.47,12.46,11.65,28.25,14,43.51a38.27,38.27,0,0,1,.09,5.67c.16,29.09.21,28.93,27.53,38.16,11.92,4,24.35,4.92,36.56,7.16,5.23,1,9.5-1.69,13.2-5.2a65.76,65.76,0,0,0,18.81-32.94c5.24-21.33,7.14-43.15,10.33-64.78,7-9.69,8.82-21.3,11.71-32.47,1.95-7.52,4.91-14.12,11.86-18.28a1.72,1.72,0,0,1,2.66,1.13c.25,2,.51,4,.76,6.05,1.41,2.2.14,5,1.73,7.18-.73,20.85,4.32,41.72-.24,62.55q-4.11,18.62-8.23,37.22a16.76,16.76,0,0,1-.27,12.21c-5.47,14.55-11.84,28.62-20.94,41.39-4.35,6.1-9.52,8.59-17.11,8.84-23.72.79-47.46-2.24-71.21,1.09C521.28,484,512.12,474,501,470.67c-2.82-.83-5.37-2.58-7.16-3.48,5.94,4.86,15.38,5.22,22.42,11.41-6.18,6.49-14.43,5.69-21.27,6-18.2.91-35.86,4.77-53.73,7.5-3.92.6-8.14,2.81-11.73-1.05-4.39-9.92-12.37-14.72-22.8-16,18.78-13,19.56-34.13,23.29-53.54,1.75-9.09-1.46-18.66-2.13-28-.4-5.64-4.87-3.65-7.79-2.94A172.4,172.4,0,0,0,390.27,401c-35,15.7-67.91,34.41-94.37,62.92C282.22,469,269.14,463,256,461.14c-23.65-3.35-46.9-5.7-69.53,4.6-1.28.59-3,.26-4.47.36-.46-2.38.16-4.29,2.09-5.42C178.61,462.64,178.5,468.73,175.65,472.88Z"/><path class="cls-29" d="M216.34,623.29l-8.77-.31c-28-5-56.12-2.82-84.24-2.3l-18,.31a3.7,3.7,0,0,1,.16-4.23c6.51-8,8.54-17.19,7.33-27.28a18.34,18.34,0,0,1,2.37-4.51c3.55-6,9.52-8.1,15.68-10.15,6-2,10.23-.41,13,5.19.5,1.81.63,3.83,1.54,5.41,6,10.54,41,24.66,52.58,21.57,6.46-1.72,8.73-6.92,10.68-12.25,5.21-14.25,12.08-27.69,19.13-41.06,2.35-4.46,4.24-7,8.63-1.46,14.74,18.7,28.31,38.22,41.5,58a46.68,46.68,0,0,1,5.09,10.1c2.35,6.59,1.82,9.35-7.09,8.1C256.21,625.67,236.36,623.15,216.34,623.29Z"/><path class="cls-33" d="M169.06,575.52l-.18,11.23c1.23,2.31,1.47,4.59-.22,6.81-12.17-.87-17.84-9-19.86-19.6-4.52-23.67-4.26-47.49-.8-71.92l11.69,5.67c5.14,1.94,10.77-.76,15.85,1.66a3.15,3.15,0,0,1,.1,2.85c-2.15,4,1.78,4.28,3.6,5.51,7.52,5.11,15.75,9,24,12.69s12.66,9.21,11.08,18.57c-2.08,9.59-4.16,19.18-7.26,28.5-.68.93-1.22,2-2.41,2.45a6.36,6.36,0,0,0,1.94-.38c2,1.42,2.13,3.09.71,5v0c-1.49,1.31-1.1,3.42-2.08,5a1.66,1.66,0,0,1-.52,1.83c-1.11,1.28-.54,3.33-2,4.44-1.28,6.1-5,9.5-11.2,8.17-6.73-1.44-14.68-1.75-16.9-10.52-.91-3.62-1.12-7.41-1.65-11.12-2.2-7.47-1.6-15.32-2.35-22.93C170.94,564.82,172.15,570.26,169.06,575.52Z"/><path class="cls-34" d="M286.51,636.72c4.47-21.5,15.64-39.63,28.51-56.91,4.25-5.72,7.89-6.92,14.28-1.58,10.19,8.53,18.37,18.83,27.71,28.07,16,15.87,10.8,33.42,4.6,51.17-8.31-1.13-15.76-4.57-23.11-8.4-12.64-6.58-26.52-8-40.39-9.29C294.07,639.4,289.71,640.27,286.51,636.72Z"/><path class="cls-35" d="M265.79,582.71c-8.07-12.31-16.47-24.39-27-34.77-4.11-4.05-4.63-7.77-1.29-12.76A160.83,160.83,0,0,0,248,516.44c4.29-8.77,8.39-10.61,16.25-2.81,13.14,13,25.36,26.93,38,40.4,15.15,16.1,15.21,16,2,34.75-2.17,3.06-4.24,6.19-6.35,9.29C287.63,592.12,276.75,587.34,265.79,582.71Z"/><path class="cls-36" d="M356.9,670.71q-2.29,4.53-4.6,9c-6.49,13.42-17.22,19.35-32,18.11-29.13-1.09-42.09-19.9-35.84-52,6.56-7.05,14.92-3,22.19-2.82,16.64.32,32.61,4.17,45.79,15.41C356.15,661.6,360.15,664.91,356.9,670.71Z"/><path class="cls-37" d="M207.3,584.53q-1.16-2.31-2.33-4.62l.07.07c.23-11.05,4.75-21.18,6.8-31.84,3.26-14.46,3.28-14.51-9.83-20-6.6-2.79-13.44-5.09-19.58-8.82-2.91-1.77-7.64-2.29-7-7.54h0c1.34-2.63,3.6-3.46,6.39-3.37a8.81,8.81,0,0,1,2.18.19c-.42-1-1.91-.46-2.22-1.6,17.09-4.54,34-9.88,51.86-10.69a20.54,20.54,0,0,1,12.84,3.42c3.21,2.16,4.78,4.42,2.18,8.37C232.69,532.34,221.55,559.29,207.3,584.53Z"/><path class="cls-38" d="M143.88,580c-8.8-5.29-19.25-2.69-26.7,6.63a6.81,6.81,0,0,1-2.66-1c-1.24-.83-2.45-1.69-3.72-2.5-8.46-5.73-17-11.16-27.08-13.78-2.75-.72-6.23-1.11-6.1-5.35a5.88,5.88,0,0,1,5-1.74c-4.32-1.11-9.2-1-12-5.53,20-11.66,42.06-18,64.26-23.88,5.87-1.57,6,.85,6.2,5.45C141.8,552.19,142.94,566.09,143.88,580Z"/><path class="cls-39" d="M70.69,556.69c3.76.5,8,.75,10.54,3.58,5.87,6.45-2.75,2.25-3.28,4.14-9.79,6.94-1.43,15.92-2.66,23.84-1.45,4.21-3.79,3.65-6.78,1.5-13.05-9.37-27.8-8.81-42.71-7.22l-2.17-.9a13.67,13.67,0,0,1-2.57-1.54l-6.75-1.82c-2.35-1.12-5.59-1.77-6-4.59-.6-3.92,3.57-3.07,5.59-4.08,10.66-5.35,22.1-4.08,33.3-2.81,5.4.61,9.88,3,12.75-4.66C61,559.35,67,558.45,70.69,556.69Z"/><path class="cls-40" d="M351.94,686.52c-1.55,6.73-16.41,20.06-23.69,20.62-5.42.41-10.82,2.55-16.41.27-4-1.65-5.75,1.56-7.31,4.52C278.66,706.85,270.67,685,274.82,671c2.66-8.94,3,1,4.59.62,2.57,22,19.3,33,43.44,28.47C333.84,698.38,341.5,689.46,351.94,686.52Z"/><path class="cls-41" d="M356.9,670.71c-1.64-9.92-9.8-13.86-17.37-17.29-17.46-7.93-36.19-8.72-55-7.56,0-3.2-.35-6.48,2-9.14,22.51-.62,44.43,2.33,63.34,15.27,3.95,2.71,11.8-4,11.76,5.48A21.18,21.18,0,0,1,356.9,670.71Z"/><path class="cls-42" d="M265.79,582.71c12.7,1,23.88,5.14,32.17,15.36L287.6,617.42l-19.11-30.63a9.12,9.12,0,0,1-1.79-2.39A2.57,2.57,0,0,1,265.79,582.71Z"/><path class="cls-43" d="M351.94,686.52c-9.16,5.7-16.75,14.75-29.09,13.61l-2.53-2.26a57.62,57.62,0,0,0,32-18.11l2.28,2.4Z"/><path class="cls-44" d="M169.06,575.52c-.57-6.7-.82-13.35,3.86-19.72v26.46C171.63,580,170.35,577.76,169.06,575.52Z"/><path class="cls-45" d="M181.83,507l6,1.26-12.4,3.52c-4.43-4.62-11.41.75-15.79-4Z"/><path class="cls-44" d="M168.66,593.56l.22-6.81C171.36,589.1,172,591.39,168.66,593.56Z"/><path class="cls-37" d="M202.67,595.73a3.63,3.63,0,0,1,2-4.44A4.24,4.24,0,0,1,202.67,595.73Z"/><path class="cls-37" d="M205.23,589.46a3.76,3.76,0,0,1,2.08-5A5,5,0,0,1,205.23,589.46Z"/><path class="cls-35" d="M266.7,584.4c.6.79,1.2,1.59,1.79,2.39C267.9,586,267.3,585.19,266.7,584.4Z"/><path class="cls-46" d="M647.32,304.84c-10.54,11-11,26.08-15.48,39.47-1.5,4.5-2.8,8.29-7,10.59-5.68-9.55-2.75-20.58-5.22-30.75-1.43-5.9-2.17-12.06-5.48-17.12-4.59-7-10.51-10.49-20-9.3-28.24,3.55-51.24,17-71.88,35.53-2.78,2.5-5.2,5.63-9.46,5.65-3.06-2.08-5.81-2.46-9.31-.21-9.18,5.91-19.15,11-26,19.62-10.51,13.16-24.42,17.76-40.32,19.46-14.5,1.54-29.14,3-43.27,6.43-27.18,6.52-52.57,17.06-71.88,38.66a72.52,72.52,0,0,1-9.73,9.47c-4.3,3.29-8.64,3.65-10.13-3C299.83,419,293.48,419.9,286,423c-9.39,3.86-19.05,7.13-28.24,11.4A72.7,72.7,0,0,1,227.11,441c-19.7,0-38.78,3.36-58.08,6.38-8.71,1.37-17.92-1.29-25.92-5.78-6.15-3.45-12.44-6.17-19.45-7.07-1.65-5.62,1.36-10.6,2.11-15.9,13.18,6.92,26.68,8.59,41.38,2.07-10.2-5.19-23.44-2.67-30.41-13.56,5.69-5.92,14.27-6.2,20.7-10.68,16.95-3.22,32.63-7.94,40-26.33,3-7.54,6.8-15.22,14.26-19.9,6.34,2.82,6.66,8.37,6.75,14.26.12,7.92,2.8,9.29,9.38,5,2.86-1.86,5-4.56,7.57-6.83,9-8,48.12-16.7,59.25-12.94,5.58,1.89,10.9,2.33,16.55.11,19.7-7.77,39.38-15.43,56.34-28.73,12.28-9.64,13.19-17.45,2.44-29-2.69-2.89-7.3-5.56-1.66-9.89,34-.58,64.32,10.23,92,29.43,6.95,4.83,9.74,10.11,3.16,17.57-2.09,2.38-4.4,5.21-4,10.79,8.15-5.82,12.12-13.67,17.25-20.51,5.48-7.3,12.5-13.09,19.31-19.09s13.83-11.62,21.75-16.05c6.45,4.32,1.46,7.83-1.14,10.9-5,5.89-10.95,10.95-15.64,17.18a160,160,0,0,1,22.21-15.28c6.32-3.7,12.81-5.9,20.4-4.4a33.36,33.36,0,0,0,16.71-1.45,447.24,447.24,0,0,0,50.35-19.81c7.31-3.39,12.41-8.22,13.94-16.34,9.27,1.63,12,9,14.51,16.59,1.79,5.29,3.62,10.55,5.43,15.83l1,3.86c.66,1.72.87,3.55,1.39,5.31.22,1.25.44,2.5.65,3.75C648.45,301.94,648.67,303.43,647.32,304.84Z"/><path class="cls-47" d="M368.32,282.14c-2.49,4.29.68,5.52,3.51,7.74,12.71,10,11.62,22.39-1.1,32.47-18.33,14.52-39.77,22.46-60.94,31.18a15.14,15.14,0,0,1-12,.17c-3.83-1.56-8.67-5.3-11.39-4.14-15.77,6.72-34.07,5-48.7,14.85-3.7,2.49-6.35,6.49-9.91,9.24a10.41,10.41,0,0,1-11.74.62c-3.15-1.82-1.85-5.39-.64-8.19,2.7-6.26-1.55-10.81-3.67-15.9,40.27-45.33,87.72-75.05,151.24-69.76Z"/><path class="cls-48" d="M298.09,195.67c24.09,9,33.14,29.08,38.28,52.06.08.36,0,.75.07,1.13,3.36,25.46,3.32,25.27-21.45,29.85a131.1,131.1,0,0,0-22.79,6.51c-6.46,2.46-8.24.42-8-5.74.87-22.31-8-41.79-17.75-61C279.85,214.84,288.27,204.28,298.09,195.67Z"/><path class="cls-49" d="M234.48,275.41c2.44-21.74,10.89-41.05,23.38-60.54,15.39,21.24,21.42,43.72,21.79,67.88.1,6.88-5.89,10-11.25,12.88-5.2.36-9.18-2.67-13.44-4.89-3-1.54-6-4.38-9.18-3.67C235.25,289.37,234,283.39,234.48,275.41Z"/><path class="cls-50" d="M212.15,289.51c3.58-7.37,1.42-15.45,2.85-23.15,3.68-19.72,11.62-37.6,21.69-54.7,6.29-.12,10.79,2,11.27,9.1-10.49,21.83-18.62,44.32-20.19,68.82a103.83,103.83,0,0,0,1.5,27.05c.82,4.08,1.42,7.86-2.41,11.39-5.46,5-8.49,5-11-2.63C212.05,313.63,212,301.62,212.15,289.51Z"/><path class="cls-51" d="M248,220.76c-2.59-4.48-7.27-6.37-11.27-9.1,3.31-9.56,10.54-16.63,15.78-25,13.54-6.28,25.43,1.15,37.72,4.74,2.81.83,5.28,2.8,7.9,4.24-.74.84-1.5,1.66-2.22,2.52a64.49,64.49,0,0,1-29.42,20.27c-4.32-4.29-6.81-10.53-14.45-13.19,1.47,5.28,1.41,9.85-2.45,13.32a3.59,3.59,0,0,1-1.55,2.07Z"/><path class="cls-52" d="M234.48,275.41c1.81,6.32,3.93,9.7,12.55,9.2,7.5-.44,14.63,6.38,21.37,11-9.32,7-18.69,13.94-27.94,21-5.89,4.5-6.87.75-7.59-4.16A99.35,99.35,0,0,1,234.48,275.41Z"/><path class="cls-53" d="M155.42,372.93l-54.74-46.65c20,9.31,39.15,19.91,56.66,33.28C159.83,364.47,162.76,369.44,155.42,372.93Z"/><path class="cls-54" d="M155.42,372.93c3.74-4,1.18-8.93,1.92-13.37,6.83,4.63,13.88,9,20.35,14.07,2.16,1.69,9.27,2.85,4.09,7.76-3.91,3.7-8.74,9.79-15.25,4.21C162.31,382,159.09,377.2,155.42,372.93Z"/><path class="cls-50" d="M248,220.66l1.55-2.07Z"/><path class="cls-30" d="M861,295.73a2.88,2.88,0,0,1-.54-2.08c-1.94-1.93-.21-4.92-2-6.89-7.94-20.61-14.2-41.89-24.68-61.48-17.51-47.2-49-82.58-91.6-108.52-2.88-1.76-5.78-3.47-8.68-5.2a7.11,7.11,0,0,0-2.82-1.82,1.68,1.68,0,0,1-1.45-.76c-1.42-22.44-16.53-33.66-34.59-42.48-8.91-6.93-18.38-13-29.25-16.16-10.19-2.93-19.21-1.06-24.86,9.17-2.68,4,.9,7.64.49,11.16.4,1.11.82,1,.53.3-1.12-2.63-1-5,1.11-7l4.56-4.5a8.39,8.39,0,0,1,2.4-1.64c2.9-1.47,6-1.23,9-.9,1.72,9.21,4.87,18.15,5.29,27.6.93,21.14-11.32,36.13-32.19,39.29-7.08,1.07-14.13,2.12-21,4.34-21.12-16.24-34.82-36.68-36.23-64.1a3.43,3.43,0,0,1,4.89,1.33c4,9.74,13.28,10.93,21.69,14.13,1.3-4.67.41-9.18.12-13.55-.87-12.89,2-23.26,13.39-31.5,10-7.23,7.81-16.5-3.64-21.56-2.38-1.05-5.23-1.09-6.94-3.47,16.85-7.51,33.88-4.84,50.79-.52C698.81,20.13,738.09,40,770,73.05c21.3,22.92,41.63,46.65,58.57,73,19.55,30.45,30.86,64.46,41,98.89,3.18,10.82,8,21.2,9.12,32.61C877.78,290.33,870.77,297.51,861,295.73Z"/><path class="cls-55" d="M610.75,128.13c3-8.77,11.53-6.38,17.18-6.83,24.43-2,39.2-21.48,31.29-47.14-1.75-5.7-4.58-11.36-.61-17.26,16.87-4.15,46,21.93,52.1,38.64a78.91,78.91,0,0,1,5,22.92c-2.82,21.37-15.91,33.48-37,34.21-5.2.18-10.41.28-15.61.42-18.53-3.18-36.25-8.15-49.9-22.29a5.38,5.38,0,0,0-2.36-3.11Z"/><path class="cls-56" d="M604,9.41c9.51-1.38,16.79,2.84,19.77,11.25,2.67,7.55-2.39,13.76-8.86,17.63-17.2,10.29-9.58,26.46-9.87,40.71,0,2.07,1.77,4.17-.35,7.09-10.52-6.68-24.25-8.75-30.2-22.06C569.34,39.89,581.42,17.53,604,9.41Z"/><path class="cls-30" d="M610.78,127.69l2.36,3.11Z"/><path class="cls-57" d="M481.8,582.21q-1.14-7.94-2.26-15.86c7.28-1.37,6.6-8.37,8.75-13.07,6.47-14.11,4.35-28-2.43-41.5a7.21,7.21,0,0,1,2.72-2.14c2.88-1,5.76-2,8.67-2.85,23-4.08,46.32-4.94,69.49-7.13,37.1-3.51,74.34-4.79,111.58-5.33,11.64-.17,23.33,1,35,.43,3-.16,9.44,2.44,7.19-5.4-10.1-2.74-20.58-2.14-30.75-3.95-7.76-.3-15.55.47-23.28-.74-5.49-2-11.21-1.61-16.9-1.61-7.92-.2-15.88.49-23.77-.45-6.48-.78-8.73-4.24-4.78-10.12a196.21,196.21,0,0,0,17.62-31.65c2.69-6.22,8.49-6.6,14.18-7.55,4.46-.74,8.84-1.93,13.4-1.89,4.85.31,9.37-1.64,14.09-2.18a67.44,67.44,0,0,0,7-1.59c15.27-2,30.79.41,46-3,11.73-2.65,23.1-5.08,33.3-12.65,6.65-4.94,15.51-7.12,23.74-9.61,39.8,17.87,67.53,46.43,78.92,89.48.77,2.9,1.84,5.73,2.77,8.59l9,56.48c-.17,35.77-6,69.64-32.15,96.75-6.89,7.14-15.46,10.47-25.18,11.09-11.33.73-22.48-.74-33.56-3-8.6-10-13-22.21-18.39-33.94-3.21-2.41-4.17-6-4.81-9.65s-1.52-7.36-6.31-7.77c-21.92-8.26-42.93-4.31-63.79,4.25a224.52,224.52,0,0,1-24.7,8.16c-2.72.7-5.54,1-8.22,1.92a22.83,22.83,0,0,1-3.25.75,27.49,27.49,0,0,1-5,.3,13.55,13.55,0,0,1-6.27-1.54c-3.86-3.44-7.28-7.53-12.67-8.78-3.58-.84-5.17-2.75-3.43-6.45-.09-.36-.18-.73-.28-1.09s-.23-.71-.35-1.07c-4.88,1.75-5.35,6.73-7.1,10.47-16.34,35.05-33.37,69.7-55.73,101.42-2.15,3.06-4.52,6-6.78,8.94-.6.88-1.61,1.47-1.8,2.62l0,0c-8.29-.75-15.26,2.46-22.23,6.6-19.24,11.41-39.35,20.78-61.66,24.57-20.31,3.45-29.57-4.33-30.64-25.25-.79-15.19,2.31-30.06,3-45.12C465,663,481.16,635.43,499.06,609c10.67-15.79,21.94-31.18,32.17-47.51-6.25,1.85-9,7.89-13.68,11.46-9.26-5-18.36-3.81-27.3,3.06C487.48,578.08,486.51,582.76,481.8,582.21Z"/><path class="cls-58" d="M649.54,623.18l6.81.09c1.76,10.92,11.47,13.06,19.17,14.18,18.41,2.69,36.77,6.92,55.86,3.31,12.41-2.34,23.48-7.79,35.27-11.5a3.12,3.12,0,0,1,2.94.87c1.09,9.68,6.91,17.41,10.88,25.87,1.62,3.47,2.62,5.52-1.65,8.08-37,22.22-76.15,35.61-120,31.12-13.91-1.42-27.41-4.74-40.79-8.65-1.49-1.12-3.42-.74-5-1.46-10.86-2-12.47-6.56-6.61-16.43,7.79-13.1,13.7-27.32,20.41-41.07C633.68,622.39,641.87,624.12,649.54,623.18Z"/><path class="cls-59" d="M449.8,691.11c3.54,6,3.34,12.64,1.72,18.74-2.69,10.16-1.74,20.35-1.34,30.44.61,15.17,9.33,21.57,24.16,18.9,22.52-4.05,43.18-12.91,62.76-24.53,3.89-2.31,8-4.21,11.81-6.66,5-3.28,9.06-2.56,12.46,2.3-19.84,34.09-48.48,59.88-79,83.86-5.26,4.14-11.05,7.6-16.6,11.37-4.13-5.51-.6-10.94.49-16.22,1.42-6.89.48-11.92-7.08-14.08-2.53-.72-5.24-1.81-6.84-3.83-10-12.6-23.33-16.69-38.71-16C422.64,746,433.9,717.55,449.8,691.11Z"/><path class="cls-60" d="M384.07,791,400,782.34c4.86.79,8.18-2.52,12-4.53,11.64-4.92,20.62,1.55,28.37,8.23,14,12.05,19.47,28,16.57,46.47l-2.28,2.39-20.57,11-10.92,6.53c-2.64-15.17,7-25.2,12.92-36.87-5.47,4.72-12.38,6-17.88,9.88-14.31,8-27,18.18-39.15,29.09-6.49-6.35-1.62-12.75.68-18.45a121.13,121.13,0,0,1,15.92-28.59c1-2,1.26-4.27,2.28-5-.67,1.24-3.09,1.37-5.11,2.2C386,805.83,379,806.18,372.86,810c-1.38.4-3,1.45-4.09,1.07-3.12-1.08-.85-3,0-4.23C372.94,800.73,378.4,795.74,384.07,791Z"/><path class="cls-61" d="M645,734.58c-15.62,1.25-28.06,10.13-42.41,18.35,2.78-18.17,15.34-26.57,27.57-36-17.15,15.34-39.48,19.81-58.51,30.81-5.56.76-6.5-1.2-4.45-6.34,4.62-11.62,12.78-19.77,23.23-26.17,5.35-3.28,10.28-7.26,15.41-10.92,12.84,2,25.83,4,37.72,9.23,6.29,2.76,12.5,7.93,8.63,17Z"/><path class="cls-62" d="M652.2,730.49c-1-9.82-6.43-15.65-16.16-16.88-10.65-1.35-21-3.44-30.2-9.35.2-1.23.39-2.45.59-3.68a5.75,5.75,0,0,1-1.42-5c1.86-5.6,6.88-3.21,10.56-4.19,21.34,4.48,42.39,10.72,67.65,9.06C672.17,712.73,666.38,725.7,652.2,730.49Z"/><path class="cls-63" d="M456.92,832.51c-4.75-9.8-2.1-21-8-31.23-8.67-15-20.56-22.08-36.94-23.47l1.67-2.4c12.81-4.91,24.18-3.87,33.54,7.44,4.32,5.22,9.09,9.92,16.59,10.74s7,7,6.28,12.16c-.95,6.66-2.8,13.19-4.27,19.78Z"/><path class="cls-64" d="M649.54,623.18c-6.77,5.6-15.06,3.4-22.72,4.42q3.28-9.3,6.56-18.61c.26,6.18,6.58,2.09,9.07,5.42C644.67,617.38,649.7,618.11,649.54,623.18Z"/><path class="cls-65" d="M606.4,696.09l0,4.49c-.62.12-1.25.23-1.87.32a11.2,11.2,0,0,0-2.67,1.36L581.62,716.4c2-7.63,6.33-13.16,13.06-16.63C597.84,696.16,601,692.54,606.4,696.09Z"/><path class="cls-66" d="M592.44,693.52c7.7,1.77,14.53-1,15.9-6.48l4.94-.33c-.19,2,.21,3.79,2.29,4.73l-9.17,4.65-11.72,3.68C593.38,697.89,587.84,697.53,592.44,693.52Z"/><path class="cls-66" d="M613,685.09l5,1.46-4.86.25A3.94,3.94,0,0,1,613,685.09Z"/><path class="cls-62" d="M601.89,702.26l2.67-1.36Z"/><path class="cls-59" d="M561.34,730.28l1.8-2.62Z"/><path class="cls-48" d="M790.18,661.74a16.85,16.85,0,0,1,12-1.75c29.15,5.62,43.53-.64,58.33-25.64a114.93,114.93,0,0,0,15.78-53.44c.42-8.34,6.32-15.41,4.83-24,7.41,24.6,16.57,48.15,33.24,68.46,10.64,12.95,23,22.95,38.21,29.21,11.69,4.82,17.71,13,17.39,25.11-.75,28.64-3.79,57.05-11.45,84.8-8.45-9.33-18.62-12.77-30.89-9.05-13.8-4.54-27-11-41.84-12.09-2.32-.18-3.93-2-4.84-4.27l2-13.69c1.78-3.22,4.06-6.26,3.56-10.47C847.48,709.59,814.24,694,790.18,661.74Z"/><path class="cls-67" d="M769.59,630.13c-.52-.3-1.06-.58-1.61-.83-3.19-1.68-3.19-5.1-4.32-7.91a39.36,39.36,0,0,1-1.13-7.33c-.23-1.41-.45-2.82-.63-4.24a2.82,2.82,0,0,1,1.1-2.44c10.23,3.65,5.64,13.71,8.79,20.42Z"/><path class="cls-29" d="M861,295.73c11.74-.32,12.2-11.7,17.7-18.15,6.91,33.18,10.62,66.58,9.5,100.6-1,30.6-9.31,59.42-18.49,88.18-1.63.74-3.41,2.26-4.82-.14-4.36-7.48-9-14.84-12.82-22.6-3.7-7.49,3.9-13.14,4.27-20.09,2.38-9.95,6.28-19.58,6.1-30C867.15,360.82,867.86,328.21,861,295.73Z"/><path class="cls-68" d="M946.8,780.2l-1.94,2.26a6.77,6.77,0,0,0-2.74,2.08c-7.06,6.61-13.45,14-22.36,18.38-6-.67-12.84-.24-11.82-9.58,2.61-8.6,8.4-15.44,12.89-23.29-9.79,7.3-22.17,10-30.45,19.21a4,4,0,0,0-2.45,2.55,1.9,1.9,0,0,1-1,1.6c-4.42,3.08-9.44,2.16-14.1,1.45-4.28-.66-8-2.93-5.85-8.55,3.53-10.41,9.72-19.12,17.28-27.34-14.91,7.51-23,25.84-42.7,24.9,5-19.54,22.46-28.66,36.88-40.48,7.79,1.52,11.18,10.27,19.06,11.62,4.22,2.36,8.54,1.75,12.88.41a24.58,24.58,0,0,1,4.57-.8c3.64-.6,7.31.81,10.93-.3a5,5,0,0,1,3.07.11C939.72,759.67,941,771.52,946.8,780.2Z"/><path class="cls-69" d="M946.8,780.2c-2-2.25-6.54-1-7-5.66-.78-8.17-6.64-13.62-11.33-19.65-.8-.53-1-1-.73-1.47s.59-.64.89-.64c19.52-3.25,24.18-1.42,29.82,11.68l-.57,3.92Z"/><path class="cls-70" d="M928.64,752.78a16.51,16.51,0,0,0-.16,2.11c-.74.05-1.48.11-2.21.18-3.55,2.34-7.94-.35-11.49,1.94l-4.45.4c-4.52,1.36-9,1.62-13.52-.19-8.18-1.85-13.81-7.13-18.36-13.83l2.44-4.34A184.32,184.32,0,0,1,928.64,752.78Z"/><path class="cls-71" d="M867,786.31c1.22,5.07,4.33,7.83,9.43,5.93,4-1.49,7,1,10.52,1.17-4.73,7.58-9.48,15.15-14.18,22.75-1.16,1.87-1.83,4.66-4.4,4.5s-3-3-3.33-5.12C863.49,805.67,861,795.69,867,786.31Z"/><path class="cls-72" d="M907.94,793.34c1.1,6.71,9.52,4.35,11.82,9.58-3.94,4.37-10,10.78-14.06,7.54C901.24,806.88,904.39,798.85,907.94,793.34Z"/><path class="cls-69" d="M942.12,784.54l2.74-2.08Z"/><path class="cls-71" d="M887.93,791.81l2.45-2.55Z"/><path class="cls-73" d="M694.59,66.5c2.93-1.9,5.69-1.24,8.43.5a77.73,77.73,0,0,1,28.45,31.45c2.32,4.66,1.77,7.74-2.29,10.53-6.89-2.82-12-7.34-14.34-14.66C711.17,82.8,701.19,75.88,694.59,66.5Z"/><path class="cls-74" d="M642.61,63.94c-1.52,5.22,2.44,9.86,2,17-4.93-7.86-9.79-13.65-4.16-21.43C640.71,61.22,640.45,63.17,642.61,63.94Z"/><path class="cls-73" d="M730.63,109.74l2.82,1.82Z"/><path class="cls-55" d="M649.57,57.8l-2.4,1.64Z"/><path class="cls-75" d="M481.8,582.21c6.07-13.65,19.43-14.56,31.33-17.26,6.3-1.43,1,6.25,4.42,7.95a258.3,258.3,0,0,1-21.94,32.32C485.72,600.74,478.51,594.64,481.8,582.21Z"/><path class="cls-56" d="M624.58,255.08c4.91,7.27,0,12.29-5.27,14.59-26.46,11.44-50.94,28.14-82.47,25.39-12.3-1.07-22.51,10.74-32.77,18.23-2.64,1.93-4.32,5.41-9.5,4.88,4.33-10,12.26-16.48,19.13-23.8,2.58-2.74,7.49-4.81,4-10.09v0c.87-.56,1.72-1.16,2.53-1.8,23.33-16.11,48.81-26.68,77.07-30.1C606.46,252.91,615.78,251.26,624.58,255.08Z"/><path class="cls-46" d="M520.27,282.52l-2.53,1.8Z"/><path class="cls-76" d="M790.35,402.33c-5.47,7.51-16,6.84-21.59,11.72-7.72,6.69-16.14,8.83-24.93,11.46-19,5.67-38.56,4.42-58,4.43-12.27-.76-13.76-2.26-13.65-13.71,16.8-11.31,35.67-18.09,54.46-25.05,16,1.67,32.29,1.14,48,5.34C780.09,398,785.8,398.56,790.35,402.33Z"/><path class="cls-29" d="M858.41,286.76c2.49,1.76,2.24,4.33,2,6.89C858.29,291.78,858.29,289.29,858.41,286.76Z"/><path class="cls-77" d="M25.8,582.53c.28-3.1,2-5.38,5.05-4.67,13.64,3.25,29.64-2.34,40.72,11,1.28,1.54,1.28-1.71,2.15-2.49,2.57-.25,3.79,1.66,5.3,3.21,3.22,3.28,1.55-1.27,2.52-1.66,3.62-8.22,10-9.38,17.67-6.83,3.51,1.17,6.76,3.34,10.73,2.54,3.4.39,4.12,2.75,4.14,5.63,5.43,12.91-1.4,22.4-8.79,31.74l0,0c-2,1.77-4.92.2-6.92,1.94-10.44,1.52-20.83,3.58-31.32,4.34-4.85.34-11,3.28-14.69-4-1.58-3.13-5.44.25-8.28.27l-2.56-.69a1.2,1.2,0,0,0-2.07.36c-2.64,2.57-6.06,1.66-9.2,2.05-5.3-3.32-1.86-6.28.61-8.9a27.51,27.51,0,0,1,9.21-6.2c6.26-2.72,5.2-6.07,1.22-9.91,6.77-3.29,5.76-6.8.49-10.78-3.4-2.56-7-3.77-11.15-2.89Z"/><path class="cls-29" d="M98.4,622.9a7,7,0,0,1,6.92-1.94C103.51,623.38,101,623.31,98.4,622.9Z"/><path class="cls-78" d="M667.44,434.17c-15.76.09-28.57,4.06-34.17,21.39-2.48,7.7-8,14.4-12.62,22.27,9.56,3.32,19.38.84,28.75,2.48-1.16,5.84-6.06,4.71-9.83,4.9-9.34.48-18.72,0-28.07.33-2,.1-3.83,1-5.77,1.28a40.1,40.1,0,0,1-15.74-.17,151.92,151.92,0,0,0-45,.23c-7.91,1.26-15.89.57-23.84.78-7.53.27-15.14-1-22.6,1a33,33,0,0,1-7.2,1c-4.54.19-9.15-.33-13.6,1.16a31.34,31.34,0,0,1-6.53.92c-3.12.11-6.27.1-9.29,1.13a22.54,22.54,0,0,1-3,.7,44.19,44.19,0,0,0-9.11,1.76,19.74,19.74,0,0,1-3.12.68c-9.6-1.23-18.51,6.37-28.33,2.27l-7.16-.78c5.75-5,12.5-4.31,18.3-6.46,27.83-4.93,55.62-10.19,86.42-11.19l-29.41-14.56c.34-.76.69-1.52,1-2.28,8,3.39,16.13,6.49,23.95,10.26,9.77,4.7,19.55,6,30.58,5.37,20.67-1.25,41.49-.8,62.22-.08,7.14.25,10.83-2.36,14.76-7.68,11.64-15.79,19.12-33.36,24-52.18l4.15,6.66c4.39,7.37,12.33,2.07,18,5.05C666.74,431.24,668,432.18,667.44,434.17Z"/><path class="cls-79" d="M665.09,431.78c-5.1.1-10.19.36-15.28.27-6-.1-5.95-2.8-2.54-6.65l24.9-9.17c1.64,7.48,6.21,12,13.65,13.71-1.18,2-3.11,2.21-5.15,2.09C675.51,429.94,670.27,432.72,665.09,431.78Z"/><path class="cls-80" d="M136.74,407.09c11.54,7.12,25.43,7.51,39.06,12.24-19.7,11.91-37.79,11.27-50-.75C125.47,411,131.43,409.34,136.74,407.09Z"/><path class="cls-81" d="M392.81,804.69c2.84-3.37,5.68-6.74,11.76-7.21a23.4,23.4,0,0,1-8.93,10Z"/><path class="cls-15" d="M651.59,319a9.22,9.22,0,0,1-1.73-7.18C652.22,313.75,651.86,316.37,651.59,319Z"/><path class="cls-15" d="M647.32,304.84c.07-1.47.14-2.95.2-4.42,1.93,1.36,2,3.26,1.58,5.32A6.63,6.63,0,0,0,647.32,304.84Z"/><path class="cls-15" d="M646.87,296.67q-.69-2.66-1.39-5.31C647.29,292.77,647.31,294.66,646.87,296.67Z"/><path class="cls-82" d="M41.32,600.2c3.5.55,8.39-.41,8.52,4.89.1,3.65-3.91,4.74-6.55,6.75-4.92,3.75-14.89,3-13,13.37-6,2.32-11.39,6-17.93,6.81C16.23,616.14,26.35,606,41.32,600.2Z"/><path class="cls-82" d="M39.48,623.16,39,621.48l2.6,1.32A3.88,3.88,0,0,1,39.48,623.16Z"/><path class="cls-77" d="M21.06,580.09l2.57,1.54Z"/><path class="cls-83" d="M402.35,475.35c-14.91,12.5-33.88,13.43-51.57,17.38-12.38,2.77-24.32,7.37-37.22,8.37-11.08.85-17.34-5.49-14.44-16.63,2.18-8.37,7.08-15.43,10.79-23.07,5.66-4.72,11.74-1.35,17.38-.4,21.16,3.57,42.88,3.28,63.63,9.42,3.43,1.1,7,1.92,10.19,3.63C401.53,474.48,401.94,474.91,402.35,475.35Z"/><path class="cls-84" d="M418.38,498.32c9.71-1.95,19.27-4.91,29.33-4.68,15.05.41,29.51-4.25,44.45-5.15,29.7-1.78,59.59-6.33,89.05-3.07,14.25,1.58,29.4,3,43.49,7.87-.8,6.34-6,4.64-9.55,4.69-56,.9-111.41,8.34-166.89,15-6.78.81-13.33,6.45-20.51,1.37-.87-.7-3.87-1.07-2.35-2,3.6-2.14,8-3,11.79-5.93-6.28.37-12.58.61-18.85,1.16-2.75.24-6.37,3.53-7.93,0-1.47-3.36,1.82-6,5-7.59C416.44,499.45,417.4,498.87,418.38,498.32Z"/><path class="cls-85" d="M393.23,473.5l-83.32-12.1c-6-6.31-9.15,2.72-14,2.52,1.94-9.83,10.3-14.94,17-20.22,31-24.47,65-43.66,103.07-55a40.5,40.5,0,0,1,16.68-1.7c-4.51,7.76-.19,15.22.33,22.79,1.23,17.95-4.53,34.15-9.65,50.65-2.56,8.25-7.64,13.65-16.59,14.61l-4.37.29.09-.34C399.56,473.34,396.12,475.1,393.23,473.5Z"/><path class="cls-86" d="M427.75,514.32c57.34-11.82,115.71-14.22,173.83-18.85,7.83-.63,15.82,1.11,23.49-1.66a6.92,6.92,0,0,1,3.1-2.37c6.38-1.65,12.91-.63,19.36-1.06,18.86-.14,37.72-.07,56.59,0,4.36,0,9.21,1.33,12.58-3.06,1.95-2,4.23-1.57,6.54-.86,3.57.88,7,2.65,5.75,6.76-1.33,4.31-6.15,4.21-9.66,4.26-22.57.33-45.16-.2-67.71.49q-78.43,2.38-156.35,12c-2.28,1.05-5,0-7.17,1.52l-1-.07-.92.26c-9.51,4.75-19.63,5.69-30,4.41-2.91-.37-5.67-1.65-8.55,0-9.89.9-19.1,6.53-29.65,4.3C419.4,515.16,425.38,517.59,427.75,514.32Z"/><path class="cls-75" d="M447.7,516.09a163.22,163.22,0,0,1,38.52-4.36c10.7,1.53,5.26,10,7.21,15.58,4.94,14.08-2.23,25.34-6.45,37.42-1.65,4.69-3.87,6.13-7.44,1.61-6-15.34-11.37-30.94-22.15-43.85C454.75,519.32,452.6,515.7,447.7,516.09Z"/><path class="cls-87" d="M175.65,472.88c0-10.21,2.21-12.84,15.12-17.69-1.09,5.45-7.56,6.15-8.76,10.91C179.39,467.89,180.86,473.53,175.65,472.88Z"/><path class="cls-88" d="M512.79,338.91c22-22.74,46.92-39.63,79.36-43.65,14.38-1.78,23.77,2.62,28,17.06,4.09,13.85,4.14,28.27,4.61,42.58A424.16,424.16,0,0,1,615.56,421c-2.44,11.36-8.29,21-15.1,30.14-6.21,8.31-14.21,11.07-24.8,9.57-18.8-2.66-36.93-7.08-54.32-14.79-6-2.67-8.55-6.18-8-13a135.76,135.76,0,0,0-8.62-61.2c-1.94-5-3.77-10.12-11.85-5.44C497.7,354.5,506.79,347.83,512.79,338.91Z"/><path class="cls-89" d="M82.62,589c.58,2,1.16,4.06,2,6.94-6.13-.89-8.34-5.44-10.89-9.56C72.48,582.6,71,578.9,70,575.07c-1.59-6.53.25-10.85,7.91-10.66a96.84,96.84,0,0,1,36.46,17.76c.6.92,1.45,1.64,2,2.6a3.38,3.38,0,0,0,.77,1.87l-3.1,2.62-4.41-4.54c-7-1-11.93-6.37-18.34-8.6-3.84-1.33-8.17-4.26-11.61-.79-3,3,1,6.16,2,9.22A20.49,20.49,0,0,1,82.62,589Z"/><path class="cls-45" d="M175.47,511.74c8.53,7,19,10.13,28.92,14.4,15.32,6.62,15.36,6.52,7.45,22,1.53-8-2.51-12.07-9.5-15.16a206.46,206.46,0,0,1-34.87-19.3C170.32,510.87,173,512.1,175.47,511.74Z"/><path class="cls-37" d="M205,579.91c-.15.32-.3.64-.46,1L205,580Z"/><path class="cls-29" d="M116.41,584.77l-2-2.6Z"/><path class="cls-90" d="M764.5,611.88l.93,8.61c-4.72,10.37-15,13.52-24.22,15.94-25.82,6.78-51.57,5.75-76.22-5.88-3-1.41-6.71-2.75-4.13-7.43A8.15,8.15,0,0,1,663,623c2-1.75,5,0,7-2,18.34-6.62,36.49-13.86,55.59-18.15,13-2.91,25,2.65,37.48,4.55.1.57.2,1.15.33,1.71Q764,610.47,764.5,611.88Z"/><path class="cls-91" d="M660.86,623.12c10.78,8.29,23.15,12.55,36.51,13.57,24.35,1.86,47.93-.05,68.06-16.2,2.5,2.46,2,5.8,2.55,8.81-10,8.76-22.54,11.33-35,14.28-20,4.75-39.56-1-59.17-2.9-7.29-.71-14.67-5.94-20.9-10.6-6.87-5.14,3.72-3.7,3.42-6.81Z"/><path class="cls-92" d="M723.24,486.47c-2.11.21-4.25.34-5.66,2.29-1.85,2.43-4.56,2.63-7.19,2.45-13.85-.93-27.86.27-41.55-3a3.2,3.2,0,0,1-1.72-3.34c7.41-3.75,15.59.3,23.12-2.29C701.22,484.08,712.53,482.68,723.24,486.47Z"/><path class="cls-92" d="M608,482.69c13.73-2.24,27.84,2.12,41.44-2.38l16.82,1.46c-3.12,4.3-8.39,3.2-12.5,5.05-5.9,1.12-11.88.67-17.84.85-8.65-.69-17.48,1.37-26-1.65A3.67,3.67,0,0,1,608,482.69Z"/><path class="cls-78" d="M654.08,484.26c3.5-3.5,8.19-1.17,12.14-2.49l24,.83c-7.45,4.16-15.68.35-23.35,2.32C662.45,488,658.16,488.19,654.08,484.26Z"/><path class="cls-93" d="M665.09,431.78c5.23-2.22,10.45-3.76,15.58.25-4.45.5-8.54,3.14-13.23,2.14Z"/><path class="cls-75" d="M488.1,511.54c2-2.1,4.64-1.66,7.17-1.52C493.26,512.34,490.66,511.84,488.1,511.54Z"/><path class="cls-91" d="M669.93,621c-1.78,2.58-4.41,2.18-7,2C664.82,620.71,667.38,620.88,669.93,621Z"/><path class="cls-94" d="M944.12,695.77c-3.45,9.42-10.39,15.45-19.71,19.41l9-10.63c-11.13,5.52-19.7,11.45-33,12C916.44,708.45,931,703.84,944.12,695.77Z"/><path class="cls-57" d="M764.5,611.88l-1.17-2.79Z"/><path class="cls-69" d="M896.81,757.22l13.53.19C905.78,760.46,901.27,760.69,896.81,757.22Z"/><path class="cls-69" d="M914.78,757c3.42-3.09,7.55-1.92,11.49-1.94C922.9,758.47,918.71,757,914.78,757Z"/><path class="cls-95" d="M82.62,589c-4.73-5-10.82-12.35-7.11-17.15,4-5.12,12.39-.12,18.55,2.44,5.89,2.44,11.39,5.48,15.61,10.44-2.72,6.53-6.07,1-8.29-.09C93.65,580.74,87.42,581.18,82.62,589Z"/><path class="cls-96" d="M609.17,484.31l26.79.47c10.71,2.44,21.72-.66,32.43,1.72l49.19,2.26c1.61.71,4.67.31,4.5,2.35-.23,3-3.37,2.17-5.43,2.16-17.21-.09-34.43-.26-51.65-.42-6-.05-12-.16-17.92-.24-9.28.78-18.25-2.71-27.51-2.28-1.53.38.69,2.07.06.69-.26-.57,0-.95.77-.75,2.36.64,6.44-2,6.44,3.27l-.83.51-.94-.24c-7.54-.09-15.12.2-22.62-.42-5.13-.43-12.57,3.78-14.32-5.8-.09-.5-2.75-.75-4.21-.76a932.4,932.4,0,0,0-106.83,5.41c-9.67,1.06-19.35,6.84-29.38,1.4a.83.83,0,0,1,1.4-.34c3.11-1.65,6.85.21,9.9-1.79a1.39,1.39,0,0,1,1.84-.37c2.92-1.9,6.51,0,9.47-1.68l6.31-.61c4.5-2.23,9.62.41,14.12-1.8l6.08-.53c7.67-2.36,15.74.67,23.4-1.74l24-.55a260.17,260.17,0,0,1,46.95,0l14.46-.1A3.26,3.26,0,0,1,609.17,484.31Z"/><path class="cls-84" d="M591.14,484.28l-46.94,0C559.84,481.55,575.49,482.38,591.14,484.28Z"/><path class="cls-84" d="M520.23,484.78c-7.53,4.16-15.58,1.34-23.39,1.74C504.48,483.88,512.44,485.41,520.23,484.78Z"/><path class="cls-84" d="M490.75,487.05c-4.33,3.63-9.36,1.61-14.12,1.8C481.18,487,485.93,486.78,490.75,487.05Z"/><path class="cls-84" d="M470.32,489.46c-2.74,2.89-6.21,1.7-9.47,1.68C463.68,488.72,467.09,489.59,470.32,489.46Z"/><path class="cls-84" d="M459,491.51c-2.84,3.19-6.46,1.94-9.9,1.79C452.15,491.29,455.62,491.64,459,491.51Z"/><path class="cls-84" d="M609.17,484.31l-3.57-.13,2.36-1.49A13.65,13.65,0,0,0,609.17,484.31Z"/><path class="cls-32" d="M393.23,473.5c3.22-.42,6.52-1.33,9.21,1.51C399.23,475.33,396,475.68,393.23,473.5Z"/><path class="cls-97" d="M427.48,423.51c-.18,1.38-.35,2.77-.53,4.16-2,3.67.36,8-1.77,11.68a31.9,31.9,0,0,1-.44,4.5c-6.43,26.19-21.08,33.32-46.05,23-4.67-1.92-4.82-5.22-3.36-7.95,5.64-10.53,7.11-22,9-33.48,1.83-3.85,5.31-3.43,8.65-3.36,12.38.25,25.49,3,33.48-12.72C428.86,415.72,428.83,419.58,427.48,423.51Z"/><path class="cls-98" d="M427.48,423.51c-.33-3-.67-5.95-1.09-9.8-2.73,7.82-7.66,11.67-15.4,11.62-8.89-.05-17.79.05-26.69.08,2.4-6.74-7.58-13.78-.71-19.55,5-4.19,12.13-5.89,18.41-8.44,21.38-8.67,26.9-4.84,26.86,18.48C428.85,418.51,429.37,421.23,427.48,423.51Z"/><path class="cls-99" d="M327.49,459.43l-4.77-.62c-1.47-.62-3.22-.4-4.52-1.52-1.78.1-3.48,0-4.56-1.74-.85-1.72-1.17-3.4.31-5l.15-.13a5.67,5.67,0,0,1,2.11-1.9l.35-.36a5.15,5.15,0,0,1,1.91-2l.16-.12c4.86,2.47,9.71,5,15.31,2.18a14.17,14.17,0,0,1,2.91.15,20.52,20.52,0,0,1,2.68.65,5.26,5.26,0,0,0,5.87-1.5c7.84-7.27,0-14.59.1-21.87,6.44-3.78,12.85-7.6,19.31-11.34,10.2-5.9,11.86-5.17,12.81,6.19.27,3.18,2.63,6.48,0,9.69-4.28,1.63-8.71,3.65-10,8.3-4.31,16-17.29,17.84-30.51,19.14C333.82,458,330.5,457.65,327.49,459.43Z"/><path class="cls-100" d="M327.49,459.43c6.36-8,16.72-3.21,24.79-7.91,6.22-3.62,10.83-5.34,12-13.46.87-6,5.18-11.56,13.32-7.86.06,9.71-1.54,19-6.87,27.33-12.53-3.57-24.38,4.13-36.81,2.2Z"/><path class="cls-101" d="M345.5,425.66c9,10.71,9,14.82,0,25.25-2.28.61-4.57,1.3-6.58-.69l0,0a30.73,30.73,0,0,1-4.54-2.79c-3.48-5-3.93-10,.2-14.85Z"/><path class="cls-102" d="M333.94,459.73c9.85-2.33,19.66-4.83,29.56-6.91,3.47-.73,6.7.26,7.25,4.71-2.48,8.75-9.34,6.78-15.45,6.14-4-.41-8-1.47-11.94-2.24-2.84-1.83-6.4.15-9.23-1.74Z"/><path class="cls-103" d="M334.62,432.63c-1.7,5.48-.38,10.59,1.94,15.56.58.51.76,1,.56,1.49s-.41.72-.61.72c-1.49.11-3.45-.35-4.38.43-7.37,6.18-10.79,1.85-13.5-4.79C323.05,440.48,328.78,436.49,334.62,432.63Z"/><path class="cls-98" d="M425.18,439.35c-.57-4.07-1.42-8.18,1.77-11.68A20.61,20.61,0,0,1,425.18,439.35Z"/><path class="cls-100" d="M334.13,459.69c3.24-.28,6.57-1,9.23,1.74C340.14,461.62,336.81,462.39,334.13,459.69Z"/><path class="cls-103" d="M314,450.58c-.1,1.66-.21,3.31-.31,5C311.84,453.77,311.11,452.06,314,450.58Z"/><path class="cls-103" d="M318.2,457.29l4.52,1.52Z"/><path class="cls-103" d="M318.47,446.17l-1.91,2C317.2,447.52,317.84,446.85,318.47,446.17Z"/><path class="cls-103" d="M316.21,448.55l-2.11,1.9Z"/><path class="cls-84" d="M626.84,493.54c-2.05-3.61-6.35-1.06-9.48-3.61,10.64-3.23,20.06,1.16,29.72,2.68Z"/><path class="cls-104" d="M513.08,375.48C510.63,369,501.92,364,504,357.41c1.79-5.71,9.3-9.47,13.86-14.48,20.1-22.07,44.2-37.39,73.43-44.07,13.56-3.1,19.69.53,23.48,14.07,8.71,31,5.7,62.07-.75,93-2.21,10.58-3.55,21.59-9.77,31-8-1.06-7.27-7.48-7.56-12.94-.83-15.32-4.48-29.66-13.38-42.42-7-10-15.59-14.15-28.07-10.85-9.08,2.4-18,5.09-27,7.88C522.64,380.28,517.18,381.28,513.08,375.48Z"/><path class="cls-105" d="M590.4,454.51c-4.63,4.32-10.17,1.74-15,1.37-17-1.31-33.21-6.39-49.18-12.18-6.17-2.24-9.5-5.48-8.69-13.36a138.88,138.88,0,0,0-2.22-42.82c-1.15-3.14,1.24-3.93,3.3-4.72a408,408,0,0,1,41-13c6.69-1.77,11.37.14,16,5.23,15.39,17,19,37.43,17.21,59.22C592.24,441,591.22,447.77,590.4,454.51Z"/><path class="cls-106" d="M590.4,454.51c-7-4.82-2-11.11-1.28-16.26,3.39-23.49-.2-44.6-17-62.52-3.24-3.45-5.34-4.71-10.29-3.39a378.13,378.13,0,0,0-46.51,15.18c-2.47-3.7-2.31-7.87-2.19-12,4.62,2.47,9,2.1,14,.34,9.49-3.36,19.19-6.06,29-8.5,12.94-3.22,22,1.15,29.13,11.29a77.41,77.41,0,0,1,14.38,44.11c.08,5.28-.47,10.6,4.64,14.14l-2.7,4.46a18.62,18.62,0,0,0-1.71,2.67C598,448.7,594.48,451.86,590.4,454.51Z"/><path class="cls-104" d="M599.82,444l1.71-2.67Z"/><path class="cls-84" d="M668.39,486.5c-10.82-.37-21.8,2.39-32.43-1.72l18.12-.52,12.81.66C667.37,485.47,667.87,486,668.39,486.5Z"/><path class="cls-84" d="M610.16,490.12c-1.64.34-2.76.94-3.48.62s-.91-1.57-1.34-2.41c.64-.26,1.47-.91,1.89-.71A16.6,16.6,0,0,1,610.16,490.12Z"/><path class="cls-100" d="M338.93,450.22l6.58.69C343,453.41,340.82,453.33,338.93,450.22Z"/><path class="cls-100" d="M336.51,450.4c0-.74,0-1.47.05-2.21l2.4,2.08Z"/></g></g></svg>