<svg xmlns="http://www.w3.org/2000/svg" viewBox="0 0 977.14 959.88"><defs><style>.cls-1{fill:#bb8a49;}.cls-2{fill:#a1896f;}.cls-3{fill:#110e0b;}.cls-4{fill:#120e0b;}.cls-5{fill:#141110;}.cls-6{fill:#0b0907;}.cls-7{fill:#1c1a17;}.cls-8{fill:#110e0c;}.cls-9{fill:#100f0d;}.cls-10{fill:#151312;}.cls-11{fill:#201d1a;}.cls-12{fill:#151311;}.cls-13{fill:#1d1b18;}.cls-14{fill:#13100d;}.cls-15{fill:#13110f;}.cls-16{fill:#201c18;}.cls-17{fill:#181513;}.cls-18{fill:#d0b491;}.cls-19{fill:#191613;}.cls-20{fill:#1b1816;}.cls-21{fill:#211f1d;}.cls-22{fill:#2d2924;}.cls-23{fill:#120f0c;}.cls-24{fill:#2e2c29;}.cls-25{fill:#16110c;}.cls-26{fill:#12100f;}.cls-27{fill:#292421;}.cls-28{fill:#100d0b;}.cls-29{fill:#272320;}.cls-30{fill:#161412;}.cls-31{fill:#121110;}.cls-32{fill:#25211e;}.cls-33{fill:#151210;}.cls-34{fill:#3a342f;}.cls-35{fill:#2d2926;}.cls-36{fill:#383430;}.cls-37{fill:#312a22;}.cls-38{fill:#291f13;}.cls-39{fill:#191510;}.cls-40{fill:#322d29;}.cls-41{fill:#463f37;}.cls-42{fill:#3a342e;}.cls-43{fill:#2f2720;}.cls-44{fill:#322f2c;}.cls-45{fill:#3e3733;}.cls-46{fill:#423e39;}.cls-47{fill:#46403a;}.cls-48{fill:#f1dab8;}.cls-49{fill:#544c45;}.cls-50{fill:#9c9c9c;}.cls-51{fill:#d5b794;}.cls-52{fill:#1c1713;}.cls-53{fill:#ab9276;}.cls-54{fill:#93683a;}.cls-55{fill:#f7e2bb;}.cls-56{fill:#cca873;}.cls-57{fill:#100c09;}.cls-58{fill:#0d0908;}.cls-59{fill:#d9bb90;}.cls-60{fill:#d2b387;}.cls-61{fill:#9d713d;}.cls-62{fill:#2f2822;}.cls-63{fill:#d4b693;}.cls-64{fill:#b69c7e;}.cls-65{fill:#504236;}.cls-66{fill:#8b735a;}.cls-67{fill:#c4ae8b;}.cls-68{fill:#82643e;}.cls-69{fill:#ccb694;}.cls-70{fill:#7d6141;}.cls-71{fill:#93683b;}.cls-72{fill:#b58548;}.cls-73{fill:#42392e;}.cls-74{fill:#92673a;}.cls-75{fill:#a37740;}.cls-76{fill:#ba8a49;}.cls-77{fill:#956a3b;}.cls-78{fill:#887b6a;}.cls-79{fill:#95826c;}.cls-80{fill:#9f886e;}.cls-81{fill:#d3b592;}.cls-82{fill:#bca282;}.cls-83{fill:#f3e0be;}.cls-84{fill:#cdb794;}.cls-85{fill:#e0d4b8;}.cls-86{fill:#c0a989;}.cls-87{fill:#a58c71;}.cls-88{fill:#d4b794;}.cls-89{fill:#897b6b;}.cls-90{fill:#a38b70;}.cls-91{fill:#a99278;}.cls-92{fill:#d1b695;}.cls-93{fill:#d1b493;}.cls-94{fill:#ddc6ac;}.cls-95{fill:#a0886e;}.cls-96{fill:#cdb695;}.cls-97{fill:#c3ac8b;}.cls-98{fill:#b59b7d;}.cls-99{fill:#c5ae8d;}.cls-100{fill:#c8b292;}.cls-101{fill:#bd8b4a;}.cls-102{fill:#dec6ac;}.cls-103{fill:#d9c1a4;}.cls-104{fill:#aa9175;}.cls-105{fill:#a58d72;}.cls-106{fill:#d4bf9d;}.cls-107{fill:#b59c7d;}.cls-108{fill:#dfc8ae;}.cls-109{fill:#44372d;}.cls-110{fill:#e8dec5;}.cls-111{fill:#d4b895;}.cls-112{fill:#dfc8af;}.cls-113{fill:#0b0909;}.cls-114{fill:#dac4a2;}.cls-115{fill:#181510;}.cls-116{fill:#3a332a;}.cls-117{fill:#4b4135;}.cls-118{fill:#79604b;}.cls-119{fill:#af9576;}.cls-120{fill:#100d09;}.cls-121{fill:#f2dcb9;}.cls-122{fill:#987e61;}.cls-123{fill:#f5e9cf;}.cls-124{fill:#fafafb;}.cls-125{fill:#e0e0e8;}.cls-126{fill:#d5d5d7;}.cls-127{fill:#403b3b;}.cls-128{fill:#140f0b;}.cls-129{fill:#bd8c4a;}.cls-130{fill:#130f0a;}.cls-131{fill:#aa885b;}.cls-132{fill:#c99550;}.cls-133{fill:#181410;}.cls-134{fill:#d7c0a0;}.cls-135{fill:#d5be9e;}.cls-136{fill:#1e1a15;}.cls-137{fill:#d8c2a1;}.cls-138{fill:#312d2a;}.cls-139{fill:#3d342a;}.cls-140{fill:#201b16;}.cls-141{fill:#3c3329;}.cls-142{fill:#fefefe;}.cls-143{fill:#99757f;}.cls-144{fill:#fdfdfd;}.cls-145{fill:#c798ad;}.cls-146{fill:#d8d9e2;}.cls-147{fill:#e1e1e9;}.cls-148{fill:#ad8392;}.cls-149{fill:#2d2d2d;}.cls-150{fill:#e5cfac;}.cls-151{fill:#4f4539;}.cls-152{fill:#dac4a1;}.cls-153{fill:#4b4134;}.cls-154{fill:#f2e4c9;}.cls-155{fill:#b7a489;}.cls-156{fill:#9f886d;}.cls-157{fill:#dec8ae;}.cls-158{fill:#b2987b;}.cls-159{fill:#b99f81;}.cls-160{fill:#eed7b5;}.cls-161{fill:#f2e4ca;}.cls-162{fill:#ab9f8c;}</style></defs><title>Recurso 7</title><g id="Capa_2" data-name="Capa 2"><g id="Capa_1-2" data-name="Capa 1"><path class="cls-1" d="M430.3,112.42c-.62,1.69-1.2,3.41-3.27,3.87-4.23,1.7-7.66,4.89-6.49,9.32,1.07,4,5.87,2,9,2.49a88.5,88.5,0,0,0,9,1.19c3.1.15,7.9-1.89,8.75,2.62.93,4.88-4.45,5.07-7.54,6.79-10.8-.92-19.73,4.4-27.95,10-6.69,4.53-12.36,10.59-21.43,12.91,4.29,3,7.85,1.77,11,2.69,2.58.75,5.3,1.37,5.47,4.72.15,3.05-1.86,4.93-4.38,6-5.25,2.16-10.89,2.76-16.43,3.76-18.79,3.41-37.81,5.79-55.83,12.63a22.93,22.93,0,0,1-2.75,1.71,63.75,63.75,0,0,1-5.88,2.71c-2.54.95-5.11,1.84-7.72,2.59-16.53,5.43-34.55,6.06-49.74,15.64-4.08,6.76,1.49,7.55,5.61,8.53,6.73,1.61,13-.55,19.11-3.39,14,1.17,27.5,4.9,41,8.7a45.88,45.88,0,0,1,6.29,2.68,7.32,7.32,0,0,1,2.38,2.22c-1.72,12.31-14,7.51-20.91,13.05,8.91,7.81,8.38,21.56,18.65,28.65a3.82,3.82,0,0,1-1.25,2.89,16.9,16.9,0,0,1-4.31,2.6c-4.87,1-9.2,5.38-14.72,2.39-9.69-8.89-21.22-15.64-29.66-26-2.65-3.25-7.12-4.08-11-5.41a209.8,209.8,0,0,0-57.56-10.5c-10.35-.51-17.84-4.18-20.79-14-5.05-16.72-16.08-22.33-32.62-20.45-8.62,1-17.25-.46-25.8-2.05-6.25-1.16-11.51-3.43-14.67-9.28-1.3-4.82.19-8.33,4.82-10.38,1.51,0,3.21.07,4.3,1.09,13.56,12.78,29.44,11.3,45.77,7.73,11.05-2.42,22.34-3.6,33.3-6.52,7-1.86,10.95-5.88,8.14-13.2-3.17-8.22,1.08-11.73,7.48-14.92,5.75-2.85,12-4.35,19.4-8.25-10.8-1-22.93,5.88-27.53-8.44-.08-.77-.09-1.93.38-2.07,14.25-4.37,17.69-17.66,23.8-28.76,1.62-2.93,3.35-5.84,7.14-6.37,4.23,1.32,4.38,4.42,3.49,7.86,6.59-9.27,10.15-21.5,23.07-25.12,3.12,3.69-1,10.76.45,10.88,8,.67,3.73,6.71,5.35,10.18,5.13-.24,9.4-6.12,14.59-3.7,6.29,2.93.9,8.81,2,13.18,17-7.67,34.9-13.27,52.14-20.46a6.78,6.78,0,0,1,5.46,0c4.82,4,10.18,2.93,15.56,1.61,3.44-.84,6.74-3.16,10.46-.94,2.26,4.64-1.8,7.43-3.39,11.13,3.21-3.67,7.28-3.89,11.49-3.67,11.63,5.55,24,1.32,35.92,2.64A4.77,4.77,0,0,1,430.3,112.42Z"/><path class="cls-2" d="M891.36,664.72a12.89,12.89,0,0,1-6.88,6.24,5.47,5.47,0,0,0-1.12-.15c-4.64.35-9.09,9.18-12.16,4a15.43,15.43,0,0,1,3.54-20.1,2.12,2.12,0,0,1,1.47,2.5c1-.84.16-1.76-.07-2.48-3-9.31-.3-16.87,6.67-23.39,10.46-9.79,19.81-20.5,26.34-33.43a9.15,9.15,0,0,1,2.37-2.23c5.17.44,4.46,4.36,5.33,6.91,1.37-4.14-4.92-7.41-3.52-12.3,4.32-12.5,11.42-23.71,17.23-35.46,13.89-28.1,20.44-58.07,25.69-88.52,1-6.05,1.34-12.24,8.93-14,8.88,2.61,9.91,10.33,9.39,17.29-1.71,22.8-3.51,45.64-8.85,68-5.51,17-11.13,34.05-20.07,49.7-7.32,10.11-11.1,22.35-19.21,32-2.62.56-5.58.74-5.27,4.68-1,8.8-7,14.55-12.5,20.53C902.7,651.1,896.23,657.21,891.36,664.72Z"/><path class="cls-3" d="M358.13,98.19c-21.11,6.94-42.18,14-61.72,25.89-2.58-6,2.11-11.78,2-18.86l-18.29,8.34c-3.27-4.89,1.46-8.9.81-13.21-2.67-1.45-4.06,1.31-7,2.07.85-5.55,1.61-10.47,2.37-15.4-3.19-4.14-.21-8.35-.12-12.53-8.75,9.66-14.27,22-24.72,30.21-4.9,3.91-7,9.69-8.88,15.2C238.72,131.27,232,139,220,141.65c-8.12,6.65-18.29,8.55-27.8,11.88-20.72,7.26-40.66,16-58.24,29.44a11.59,11.59,0,0,1-2.85,1.74l-1.62.43c-3,2.23-5,5-4.55,9a71.42,71.42,0,0,1,2.91,17.59c.25,5.47,3.85,10.31,3.05,16a4.12,4.12,0,0,1-3.24,3.27,4.69,4.69,0,0,1-3.53-2.43c-2.64-6.16-5.84-6.84-10.16-1.48a6.32,6.32,0,0,1-5,2.11c-4.42-1.29-3.17-4.53-1.86-7,2.16-4.09,1.83-8.53,2.64-12.81.83-1.51,1.81-2.71,3.78-1.81,2.26.77,6.92,6.45,5.64-1.35-2.67-16.31,5.36-26.87,17.45-34.86,16.71-11.07,35.22-18.73,54.18-25.1,4.81-1.62,6.75-3.12,5.53-8.63-2.16-9.71,0-19.47,1.3-29.16.88-6.34,5.2-9.9,10.55-12.29,12.49-5.58,18.73-15.24,21.06-28.64,3-17.1,7.05-34,10.78-51a46.83,46.83,0,0,1,3.09-9.7c3.26-7,6.31-9.75,13.74-2.58,26.84,25.9,46.51,55.94,56.53,92.05,3.42,12.31,3.83,12,15.8,7.53,22.17-8.36,43.47-19,66.44-25.21,2.53-.69,5-1.83,8.12.15l-14.11,21.62c-.64,1.67-1.15,3.31.85,4.49a1.78,1.78,0,0,1-.48,2.3c-3.83.86-7.26,3.42-11.92,2.7,0-4.93,4.6-7.19,5.94-11.11-.42-5,3.18-8,5.51-11.11-8.53,3.69-17.66,6.93-26.74,10.29a11.26,11.26,0,0,1-3.11.47Z"/><path class="cls-4" d="M661.71,239.52c2.62,4.16.31,7-2.45,9.91-5.47,5.71-10.32,12.17-16.39,17.14-12.46,10.18-23.45,20.9-23.75,38.46a5.36,5.36,0,0,1-.5,2.2c-3.42,7.07-10.43,14.69-9.4,21,1.13,6.86,13.93,5,19.7,12.06l-11.07,9.09c17,5.48,31.77,12.68,46.26,20.7-2.15,4.06-6.5,2.17-9.1,4.31,6.78,21.63,31.34,25.09,43.62,42.27l-24.91,13.08c6,5.57,11.33,10.62,16.73,15.63,2.16,2,6,3.46,5.25,6.74-.92,4-5.19,3.57-8.5,3.84-1.85.15-3.73,0-7.31,0,4.23,8.4,7.47,16.59,12.15,23.85,16.57,25.73,23.92,55,32.92,83.68,1.19,3.78.39,8.19.51,12.3-2.11,1.93,1,6.26-3.3,7.19-3.17-1.56-3.55-4.62-3.79-7.58-1.5-18.46-8.19-35.48-14.39-52.63-9.17-24.12-19.51-47.64-35.14-68.43a31.81,31.81,0,0,1-2.56-3.75c-1.06-1.93-3.06-4-1.51-6.18,2.07-2.91,4.69-1.08,7,.13s4.25,3.3,7.17,3c.33,0,.62-.4,1.13-.75-1.26-4.35-5.56-5.81-8.43-8.54-8.24-7.82-7.86-10.92,2.22-16.85,3.47-2,7.93-2.66,10.56-7.2-5.34-5.3-11.15-10.51-17.53-13.91-10.67-5.69-16.73-15.95-25.87-23-5.45-4.19.72-6.77,1.79-10.33-8.84-3.28-16.71-7.81-24.87-11.72-3.6-1.72-8.08-3.57-5.83-9.23.9-2.28,3.76-4.51.31-6.8a7.24,7.24,0,0,0-9.41.67c-4.65,4-10.54,5.86-15.75,8.93-24.76,14.56-49.33,10.68-73.48-1.57-2.92-1.48-10.32-3.64-3.07-9.42,6.76-.6,12.3,3.21,18.25,5.29,14.74,5.15,29.22,6,44.18.66,17.65-6.27,31.13-17.69,34.25-35.92,3.16-18.5,11.55-31.95,26-42.72,3.59-2.66,6.46-6.31,9.66-9.49,1-1.13,2.08-2.25,3-3.45a55.54,55.54,0,0,1,5.52-6.64c1.64-1.62,3.29-3.24,5-4.77C658.17,239.69,659.7,238.62,661.71,239.52Z"/><path class="cls-5" d="M875.3,655c-3.48,6.1-.48,13.45-4.66,19.23,6.14,2.41,7.89-7.88,13.84-3.3C850.77,703.5,808.85,720.34,765,733.09a329,329,0,0,1-50.56,10.64,3.26,3.26,0,0,1-.84-3.17c3-5,8.86-5.22,13.39-7.51,14.91-7.51,24.71-17.92,23.25-35.94a14.57,14.57,0,0,1,1.48-7.64,6.15,6.15,0,0,1,4.06-3c8.91,9.21,4.48,19.36,1.78,29.22-1.18,4.32-4.47,7.76-6.95,11.72,17.59.87,31.72-6.51,36.94-19.06,6.74-16.23,3.13-34.55-9.07-45.83-4.72-4.37-10.38-5.59-16.69-5.16-7.84.54-15.52,3-23.51,2-10.86-2.13-10.86-2.13-12-7.22,21.85,3.73,42.57-2.08,62.51-9.41,20.36-7.49,39.22-18.57,57.42-30.54,1.89-.54,2.61.59,3.06,2.13-.27,2.73,1.36,3.89,3.7,4.64,9,2.9,14.78,9.5,19.68,17.14a14.36,14.36,0,0,1,2.68,7.21c.22,3-.17,6.08.63,9.07A2.24,2.24,0,0,1,875.3,655Z"/><path class="cls-6" d="M755.51,686.63l-2.12,2.73c-6.14-6.23-8.65-15-14.6-21.3-2.32-2.46-4.6-5.64-8.33-5.07-4.38.66-4,5-4.61,8.16-4.07,19.7-9.81,38.71-20.22,56.18-5.55,9.32-5.07,9.59,5.94,12.27a5.38,5.38,0,0,1,2.8,1.78c0,.79,0,1.57,0,2.35-23.92-1.47-34.48,17.58-48.31,31.6-2,2-.91,3.77-.11,6,8.76,24.68,8.7,24.7-11.68,41.65-1.13.94-2.34,1.8-3.51,2.7-2.2.44-2.92-.89-3.24-2.7.45-4.61,3.93-7.11,7-9.89,3.65-3.37,6.83-7.13,8.3-11.93,1.36-4.43,2.22-9.8-1.58-12.72-4.07-3.11-6.2,2.53-9,4.49-27.47,19.2-57.22,33.3-90.08,40.42-3.6.79-7.34,2.14-11-.19a4,4,0,0,1-.7-3.15c3.42-5.47,9.37-6.09,14.78-7.33,53.75-12.29,93.55-44.83,124.5-88.63C707.48,709,714.86,679.26,719.2,649a29.34,29.34,0,0,0,1.17-6.83c.17-4.27,0-8.54,0-12.81,1.74-10.39-.32-20.76-.07-31.13.12-5.11-.88-10.5,2.86-14.94.53-2.57-.1-5.51,2.35-7.47,3.06,25.42,5.91,50.84.8,76.35,2.38,6.63,10.25.33,13.2,5.62C752.73,665.7,758.33,675.78,755.51,686.63Z"/><path class="cls-7" d="M113.55,207.5l-2.72,2.92c-10.46-8.49-16.44-20.87-26.08-30.14-3.46-3.32-6.27-7.42-9.82-10.77-.79-.7-1.53-1.45-2.26-2.21s-1.49-1.49-2.21-2.26c-17.62-19-37.56-35.47-55.89-53.16,11.68,15.91,25.45,30.48,37.19,46.7C66.45,178,82.55,196.34,97,216c3.75,5.1,8,10,8.89,16.66a8,8,0,0,1-1,3.12,8.72,8.72,0,0,1-2.47,2.14,8.35,8.35,0,0,1-3.18.41c-11.9-2-22.1-8.65-33.42-12.24-1-.31-1.9-.7-2.83-1.1-1.86-.77-3.77-1.42-5.68-2.06-4.71,0-8.59-7.64-14-1.44a1.51,1.51,0,0,1-2.37-.33A37.35,37.35,0,0,1,35.81,217c-1.7-1.9-3.72-4.27-1.82-6.95s4.86-2.12,7.3-1.22c9.52,3.51,18.91,7.39,28.41,11,8.7,3.27,17.49,6.32,29.48,10.63-4.27-5.86-6.58-9.25-9.11-12.46Q47,163.3,3.93,108.69c-2.25-2.86-6-6.15-2.47-9.75,3.25-3.31,6.16.87,8.72,2.56,17.38,11.42,32,26.18,47.07,40.28C78.33,161.55,99.77,181.32,113.55,207.5Z"/><path class="cls-8" d="M551.15,830.62c0,.71,0,1.43,0,2.14-.38,5.14-4.73,4.11-7.8,5.09a41.59,41.59,0,0,0-6.54,1.3c-11.15,1.24-22,4.48-33.34,4.75-4.38.11,0,1.72.09,2,.48,2.51-.95,3.38-2.77,4.15a10.63,10.63,0,0,1-3.28.14,28.44,28.44,0,0,1-4.7-1.29c-12.55-6.77-23.36-4.85-33.64,5.27-8.57,8.44-21.34,10.88-30.06,19.41a27,27,0,0,0-2.68,3.68c-.45.94-.95,1.84-1.43,2.76-3.3,4.61-2.29,11.94-9,14.38-2.69-1.42-2-3.62-1.31-5.8-1.69-2.69-3.51-5.41-6.95-2.29-3.6,3.26-8.25,5-11.42,9-2.33,2.94-4.51,7.55-9.89,5.25-4.75-2-5.18-6.9-5-10.57.73-14.22,1.6-28.66,13.49-39.12,2.17-.67,2.9.78,3.51,2.4.75,4.78-2.13,8.36-4,12.29a62.69,62.69,0,0,0-4.57,24.53c23.63-13.48,41.17-33.55,66.5-44.75-8.24-2.83-14.82-3-21.36-3.51a8.79,8.79,0,0,1-6.76-4.57c-21.62-4.1-42.51-10.67-63-18.55-.21-3.6,2.53-3.76,5-4.29,12.88,1.33,24.82,6.22,37,10a160.18,160.18,0,0,0,25.29,6.13c34.27,5.65,68.4,2.52,102.53-1.29C540.49,828.73,546.14,825.77,551.15,830.62Z"/><path class="cls-9" d="M259.63,801.11c-10.15.37-20.35.8-30.45.92-19.86.22-32.83,11-44.81,24.69-5.53,6.33-11.07,16.78-20.71,11.68-9.45-5-4-15.65-2.18-23.67,1.65-7.26,3.67-14.69,8.34-20.88,2.25-2.8-2.42-5.76.17-8.57,6.43-9.77,13.51-18.75,25.8-21.49a175.52,175.52,0,0,1,26.54-.26c4.22.24,9.3,0,9.95,6.31-3.49,6.5-10.33,3.23-15.34,5.29a16.5,16.5,0,0,1-5.29.19,43.9,43.9,0,0,0-11.31-1.25c-8.39-.63-13.11,4.52-17,10.91-2.14,3.53-3.7,7.41-6.1,10.8a33.85,33.85,0,0,0-3,5.21c-.34,1-.73,1.91-1.11,2.86-2.06,7.85-5.63,15.47-3.74,25.12,17.36-11.79,26.72-34.3,51-33.54,6.4.23,12.61-1.28,18.9-1.85,8.49-.76,17.23-1.89,24.26,4.94C263.37,801.12,262.28,802.29,259.63,801.11Z"/><path class="cls-10" d="M109,818.9c-6-18.15,3.8-31.92,13.25-45.36,8.52-12.14,19-22.51,33.2-28.16a7.14,7.14,0,0,0,3.34-2.82c10.82-18.45,27.39-16,43.92-11.55a63.84,63.84,0,0,0,16.68,1.91c3.57,0,2.81-2.6,2.61-4.79a3.81,3.81,0,0,1,2.59-1.21,3.73,3.73,0,0,1,3.11,2.77c-.06,2.89,1.11,6-1.43,8.46a9.77,9.77,0,0,1-6,.82,31,31,0,0,0-8,.5c-8.31-.19-16.44-1.79-24.63-2.92-4.85-.67-9.62-.88-14.47,3.16,5.79,4.92,12,2.92,17.56,3.24,8.24.48,16.56-.61,24.77.83,3.05.53,6.36,1.79,6.4,5.32,0,4-3.92,4.12-6.69,4.39-10.88,1-21.8.18-32.7.34-7.29-.27-14.38-3.52-21.8-1.41-14.32,2.91-21.8,14.92-31.56,23.87-.66.74-1.38,1.44-2.09,2.13-.33.36-.69.69-1,1.05a25.75,25.75,0,0,0-4.27,5.82c-.65,1.35-1.28,2.72-1.85,4.12-.32,1-.7,2-1.08,3-3.53,8-1.27,16.85-3.88,25C113.41,819.67,111.58,820.86,109,818.9Z"/><path class="cls-11" d="M918.78,328c-19.07-52.5-49.35-98.19-86.07-139.62-13.94-15.72-29.12-30.57-46.09-43.27-3.61-2.71-7.55-5.09-9-9.79-.9-2.24.45-3,2.26-3.41,8.69,3.93,15.94,10.05,22.87,16.3,42.09,38,76.69,81.82,102.09,132.71,4.38,8.77,9.92,16.91,13.65,26,2.44,5.95,5.06,11.8,4,18.49C921.83,327.07,920.88,328.38,918.78,328Z"/><path class="cls-12" d="M170.16,569.1c-11,13.49-25.89,12.25-40.82,11,1-6,6.14-4.12,9.74-5.17,22.22-3.79,31.56-12.77,34.26-35,.94-7.75,5.72-16.12-.81-23.75-.74-.6-1.48-1.23-2.25-1.78a15.63,15.63,0,0,0-5.15-2.14,10.06,10.06,0,0,1-3.95-1.72,5.41,5.41,0,0,1-1.34-2.57,3.41,3.41,0,0,1,1.19-2.55l16.51,3.74c-.2-6.82-4.88-10.4-10-13.93-12.66-8.65-25.13-17.6-37.76-26.3-5.73-3.95-10.06-8.83-11.84-15.71-1.4-2.73-2-5.34,1-7.46,1.16,0,2.57.15,3,1.1,10.78,21.75,33.33,29.55,50.92,43.22,7.08,5.65,15.85,8.41,23.23,13.56,2.26,2.19,6.64,4.65,3.37,7.81-3.86,3.73-7.91-1.73-12.3-2.06-2.19,3,0,6.32-.48,9.45-.14,15.26-4.29,29.8-7.76,44.47C177.38,567.25,173.62,567.94,170.16,569.1Z"/><path class="cls-13" d="M41,221.14l3.19-.47c4-1.58,6.06,1.64,8.73,3.4,1.19.82,2.4,1.59,3.65,2.33a21.27,21.27,0,0,1,2.53,1.67c6.41,5.26,13.87,8.9,20.67,13.55,5.38,3.68,10.79,8.74,16.93.42,1.67-2.28,4-.43,4.63,2.32a221.33,221.33,0,0,0,14.28,100.73c1,12.74,8.79,24.29,6.72,37.6a8.16,8.16,0,0,1-3,4.45,2.88,2.88,0,0,1-3.37-.08c-.19-13.72-3.45-26.94-8.3-39.54-7.24-18.8-9.71-38.68-14.69-58-1.34-2-5.3-.84-5.27-4.45,1.18-4.07,3-8.57-4.57-6.55-1.43.42-2.86.82-4.3,1.2a11.47,11.47,0,0,1-6.15-.06c-1.53-.71-2.71-1.63-2.27-3.58l3.66-.69c1.23-.06,2.07-.93,3.06-1.5,2.05-.93,4.06-2,6.15-2.79,3.47-1.38,8.87.48,9.19-6,.31-6-2.28-9.73-7.76-12.3-15.14-7.11-28.24-17.3-40.78-28.24A26.73,26.73,0,0,1,41,221.14Z"/><path class="cls-14" d="M451.51,154.77c8,1.73,15.08,0,22.73-3.12,41.48-17,85.06-20,129.25-18,7.48.34,15,.84,22.44,1.27-2.32,7.25-8.72,4.31-13.49,5.44-28.61-1.27-57,1.38-85.34,4.93-17.3,2.17-33.58,7.93-49.73,14.07-14.8,4.21-25.32,14.21-34.82,25.69-2.71,3.28-5.36,9.75-10.09,6.77-5.3-3.33-.59-8.63,1.4-12.83,3.9-8.23,13.29-12.43,15.92-21.62A5.38,5.38,0,0,1,451.51,154.77Z"/><path class="cls-15" d="M226.81,737c-.7-2.18-3.54-4.28-.23-6.6,4.69-1.8,6.88,1.89,9.24,4.53,20.12,22.47,45.08,37.87,71.67,51.48,13.49,6.91,28.3,11.7,40.07,21.87-.94,3.14-2.94,3.07-5.35,1.78-20-11.88-42-.45-62.74-5.21-6.5-1.49-13.47-1-19.84-3.7l3.45-2.41c1.43-2.1,3.66-2.7,5.92-2.81,13.87-.68,27.33,2.45,39.21,2.75-16.79-6.86-33.53-18.36-50.23-29.8C245.6,760.36,232.84,751.85,226.81,737Z"/><path class="cls-16" d="M929.68,457.08c3.21-19.13,4.77-38.32,2-57.65a12,12,0,0,1,2.69-11.91c5.27-5.76,11.82-7.94,19.48-7,11.85,3.72,11.79,3.73,9.47-8.38-2.23-11.66-7.79-22.57-7.71-34.75.64-1.65,1.54-2.91,3.6-2.51,6.15,22,16.45,43.1,14,66.9.94,5,2,10.05-.36,15-6-.67-4.27-5.79-5.21-9.25-1.36-4.93-1.07-10.57-6.49-13.49-15.26-7.18-22.27-2.86-21.66,13.46.15,4.09-.12,8.21.45,13,7.55-1.83,14.87-3.66,21.81.58,3.08,2.28,7,3.87,7.31,8.51a4.16,4.16,0,0,1-2.51,2,9.11,9.11,0,0,1-3.25-.16c-5.52-2.21-10.83-5.3-17.16-2.36-7.69,3.56-8.55,10.35-2.36,16s-1.7,7.94-3.33,11.76c-4.59,3.08-3.52,10.88-10.14,12.26C927.76,465.26,928.6,461.18,929.68,457.08Z"/><path class="cls-17" d="M648.74,823.78c.68.65,1.37,1.29,2.06,1.93a220.38,220.38,0,0,0-32.14,44.91,36.85,36.85,0,0,1-10.94,12.82c-26.24,18.14-44.08,43.7-61.9,69.34-.8,1.15-2.32,1.8-3.5,2.68a2,2,0,0,1-2.88,0c.49-14,10.33-23.23,18.79-32.15,13.43-14.17,24.76-29.06,29.6-48.26,1.56-2.34,2.57-7.42,5.49-5.82,6.14,3.35,3,10,3.11,16,14.77-19,26.61-39.69,43.52-56.38C642.4,826.49,643.75,821.92,648.74,823.78Z"/><path class="cls-15" d="M224.92,727.92l-2.94.21a175.54,175.54,0,0,1-24-36.52c-4.09-8.4-7.67-8.86-13.83-2.89-5.81,5.64-9.09,4.28-9.25-3.81-.15-7.82,0-15.65,0-23.25-3.79-1.54-5.79,5.53-9.06,1.53-2.08-2.55.2-5.7,1.37-8.44q3.76-8.81,7.52-17.6c2.07-.56,3,.7,3.66,2.33,0,6.18-3,12.34,3.91,17.88,3.37,2.71-.35,9.32-.26,14.21.12,6.39,2.55,8.42,8.41,5.25,1.66-.89,3.3-1.82,5-2.66,8-4,14.56-3.45,18.34,5.88a11.87,11.87,0,0,0,4.2,5.23c2.76,1.75,2.88,4.08,1.45,6.74a20.37,20.37,0,0,1-2.62,4,5.76,5.76,0,0,1-2.73,1.53c-8.34-.18-7-8.5-10.9-12.5,3.81,11.15,11.5,20.07,17.41,30C222.89,718.91,227.55,722.25,224.92,727.92Z"/><path class="cls-18" d="M63.12,605.24a5.08,5.08,0,0,1-3.89-4.46c-2.41-14.92-3.7-29.74,5.51-43.12,3.16-4.6,6.2-9.59,12.56-10.46,8.58,2.74,7.1,9.35,6,15.78-2,11.81-7.12,23-6.81,35.32C74.86,606.09,68.36,604.46,63.12,605.24Z"/><path class="cls-19" d="M76.7,548.21C62,560.75,57.12,576.64,60.76,595.42c.39,2,1.87,4.41-1.53,5.36l-.9-2.29c-.36-.85-.74-1.69-1.14-2.53-4.61-21.8-.95-40.62,19.17-53.53.94-.6,2.18-1.21,2.55-2.12,2.06-5.14,7.7-11.33,4.51-15.41-3.66-4.7-9.2,1.71-13.85,3.41-2.08.76-3.7,2.88-5.79,3.49-4.55,1.32-7.38,9.06-13.66,3.91-6-4.91-5.26-11-2.75-17.34,2.46,1.43,3,4.07,4.1,6.36,4.58,6.42,8.13-.1,12.11-1,13-7.68,29.23-7.26,41.24-17.68,4-3.45,7.17,2.06,5.12,4.58-5,6.21-2.38,19.18-15.56,18.51-2.78-.15-3.36,2.61-4.1,4.73a27,27,0,0,1-9,12.73C79.87,547.54,78.16,547.54,76.7,548.21Z"/><path class="cls-20" d="M791.69,123.38c12.6,3.06,21,12.79,31,19.91,29.4,21,52.76,48,74.42,76.66,5.89,7.77,11.37,15.86,17,23.8,1.4,2.33,1.19,4.21-1.52,5.38-5.9-1.08-8.48-6-11.23-10.34-27.75-44-64.4-79-107.73-107.35-2.24-1.46-4.28-3.08-5.07-5.8C788.84,123.81,789.37,122.35,791.69,123.38Z"/><path class="cls-21" d="M971.12,416.66c3.42-4.59,1.09-10,2.06-14.89,5.61,39.1,5.44,78.13-1.68,117-1.4,7.69-1.09,15.84-5.41,22.85-2.21.39-3.43-.14-2.49-2.68,2.95-22.23,8-44.2,8-66.78,0-7.47,1-15.28-7.69-19.22l-1.34,0a11.26,11.26,0,0,1-2.68-.58,16.23,16.23,0,0,1-2.57-1.2c-1.58-1.12-3.49-2-2.88-4.55,4.57-5.62,9.51-.08,14.26-.22,2.09-6-4.67-10.34-2.53-16.1h2.25C970.44,426,965.67,420.31,971.12,416.66Z"/><path class="cls-22" d="M929.68,457.08c1,3.88-1,8.26,2,11.82,5.44,6.63,1.25,13.32-1.09,19-12.53,30.55-20.82,63.17-44.45,91.29,4.38-3.67,6.64-3.4,8.84-1.83,1.48,1.05,1.5,2.38.46,3.81-6.52,2.59-12.59,3.95-14.87-5.32,20.16-28.62,34.06-60.25,44.13-93.61C927.12,474.11,928,465.49,929.68,457.08Z"/><path class="cls-23" d="M161,505.35l0,2.32c-2.25,2.52-5.57,2.77-8.41,4-12.08,4.87-22.86,11.23-27.93,24.2-2.6,7.55,2.54,7.2,7.09,6.58,5.47-.74,10.3-3.67,15.5-5.43a28,28,0,0,1,3-1,11.33,11.33,0,0,1,3.11-.43c3.86.93,5.67,2.75,2.78,6.56a7.69,7.69,0,0,1-2.94.47c1,.12,2,.3,3,.52a2.57,2.57,0,0,1,.71,1.89c-.05.69-.14,1-.28,1-2,2.4-4.84,2.63-7.64,3-5.75.28-10.87,2.77-16.18,4.6-5.83,2-11.05,1.44-15.44-3.31-4.61-5-5.16-10.61-2.61-16.71a58.33,58.33,0,0,1,21-25.86c2.4-1.4,4.29-4.2,7.7-2.95Z"/><path class="cls-24" d="M88.5,285.17l4.44,4.37c-19,1.5-37.22,8.66-56.5,8.66-1.49,0-3,.52-4.47.31-3.09-.44-7.74,2.05-8.93-2.09-1.38-4.8,3.52-6,6.91-7.14,13.43-4.53,26.94-8.81,40.43-13.18l2.75,2.27c-1.66,6.88-8.17,5.86-12.8,7.91-1,.36-2,.64-3,.91-2,.58-3.89,1.31-5.82,2-3.45,1.59-7,2.8-10.49,2.5-1.88.22-.16,2.11-.68.69,5.22-.5,10.06-2.67,15.21-3.51a44.79,44.79,0,0,0,6.24-1.45,23.17,23.17,0,0,1,3.27-.68C73,287.5,80.45,282,88.5,285.17Z"/><path class="cls-25" d="M451.51,154.77c-.06.88-.11,1.76-.17,2.64-10.67,2.6-21-2-31.78-1.48-5.48.27-3.2-5.6-.16-8.08,6.08-5,12.65-9.28,20.62-10.71,2-1.39,5-1.58,5.81-5.47-7.87-.51-15.6-1-23.31-1.54-2.49-.18-5.79.83-6.89-2.28-.84-2.37,1.54-4.12,3.19-5.48,2.62-2.15,2.45-8.2,8.2-6.08-1.63,2.43-3.28,4.86-5.37,7.95,11.39,4.14,22.77,3.14,35.43,3.66-5.91,9.13-16.25,11.37-20.38,20.1Z"/><path class="cls-26" d="M891.36,664.72c-4.91-3.86.92-4.56,2.08-6.23,8.22-11.78,21.19-20.11,25.22-34.94,1.19-3.11,4-3.68,6.76-4.46,6.35-10.46,10.88-22,18.49-31.7,2,0,3.47.27,2.29,2.8-13.1,24-24.86,49-46.24,67.32C897.12,659.94,894.23,662.31,891.36,664.72Z"/><path class="cls-27" d="M63.12,605.24c2.62-4.75,10.79,1,12-6.35.82-8.68,5.27-15.76,9.92-22.78,2.65-3.16,4.78-6.75,7.77-9.64,5.77-5.6,11.6-7.89,18.73-1.79a33.53,33.53,0,0,0,21.62,8.38c3.23.07,7,.13,8,4.59-3.83,1.3-8.41-1.06-11.81,2.41a34.15,34.15,0,0,1-22.42-8.81c-5.07-4.43-7.82-2.56-10.82,1.15a83.83,83.83,0,0,0-14,25.34C78.47,608,73.47,609.69,63.12,605.24Z"/><path class="cls-28" d="M675.81,150.75c.93,5.38-2.87,8.41-6.21,11.16-11.08,9.15-19.19,21-29.19,31.16-4.44,4.51-6.83,9.93-2.8,16.18a2.38,2.38,0,0,1,0,3.1c-10.32-3.15-13.51-8.73-7.63-16.92,12.06-16.77,25-33,41.14-46.16A5.44,5.44,0,0,1,675.81,150.75Z"/><path class="cls-29" d="M532.72,889.91c-11.46-1.55-23-2.78-34.36-4.75-17.51-3-32.76,4.9-48.73,9.39-.36-.49-.72-1-1.09-1.48a5.64,5.64,0,0,1,1.11-3.12c8.56-9,40.79-15.84,52.25-11.62,6.67,2.46,13.85,2.85,20.92,3.37,4.07.3,8.28-.19,11.94,2.28C536.91,886.93,535.1,888.52,532.72,889.91Z"/><path class="cls-30" d="M532.72,889.91l2.59-4.7c1.9-9.26,8.92-14.57,15.63-20,1.8-1.46,4.15-2,5.64.84-.72,9.29-10.27,12.53-13.65,20-.5.86-1,1.69-1.56,2.54a19.52,19.52,0,0,0-1.71,5.71c-1.5,6.81-3.29,13.53-4.78,20.33-1.28,3.77-1.31,7.78-2.25,11.61-2.53,4.15,1.09,11.27-6.24,13.12C520.74,921.86,527.72,906,532.72,889.91Z"/><path class="cls-31" d="M49.43,525.73c-2.22-2-1.62-4.83-2.06-7.36C55,498,68.66,484.45,90.48,480.15c2.3-1,2.88.36,3.15,2.22-1.87,4.76-6.63,5.87-10.43,8.19-11.8,7.21-22.26,15.69-27.95,28.85C54.07,522.15,53.05,525.19,49.43,525.73Z"/><path class="cls-32" d="M959.16,334.87l-2.41,2.93c-6-2.07-6.37-8.26-8-12.74-6.75-18.88-16.53-36.16-26.46-53.4-1.07-1.76-2.1-3.55-3.07-5.37a21.82,21.82,0,0,1-1.85-4.13,7.3,7.3,0,0,1,0-3c.73-1.4,1.61-2.49,3.41-1.62,16.37,21.29,27.07,45.54,36.65,70.38.52.82,1,1.66,1.45,2.52C959,331.93,959.07,333.4,959.16,334.87Z"/><path class="cls-29" d="M414.69,888.62l2.35,5.26c4.16,6.14-1.68,13.25,2.42,20.39,5.56-1.93,7.23-7.95,11.25-11.28,5.39-4.45,9.08-12.61,18.42-9l.5.52c-9.89,6.94-16.38,17.19-24.72,25.65-2.89,2.93-5,6.57-10.21,4.06s-7-6.81-6-11.93C410.32,904.35,412.66,896.52,414.69,888.62Z"/><path class="cls-33" d="M880.52,575.88c4,6.44,10.18,4.3,15.88,4.1,7.53-2.37,11.15,3.54,15.73,7.45a10.22,10.22,0,0,1,1.66,2.64c.1.51.19,1,.28,1.53.75,4.2,5.21,7.1,4.18,12.35-4.08-1-3.5-6-6.68-7.36a5.91,5.91,0,0,1-2.12-.71c-23.23-14.52-23-14.31-43.22,5.22-5.26,5.08-8.52,13.66-18.06,13l-2-1.91C857.25,599.74,870.5,589.34,880.52,575.88Z"/><path class="cls-34" d="M92.92,482.34l-2.44-2.19c13.06-5.72,24.57-4,34.59,6.68,5.89,6.26,12.25,12.08,18.4,18.09l-5.14,4.91c-7.37-6.25-13.36-13.92-20.76-20.14-.85-.58-1.68-1.18-2.55-1.73s-1.93-.85-2.93-1.2C105.94,484.19,98.38,487.78,92.92,482.34Z"/><path class="cls-35" d="M109,818.9c1.73-.13,3.42-.35,4.37-2.11,15.33-16.8,33.92-27.31,56.78-29.56.41,2.23,3.73,4.59-.31,6.62-2-3.39-4.3-1.3-6.69-.43a136.18,136.18,0,0,0-41.83,24.06C117.18,821,113.69,823.57,109,818.9Z"/><path class="cls-36" d="M177.39,640.08l-2.68-2.93c-3.51-21.1-3.42-42.33-2.31-63.59.1-1.81.14-3.8-2.24-4.46l6.47-4.76c4.74,4.53,4.26,10.57,3.27,15.89-2.89,15.5-1,30.7,1.21,46C181.83,631.16,183.84,636.88,177.39,640.08Z"/><path class="cls-37" d="M675.81,150.75l-4.67-.11c-10.36-2-20.37-5.64-30.94-6.69-5.94-1.43-12-1-18-1.48-4-.3-8.59.29-10.38-4.88,4.57-1.63,10,1.38,14.14-2.62,15.18.64,29.74,4.37,44.18,8.79C673.66,144.85,676.48,146.3,675.81,150.75Z"/><path class="cls-38" d="M390,107.15a20.25,20.25,0,0,1,0-2.06c-.61-.45-.8-.89-.58-1.31s.44-.61.66-.61c5.08-.55,10-5.07,15.05,2.2,1.57,2.27,9.63,1.38,14.92.76,4.15-.48,9.2-3.31,13,1.42a16.06,16.06,0,0,1-4.65,2.62c-4.8-1.77-9.56-.11-14.27.39C405.78,111.45,397.38,113.27,390,107.15Z"/><path class="cls-39" d="M117.57,387.8l2.21-2.94c6.42,7,3.17,15.71,3.92,23.68.39,4.11-.37,8.25-.28,12.38-1.28,8.41,3,17.57-3.36,25.29-2.56,1.74-2,4.45-2.17,6.94-4.93-11-1-22.51-1.68-33.75C118.06,408.93,115.56,398.27,117.57,387.8Z"/><path class="cls-40" d="M946.2,590.19l-2.29-2.8A350.55,350.55,0,0,0,963.6,539l2.49,2.68C961.46,558.65,956.1,575.36,946.2,590.19Z"/><path class="cls-41" d="M936.49,389c-2.78,2.92-5.21,6-4.86,10.4q-2.91-19.85-5.84-39.71c1.89-2-1.47-6.43,3.3-7.07C936.9,363.68,935.5,376.6,936.49,389Z"/><path class="cls-42" d="M428.26,837.3l7.67,2.6c-1.25,4.94-6.2,4.23-9.39,6.22-9.66,2.92-19.07,6.9-29.37,7.3-.75-.83-1.49-1.67-2.24-2.51,5.56-7.37,14.75-6.2,22.14-9.27C420.74,840.11,425.06,840.18,428.26,837.3Z"/><path class="cls-43" d="M637.23,213.1c.13-1.28.25-2.57.38-3.85a137.12,137.12,0,0,1,24.1,30.27l-3.85,2.18C650.08,232.82,639.86,225.71,637.23,213.1Z"/><path class="cls-44" d="M928.09,352.31c-.67,2.5,0,5.41-2.3,7.41l-5.52-20.48c-1.07-2.09,0-4.61-1.31-6.64l-.18-4.62,2.27-2.64C928.88,332.89,930.59,342.05,928.09,352.31Z"/><path class="cls-45" d="M526.39,939.33c4.58-3.64.13-9.84,3.87-13.71,3.35,2.18,3.44,5.76,3.29,9-.33,7.4,2,14,5.27,20.38l3.5.42c-3.07,5.58-6.53,6-10.15.59C528.79,951,526,945.69,526.39,939.33Z"/><path class="cls-46" d="M791.69,123.38l-2.39,2.23c-3.3,2-8.15,2-9.19,7l-2.46,2.71c-4.72-3.79-6.6-9.06-2.75-13.61C780.52,115.07,786.25,120.76,791.69,123.38Z"/><path class="cls-47" d="M342.21,810l4.58-1.79c9-1,17.14.55,23,8.39-1.7.3-3.58.23-4.52,2.13A106.07,106.07,0,0,1,342.21,810Z"/><path class="cls-48" d="M117.57,387.8c-1,10.51,1.28,21.17-1.36,31.6-1.5-10.77-.85-21.56-.28-32.34C116.48,387.29,117,387.54,117.57,387.8Z"/><path class="cls-49" d="M920.8,257.56l-2.54,2.6c-5.92-1.94-8-5.86-6.14-11.85l2-4.56Q917.46,250.65,920.8,257.56Z"/><path class="cls-50" d="M390.12,103.17c0,.64,0,1.28-.08,1.92L386.33,104c.6-1.67,1.3-3.24,3.32-3.6C389.81,101.29,390,102.23,390.12,103.17Z"/><path class="cls-51" d="M919,332.6c1.81,1.94,1.8,4.25,1.31,6.64C918.39,337.31,918.23,335,919,332.6Z"/><path class="cls-52" d="M428.45,110.17a4.94,4.94,0,0,1,4.65-2.62c.52,2.46-1.6,3.39-2.8,4.87Z"/><path class="cls-18" d="M57.19,596a1.74,1.74,0,0,1,1.15,2.53C57,598.08,56.57,597.26,57.19,596Z"/><path class="cls-53" d="M958.9,330.46c-.49-.84-1-1.68-1.45-2.52C958.63,328.38,959.34,329.08,958.9,330.46Z"/><path class="cls-24" d="M77.1,273.91,74,275.41Z"/><path class="cls-54" d="M440,137.14,418,152c11.81-1,22.59,2.08,33.33,5.43,4.85,6-1.82,7.83-4.35,10.47-6.41,6.68-13.26,12.85-14,23.34,12-13.37,22.8-28,41-33.37,2,3.91-2.5,6.88-1.66,10.61,15,3.06,28.11-3,41.48-7.75,5-1.76,9.93-3.85,15.32-3.28,4,.42,8.63.6,8.62,6.58-4.08,4.41-9.94,5.23-15.08,7.34-21.35,8.79-38.87,22.89-55,39-4.78,4.78-5.45,10.1-3.68,16.62,3.49,12.83,4.44,26,4,39.32-.3,8.4-3.93,12.19-12.43,12.59-12.14.56-24.11-.84-36-2.43a285.19,285.19,0,0,0-75.49.33c-2.92.39-6,1.4-8.48-1.32-6.48-2.31-10.21-6.77-11.74-13.59-.79-3.55-2.68-6.92-4.44-10.17s-8.45-3.48-7.3-7.47c1.42-5,7.78-2.73,11.79-4,5.28-1.7,11.25-1.22,14-7.48,6.32-4.59,12.37-.67,18.22,1,7.37,2.12,10.88.37,10.48-7.64s.71-15.76-1.42-23.64c-3.13-11.58-2.19-12.31,12.37-10.89-9.35-3-16.72,2-24.4,1-8.78-2.09-17.9,5.92-26.52-.87,2.32-4.55,6.6-5.89,11.14-6.76,19.89-3.81,39.77-7.65,59.68-11.35,3-.55,7.35-.26,7.22-3.79-.2-5.12-5.21-2.46-8.13-3.1a24.28,24.28,0,0,0-4.52-.09c-3-.07-6.91.12-7.45-3.49-.63-4.3,4.17-3.93,6.54-4.56,7.32-1.94,11.88-7.76,17.86-11.33C418.26,141.62,427.06,132.18,440,137.14Z"/><path class="cls-55" d="M113.37,346.23c-12.58-33.59-21.76-67.63-13.92-104a4.19,4.19,0,0,1,.38-5.4,2.08,2.08,0,0,1,1.64-.1,4.91,4.91,0,0,0,2.82-2l0,0c1.82-2,.92-5.93,4.62-6.63,5.22-2.06,7-7.61,11.33-11.62,4.4,3.66,4.16,9.57,7.1,13.62,3.1,2.24,3.87,6.86,8.09,8,4.54.78,6.69,4.65,9.67,7.45,8.25,7.77,12.3,8.07,21.9,1.68a73.85,73.85,0,0,0,16.47-15.43c3-3.74,5-7.93-.61-11.42-2.59-.37-5.07.64-7.63.63-15,1.51-29.69.44-43.93-5-2.44-.93-5.16-1.09-6.18-4.06-.1-6-2.9-11.93-.16-17.94,13.22,10.11,28.75,9.5,44.07,9.28,20.09-.29,21.27.06,29.15,19.24,4,9.66,9.29,15,20.92,14.93,17.33-.14,34.35,3.84,51.12,8.31,9.86,2.62,19.13,5.84,25,15.45,3.36,5.54,9.68,8.26,15,11.81,3.39,2.26,7.48,4,7.51,9.07-2.28,6.34-8.27,7.88-13.48,10.36a55.91,55.91,0,0,0-13.78,9,15.11,15.11,0,0,0-3.1,4.89c9.85,18.3,19.45,36.74,36.95,49.25,1.5,1.72,2.91,3.48,2.38,6a128.8,128.8,0,0,1-55.23-3.13c-3.26-.89-6.51-1.87-9.66-3.06-6.88-2.59-11.64-.79-14.17,6.28a2.82,2.82,0,0,1-3.18.4,11.46,11.46,0,0,1-3-4.08,27.56,27.56,0,0,1-1.47-4.81,27.69,27.69,0,0,0-2.4-6.22c-8.4-20.52-15.4-41.58-24.53-61.83-7.79-17.27-9.31-17.42-27.73-16.43-21.8,1.17-44.5,5.38-64.42-8.71-2.27-1.31-3.54-3.69-5.58-5.26-.76-1.3-2,1.19-.8.3.54-.41,1.3.27,1.73,1a10.71,10.71,0,0,1,1.16,6.44c-6,23.57-4,47.1,0,70.68C118.05,337.87,121.2,343.92,113.37,346.23Z"/><path class="cls-56" d="M131.57,182.66c11.46-13.3,27.68-18.51,43-25.13A314,314,0,0,1,220,141.65c5.18,7.32,11.83,8.38,19.88,5.2,2.34-.92,5.22-.56,7.85-.57,1.79,0,4.11-.46,4.9,1.73,1,2.86-1.37,4.1-3.37,5-7.61,3.24-15.35,6.21-23,9.42-4.2,1.76-6.68,3.34-3.43,9.11,3.91,6.94,3.2,14.85-6.28,16.95-17.56,3.88-35.29,7.1-53.06,9.87-13.55,2.12-25.14-2.41-34-13.17l.09-.16A9.41,9.41,0,0,1,131.57,182.66Z"/><path class="cls-57" d="M287.87,300.75c8.06-9.22,20.39-11.54,29.81-18.57l13.37-4.8a11.56,11.56,0,0,0,2.66-1.43,3.46,3.46,0,0,0,1.86-.49c32.59-6.2,65.18-5.53,97.89-.62,8.52,1.28,17.34.47,26,.85,4.75.21,5.65-2.42,5.75-6.34.35-13.65.63-27.59-4-40.38-3.67-10.17-.37-16.62,6.12-23.12a178.31,178.31,0,0,1,70.34-43.61,8,8,0,0,1,4.29-2.86c2.31-.68,4.57-1.53,6.92-2.09,16.33-3.21,32.7-6.22,49.34-7.48,11,.08,21.91-.19,32.85.14,4.31.13,10.87-.81,11,5,.17,6.62-6.78,5.54-11.35,6a68.28,68.28,0,0,1-13.56-.09c-23.84-.15-47.31,2.93-70.67,7.75-28.41,5.87-51.6,20.48-71.88,40.71-5.31,5.29-8,10.69-6.37,18.15,2.66,12.21,5,24.46,4.42,37.08-.32,7,3.11,10.62,10.24,10.29,12.12-.55,24.09,1,36.09,2.38a36.74,36.74,0,0,1,3.79.28c11.75,3,24.52,1.33,35.55,7.71-2.86,7-9.22,4.21-14.25,5.16-17.15.24-34.13-2.51-51.24-3-16.62-3.37-33.58-3.58-50.4-5-29.55-2.44-59.09-5.6-88.86-1.39a134.23,134.23,0,0,0-39.69,12.15c-6,2.34-11.32,6.1-17.27,8.5C293.84,302.81,290.21,306.34,287.87,300.75Z"/><path class="cls-58" d="M354.14,189.88c8.18-1.36,16.37-.9,24.93-.34-1.63,3.54-4.53,2.25-6.6,2.18-7-.24-7.1,2.72-5.11,8.31,3.47,9.76,2.9,20.05,2.05,30.15-.53,6.28-2.66,10.67-10.94,7.32-6.45-2.61-13.7-3.25-20.6-4.77a2.93,2.93,0,0,0-1.8-.46c-1.55-.88-3.4-.75-5-1.53l-42.89-9.68c-9.07,1.5-17.25-3-26-4-2.49-.28-3.42-2.61-.81-4.7,16.36-10.18,35-12.84,53.41-16.47,8.45-3.1,9.69,3.17,11.44,8.8,1.31,4.58.85,9.34,1.35,14,8.25,9.63,20.49,8.74,31.24,11.51,3.31.85,4.72-2.94,4.38-6.31s-.9-6.64-1-10a25.11,25.11,0,0,0-1-5.83,20.5,20.5,0,0,1-.64-2.79c-.46-3.14-.49-6.39-2.31-9.19C357.34,193.74,353.33,193.45,354.14,189.88Z"/><path class="cls-59" d="M251.43,104.7c6.93-12.91,16.45-23.86,26-36.21,2.9,7.44-.71,12.87-1.16,18.53-7.51,10.19-17.42,18.55-21.85,31.82C249.79,113.47,254.9,108.46,251.43,104.7Z"/><path class="cls-60" d="M360.75,96.79,397.1,81.33,384,98.74c-7.64,1-14.38,5.91-22.69,4.48-3.9-.67-4.16-2-3.22-5l0,.07A19.72,19.72,0,0,1,360.75,96.79Z"/><path class="cls-61" d="M261.42,212.35c5.79,4.26,13.34,3,19.53,6.25,2.19,1.13,5.25.31,7.25,2.46-7,7.87-16.13,5.44-24.1,3.34C259.52,223.19,255,218,261.42,212.35Z"/><path class="cls-62" d="M324.13,205.32c-3.12-3.12-1.82-10.62-9.3-9.44l7.15-2.36c1.44-.87,3.4-.43,4.62-1.85h0c9.26.65,18.21-3.5,27.54-1.79,1.5,2.42,5.4.85,6.51,3.93-9.11,5.53-20,3.24-29.53,6.78a8.56,8.56,0,0,0-4.77,3A6.12,6.12,0,0,1,324.13,205.32Z"/><path class="cls-54" d="M331.09,230.74c1.94-.39,3.68-.16,5,1.53A4.52,4.52,0,0,1,331.09,230.74Z"/><path class="cls-54" d="M326.6,191.67c-1.11,1.69-2.82,1.9-4.62,1.85A4.59,4.59,0,0,1,326.6,191.67Z"/><path class="cls-54" d="M333.71,276l-2.66,1.43Z"/><path class="cls-51" d="M911.73,589.4c-5.33-2.79-8.79-8.62-15.33-9.42-3.2-2.76-7.42-.52-12.43-3,16-17.36,24.29-38.57,32.34-59.86,6-15.79,14.58-30.78,15.32-48.25,1.65-5,1.17-11.15,7.15-13.95,7.71,4.52,5.54,11.77,4.32,18.14-2.28,11.86-3.9,23.71-3.66,37,9.11-15.45,8.38-32.22,12-47.86,1.17-5.07,1-10.9,8.09-11.87a2.16,2.16,0,0,1,2,.59c.83.64,1.63,1.3,2.41,2h0c-7.05,10.41-6.66,23-8.62,34.51C948.9,525.27,934,559.36,914.07,591.6h0C913.37,590.76,912.41,590.23,911.73,589.4Z"/><path class="cls-63" d="M848.17,614.12c8-4.65,13.78-11.68,19.88-18.32,16-17.37,28.09-17.24,43.52.79a3.59,3.59,0,0,0-.19,1.56,196.67,196.67,0,0,1-27.71,30.92c-3.72,3.31-6.63,8.37-12.75,8-6.91-7-12.79-14.89-23.48-17.29C840.58,618.29,848.46,616.18,848.17,614.12Z"/><path class="cls-64" d="M870.92,637.12c12.19-11.34,25-22.11,34.81-35.75,1.16-1.6,3.74-2.17,5.66-3.21a62.08,62.08,0,0,1-19.13,27.44c-11.59,9.8-18,20.89-13.81,37.13-4.26-2.43-2.21-5.48-3.15-7.7a2.15,2.15,0,0,1,0-1.67c-1.82-2.91-.24-6.33-1.42-9.34Z"/><path class="cls-65" d="M925.42,619.09q-3.39,2.22-6.76,4.46c0-2.76-1.35-6.29,1.26-8C923,613.59,922.77,619.05,925.42,619.09Z"/><path class="cls-66" d="M260.18,50.77c7.06,11.83,8.68,23-1.15,34.76-10.62,12.74-19,27.13-26.13,42.19-2,4.3-4.89,7.68-10.26,7.52-2.56.67-3.42-1-3.53-3-.84-14.9-3-30.06,7.72-42.87q1.2-2.28,2.38-4.56c5.55-10.55,11.23-21,19.89-29.42C252.05,52.58,254.66,47.92,260.18,50.77Z"/><path class="cls-67" d="M125.1,212c16.9,4.77,34.06,7.66,51.7,6.84-.43,6.5-7.68,7.76-9.77,12.7,4.24-6,10.84-9.64,16.26-14.62,8.56,3.15,8.35,8.94,3.8,15-3.34,4.48-7.56,8.37-11.69,12.19-15.88,14.7-21.27,14.63-36.13-1.2-2.16-2.3-3.56-1.62-5.58-1.42a25.08,25.08,0,0,1-3.95-14Q127.42,219.78,125.1,212Z"/><path class="cls-68" d="M265.15,21.5c23.17,21.83,36.77,49.2,45.46,79.33,2.46,8.54,2.13,8.63-7,12.64-3.37-3.48,5.06-11.63-4.1-12.18-4.57-.28-9.25,2.64-14.09,6.49-1.11-6.37.89-11.07,2.19-15.62-2.84-2.92-4.76,2.4-7.49,0,.7-11.09,5.79-22.17,3-33.88-5.64-.43-6.76,5.23-10.7,6.31-4.46-10.56-6.73-21.83-10.46-32.63C260.54,28,260.36,23.83,265.15,21.5Z"/><path class="cls-69" d="M108.89,228.18l-4.62,6.63c-4.74-16-17.18-26.91-26.59-39.77C68.86,183,59.12,171.58,49.79,159.89c5.7-6.52,8.69.13,12.16,2.78,4,3,7,8.08,13,3.88,14,12.91,26.29,27.3,35.88,43.87C116.22,217,106.28,221.9,108.89,228.18Z"/><path class="cls-70" d="M226.83,89.41c-5,15-6.78,30.18-4.19,45.82-19.06,8.38-18.51,8.3-21.45-10.91-1.95-12.79-.07-22.1,13.56-26.74C219.19,96.07,222.83,92.2,226.83,89.41Z"/><path class="cls-71" d="M260.18,50.77C249.28,54.94,245,65.54,238.1,73.59c-3.12,3.63-4.39,8.73-8.89,11.26l17.73-73.14c4,2.95,6.36,6.6,4.8,11.84C251.17,33.67,259.34,41.08,260.18,50.77Z"/><path class="cls-72" d="M251.74,23.55l-4.8-11.84c1-5.59,4.05-5.32,7.52-2.43a81.25,81.25,0,0,1,6.65,7A7,7,0,0,0,263,19l0,.07a8.81,8.81,0,0,1,2,2.32l.12.16c-3.21,4.34-1.12,8.57.4,12.73a124.75,124.75,0,0,1,6.83,30.38h0a1.34,1.34,0,0,1-2-.41,5.68,5.68,0,0,1-.51-2c-1.25-1.32-.84-3.27-1.79-4.71a6.22,6.22,0,0,1-.6-1.92c-.55-.86-1.07-1.75-1.54-2.66l-1-3.9c-.11-1.18-.95-2-1.55-2.87C260.34,38.18,257.83,29.94,251.74,23.55Z"/><path class="cls-73" d="M129.74,227.52c2.15,4.45,4.35,8.88,3.95,14-4.9-2.23-5.54-6.86-6.37-11.38C128.12,229.29,128.93,228.41,129.74,227.52Z"/><path class="cls-68" d="M268,57.5a4.52,4.52,0,0,1,1.79,4.71C268.06,61.08,267.74,59.41,268,57.5Z"/><path class="cls-68" d="M263.38,46.15c.52,1,1,1.91,1.55,2.87Z"/><path class="cls-68" d="M265.89,52.92l1.55,2.66Z"/><path class="cls-68" d="M270.33,64.2a7,7,0,0,1,2,.41L271,65.94C270.79,65.36,270.56,64.78,270.33,64.2Z"/><path class="cls-1" d="M360.75,96.79l-2.66,1.47Z"/><path class="cls-68" d="M265,21.34l-2-2.32Z"/><path class="cls-68" d="M263,19l-1.9-2.7Z"/><path class="cls-1" d="M131.57,182.66l-2,2.32Z"/><path class="cls-74" d="M551.15,830.62a502.07,502.07,0,0,1-80.47,6.22c-13.44,0-26.83-.52-39.95-3.84.39-.67.89-1.6,1.49-1.6,14,.16,25.19-8.49,38-12,15.91-4.37,26.74-16.13,33-30.46,10.54-24.19,15-49.19-.86-73.49-.82-1.26-2-2.82-1.71-4.12,3.3-15.07-8.07-22-16.62-30.56-6.9-6.55-6.81-14.23-3.58-22.43,8-9.44,16.67-18.31,22.18-29.68,3.79-7.83,5.69-15.42,1.62-23.67s-9.85-10.75-18.43-7.64c-24.45,8.87-32.72,2.24-30.31-24.3a25.65,25.65,0,0,1,1.1-5.54c5.86-17,6.33-34.27,6.71-52.18.52-24.8-2.56-48.73-7.4-72.74A14.43,14.43,0,0,1,458,431.73c3.74-4.78,8-2.28,12.2-.83,7.65,2.64,15.18,5.77,26.13,6.93-10.74-9.43-20.56-15.24-30.41-21-7.06-4.15-14.77-7.43-19.84-14.36-18-13.59-29.86-32.46-43-50.18-7.22-9.76-6.09-12,5.19-17.49,16.56-.57,33.07-2,49.61-3,6-.35,12-.41,17.4-5.41-7.9-4.86-16.55-5.05-24.83-6.61-21.15-4-42.73-3.68-64-6.56-3.73-.5-7.58-.53-10.47-3.54a6.21,6.21,0,0,1-.33-5.87,6.82,6.82,0,0,1,5.63-3.37c34.62-.22,69.15-5.6,103.81-1.76,6.66,3.35,4.94,10.92,8.06,16.06A22.85,22.85,0,0,0,502,327.06c4,2.91,9,5.66,8.39,12-2.74,3.94,1,4.24,3,5.22,36.88,17.82,59.44,13.94,89-8.32,7.72-5.81,12.46,2.43,19.09,3.89-10,10.22-10,10.06,2.74,15.56,8.82,3.82,17.41,8.15,26.13,12.26-2.22,5.34-7.84,1.3-9.6,4.88C655.13,389,672.87,401.23,691.2,415c-6.8,3.77-12.74,7.33-18.92,10.42-5.49,2.74-7.09,4.89-.89,9,5.78,3.88,10.87,8.8,16.74,13.66-9,3.73-9,3.73-23.85-4.81a259.27,259.27,0,0,1,41.44,77.78c-9.65,6.53-14.74-3.65-22.8-6.3-.76,4.57.48,9,.4,13.31-.24,13.09-2.43,15.23-15.52,13.94a173.53,173.53,0,0,1-2.6,20c-.54,2.59-.43,6.1-2.56,7.32-11.23,6.39-6.34,15.37-4.29,23.92,2.65,11,5.55,22,7.8,33.09,1,5,2.54,10.48,9.37,8.28,11-3.52,15.19,2.55,18.15,11.39,1.3,3.87,1.92,8.07,5.28,12.38,6.59-4.28,6.46-11.56,8.88-17.41,1.94-4.66,3.91-9.45,10.62-6.89.56.21,1.11,1.83,1.28.81.4-2.3.17-4.59,3.42-4.59q0,6.84.1,13.67c-.9,1.45-2,2.84-1.57,4.72-5.84,47.63-24.17,88.22-59.51,122.41-28.8,27.86-61.58,45.21-99.44,55C558.75,827.2,555,829.11,551.15,830.62Z"/><path class="cls-75" d="M723.15,630.36c-3.32,2.34-.73,6.6-3,9.34-5.13-8.08-8.25-4.09-9.83,2s-2.84,12.52-6.39,18c-1.41,2.16-3.26,4.58-6.35,3.75-2.4-.65-3-3-3.61-5.27-1.11-4.36-2.68-8.61-3.81-13-2.08-8-5.51-12-14.38-7.17-5.59,3.07-9.83,1.47-11.45-5.79-3.91-17.59-8.32-35.07-12.59-52.57-.64-2.62-1.8-6.25.88-7.2,15.88-5.64,9.35-19.61,11.55-30.25.41-2-1.67-4.44.9-6.09s4.2.31,5.85,1.81c7.2,6.51,9.12,1.84,9.32-4.73.17-5.59,1-11.32-1.13-16.82-1-2.46-2.06-5.61.4-7.3,2.89-2,4.54,1.43,6.45,3,5.79,4.76,11.15,10.39,19.72,9,9.75,19.62,14.25,40.72,17.4,62.21C723.05,599,726.46,614.66,723.15,630.36Z"/><path class="cls-76" d="M510.35,339.07a41.3,41.3,0,0,0-12-11.38c-4.1-2.44-6.74-5.76-6.2-10.88,10.27,1.4,20.09,4.91,30.46,6,31.1,3.29,51.63-13.7,69.57-35.79,3.07-3.77,5.44-8.1,8.55-11.87,6.35-7.21,7.61-17.11,13.06-24.81a9.13,9.13,0,0,1,3.06-1.74c11.4-2.08,23.47.8,34.44-4.81,1.58-.81,2.44,1,2.17,2.73L648,253a3.3,3.3,0,0,1-1.73,2,13.62,13.62,0,0,1-1.87,2.83c-17.12,15.77-30.15,32.69-37,56.73-8.59,30.23-43.39,42.6-75.84,32.45C524.37,344.74,517.41,341.73,510.35,339.07Z"/><path class="cls-77" d="M653.47,246.53c-12.46,5.78-25.7,4.23-38.79,4.12-1.53-2.43-1.27-5.19-.84-7.73,4.53-26.69,3.61-53.33-.58-79.95a6.34,6.34,0,0,1,1.41-5.29h26.07l0-5H596.48c2.87-7.15,9.28-4.49,14.32-4.84,10.57-.74,21.6,1.46,31-5.7,10.45.54,20.86,1.22,29.36,8.53-12.06,14-24,28.13-36.22,42-7.06,8-6.83,14.6,2.31,20.49,6,10.13,16.49,17.08,20.63,28.6Z"/><path class="cls-77" d="M646.26,255l1.74-2Z"/><path class="cls-78" d="M755.51,686.63c-.24-12.47-9.71-19.78-16-28.85,7.8-1.31,15.56-2.87,23.39-3.88,15.62-2,25.92,12.65,30.18,29.32,1.44,5.65.79,12.17-.23,18-2.19,12.51-7.22,23-21.51,25.9-8.78,1.81-17.16,5.63-28.71,5.36C755.88,718.8,761.48,704.06,755.51,686.63Z"/><path class="cls-78" d="M714.37,741.38H695.72c7.54-17.6,18.72-32.62,22.5-50.85,1.67-8.09,3.67-16.11,5.43-24.18,1.92-8.85,6-10.46,13-4.29,8.44,7.4,14.5,16.14,16.76,27.3C755.37,719.27,747.64,728.92,714.37,741.38Z"/><path class="cls-79" d="M791.62,719c2.75-8.9,6.13-17.69,6.29-27.15.31-18.18-4.63-27.28-23.15-41.08,15.1.53,24.57-15.75,39.76-7-4.53,14.48-4.53,14.48,16,20.16,7.47,15.67.67,38.11-14.14,45.7-7.91,4-15.47,9.32-24.94,9.23Z"/><path class="cls-80" d="M867,641.56c10.35,26-1.91,47.6-34,59.07,4.45-13.67,6.13-27.12,1.55-40.7.16-1.88.14-4.3,1.71-5.2C846,649.13,854.46,640.54,867,641.56Z"/><path class="cls-81" d="M867,641.56c-10.86,6.07-23.5,9-32.48,18.37-5.76-8.17-11-16.78-20.15-22C841.11,617.1,857.25,620.79,867,641.56Z"/><path class="cls-82" d="M830.53,663.9c-4.92,2.53-9.95-.12-14.95.21-3.61.25-7.06-2.63-7.3-5.72-.41-5.54.32-11.43,6.24-14.65C823.3,647.71,827.87,655.05,830.53,663.9Z"/><path class="cls-2" d="M873.86,644c2.69,2.78,1.59,6.13,1.42,9.34C873.11,650.51,874.07,647.18,873.86,644Z"/><path class="cls-79" d="M791.45,718.83l-.26,1,.43-.82Z"/><path class="cls-80" d="M449.13,894c-10.69,1.71-16,10-22,17.62-2.56,3.22-5.22,9.22-9.81,7.63-5.29-1.83-2.28-7.91-2.16-12.1.13-4.45,1.24-8.86,1.92-13.3,2.6-5.25,2.47-11.65,6.76-16.2,10.36,5.94,19.79,1.16,28.5-3.54,12.12-6.56,24.76-12.49,35.3-21.62,3.43-3,7.4-2.83,11.23-3.8,13.54-2.42-9.18-4.38-.08-6.71l38.47-5.32c1.49-.7,3.23-.51,4.7-1.29,3-1.18,6.7.14,9.24-2.64,41.12-7.66,78.1-24.3,110.33-51.23,7.94,14.71,6.86,22.45-4.33,33.21-3,2.85-5.63,6-8.42,9-20.94,17.86-33.1,43.18-51.64,64.34-5-6.63-.61-12.7-3.42-17.44-3.53.58-2,4.1-3.93,5.26-3.21-2.44-4.08-6.17-4.48-9.71-1-8.49-5.49-10.37-12.87-7.81-.89.3-1.82.53-2.73.76-2.16.52-4.26,1.18-5.77,3-2.2,2.24-3.85,5.46-7.85,4.59-6.21-3.43-6.72,3.64-9.53,5.77-4.41,3.33-7.54,8.36-11.21,12.67-12.65-1.68-26.2,1.7-37.67-7-1.43-1.09-4.61-.82-6.58-.09C477.05,883.32,460.82,882.72,449.13,894Z"/><path class="cls-75" d="M721.68,648.75c-3.33-2.86-.15-3.54,1.57-4.72Q722.46,646.4,721.68,648.75Z"/><path class="cls-83" d="M75,166.55c-2.78,8.09-6.5,5-11.29,1.54-4.3-3.11-5.88-11.32-13.87-8.2L6.71,106.5l1.93-2a581.77,581.77,0,0,1,64,59.7,7,7,0,0,0,2.3,2.4Z"/><path class="cls-84" d="M99.83,236.87c-.13,1.8-.25,3.6-.38,5.4-7,13.69-15,6-22.62.87-7-4.74-13.89-9.75-20.82-14.64,1.06-3.86,4-4.86,7.54-5.09C76.26,226.22,87.86,232,99.83,236.87Z"/><path class="cls-85" d="M63.55,223.41,56,228.5a1.73,1.73,0,0,1-1.54-.78,22.25,22.25,0,0,1-2.39-1.94l-7.87-5.11L38,213.93c8.51,1.25,14.76,4.22,21,7.27,1.19,1.44,3.29,1,4.59,2.23Z"/><path class="cls-84" d="M63.58,223.43A4.45,4.45,0,0,1,59,221.2Z"/><path class="cls-84" d="M104.29,234.79a2.39,2.39,0,0,1-2.82,2Z"/><path class="cls-69" d="M75,166.57l-2.3-2.4Z"/><path class="cls-86" d="M485.27,678.14c5.8,5.86,12.61,10.73,17.2,17.8,2.29,3.53,8.92,6.24.33,10.75-2.84,1.49.84,5.36,2.27,7.76,19.49,32.77,9.21,81-22.09,103a8.5,8.5,0,0,1-2.9,1.73c-16.87,3.1-30.64,17.34-49.35,13.8-21.12-2.5-40.39-11.9-61-16.38l-23-8.39c-44.47-19.14-87.21-41-120.21-77.87-.55-.82-1.11-1.63-1.66-2.44-8.24-13.34-16.54-26.65-24.66-40.06-1.6-2.64-4.68-6,.11-8.46,5.73-3,5.73,2.55,7.36,5.44,2.12,3.78-.91,10.62,6.64,11.16,5.59-4.34,10.87-4.43,15.9,1,3.8,4.11,6.71,3.74,11.16-.32,5.34-4.88,12.93-6.8,19.15-10.74,3.07.25,4.6,2.46,6.05,4.76,1.73,3.15,3.06,6.55,5.57,9.23,12.22,4.67,21,17.23,35.9,15.64,3.59,1,5.38-.75,6.49-4s2.45-6.21,5.92-7.55c12,.18,22.28,6.44,33.52,9.31,11.64,3,11.68,3.11,12.88-8.47.6-5.7,1.1-11,9.28-8.09,2.19.79,3.42-1.07,3.74-3.13.51-3.34-.15-1.33-.9-.21a2.31,2.31,0,0,1-3,.69c-4.49-8.09,1.6-14.43,3.88-21.21,1.43-4.27,5.52-2.72,8.64-1,4.82,2.72,8.74,6.93,13.83,9.28a3.14,3.14,0,0,0,.4-2.79c-1.68-5.49-7.16-12.07-.54-16.3,5.7-3.64,9.74,3.39,14,6.7,5,6.93,9.46,7.29,13.95-.68a25,25,0,0,1,10.13-9.89,87,87,0,0,1,15.52-3.63c1.58-.28,3.13-.69,4.71-1a12.86,12.86,0,0,1,3.22-.18c5.15.72,5.29,5.65,7.54,8.86C475.43,668.07,479.05,674.27,485.27,678.14Z"/><path class="cls-63" d="M498.83,848.72c-12.62,8.4-25.06,17-38.44,24.29a130.67,130.67,0,0,1-24.6,10.2c-6.65,2-9.81.28-12-5.53a3.51,3.51,0,0,1,.55-1.86c.66-.9,1.52-1.69,1.59-2.91,2.34-4.7,6.89-6.5,11.13-8.86,7.16-4,15.15-7.2,21-12.69,11.42-10.8,23-12.8,36.29-4.64.91.52,1.84,1,2.78,1.47A2.75,2.75,0,0,1,498.83,848.72Z"/><path class="cls-87" d="M426.11,843.73l9.82-3.83c8.62-1,16.8,1.75,25.79,3.41-26.26,15-48.83,34.77-73.57,52.88-3.24-11.8,0-22,4-32.09,6.94,7.65,13.87,6.32,20.47-.32C418.4,858,425.92,853.3,426.11,843.73Z"/><path class="cls-88" d="M426.11,843.73c4,.5,3.67,2.73,2.27,5.52a49.52,49.52,0,0,1-22.86,22.61c-5.79,2.81-13.06,2-13.34-7.76l5-10.68C405.9,847.45,416.5,847.05,426.11,843.73Z"/><path class="cls-74" d="M541.92,835.4a4.14,4.14,0,0,1-4.71,1.29A4.61,4.61,0,0,1,541.92,835.4Z"/><path class="cls-80" d="M497.1,848.19l-2.78-1.47Z"/><path class="cls-80" d="M425.94,872.91l-1.59,2.91Z"/><path class="cls-89" d="M226.81,737c23.9,27.86,55.45,45,89.22,63-19.26,3-36.06-2.51-52.95-1.28-15-4.36-30.22.34-45.32-.59,4.44-3.17-.79-9.63,4.78-12.91,5.09-3,9.68-7.19,8.3-14.37.08-6.75-5.12-4-8.08-4.07-10-.41-20-.28-30.08-.35-4.22-1.88-3.63-4.73-2.12-8.3,1.95-4.58-2.46-1.48-3.52-2.56-2.61-.63-5.69-.67-5.69-4.54h39.09c-17.55-7.44-36.62-.79-54.58-7.76,2.59-9,9.37-10.91,17.34-10.14,10.79,1,21.53,2.57,32.3,3.89a3.43,3.43,0,0,1,4.43-.11Z"/><path class="cls-90" d="M187.79,753.36h8c-.49,4.83-8,7.62-3.09,13-9.78,4.48-14.71,14.22-22.55,20.82-20.89,6.06-39.34,16.83-56.78,29.56-1.12-9.61-1.07-19,4.44-27.55a33.8,33.8,0,0,0,19.77-7.17c2.08-1.61,4.33-3.27,6.87-3.81C161.56,774.59,175,764.64,187.79,753.36Z"/><path class="cls-91" d="M230.84,770.83c7.22,3.63,2.38,6.64.55,11.23s-16.76,3.06-6.67,13.16c-2,1.8-5.38.13-7,2.89C203.09,799.3,193.6,809,184.29,818.8c-5.35,5.62-9.8,12.17-18.66,16.41-1.06-12.81.42-24,6.83-34.33,4.92-.23,9.55-1.2,13.71-4.14,10.67-7.54,23.19-11.8,34.3-18.31-.56-3.88-4.8-2.55-5.51-5.29C219.88,769.78,225.58,771.8,230.84,770.83Z"/><path class="cls-92" d="M215,773.14l10.36,1c-1.19,7-6.82,9.43-11.65,11.28-10.58,4.06-20,10-29.48,16-4.21,2.69-8,4.22-11.73-.52l0-.07c1.32-1.24.74-3.38,2.16-4.57,3.48-6.23,6.65-12.66,10.55-18.61,3.27-5,7.86-8.21,14.39-5.75,3.91,1.21,8.08-.26,12,1.19Z"/><path class="cls-91" d="M211.55,773.07c-4,.17-8.24,1.9-12-1.19C203.61,772,207.84,770,211.55,773.07Z"/><path class="cls-91" d="M174.65,796.24a4.25,4.25,0,0,1-2.16,4.57A4.45,4.45,0,0,1,174.65,796.24Z"/><path class="cls-93" d="M187.79,753.36a47.35,47.35,0,0,1-26.61,22.2c-9.87,3.44-19.6,6.55-28.18,12.87-4.46,3.29-9.87,5.84-15.2.81a2.91,2.91,0,0,1,.59-2c.43-1,1.29-1.75,1.44-2.88.78-2.76,2.13-5.08,4.88-6.32,14.38-5.31,27.94-11.6,33.3-27.78,7.92-3.79,15.59-.33,23.34.79C183,753.14,185.47,753.06,187.79,753.36Z"/><path class="cls-94" d="M158,750.22c2.62,1.61,3.84,4,2,6.58-7.66,10.43-18.82,16.55-29.47,23.22-1.76,1.09-4.41.25-5.81-2h0c.94-.53,1.43-1.57,2.37-2.11C135.55,765.13,143.79,754.05,158,750.22Z"/><path class="cls-15" d="M219.93,736.89l-4.43.11C216.92,734.85,218.4,734.78,219.93,736.89Z"/><path class="cls-93" d="M127.06,775.9,124.69,778Z"/><path class="cls-90" d="M119.83,784.32l-1.44,2.88Z"/><path class="cls-51" d="M912.12,248.31c1.29,4.34,2.57,8.69,6.14,11.85a16,16,0,0,1,.35,1.83,11.77,11.77,0,0,1,1.71,2.48l2.92,4.22c7.56,19.61,18.42,37.7,25.77,57.48,5.68,15.3,9.31,30.93,12.08,46.84.86,4.93,2.13,11.48-7,10.1-6.48.18-13,.09-17.63,5.92-6.21-11.46-3.15-25-8.4-36.72l-7.05-27c-2.24-18.23-13.08-32.77-21.32-48.27C882.15,244,862,212.49,836,185.29c-13.52-14.17-28.29-27.14-42.57-40.57-4.38-4.11-10-6.8-13.32-12.13-.87-2.64-4-5.65-1.84-7.88,3.38-3.55,7.2,1.47,11,.9C835.61,154,873.88,190.69,903.11,236.7,905.73,240.82,909.1,244.45,912.12,248.31Z"/><path class="cls-48" d="M415.06,671.18c-4.23-2.44-7.87-10.32-12.23-6.88-4.52,3.57,1.79,9.37,3.37,14.18.79,2.4,3.33,5,.69,7.19s-4.79-.77-7.07-1.79a16.35,16.35,0,0,1-1.81-1.35c-5.2-3.35-8.84-9.17-15.65-10-.75,7.39-6.55,13.34-6,21.11-7.77.42-9.3,4.93-9.17,12,.17,10.24-1.33,10.93-11.31,8.58-10.24-2.42-19.64-7.39-29.85-9.94-2.64-.66-5-1.72-7.28.56-8.26,11.28-8.26,11.28-16.21-.58a12.66,12.66,0,0,1,.4,2.44,5.62,5.62,0,0,1-.83,2.56c-4.57,2.5-8.09-1.64-12.22-1.9a33.17,33.17,0,0,1-5.1-2.27,14.72,14.72,0,0,1-2.3-1.43,26.43,26.43,0,0,1-2.06-1.75l-1-.89c-.73-.54-1.45-1.08-2.22-1.58-.43-.19-.83-.42-1.26-.61a14.58,14.58,0,0,1-10.69-7.11L260.89,687c-7-9.11-11.91.54-16,3-11.32,6.93-10.93,7.7-21.26-1.51-1.81-1.62-3.46-2.73-5.9-2.09-4,4.33-4.37.72-5.46-2.3-4.65-12.81-5.31-13-17.35-6.65-4.56,2.41-9.65,7.8-14.25,4.2s-.72-10.64-1.12-16.11c-.26-3.55,8.21-12.81-5.38-9.75-2.61.58-1.92-3.49-1.24-5.42,1.25-3.54,3-6.92,4.47-10.36.67-1.69,2.27-3.65,1.87-5-6.83-23.37-2.63-47.12-2.63-70.71q3.68-23.79,7.34-47.58c4.23-3.14,6.86.41,9.57,2.54,7.56,5.92,15.62,11.13,23.37,16.78,6.91,6.92,15.76,10.19,24.83,12.84,10.43,3,19.94-1.77,24.39-12.12A38,38,0,0,1,273,526.44c3.9-4.37,4.25-9.73,3.5-15-1.75-12.26-2-12.23,3.33-21.34-4.66-1.42-9,.42-13.16,1.54-26.37,7-52.95,6.73-79.69,2.81A48.62,48.62,0,0,1,176,491.6c-1.07-.42-4.34-5.34-3.78,1.07C158.09,483,144,473.13,129.71,463.58c-6.32-4.23-6-11.85-9.65-17.37-.39-8.33-1.27-16.67.39-25,1.16-1.35.5-4.29,2.66-4.4,3.48-.16,4,3.1,4.07,5.5.5,10.8,6.28,18.84,13.17,26.37,9.78,20.58,28.38,27.68,48.78,32,10.72,1.52,21.4,2.87,31.49-2.75,18.31-14.29,26-35.1,31.89-56.1,3.89-14-3.37-28.17-5.64-42.27-.93-5.78-4.78-11.36-1.54-17.51,2.29-12.74,4.33-14.42,17.6-9.23,20.74,8.12,42.32,6.72,63.75,7.56l1.3-1a67.36,67.36,0,0,1,30,19.31c9.57,32.19,17.23,64.78,21.25,98.19,2.44,20.26-10.16,33-22.37,45.93-5.87,6.19-4.51,15,2.78,20.3,8.31,6,17.14,11.9,20.14,22.77-10.51,6.81-21.94,12.33-27.83,24.7-3.71,7.78-5.67,15.72-3.64,23.83,1.42,5.67,3.28,13.44,12.68,9,6.95-3,8.31-12.4,16.17-14.43,8.09,1.74,10.86,9,13.89,15a55.72,55.72,0,0,0,29.71,27.26,11.56,11.56,0,0,1,5.22,4.09C428.48,668.65,425.66,672.73,415.06,671.18Z"/><path class="cls-95" d="M117.89,487.16c8.26,6.25,16.78,12.26,20.44,22.67A50.41,50.41,0,0,0,117,535.33c-2,5.12-2,9.51,1.76,13.63,3.56,3.85,7.47,3.71,12.35,2.28,6-1.77,11.44-6.24,18.31-4.7a9.35,9.35,0,0,0,7.44.19c.26-.09,3,.79,1.26-1.38-.38-.46-1.3-.58-1.85-1.1a8.84,8.84,0,0,0-1.91-.37,1.27,1.27,0,0,1-.49-1.42c.19-.47.37-.7.54-.7.59-.86,1.74-1.78,1.66-2.57-.22-2-2.19-1.36-3.5-1.66-7.3-4.76-1-8,1.25-11.75.69-.82,1.44-1.58,2.2-2.34,4.8-4.44,7.53-12.05,16.15-10.73,3.17,1.54,6.9,4.06,6.36,7.24-2.52,14.9.35,31.17-11,44-7.12,8.06-15.69,12.79-26.36,13.72-13-1.84-26.22-2.81-35.61-14-2.42-2.9-5.1,0-6.76,1.58-4.36,4.06-8.27,8.6-12.36,12.95-8.62-2.16-5.18-9.36-4-13.41,2.09-7.31,1.18-13.09-3.37-18.73,6.78-5.61,10-12.91,9.83-22.24,1.93.46,3.33.68,4.66,1.12,4,1.33,3.7,1.28,5.2-3.08.51-1.48,2.73-2.33,4.08-3.57a17.07,17.07,0,0,0,5.8-11.41c-12.14,13.73-30.7,11.1-45,19.15-2.18-6,2.13-9,5.9-12,5.34-4.23,11.5-7,17.83-9.5C98.32,500.15,110.28,497.5,117.89,487.16Z"/><path class="cls-96" d="M172.26,492.67c.33-1.81-3.33-6,2.81-4.27,34,9.83,67.78,6.49,101.48-1.62,3.19-.77,7-3.6,9.29.07,2.42,3.91-2.76,5.34-4.37,8-2.3,3.78-10.88,5.81-1.84,12.67,2.09,1.59,2.32,13.4-2.85,19.12-4.61,5.1-7.42,10.61-9.94,17.16-2.24,5.81-10.42,9.93-17.88,9.06-12.74-1.49-25.15-4.51-33.54-15.71,4.06-3.07,8.29-1.21,11.55.79,11.39,7,22,5,32.6-1.49,1.66,0,2.64,1.11,3.65,2.27-4.41-5.34-6.58-12-10.49-17.58-4.4-6.3-11.36-9.49-17.54-13.57-4.19-2.79-8.59-.83-12.91-.53a13.93,13.93,0,0,1-3.09-.33c-8.06-2.08-16-6-24.42-1.25Z"/><path class="cls-97" d="M221.48,505.75c4.7-2.23,9.38-4.73,14.42-.81,1.39,6.43,7.83,7.48,11.88,11,6.59,5.76,11.92,12,12.77,21.19-10.28,9.91-17.42,11-30.31,5.16-4.75-2.15-9.87-3.47-14.82-5.17-11.89-4.62-19.92-15.21-31.45-20.38-.23-3.9-.47-7.81-.77-12.8l15.08,7.48c1.48-4-3.14-3.63-3.51-6,2.61-.72-1.22-7,5.4-5.21s14,.07,19.83,5.05c4,8.52,11.11,15.2,13.73,23.27,1.19,2.32,2.27-.14,1.18.91-3.15-4.67-5.38-9.87-8.51-14.51-.84-1.22,1.18-3.47-1.47-4.08C222.88,509.77,221.37,508.3,221.48,505.75Z"/><path class="cls-98" d="M172.13,512.71c-8,.88-9,10.46-15.79,12.87-2.75-5.53,2.38-9.44,2.93-14.3a4.54,4.54,0,0,1,2.16-2.1l4.17,1.13c1.47.9,3.36.59,4.77,1.67A1.76,1.76,0,0,1,172.13,512.71Z"/><path class="cls-95" d="M151.45,509.32c2.75-3.06,6.38-1,9.55-1.65.14.51.28,1,.43,1.51a7,7,0,0,1-.61,1.15C157.42,512.58,154.26,512.64,151.45,509.32Z"/><path class="cls-95" d="M170.37,512c-1.88.26-3.57,0-4.77-1.67A4.89,4.89,0,0,1,170.37,512Z"/><path class="cls-99" d="M138.61,450.62c-8.06-8.33-15.24-17.07-14-29.8.11-1.11-.2-2.24-1.61-1.66a11,11,0,0,0-2.54,2.09c-1.1-12.12,1.74-24.3-.67-36.39,1.39-13.46-6-25.48-6.41-38.63,4-3.47,1.87-7.48,1.16-11.47-4.47-25.16-8.25-50.33,1.36-75.24a3.79,3.79,0,0,1,3.63.32c5.19,3.35,5.85,8.39,5.28,14-3.27,31.82-4.3,63.39,10.13,93.31,4.31,8.92-.13,17.92-.5,26.84-.63,15.22-.38,30.15,4.49,44.79C140.16,442.47,141.92,446.76,138.61,450.62Z"/><path class="cls-100" d="M58.83,284.79l14.3-6.42,6.3-1.08c1.07-.16,1.82-1.11,2.93-1.2,3.3.85,7.26-4.44,9.77.25,1.78,3.35.91,7.26-3.63,8.83a78.88,78.88,0,0,1-25.12,4.09C61.78,287.86,59.18,287.47,58.83,284.79Z"/><path class="cls-84" d="M52.08,225.78l2.39,1.94Z"/><path class="cls-24" d="M82.36,276.09l-2.93,1.2Z"/><path class="cls-101" d="M641.78,142.11c-.18,1.43,5.28,1.73.65,4.18-8.65,4.57-17.84,4.51-27.25,4.51-6.21,0-12.82-2.13-18.7,1.85L547,160.12c-1.53.89-3.39.68-4.94,1.49l-4.33.63c-14.4-7.39-26,3-38.14,7.06-10.25,3.41-20.49.95-30.46,3.79-3.53,1-3.94-2.25-1.94-5.1,2.36-3.34,4.62-6.75,6.92-10.14,40-18,82.38-21,125.37-20.6,4.12.05,8.24.23,12.36.34C621.41,141.59,632.33,137,641.78,142.11Z"/><path class="cls-102" d="M959.52,450.39c-8.48,11.06-6.81,24.74-8.85,37.28-1.49,9.12-6,16.89-8.12,25.59-.53,2.15-2.49,5.3-5.74,3.79-2.94-1.38-1.87-4.25-1.5-6.95,1.92-14,2.13-28.27,5.73-42.11a16.69,16.69,0,0,0-2.26-13c2.15-2.67,4.29-5.35,6.54-8.14-4.56-2.33-6.29,2.5-10.56,2.74,2.46-8.06-1.34-18,8.81-23,7.51-3.66,14.44-2.4,20.39,3.62,3.76,9.5-3.3,13.58-9.13,18.27Z"/><path class="cls-103" d="M961.72,423.39c-8-3.93-15.91-2.73-24,1.14-.31-6.24,0-11.92-1-17.35-1.33-7.12-1.43-13.32,5.56-17.61s13.53-3.31,19.81,1.49C965.4,401.87,968.27,412.68,961.72,423.39Z"/><path class="cls-53" d="M954.12,383.11c6-1,5.07-4.77,4.38-9.32-4.68-30.87-16.3-59.29-29.89-87.06-2.78-5.69-6.65-11.11-5.37-18,14.4,21.46,24.52,45,33.51,69.11,3.71,16.8,11.18,32.79,11.1,51.29Z"/><path class="cls-104" d="M961.72,423.39l.33-32.33c11.6,5.48,6.76,16.81,9.07,25.6-1.84,4.35,4.4,10.29-2.65,13.63C968.09,426.16,963.28,426.37,961.72,423.39Z"/><path class="cls-105" d="M954.83,448.48l-1.8-2.33c9.48-1.3,8-10.13,10.93-15.94a9,9,0,0,1,2.26.08c5.81,6.16,6.88,13.57,6,21.52C965.73,453,962.17,441.22,954.83,448.48Z"/><path class="cls-53" d="M569.32,857.65c14.26-6.2,15.57-5.59,18.36,8.48.66,3.27,1.38,6.54,2.07,9.81-3.45,13.92-8.44,26.94-18.85,37.47a210.48,210.48,0,0,0-32.08,41.64c-7.22-1.46-7.2-7.55-7.82-12.87s-.52-11-.74-16.56c1-3.84-.33-8.15,2.37-11.64a3.34,3.34,0,0,1,1.61,1.51c4.64,10.61,5.61,10.91,14.62,4.5a45.81,45.81,0,0,0,5.83-5.31c10.39-11,19-23.06,22.25-38.34C578.68,868.16,577.79,861.46,569.32,857.65Z"/><path class="cls-106" d="M217.72,686.47c3.54-6,5.31-2.7,8.65.78,4.06,4.22,8.81,15.83,15.16.39,1.41-3.42,11.05-3.61,12.47-10.84,5.35,1.35,5.76,6,6.89,10.23-3.91,9.85-17.64,6.59-22,16.86-1.52,3.61-6.23-.1-8.1-2.68-4.33-6-9.79-7.21-16.45-5.21l1.67-2a3.53,3.53,0,0,1,1.79-1.91C217.79,690.18,223.61,688.2,217.72,686.47Z"/><path class="cls-86" d="M217.83,692,216,694Z"/><path class="cls-107" d="M79,546c6.16,3.89,8,9.18,6.06,16.31-1.45,5.28-3,10.89,1.33,15.83L75.14,598.89c-4.56-13,3.69-24.17,5.35-36.28.78-5.65,3-11-3.79-14.4Z"/><path class="cls-63" d="M117.89,487.16c-2.89,8.75-8.75,13-17.78,16-13.7,4.52-29.4,7.18-36.51,22.81-11.27,8.08-11.4,8.08-14.17-.24,7.84-21.17,23.62-34.33,43.49-43.39,7.65.12,15.65-2.46,22.58,3a6.28,6.28,0,0,1,2.39,1.79Z"/><path class="cls-2" d="M964,453l-2.41-2Z"/><path class="cls-108" d="M151.45,509.32l9.37,1c2.13,6.16-3.42,10-4.48,15.25l0,0c-8.27,7.68-16.36,15.72-29,14.71-3.28-.27-7.53.27-4.86-5.4C127,520.52,138.84,514.48,151.45,509.32Z"/><path class="cls-98" d="M122.52,534.92c5.81,5.45,11.94,2.33,17.5,0,5.74-2.42,10.93-6.14,16.37-9.3-.55,4.21-8.66,6-3.86,11.92l-.16,0a13.6,13.6,0,0,0-2.68,1.45c-6.54,2.55-12.76,6-19.85,7-2.91.41-6.12,1.62-8.28-1.25C119.05,541.37,119.09,537.87,122.52,534.92Z"/><path class="cls-109" d="M156.23,544.26l11.46-1.58c-7.45,5.79-12.45,7.35-18.31,3.85C151.67,545.81,154.53,546.76,156.23,544.26Z"/><path class="cls-95" d="M149.69,538.93l2.68-1.45Z"/><path class="cls-109" d="M154.37,541.76a4.12,4.12,0,0,0-.05,2.12C152.06,543.12,152.39,542.42,154.37,541.76Z"/><path class="cls-110" d="M58.83,284.79l4.55,4.47a2.08,2.08,0,0,1-1.7.39c-1.58.88-3.48.7-5.07,1.53-6.8,1.46-13.49,4.06-21.56,1.95,5.19-4.72,11.46-4.32,16.83-6.22,1.48-1,3.45-.7,4.91-1.78A3.78,3.78,0,0,1,58.83,284.79Z"/><path class="cls-100" d="M56.79,285.13a4.92,4.92,0,0,1-4.91,1.78Z"/><path class="cls-100" d="M56.61,291.18a4.24,4.24,0,0,1,5.07-1.53A4.91,4.91,0,0,1,56.61,291.18Z"/><path class="cls-111" d="M569.32,857.65c9.06-1.12,12.12,3.27,11.41,11.86-1.61,19.39-11,34.53-25.05,47.21,2.9-10.64,4.37-20-11.69-20.14-3.58,0-4.4-5.44-4.11-9.38,3.15-8.59,11.91-12.72,16.17-20.43l6.44-6.84c1.82-2.13,5-.22,6.82-2.3Z"/><path class="cls-112" d="M539.88,887.2c2.73,6.28,6.5,10.51,14.37,9.18,3-.51,7.47-1.72,9.31,1.73,2.3,4.3-1.31,7.72-3.79,10.9-1.84,2.36-4.21,4.34-4.09,7.71-1.73,1.92-3.11,4.63-5.26,5.59-4.53,2-8.18,8-13.54,5.77-6-2.51-3.08-9.25-4.25-14.1q2.57-11.16,5.11-22.33c1.18-1.24.7-3.28,2.12-4.41Z"/><path class="cls-111" d="M539.86,887.24a4.34,4.34,0,0,1-2.12,4.41A4.56,4.56,0,0,1,539.86,887.24Z"/><path class="cls-53" d="M920.32,264.47,918.61,262Z"/><path class="cls-2" d="M911.73,589.4l2.32,2.19Z"/><path class="cls-95" d="M117.89,487.16l-2.39-1.79Z"/><path class="cls-113" d="M138.61,450.62c-7.86-24.42-10.29-49.2-4.86-74.5.58-2.71-.16-4.92-1.37-7.45-14.39-30.42-15.23-62.48-10.47-95,.85-5.8.77-10.2-4-13.83-.34-2.23.39-3.34,2.8-2.65,20.45,13.71,43.2,10.72,65.54,8.27,18.37-2,22.07-.57,28.8,16.81q12.84,33.09,25.62,66.21c.94,1.71,1.08,3.65,1.68,5.46l.87,3.65c.37,1,1.26,1.8,1.45,2.92a1.15,1.15,0,0,0,.65,1.56c3.44,15,8.87,29.94,9.88,45.13,2,29.61-12.1,53.17-32.93,73.09-1.81.93-3.09-.07-4.35-1.19-10.39-13.87-20.26-28.08-27.49-43.95a121,121,0,0,1-9.38-27.25c-.35-3.32-.54-6.66-1.66-9.85-.88-3.24-.93-6.85-3.57-9.35-3.1-2.92-6.72-5.34-11.13-3.78-3.82,1.34-3.78,5.2-4.1,8.59-.53,5.75,1.54,15.44-5,15.33s-3.5-9.81-4.32-15.38c-.22-1.47,0-3-.1-4.51-.31-4.2-.39-9-6.22-8.83-4.9.18-5.35,4.55-5.77,8.36-2.05,18.61-.48,36.82,6,54.5,2.9,15.39,14.75,21.8,27.23,28,6.93,3.45,15.93,2.61,20.9,10.06-1.06,3.13-3.24,2.75-5.6,1.81C166.5,479.55,148.37,471.48,138.61,450.62Z"/><path class="cls-114" d="M287.87,300.75c9.4,1.62,14.47-8,22.93-8.86,29.53-.29,59-.87,88.5-3.26a141.42,141.42,0,0,1,22.45-.16c4.28.33,9.44.07,10.09,6.43-7.41,6.34-16.89,5.87-25.27,5.46-19.95-1-39.33,4.7-59.18,3.67-6.33-.33-11.24,3.79-17.52,6.48,5.86,1.52,11.54-.22,16.38,2.64,3.78,6.07.34,10.72-3,15.41-3.13,2.25-6.64,2.3-10.24,1.73-4.95-1.15-10-3.68-14.39,1.4a9.25,9.25,0,0,1-6.31,0c-4-2.76-12.61-2.5-10.84-9.07,1.74-6.42,9.21-6.7,15.47-5.31a37.82,37.82,0,0,0,8.14.54,19.22,19.22,0,0,1-13.16-2.5c-8.18-5-19-2.57-26.11-10C285.86,303.48,285.8,301.63,287.87,300.75Z"/><path class="cls-48" d="M285.82,305.28c.35.16.71.48,1,.44,17-1.73,29.52,13.66,46.56,12-10.1,2.79-21.18-1.69-31.15,5.5,2.83,3.92,9.55,1.62,10.74,7,5.27,4.57,9.68,10.5,17.51,11a25.07,25.07,0,0,1,3.1.52l1.54.44c.5.19,1,.4,1.49.59a14.2,14.2,0,0,1,2.72,1.72,4.32,4.32,0,0,1,1.42,2.69c-2.58,7.11-11.41.23-14.39,6.46a17.31,17.31,0,0,1-4.08,3.84c-2.09-2.1-3.92-4.58-6.32-6.24-12.29-8.45-21.24-19.09-24.06-34.26-.62-3.36-4.43-3.58-7.08-4.9C278.61,309,283.27,307.24,285.82,305.28Z"/><path class="cls-115" d="M183.29,217c-4.61,9.58-14.51,14.18-20.87,22.23-1.53-11.29,8.82-14.11,14.38-20.31Z"/><path class="cls-116" d="M120.72,257.22l-2.8,2.65a17.58,17.58,0,0,1-2-.35c-.46-2.61-4.39-4.2-2.19-7.79C117.48,251.71,118.52,255.25,120.72,257.22Z"/><path class="cls-117" d="M322.31,357.48c-.55-2.12-.84-4.1,2.14-4.54,1.53,1.5,4.78.75,5.06,3.89-.28,1.64-1.46,2.21-2.92,2.44l.5.54-.41.62Z"/><path class="cls-48" d="M242.36,354l-1.68-5.46C242.63,349.9,242.68,351.88,242.36,354Z"/><path class="cls-48" d="M244.68,360.54c-.48-1-1-2-1.45-2.92Z"/><path class="cls-118" d="M614.67,157.68c7.34,31,8.18,62,0,93l0,.12c-13.47-7.17-27.11-2.83-40.6-.31-18.51,3.45-34.76,12.33-50.48,22.28-2.66,1.69-4.91,3.53-4.15,7.16-14.29-.78-28.57-1.61-42.86-2.33-5.08-.26-7.63-2.46-7.18-7.82,1.35-16-1.65-31.65-5.31-47.09-1.57-6.58,2.48-10,5.94-13.66,29.26-30.78,65.84-45.71,107.57-48.76C589.92,159.33,602.1,155.54,614.67,157.68Z"/><path class="cls-119" d="M603.3,275.74c-8.9,15.1-20.89,27.18-34.48,38.26-19.52,15.92-60.47,14.81-76.66,2.81-6.92-3.82-3.65-10.61-4.7-16.15l1.37-1.29c8.19-3.55,17.17-.09,25.43-2.89,17.63-2.4,35.78,1,53.33-4.82-2.16-3.81-7.47-3-9.75-6.47-12-1.78-24.34-1.72-36.11-5.29-2.71-5.87,2.29-7.54,5.66-9a258.91,258.91,0,0,1,76.32-19.69c6.69-.66,9.21,2.78,6.51,9.07C608,265.49,605.24,270.43,603.3,275.74Z"/><path class="cls-120" d="M557.84,285.19c6.85-.05,13,1.77,20.75,7.38-22.36,7.15-43.29,5.23-63.84,6.51-9,1.68-18.2-1-27.14,1.54l-.15,0c-35.32-1.06-70.54,2.17-105.82,2.78-1.74,0-3.46,1-5.19,1.57-8.63,6.68-18.45,1.61-27.63,2.79a15,15,0,0,1,4.39,0c7.13,2.32,14.6.52,21.8,1.88l1.68.33c29.63,1.34,59.22,3.32,88.4,8.95,6,1.17,16.54,1.82,16,7.35-.62,6.77-10.85,7.35-17.61,7.9-19.08,1.55-38.17,3.3-57.35,2.71l-1.93.12c-11.54,1.69-23.17.36-34.74,1.08-10.44-.23-21,.91-31.21-2.24-5.24-.68-10.4-1.55-14.35-5.57,1-5.22,4.4-3.28,7.41-2.52l11.12.23c20.45-3.14,41-1.21,61.36,0,8.27.49,16.28,1.39,24.36-.69,11.77-.89,23.64.43,35.36-1.35a13.89,13.89,0,0,1,2.89-.09c-1-.46-2-.05-3.07-.19-16.87-1.61-33.65-3.47-50.51-4.46-10.91-3-22.1-.6-33.1-1.75a22.54,22.54,0,0,1-3.92-.62c-5.71-2-11.64-1.2-17.48-1.41-4-.15-8.18.4-11.36-2.93-8.73-1.34-17.71,1.43-28.87-1.62,12.09-6.18,21.55-11.86,33.8-12.26,26.34-.86,52.65-2.8,79-4.3a16.9,16.9,0,0,1,3.45-2.34c12.91-2.1,25.91-.54,38.87-1,5.55-.19,11.15.31,16.53-1.54,23.64-2.95,47.5,1,72.1-1.26-6.66-1.47-13.22,5.55-18-2.93C548.45,286.31,553.61,288.8,557.84,285.19Z"/><path class="cls-121" d="M433.18,296.25l-2.29.13c-.45-4.86-4-4.86-7.49-4.65-29.63,1.79-59.35,1.29-88.94,4.08-7.95.74-16.71,2.89-23.66-3.92,13.42-9.13,28.63-12.79,44.47-14.19,46.18-4.11,91.94,1,137.66,6.72-5.05,3.77-11.35,5.67-15.66,10.56C462.57,295.8,447.81,293.58,433.18,296.25Z"/><path class="cls-122" d="M603.3,275.74c-.5-6.11,3.57-10.61,5.57-15.84,1.21-3.14,1.67-7.06-2.9-6.31-28.18,4.6-56.38,9.32-82.22,22.52-1,.53-1.36,2.49-2,3.79H519.4c-5.68-3.33-2.23-6.16.81-8.29,25.68-17.89,53.91-27.81,85.49-27.88,5.76,0,6.23,4.4,8.93,7C612.41,259.8,609.36,268.46,603.3,275.74Z"/><path class="cls-123" d="M478.72,293.36c-1.49-12.92,8.93-6.82,14.21-8.94,17.11-1.59,33.87,3.11,50.9,2.92,5.91,3.7,13.19-.17,20.82,4.3-25.66,3.13-49.8,3.11-74,2.72C486.63,294.87,482.48,296.45,478.72,293.36Z"/><path class="cls-54" d="M542,161.61a4.33,4.33,0,0,1,4.94-1.49A5,5,0,0,1,542,161.61Z"/><path class="cls-124" d="M324.65,203c-.84-2.1-1.73-4.21,1.93-4.23a4.74,4.74,0,0,1,1.91,1.12c10.19,14.23,17.12,15.42,32.16,5.5a2.53,2.53,0,0,1,2.13-.08,1.19,1.19,0,0,1,.35,1.69c.9,1.6.56,3.67,1.91,5.11,2.94,25,2.74,25.18-20.49,18.05-5.33-1.63-10.76-2.93-16.18-4.18-2.72-.63-5.38-.93-3.88-4.81A37.37,37.37,0,0,0,324.65,203Z"/><path class="cls-125" d="M362.78,205.33c-4.2,7.54-25.85,13.21-31.88,8-4.26-3.69-.47-10.36-4.32-14.52,11.08-3.56,22.35-5.81,34.07-5Z"/><path class="cls-126" d="M290,205.48c4.53-.06,5.29,3.13,5.62,6.62.28,2.93-.29,5.25-4.06,4.7-3.24-.46-7.06-.39-7.52-4.83C283.6,207.86,286.33,206.11,290,205.48Z"/><path class="cls-127" d="M305.22,219c4.41-2.82,8.65-3.56,12.56-.34.51.43.53,2.58.09,2.87C313,224.62,309.28,220.85,305.22,219Z"/><path class="cls-125" d="M324.65,203c3.32,6.09,3.37,12.15-.16,18.17l-.36-15.87C324.3,204.55,324.48,203.78,324.65,203Z"/><path class="cls-125" d="M365,212.13c-2-1.19-2.48-2.95-1.91-5.11A5.55,5.55,0,0,1,365,212.13Z"/><path class="cls-1" d="M378.5,566.45c-8.1-10.3-14.9-22.26-31.67-23.77,8.81-7,8.71-11.08-4.94-10.37,8.83-8.86,16.74-15.54,23.61-23.2,9.78-10.9,11.82-22.94,10.23-36.74-3.68-32-13-62.75-19.89-94,3.53-2.39,6.6-.27,9.43,1.32,29.21,16.39,58.53,32.58,89.32,45.91,2.41,1.05,4.72,2.42,5.68,5.17-1.79,5.44-1.33,10.61-.32,16.39,3.71,21.22,8.95,42,6.05,64.4-1.51,11.65,1,24.27-.72,36.65a53.75,53.75,0,0,1-7.19,20.8c-.43-.29-.85-.57-1.28-.84a30.58,30.58,0,0,1-3.63-5c-12-21.86-28.18-13.19-38.3,1.45-2.14,3.09-3.14,6.82-5,10.09s-4.77,5.79-8.26,4.32C393.54,575.63,384.24,574.24,378.5,566.45Z"/><path class="cls-128" d="M378.5,566.45c6.54,2.83,13.39,5.1,19.52,8.64,6.48,3.74,9,2.16,10.73-4.69a29.24,29.24,0,0,1,5.93-10.78c15.63-18.93,30.39-17.18,41.8,4.73.59,1.52.28,3.36,1.61,4.63h0c-.07,6-.56,12.13-.1,18.14.81,10.66,10.56,15.54,19.92,10.71,7.94-4.09,16-9.24,24.6-.66,7,7,9.56,20.64,4.29,30.4-6.65,12.35-14.37,24-26,32.39-6.89,1.7-10.42-9.64-18.15-4.69l-2.21.53c-1,.38-1.77,1.3-2.95,1.28L440,659.94c-6.3,2.32-11-1.16-15.86-4.29-15.29-5.49-27.78-14-34.72-29.59a40.83,40.83,0,0,0-12.29-15.83,3.21,3.21,0,0,1-3,0c-1.39-2.87-.05-5.27,1.28-7.69a10.69,10.69,0,0,1,2.38-2.27,10.36,10.36,0,0,1,3.07-1.06c2.23-.36,4.47-.67,6.72-1,1.82-.26,3.93-.83,5.14,1.12a3.57,3.57,0,0,1-1.2,5c-5.42,3.66-3.11,7.31-.68,11.54,8,13.93,16.33,27.08,33.3,32,9,2.6,17.69,3.71,26.76,1.91,11.68-2.33,15.46-6.39,15.74-18.37.23-9.67,3.9-17.54,10.13-24.55,2.3-2.58,4.57-4.27,7.09-.27.22,4.42-2.42,7.85-4.07,11.61-1.51,3.46-3.58,6.84-3.87,10.6-.56,7.27-.32,16.73,5.64,19.49,5.65,2.62,8.32-6.84,11.88-11.34,3.05-3.86,4.83-8.51,6.94-13,3.47-7.33,2.35-14-2.32-20.2-5.13-6.85-10.93-1.78-16.48-.75-3.32.63-4.69,3.51-6.62,5.75-6.72,7.81-6.73,7.81-11.73-1.53-.36-.67-.55-1.64-1.22-1.84-15.43-4.7-10.39-17.58-11.16-28.08-.28-3.73.21-7.52-1-11.16a14.17,14.17,0,0,0-4.94-7.28c-11.91-6.62-15.61-5.93-23.84,4.35A41.51,41.51,0,0,0,414.73,574c-1.55,7.17-5,16.84,1.38,20.52,5.95,3.44,10.05-6.6,15.09-10.53a19.85,19.85,0,0,0,4.17-5.2,13.81,13.81,0,0,1,2.28-2.43,6.84,6.84,0,0,1,3.13-1.21l1.56.67a6.21,6.21,0,0,1,.1,8.36c-5.76,7.45-11.19,15.28-19.69,20.07-11,6.21-18.42,3.61-20.68-9-1.8-10.06-7.15-15.34-16-18.33-1-.36-1.94-.81-2.89-1.25-3.38-1.85-6.76-1.19-10.14,0-12.55,3.52-16,13.87-18.35,24.86-.85,4-.22,8.29-.22,12.44-.54,4.8,2.2,7.25,6.27,8.75,1.38.86,2.5,1.85,2,3.72-6.53,6-10.06,3.66-14.83-3.24C336.9,606.19,354.74,566.32,378.5,566.45Z"/><path class="cls-129" d="M337.94,332.82l31.74,2.44c12.05,2.23,24.36-.85,36.41,1.73l.07,0c-5.2,3.3-6.8,6.83-2.16,12.29,14,16.48,23.83,36.6,42.46,49.07,1.33.9,1,1.75,0,2.64-4.66,2.77-7.87-1-11.25-2.84-32.33-17.69-63.54-37.38-96.16-54.53a5.41,5.41,0,0,1-2-2.24C336.82,338.47,336.56,335.57,337.94,332.82Z"/><path class="cls-130" d="M338.24,341.49c25.76,9.8,47.87,26.33,71.92,39.28,12.21,6.57,24.24,13.46,36.34,20.2,15.53,9.89,31.11,19.7,46.53,29.74,2.9,1.89,8.13,3.52,6.28,8-1.93,4.67-6.67,1.93-10.05,1-9.72-2.78-19.33-5.91-29-8.91-36.61-13.86-69.85-34.47-104.43-52.4l-29.25-19.07,2.58-1.93c9.46-.92,15.08,7,22.78,10.08,5.12,2.09,9.43,5.8,14.47,8.15,19,10.77,37.57,22.37,57.66,31.15a30.76,30.76,0,0,1,2.87,1.44c1.44.71,2.86,1.46,4.3,2.18,16.47,9.6,35.52,12.68,52.49,21,2.41.55,4.24,3,7.07,2.19-2.81.59-4.55-2-7-2.37-19.32-7.78-35.49-21-53.6-30.91-13.68-7.47-26.52-16.42-40.72-23-13.34-7.62-25.93-16.53-39.75-23.33-3.67-1.8-7.68-3.25-9.68-7.31a1.59,1.59,0,0,0-1.72-.6c-1-.38-1.64-1.46-2.79-1.61l.21-.57C335.31,341.73,336,340.8,338.24,341.49Z"/><path class="cls-131" d="M462.63,655.27c9.31-11.08,12.13,3,18.15,4.69,2.8,5.74-3.22,13.66,4.49,18.18-8.48-4-15.41-9.5-18.08-18.93C466.45,656.59,464.91,655.7,462.63,655.27Z"/><path class="cls-132" d="M353.56,310.06H339.05c12-6.9,24.87-4.28,37.4-5.05l.24,5h-.06A61.3,61.3,0,0,1,353.56,310.06Z"/><path class="cls-53" d="M569.31,857.63c-1.67,2.57-4.33,2.18-6.82,2.3C564.09,857.16,566.78,857.63,569.31,857.63Z"/><path class="cls-133" d="M316.41,705c1.78-6,6.12-4.58,10.08-3.28,10,3.3,20.05,6.64,29.93,10.36,6.36,2.4,10.24,2.29,9.06-6.13a37.19,37.19,0,0,1,.16-5.67c.12-7.87,3-11.23,10.74-6.61,3.65.35,1.46-3.72,3.8-4.75,1.19,3.63,2.36,7.21,3.55,10.82-5.12,2.59-8.9-1.58-13.22-1.57-1.77,23-1.77,23-24.19,15.77-8.89-2.86-17.77-5.77-26.66-8.65A2.06,2.06,0,0,1,316.41,705Z"/><path class="cls-134" d="M288.05,705.3c5-2,8.9,3.47,13.81,1.89,4.85,1.53,7.16,4.71,6.46,9.88a6.27,6.27,0,0,1-7.15,1.68c-11.55-4-21.72-10.48-31.27-18,2.55-2.65,5.28-4.62,9.09-2.29h0a24.64,24.64,0,0,0,2.3,2.27l0,0a19.05,19.05,0,0,0,2.3,2.28l0,0C284.67,704.47,286.84,703.93,288.05,705.3Z"/><path class="cls-135" d="M424.1,655.65,440,659.94c-2.79,5.24-7.07,9.44-10.32,14.43-5.23,8-10.67,2.74-14.58-3.19C427,671.19,424.09,662.58,424.1,655.65Z"/><path class="cls-136" d="M308.32,717.07q-3.24-4.94-6.46-9.88a2.16,2.16,0,0,0-.57-1.87,11,11,0,0,1-1.61-2.88c-.14-1.78-1.52-3.81.28-5.23s2.74.62,3.33,1.64c2.44,4.16,4.61,8.47,7.09,13.13,4-.69,3.2-5.57,6-7l3.25.29c-1.6,4.19-3,8.49-4.85,12.55C312.19,723.43,310.44,717.91,308.32,717.07Z"/><path class="cls-137" d="M279,698.47l-9.09,2.29c-2.94-2.29-4.19-5.44-4.63-9C268.35,697,276,692.89,279,698.47Z"/><path class="cls-131" d="M457.47,657.08l2.95-1.28Z"/><path class="cls-138" d="M187.72,482.89l5-2.45c8.64-5.58,18-3.67,27.21-2.46l2.32,2.34C211.21,487.25,199.54,486.05,187.72,482.89Z"/><path class="cls-139" d="M362.74,625.4l-2.55-2.27c1.61-7.45,5.88-12.16,13.62-13.32l3.28.42C371.85,614.85,369.39,622.11,362.74,625.4Z"/><path class="cls-137" d="M288.05,705.3c-1.88,0-3.58-.44-4.52-2.32C285.39,703.05,287.07,703.49,288.05,705.3Z"/><path class="cls-137" d="M281.27,700.74l-2.3-2.27Z"/><path class="cls-137" d="M283.55,703l-2.3-2.27Z"/><path class="cls-134" d="M299.68,702.44l1.61,2.88Z"/><path class="cls-140" d="M260.55,537.15c-4.27-11.39-13-18.75-22.66-25.29-4-2.71-3.93-2.79-2-6.92,15.81,7.07,25,19.39,29.08,37.69Z"/><path class="cls-141" d="M221.48,505.75l4.41,4.32a1.52,1.52,0,0,1,1.32,1.94c3.31,7.81,9.34,14.44,10.77,25-7.19-10.31-13.42-19.13-19.47-28.07-.89-1.31-.12-2.88,1.49-3.66A1.69,1.69,0,0,0,221.48,505.75Z"/><path class="cls-96" d="M227.21,512l-1.32-1.94C227,510.26,228.7,510,227.21,512Z"/><path class="cls-142" d="M151.61,362.74c.23,8.66-3.73,9.24-10.28,5.57-5.67-3.17-8.47-8.12-10.24-14.15-7.08-24.15-8.36-48.83-6.29-73.68,1.18-14.19,1.91-14.22,15.82-9,13.42,4.7,26.82,8.88,41.44,8.15,8.3-.42,16-3.95,24.26-3.82,5.05,5.64,5.34,11.33,2,18.34-11.3,23.73-20.79,48.15-26.12,74-.83,4-.34,10.55-7.06,9.19s-15.83.77-18.92-8.73c-1.15-3.53-1.55-7.3-2.29-11-3.54-4-.75-9.26-3-12.88C153.69,350.25,150.06,356.54,151.61,362.74Z"/><path class="cls-143" d="M192.51,417c-3-10.86-6.3-21.64-8.87-32.6-1.8-7.7,3.23-14.35,4.87-21.54,4.28-18.73,9.79-37.16,18.26-54.52,1.63-3.35,3.67-7.9,7.33-8,4.18-.09,4.75,5,6.22,8.4,13.79,31.62,22.86,64.65,29.47,98.43-4,7.58-10.46,3.72-15.77,2.8-13.5-2.34-26.54-2.7-38.58,5.17A7,7,0,0,1,192.51,417Z"/><path class="cls-144" d="M142.81,444c-8.13-18.43-8.47-37.83-6.79-57.37.46-5.28.78-12.06,9.16-11.2,6.89.71,10,3.76,8.88,11.68-1,6.87.44,14.1.92,23.65,4.12-7.76,1.28-13.8,2.65-19.14,1-4.07-1.52-12.12,5.34-11.32s16.4,1.15,18.3,11.45a52.43,52.43,0,0,1,.39,6.76c1.91,2.8-.15,6.37,1.75,9.18l9.34,27.24a8.38,8.38,0,0,1-7.58,8,20.2,20.2,0,0,0-12.66,6.34c-5.38,5.42-10.3,3.88-13.44-2.49-2.55-5.15-5.7-9.52-10.25-12.54C148.27,438.24,149.2,443.25,142.81,444Z"/><path class="cls-145" d="M192.51,417a3.91,3.91,0,0,0,.76-2c19.61-4.57,39.14-6.52,58.37,1.72C248.19,435,241.46,452,230.18,467c-4.48,5.95-8.25,5.11-12.26-.73-9.17-13.39-17.57-27.16-23-42.57-1.19-1.35-.76-3.35-1.87-4.74A2.09,2.09,0,0,1,192.51,417Z"/><path class="cls-146" d="M142.81,444c3.62-3.13,2.93-8.31,5.71-12,5.93,2,10.24,5.62,12.17,11.8,2.27,7.23,5.29,10,11.05,2.38,3.09-4.09,6.33-8.11,13.08-5.51,3.55,1.37,3.66-5.87,7.93-5.69,8,15.05,17.58,29.08,27.21,43.09-8.82,3.62-18.13,1.75-27.21,2.46-12.39-2.87-24.34-6.81-35-14C149.64,461,144.2,453.84,142.81,444Z"/><path class="cls-147" d="M206.32,275.79c-12.92,9.65-27.65,6.63-42,6-9.17-.43-17-4.13-23.68-10.29,16.6.19,33.14-.12,49.65-2.5C196.43,268.07,203.42,267.8,206.32,275.79Z"/><path class="cls-148" d="M251.64,416.69c-19.36-3.79-38.93-.51-58.37-1.72-.66-6.46,5.11-5.69,8.41-6.87,12.38-4.38,25-3.19,37.52-.33,3.68.84,7.19,2.25,10.59-.57l0,.09c.81,1.51.65,3.36,1.65,4.81C251.48,413.63,251.56,415.16,251.64,416.69Z"/><path class="cls-149" d="M151.61,362.74c-3.83-9.64-2-19.34-1.35-29l3.67-.21v24.16Z"/><path class="cls-143" d="M183.41,407.65c-2.49-2.7-2.32-5.9-1.75-9.18C184.13,401.17,183.93,404.38,183.41,407.65Z"/><path class="cls-143" d="M251.41,412.1a4.43,4.43,0,0,1-1.65-4.81C251.57,408.46,251.66,410.22,251.41,412.1Z"/><path class="cls-148" d="M193.08,418.93c1.73,1.14,2.08,2.83,1.87,4.74A4.64,4.64,0,0,1,193.08,418.93Z"/><path class="cls-150" d="M347,314.56c9.94.81,20.06-1.2,29.85,1.94-2.71,3.36-6.65,2.84-11.65,3.48a58.36,58.36,0,0,0,14.26-.66c15.13-2.45,29.45,2,43.82,5.6,2.55.64,6.23,1.23,5.41,5.61-22.51,3.48-44.88-1.33-67.35-1.38-6.22,0-12.76,1.92-18.87-1.09Z"/><path class="cls-55" d="M337.94,332.82c.68,2.38,3.52,4.77,0,7.14-1.41.61-2.93,1.05-4.33.27-3.4-1.9-.56,1.22-1.23,1.53a3.59,3.59,0,0,1-1.26,2.18c-8.91-.75-15.7-4.32-18.11-13.7l7.19-.2a3.22,3.22,0,0,1,4.33-.12Z"/><path class="cls-151" d="M324.52,329.92l-4.33.12c-.6-1.62-4.25-4,.33-4.53a15,15,0,0,1,10.82,2.32Z"/><path class="cls-152" d="M365.26,377.62l-36.09-20.28-4.72-4.4c1.54-1.43-6-8.11,3.15-5.28,4.08,1.26,8.53,2.13,12.43-1,18.32,7.07,34.35,18.18,50.7,28.72-2.07,5.15-6.19,4.46-10.21,3.39A37.49,37.49,0,0,0,365.26,377.62Z"/><path class="cls-153" d="M331,341.92c-1.08-2.59-5.68-2.26-5.14-6.46,4.79-.52,7.83,3.65,12.05,4.5a2.9,2.9,0,0,0,.3,1.53l-2.5,2.36-1.08.13-1.08-.13C332.64,343.3,331.91,342.5,331,341.92Z"/><path class="cls-152" d="M331,341.92l2.55,1.93-2.46.09Z"/><path class="cls-152" d="M335.52,344.42l2.79,1.61Z"/><path class="cls-74" d="M487.61,300.62c8.88-3.52,18.06-1.78,27.15-1.54C505.85,302.19,496.68,300.39,487.61,300.62Z"/><path class="cls-154" d="M428.68,330.53c-16.8-5.42-33.19-12.36-51.74-7.85-6.38,1.55-18.9,3.27-18.93-1.94,0-7.86,10.79-2.08,16.59-3.92a12.73,12.73,0,0,1,2.24-.32,1.54,1.54,0,0,1,1.89.22c11.55,2.92,23.43-.47,35,1.85,18-.47,35.67,2.4,53.34,5.19,1.46,1.34,1.46,2.68,0,4C454.45,330.81,441.58,330.81,428.68,330.53Z"/><path class="cls-114" d="M478.72,293.36l12,1c-19.11,2.48-38.32,1.87-57.51,1.89,10-5,20.62-1.23,30.89-2.35C468.92,293.37,473.84,293.52,478.72,293.36Z"/><path class="cls-74" d="M406.09,337c-12.16-.18-24.42,1.82-36.41-1.73C381.84,335.23,394.07,333.87,406.09,337Z"/><path class="cls-150" d="M413.74,318.57c-11.71,0-23.53,2.41-35-1.85A125.74,125.74,0,0,1,413.74,318.57Z"/><path class="cls-74" d="M353.56,310.06l23.07,0A39,39,0,0,1,353.56,310.06Z"/><path class="cls-155" d="M467.1,327.8c0-1.35,0-2.7,0-4,2.73-.37,5.73.39,5.59,3.15C472.58,328.64,469.14,328,467.1,327.8Z"/><path class="cls-74" d="M458.09,569c-1.61-1.17-1.86-2.81-1.61-4.63A4.46,4.46,0,0,1,458.09,569Z"/><path class="cls-156" d="M385.48,573.69c10.5,3.42,19.21,7.16,19.63,21.36.34,11.21,6.51,13.06,16.07,7.18,7.78-4.79,13.36-11.88,18.85-19,1.63-2.11,4.27-4.94.05-7.41-.85-1.83.17-2.94,1.5-3.94,4.74-1,7.45-4.47,10.08-8.08,3.4,9.46,1.56,19.41,2.52,29.11.41,4.12.36,6.09,5.46,7.29,5.46,1.3,12.7,4.3,5.11,14.14,8.36-3.49,10-11.13,16.24-13.34,2.09.62,4.66.75,5.08,3.52.33,2.16-.62,3.54-3.14,2.94-2.05-3.64-3.57-1-4.73.61-6,8.47-10.85,17.54-9.42,28.36.83,6.33-1.86,9.72-7,12.64-19.29,11-53.83,1.5-65-18-4.5-7.8-9.47-15.32-14.61-23.59,1.42-3.5,8-1.54,9-7.53-4.15.35-8.3,4.64-12.32.84C375.59,586.32,377.57,578.2,385.48,573.69Z"/><path class="cls-81" d="M482.93,607.51c5.92-4.14-1.4-4.27-1.94-6.46,6-1.89,11.74-8.41,18.14-1,5.78,6.7,8.32,14,4.8,22.91a85.16,85.16,0,0,1-18.21,28.31c-4.22,4.37-6.1,3.69-8.65-1.69C469.74,634.09,472.91,620.4,482.93,607.51Z"/><path class="cls-157" d="M441.86,573.12l-1.78,2.75-.11-.13a5.17,5.17,0,0,0-1.92,2.65l0,0a72.21,72.21,0,0,0-6.77,5.95c-4.11,3.76-8.85,6.42-14.27,3.62-6.06-3.14-6.35-8.67-4.36-14.58.54-5.18,4-8.8,6.91-12.67,8.67-11.59,14.71-12.24,27.25-3.16C448.5,563.77,447.29,569.12,441.86,573.12Z"/><path class="cls-63" d="M352.07,614.36c-3.9-13.11,1.57-23.91,8.42-34.38,3.1-4.75,7.63-6.8,13.14-7a3.48,3.48,0,0,1,3.35.23c5.49,13.36-4.43,38-17.48,43.17C356.63,617.49,353.61,618.53,352.07,614.36Z"/><path class="cls-158" d="M352.07,614.36c1.72.8,3.32,1.39,5.33.48,11.89-5.42,22.48-28.37,18.92-41.21,2.4-1.91,4.93-1.42,7.49-.4a1.66,1.66,0,0,1,1.67.46c-8.46,7.54-2,18.74-6.62,27.2l0-.08a4.69,4.69,0,0,0-2.11,2.87c-1,2-2,4.09-3,6.13-5.75,3.2-8.82,9.14-13.62,13.32C351.88,625.41,352.39,619.5,352.07,614.36Z"/><path class="cls-159" d="M412.69,573.33c0,5,.05,10.2,5.45,12.66,5,2.29,8.58-1.23,12.05-4.06,2.37-1.93,4.47-4.13,7.9-3.59-.32,4.14-3.19,6.78-6,9.19-5.7,5-12.29,16.12-18,11.82C407.57,594.44,408.33,582.44,412.69,573.33Z"/><path class="cls-159" d="M441.86,573.12q2.49-7.82,5-15.62a7.34,7.34,0,0,1,4.81,6.35C452.31,571.1,448.63,573.74,441.86,573.12Z"/><path class="cls-156" d="M383.81,573.23l-7.49.4-2.69-.69C377.09,570.5,380.48,570.93,383.81,573.23Z"/><path class="cls-156" d="M376.77,603.68l2.11-2.87Z"/><path class="cls-159" d="M438.05,578.39l1.92-2.65Z"/><path class="cls-160" d="M365.26,377.62c3.82-3.63,7.82-4.75,13-2.4,3.86,1.74,8.28,3.6,12.45.13,14.23,6.39,27.38,14.71,40.56,22.95,2.5,6.82-.59,10.09-7.08,11.21C403.73,400.43,384.32,389.35,365.26,377.62Z"/><path class="cls-161" d="M424.21,409.51c4.67-2.27,6.16-6.56,7.08-11.21l54,32a1.63,1.63,0,0,1,.65,1.81q-.33.9-.66.9c-19.71-5-38.88-11.4-56.69-21.46-1-.43-1.76-1.27-2.85-1.52l-.89,0Z"/><path class="cls-162" d="M485.32,433.05c0-.9,0-1.81,0-2.71l5.51,3.34C488.77,435.55,487,435,485.32,433.05Z"/><path class="cls-160" d="M425.78,410.07l2.85,1.52Z"/></g></g></svg>