<svg xmlns="http://www.w3.org/2000/svg" viewBox="0 0 949.16 976.5"><defs><style>.cls-1{fill:#8f6049;}.cls-2{fill:#0e0909;}.cls-3{fill:#0b0507;}.cls-4{fill:#946148;}.cls-5{fill:#110d0c;}.cls-6{fill:#211d1c;}.cls-7{fill:#181212;}.cls-8{fill:#25201f;}.cls-9{fill:#1b1613;}.cls-10{fill:#1f1a1a;}.cls-11{fill:#211b19;}.cls-12{fill:#151312;}.cls-13{fill:#241c19;}.cls-14{fill:#140f0f;}.cls-15{fill:#251a1b;}.cls-16{fill:#221e1c;}.cls-17{fill:#16110f;}.cls-18{fill:#1d1a1a;}.cls-19{fill:#150c0c;}.cls-20{fill:#262422;}.cls-21{fill:#1f1313;}.cls-22{fill:#1b1818;}.cls-23{fill:#151212;}.cls-24{fill:#312622;}.cls-25{fill:#342d2c;}.cls-26{fill:#1c1919;}.cls-27{fill:#201c1b;}.cls-28{fill:#151210;}.cls-29{fill:#322c2a;}.cls-30{fill:#332924;}.cls-31{fill:#161414;}.cls-32{fill:#3e3738;}.cls-33{fill:#43342c;}.cls-34{fill:#242221;}.cls-35{fill:#24191a;}.cls-36{fill:#242020;}.cls-37{fill:#464545;}.cls-38{fill:#2c2828;}.cls-39{fill:#3a322e;}.cls-40{fill:#393839;}.cls-41{fill:#3a393b;}.cls-42{fill:#26201e;}.cls-43{fill:#524c4d;}.cls-44{fill:#4a3f3f;}.cls-45{fill:#2a2928;}.cls-46{fill:#3d342f;}.cls-47{fill:#47403f;}.cls-48{fill:#383637;}.cls-49{fill:#4f4645;}.cls-50{fill:#625f5d;}.cls-51{fill:#3f3836;}.cls-52{fill:#45413e;}.cls-53{fill:#b0b0b0;}.cls-54{fill:#281d1b;}.cls-55{fill:#281b18;}.cls-56{fill:#4c4546;}.cls-57{fill:#bda098;}.cls-58{fill:#615959;}.cls-59{fill:#0d0d0d;}.cls-60{fill:#201917;}.cls-61{fill:#0c0c0c;}.cls-62{fill:#dfcfbe;}.cls-63{fill:#f0d1cd;}.cls-64{fill:#f6f6f7;}.cls-65{fill:#98644c;}.cls-66{fill:#9f6b51;}.cls-67{fill:#9a6c51;}.cls-68{fill:#0b0908;}.cls-69{fill:#d9dae4;}.cls-70{fill:#fbfbfb;}.cls-71{fill:#c4b4a5;}.cls-72{fill:#ae4d55;}.cls-73{fill:#9a494f;}.cls-74{fill:#c4b5a5;}.cls-75{fill:#8e5a44;}.cls-76{fill:#dbcbb3;}.cls-77{fill:#f3e3c8;}.cls-78{fill:#a9785c;}.cls-79{fill:#a37054;}.cls-80{fill:#38322e;}.cls-81{fill:#d16f6a;}.cls-82{fill:#a57355;}.cls-83{fill:#f4e4c9;}.cls-84{fill:#bc525b;}.cls-85{fill:#b18c75;}.cls-86{fill:#b08b74;}.cls-87{fill:#18120f;}.cls-88{fill:#cebea9;}.cls-89{fill:#b58f75;}.cls-90{fill:#26221e;}.cls-91{fill:#3e3a3a;}.cls-92{fill:#3d3939;}.cls-93{fill:#b5947b;}.cls-94{fill:#bca098;}.cls-95{fill:#e5c4c5;}.cls-96{fill:#d0b2ad;}.cls-97{fill:#bea199;}.cls-98{fill:#b78c91;}.cls-99{fill:#eaccd4;}.cls-100{fill:#c0a39b;}.cls-101{fill:#8c646f;}.cls-102{fill:#e5e5e7;}.cls-103{fill:#352927;}.cls-104{fill:#f8d9da;}.cls-105{fill:#848281;}.cls-106{fill:#cfb1ab;}.cls-107{fill:#f9f9fa;}.cls-108{fill:#e4c5c5;}.cls-109{fill:#d0d1dd;}.cls-110{fill:#2d2623;}.cls-111{fill:#0a0507;}.cls-112{fill:#9b4950;}.cls-113{fill:#d16e69;}.cls-114{fill:#744145;}.cls-115{fill:#b1605e;}.cls-116{fill:#b55058;}.cls-117{fill:#924f51;}.cls-118{fill:#584f47;}.cls-119{fill:#af9285;}.cls-120{fill:#e5c5c5;}.cls-121{fill:#cdafa9;}.cls-122{fill:#a57456;}.cls-123{fill:#f4dedb;}.cls-124{fill:#e8bbb5;}.cls-125{fill:#eac1bb;}.cls-126{fill:#edc9c5;}.cls-127{fill:#e09d97;}.cls-128{fill:#de9995;}.cls-129{fill:#6a2c30;}.cls-130{fill:#ceb0aa;}.cls-131{fill:#4d453e;}.cls-132{fill:#ecc0ba;}.cls-133{fill:#dd9a95;}.cls-134{fill:#4c2324;}.cls-135{fill:#e5afb1;}.cls-136{fill:#b5937c;}.cls-137{fill:#aa7657;}.cls-138{fill:#e3c3c3;}.cls-139{fill:#ebbab4;}.cls-140{fill:#da8684;}.cls-141{fill:#dc9b98;}.cls-142{fill:#dd928c;}.cls-143{fill:#e1c1c1;}.cls-144{fill:#f9f9f9;}.cls-145{fill:#cdceda;}.cls-146{fill:#78635f;}.cls-147{fill:#f7f7f8;}.cls-148{fill:#cdaea7;}.cls-149{fill:#c1bcbd;}.cls-150{fill:#f4e6e6;}.cls-151{fill:#585453;}.cls-152{fill:#c2c1c1;}.cls-153{fill:#322c29;}.cls-154{fill:#322c28;}.cls-155{fill:#766b62;}.cls-156{fill:#d4c4ad;}.cls-157{fill:#272421;}.cls-158{fill:#72685e;}.cls-159{fill:#db918b;}.cls-160{fill:#de9993;}.cls-161{fill:#b18971;}.cls-162{fill:#392821;}.cls-163{fill:#e1d1bf;}.cls-164{fill:#c6b6a6;}.cls-165{fill:#c4ab98;}.cls-166{fill:#c3a998;}.cls-167{fill:#473935;}.cls-168{fill:#353130;}</style></defs><title>Recurso 1</title><g id="Capa_2" data-name="Capa 2"><g id="Capa_1-2" data-name="Capa 1"><path class="cls-1" d="M812.88,312.38c-3.59,2.17-7.5,1.73-11.39,1.39-9.84-1.66-19.44.85-29.1,1.85-5.87.61-6.23,4.88-5.5,10.18,2.48,18.06,8.13,35.31,13,52.75,1.82,6.52,2.19,13.4,5.14,19.68.94,2,2.37,5.31-.66,7.13s-4.78-1.16-7-2.4c-2-1.13-3.37-3.11-5.44-4-6.43-2.92-9.51-1.3-8,6.19-.19,5.25,3,10,2.37,15.27,1.32,5.58,2.79,11.12,4,16.72.36,2.81,1,5.56,1.51,8.35.85,7.78,3.9,15.07,5.11,22.77-3.28,7.44-7.07,2.82-9.21-.3-8.3-12.12-19.55-21.61-28.6-33.05-3.71-4.67-6.91-11.37-15.09-9-12.53,7.61-19.14,7.08-30.13-3-12.11-11.16-21.73-23.94-26.7-40.06-3.92-12.68-8.67-25-21.73-31.83-4.81-2.53-8.71-4-13.52-.82-5.73,3.82-11.44,2.9-17-.43-2.27-1.35-4.4-3.17-6.91-3.84-13-3.46-18.94-12.73-21-25.27,3.58-18.09,9.37-35.3,20.26-50.45,9.78-2,17.84-7.26,25.35-13.55,1.13-.94,2.83-1.93,2.54-3.45-.46-2.4-2.84-1.9-4.57-2-6.69-.21-13.44.45-20.09-.44-3.06-.41-8.2-.06-5.3-6.14,8.55-3.52,17.69-.35,26.35-2.44a16,16,0,0,1,4.87-.27c3.19.37,6.56,2.17,9.26-1.25,6-6.9,7.09-15.62,9-24a11,11,0,0,1,3.66-5.19,3.76,3.76,0,0,1,2.82.28c4.89-1.65,1.86-5.28,1.91-8,.31-17.65,4.61-33.16,20.85-43.26s32.2-20.74,49.36-29.68c16.55-8.63,31.15-21.08,48.31-29.17A35.2,35.2,0,0,1,809,99.79c10.81,3.67,12.47,7.2,9,18.66-4,6.87-11.06,10-17.29,14C789,139.9,778.17,148.69,767,156.91c-1.7,1.24-4.53,2.89-4.1,4.89.58,2.65,3.78,1.4,5.85,1.63,21,2.31,42,1.8,63.06,2,4,1.36,8.21.84,12.34,1.06,2.91.15,6.69-.41,7.2,3.59.36,2.81-2.15,4.85-4.72,5.75-6.56,2.29-11.4,7.14-17,10.93-11.2,7.64-11.19,8.91.27,17.11,8.49,4,17.37,7,26.09,10.44,2.27.89,5.53,1,4.79,4.93-4.83,15.48-16.71,17.61-30.52,16.27-1.62-.15-3.61-.72-5,.91,1.54,1.21,3.45,1,5.21,1.37a46.16,46.16,0,0,0,5.64.5c19.75,1.25,21.22,3.18,17.48,22.9-1.86,6.06-7.8,5.79-12.1,6.79-17.57,4.09-34.66,9.71-51.79,15.23-2.78.89-6.61,1.18-7.44,4.41-1.06,4.15,3.19,5.47,5.67,7.48C795.77,301.49,805.6,305.08,812.88,312.38Z"/><path class="cls-2" d="M193.37,530.16c-9.79-10.65-20.21-20.8-27.2-33.71-1-2.16.33-2.92,2.05-3.44,10.06,5.25,15.75,15.05,22.58,23.27C209.46,538.75,229.71,559.36,253,577c29.12,22.37,60.66,39,97.78,43.61,38.7,4.81,75.79.91,110.61-17.87,4-2.13,7.67-4.83,12.17-5.87a6,6,0,0,1,3.41.66c.31.49.63,1,.95,1.47l0,1.75a9.75,9.75,0,0,1-1.64,3c-3.38,3.92-7.86,6.3-12.3,8.74-11.82,8.08-25.13,12.33-38.94,15.31-5.07,1.08-12.9-.52-14.55,3.85-2.14,5.68,5.46,8.9,9.27,12.53,16.49,15.74,35.18,28.1,57.05,35.3s43.71,13.81,66.7,16c2.61.25,5.29.57,6.77,3.29-1.35,4.51-5.27,4.13-8.72,4.66-49.53-3.45-94.68-18.06-130-54.76C400.41,637.18,389,632.56,373,632.58c-30,0-59-6.78-85.63-21.48-8.7-4.79-8.74-4.72-9.26,5.2a4.74,4.74,0,0,1-3.34,1.13A63.1,63.1,0,0,0,249,615.76c-20.17,2.52-40.53,3.31-60.55,6.92a21.29,21.29,0,0,1-3.42.74c-3.86.52-7.82.34-11.57,1.65C150,630,126.83,635.82,105.22,646.61c-3.12,1.56-8.46,1.52-8.35,6.2.1,4.15,5.06,5,8,7.06,1.22.86,2.56,1.54,3.83,2.35,6.4,5.58,16.68,3.43,22,11.13-.23,1.95-.82,3.41-3.23,2.32C113.39,674.55,102,667,91,659.26c-6.64-4.65-6.16-9.37.62-14.33,14.34-10.47,31.51-14.09,48-19.11,10.06-3.06,20.53-4.71,30.8-7.06,1.65-.38,4.35.2,4.49-2.11.16-2.53-2.62-2.07-4.25-2.41-21.4-4.53-41.73-12.61-62.54-19.1-35.06-10.95-63.14-31-80.32-64.48-1.28-2,.15-2.81,1.67-3.53,3.72.37,5.43,3.25,7.37,5.87.64.88,1.22,1.79,1.8,2.71s1.25,1.8,1.87,2.71c4.63,6,9.88,11.42,14.33,17.52,10.69,14.61,26.83,20.24,42.73,26.14,29.65,11,58.78,23.71,90.48,28.16,4.89.68,9.77,1.41,14.62.47,17.05-3.28,34.46-3.54,51.58-6.17,3.08-.47,7.64,1.21,8.56-3.33.75-3.7-2.83-5.91-5.38-8.06-6.33-5.36-13-10.32-19.45-15.5a353.36,353.36,0,0,1-35.57-32.95,97.69,97.69,0,0,1-8.53-6.66C190.94,535.59,195.82,532.65,193.37,530.16Z"/><path class="cls-3" d="M475,355c5.51,4.13,11.29,5.88,17.74,2.16a2.06,2.06,0,0,1,2.82-.17c3.47,5.11-6.76,9.74-1.45,13.44,3.54,2.47,9.29-1.39,14.15-1.85,13.19-1.23,18.34,4.69,14.86,17.3-1.5,5.44-3,10.9-4.84,16.23-.77,2.19-.15,3.71,2.68,2.88.9-.5,1.78-.93,2.67-1.41s1.89-1.08,2.86-1.57c3-1.54,6.06-3.13,9.17-4.47,4.39-1.89,9-5.3,13.55-.88,4.33,4.18,2.12,9.2.63,13.82-5.23,16.17-9.85,32.53-15.12,48.68-2.37,7.93-6,15.43-8.28,23.39-.43,1.44-1.1,2.8-1.41,4.28,1.55-.2,2.6-1.32,3.81-2.13A215.64,215.64,0,0,0,551,467.31a28,28,0,0,1,9.09-4.42c5.9-1.47,9.48.74,10.52,6.81a43.59,43.59,0,0,1,0,13.49c-2.68,19-1.32,38.3-4.33,57.27-1.07,5.81-1.23,11.9-4.9,17-4.91.43-4.65-3.54-5.57-6.52a70.42,70.42,0,0,1,.54-16.79c4.07-11.13-.82-23.43,4.4-34.44a11.89,11.89,0,0,0,.54-2.19,15,15,0,0,1-.64,2.09c-8.64,15.51-18.7,30-31.08,42.74-2.65,2.74-3.77,6.48-5.11,10a114.74,114.74,0,0,1-19.77,29.34c-2.22,2.15-3.49,5.18-6.23,6.88-6.64,2.88-10.64,10.2-18.49,11a5,5,0,0,1-2.81-1.29l-.12-.14c-1.08-5.67,3.37-8,6.78-10.66,26-20.24,37.68-48.12,42.4-79.69.32-2.12,1.51-5-.54-6.32-1.46-.93-3.05,1.68-4.63,2.62-6.9,4.12-9.73,1.48-9.78-5.87a75.25,75.25,0,0,1,5.94-18.13c7-14.41,7.58-28.8,1-43.45-2.23-5-1.54-12.09-10.79-11.43-3.66.26-3.52-5.22-3-8.45,1-5.76.78-11.2-2.13-16.35-.49-.81-.94-1.65-1.4-2.47s-1-1.49-1.58-2.22c-.28-.33-.55-.69-.83-1a19.85,19.85,0,0,1-1.58-2.07,15.38,15.38,0,0,1-1.23-2.21c-.56-1.09-1.09-2.19-1.68-3.27-.42-.68-.81-1.38-1.21-2.06a15.68,15.68,0,0,0-1.61-1.75c-.37-.19-.7-.41-1.07-.6a20.14,20.14,0,0,0-2.62-.58c-7.66.39-13.89-.3-10.74-10.9,1.69-5.7-5.73-8.59-5.33-14.18C472.1,355.43,472.88,354.12,475,355Z"/><path class="cls-4" d="M608.37,52.92c.4,1.83.13,3.43-1.6,4.5-4.66,10.2-6.54,21.91-16,29.51q-25.65,9.82-50.29,22c-5.26,2.59-9.88,7.42-16.68,5.5-4.56-2.41-6.32-6.06-5.52-11.25C521.09,85,525.16,67,529.06,49c.61-2.79.1-7.31,3.65-7.38,3.85-.07,4.37,4.5,5.38,7.65.45,1.43.34,3,.67,4.47a10.94,10.94,0,0,0,.33,1.07c2.59,6.33-.55,17,7.28,18.52,6.77,1.35,11.2-7.81,15.87-13,15.16-16.81,29.76-34.15,47-48.95,2.45-2.11,4.79-5.85,8.5-3.4,3.14,2.09,1,5.45.23,8.3-2.48,9.47-5.41,18.79-8.6,28C608.42,47.1,606.55,49.8,608.37,52.92Z"/><path class="cls-5" d="M608.65,270.92c-8.27,16.09-15.59,32.55-19.82,50.24a9,9,0,0,1,.55,3.57,9.73,9.73,0,0,1-1.16,3.36,19.86,19.86,0,0,1-1,2.06c-.55,1-1.11,2-1.59,3a13.88,13.88,0,0,1-1,2c-.51,1-1,2-1.51,3a13.32,13.32,0,0,1-1.11,2c-.43.64-.9,1.25-1.38,1.85-.21.32-.45.62-.67.94-.38.69-.79,1.36-1.19,2a15.84,15.84,0,0,1-1.27,2.08,16.39,16.39,0,0,1-1.6,1.93c-.3.31-.61.59-.91.9a14.67,14.67,0,0,1-2.05,1.63,23.48,23.48,0,0,1-2.34,1.33c-1.24.69-2.48,1.37-3.74,2a24,24,0,0,1-5.75,2.34c-9.77,2.06-17.48-3.13-25.51-7.24-12.6-9-12-8.81-7.92-24,2.19-8.15,3.89-17.16-2-25.07-3.38-4.56-6.55-4.9-9.08.73-2.32,5.17-4.39,10.41-4.93,16.15-.44,4.68-1.36,9.15-7.22,10-8.28,0-8.36-3.47-3.9-9a40.69,40.69,0,0,0,3.24-9.6c7.78-34.15,40.78-46.8,73.21-24.35,14.05,9.73,15.41,9.59,20.88-7.34,1.75-5.4,2.35-10.23-2.32-14.48-7.56-6.9-12.72-15.81-19.42-23.42-2.57-2.47-6-3.46-9-5.29-2.13-1.23-4.49-2-6.54-3.44-4.38-4.67-7.09-10.63-11.72-15.11a40.41,40.41,0,0,1-3.5-4.73,24.27,24.27,0,0,0-2.92-3.32c-5.24-4.48-9.48-3.4-13.14,2.13-2.5,3.77-4.78,7.72-7.68,11.18-6.05,7.23-13.22,11.14-22.76,6.65a6.94,6.94,0,0,1-2.06-2.22,3.41,3.41,0,0,1,.62-2.78c2.76-.78,3.67-2.8,3.63-5.46a2.42,2.42,0,0,1,1.93-1.71,11.59,11.59,0,0,1,2.71.4c4.6-6.22.2-13.23,1.77-19.69a1.69,1.69,0,0,0-1-1.85c-1.53-.29-1.52,1.09-1.61,2.06-.43,4.39.31,8.92-1.61,13.13a5.66,5.66,0,0,1-3.83,2.87,134.69,134.69,0,0,0-10.09-30.61c-8.82-18.93-3.78-34,10.89-47.1,2.22-.42,2.62,1.09,2.89,2.74-1.31,5.9-6.38,9.56-8.77,14.82-6.05,8.85-.85,17.56.5,26.26.26,1.67.1-.19.25-.27,5.82-3.33,5.91-3.43,9.76-.15a126.15,126.15,0,0,1,11.3,11.12c4.6,5,9.52,8,16.85,6.71,11.2-2,17.48,6.07,23,13.55,6,8,12.11,15.32,21.59,19.26,3.54,1.47,6.08,4.45,8.14,7.67,5.32,8.31,11.26,16,19.25,22C608.89,261.32,612.77,265.3,608.65,270.92Z"/><path class="cls-6" d="M361.48,927.43l-40.72,0a17.2,17.2,0,0,0-11.63-.06c-16.15,4.2-31.79,9.32-43,22.94a12.79,12.79,0,0,1-8.67,4.85c-4.06,1.2-8.1,1.85-12-.49-1.28-4.43,1.53-7.75,3.08-11.4,2-3.33,3.5-6.76,1.89-10.69-1.72-4.21-3.35-8.88-8.54-9.63-4.84-.69-7.23,3.23-9.61,6.68-5.61,8.17-7.15,17.28-6.19,27-.68,4.36,1.54,9.93-4.9,11.89-4.81-11.48-3.46-22.87.79-34.1,2.13-5.6,5.79-10.62,6.15-16.89.06-1,.61-2.61,1.39-3,11.8-5.77,19.37-19.17,34.57-18.84,19,.41,36.27-3.92,51.16-17,9-7.84,12-18.12,14.63-28.55,4.92-19.39,6.64-39.33,8-59.26.15-2.24.75-4.74-3-4.39-2.55.24-3.76-1.23-2.54-3.31,4.73-8.07,1-11.19-6.62-13.45-6.27-1.86-3.37-4.83-.15-7.86,3.43-3.24,10.31-4.24,8.25-11.49-1-2.05-.76-4.18-.42-6.31a2.62,2.62,0,0,1,2.82-.8c5,3.73,5.56,8.63,3.51,14.08-3.64,9.7-1.43,15,8.59,20.19a7.81,7.81,0,0,1,.76,3.29c-1.68,16.9-6.35,33.33-7.75,50.26a20.34,20.34,0,0,1-.73,3.38,64.6,64.6,0,0,0-2.06,8.25c-3.49,16.78-6.12,33.93-19.34,46.66-3.54.6-7.4-.38-10.58,2.19-9.66,7.82-21.37,9.48-33.11,11.09-12.23-1.41-22.42,4.37-32.82,9.4-.88.43-1.93.51-2.85.9,1.06.11,2.14-.31,3.18,0,7.43,1.93,12.21,7,15.87,13.43a39.16,39.16,0,0,1,2.22,6.29,14.55,14.55,0,0,1-.05,6.66c-.38,1.83-2.22,4.34-1.44,5.2,2,2.21,2.76-1,3.73-1.89q27.73-26.64,65.79-21.83c10.76,1.37,21.63.81,32.4,2C362.65,924.41,362.81,925.94,361.48,927.43Z"/><path class="cls-7" d="M724.36,423.22c5.44-5.46,8.29.37,10.75,3.18,11.07,12.68,23.54,24.14,33.29,38,1.69,2.41,2.49,7.85,7.79,4.38-.83-2.18.18-2.64,2.09-2.25.86,2.89,1.78,5.76,2.55,8.68.37,1.45.28,4.18-.76,4-11.7-1.9-5.58,7.81-5.76,10.68-3.16,48.79-20.77,91.48-53.32,127.64-12.36,13.74-28.09,23.83-44.18,32.85-6.63,3.73-13.19,7.34-18.15,13.05a98.18,98.18,0,0,1-22.38,18.65c-7.15,4.48-10.13,10.48-11,18.34-.61,5.67-2.07,11.13-5.41,15.91-2,.59-3-.65-3.75-2.21-2.18-4.22,3.28-10.36-.41-12.17-3-1.46-7.44,4.07-11.55,5.95-7.43,3.41-14.26,8.75-23.21,7.54-1.66-.83-2.6-2.06-2.24-4,6-6.83,14.71-8.11,22.49-11.3A3.28,3.28,0,0,1,604,700a2.14,2.14,0,0,0-2.09-.24c-6.72,2-13.34,4.8-20.62,3.18-2.31-.61-4.49-1.38-4.88-4.21,2.64-3.9,7.06-4.34,11-4.74,27.65-2.88,48.85-17.57,68-36.35,7.22-7.07,13.74-14.86,21.59-21.29a8.91,8.91,0,0,1,4.75.17c16.68-5.85,29.29-17.17,40.59-30.23,3.88-5.3,8.35-10.18,11.21-16.19,5.49-8.51,11.25-16.88,15.14-26.32.38-1,.82-1.9,1.25-2.84q.87-2.22,1.6-4.48c4-13.23,10.05-25.82,11.64-39.73,1.22-3.66,1.39-7.53,2.27-11.26A64.26,64.26,0,0,0,736.35,438c-4.73-3-6.63,2.55-10.16,1.31-2.49-2.69-2.65-6.25-3.6-9.53A7.26,7.26,0,0,1,724.36,423.22Z"/><path class="cls-8" d="M708.24,894.22l.21,17.62a2.23,2.23,0,0,1-2.88,0c-3.92-6.25-3.49-13.75-5.82-20.46-1.5-4.33-3.34-8.73-8.67-9.27-4.34-.44-6.66,2.85-8.74,6.07-2.76,4.29-2.83,8.75.64,12.48,4.85,5.2,10.18,9.95,14.53,15.64,2.84,3.72,5.27.08,7.88-.5,2.61.74,1.34,3.8,3,5.09-.18,1.86-.3,3.73-.53,5.58-.29,2.3-1,4.93-3,5.78-3.42,1.41-4.08-2.42-5.75-4.13-5-5.12-9.78-10.41-14.69-15.58-2.35-2.47-5.14-5.55-8.5-4.78-9.07,2.09-13.19-4.21-17.31-9.78-19.32-26.18-44-39.71-77.24-34.4-1.7-.37-2.83-1.21-2.7-3.15,6.12-3,10.37-9,17.25-10.76,5.62,3.8,11.27,7.55,18.08,8.85,14.13,2.7,25.74,10.05,36.28,19.45A124.36,124.36,0,0,1,662,891.46c1.76,2.35,3.81,6,6.55,5.46,3.84-.71,2.46-5.53,3.77-8.39,2-7,6.79-11.41,12.74-15,2.39-1.45,5.08-1.79,7.58-2.78-2.74-1.23-5.73-1.62-8.54-2.6-7.86-2.76-14.45-7.85-21.71-11.73a20.33,20.33,0,0,1-3.78-3.33,19,19,0,0,1-2.72-3.63c-2.07-3.85-6.45-8.61-1.51-11.89,4.2-2.79,6.77,3.14,9.48,5.89,6.5,6.58,13.7,11.79,22.88,14,7.09,1.68,13.62,4.54,18.5,10.3,3.2,3.78,7.44,4.85,12.18,4.82,6,0,12.1.28,18.12,0a32.75,32.75,0,0,1,25.72,9.42c5.1,4.84,10.26,10.22,18.07,10.79,3.83,5.56,3.36,6.24-5.1,7.57-5.91-4.43-11.93-8.73-17.7-13.33-7.05-5.6-14.65-8.57-23.84-7-4.38.73-9.12,1.52-13.35.62-9.56-2-12.18,2-11,10.6C707.4,892.11,707.64,893.16,708.24,894.22Z"/><path class="cls-9" d="M590.6,85.36l16.17-27.94c-.24,1.49-.1,3.19-.8,4.42-1.53,2.68-1.33,5.17.53,7.3,2.54,2.89,5,.12,7-.92,9.06-4.6,17.9-9.67,26.92-14.37,35.81-18.61,72.92-34.34,110.18-49.73,1-.42,2.09-1.37,3-1.26,2.58.29,5.31-2.67,7.41-.54,2.47,2.52-.53,4.83-1.65,7-11.25,21.38-24.36,41.65-37,62.2-3.69,6-12.12,13.94-9.35,17.78,3.38,4.68,13.08-.66,20.06-1.37,8.23-.84,16.38-2.4,24.57-3.64,2.7-.79,5.39-1.58,5.46,2.79-6.84,5.57-15.5,5.35-23.48,7a242.1,242.1,0,0,1-49.24,5.74c-6.25-3.55-3.29-7.47,1-8.4,14.82-3.24,20.35-15.63,27.46-26.44,9.91-15.06,18.4-31,27.2-46.69,1-1.76,3.85-3.79,2-5.55-1.1-1-3.85,1.5-5.85,2.44-.67.32-1.33.69-2,1a1137.4,1137.4,0,0,0-138.1,66.37C598.55,84.58,595.14,87.41,590.6,85.36Z"/><path class="cls-10" d="M218.32,262.32c-8.86-7-18.12-13.63-25.18-22.67l1-1.28c2.86-1.16,5.28,0,7.27,1.82,22.24,20.1,48.15,35.23,71.82,53.37.79.65,1.54,1.36,2.27,2.07.39.32.75.67,1.14,1a60.32,60.32,0,0,0,7.47,5.09c14.65,9.15,29.88,17.5,41.73,30.49a3.25,3.25,0,0,1-2.64,3.48c-15.48-5.62-27.46-17.12-41.67-24.85-.81-.54-1.59-1.15-2.34-1.76a27.25,27.25,0,0,0-4.87-2.93,49.17,49.17,0,0,1-5.16-2.76c-6.73-4.95-14.11-8.86-21.11-13.33-.79-.45-1.57-1-2.32-1.48s-1.48-.89-2.22-1.34-1.44-.81-2.14-1.24c-1-.6-2.05-1.21-3.12-1.74a21.12,21.12,0,0,1-2.14-1l-3.29-1.63a16.26,16.26,0,0,1-2.27-1.27c-1.17-.74-2.32-1.48-3.5-2.19-8.86-4.69-18-8.86-26.87-13.41-.91-.41-1.78-.9-2.65-1.39s-1.77-.91-2.66-1.39-1.82-.89-2.73-1.36l-4.33-2c-43.06-20.17-86.18-40.16-132.22-52.79a12.87,12.87,0,0,1-5.06-2.44,2.23,2.23,0,0,1,.06-3.14c3.56-3.82,7.54-2.12,11.46-.83,43.37,14.31,85.86,30.75,126.38,52,9,4.72,18.38,8.71,27.58,13,1.45.43-.43.26,1,.33,2.92.16,5.12,1.75,7.47,3.1C222.3,266.19,219.89,264.71,218.32,262.32Z"/><path class="cls-11" d="M275.49,616.36l3-.18c4,.17,5.82,3.22,7.44,6.16,10.25,18.55,23.3,35.08,36.66,51.4.7.85.91,2.08,2,2.67a6.35,6.35,0,0,1-.64-3.35,12.76,12.76,0,0,1,1.74-5.32c1.18-2,2.59-4,5.18-3.54,2.81.54,3.07,3.21,2.78,5.38-1.12,8.25-.14,16.66-1.37,24.8-1.66,11,.05,21.72,1.53,32.5,0,5.6,7.43,11.1.31,16.84l.27-.18c-.78,1.15-1.52,1.13-2.23,0-6.27-14.81-9-30.23-7.36-46.26.65-6.32-1.08-10.94-5.22-16.18-9.79-12.37-20.72-24-28.55-37.8-3.91-6.9-8.13-8-15.66-4.88-38.67,15.75-78,29.75-119,38-9.59,1.93-19.32,3.13-28.84-.73l2.61-2.35c2.12-2.68,5.21-2.89,8.21-3,24.46-.94,47.58-7.88,70.37-16,17.06-6.09,34.83-9.82,51.67-16.78C270.51,633.34,277,628.14,275.49,616.36Z"/><path class="cls-12" d="M595.18,816.38c-6.82-11.46-15.34-21.39-26.42-28.91-6.32-4.29-7.82-10.34-5.26-16.83,3.25-8.26-.24-12.5-7-16.24-8.66-4.8-15.32-12.12-22-19.28-2.06-2.22-3.58-4.84-7-4.85-2.68,1-3.15-.57-3.09-2.72,7-6.13,15.3-6.86,24-5.86a3.52,3.52,0,0,1,2.08,2.52c.88,5.15-10.66,5.17-5.38,11.38,5.09,6,9.85,14.49,19.77,12.19,7.17-1.67,9.09,3.65,12.68,7.15,1.78,1.73,3.29,6.45,5.69-.14,4.14-11.37,6.57-11.7,16.58-4.13,1.67,1.26,2.7,3.28,4.84,4-.29-1.84-1.28-3.44-1.77-5.21-1.84-6.78-.91-12.74,4.86-17.38,2.69-1.09,4.11.25,5,2.63-2.83,18.88,2.16,35.66,13.43,50.82,2.19,2.95,5.2,5.48,5.51,9.54a4.37,4.37,0,0,1,.15,3.18c-5.82,1.72-7.61-3.19-10.25-6.43-6.76-8.31-11.31-18.18-18.48-26.2-1.76-1.43-3.41-3-5.21-4.36-4.28-3.31-6-2.57-7.27,3.07-2,9.33-4,9.67-12.06,4.48-1.91-1.23-3.42-5.42-5.88-3.07-1.81,1.74-2.19,5.56-1.4,8.66s3.17,5.11,5.35,7.18a157.42,157.42,0,0,1,20,23.15c1.88,3.58,3.68,7.18,1.55,11.31A2,2,0,0,1,595.18,816.38Z"/><path class="cls-13" d="M812.88,312.38c-10.21-2.91-17.13-11.29-26.37-15.91-3.72-1.85-9.81-4-9.25-8.35s6.83-5,11.06-6.44c19.49-6.74,39-13.36,59.21-17.75,1.35-.29,2.53-1.43,3.79-2.17a15.53,15.53,0,0,1,3.9-2.72,26.87,26.87,0,0,1,4.52-1.57c20.83-3.24,40-12.26,60.49-16.92,2.11-.47,5.55-1,5.62-2.87s-3.53-1.54-5.37-2.57c-1.64-.93-3.32-1.73-3.89-3.75,1.21-3,3.36-2.54,5.66-1.57,7.66-.26,14.77,2.5,22.12,4,1.81.37,4.29.4,4.7,2.29.66,3.1-2.43,3.22-4.39,4-23.94,9.16-48.83,15.16-73.42,22.16C844.5,269.81,817.71,277.34,791,285c-2.4.69-5.94.84-6.43,3.44s2.76,4.35,4.86,5.67c7.3,4.59,14.86,8.78,22.26,13.21C813.61,308.46,817.41,309.49,812.88,312.38Z"/><path class="cls-14" d="M66.61,277.74c2.55-7.59,10-.18,13.6-4.45-.8-2.13.52-2.9,2.2-3.44,6.11.59,10.29,4.87,14.25,8.65,9.1,8.67,19.52,15.49,29.59,22.83,11,8.85,23,16.2,34.36,24.57,12.81,7.71,25.21,16.05,37.53,24.51,1.27.85,2.54,1.7,3.85,2.5.91.48,1.78,1,2.64,1.61,7.55,5.56,15.85,9.94,23.72,15,3.08,2,6.88,3.43,6.58,8.17a5.75,5.75,0,0,1-2.66,1.72c-6.51.73-10.85-3.88-16-6.5-3.52-2.17-7.36-3.82-10.82-6.11-.89-.54-1.73-1.13-2.57-1.73s-1.75-1.12-2.61-1.7c-17.52-11.76-35.94-22.11-53.14-34.35-.77-.59-1.52-1.25-2.25-1.9s-1.53-1.16-2.3-1.73c-1.58-1.08-3.15-2.19-4.74-3.27-1.27-.78-2.54-1.58-3.79-2.4-15.75-13-32-25.28-50.43-34.44-4.93-2.45-9.63-4-15-4C67,280.63,65.62,279.84,66.61,277.74Z"/><path class="cls-15" d="M475,355c-.79.79-1.59,1.57-2.39,2.35-3.57,1.31-6-1-7.68-3.28-9.18-12.36-22.12-20.2-34.06-29.31-28.21-21.49-57.49-41.18-90.12-55.41-1-.44-1.9-.95-2.83-1.46-1.42-.71-2.86-1.4-4.34-2-14.73-6.85-30.45-11.25-45.09-18.32-.43-2.2,1.24-2.84,2.68-3.65,21.49,2.25,39.9,12.89,58.78,22,44.32,21.42,84.22,49.39,120.2,83C472,350.67,473.36,353,475,355Z"/><path class="cls-16" d="M29.69,527.86c-.65.93-1.29,1.87-1.93,2.8C16.67,516.71,8.18,501.35,1.32,484.85c-3.26-7.84-.2-9.32,6-9.67,8-.45,15.78,1.17,23.53,2.75,40.33,8.22,79.36,20.7,117.42,36.31a2,2,0,0,1-.46,3c-5.9,2.7-11.1-.48-16.32-2.25-32.55-11-64.69-23.35-98.8-29-3-.49-5.92-1.24-8.91-1.68-4-.59-8.92-3-11.81.55-3.43,4.25.67,8.61,2.78,12.3,4.5,7.87,9.22,15.64,14.18,23.24a16.77,16.77,0,0,1,1.68,3c.17.54.33,1.09.5,1.64A2.61,2.61,0,0,1,29.69,527.86Z"/><path class="cls-17" d="M833.19,166.37q-36.23-.21-72.46-.45c-2.09,0-5.14,1.14-5.62-1.95-.38-2.42,2.34-3.5,4.2-4.8q25.49-17.83,50.86-35.82a95.41,95.41,0,0,0,7.59-6.66c.11-2,1.52-3.11,3-4.19,1.08-.86,2.14-1.72,3.21-2.59a33.71,33.71,0,0,1,3.43-2.65c6.61-4.37,13.59-8.12,20.1-12.48.33-2.47-4-2.49-2.84-5.33,4.49-.39,9-.86,13.49-1.14,2-.12,4.9-2,5.71,1.19.6,2.43-2.15,3.68-3.89,4.9-20.43,14.15-40.68,28.59-61.48,42.19-9.47,6.2-18,13.55-27.44,19.78-1.14.75-3.17,1.4-2.33,3,.51,1,2.55,1.29,4,1.61,12.59,2.9,25.43,2.28,38.2,2.62,7.52.19,15,.54,22.56.82l.58,1.05Z"/><path class="cls-9" d="M608.37,52.92c-4.08-3.25-1.43-6.9-.42-10.27,2.9-9.73,6-19.4,9.1-29.09.44-1.4,1.56-3,.27-4.18-2-1.79-3.42.24-4.61,1.39-8.14,7.82-16.42,15.52-24.19,23.69-13.22,13.9-26.14,28.09-39.1,42.25-3.54,3.86-5.95,4.56-7.22-1.57-1.36-6.6-4.09-12.93-4.07-19.82-1.12-2.35.11-2.72,2.07-2.47.27.7.49,1.42.8,2.11,2.27,5-.44,13.63,4.9,15.17,5.9,1.71,9.83-5.68,13.68-10.11A599.34,599.34,0,0,1,609,8.85c4.14-3.76,10.37-10.4,13.32-8.52,5.06,3.23,0,10.07-1.46,15.08C617,28,612.56,40.43,608.37,52.92Z"/><path class="cls-18" d="M631.09,799c.2-1.33.41-2.67.61-4,18,26.79,47.26,35.91,74.83,47.39,9.28,3.86,19.62,1.62,28.76-1.83s17.06-1.54,24.36,3.64c7.45,5.28,15.68,8.77,23.93,12.34a2.78,2.78,0,0,1,.32,3.06c-10.36,3.51-17.58-3.52-25.34-8-7.38-4.24-14.42-7.93-22.81-3-12.92,4.23-25.41,4.51-38-1.86-16.63-8.38-35.27-12.45-50.65-23.58C642.23,814.83,631.86,810.1,631.09,799Z"/><path class="cls-13" d="M763.07,405c-1.81-3.36-4.2-7.47-1-10.35,3.67-3.35,7.6.31,11.26,2,4,1.81,6.63,9,10.18,6.65,2.85-1.89-1.52-8.05-2.55-12.31-5-20.81-10.36-41.52-15.89-62.19C761.61,316,764,312.08,777.4,312.27c8,.11,16.36-3.42,24.09,1.5-8.15,1.48-16.26,3.7-24.47,4.23s-9.3,4.67-7.81,11.22c2.34,10.28,4.26,20.68,7.24,30.77,5,17,8.29,34.49,16,50.59.71,1.47,2.7,3.47.7,5-1.8,1.39-3.41-.63-4.82-1.65-5.5-3.95-10.84-8.13-16.39-12-3.79-2.66-7.05-3.22-7.11,3.11C764.26,406.09,763.66,406,763.07,405Z"/><path class="cls-19" d="M129.71,413.56c-9.13-12.15-18.33-24.25-27.36-36.47-2.41-3.27-4.3-6.92-6.42-10.39-.94-2.13.39-2.8,2.08-3.24,8.65,5.51,13.5,14.37,19.53,22.2A39.14,39.14,0,0,0,123,393c24.34,31.79,53.82,58.54,83.13,85.47,2.49,2.79,5.52,5.21,6.33,9.16a2.79,2.79,0,0,1-1.61,2.5c-9.12-.68-13.89-8.27-20.3-13.13-5.07-3.85-9-9.07-13.89-13.25-5.95-4.15-11.11-9.17-16.2-14.28-9.19-9.84-19.45-18.64-28.05-29C131,418.33,128.65,416.62,129.71,413.56Z"/><path class="cls-20" d="M524.8,728l2.68,2.23C504,737,479.77,736,455.83,736.57c-13.91.35-25.42.2-35.47,13.23-7.72,10-20.7,15.91-31.35,23.64a4.1,4.1,0,0,1-4.7.33c-2-5.3,2.18-7.32,5.37-9.41,4.61-3,9.13-6.17,13.47-9.59.89-.76,1.79-1.48,2.68-2.25.43-.42.87-.81,1.3-1.24,13.47-18.42,30.29-25.83,54-22.84,17.21,2.18,35.27-1.81,53-2.08C517.83,726.31,521.7,724.62,524.8,728Z"/><path class="cls-21" d="M291.13,243.9l-2.57,2.2c.93,6.15,7,4.24,10.41,6.37,11.14,6.91,23,12.49,34.4,19.07,19.38,10.34,36.76,23.74,54.88,36a21.38,21.38,0,0,1,4.41,3.53c3.45,4.07,11.6,8.22,7.14,13.29-4.06,4.62-8.59-3.32-12.49-6.16q-26.12-19-53.86-35.49c-3.36-1.8-6.69-3.67-9.92-5.7-18.22-10.76-37.08-20.29-56-29.67-4.26-2.11-9.4-3.43-11-8.94.54-2,1.66-2.88,3.73-2.11C270,240.91,280.45,242.9,291.13,243.9Z"/><path class="cls-22" d="M361.48,927.43l0-4.11c1.07-6.27,5.09-2.15,7.45-1.75,14.06,2.36,26,10.6,39.45,14.71a25.07,25.07,0,0,1,2.87,1.12c1.82.81,3.69,1.53,5.56,2.24,4,1.32,5.8,5,8.35,7.88.84,1,1.41,2.1,2.14,3a4.5,4.5,0,0,1-.79-1.12c-.77-1.94-2.47-3.19-3.27-5-2.41-15.14-.47-20,10.52-26.4a4.25,4.25,0,0,1,3.09.9,6,6,0,0,1,.66,3.11,7.12,7.12,0,0,1-1.39,2.74,20.47,20.47,0,0,0-2.5,3.78c-2.14,6.72-2,13.25,1.38,19.55.6.78,1.16,1.6,1.75,2.39.33.36.63.75,1,1.12.7.69,1.36,1.43,2,2.16.36.35.69.72,1.05,1.07,3.63,4.72,9.83,7.6,10.47,14.49a4.18,4.18,0,0,1-1.58,2.56c-14.76-5.28-24.73-18-37.8-25.2C396.3,938,379.58,930.36,361.48,927.43Z"/><path class="cls-23" d="M386.92,796.46c-.34,2.12-1,6-3.39,3.93-8.29-7.21-7.12,1.2-7.28,4.51-.68,13.8-.48,27.64-1.08,41.45-.18,4.16,2.58,5.93,4.53,8.52.56,4.51-2.63,9.11.37,13.57.57,3.56,2.93,8.21-2,9.76-4.63,1.47-6-3.52-7.76-6.64-2.93-5.11-2.64-10.85-3-16.51-1.34-20.41,3.07-40.59,2.26-61-.24-6.19-.22-12.55-8.84-13a3.18,3.18,0,0,1-2.56-2.22c3.71-10.78,8.73-12.06,15.95-3.84,4.16,4.75,7.55,10.14,11.79,14.85C387.27,791.9,387.89,794.06,386.92,796.46Z"/><path class="cls-24" d="M540.2,52.85l-2.07,2.47c-3.39-3.3-1.07-9-5.16-12-3,4.32-3.11,9.42-3.88,14.36-2.27,14.42-6.41,28.47-8,43.08-.57,5.29-.09,9.3,3.21,13.15-4.81,10.17-9.44,20.51-22.35,22.65l-1.62-1.8c10.25-9,15.87-19.51,16.88-33.88,1.5-21.37,7.49-42.19,12-63.15.47-2.14.31-5.19,3-5.48,3.16-.33,4.3,2.59,4.88,5.21C538.26,42.53,539.19,47.7,540.2,52.85Z"/><path class="cls-25" d="M504.3,320.88c-.14,2.91-4.84,1.21-4.34,4.18.1.58,3.23.66,5,1-1.08,5.19-10.06,9.51-.31,16,4.08,2.72-1.67,12-9.25,15.29l-2.66-.18c1.12-1.94,2.17-3.92,3.37-5.82,2.6-4.11,3.7-7.31-3.3-5.41-6,1.63-5.2-.76-3.54-5,6-15.27,5.8-15.17-7.66-23.94a77.17,77.17,0,0,1-12-10.15c-17.23-17.15-18.44-24.34-8.46-47.5a5,5,0,0,1,3.6,3c.73,10.51-5.71,21.7,3,31.47,1.87,3.13,4.37,5.78,6.65,8.59C482.06,312.27,493.81,315.55,504.3,320.88Z"/><path class="cls-26" d="M783.3,859.47c.1-1,.19-2,.28-2.92,17.38-.5,19.11,13.23,22.79,25.18,1,2,0,3-1.87,3.56-4.54-.69-6.6-4.57-9.51-7.37-2.11-2-4.18-5-7.57-3.24s-3.52,5.49-3.16,8.89c.57,5.3,4.79,8.21,8,11.82,2.87,3.23,7.75,5,7.91,10.29-.64,1.72-1.54,3-3.61,1.86-5.93-7-15.94-1.52-22.28-7.29-.09-3.38,9.09-.15,4.67-6.6-5.84-2.41-5-7.6-5.2-12.38,3.51-14.14,7-17.3,18.21-16.51,1.28.78-.36-.35.92.46a18.5,18.5,0,0,1,1.69,1.21c-.31-.49-.9-.62-1.28-1C790.57,862.37,784.74,864.63,783.3,859.47Z"/><path class="cls-27" d="M578.9,861.72c.82.64,1.65,1.27,2.48,1.9-9.32,6.21-17.77,14-29.13,16.56-1.62,1.16-2.54.09-3.43-1.07-1.81-4.08-6.09-5.91-8.6-9.36-1.8-2.46-4.08-4.81-2-8.21-.31-16,12.43-23.17,22.3-31.82,6-5.27,13.78-.34,20.76-.25a2.8,2.8,0,0,1,.28,3.3c-2.91,2.47-6.46,2.33-9.93,2.46-9.48-1.22-13.79,5.5-18.27,12-1.19,1.43-2.56,2.69-3.79,4.09-3.92,4.46-5,9.31-.75,14,4,4.36,8.75,4.5,14.2,2C568.07,864.89,572,858.94,578.9,861.72Z"/><path class="cls-28" d="M828.58,205.14c-13.59-7-13.9-11.59-1.49-19.86,6.53-4.35,12.66-9.36,20.16-12.11,1.33-.48,3-1.25,2.52-3.11s-2.39-1.16-3.72-1.42c-4.27-.85-9.07,1.32-12.86-2.27l-.09.12c9.07-2.24,18.21-1.19,27.33-.6,2.85.16,7.33-1.25,8,1.72.8,3.75-4.15,3.28-6.62,4.45-10.34,4.95-21.4,8.19-30.32,16.22-8.28,7.46-8.77,6.91-.38,14.23C831.64,204.72,831,205.79,828.58,205.14Z"/><path class="cls-29" d="M377.31,866.4c-5.25-5.1-.58-8.14,2.39-11.53,14.88,4.55,21.8,13.94,17.95,29.79-1.32,5.45,1.8,8,5.84,10.75,10.12,7,22.23,6.18,33.3,9.35-1,2.19-3,3.23-5.05,4.1a15,15,0,0,1-8.11.32c-2.06-.5-4.1-1.09-6.18-1.48a34.87,34.87,0,0,1-4.62-1.1c-8.71-2.81-16.87-6.8-23.77-12.83-3.78-3.3-8.91-6.63-.92-12.07,4.86-3.32,1.54-9.11-.51-13.45C385.25,863.22,381.36,863.64,377.31,866.4Z"/><path class="cls-30" d="M828.58,205.14l2.49-2.63c28.92,14.05,60.72,18.42,91.18,27.28l-5.06,1.94c-2.63,2.38-5.7,1.53-8.59,1-12.94-2.55-25.77-5.6-38.63-8.47-3.67-.82-7.37-1.89-9.37-5.64Z"/><path class="cls-31" d="M431.84,906.87l5-2.11c10.62.59,15.82,8.06,20.45,16.23,1.33,3-.34,6.56,1.58,9.5a9.05,9.05,0,0,0,.73,6.4,2.38,2.38,0,0,1-.63,2.83,4.69,4.69,0,0,1-3.09-.25c-5-4.39-8.26-10.49-13.91-14.25-2-1.42-4.35-2.5-5.71-4.74a5.06,5.06,0,0,0,.13-1.17C445.84,911.17,432.46,911.33,431.84,906.87Z"/><path class="cls-32" d="M98.12,364.21l-2.19,2.49c-14.25-17.64-22.18-38.46-29.84-59.43a2.33,2.33,0,0,1,.71-2.85,4.64,4.64,0,0,1,3.13.38c6.39,7.33,7,17.47,12.17,25.37.71,1.35,1.37,2.74,2.05,4.11,1.74,3.63,3.46,7.28,5.54,10.74C92.55,351.39,99.08,356.16,98.12,364.21Z"/><path class="cls-33" d="M844.61,89.45c1.88,2.48,4.8,1.3,7.13,2.07,4.76,1.55,2.06,3.11-.31,4.47a289,289,0,0,1-36,.92c-7.83-.63-16.25,2.46-23.22-3.66-.49-4,2.47-4.18,5.13-4.71Z"/><path class="cls-34" d="M184.45,223c1.37-4.71,4.83-6.44,9.39-6.53,13.22-.25,26.45-.58,38.36,6.72.52,3.45-2.07,3.78-4.37,4.41-11.7-.45-23.13-6.06-35.08-1.86-1.08.26-2.17.43-3.26.59a12.87,12.87,0,0,1-3.28.11C184.61,225.86,183.18,225.14,184.45,223Z"/><path class="cls-35" d="M168.42,493.72l-2.25,2.73c-11.26-14.2-22.25-28.57-29.67-45.3-.89-2,.08-3,1.84-3.58,4.77,1.11,6.15,5.6,8.79,8.83,1.11,1.78,2.08,3.65,3.12,5.47,4.15,7,8.9,13.59,13.61,20.22C166.28,485.48,170.37,488.5,168.42,493.72Z"/><path class="cls-36" d="M463.28,261.83l-2.16-2.5c3-10.9,9.11-20.36,14.26-30.21,4.68-9,12.7-10.7,22-7.5.91.24,1.25.56,1,1s-.49.69-.76.69l0,0c-2.53,2.84-6.44,2.29-9.45,3.92a18.28,18.28,0,0,0-3.44,2.76,154.84,154.84,0,0,0-15,25.35C468.11,258,466.89,261.1,463.28,261.83Z"/><path class="cls-37" d="M804,884.48l2.33-2.75c7,10,9,21.23,8.29,33.19-.29,5.05-1.92,6.31-6,2.76s-8-6.76-12.08-10.14l2.73-2.71c6.21,1.11,10.05.46,7.05-7.56C804.83,893.29,801.46,889.31,804,884.48Z"/><path class="cls-38" d="M82.59,270.92l-2.38,2.37c-13.83-7.73-23.6-19.08-29.82-33.6-1-2.12.09-3.05,2-3.54,4.11.79,6.05,4,7.88,7.25,4.11,7.21,10,12.79,16.25,18C79.49,263.88,83.76,265.71,82.59,270.92Z"/><path class="cls-39" d="M148.18,517.21l.09-3c12.94,3.76,24.83,10.18,37.37,14.94,2.28.86,4.77,4,7.73,1,4.61,1.91.69,4.31.36,6.51-5.37,2.45-9.66-1-14.3-2.59-6.92-3.54-14.34-5.86-21.42-9C154.11,523.37,149.31,522.52,148.18,517.21Z"/><path class="cls-40" d="M456.83,939.09h2.28c1-.58,1.65-.28,1.84.89.23,9.93,4.22,19.74.23,29.81-3.32,8.38-4.5,8.74-11.48,2l.39-3.45c6.63-2.91,6.32-8.72,6-14.53C456.56,948.92,454.48,943.89,456.83,939.09Z"/><path class="cls-41" d="M245.83,952.84c3.32,3.6,7.8,1.41,11.66,2.36-11.94-.3-19,7.09-25.68,15.69-4.31,5.55-8.17,3.48-10.6-2.35,4-4.23.56-9.75,2.46-14.35,3.14.75,3.66,3.43,4.4,5.93,2.24,4.76,4.06.8,5.81-.4C237.68,957.1,239.76,951.53,245.83,952.84Z"/><path class="cls-42" d="M581.44,832c-.06-.84-.11-1.67-.16-2.5,5-4,12.36-5.42,13.9-13.09l2.7-.18a2.46,2.46,0,0,1,3.08,1.26c2.37,7.37,2.57,14.32-3.92,19.94C591.81,835.69,587,832.76,581.44,832Z"/><path class="cls-43" d="M52.62,237l-2.23,2.72C43,230.87,43.24,220.41,44,209.86a10.69,10.69,0,0,1,6.58-9.65l.25,3.13C51.47,214.55,52.71,225.72,52.62,237Z"/><path class="cls-44" d="M138.89,448.3l-2.39,2.85c-5.56-7.71-7.41-16.92-10.37-25.68-1.63-4.84.21-8.6,3.58-11.91l4.85,5.29c-2.68,6.13,1,11.37,2.28,17C137.78,439.92,141.42,443.62,138.89,448.3Z"/><path class="cls-45" d="M797.3,88.54c-1,2.31-3.09,2.91-5.34,3.16a2,2,0,0,1-2.45-.8c-.47-2.72,1.19-4.89,1.74-7.32,0-2-2.1-3.58-1.14-5.74,6-2,12.26-2.06,18.52-1.7C807.86,83,799.53,83,797.3,88.54Z"/><path class="cls-46" d="M790.11,77.84c-.49,3.63,9.37.22,4.58,6.77-7,0-13.56,2.59-20.45,3.08-3.86.27-8,2.3-11.46-1.23l-5.08-2.22C768.31,81.1,779.19,79.39,790.11,77.84Z"/><path class="cls-47" d="M227.4,225.65c1.86-.29,4,0,4.8-2.42a174.48,174.48,0,0,1,28,13.07l-2.92,2.21C246.12,237.06,235.33,234.7,227.4,225.65Z"/><path class="cls-48" d="M538.22,861.54c-.53,3.73,3.38,4.71,4.56,7.38-4.55,8.3,2.79,7.71,7,9.43l2.44,1.83c-3.73,2.57-6.33,8.5-12,5.77-5.1-2.46-4.6-8.22-4.84-12.94C535.23,869.06,534.61,864.69,538.22,861.54Z"/><path class="cls-49" d="M68.79,305.06l-2.29,0c-1,.65-1.49.41-1.63-.74-1-9-5.82-18.19,1.74-26.6L68.82,280C70.09,288.35,71.58,296.71,68.79,305.06Z"/><path class="cls-50" d="M386.92,796.46c-.82-1.82-.79-4.11-2.91-5.19-2.6-6.14-5.12-12.27.46-18.2l4.54.37C387.64,781.05,390.15,789,386.92,796.46Z"/><path class="cls-51" d="M778.28,466.54l-2.09,2.25c-3.33-7.32-4.65-15.17-6.09-23a2.52,2.52,0,0,1,2.36-.84l1,.88Z"/><path class="cls-52" d="M612.76,734.65l-3.72-2.2c-1-8,1.21-14.43,8.55-18.52.77.81,1.54,1.61,2.3,2.42Q616.34,725.5,612.76,734.65Z"/><path class="cls-1" d="M860.43,165.89l-27.33.6a7,7,0,0,0,.3-2.07C842.46,163.89,851.52,163.49,860.43,165.89Z"/><path class="cls-53" d="M218.32,262.32c4.64,2.82,10,4.72,13,9.7-6-.67-10.69-4.1-15.34-7.57Z"/><path class="cls-54" d="M769.75,436.8a28.52,28.52,0,0,1-4.21-15.87c.71-1.08,1.5-1.13,2.35-.15,2,2.76,1.81,6,2.27,9.18.85,1.84.63,3.77.49,5.7Z"/><path class="cls-55" d="M767.89,420.78l-2.35.15c-.7-5.31-3.34-10.33-2.47-15.89h1.79C766.43,410.18,768.52,415.21,767.89,420.78Z"/><path class="cls-56" d="M184.45,223l2.48,2.53a7.8,7.8,0,0,1,3.45,7.76,2.24,2.24,0,0,1-2.1,1.69C183.68,232.09,180.27,228.79,184.45,223Z"/><path class="cls-57" d="M309.13,927.41c3.89-1.26,7.77-2.29,11.63.06A22.7,22.7,0,0,1,309.13,927.41Z"/><path class="cls-58" d="M497.6,223.29a1.71,1.71,0,0,1-.26-1.67c3.13-.64,2.13-3.31,2.59-5.27a1.41,1.41,0,0,1,2.21,0C501.55,219.26,503.82,224.06,497.6,223.29Z"/><path class="cls-59" d="M706,911.82l2.41,0a16.71,16.71,0,0,1,0,9.09c-2-1.13-2-3.33-2.59-5.16A3.08,3.08,0,0,1,706,911.82Z"/><path class="cls-60" d="M771.6,445.89a8.39,8.39,0,0,1-1.5-.08l-.35-9-.12.15c.55-1,1.23-1.05,2-.29l.69,4.76C773.08,443.08,773.48,444.67,771.6,445.89Z"/><path class="cls-10" d="M193.14,239.65a8.92,8.92,0,0,1-4.86-4.63.94.94,0,0,0,1.1-1c4.05-.9,5.81.46,4.65,4.72Z"/><path class="cls-61" d="M502.14,216.33l-1.1.23-1.11-.21c-.14-1.31-.27-2.62-.4-3.92l2.35-2.84a4.65,4.65,0,0,1,1.73,2.58,4.78,4.78,0,0,1-1.58,4.28Z"/><path class="cls-62" d="M332.15,743.49l2.23,0c-.17,2.31-.34,4.61-.5,6.92C331.21,748.66,331.48,746.12,332.15,743.49Z"/><path class="cls-1" d="M771.66,436.66a6.31,6.31,0,0,0-2,.29q.25-3.49.53-7A7.74,7.74,0,0,1,771.66,436.66Z"/><path class="cls-1" d="M771.6,445.89l.75-4.47a4.3,4.3,0,0,1,1.13,4.43l-.93.13Z"/><path class="cls-63" d="M64.87,304.34a4.39,4.39,0,0,1,1.63.74,18,18,0,0,0-.41,2.19A2.4,2.4,0,0,1,64.87,304.34Z"/><path class="cls-64" d="M708.24,894.22c-1.39-1.09-1.3-2.12.1-3.11C708.31,892.14,708.27,893.18,708.24,894.22Z"/><path class="cls-65" d="M724.36,423.22l.18,6.95c0,.56-.09,1.13-.13,1.7-.48,4.65.45,9.22.71,13.85.17,9.84.52,19.68-.18,29.49-.24,3.38-.73,7.24-5,7.9-3.33.52-5.45-2.05-7.31-4.53a11.89,11.89,0,0,1-1.25-1.89c-2.32-4.86-6.13-9.18-5.44-15.13-2.11,5.34-1,11.12-2.36,16.6-6.39,24.9-9.15,50.51-14.68,75.58-.79,3.59-.53,8.39-5.46,8.65-4.3.22-5.07-4.14-5.67-7.35-4.18-22.61-7.64-45.35-12.73-67.79a9.71,9.71,0,0,1,.83-5.53c4.43-2.91,7.06-5.68,6.26-12.35-4-33.75-17.21-65-26-97.39-.61-2.22-.86-6-4.26-5.61-2.25.28-2.15,3.64-2.93,5.69-1.82,4.74-1.68,9.61-1.06,14.56.43,3.5,0,7.1-3.58,8.86-4.14,2-6.27-1.34-8.23-4-4.91-6.66-11.17-12.15-14.83-19.94-4.83-10.29-9.83-12.22-21.23-9-10.78,3.08-20.18,2.8-27-7.62l4.93-2.14a3.57,3.57,0,0,1,1.93-1.55l2.14-.85a14.46,14.46,0,0,0,2.53-2.16l0,0a7.21,7.21,0,0,0,2-2.84,2.74,2.74,0,0,1,.8-1.81,4.49,4.49,0,0,1,1.74-1.92l.16-.2c.6-.89,1.35-1.67,2-2.55l.82-2.18a5,5,0,0,1,1.52-2.12l.68-2.42a7.6,7.6,0,0,1,1.55-2.25l.67-2.29c.47-.87,1-1.72,1.49-2.55l.71-3.94c4.56,3.66,2.15,10.81,6.2,14.09,8.45,6.87,18.89,10.42,28.66,15,1.1.52,3.1,0,4.31-.7,4.07-2.33,7.79-8.71,12.59-5.19,7.68,5.63,17.83,8.75,21.94,18.6,2.75,6.6,5.64,13.19,7.73,20,4,13,11.47,23.61,20.87,33.08C705.17,430.22,707.5,430.71,724.36,423.22Z"/><path class="cls-66" d="M790.2,91.27l1.76.43c7.38,4.16,15.5,1,23.16,2.36,4,5.29,13.89,6.36,11.48,16.2l-2.26,1.68q-1.22.94-2.46,1.83l-4.12,2.92c.55-12.63-16-20.89-30.49-14.51-9.94,4.37-20.18,9-28.64,15.57-17,13.27-37.35,20.48-54.78,32.77-4.29,3-8.48,6.3-13.09,8.76-19.16,10.26-26.85,26.11-23.91,47.49a9,9,0,0,1-1,4.31c-1.37,3.31,1.2,9.7-3.06,9.65-4.11,0-.88-6.24-2.27-9.41-2.2-2.33-2.12-5.13-1.66-8a30,30,0,0,0,.55-15.47,8.26,8.26,0,0,1,.69-5.3,5.2,5.2,0,0,1,1.37-1.43c-.06,0,.72-.4.63-.42a2.24,2.24,0,0,0-1.87.75c-17,8.76-35,15.09-51.76,24.4-17.05,9.49-19.69,21.18-7.18,37,.91,1.16,2.2,2,2.79,3.46,10.17,4.27,20.82.74,31.17,2,2.35.28,7-1.91,5.23,4-2.21,7.24-23.15,19.45-31.84,18.56,0-.75.21-1.76-.18-2.22C597.73,256,588,242.08,575.7,231c-6.74-6.09-14.8-10.51-20.54-18.29-6.78-9.21-13.75-20.09-28.55-12.54-3.17,1.62-5.2-2.2-7.29-4.21-6-5.73-11.86-11.58-17.87-17.28-1.18-1.12-2.38-3.64-4.36-2-1.49,1.25.64,2.49,1.35,3.63,1.77,2.88,2.48,6.53-1,7.51-3,.85-3.41-3.46-3.82-5.71-1.9-10.57-10.49-21.06-.74-31.9,5.89,4.43,7.55,12,12.9,17,26.86,25,57.33,31.46,91.91,19,47.77-17.18,92.08-41.47,136.22-66.1C752.36,109.87,770.93,99.9,790.2,91.27Z"/><path class="cls-67" d="M860.6,218.58l56.59,13.15c5.57,2,11.78,1.78,17,4.87-4.71,5.3-11.48,6.63-17.74,7.94-19.55,4.09-37.51,14.18-57.82,15.27L856,261.19l-4.63.57a57.22,57.22,0,0,1,.12-6.81c1.58-12.49.94-13.56-11.39-13.44a87.29,87.29,0,0,1-19-2.34c-1.74-.37-4.31.31-4.63-2-.4-2.94,2.66-3.85,4.52-4,6.74-.59,13.54-.8,20.32-.74,6.44.06,12.27.09,12.69-8.79C854.15,220.1,857.31,218.84,860.6,218.58Z"/><path class="cls-68" d="M604.09,246.33c-4.93-.1-8.19-1.18-9.08-7.36-1.21-8.44-7.39-17.68-5.25-24.66,2.27-7.36,14.12-8.34,21.4-12.72,16.5-9.94,34.86-15.66,52-24.14,2.17-.38,3,.47,2.42,2.63l-.16.09c-1,.67-1.77,1.59-3,1.87-2,1.24-1.74,3-1.2,4.9a41.21,41.21,0,0,1,.13,15.73c-.28,2.88-.55,5.77-.83,8.65a6,6,0,0,0-2.06.61c-3.93-4.57-3.62-10.47-4.68-15.86-1.17-6-4-5.83-8.77-3.92-19.93,8-20,7.95-19.83,31.25a5.92,5.92,0,0,1-.1,2.19c-3.57,9.18-1.49,15.67,8.62,18.39C624.12,248.26,613.92,245,604.09,246.33Z"/><path class="cls-69" d="M622.58,223.23c-1.63-6.21.88-12.79-1.76-19-1.23-2.85,1-4.09,3.09-5.06,8.47-4.07,17-8,25.49-12.07,5-2.43,6.77-.36,7.13,4.58.5,6.75,1.28,13.47,1.94,20.21l-1.89,4.95c-1.89-3.28-3.26-4.08-6.74-.83C642.25,223.13,633.3,227.09,622.58,223.23Z"/><path class="cls-70" d="M622.58,223.23c10.65-1.52,21.4-2.39,29-12,2.81-3.56,3.55-3,5,5.61-.21,9.9-3,18.89-9.44,26.55-2.86,2.3-5.92,1.46-9,.57l-4.45,0-14.55-1.19q1.15-6.47,2.3-12.91C621.85,227.66,622.21,225.45,622.58,223.23Z"/><path class="cls-68" d="M638.16,244l9-.57C644.32,246.35,641.32,246.38,638.16,244Z"/><path class="cls-71" d="M617.59,713.93,609,732.45c-7.68,8.26-5.1,16.47.15,24.64.86,1.34,1.59,2.77.2,3.91-.37.31-2.06-.67-2.92-1.34-4.47-3.46-8.91-6.95-13.28-10.52-4-3.27-6.64-3.32-7.12,2.69-.15,1.88-.5,3.74-.76,5.61-.64,4.62-1.78,7.77-6.34,2.46-2.45-2.85-5.11-5.53-7.72-8.24-1.25-1.29-2.29-3-4.56-2.54-9.35,1.92-24.84-7-28.12-15.86-1.15-3.1.24-4.07,2.59-4.9,2.83-1,5.66-2,8.5-3,.86-1.18,2.66-1.24,3.28-2.71-1,.61-2.15.37-3.24.36l-24.9,5c-25,3.23-50.2,2.94-75.31,4.33-2.24.13-5,.71-6.68-.31-8.88-5.43-13,.26-17.89,6.39-5.09,6.41-10.87,12.37-18.06,16.62-5-.91-7.17-5.17-10-8.62-15.4-18.9-33.65-29.39-59.29-23.36-4.43,1-3.4,4.23-5.88,5.14-5.06-19.29-2.94-38.67-.64-58.05.16-1.42.14-2.87.21-4.31-2.31-.08-3.11,1.55-3.65,3.35a29,29,0,0,0-1,4.4c-.91,6.66-3,5.22-6.49,1.37-14.24-15.68-26-33.07-36.7-51.3-1.51-2.58-3.27-5-4.92-7.51q-2.87-7.26-5.75-14.5c6.12-.7,10.09,3.89,14.74,6.4,28.9,15.61,60.06,21.94,92.44,21.62,11.64-.12,19.61,3.16,27.43,11.61,35.74,38.63,81.66,55.11,132.82,59.51,5.68,2.55,11-.57,16.44-1.17,8.59-.94,16.95,1.42,25.47,1.23,6.25-.92,12.5-1.91,18.77-2.7,1.26-.16,2.61.44,3.93.69-1,1-1.86,2.35-3.07,3-7.34,3.61-14.76,7-22.15,10.54-.52.69-1.64,1.36-.55,2.26.8.66,1.88.29,2.82,0,11.88-3.62,22.57-9.66,33.07-16.13,1.64-1,3.2-4.11,5.46-1.71.9,1,.49,3.51.15,5.24C619.71,706,618.59,710,617.59,713.93Z"/><path class="cls-72" d="M168.42,493.72c-6-11.1-15.53-20-20.42-31.79,5.22-4.4,9.86-.47,14.29,1.43,5.58,2.4,10.49,2.59,15.27-1.41,8.91,7.72,17.8,15.46,26.75,23.13,2.18,1.88,4.05,4.49,7.52,4l-.08.08c-1-4.07-5.65-5.24-7.09-9,1.68-3.51,4.66-3.34,7.74-2.68,6.26,1.32,12.72,2.13,18.4,5.32,18.92,10.63,39.77,16.14,60.08,23.09,10.48,3.59,21.54,3.7,32.33,4.67,16.85,1.52,33.71,3.3,50.58,4.43,21,1.4,41.16-4,60.82-10.56,11.68-3.92,22.69-9,32.74-17.18,24.11-19.63,28.39-45.82,27.91-74.18-.11-6.81-1.83-13.92,6.78-17.12,5.89,6.53,8.74,13.67,4.88,22.39-.7,1.6-1.13,3.73.6,5.06.39.3,2.13-.54,2.74-1.28,6-7.18,6,.47,7.41,3.18,13,25.1,7.7,49.19-4.3,72.84-10.89-7.11-17.4-5.81-20.55,6.51C488.15,522.94,473,530.54,460,540.29c-4.45,3.33-9.66,5.64-13.74,9.73-10.69,10.73-25.54,11.56-38.88,13.54-18.25,2.71-35.77,9.21-54.37,9.8-5.27.16-10.79,1.61-15.74-.06-21.14-7.13-43.43-4.36-64.87-8.17-11.83-2.1-17.35,3.8-22.06,12.62-25.79-17.75-45.89-41.33-66.06-64.84C178.89,506.62,173.71,500.12,168.42,493.72Z"/><path class="cls-73" d="M250.35,577.75c.67-15.22,1.71-17.43,16.75-15.57,22.59,2.78,45.75-.25,67.89,7.66,12.42,4.43,26.07.83,37.71-2.29,19.21-5.14,39.25-5.75,58-12.38,2.46-.86,5.66-.78,7.39-2.37,14.27-13.09,32.32-21.23,45.83-35.27,1.81-1.89,4.65-3.73,4.21-6.41-1.46-8.89,5.19-13.51,9.25-19.61,2.13-3.19,4.46-5,8.29-4.43,4.17.65,5.2,3.64,5.62,7.34.15,1.32,1.35,2.52,2.07,3.77.2,5.86,1.59,8.16,6.8,2.88,2.78-2.82,6.05-8.36,9.52-6.51,3.68,2,0,7.45-.5,11.27-4.6,34.83-17.17,65.43-47,86.59-2.07,1.47-4.58,2.77-5.12,5.72-19.33,10-38.5,20.12-60.46,23.88C354.33,632.68,298.72,619.09,250.35,577.75Z"/><path class="cls-74" d="M678.91,636.71c-11.53,13.47-24.39,25.54-37.74,37.2-18.48,16.14-40.75,21.63-64.13,24.59a43.71,43.71,0,0,1-27.55.13,253.33,253.33,0,0,1-95.2-25.79c-19.36-9.64-35.7-23.61-50.2-39.71-3.15-3.49-1.21-4.52,1.91-5,6.31-1,12.66-1.72,19-2.56,23.63,1.83,46.55,8,70,11.24,28.25,3.9,56,5,83.58-3.87,7.49-2.41,15.69-2.94,23.15.67,3.67,1.77,1.54-1.83,2.7-2.15,2.55-1.84,5.51-2,8.46-2.27,2.48-.15,5-.14,7.43-.09,7.9-.09,15.86,1,23.68-1,12.72-2.91,25.58-5.3,37.69-10.49,3-1.26,6.11-3.35,9.28-.25C690.72,626.16,685.79,632.05,678.91,636.71Z"/><path class="cls-75" d="M202.56,541.67c18.44,18.9,38.7,35.68,59.7,51.61,3.79,2.87,6.91,7.09,5.53,11.54-1.59,5.12-7.14,2.49-11,2.88-14.95,1.54-30.18,1.6-44.83,4.57-21.84,4.43-42-1.62-61.89-8-24.71-8-49.34-16.41-73.06-27.14-18.36-8.31-29.39-24-40-40.13,2.59-7.88,9.42-8.29,15.71-7.9,22.47,1.38,45,1.43,67.44,2.87,21.29,1.37,42.55,3.64,63.79,5.83C190.36,538.44,196.4,540.2,202.56,541.67Z"/><path class="cls-75" d="M275.49,616.36c7,16.64,7.05,14.7-8.47,21-37.76,15.27-76.47,27.77-116.55,35.43-6.58,1.25-13.56.43-20.35.56-7.37-3.63-16.35-3.19-22.83-9.07.57-8.19,7-11.07,13-14.15,21.55-11.05,43.44-21.38,66.41-29.22,20.24-6,41.22-6.22,62-7.76C257.81,612.45,267.38,608.66,275.49,616.36Z"/><path class="cls-76" d="M604.08,632.74c1.32.63,2.63,1.28,4,1.88.93.41,2.68.69,2.71,1.12.12,1.61-1.45,1.13-2.29,1a65.27,65.27,0,0,1-6.65-1.07c-7.84-1.59-15.73-2.25-23.41.41-25.54,8.83-51.66,8.93-77.92,4.91C479,637.76,457.67,633.76,436.3,630c-4-.71-8.18-1.27-11.31-4.39,13.46-3.78,26.81-7.84,38.63-15.67,10.84,11,24.5,14.1,39.35,14.78,16.68.77,32.86-1.94,49-5.26C569,625.35,587.44,625.5,604.08,632.74Z"/><path class="cls-77" d="M551.9,621.42c-25.44,9-51,7.87-77,2.14-8.6-1.9-5.08-11.3-11.31-13.67l11.44-7.51a9.77,9.77,0,0,0,1.78-1.68l.56-.41a3.73,3.73,0,0,1,1.94-1.51c6.65-3,10.88-9.61,18-11.82,14,5.91,25.16,16.62,38.83,23.22C541.91,612.94,549.38,613.92,551.9,621.42Z"/><path class="cls-78" d="M202.56,541.67c-16.76,1.4-33.3-1.86-49.79-3.49-11.88-1.18-24-2.08-35.8-2.94-21.69-1.59-43.61-1.06-65.37-3-5.7-.5-10.3,1.3-14.56,4.72h0c-.65-.81-1.29-1.62-1.92-2.44l-5.46-6.68c.09-.57.18-1.14.25-1.72,3.46-7.71,10.62-6.42,16.63-6,42,2.77,84.86-3.36,125.86,11.13a16.61,16.61,0,0,0,7.78.81l13.52,4.62A19.83,19.83,0,0,1,202.56,541.67Z"/><path class="cls-79" d="M186.72,620.88c6.2,2.36.55,3.31-.68,3.65-22,6.12-41.9,17.07-62.35,26.79-6.56,3.12-12.19,7-16.4,12.93-6.67-2.79-15.36-6-16.08-12.67-.61-5.6,9.25-5.81,14.37-8.18,21.5-9.91,43.87-17.3,67.5-20.27,3.54-2.34,7.87.21,11.46-1.84A3.52,3.52,0,0,1,186.72,620.88Z"/><path class="cls-80" d="M549.49,698.63,577,698.5c1.09,2,3.27,1.78,5,2.38-14,3.6-27.94,2.45-41.91-.06C543.17,699.64,546.87,701.44,549.49,698.63Z"/><path class="cls-75" d="M184.54,621.29c-3.37,3.41-7.58,1.58-11.46,1.84C176.49,620,180.67,621.6,184.54,621.29Z"/><path class="cls-75" d="M35.15,534.54,37.07,537Z"/><path class="cls-73" d="M479.34,598.78c-.11,1.19-.82,1.62-1.94,1.51a9,9,0,0,0-.21-2A10.5,10.5,0,0,1,479.34,598.78Z"/><path class="cls-73" d="M476.84,600.7l-1.78,1.68A1.47,1.47,0,0,1,476.84,600.7Z"/><path class="cls-81" d="M334,280.4c21.39,11.88,41.94,25,60.73,40.8,1.31,1.11,2.8,2,4.21,3,1.59-2.46-.91-3.31-2-4.47a71.67,71.67,0,0,0-13.42-12.06c-17.23-11.4-34.37-23-51.55-34.45,1.54-3,3.34-5.75,6.8-6.82,28.78,10.92,54.55,27.1,79.14,45.38C437,326,456.7,339.33,472.57,357.33q3.26,3.78,6.49,7.57c1.39,1.64,3.88,3.32,2.18,5.65-10.33,14.23,2.55,7.88,7.49,8.64a6.65,6.65,0,0,1,1.91,1.07,6.48,6.48,0,0,1,.9,3.49c1.48,13.92,2.76,27.84,2.3,41.88-1.47,44.45-25.75,70.66-71.28,81.69-40.46,9.79-81.95,7-122.61-.61-38.83-7.26-73.09-25.92-105.55-47.9-23.54-15.95-43.52-35.88-62.6-56.77,2.54-5.05,5.89-9.34,11.12-11.88,2.29-.28,4.31.56,6.3,1.53,9,6,16.55-.19,24.45-2.89,3.53-1.2,1.91-4.38,1.77-6.88-.29-5-2.3-9.5-4.79-13.79a5.82,5.82,0,0,1-.27-3.2c2.08-3.34,5.35-3.24,8.66-3a24.82,24.82,0,0,1,9.75,4.39,39.71,39.71,0,0,0,5,3c.9.4,1.77.86,2.64,1.33,6.52,5.73,13.22-2.26,19.77.26l15.56,7.19a12.88,12.88,0,0,0,3.09.9c1.81.32,3.29,1.4,4.92,2.14-1.46-1.2-3.33-1.9-4.38-3.6-10.11-8.79-23.49-12.67-33.13-22.16,3.41-3.82,7.07-1.81,10.71-.48,1.47.66,2.89,1.42,4.31,2.16,1,.42,1.88.9,2.8,1.38,12.33,4.4,13,3.93,13.14-9.27a4.47,4.47,0,0,1,2.72-4.33,8.24,8.24,0,0,1,3.09-.14c2,.45,4,1.11,5.94,1.75,6.78,2.56,12.8,6.47,18.69,10.61a38.05,38.05,0,0,0,5.16,3.12c.94.41,1.85.89,2.76,1.37,3.74.91,7.36,6.29,10.64,2.9,1.73-1.79-2.67-6.44-4.69-9.51-6.31-9.6-16.45-16.44-18.55-29.13-1.53-9.31-.43-12.53,8.93-11.29,6.7.89,9.8-1.3,11.74-7,15.43,7.35,28.71,18.14,43.07,27.2a9.93,9.93,0,0,0,3.2.9,8,8,0,0,1,4.38,3.27c-.93-1.89-2.87-2.9-4-4.61-.42-.62-.9-1.21-1.32-1.83l-42.65-29.89c2.4-4,2.82-7.85-1.05-11.3-.76-.72-1.46-1.48-2.19-2.24s-1.57-1.55-2.32-2.36c-2.49-3.16-6.74-6.31-4-10.63,2.94-4.69,8-2.46,12.33-1.57a31.22,31.22,0,0,1,8.42,2.94,31.66,31.66,0,0,0,26,3.2C324,279.33,329.14,280.55,334,280.4Z"/><path class="cls-82" d="M563.13,355c10.2,8.18,20.67,7.28,32.51,3,7.82-2.82,15.22,2.24,17.47,10.3,2.91,10.46,13.4,15.1,17,24.75a2.32,2.32,0,0,0,3.73,1c1.62-1.27,2.6-3.4,1.83-5-4.09-8.57.22-16.13,2.31-24,.67-2.5.22-6,3.56-6.16,3.1-.13,3.56,3.52,4.74,5.75,5.84,11.13,8,23.55,11.64,35.4q5.87,18.86,11.54,37.76c3.88,12.81,4.9,26.49,7.06,39.81a5.31,5.31,0,0,1-2.73,5.79c-3.41,1.82-3.94-2.85-6.49-3.13q-3.94,9.34-7.34,18.89c-4.59,7.09-3.43,17.15-11.53,22.42-3.49-1.71-6.58-4.59-11-3.8-4.1-6.63-7.46-5.23-11.63.37a258.26,258.26,0,0,1-26.11,30.54c-2,2-3.49,5.08-7.21,4.3-5.62-3.34-4.67-8.85-4.44-14,.17-3.72.95-7.39-.33-11.09-1.34-3.87-2.32-4.59-5.84-1.24-5.73,5.44-11.76,10.7-18.61,14.82q2.13-31.56,4.25-63.12c.29-4.4,2.62-9.9-1.47-12.72-4.3-3-8.16,2.19-12.23,3.69a19.65,19.65,0,0,0-3.77,2.43,3.5,3.5,0,0,1-.89-.64c-3.56-4.82,2-12.22-3-15.53s-8.22,7.18-14.47,4.09q7.8-25.81,15.6-51.63c1.06-3.5,3.57-7.39,0-10.46-3.88-3.31-6.81,1.06-10,2.39-4.11,1.73-7.52,5-12.25,5.37C519.5,402.89,521,398.91,523,395c2.53-5,5.77-9.69,8.48-14.63,2.6-4.75,5.61-8.46.12-14.74-4.85-5.54.4-12.55,4.75-17.9C544.88,351.6,553.08,356.73,563.13,355Z"/><path class="cls-83" d="M502.74,580.33c7.64-8.43,13.22-18.3,19.45-27.72,3.59-3.9,8.17-6.29,12.74-8.85,7.07-4,14.48-7.19,19.92-14,4.13-5.16,5.74-2.45,4.15,2.91l-.54,16.69c.16,13,2.31,26-1,38.92-.27,1-.17,2.53.76,3.07,2.27,1.31,3.19-1,4.48-2.13,9.2-7.74,15.07-18.64,24.55-26.12,1.22-1,2.44-1.93,3.65-2.91a6.79,6.79,0,0,1,2.76-1.35c4.68,1.31,9.07-1.56,13.71-1a26,26,0,0,1,8.26,3.48c9.61,5.72,10.85,11.43,3.24,20-12.27,13.81-25.69,26.36-43.12,33.59-3.49,1.44-6.6,3.56-10,5.25a11.06,11.06,0,0,1-5.12.83c-20.78-6.09-38.89-17.15-55.74-30.43C501.79,588.08,498.5,584.78,502.74,580.33Z"/><path class="cls-84" d="M132.42,400.51c25.47,23.79,49.38,49.8,80.08,66.85C244.31,485,276.45,502,314.16,505.69c22.9,2.26,45.72,5,68.6,3.62,27-1.65,53.51-4.83,76.93-21.62,20.7-14.83,29.38-34.81,30.8-58.71.73-12.32,1.76-24.91-1.76-37.23-.86-3-1.32-6.85,1.92-9.47a1.37,1.37,0,0,1,2.28.07l0,.06a5.39,5.39,0,0,1,1.65,2.1,2.62,2.62,0,0,1,.78,2c.56.88,1.14,1.75,1.75,2.59a1.61,1.61,0,0,1,.69,1.48,4.71,4.71,0,0,0,2.05,3.08l-.05,0A25.72,25.72,0,0,0,502,396l0,0c-4.47,5.31-3.92,11.19-3.81,17.89.45,27-3.07,52.39-25.4,72.32-27.13,24.2-60.28,32.05-93.73,31.53-43.16-.67-87-3.41-127.71-21.71-13.56-6.09-26.3-14.38-41.45-16.69-2.12-.33-3.57.36-5.28.87-29.83-27-60.17-53.46-83.79-86.48C127.53,391.2,131.09,393.94,132.42,400.51Z"/><path class="cls-85" d="M536.33,347.75c.2,3.89-1.38,7.27-3,10.67s-3.82,6.74,3.1,7.17c5.5.34,3.64,4.34,2,7.35-4.3,7.84-8.35,15.86-13.25,23.31-2.31,3.51-2.17,6-.1,9.05l-.06-.07q-1.32.81-2.58,1.71c-2.32,1.61-4.15,5.64-7.32,3.72-2.88-1.74-1.44-5.4-.51-8.21,2.1-6.39,4.36-12.73,6.46-19.12,3.08-9.36,2-10.8-7.92-11.62-5.73-.47-11.13,1.09-16.62,2.14-3.42.65-7.64.83-9.38-1.5-1.48-2,1.91-5.06,3.46-7.5s3.16-5,4.74-7.53c3.93-1.56,4.42-5.78,6.61-8.67,4-5.27,4.74-9.09-4.05-7.7-3.53.56-5.25.22-2.73-3.79,2.67-4.27,3.6-10,9.73-11.13,4.89-.95,3.85-4.89,3.86-8.07,0-8.26,4.48-15,7.37-22.27,1.93-4.88,5.73-4.78,8.68-1.14,4.39,5.42,9.79,10.73,7.18,18.92-1.07,3.35-.35,6.69-.14,10.06.13,2.18.31,5.83-.78,6.4-16.21,8.48.26,10.73,2.86,15.5A11,11,0,0,0,536.33,347.75Z"/><path class="cls-86" d="M563.32,541.43c3-5.54,5.62-11.45,13-12.58,1.24-.19,2.25-1.91,3.34-2.94,2.62-2.46,5.64-9,6.14-8,2.54,5,7.62,9.59,6,15.86-1.61,6.43-2.42,12.55.76,18.66,0,.6.05,1.2.08,1.81a8.51,8.51,0,0,1-1.08,3.42c-7.59,10.22-16.52,19.3-24.82,28.92-1.86,2.15-4.08,5-7.57,2.93-2.69-1.56-2.39-4.25-2-7,1.1-8.45-.1-17.2,3.39-25.32Q562,549.3,563.32,541.43Z"/><path class="cls-87" d="M560.61,557.16c-.45,8.2-1,16.41-1.29,24.62-.08,2.09-1.24,5.08.88,6.15,3.15,1.6,4.44-2,6-3.77,8.31-9.58,17.48-18.46,24.29-29.29a5.88,5.88,0,0,0,2-2.24l.21-.24c13.77-12.66,24-28.44,36.8-41.95,1.43-1.5,1.12-5,4-4.58s2.25,3.39,2.79,5.47c.45,1.75,1.13,3.44,1.7,5.16,3.59,3,2.82,7.25,2.93,11.16.11,4.06,2.13,2.57,4.11,1.64a4.11,4.11,0,0,1,3,.84c3.39,6.68,0,12.08-3.49,17.26-2.3,3.46-5.41,5.1-8.84,1a14.09,14.09,0,0,1-1.7-2.87A45.54,45.54,0,0,1,630.89,530c0-2.18.77-5.19-1.56-6.19-3.05-1.31-4.65,1.88-6.23,3.72-6.63,7.75-13.22,15.54-19.55,23.55-2.82,3.56-6,6.84-10.27,8.73a1.67,1.67,0,0,0-.73,1.6,8.38,8.38,0,0,1-2,2.68c-11.39,8.8-18.77,21.32-29,31.24-1.34,1.3-2.36,3.42-4.36,3-2.8-.54-2.87-3.31-2.69-5.44,1.26-14.53.57-29.23,4-43.56C559.16,552,558.14,555.05,560.61,557.16Z"/><path class="cls-88" d="M559,532.69l-1.57-2.83c-7.85,13.65-22.67,16.46-35.24,22.75.48-6.31,3.87-10.64,8.13-15.29a199.33,199.33,0,0,0,28.92-40c.75-1.41,1.39-2.83,3.11-2.3.44.14.63,2.09.44,3.12C560.71,509.56,562.56,521.42,559,532.69Z"/><path class="cls-89" d="M531.76,459.63c2.57-1.56,5.06-3.28,7.73-4.66s3-7.7,7.3-5.24c4.12,2.33,4.71,7.65,4.62,12-.07,3.24-2.15,6.42-1.31,9.93-7.45,8.08-17.71,12.45-25.86,19.62-.74.65-2.52,1.36-2.81,1.05-1.23-1.24-.3-2.68.21-4.09C525.05,478.75,528.39,469.19,531.76,459.63Z"/><path class="cls-90" d="M502.74,580.33c-1.53,3-1.65,5.75,1.36,7.88,17.6,12.48,35.09,25.17,56.44,30.75a9.52,9.52,0,0,0,5.42.76,7.49,7.49,0,0,1,2.87.07c2.44.62,4.92,1,7.41,1.4a20.8,20.8,0,0,1,3.23.77q11.14,1.88,22.33,3.27c4.3.54,10.19-.06,10.75,6.89l-8.47.62c-17.8-1.92-35.5-4.27-52.18-11.32-19-10.15-38.61-19.41-54.54-34.46C500.4,585.77,498.8,580.79,502.74,580.33Z"/><path class="cls-91" d="M553.85,498.71a22.2,22.2,0,0,1-1.8,3.65c-5.91,8.26-11.91,16.46-17.86,24.69-.92,1.26-2,2.6-3.59,1.84-.67-.32-1.05-1.93-1-2.95.08-12.91,9.23-26.42,20.16-29.92C553.58,494.78,554.13,495.07,553.85,498.71Z"/><path class="cls-92" d="M534.59,419.69c2.87-.31,3.8,1.36,3.57,3.32a31.79,31.79,0,0,1-1.95,7.52c-1.84,4.78-2.54,13.86-6,13.34-6-.93-3.49-9.4-5-14.46C523.08,422,531,422.25,534.59,419.69Z"/><path class="cls-82" d="M522.45,406.94l2.58-1.71A2.34,2.34,0,0,1,522.45,406.94Z"/><path class="cls-72" d="M502,396l-2.18-2.37Z"/><path class="cls-72" d="M499.89,393.64a3.17,3.17,0,0,1-2.05-3.08C498.52,391.59,499.2,392.62,499.89,393.64Z"/><path class="cls-72" d="M497.15,389.08l-1.75-2.59Z"/><path class="cls-72" d="M494.62,384.51l-1.65-2.1Z"/><path class="cls-72" d="M492.93,382.35l-2.28-.07c0-.67,0-1.34,0-2A2.3,2.3,0,0,1,492.93,382.35Z"/><path class="cls-93" d="M790.2,91.27c-6.34,9.08-17.28,11.12-26.11,15.93-12.5,6.82-25,13.75-37.51,20.52-24.53,13.23-48.7,27.26-73.93,39-25.79,12-51.65,24.73-80.3,28.75-25.17,3.54-72.86-14.89-79.45-45.22L502,136.52c9.91-5.11,14.85-15.15,22.35-22.65,16.45-7.7,33.15-14.93,49.21-23.36,5.62-3,12.74.74,17.09-5.15,29.34-14.36,56.85-32.28,87-45.07C698.34,31.5,719,22.5,739.68,13.59c7.56,5.37-.21,7.86-2.57,9.94C726.35,33,714.3,41,703.46,50.42,687.21,64.56,670,77.5,654,92c-1.17,1.06-3.46,2-2.65,3.91.27.64,2.69-.61,4.06-1.18,11.7-4.82,22.48.53,33.52,3a676.65,676.65,0,0,0,73.84-11.28c7-1.19,13.88-2.88,20.89-3.38,3.54-.25,8.05-3.57,11,1.53A11.71,11.71,0,0,0,790.2,91.27Z"/><path class="cls-94" d="M504.3,320.88c-14,.39-23.43-7.6-31.9-17.39-2.66-6.1,2-7.48,6-8.36,24.52-5.36,38-23.31,49.36-43.46,8.7-15.48,9.57-16.32,26.18-11.25,8.41,2.57,15.36-2.7,23.08-3.7,8.74,8.82,14.92,19.86,24.36,28.08,2.27,2,2.15,4.54,1.11,7.29-1.21,3.17-1.76,6.62-3.16,9.69-2.49,5.47-4.12,13.32-8.45,15.49-6.19,3.1-8.94-6-13.68-9.21-10.95-7.35-22.78-12.19-35.94-11.56-17.6.86-30.86,14.2-35.39,34.27C505.08,314.09,504.8,317.51,504.3,320.88Z"/><path class="cls-95" d="M483.56,227.6l2.59-2.27c3.85-1.59,7.76-1.08,11.68-.38,9.71,4.93,16.83,1.28,22.56-6.88q3.2-4.56,6.3-9.2c7.11-10.61,8.89-10.74,18.36-1.3a1.9,1.9,0,0,1,.66,1.88c-.17.65-.35,1-.53,1-6.54,2.88-9.86,9-14.23,14.12-1.79,2.09-3.61,4.57-.4,6.66,7.16,4.68,3.51,9.55.5,14.38-4.17,6.71-8,13.63-12.43,20.2-12.62,18.61-29.16,30-52.34,30-11.33-10.39-4.63-22.38-3-33.92l4.54-7.2c8.51,1.7,16.39,2.57,22.33-6.36,5.54-8.32,5.51-11.32-3-16.66C485.55,230.59,484.08,229.55,483.56,227.6Z"/><path class="cls-96" d="M466.28,295.75c1.69-1.4,3.44-4.09,5.07-4,26.06,1.07,38.11-17.6,50.55-35.69,2.76-4,4.88-8.45,7.52-12.55s6.82-8.1-1.92-10.23c-2.24-.54-3.7-4.17-2.22-5.6,6.41-6.19,8.06-17.71,19.7-18.1.73-.85,1.43-.78,2.1.08l2.91,4c.43,6.11-4.9,2.19-7.12,4-3.24,2.69-6.58,5.23-6.79,9.67-.17,3.45,2.95,3.75,5.59,4.1,8.73.58,17.48-.79,26.17.6l9.14,4.69c-8.86,8.08-17.67,11.28-29.15,3.57-6.63-4.45-11.92.86-14.81,7.4-5.71,12.86-13.94,23.74-24,33.64-8,7.89-16.45,13.86-27.61,16-3.51.67-9-.16-9,6.15A13.11,13.11,0,0,1,466.28,295.75Z"/><path class="cls-97" d="M531.65,338.92c-1.5-.63-3-2-1.24-3.05s4.26-1,6.39-.84c26.87,2.08,28.89-4.21,40.36-29.5,1.25-2.76.15-8.43,3.87-7.79A8.71,8.71,0,0,1,588,307.93c-3.14,15.24-8.21,29.93-20.64,40.09-8,6.55-20.9,3.17-31.41-6.48a3.83,3.83,0,0,1,2-2.56c2-.85,4.07-1.7,6.19-.24-2.28-1.87-4.66-.42-7-.1C535.31,338.9,533.44,338.05,531.65,338.92Z"/><path class="cls-98" d="M536.48,318.78c.52-11,5.14-20.31,11.73-28.74,5.63-7.19,12.51-7.18,20.12-3,7.25,4,7.36,9.86,5,16.48-2.12,6-3.34,12.39-8,17.22C555.92,317.56,546.37,315.65,536.48,318.78Z"/><path class="cls-99" d="M536.48,318.78c8-7.37,17.41-6.75,28.9,1.93l0,.11c-.65.84-1.25,1.73-1.93,2.55-2.29,4.56-7.15,5.41-11.14,7C539.13,335.76,535.51,332.93,536.48,318.78Z"/><path class="cls-100" d="M539,234.28c-4.25-1.42-9.55-2.62-6.1-8.81,3-5.3,5.18-12.4,13.57-11.07,1.55.24,2.63,1,3.52-.76,4.58,4.58,9.45,9,9.91,16.1C554,236.26,545.71,231.54,539,234.28Z"/><path class="cls-101" d="M543,280.16c2,.09,6.83-.12,5.57,2.45-3,6.18-8,11.4-12.16,17-3.78-3.93-8.13-7.48-11.11-11.94C523.73,285.29,534.25,280.43,543,280.16Z"/><path class="cls-102" d="M502.61,211.38a2.29,2.29,0,0,0-.73-1.79c-.05-5.22-.33-10.46-.05-15.67.11-2.27-1-6.4,2.61-6.23,3.15.15,6.73,3,6.35,6.67-.78,7.53-.19,14.88.63,22.3.26,2.43-1.16,5.07-3.2,5.39-3.65.57-3-3.44-4.22-5.47C503,215,503.27,213.06,502.61,211.38Z"/><path class="cls-103" d="M539,234.28c6.19-5.14,14.55-.21,20.9-4.54,2.81.22,5.88-.5,7.94,2.29A57.11,57.11,0,0,1,539,234.28Z"/><path class="cls-104" d="M531.65,338.92c.86-.58,1.72-1.66,2.59-1.68,3.62-.05,7.25.22,10.87.37-2.26,3.18-6.55,1.61-9.19,3.93Z"/><path class="cls-58" d="M497.83,225l-11.68.38c3.37-3.22,7.58-1.75,11.47-2.07A2,2,0,0,1,497.83,225Z"/><path class="cls-105" d="M521.45,203c.94,1.26,2,2.06,2,2.86s-1.16,1.44-1.81,2.16c-.56-.73-1.49-1.43-1.57-2.22S520.81,204.26,521.45,203Z"/><path class="cls-58" d="M502.61,211.38c1.77,1.38,1.74,3.25,1.39,5.2l-1-.15-1,0C502.22,214.76,502.41,213.07,502.61,211.38Z"/><path class="cls-1" d="M570,351.26l-1.93,1.55Z"/><path class="cls-1" d="M574.66,348.25l-2.53,2.16Z"/><path class="cls-1" d="M576.72,345.39l-2,2.84Z"/><path class="cls-1" d="M579.26,341.66l-1.74,1.92Z"/><path class="cls-1" d="M583.73,334.61c-.51.7-1,1.41-1.52,2.12C582.71,336,583.22,335.31,583.73,334.61Z"/><path class="cls-1" d="M586,329.94l-1.55,2.25Z"/><path class="cls-100" d="M547.08,209.64a20.75,20.75,0,0,1-2.09-.08,16.54,16.54,0,0,1,.06-2Z"/><path class="cls-1" d="M588.12,325.1l-1.49,2.55Z"/><path class="cls-98" d="M563.4,323.37a2.47,2.47,0,0,1,1.93-2.55A2.33,2.33,0,0,1,563.4,323.37Z"/><path class="cls-1" d="M581.39,338.91l-2,2.55Z"/><path class="cls-57" d="M377.31,866.4c-.67-5.88.8-8.6,7.17-5.37,6.07,3.08,11.92,18,8.86,23.46a3.4,3.4,0,0,1-1.4,1.31c-5.19,2.52-5.4,3.39-.35,6.93a106,106,0,0,0,22.5,12c-7.45,7.54-8,15.44-2,24.26,2.21,3.23,4.56,7.54-1.09,10.45-15.19-3.57-28.65-11.92-43.72-15.81-1.87-.49-3.77-2.88-5.82-.28-13.3,3.89-26.75,1.43-39.91,0-22.5-2.53-39.76,7.19-55.88,20.86-.57.48-1,1.15-1.5,1.67-3.08,3.05-6.68,8.34-10.68,5.41-3-2.19,3.43-5.62,3.93-9.31.14-1,1.07-1.89,1.63-2.83,1.86-6.36,4.17-12.37,9.31-17,6.45-5.82,1.39-15.53,7-21.76,13-1.57,25.31-5.13,35.62-13.4,4.41-3.55,4.93,1.55,7.39,2.13,2,3.72.65,7.74,1.08,11.59.48,5.11,4.4,5.21,8.13,5.57,23,5.36,38.7-9.29,34.79-32.57-2.11-12.57-6.22-24.56-10.28-36.59-1.06-3.15-1.55-2-3.22-.73-4.11,3.14-7.62,2.06-10.41-2.06.72-18.66,4.76-36.75,9.36-54.75,3.93.35,7.62,2.16,11.64,1.89,2.95-1,4.24-6.69,8.12-4.16s5.41,6.66,5.17,11.71c-1,21-1.7,42-2.4,63-.26,7.55.33,15,4.42,21.7,1,1.59,1.89,4.48,3.4,3.92,3-1.12.56-3.67.26-5.61S377.68,868.23,377.31,866.4Z"/><path class="cls-62" d="M331.71,728.23a47.74,47.74,0,0,0,.32-5.59c-.3-5.22.25-3.72,3.76-1.51,3,1.92,7.21-2.28,11.42-2.64,22.61-1.94,38.24,9.78,51.8,25.76,2.87,3.39,5.25,7.2,7.85,10.82h0a7.54,7.54,0,0,1-2.35,1.6c-5.54,6.88-16,7.75-20.06,16.41q-.24,9.1-.46,18.2c-5.44-3-7.81-8.76-10.87-13.55-5.21-8.17-9.29-8.16-14,0-4.14,3-7.7-1-11.59-1-4,.72-10.13,5.53-8.31-4.56.12-.66-1.21-2.17-2-2.34-12.33-2.54-6.7-6.66-1.23-11.26,6.76-5.7,2.4-10.35-1.88-14.84C338.19,737.8,330.77,733.67,331.71,728.23Z"/><path class="cls-106" d="M316.24,901c1.93-3.75-.74-8.32,2.12-11.92,9.7-14.5,14.45-30.93,18.4-47.66,1.67-2.08.31-4.92,1.76-7.06l-.07-.07c5.52,2.29,10.22,2.71,11.69-4.89.26-1.38.85-3.22,2.86-2.38a3.37,3.37,0,0,1,1.47,2.69c-.64,14.19,8.95,25.74,10.07,39.62.39,4.77,1.59,9.63,1.43,14.51-.67,20-22.91,32.83-40.45,23.42C320.51,908,319.19,903.25,316.24,901Z"/><path class="cls-107" d="M225.7,961.71l-2-7.52c-1.59-11.1,2.3-20.64,8.9-29.12,7.05-9,12.75-8.43,18.65,1.62,3.37,5.74,5.48,11.62-.18,17.33C242.15,949.28,236.84,959.69,225.7,961.71Z"/><path class="cls-108" d="M275.35,900.3c1,11.9.45,23.21-11,30.58-3,1.92-1.62,6.65-5.22,8.2l.14-6.51c-1-1.46-.77-3.34-1.59-4.87-5.72-5.8-9.35-15.25-20.43-11.7-.59.19-1.67.14-2-.23-1.06-1.38.52-1.83,1.22-2.16C249,907.8,259.52,896.29,275.35,900.3Z"/><path class="cls-109" d="M225.7,961.71C234.28,956,239.88,946,251,944c-.5,3.68-3,6.19-5.21,8.82-6.21,2.92-9.81,8.91-15.09,12.92-1.42,1.08-2.77,3.47-4.41,2.24C224.5,966.63,225.33,963.9,225.7,961.71Z"/><path class="cls-110" d="M347.58,776.72c2.68-2.38,5.37-6.87,7.72.36.68,2.11,2.53.66,3.87.61.09,1.23.19,2.46.28,3.69-5.41,8.87-8.26,1.86-11.64-1.89C347.74,778.57,347.66,777.65,347.58,776.72Z"/><path class="cls-57" d="M338.52,834.31c.42,2.6.82,5.2-1.76,7.06C336.57,838.82,336.56,836.32,338.52,834.31Z"/><path class="cls-57" d="M257.64,927.7c1.74,1.23,2,2.95,1.59,4.87A5.67,5.67,0,0,1,257.64,927.7Z"/><path class="cls-111" d="M658,497.73c1.7-6.59,3.52-13.12,9.34-17.51-.2,14.91,7,28.35,8.33,43,1,10.82,3.52,21.49,5.57,32.19.37,1.9-.39,5.33,2.9,5.06,2.09-.17,1.56-3,1.86-4.72q8.16-47.32,16.26-94.65c.32-1.91.51-3.85,2.59-4.41.28-.07,1.24,2.37,1.88,3.65,2.87,5.74,5.69,11.51,8.66,17.2,1,2,2.39,4.3,5.06,3.36,2.13-.74,1.43-3.22,1.47-5,.2-10.59.28-21.17.4-31.75,2.13-4.57,0-9.6,1.51-14.23l.74.17c3.22,2.48,1.53,6.15,2.23,9.25,10.29,14.71,9.84,32.14,12,48.83.87,6.7.4,13.61,0,20.41-1.36,9.86-2.36,19.79-4.78,29.47-1.55,5.57-3.57,11-5.32,16.51-1.79,4.61-3.19,9.37-4.74,14.07-2.93,8.84-7.36,17-11.37,25.36-5.47,6.47-4.61,17.73-15.24,20.33-2.67-1.32-5.08-2.86-5.5-6.19.66-4.31,3.43-7.57,6-10.74,13.85-17.1,15.62-37.17,13.87-57.85-.92-10.89-4-21.5-7.08-32-.4-1.38-.44-3-2-3.84a18,18,0,0,0-1,4.35c-3.51,17.77-6.21,35.69-10,53.39-1.35,6.33-2.11,16.23-9.91,15.61-7.62-.6-7.35-10.52-7.66-17-.74-15.57-4.37-30.59-7.29-45.76-.91-4.75-1.75-9.82-6.91-12.29C658.36,501,657.33,499.72,658,497.73Z"/><path class="cls-112" d="M735.59,509.56c1.21-23.9-2.86-47.14-8.82-70.14,3.72-11.13,3.82-11.23,11.86-2.84,7.52,7.85,15.76,14.94,22.2,23.9,10,13.94,10.6,28.95,6.74,44.8-2.25-3.51-4.57-5.15-8.55-1.75-3.34,2.85-6.65,5.85-10.56,8C743.67,514.15,739.32,513.93,735.59,509.56Z"/><path class="cls-113" d="M726.51,554.9c.51-5.55,2.58-10.64,4.65-15.74a136.94,136.94,0,0,1,20.75-27.85c2.69-2.78,6.26-4.58,10.24-2.77,3.55,1.61,4.88,4.51,3.3,8.36-.16,15.35-8.5,28.35-12.16,42.69-.42,1-1.28,1.75-1.42,2.88a1.74,1.74,0,0,1-.59,1.5c-5.08.45-10.12,0-15.28,1.28C727.82,567.22,725.81,564.58,726.51,554.9Z"/><path class="cls-114" d="M697.24,614.34c7.14-5.31,7.43-14.88,13.1-21.1,10.28-1,10.48,8,13.77,13.93C714.81,623,698,630,684.33,640.64c-1.21.94-2.8-.16-3.54-1.7,1.55-7.9,8.38-12.69,11.51-19.66a12.33,12.33,0,0,1,1.17-2.78,7.23,7.23,0,0,1,2.28-1.94Z"/><path class="cls-115" d="M726.51,554.9c.2,8.05,3.44,11.42,11.22,7,5.21-3,9.75-3.31,13.55,2.08-3.51,10.12-9.83,18.61-15.67,27.38-12.52-1.4-15.59-6.54-13.9-23.25A28,28,0,0,1,726.51,554.9Z"/><path class="cls-116" d="M765.45,516.9c-2.1-9.24-6.57-9-12.45-3.11-7.91,7.91-12.14,19-21.84,25.37q2.22-14.79,4.43-29.6c6.68,3.05,12,.83,16.77-4.13a49,49,0,0,1,7-5.37c6.86-4.85,8.8-1.77,8.25,5.22C767.49,509.27,768.54,513.46,765.45,516.9Z"/><path class="cls-117" d="M721.71,568.1c1.8,9.46,2,19.83,13.9,23.25-2.59,6.18-7.17,10.91-11.5,15.82-6.89-2.36-5.66-12.78-13.77-13.93Z"/><path class="cls-111" d="M695.07,616.46c-2,9.23-9.52,15-14.28,22.48l-1.88-2.23,11.85-18C691.49,616.57,692.64,615.27,695.07,616.46Z"/><path class="cls-118" d="M581.83,714.59c-.23.28-.43.78-.69.81-2.82.36-6,5.21-8,1.25-1.16-2.33,3.9-3.16,6.41-4.29Z"/><path class="cls-115" d="M751.87,562.47l1.42-2.88Z"/><path class="cls-57" d="M595,837.18c6.51-5.82,4.26-13.5,4.38-20.68.29-1.89,1.57-5,2.5-4.47,10.09,6.19,26.9-4.64,32.47,12.84.54,1.7,2.2,3,3.53,4.34s2.62,3.27,4.6,2.6c2.18-.74,1.52-3.15,1.54-4.95,0-2.76.37-5.28,3.42-6.38,20.57,12.23,42.94,20.43,65.31,28.45,7.58,2.72,15.35-1.15,22.91-2.93,3.81,13.91,16.13,16.22,27.31,19.91,7,2.33,13.49,4.89,13.25,14,.7,4.62-.07,9.52,2.68,13.74-1.06,3.85-3.76,3.43-6.08,1.8a58.58,58.58,0,0,1-9.43-8c-9.41-10.18-20.5-14.22-34.46-12.16-10.58,1.55-21.71,3.2-28.7-9.09-2.15-3.79-7.81-4-12.14-5.23-12.24-3.37-23-9-30.1-20.07-.75-1.14-1.68-2.95-3.2-1.9s-.49,2.73.35,4c2.07,3.13,4.18,6.23,6.28,9.35-3.32,6.62-8,12.67-7.29,20.85a6.65,6.65,0,0,1-4.76,7c-12.7-10.35-26.24-18.73-43-20.78a14.66,14.66,0,0,1-11.57-8.19C590.78,846.47,587.61,841.73,595,837.18Z"/><path class="cls-119" d="M595,837.18c-3.5,4.62-1.93,9.34-.25,14.05-6.71,7-7.68,7.68-15.89,10.49-5.19.44-8.31,4.77-12.69,6.83-10,4.69-15.81,4.45-21.19-2.7-6.17-8.22-1.07-13.78,4.88-19,.56-.49,1.17-.91,1.76-1.36,5.31-3,9.78-7.5,16-9,.45-.11,8.38,1.21,2.45-4,3.79.1,7.62,1.16,11.33-.5a10.66,10.66,0,0,0,2.2-.19C593.92,828.64,593.92,828.63,595,837.18Z"/><path class="cls-64" d="M706,911.82l-.21,3.95c-2.48,2.19.69,7.8-4.29,8.06-3.27.17-4.48-3.56-6.25-5.88a68.73,68.73,0,0,0-11.58-12.28c-5.39-4.34-8.58-9.55-5.21-16.69,2.67-5.7,6.55-11.29,13.13-10.62,7.63.77,11,6.89,11.71,14.49C703.94,899.2,705.12,905.5,706,911.82Z"/><path class="cls-120" d="M663.36,853.89c10.38,5.88,20.63,12,32.32,15.15,2.55.68,5.88,2.76,5.27,5-.69,2.47-3.65-.4-5.69-.35-10.58.26-17.1,6.09-21.16,15.36-6.4,4.88-11.06,1.67-15.35-3.31-5.9-6.85-8-14.42-3.61-22.76A27.05,27.05,0,0,1,663.36,853.89Z"/><path class="cls-121" d="M663.36,853.89a9.85,9.85,0,0,1-2.89,7.07c-4.45,4.23-9,8.53-4.81,15.37s8,14.75,18.44,12.72a13.86,13.86,0,0,1,0,2.23c-.5,3.63-.08,9.07-3.11,10-4,1.27-7.08-3.37-9.74-6.37-4.19-4.72-7.94-9.81-11.87-14.75,1.59-3,2.79-6.14,2.31-9.62-1.19-8.48,2.27-14.41,9.74-18.21Z"/><path class="cls-122" d="M688.94,97.74C681,97.12,673.09,99.49,665,95c-3-1.67-9.47,3.14-14.42,4.83-2.05.7-4.8,1.72-6.05-.52-1-1.76,1.49-3.17,2.74-4.47,11.76-12.18,25.63-21.89,38.35-32.95C702.32,47.33,719.9,34,737.23,20.28c1.72-1.36,6.29-2.81,2.45-6.69,4.61-3.09,9.21-6.21,15.19-5.42-2.31,4.22-4.57,8.47-6.93,12.66-10.76,19.1-21.6,38.13-33.89,56.32C709,84.67,704.86,92.86,694,93,691.57,93.07,688.48,93.9,688.94,97.74Z"/><path class="cls-123" d="M52.62,237c-4.91-11-6.81-22.12-1.79-33.63,9.76-.71,18.39,3.63,27.28,6.47,39.26,12.5,76.6,29.61,113.3,48.19a12.75,12.75,0,0,1,2.48,1.49,2.08,2.08,0,0,1,2,.76,25.5,25.5,0,0,1,2.48,1.45l-.06,0c.48,4.44-3,4.19-5.13,3.36-7.14-2.75-10.78,1.45-15.3,5.89-9.91,9.74-20.75,18.41-33.49,24.38-4.49,2.11-9.57,4.84-14,3-8.48-3.49-2.62,4.56-5.11,5.52C110,294.34,97,281.74,82.59,270.92,71.35,260.71,59.2,251.3,52.62,237Z"/><path class="cls-124" d="M218.57,359.63c-.69-.11-1.37-.2-2.06-.28-.88-.59-1.72-1.23-2.54-1.9-3.93-.51-7.44-3.43-11.7-2.07a3.07,3.07,0,0,1-1.77-.89,6.33,6.33,0,0,1-2.2-1.6c-13.38-7.52-25.92-16.33-38.39-25.24a10.89,10.89,0,0,0-4.13-3.72c-1.83-1.16-4.29-2.43-2.54-5.17,1.13-1.79,3.32-1.45,5.17-1.12,4.09.73,7.93,2.39,11.92,3.48,15.34,4.19,26.35-.42,33.87-14.63,5.31-10,16.49-14,22.8-23,2-2.79,5.43-1.72,8.34-.41,3.39,1.53,6.49,3.95,10.5,3.75,9.06,4,17.62,8.8,25.12,15.35,3.56,7.27-.12,11.46-6.74,11.54-8.63.09-8.44,4.16-7.35,10.52a28.73,28.73,0,0,0,8.72,16.57A26.56,26.56,0,0,1,273,354.41c.84,3.63,1.79,7.93-4.54,7.42h0c-1.17-1.38-3.35-.83-4.45-2.34l-20.5-11.29c-1.19-1.4-3.32-.92-4.54-2.27h0c-4.68-1-10.58-5.61-9.73,5.34C229.72,356.89,226.16,362,218.57,359.63Z"/><path class="cls-125" d="M293.46,280A56,56,0,0,0,286,277.7c-3.88-.64-8.86-4.65-11.44-.85-2.79,4.13,4.18,6.13,5.32,9.94.71.8,1.4,1.62,2.18,2.36h0c3.21,7,.12,9.27-6.58,8.89l-.09-.07a12.09,12.09,0,0,1-2.34-2.06c-27.37-17.64-53.33-37.24-79-57.19a6,6,0,0,0-4.65-4.72c-.66-2.86-3.37-5.12-2.45-8.43l0,0a5.59,5.59,0,0,1,2.75-2c12.88-4.66,25.34-1.66,37.75,2.09,9.73,4.84,20.6,7,29.9,12.86,19.14,10.13,38.3,20.22,57.39,30.44,3.6,1.93,6.92,4.37,10.37,6.58-2,7.25-8.55,4.44-13,5.36C306.05,282.15,299.54,282.79,293.46,280Z"/><path class="cls-126" d="M245.84,286.81c-1.7,2.67-3.88,1.89-5.78.5-8.29-6.1-13.56-2.77-17.65,5.3-1.79,3.54-5.24,5.33-8.7,6.93a12.5,12.5,0,0,0-6.72,7c-7.13,16.62-20.35,22.43-37.59,17.15-1.08-.33-2.21-.5-3.28-.85-3.85-1.26-8.89-5-11.28-2.73s7,2.28,5.07,7.51a343.14,343.14,0,0,1-34.55-23.8c-6-8.06-3.7-10.05,5.45-8,5.47,1.23,10.14-1.82,14.79-4.26,12.68-6.63,24.2-15.06,33.24-26,4.16-5.05,7.09-7.08,12.79-3.64,2.16,1.3,4.61,3.1,6.72-.25a139.79,139.79,0,0,1,31.56,16.16,6.24,6.24,0,0,0,3,1.93,1.61,1.61,0,0,1,1.61.72,12.63,12.63,0,0,0,2.74,1.63,1.81,1.81,0,0,1,1.8.8,15.78,15.78,0,0,1,2.44,1.6l2.1.78a8.65,8.65,0,0,1,2.29,1.53Z"/><path class="cls-127" d="M268.5,361.83c7.52-7,.39-13.95-3-16.8-9.5-8-10.73-18.9-13.95-29.21-1.69-5.38,1.94-4.94,5.78-4.33,7.26,1.16,14,1,13.63-9.33q2.19,1.3,4.39,2.6c.95,1.64,3.25,1.17,4.26,2.73l.05.05c2.5,10.67,1.21,12.12-9.23,9.85-3.32-.71-6.94-2.29-9.62.34-2.95,2.89,1.41,5.33,1.57,7.86,1,16,17.66,21.87,22.29,35.43,1,3,5.21,5.63,2.41,8.78-2.41,2.72-5.63-.32-8.13-1.61C275.35,366.32,271.06,365.45,268.5,361.83Z"/><path class="cls-128" d="M275.49,298c4.08-1.56,7.42-3.67,6.58-8.89,8.24,8.33,8.26,9.32.25,13.43C279.56,301.79,276.94,300.8,275.49,298Z"/><path class="cls-129" d="M325,332.47c5,3.17,9.59,6.73,12.62,12-6.95-.15-9.82-6.59-14.86-9.69C323.48,334,324.23,333.23,325,332.47Z"/><path class="cls-81" d="M279.61,307.49a4.1,4.1,0,0,1-4.26-2.73A4.93,4.93,0,0,1,279.61,307.49Z"/><path class="cls-126" d="M193.89,259.49,191.41,258Z"/><path class="cls-128" d="M273.06,295.91,275.4,298A2.39,2.39,0,0,1,273.06,295.91Z"/><path class="cls-124" d="M245.87,286.82l-2.29-1.53Z"/><path class="cls-124" d="M241.48,284.51l-2.44-1.6Z"/><path class="cls-124" d="M232.89,279.76l-3-1.93Z"/><path class="cls-124" d="M237.24,282.11l-2.74-1.63Z"/><path class="cls-126" d="M198.41,261.7l-2.48-1.45Z"/><path class="cls-130" d="M647.48,820.48c-2.84,3.95.42,8-.26,12.06-.31,1.9-.47,3.86-2.33,4.86-2.22,1.19-3.36-.82-4.71-2-5.55-4.67-9.62-10.57-13.29-16.71-2.48-4.16-5.21-5.64-8.7-1.54-4.39,5.14-7.89,2.9-10.92-1.16s-5.39-2.08-7.85.47a2.76,2.76,0,0,0-1.54-.3c.57-4.06-2.58-7.09-3-10.88-1.58-14,3.27-35.64,9.5-42.25,7.74,7.28,11.88,17.18,18.37,25.38,2.78,3.52,4.46,7.92,8.34,10.57C635.69,806.84,643.42,812.25,647.48,820.48Z"/><path class="cls-57" d="M604.38,763.07c-6,13.44-2.69,29-9.5,42.25-8.76-8.8-16-19-25.58-27.06-1.37-1.15-.26-19.14,1.2-19.55.75-.21,2,.48,2.7,1.13,1.36,1.28,2.26,3.13,3.75,4.17,3,2.12,5.65,7,9,6,4.41-1.31,1.89-6.56,2-10,.19-6.8,2.43-8.14,7.78-4C598.66,758.27,601.49,760.71,604.38,763.07Z"/><path class="cls-131" d="M549.7,723c3.06-2,6.18-3.87,10-2.92A2.39,2.39,0,0,1,560,722c-3,2.41-6.39,3.89-10.38,3.37C549.67,724.61,549.68,723.83,549.7,723Z"/><path class="cls-1" d="M856,261.19l2.72-1.38Z"/><path class="cls-132" d="M148.33,393.61l-4.59-2.18a2.57,2.57,0,0,0-3-.53c-9.38,6.17-17,2.18-24.37-4l-18.23-22.7Q93,355,87.79,345.7c-.84-4.33-2.38-8.28-6.22-10.9l-1.06-2.52c1.68-1.85,4.17-2.83,6.13-1.95,14.76,6.64,28-.55,41.23-4.93,6.51-2.16,12.09-2.48,18.11.15l56.73,36.69a14.8,14.8,0,0,1,2.3,1.87h0c-.42,7.81-4.34,9.75-11.22,6.69l-.06,0c-1.28-1.19-3.39-.67-4.51-2.21l-9.16-4.46c-9.17-3.29-9.17-3.29-9.19,2.34l0,0a47.66,47.66,0,0,1,4.52,10.19c2.44,7.13.36,11.85-7.27,13.07C161.49,390.79,156.06,398.17,148.33,393.61Z"/><path class="cls-63" d="M146,325.55c-13.07.34-25.17,4.62-37,9.5a18.11,18.11,0,0,1-14.17.2c-4.53-1.69-9.16-3.65-14.25-3q-5.87-13.62-11.72-27.22c-1.94-8.36-4.53-16.72,0-25.07,4.44-2.34,8.64-1.53,12.82.79,19.69,10.92,38.59,23,55.34,38.17a11.19,11.19,0,0,0,2.64,1.82l4.17,3.11a6.2,6.2,0,0,1,2.15,1.65Z"/><path class="cls-133" d="M193.78,370.8c5.45.64,8.94-2,11.22-6.69l11.21,6.8C208.72,373.83,201.21,381.05,193.78,370.8Z"/><path class="cls-134" d="M235.4,377.54c4.51,1.88,9.64,2.9,11.58,8.36-4.74.14-7.63-3.81-11.65-5.3-1.31-.49-2.38-1.65-3.56-2.5Z"/><path class="cls-132" d="M145.94,325.53l-2.15-1.65Z"/><path class="cls-132" d="M139.62,320.77,137,319Z"/><path class="cls-133" d="M205,364.11l-2.3-1.87Z"/><path class="cls-81" d="M198.3,352.89l2.21,1.6A1.78,1.78,0,0,1,198.3,352.89Z"/><path class="cls-135" d="M338.81,266.4c-1.54,3-2.37,6.71-6.8,6.82-14.44-7.54-28.92-15-43.3-22.68-1.84-1-8.13-2.73-.15-4.44a235.65,235.65,0,0,1,47.95,19,4,4,0,0,1,2.27,1.33Z"/><path class="cls-81" d="M338.78,266.38l-2.27-1.33Z"/><path class="cls-136" d="M180.21,532.05c-8.88,6.31-17.31-.1-25.74-1.36-16.28-2.43-32.18-9.48-48.78-7.18-21.09,2.92-41.89.66-62.81-.26-4.56-.2-9.11-.25-12.94,2.89l.08-.25c-.22-1.3-1.24-1.91-2.19-2.57A169.55,169.55,0,0,1,8.24,490.5c-4.46-10.17-3.41-11.71,8-10.31,10,1.24,20,3.47,29.92,5.44,32.16,6.36,62.41,18.93,93.43,29,2.86.92,5.75,1.73,8.62,2.59Z"/><path class="cls-78" d="M27.83,523.32,30,525.89Z"/><path class="cls-137" d="M826.6,110.26c-.78-7.57-11.42-8.13-11.48-16.2,9.55-.2,19.1-.48,28.65-.54,2.72,0,6.06-1.27,7.66,2.47Z"/><path class="cls-1" d="M821.88,113.77l2.46-1.83Z"/><path class="cls-138" d="M776.26,879.91c-2.11-6.14-6.7-9.12-12.72-10.86-5.73-1.65-11.09-4.84-16.88-6-10.12-2-12.35-8.15-11-17.08,7.56-4.9,14.45-3.51,21.53,1.52,7.87,5.6,16.37,10.18,26.07,12,3.25,3.09,9.5,1.32,11.2,6.93l.15-.15C782.43,862.57,779.31,871.2,776.26,879.91Z"/><path class="cls-139" d="M138.89,448.3c-3-7.51-6.91-14.73-8.21-22.84-.49-3-2-7.15,3.88-6.61l27.22,29.56c1.17,1.47,2,3.18,3,4.71,1.91,2.79,4.43,5.61,1.39,8.94-2.41,2.65-5.62,1.78-8.31.44-4-2-8.82-1.93-12.3-5.09C142.23,455.19,140.86,451.53,138.89,448.3Z"/><path class="cls-140" d="M145.57,457.41c3.94,1.1,7.9,2.12,11.81,3.32,2.52.78,5.38,2.22,7.37,0,2.43-2.76-1.46-4.45-2-6.78-.44-1.8-.63-3.66-.93-5.5A87.49,87.49,0,0,1,177.56,462c-1.75,6.55-4.15,9.74-11.91,5.7-5.3-2.76-11-6.3-17.65-5.72Z"/><path class="cls-141" d="M116.35,386.91c3-.22,5.88,0,8.13,2.34,3.43,3.6,6.31,5.68,10.43.13,3.22-4.34,6.24-.4,8.83,2.05-5.23,1.21-3.5,11.12-11.32,9.08-3.56-2.75-6.45-6.65-11.55-6.78C118.63,392,116.81,389.88,116.35,386.91Z"/><path class="cls-71" d="M404.53,756.66l2.35-1.6Z"/><path class="cls-142" d="M293.46,280c10.57-1.22,21.35-1,31.6-4.45L334,280.4C320.45,284.53,306.89,288.93,293.46,280Z"/><path class="cls-143" d="M411,939.41c3.6-5.58-1.23-8.77-3.53-12.71-6.12-10.47-4.09-17.2,6.58-22l4,.92c1.62.67,3.44.6,5.05,1.33l8.66-.08c2.44.93,5.22,1.41,7.26,2.9,3.2,2.35,8.81,4.16,8.07,8.25-.49,2.71-5.82-1.95-9,0-.63.39-1.22.84-1.83,1.26-13.41,4.77-11.85,15.64-10.68,26.34a2.45,2.45,0,0,1-.68,2.8l-9.07-7.19c-1.36-1.26-3.3-1-4.82-1.85Z"/><path class="cls-144" d="M456.83,939.09c1.51,5.21,2.61,10.45,1.76,15.92-.54,7.68-4.17,9.29-10.48,5.22-3.06-2-6.48-3.26-9.56-5.19h0a19,19,0,0,0-2.31-2.26l0,0a11.74,11.74,0,0,0-2.4-2.27c-7.41-7.94-7-16.34-1.44-25a2.42,2.42,0,0,1,1.66-1.72,1.73,1.73,0,0,1,1.61-1,9.85,9.85,0,0,1,7.77.11C449.61,926.9,453.59,932.68,456.83,939.09Z"/><path class="cls-145" d="M438.55,955c4.23-.37,8.22,0,11.53,3.17,4.95,4.75,6.61.39,8.51-3.2a23.48,23.48,0,0,1-1,12c-1.63,5.18-4.55,3.32-7.46,1.29Z"/><path class="cls-146" d="M427.26,950.45c1.15.87,2.56,1.53,3.37,2.64,1.11,1.53,4.49,3.21,2.17,5-1.92,1.47-3.19-1.92-4.27-3.55-.76-1.13-.91-2.66-1.33-4Z"/><path class="cls-143" d="M443.47,922.91l-7.77-.11.51-2.32C438.49,921.73,441.82,919.79,443.47,922.91Z"/><path class="cls-57" d="M411.09,939.41a3.93,3.93,0,0,1,4.82,1.85C414,941.4,412.23,941.25,411.09,939.41Z"/><path class="cls-146" d="M425,948.45c.22-.93.45-1.87.68-2.8,1.85,1.16,1.65,3,1.6,4.8l-.06.06C425.73,950.61,425.11,949.8,425,948.45Z"/><path class="cls-145" d="M433.87,950.55a2.57,2.57,0,0,1,2.4,2.27A2.57,2.57,0,0,1,433.87,950.55Z"/><path class="cls-145" d="M436.25,952.79a2.56,2.56,0,0,1,2.31,2.26A2.33,2.33,0,0,1,436.25,952.79Z"/><path class="cls-143" d="M434.09,923.8l-1.66,1.72A1.53,1.53,0,0,1,434.09,923.8Z"/><path class="cls-147" d="M804.05,884.48c2.19,6,4.75,11.82,6.4,17.93.7,2.58,1.59,6.69-1.08,8.31-2.5,1.53-4.21-2.28-6.38-3.52-1.28-.73-2.48-1.57-3.71-2.37-4.32-3.64-8.65-7.28-12.95-10.94-3.38-2.87-4.65-6.68-5-11-.43-4.82.27-9.69,4.42-12.08,5-2.85,8.06,2.16,11.18,4.92C799.67,878.2,801.69,881.53,804.05,884.48Z"/><polygon class="cls-138" points="794.5 866.4 794.99 866.75 794.65 866.25 794.5 866.4"/><path class="cls-148" d="M570.11,832.47c1.49,2.71,6.44,1.63,6.39,3-.1,2.77-3.89,1.31-6,2.36-6,3-11.8,7-18.86,7.62C556.64,839.48,559.47,830.42,570.11,832.47Z"/><path class="cls-149" d="M549.81,878.35c-3.49-.21-7.13,7.44-10,.51-1.06-2.52-5.79-9.15,3-9.94C543.85,873,552.18,871.68,549.81,878.35Z"/><path class="cls-57" d="M423.18,907c-2,.59-3.7.37-5.05-1.33A6.16,6.16,0,0,1,423.18,907Z"/><path class="cls-63" d="M81.57,334.8c5,1.93,8.1,5,6.22,10.9Z"/><path class="cls-56" d="M189.65,223.56l-2.75,2A2.62,2.62,0,0,1,189.65,223.56Z"/><path class="cls-150" d="M483.56,227.6c2.11.78,4.17,2.07,6.33,2.26,8.34.74,8.92,6.34,7,12.19-2.72,8.18-9.07,13.71-16.35,18-6.52,3.84-7.33-6.23-12.69-5.42C472.18,245.1,476.41,235.49,483.56,227.6Z"/><path class="cls-1" d="M723.8,430c-.27,4.77,1.28,9.73-1.51,14.23C722.48,439.45,720.54,434.45,723.8,430Z"/><path class="cls-1" d="M661.36,202.67l-.13-15.73C664.17,192.16,664.05,197.4,661.36,202.67Z"/><path class="cls-1" d="M665.57,180.08c-.81-.87-1.61-1.75-2.42-2.63.92-1.31,2.18-2.09,3.42-.75S666.93,179.25,665.57,180.08Z"/><path class="cls-1" d="M662.43,182l3-1.87Z"/><path class="cls-151" d="M617.64,229.66a16.75,16.75,0,0,1-2.22,9.73c-1.43,2.34-2.89,4.75-6.11,3s-3.9-4.77-1.68-7.56,5.1-5.34,5.52-9.47c.18-1.86-.45-5.46,2.77-4.87,2.49.46,1.46,3.75,1.7,5.85C617.71,227,617.64,227.79,617.64,229.66Z"/><path class="cls-152" d="M610.74,219.18c-1.34,3.29-.93,9.74-2.88,9.14-6-1.84-4.8-8.46-5.42-13.5-.32-2.6.17-6.85,2.86-6.44C611.25,209.29,609.29,215.4,610.74,219.18Z"/><path class="cls-153" d="M434.11,707.23c-5.27-10.66-15.44-16.26-24-23.5-1.17-1-4.18-1.56-2.25-4,1.06-1.33,2.72.19,3.87.93,9.87,6.42,19.15,13.47,24.91,24.16C437.27,707.21,436.24,707.8,434.11,707.23Z"/><path class="cls-154" d="M358.19,651.94c.35,2.66-1.39,2.64-2.75,2.33-6.77-1.57-13.3-2.94-18.15,4.28-.83,1.24-3.09.07-2.58-1.82,1.31-4.9,4.92-7.57,9.82-8S354.21,648.78,358.19,651.94Z"/><path class="cls-155" d="M434.11,707.23a2.76,2.76,0,0,0,2.49-2.38c3.34,4,6.33,8.2,5.87,13.84C437,716.82,437.62,710.52,434.11,707.23Z"/><path class="cls-19" d="M211.75,489.16l1.68.91c-1.54,1.31-1.54.11-1.6-1Z"/><path class="cls-156" d="M612.55,632.12c-8.76-7.16-20.19-2.78-29.71-6.85-2-.83-4.51-.06-6.23-1.91,2.71-6.11,7.91-9.85,13-13.71,15.63-11.9,29.58-25.11,38.24-43.37,2.4-5.06,4.58-12.57,13.24-11.1,2.23,3.08,1.68,6.51.95,9.82-1.24,5.58,1.13,9.15,5.39,12.57,13.78,11,15.09,18.79,4.56,33.61-3.62,5.09-3.68,9.34-2,14.5-1.57,2.92-4.66,3.07-7.31,4-7.28,1.49-15.09-1.76-22.08,2.44Z"/><path class="cls-157" d="M643,628.08l6.59-2.45c13.65-6.3,27.38-12.41,41.94-16.38,3.33.09,5.61,1.38,5.75,5.09l0-.2a9.09,9.09,0,0,0-2.39,2.4l.19-.08-4.31,2.23c-1-2.86-2.58-1.64-4.19-.62-12.64,8.09-27.19,9.69-41.45,12.3C642.87,631.06,642.3,630.15,643,628.08Z"/><path class="cls-158" d="M643,628.08l2.16,2.29c-8,3.35-16.31,1.63-24.52,1.76C626.85,624.11,635.38,628.76,643,628.08Z"/><path class="cls-159" d="M218.57,359.63c7.89-2.13,11.6-6.31,7.05-14.5-.85-1.53-2.75-2.91-1-4.8,1.5-1.65,3.46-1,5.08-.08,3.19,1.74,7,2.47,9.33,5.68-2.25.44-4.86.84-3.48,4.06,1.9,4.42,5.17,8.79-.88,12.52-5.13,3.18-10,1.64-14.6-1.25A8.29,8.29,0,0,1,218.57,359.63Z"/><path class="cls-160" d="M148.33,393.61c9.22.36,15.34-8.36,24.61-8.41,2.12,0,1.83-3.38,1.16-5.76-1.2-4.29-3.53-8.32-3.2-13,5.76,5.82,11.11,21.11,7.74,23.58-5.65,4.13-13.16,4.14-19.45,7.53C156.24,399.16,151.36,396.73,148.33,393.61Z"/><path class="cls-160" d="M170.86,366.44c-1.46-1.14-3-2.18-4.37-3.46-1.07-1-2.22-2.49-1.3-4s2.55-.84,4-.3c3.82,1.4,8.16,1.73,10.86,5.39C176.89,364.51,173.24,363,170.86,366.44Z"/><path class="cls-133" d="M189.21,368.56c1.85,0,3.52.43,4.51,2.21C191.79,370.92,190.11,370.54,189.21,368.56Z"/><path class="cls-159" d="M239,345.93c1.91,0,3.59.39,4.54,2.27C241.64,348.24,240,347.82,239,345.93Z"/><path class="cls-127" d="M264.05,359.49c1.86.06,3.54.47,4.45,2.34C266.59,361.86,264.91,361.46,264.05,359.49Z"/><path class="cls-128" d="M282.07,289.15c-.73-.78-1.46-1.57-2.18-2.36C280.61,287.58,281.34,288.37,282.07,289.15Z"/><path class="cls-159" d="M214,357.45l2.54,1.9Z"/><path class="cls-161" d="M645.11,530.08c-.77,1.67-1.58,3.32-2.28,5-.55,1.33-.94,3-2.77,2.64s-1.65-2.26-1.7-3.62c-.22-5.87-.29-11.75-.41-17.62,4.63-1.27,9.18-2.36,9.52,4.84C649.94,525.13,647.3,527.55,645.11,530.08Z"/><path class="cls-162" d="M645.11,530.08c.79-2.91,1.57-5.83,2.36-8.75,5.67-6.89,4.75-16.74,10.5-23.6l2.71,2.71c-.65,11.43-3.47,21.93-12.62,29.73Z"/><path class="cls-163" d="M640.37,555c-5.79,2.88-8.62,8.56-11.08,13.77-7.89,16.7-20,29.49-34.62,40.2-6.22,4.55-11.08,10.81-18.06,14.4l-1.05,0-.94-.47c-2-1.68-5-.12-7-1.9l-1.06.05-.95-.46c-.81-.41-1.09-.83-.83-1.26s.53-.65.8-.65a8.76,8.76,0,0,1,5.68-5.08c17.91-6.17,31-18.91,43.81-32.11,9.47-9.79,9-12.82-2.74-19-2-1.06-4-2-6-3,4.47-11.22,15.31-14.08,24.78-18.45,3.51-1.61,3.06,3.34,4.83,4.88v0C636,549.59,640.58,551.13,640.37,555Z"/><path class="cls-164" d="M635.93,545.92c-2.21-1.48-3.87-4.91-7.32-2-6.93,5.89-16.05,8.63-22.29,15.54-4.37-.65-8.49,8.38-13,.34,10.83-13.23,21.63-26.49,32.55-39.65,1.3-1.57,2.85-3.9,5.47-2.62,2,1,1.48,3.24,1.71,5Q634.5,534.26,635.93,545.92Z"/><path class="cls-156" d="M565.58,618.72c0,.64,0,1.27,0,1.91-1.92.16-3.81.19-5.07-1.67Z"/><path class="cls-164" d="M590.51,564.11l2-2.68A2.4,2.4,0,0,1,590.51,564.11Z"/><path class="cls-82" d="M592.44,552.63l-2,2.24Z"/><path class="cls-74" d="M640.37,555c-2.36-2.6-6-4.6-4.44-9.1,1.85,3.46,4.17,7.36,6.87,1,2.28-5.34,5-10.73,5.26-16.76q6.32-14.86,12.62-29.73c5.46-3.28,6.11.54,7.2,4.56,4.47,16.39,6.9,33.08,8.36,50,.48,5.6,1.75,11.14,2.74,16.69.34,1.9,1.24,4.19,3.08,4.33,2,.15,2.53-2.34,3.18-4,5.61-14.54,7-30,9.83-45.15,1.8-9.61,3.19-19.31,4.93-28.93.24-1.31,1.48-2.43,2.25-3.64a21.7,21.7,0,0,1,2.18,3.48c9.59,24.73,13.63,50.38,8.67,76.49-2.62,13.79-11.68,25-21.61,35-12.54,9.15-26.79,13.94-41.94,16.38-8.41-3.75-7.65-8-1.48-13.76,4.92-4.63,8.32-10.76,8.09-17.91-.17-5.58-2.78-10-8.11-12.46-9.53-4.37-12.14-11.25-7.85-20.93C640.89,559,640.34,556.87,640.37,555Z"/><path class="cls-156" d="M567.62,621c2.55-.19,5.17-.6,7,1.9C572.06,623.16,569.64,622.83,567.62,621Z"/><path class="cls-165" d="M648.67,139.19c0,.45.07,1-.12,1.15-8.47,5.44-8.25,17.4-16.92,22.66-1.4.84-3.11,3.33-4.52.77-5.49-9.9-12.32-4.44-16.17,0-8.44,9.72-22.55,10.24-30.37,20.39-.48.62-2.28,1.08-2.73.71-1.39-1.15-.83-2.85,0-4.06,6.3-8.85,12.38-17.91,20.64-25.14,2.81-2.46,5.78-4.75,8.69-7.1,2-1.59,3.85-5.29,6.27-3.81,3.54,2.17-.78,4.25-1.48,6.42-.37,1.18-.47,2.24.61,3,1.83,1.24,3.63.59,5.18-.58A132.66,132.66,0,0,1,643.18,139C644.89,138.25,647,135.74,648.67,139.19Z"/><path class="cls-166" d="M536.09,158.87c-.82,4.36-1.54,8-2.2,11.68-.43,2.37.93,6-2.88,6.19-2.68.11-4.55-2.51-5.59-5-1.17-2.75-1.67-5.79-3-8.47-1.6-3.34-2.89-10.18-7.23-1.45-1.19,2.38-3.1,1.71-4.13-.39-2.28-4.67-4.6-9.35-6.44-14.2-.75-2-1.12-5.09.77-6.37,3.25-2.19,3.28,3.21,4.13,3,11.4-3,11.72,7,15.32,12.9,2.43,4,4.12,1.38,6.17-.05,1.35-.94,2.5-3.42,4.41-1.45C536.29,156.11,536,158.08,536.09,158.87Z"/><path class="cls-167" d="M316.24,901c4.39.16,6.18,4.19,9.28,6.26C318.56,910.87,317.47,905.82,316.24,901Z"/><path class="cls-168" d="M729.09,524.8c-1.79,8-3.6,16.39-5.64,24.76-.31,1.27-1.72,2.27-2.62,3.4-.37-1.32-.7-2.64-1.1-4-4.26-14.15-1.19-27.9,2.34-41.61.25-1,.74-2.59,1.28-2.67,1.81-.25,2.63,1.34,2.89,2.81C727.25,513.09,728.09,518.67,729.09,524.8Z"/><path class="cls-111" d="M694.88,616.54l2.39-2.4A2.7,2.7,0,0,1,694.88,616.54Z"/></g></g></svg>