<svg xmlns="http://www.w3.org/2000/svg" viewBox="0 0 975.65 964.73"><defs><style>.cls-1{fill:#070405;}.cls-2{fill:#090607;}.cls-3{fill:#090606;}.cls-4{fill:#0d090a;}.cls-5{fill:#0e0c0b;}.cls-6{fill:#201e1a;}.cls-7{fill:#2b2528;}.cls-8{fill:#221a1a;}.cls-9{fill:#2d242a;}.cls-10{fill:#373133;}.cls-11{fill:#2f2b29;}.cls-12{fill:#2a2227;}.cls-13{fill:#b287ae;}.cls-14{fill:#865f7d;}.cls-15{fill:#875f7e;}.cls-16{fill:#b285ad;}.cls-17{fill:#5d4454;}.cls-18{fill:#ccafcb;}.cls-19{fill:#89607e;}.cls-20{fill:#ae82ab;}.cls-21{fill:#988764;}.cls-22{fill:#715167;}.cls-23{fill:#b287af;}.cls-24{fill:#88795f;}.cls-25{fill:#625545;}.cls-26{fill:#978765;}.cls-27{fill:#867660;}.cls-28{fill:#ab7ea7;}.cls-29{fill:#86775e;}.cls-30{fill:#89607f;}.cls-31{fill:#ceb2cd;}.cls-32{fill:#89617e;}.cls-33{fill:#88607e;}.cls-34{fill:#897a5f;}.cls-35{fill:#c09ebf;}.cls-36{fill:#ae9c75;}.cls-37{fill:#0a0607;}.cls-38{fill:#beaa7a;}.cls-39{fill:#dec78b;}.cls-40{fill:#af84ac;}.cls-41{fill:#f3d88e;}.cls-42{fill:#706350;}.cls-43{fill:#c8b17c;}.cls-44{fill:#d8c288;}.cls-45{fill:#998863;}.cls-46{fill:#f6da8e;}.cls-47{fill:#f6da93;}.cls-48{fill:#bca978;}.cls-49{fill:#c8b27c;}.cls-50{fill:#be9bbd;}.cls-51{fill:#a5936c;}.cls-52{fill:#cab47e;}.cls-53{fill:#885f7e;}.cls-54{fill:#865e7c;}.cls-55{fill:#dfc582;}.cls-56{fill:#948466;}.cls-57{fill:#0a0608;}.cls-58{fill:#191016;}.cls-59{fill:#1d1616;}.cls-60{fill:#302326;}.cls-61{fill:#865e7d;}.cls-62{fill:#ad9967;}.cls-63{fill:#5c4253;}.cls-64{fill:#d1b6cf;}.cls-65{fill:#b286ae;}.cls-66{fill:#bba771;}.cls-67{fill:#c2a0c1;}.cls-68{fill:#c3a1c1;}.cls-69{fill:#dfcbdd;}.cls-70{fill:#af83ac;}.cls-71{fill:#f9e4b8;}.cls-72{fill:#715067;}.cls-73{fill:#f9e6b4;}.cls-74{fill:#f6db96;}.cls-75{fill:#f7db93;}.cls-76{fill:#c4a2c2;}.cls-77{fill:#d1b4ce;}.cls-78{fill:#a0719a;}.cls-79{fill:#d4bf8c;}.cls-80{fill:#c9b584;}.cls-81{fill:#d7be7a;}.cls-82{fill:#35232e;}.cls-83{fill:#c1a1c1;}.cls-84{fill:#886165;}.cls-85{fill:#bb8d90;}.cls-86{fill:#eabec2;}.cls-87{fill:#a46e79;}.cls-88{fill:#d8a3a8;}.cls-89{fill:#c88593;}.cls-90{fill:#b185ae;}.cls-91{fill:#2f1e2a;}.cls-92{fill:#b387af;}.cls-93{fill:#c6a5c4;}.cls-94{fill:#c3a3c3;}.cls-95{fill:#998763;}.cls-96{fill:#8c6281;}.cls-97{fill:#8a7a5f;}.cls-98{fill:#9c7a95;}.cls-99{fill:#996b91;}.cls-100{fill:#9e6f96;}.cls-101{fill:#9e6e96;}.cls-102{fill:#b185ad;}.cls-103{fill:#96718e;}.cls-104{fill:#a07298;}.cls-105{fill:#9c6e94;}.cls-106{fill:#bb96ba;}.cls-107{fill:#b291ae;}.cls-108{fill:#8f6587;}.cls-109{fill:#916688;}.cls-110{fill:#ceb0cc;}.cls-111{fill:#a779a2;}.cls-112{fill:#ba92b7;}.cls-113{fill:#0b0807;}.cls-114{fill:#b187ae;}.cls-115{fill:#9d6e95;}.cls-116{fill:#9b6d95;}.cls-117{fill:#b085ad;}.cls-118{fill:#231a22;}.cls-119{fill:#181016;}.cls-120{fill:#c19ebf;}.cls-121{fill:#ba94b8;}.cls-122{fill:#d4bad2;}.cls-123{fill:#ac83aa;}.cls-124{fill:#fae291;}.cls-125{fill:#fcefc6;}.cls-126{fill:#fae392;}.cls-127{fill:#faeec3;}.cls-128{fill:#3b3524;}.cls-129{fill:#3f3a30;}.cls-130{fill:#fefefc;}</style></defs><title> Recurso 3023</title><g id="Capa_2" data-name="Capa 2"><g id="Capa_1-2" data-name="Capa 1"><path class="cls-1" d="M261.61,954.85c-39.64-3.54-79.25-8-116.56-22.65C105.37,916.64,68,897,38.84,864.39a155.08,155.08,0,0,1-23.42-34.24c-1.2-2.17-1.25-4.09,1.19-5.45,10.12,6.58,17.75,16.26,28.13,22.61,3.8,2.32,7.27,5,11.78,5.85a10.93,10.93,0,0,1,6.21,1.63c17,17.14,37.65,29.07,59.1,39.07,23.9,11.13,48.89,19.92,75.14,24.21a57.25,57.25,0,0,0,6.69,1.11c4.8.19,11.14,2.74,13.92-1.28,3.09-4.47-2.64-8.72-5-12.62-9.31-15.14-12.83-32.1-16.3-49.16-4.35-10.64-2-21.27-.15-31.88.54-3.42,2-6.65,2.16-10.16,2.38-12.27,8.74-22.87,14.31-33.79a77.34,77.34,0,0,1,4.88-6.41,60.94,60.94,0,0,1,16.29-16.24c4.4-2.94,8-6.44,8.42-12.21A10.06,10.06,0,0,1,247,743c7.24-1.3,14.23-.12,21.09,2,19.13,6,39,6.8,58.72,8.91,22.81,2.43,45.56,2.19,68.37,2.34,4.5,0,9,0,13.31-1.41,35.72-2.23,71.35-5.39,106.56-12.33,9.25-1.82,18.5-3.59,27.64-5.77,2.89-.64,5.89-.91,8.72-1.88a37.82,37.82,0,0,1,5-1c56.07-11,108.27-31.25,154.63-65.31a119.5,119.5,0,0,0,29.56-30.81c.62-1,1.3-1.85,1.92-2.79-1.15.6-1.55,1.89-2.48,2.71-11.87,10.48-24.07,20.53-37.8,28.52-3.54,2.05-6.89,4.76-11.41,4.27a4.31,4.31,0,0,1-3.43-3c4-8.08,12.56-11.91,17.57-19,2.5-1.8,5.77.53,8.28-1.52,16.42-12.36,31.15-26.09,39.12-45.7,1-2.38,1.51-6.37,6-4.89,1.59,4,1.11,7.94.2,11.92q-1,7.17-2,14.36c6.71-2,11.24-7,15.84-11.73,38.62-39.3,63.77-86.08,78.52-139.12,7.21-25.92,12.2-52.12,16.3-78.62,2-12.88,12.52-25.79-3.1-37.73-3.31-2.54-3-9.77-4.42-14.84-1.5-3.12.33-6.81-1.7-9.83,0-3,.07-6,.1-9,3.81-.53,4.72,2.48,6.07,4.94,1.66,7.7,2.77,15.59,6.07,22.89,4.83,10.71,10.86,13.34,21.52,9.15,15.24-6,30.35-11.39,47-4.49,7,2.89,9.58-2.2,10.28-8.11,2.74-23.49-3.46-43.35-23.67-57.34-2.31-1.23-4.53-2.64-6.89-3.78-3.22-1.59-6.36-3.42-10.16-3.26-15.78-1.39-28.43,3.47-36.4,18a9.26,9.26,0,0,1-4.86,4.39c-5.44.22-1.9-5.86-5.07-7.23-19.89-17.46-20.07-40-15.23-63.2,1.22-5.84-.07-7.18-4.61-9.75-14.11-8-24.65-31.42-21.57-47.56.81-4.25.29-5.37-3.8-7.21-16.5-7.45-25-22.6-22.94-40.85.58-5.06-1.24-6.51-5.06-8.22-18.42-8.24-25.92-24.59-29.58-42.81C756.34,63.72,771.64,53.19,786.61,58c15.2,4.88,27.85,14.15,30.06,30.6,1.63,12.06,8.3,14.62,17.65,16.77,16.46,3.8,26,14.44,27.34,31.17.3,3.61-.34,5.31,4.07,6.94,23.13,8.5,37.91,31.8,36.54,56.47-.27,4.88-.93,9,4.53,12.51,22.56,14.58,29.46,36.31,25.37,61.85-.88,5.47.76,7.76,4.18,11.21,20.57,20.72,27.74,45.21,17.32,73.07-3,7.94,3,11.79,5.46,15.71,21.41,34.71,18.54,72.26,10.68,108.75-17.56,81.56-46.4,158.46-104.63,221-6.67,7.16-13.57,14.46-21.58,19.9-7.58,5.15-5.78,9.52-2.41,15.63,19.42,35.18,13.38,78.9-14.81,108.6-5.3.74-7.07-2.79-8.37-6.89.09-2.86,1.67-5,3.71-6.7,29.43-25,26.73-74.75,4.42-103.13-11.73-14.92-25.14-27.93-39.57-40-1.68-2.52-2.19-5.87-5.2-7.5-8.8-7.14-19-11.85-28.84-17.24-9.41-5.14-17.47-6.12-24.7,3.2-1.12,1.45-2.88,2.37-4.34,3.34-.78.62-1.8,1.18-1.91,2.5,2,1.59,4.49,2.89,2.06,5.83-24.47,7.8-44.56,24.64-68.61,33.33-3,1.08-8,1.69-7.93,5,.11,3,5.34,3.3,8.15,5.06,3.92,2.43,9.84,2.46,10.52,8.84a5.61,5.61,0,0,1-4.42,2.62,13.21,13.21,0,0,1-7.63-1.78C638,725,622.25,728,605.88,733.08c-54.13,16.82-109.64,27.67-166.06,31.38-47.2,3.1-94.69,4.32-141.95-1.49A132.78,132.78,0,0,1,279,759.46c-18.29-5-34.17-2-46.59,13.25a129.32,129.32,0,0,0-8.56,10.78c-6.13,9-10.14,19-13.71,29.26-1.59,3.65-1.36,7.68-2.42,11.45-3,13.57-1.26,26.95,1.33,40.35,4.1,14.64,9.47,28.58,18.14,41.25a33.34,33.34,0,0,0,20.74,14.33c16.24,4,32.82,5.21,49.34,5.7,50.44,1.51,100.91,1.14,151.34-.05,23.28-.55,46.49-3.81,69.88-3.84,3.08,1,7.08.94,6.36,5.95-10.15,7.56-22.5,6.14-33.77,6.77-19.54,1.1-39,3.14-58.56,4a68.36,68.36,0,0,0-15.71-1.3c-33.52.13-67.08.85-100.57.14-41.37-.89-82.79-3.24-123.77-9.38-23.53-3.53-46-11.64-67.6-21.43-27.19-12.75-52-29.78-77.23-46a31.38,31.38,0,0,1-3.6-2.71c.64,1.14,2,1.55,2.74,2.5,21.78,26.91,50.83,42.75,82.64,54.5,30.07,16.77,63.5,21.34,96.56,26.94,13,2.2,26.1,3.92,39.23,5.37,4.34.49,9.19,1,11.13,6.25C271.74,957.6,266.61,955.48,261.61,954.85Z"/><path class="cls-2" d="M527.59,465.29c-.27,4.07-6.38,5.31-4.93,10.21,3.49-1.18,6.94-2.48,10.47-3.52,42-12.25,84.16-13.5,126.75-3.34,23.7,5.65,46,13.87,63.46,31.83,12.2,12.53,20.73,27.47,28.2,43.1,1.06,2.81,2,5.59-1.19,7.73-5.05-.34-6.31-4.73-8.45-8.11-18.3-28.86-51.89-47.5-90-38-19.44,4.84-38,11.78-54.7,23.07-3.2,1.72-4.75,5.26-7.87,7.09A833,833,0,0,1,463,574.21c-38.36,8.58-77.35,11.94-116.52,14.48-15.94,1-31.53-1.45-47.26-.84a19,19,0,0,1-3.53-.48,49.18,49.18,0,0,0-9.76-2.16,24.66,24.66,0,0,1-3.07-.66c-3.32-1.27-6.87-1.37-10.35-1.77a19.22,19.22,0,0,1-2.9-.63,50.46,50.46,0,0,0-7.14-1.82,22.54,22.54,0,0,1-3-.78c-2.49-1-5.14-1.68-6.66-4.2a4.33,4.33,0,0,1,1.47-2.91c4.4-2.51,8.9-1.11,13.23-.08,46.09,11,92.15,5.33,138.22-.06a40.73,40.73,0,0,0,21.48-9.39c19.54-16,38.85-32.35,55.68-51.36,1.21-1.36,2-3.21,4.05-3.67-2.05-.39-3,1.48-4.38,2.3-61.49,35.54-123.88,33.38-186.08,2.89-18.9-9.26-36.39-21.87-44.23-43.36-1.86-2.79-3.49-5.73-5.07-8.68a37.54,37.54,0,0,1-2.57-6c-1.73-6-.38-15.69-4.48-17.51-5-2.23-8.26,7.5-13.88,10.2a44.35,44.35,0,0,0-11.51,8.69c-1.9,1.79-3.78,3.62-5.76,5.33-18.91,16.09-39.58,30-58,46.71-3.34,3-6.88,5.91-11.56,6.78L137.8,515a1.92,1.92,0,0,1-.73-1.85c.14-.66.3-1,.48-1,30.51-30.82,67.17-54.53,98-85.06,10.95-10.85,21.49-21.92,29.6-35.1,1.33-2.16,3.34-4.78,1.45-7.28-2.46-3.27-4.9.33-6.63,1.26-9.83,5.23-20.69,6.18-31.24,8.44-2.44,1.32-4.45,1.35-5.39-1.79,2.35-5.05,7.26-6.51,11.91-7.61,37.3-8.87,64.5-32.66,89.25-60.16,2.76-3.07,5.18-6.48,8.4-9.13,1.82-1.5,4-2.56,6.09-.79s1.48,4.17.42,6.22c-3.85,7.47-9.77,13.3-15.47,19.31-12.34,13-11.94,18.53,1.51,30.74,14.26,13,31,21.26,49.38,26.19a295,295,0,0,0,61.1,9.38c16.23.51,31.45-6,47.44-6.78a27.78,27.78,0,0,0,6.54-.72c1-.3,2.05-.51,3.09-.71a25.84,25.84,0,0,0,7.38-2.1c10-4,20.13-7.75,29.82-12.51a45.27,45.27,0,0,0,9.44-4.53c.84-.6,1.7-1.14,2.58-1.69,1.3-.91,2.59-1.81,3.88-2.76,23.33-15.7,22.87-39.7,20.17-63.13-4.28-37.17-21.83-68.61-46.39-96.32a29.44,29.44,0,0,1-2.24-2.36c-.35-.4-.68-.83-1-1.22-6.87-11.34-18.29-17.76-28.09-25.92-1.22-.88-2.43-1.79-3.67-2.66-.86-.54-1.66-1.15-2.46-1.77s-1.63-1.22-2.43-1.86c-.41-.31-.79-.64-1.2-1-11-9.52-24.36-15.41-36.34-23.41-2.83-1.9-5.44-3.26-5.37,2.16-.58,2.74-1,5.54-4.65,5.83-4.24-3.24-5.37-8.26-6.18-12.9-2.48-14.2-8.38-27.17-13.23-40.57-11.69-32.3-36.43-53.35-61.84-73.95-21.36-13.66-44.34-22.63-69.81-24.42a20.15,20.15,0,0,1-3.2-.41,26.81,26.81,0,0,1-3.06-.76c-3.57-1.54-7.05-.16-10.59.41a196.08,196.08,0,0,0-54.05,6.74,23.64,23.64,0,0,1-7,.78c-2.86-.66-6.41-.39-6.53-4.78,25-11,52.25-15.89,78.22-12.32,75.33,10.36,130.27,48.58,152.84,125,2.61,8.85,8.45,14.75,15.76,19.9a425,425,0,0,0,36,23c34,19.12,57.4,48.37,75.47,80.77,19.36,34.7,26.58,73.21,15.32,113.45-3.74,13.36-6,27.11-11.64,39.92-3,.64-3.61-1.63-4.37-3.67-.9-5.3,1.2-10.19,2.27-15.23.21-1,1.15-2.24,0-2.89s-1.84.68-2.68,1.26a87.18,87.18,0,0,1-10.38,6.4c-.88.52-1.79,1-2.71,1.42s-1.8.92-2.71,1.34c-3.7,1.61-7.31,3.42-11.09,4.89-2,.76-3.93,1.57-5.92,2.34-8.88,3.88-18.16,6.51-27.4,9.38-21.45,4.28-42.52,11.09-64.8,8.75-15.1-2.4-30.45-2.83-45.49-6.43-26.1-6.23-49.8-16.53-68.89-36a22.4,22.4,0,0,1-2-2.7c-.63-.88-1.21-1.82-1.78-2.74-.32-.41-.63-.86-.95-1.27-.66-.78-1.27-1.63-1.88-2.48-3.28-5.23-6.67-3.15-10.06-.16-.79.65-1.63,1.23-2.49,1.81-1.29.86-2.5,1.84-3.73,2.79-9,5.43-15.5,12.51-17.88,23.29-1.75,7.94-8.25,13.54-13.35,19.16-9.25,10.21-10,21.16-7.19,33.37.44,2.46.46,5,1.47,7.38.5.88.95,1.78,1.43,2.69a53.86,53.86,0,0,1,2.9,5.66c31.4,52.5,82.37,62.69,137.29,62.76,31.41,0,61-8.34,87-26.84,8.48-6.79,17.53-12.91,25.67-20.16a46.94,46.94,0,0,0,6.48-8.09,28.83,28.83,0,0,1,1.86-2.39c.63-.82,1.31-1.58,2-2.34,1.85-1.91,3.67-3.88,6.74-3.14C527.65,462.39,528.66,463.46,527.59,465.29Z"/><path class="cls-3" d="M203.48,398.67c-29.19,6.38-75.69-12.73-85.9-35.62-7-15.58-4.82-30.07,4-44.95,12.92-22,18.95-45.12,4.8-69.46-4.5-7.74-9.6-11-19.22-9.54-18.48,2.82-37,5.86-56,1.35-46.81-11.1-62.39-55.11-31.78-92.12a279.61,279.61,0,0,1,44.77-42.89c10.6-8.18,17-19.88,25.78-29.62C113,50.15,140.7,32,173.62,21.88c2.24-1.08,3,.23,3.39,2.1-1,3.78-4.37,5-7.46,6.29-12.16,5.2-23.36,12.2-34.89,18.52-17.57,12.14-35,24.43-47.34,42.47a109.75,109.75,0,0,0-9,15.38c-3.81,17-.76,20.87,16.78,21.16,21.34.36,41.44-5.59,61.37-12.29,9.22-3.09,18.26-6.86,28.25-6.62a4.51,4.51,0,0,1,3.52,3.4c-.9,3.86-4.11,5.2-7.28,6.37a477.48,477.48,0,0,1-71.4,20.65c-9.57,1.92-19.49-.2-29.1-1.8-6.86-1.14-11.57-6.18-13.13-12.69-2.28-9.47-5.64-6.81-11.05-2.53a151.56,151.56,0,0,0-40.24,48.19c-2,2.89-2.17,6.34-3,9.59-3.29,22,11.36,44.41,32.72,50.38,21.72,6.07,43.43,5.19,64.83-.84,27.92-7.87,55.85-15.54,82.72-27.1,19.5-8.38,40.54-11.07,61.81-3.55a63.66,63.66,0,0,1,34.33,28.2C322.66,283.63,306.8,338.25,250,365.89c-27.31,13.29-56.28,16.57-86.07,11.65-19.29-3.19-34.68-12.36-42.6-31.39-.31-.74.08-1.76-.88-2.23a18.49,18.49,0,0,1,.49,3.31c2.24,13,7.83,23.31,20.42,29.32,16.75,8,33.26,16.33,52.69,14.58a13,13,0,0,1,9.66,2.51A3.9,3.9,0,0,1,203.48,398.67Z"/><path class="cls-4" d="M244.75,745.61l-2.74,2c-4,3-7.94.65-11.73-.36-17-4.55-33.79-10.37-48.64-19.71-12.59-7.93-25.08-10.74-39.23-7.39a26,26,0,0,1-3.09.92,34.69,34.69,0,0,0-5.93,2c-7.46,3.43-15,6.66-21,12.61a33.13,33.13,0,0,1-3.63,3c-12.7,7.63-22.21,18.45-30.31,30.67-.8,1.42-1.68,2.78-2.5,4.19a285.74,285.74,0,0,0-13,40.75c-1.63,9.34-.75,18.65-.16,28,.28,4.37,1.93,9-2.22,12.58l-4.73,1.91c-8.14-13.48-4.84-28.26-4.88-42.62C55,796.63,59,779.11,69.43,764c9.71-12.57,20.25-24.38,33.27-33.72,8.67-6.25,18.28-10.87,27.74-15.74,5.3-4,15.88-1.16,17-8.13.85-5.44-8.5-8.39-12.9-12.92-6-6.21-11.6-12.74-17-19.45-9.77-12.07-9.83-12-24.11-4.78-2.34,1.18-4.64,2.45-7,3.63C54.19,690.34,30,715.62,13.33,748.2a35.52,35.52,0,0,0-2.06,6.12,28.56,28.56,0,0,1-.92,3.25c-1.27,13.48-.49,27-1.14,40.5-.86,2.32-1.47,4.91-4.83,4.49-11.8-37,1.4-67,25.67-94.23,18.07-20.27,38.86-36.71,64-47.06,10-4.1,12.46-9.57,9.07-20.17-15.62-48.85-.79-90.27,32.41-126.79a1.56,1.56,0,0,1,2.19.07l.66.61c1.67,3.31,0,6-2,8.2C122,539,116,559,108.53,578.27c-1.59,3.1-1.61,6.52-2.1,9.87a24.61,24.61,0,0,1-.69,3.52c-2.41,37.56,6.36,69.15,42.16,89.16,31.86,17.81,64.51,32,100.86,38.06,37.5,6.22,74.61,14.5,112.92,14.6,76.4.19,150.51-13.56,223.25-35.89,15.14-4.65,30.36-9,45.56-13.36,4.3-1.25,8.7-2.69,13.27-1a3.28,3.28,0,0,1,2,2.85c-1.46,5.18-6.09,6.42-10.3,7.65-27,7.84-53.15,18.41-80.78,24a19.75,19.75,0,0,1-3.44,1.12,59.66,59.66,0,0,0-10.69,2.87c-56.54,12.91-113.42,23.14-171.67,23-43.7,2.46-85.85-7.57-128.1-16-30.88-5.63-60.22-15.59-86.87-32.77a24,24,0,0,0-4.54-2.4,25.19,25.19,0,0,1,3.85,2.35c22.81,20.08,50.75,30.29,78.47,41C236,740,243,738.78,244.75,745.61Z"/><path class="cls-5" d="M261.61,954.85c4.69-1.23,10,1.36,14.31-2.24,2.34-3.08,5.76-3.61,9.16-3.29,24.74,2.33,49.69,1.66,74.3,5.86,9.68,1.66,19.56.61,29.34.44C457.5,955.1,526,950.49,594,940.22c29.42-3.87,58.26-10.45,87.07-18a346.91,346.91,0,0,0,88.14-36.8A153.66,153.66,0,0,0,794,867.83c3.9-3.49,7.89-7.1,13.58-7.46,1.91.49,3.39,1.3,2.68,3.69-35.69,35.39-80.53,52.35-127.67,66.13C635,944.11,586.45,951.37,537.5,956.1c-38.1,3.69-76.25,7.36-114.68,8.41C370.13,966,318.05,960,265.75,956.23,264.34,956.13,263,955.33,261.61,954.85Z"/><path class="cls-6" d="M556.27,398.11c.84,1.73,1.69,3.45,2.53,5.17-6.59,22.6-16.62,43.46-31.21,62l-2.55-3c-1.6-2.69-.53-5.19.88-7.4a246.72,246.72,0,0,0,24.65-50.53C551.57,401.62,552.62,398.61,556.27,398.11Z"/><path class="cls-7" d="M749.28,550.7c.75-2.38,1.51-4.75,2.26-7.13,6.4,21.11,12.43,42.26,7,64.65-1.73-3.81,1.29-8.61-2.47-12C750.34,581.56,746.45,566.63,749.28,550.7Z"/><path class="cls-8" d="M810.3,864.06l-2.45-2.54c-1-4.27,2.89-5.26,5-7.41-3,1.53-5.5,3.81-8.46,5.33-4.63,2.38-8.92,5.84-14.67,5.16a5,5,0,0,1-2.87-3.7c9.34-9,20-15.74,32.46-19.48l7,6.72C821.72,854.16,816.82,859.93,810.3,864.06Z"/><path class="cls-9" d="M4.38,802.56l2.43-4.82c8,7.53,10.92,17,10.66,27.7q-1,2.35-2,4.71C11,821.27,5.12,812.94,4.38,802.56Z"/><path class="cls-10" d="M176.25,24.2l-2.63-2.32,23.22-8.4,7.2,2.33C196.24,23.49,187.15,26.85,176.25,24.2Z"/><path class="cls-11" d="M861.86,296.88c4,.49,2.32,4.68,4.24,6.51a2.25,2.25,0,0,1,1.63,2.07,15.51,15.51,0,0,1-1,4.25c-.15.46-.32.91-.46,1.38s-.31.92-.45,1.39c-1.19,3.82-.37,7.95-1.88,11.71a4,4,0,0,1-2.22,1.94L858,321.75Q859.94,309.31,861.86,296.88Z"/><path class="cls-12" d="M203.48,398.67c0-1.32-.09-2.65-.13-4,6.38-5,13.14-6.76,20.62-2.46l4.73,2.16C220.49,397,212.29,399.66,203.48,398.67Z"/><path class="cls-11" d="M857.9,330.71c2.88,2.87,2.36,6.34,1.7,9.83C857.17,337.58,857.22,334.2,857.9,330.71Z"/><path class="cls-13" d="M137.74,514.38l-1.1-.11-1.1,0,2-2.17C137.6,512.89,137.67,513.63,137.74,514.38Z"/><path class="cls-14" d="M517.92,925c-29.29,1.82-58.61,5.43-87.88,5.1-57.43-.66-114.9,2.62-172.35-3.8-26.35-2.94-35.89-20.46-45.37-39.81-3.39-6.93-4.37-15.05-6.45-22.63,24.43,1.31,48,8.54,72.3,10.68,18.32,1.61,36.57,4,55,3.87,33.42-.15,66.74,3.63,100.07,2.33,10.91.94,21.64,1.4,29.92-8.31,2.64-3.1,3.52-4.27-.88-6.13-5.84-2.47-9.64-6.23-4.61-12.93a52.72,52.72,0,0,1,20.73-4c10.77.83,20.62-1.1,28.24-9.66a13.61,13.61,0,0,1,3.42-1.24c33.53-6.42,67.77-7.61,101.31-14,8.46-1.62,15.2-4.58,15.51-14.74.15-4.85,3.53-7.23,7.63-8.81,19.54-4.31,38.56-10,56.1-20.05,3.86-2.2,7.86-4.65,12.74-4,6.35,2.52,9.09,8.59,10.7,14,9.37,31.2,10,62.17-4.84,92.25-3.58,7.25-9,11.57-16.71,14-25.51,8.09-51.73,12.91-78,17.39-9.6,1.64-18.84,5.52-28.83,4.86C563.11,921.51,540.82,927,517.92,925Z"/><path class="cls-15" d="M644.94,684.15c-44.27,10.67-87.14,26.33-131.75,36-65.6,14.19-131.79,21.59-198.44,13.29-59.69-7.43-119.13-17.14-171.63-51.14C109.55,660.54,97.31,627,103.67,589a10.44,10.44,0,0,1,4.17,5.22c12.51,29,36.62,45.35,63.51,58.48,39.77,19.43,82.32,29,125.85,35.22,26.12,3.75,52.27,7,78.61,8.55a258,258,0,0,0,49.55-2.4c32.46-4.44,65.5-4.28,97.43-12.28,5-.39,9.81-1.43,14.15-4.12,2.91-8.17-3.8-7.45-7.9-7.86-8.23-.82-16.56.08-24.83-.45-5.08-.33-11.13,0-11.38-7.77,8.67-7.89,20.28-7.83,30.49-11.47a55.29,55.29,0,0,0,27.75-10.67,60,60,0,0,1,17-8.33,20.77,20.77,0,0,1,3.06-1c8.34-1.55,15.95-5.15,23.56-8.73,4.32-2,8.54-4.32,13.28-5.22,14.41-3.38,17.15-7,17.25-23.26a8,8,0,0,1,1.65-2.7c10.45-5.68,16.47-15.1,21.55-25.39,3.17-6.44,6.28-13.06,14.31-14.87,8.86,1.62,14.51,8,20.55,13.86a21.74,21.74,0,0,1,1.94,2.53c1.37,2.31,3,4.46,4.56,6.65a20.08,20.08,0,0,1,1.74,2.92c8.84,15.44,17.32,31.05,19.2,49.13.85,8.12,2.9,16.69-4.18,23.49-3.54,8.67-10.58,13.81-18.33,18.23C676.26,678.8,661,682.54,644.94,684.15Z"/><path class="cls-15" d="M819.36,841.42c-9.77,8.14-20.93,14-32.05,20-3.45,7.17-10.64,9.38-17.07,12-16,6.61-32.55,11.53-49,16.81-4.36,1.4-9.26,2.6-12.64-1.39-3.66-4.32,1.33-7.41,2.79-11,9.89-24.09,10.73-49,5.61-74.09-4.25-20.86-15.1-37.85-31.86-51.34a127.8,127.8,0,0,1-20-19.7l-22.5-10.42c-3.3-1.53-5.92-3.43-.38-5.22,28.73-9.24,52-30.41,81.76-37.38,22.74-7.46,44-5,63.47,9.52a174.37,174.37,0,0,1,36.56,34.61C856.69,765.45,855.4,802.81,819.36,841.42Z"/><path class="cls-16" d="M436.63,884.19c-65.76-.2-131.56-.36-196.59-11.71-11.4-2-23.91-1.46-34.17-8.67-4.1-13.75-4.64-27.55-.43-41.39,18.88-.6,36.79,5.35,55.13,8.35a120.66,120.66,0,0,0,44.7-1.38c24.3-5.14,48.73-1.1,73-2.94,5.84-.44,10.69-.79,14.33-6.66s10.81-6.26,17.19-6.62c8.26-.47,16.54-.14,24.84-.22,24.83.24,49.24-4.28,73.86-6.21,2.25-.18,4.57-.84,6.73-.42,15.09,3,29.76.36,44.4-3,1.1-.25,2.37-.81,3.31-.41,13.33,5.53,27.53,4.43,41.45,5.59,6.15,11.35,3.93,17.08-7.76,19.79a154.06,154.06,0,0,1-32.33,3.89c-10.51.17-21,.74-31.18,4.16-7.77,2.63-15.93,3.69-24,4.82-.75,0-1.49,0-2.24,0-4.72,3.58-10.56,3.27-15.94,4.55a19.85,19.85,0,0,0-11.32,6.69l-22.52,2.39c-3.61,3.58-8.27,2.8-12.68,3.17-1.61.13-4.46-.8-4.48,1.09,0,1.6,3.05,1.33,4.81,1.55,6.61.85,16,1.16,16.88,7.71,1,7.53-9.27,8.09-14.76,11.44C443.72,881.67,439.72,881.94,436.63,884.19Z"/><path class="cls-17" d="M920.77,559.65c-22.94,53-47.61,104.86-94.32,142.12-5.33,4.25-8.13,5-13.74-.1C793,683.71,772.83,666,747.65,656c-7.12-2.85-6.25-5.48-2.92-10.36,5.46-8,10.26-16.14,18.54-22.15,19.65-14.27,33.83-33.93,48.88-52.66,8.86,6,6.18,14.05,3.91,22.09-.75,2.69-4.19,5.64-1.44,8.09,2.47,2.21,5.57-.74,8.27-1.72,27-9.74,50.1-26.75,75.33-39.81,3.65-1.89,7-4.34,10.75-6.1C915.66,550.15,919.81,552,920.77,559.65Z"/><path class="cls-15" d="M228.25,773c12.81-17.93,29.17-21.53,50.84-17.6,74.11,13.42,148.34,9.36,222.43-2.15,41.36-6.42,81.8-16.66,121.94-28.08,15.73-4.47,26.4,6.4,39.58,9.38,7.22,2.87,15,5.3,13.45,15.73-3.9,5.25-9.6,6.47-15.2,5-11.54-3.09-22.3,0-33.22,2.8C572.51,774,515.91,785.23,458.44,789.45c-51.27,3.76-102.81,4.17-154.29-.6-21.08-2-41.59-6.63-62.49-9.21C236.64,779,230.84,779,228.25,773Z"/><path class="cls-18" d="M207.69,810.81c3.06-10.32,7.33-20,14-28.56,13.6-.11,26.85,2.88,40.13,5.1,54.47,9.1,109,11.68,164.07,5.74,35.48-3.82,71.27-4.73,106.66-9.92,26.08-3.82,52.09-7.94,77.07-16.85a131.56,131.56,0,0,1,54.4-7.65c4.34.32,10.78-1.48,10.11,6.77a10.77,10.77,0,0,1-2,3.2,18.32,18.32,0,0,1-4.43,3.18,22.6,22.6,0,0,1-3.05,1.58c-4.86,2.39-10.47,3.07-15,6.39,1.54,15.47-6.19,21.34-20.71,14.47a26.2,26.2,0,0,0-23.82,0C581.27,805.75,555.25,805,530,807.2c-17.85,1.53-35.69,4.3-53.73,4.35-23.66.73-47.41,1.78-70.72,4.38-17.25,1.93-34,3.91-51.24,1.86-4.1-.49-8.6,0-12,2.31-14.78,9.95-31.55,9.59-47.87,8.24-15.4-1.28-30.37,4.64-45.93.58-12.21-3.19-24.39-6.94-37.32-7.46C204.16,821.18,207.45,814.9,207.69,810.81Z"/><path class="cls-19" d="M749.28,550.7c2.56,15.13,6.63,30,6.76,45.52-6,25-24.51,40.14-43.29,55-4.79-1.08-4-4.73-3.49-8,4.28-26.81-7-48.81-21.37-69.88l.13.16c-1.7-2.23-2.91-4.77-4.65-7l.12.15c-18.87-23.17-43.23-34.82-73.06-35.71-5-.15-12.22,3.66-14.65-5,26.91-17.69,55.93-29.92,88.58-25.29C714.55,505,736,523.06,749.28,550.7Z"/><path class="cls-19" d="M60.55,854.79c-1.84-14.57-3.63-29.14-.15-43.72,19.84,14.49,43.38,20.53,66,28.46a598.07,598.07,0,0,0,58.53,17c4.81,1.16,9.52,2.45,14.31.13,4.15,22,11.35,42.57,24.93,60.75,5.06,6.76-1.35,6-5.3,6-22.78-.48-44.41-6.65-65.9-13.49-30-9.57-56.75-25.49-82.73-42.91C65.59,863.82,63.05,859.42,60.55,854.79Z"/><path class="cls-20" d="M199.25,856.65c.12,4.93-1.88,6.28-6.82,5.05C150.36,851.3,108.91,839.06,69.36,821c-4.21-1.93-9.29-3.66-9-10,4.09-13.64,7-27.69,14.05-40.29,5.62-2.61,10.9-1.66,16,1.43,6.77,4.08,14.47,6.88,20.57,11.67,22.88,18,51.23,22.74,77.2,33.21,3.8,1.53,8.11,1.94,10.54,5.88C198.26,834.2,195.47,845.47,199.25,856.65Z"/><path class="cls-21" d="M597.34,943.07c-68.94,11.58-138.47,15.44-208.26,15.86a10.75,10.75,0,0,0-7.71-.88c-15.06,2.92-27.26-6.44-40.94-9.33a10.52,10.52,0,0,1-5.54-3.76c-1.77-2.08-3.19-4.43-2.42-7.19,1-3.63,4.28-2.37,6.65-2.39,20-.11,40-.22,59.93,0,11.27.13,22.58-1,33.81.75l92-9.06c13.64-3.91,27.8-4.72,41.77-6.21,9.22-1,18.35-3.94,27.76-2.61a37,37,0,0,0,8.89-1.76c1.12-.26,2.27-.46,3.4-.61,7.17-.31,16.08-.46,17.54,7.56,1.37,7.56-7.91,8.25-13.44,10.56C605.62,936.14,600.11,937.5,597.34,943.07Z"/><path class="cls-22" d="M920.77,559.65c-3.22-4.79-5.74-7-12.36-2.93-21,13-42.63,25.16-64.36,37-8.83,4.81-18.56,8-27.88,11.89-2.37,1-4.95,3-7.13.19-2-2.53-.1-5.13,1.18-7.3,5.29-9,7.46-18,1.93-27.71l18.51-31.13c3.25,1.88,4.23,5,4.54,8.43-1.94,11.46-7,22-10.43,33-.87,2.74-3.43,6.3-1,8.33,3,2.54,5.17-1.54,7.21-3.29,5.18-4.43,11.7-6.57,17.05-10.61,1.14-1,2.28-2,3.42-3s2.14-2.07,3.2-3.13,2.08-2.22,3.15-3.32c2.93-2.92,5.55-6.6,9.57-7.7,12.85-3.51,18.17-13.61,22.51-24.75,3.87-9.09,7.92-18.09,11.44-27.33,12.62-24.07,24.56-48.42,33.54-74.14,3.1-8.89,6.62-17.69,13.67-24.46,2.94-2.82,3.24-6.63,3.49-10.46s-.2-7.69,3.42-10.28c3.53,20.08,2.67,40-1.53,59.92a3.76,3.76,0,0,1-.87,2.07C948.87,487.78,936,524.06,920.77,559.65Z"/><path class="cls-23" d="M669.81,768.52c2.53-3.77,5.2-6.9-2.9-7-15.5-.2-31,.16-45.71,5.06-45.14,15-91.5,21.83-138.89,25.24-43,3.09-85.83,9.27-129,8.13-32.12-.85-64.37-2.64-96-9.93-11.85-2.73-24.83-.31-35.67-7.77q3.25-4.63,6.53-9.26c22.51,3.83,44.94,8.39,67.57,11.27,19.34,2.47,38.92,4.25,58.39,4.15,36.7-.17,73.51-.54,110.08-3.31,55.89-4.25,110.49-16.7,164.79-30.21a63.87,63.87,0,0,1,25.38-.38,73.76,73.76,0,0,0,27.61-.87,8.54,8.54,0,0,1,3.59.3,6.66,6.66,0,0,1,2.64,2.38c.16.57.32,1.15.49,1.72C685.26,766.6,679.43,771,669.81,768.52Z"/><path class="cls-24" d="M432.86,936.13c-29.62.12-59.25.15-88.88.51-3.15,0-8.62-2.88-9.29,2.51-.6,4.86,4.51,6.5,8.64,7.17,15.72,2.56,29.14,13.41,45.75,12.61l-113.16-6.32c-38.05-6.34-76.72-9.21-113.87-20.51-12.57-3.82-24.85-8.39-35.81-15.9-3.06-4.09-10-7-4.24-13.79,29.41,11.39,58.9,22.87,90.73,25.16,57.6,4.14,115.17,9,173.06,6.84C401.42,933.84,417.29,932.54,432.86,936.13Z"/><path class="cls-25" d="M952.35,530.26c-17.9,64.88-46.93,123.81-92.92,173.56a119.51,119.51,0,0,1-15.06,13.64c-5.07,3.88-9.48,9.22-16.83.86s-2.3-10.77,3.28-15.29c41.71-33.71,66.25-79.39,87.55-127.21,7.33-16.48,14-33.27,20.9-49.91C945.82,520.74,949.45,524.41,952.35,530.26Z"/><path class="cls-26" d="M368.72,741.55c23.28-1.24,46.8-.8,69.78-4.12,34.86-5,69.34-12.66,104-19.19,16.64,2.91,17.71,4.3,14,18.24l-4,.51c-2.12,1.65-5.15,0-7.18,2-44.24,12.27-89.5,17.06-135.21,18.5-21,1.94-42,.33-63,.81-2.58.06-5.64.38-6.36-3.07-.59-2.87,1.27-4.93,3.31-6.72,3.57-3.15,8.06-3.87,12.48-4.7C360.65,743.05,364.8,742.94,368.72,741.55Z"/><path class="cls-27" d="M556.53,736.48c1.45-10.82-6.13-14.66-14-18.24,2.81-2.58,6.18-2.32,9.59-1.92h0l92.87-29.48c14.57-7.47,30.58-11.24,45.46-17.93,19.94-10.17,38-22.89,52.78-39.9,1.52-1.74,2.79-5.86,5.33-4.12,2.3,1.57-.47,4.74-1.54,7.05-9.39,20.33-26,33.91-43.9,45.94C658.42,707.88,609.37,727,556.53,736.48Z"/><path class="cls-28" d="M855.41,478.09c6.69-25.79,13-51.61,15.86-78.22,2.1-19.25,12.24-32.67,31.71-37.75.26.49.52,1,.79,1.45-12.08,34.69-14.3,71.55-23.18,106.93-4.12,16.44-8.31,32.95-16.48,48a168.87,168.87,0,0,0-7.8,17.57c-1.88,4.68-6.47,12.89-3.82,13.84,5.38,1.92,10.71-3.58,14.86-8.06,2.29-2.47,3.57-5.82,6.58-7.68a5.9,5.9,0,0,1,3.22-.27c3.13,1.94,1.63,4.67,1.24,7.19-1.19,3.84-4,6.74-6.17,10a24.88,24.88,0,0,1-1.59,2.22,23.27,23.27,0,0,1-1.72,2c-.29.31-.61.61-.9.92-.57.62-1.19,1.21-1.8,1.78-.29.3-.61.59-.9.88-.58.61-1.18,1.2-1.78,1.79-.29.31-.6.6-.9.92-.58.65-1.19,1.26-1.8,1.88-.31.33-.63.64-.94,1-.63.7-1.28,1.34-2,2l-1.07,1c-4.71,3.85-9.3,7.82-14.06,11.67-1.63,1-3.38,1.74-5,2.74-2.92,1.84-6.09,3.74-9.25.95-2.74-2.43-1.25-5.57-.37-8.43a189.45,189.45,0,0,0,5.92-25.21c1.16-10.21,6-19.22,9.92-28.41C849.91,507,855.25,493.28,855.41,478.09Z"/><path class="cls-29" d="M925.54,285.77c22.77,13.32,34.24,46.45,24.49,69.91-1.8,4.34-3.62,4.44-7.56,2.82-19.67-8.12-37.92-3.31-55.94,6.05-10,5.22-14.14-4.4-17.55-10.29a56.5,56.5,0,0,1-7.27-28.13l1,.28c23.29,9.74,35.73,7.4,51.11-9.64,5.41-6,9.86-12.32,8.12-21.14C921.22,291.76,921.73,288.1,925.54,285.77Z"/><path class="cls-30" d="M140.17,718.69c12.84-4.44,24.9-5.36,37.37,2.76,19.68,12.81,41.9,20.11,64.47,26.18,6.48,2.12,4,4.3.23,7-8.5,5.94-16.71,12.26-22.89,20.79-20.09-8.28-42.11-10.58-61.84-20.09-7.76-3.74-15.7-7.13-23.06-11.62-3.54-2.15-7.28-4.87-6.24-9.69.91-4.2,5.06-3.7,8.34-4.1C145.74,728.74,139.42,722.57,140.17,718.69Z"/><path class="cls-31" d="M215.72,780.09c-4.87,11.33-11.85,21.73-14.87,33.87-1,2.74-1.56,6.48-5.73,4.52-6.72-3.15-14.52-3.34-20.75-7.75-5.41-4.49-11.84-6.37-18.59-7.46-9.79-1.6-18.89-4.86-26.63-11.31-8.2-6.82-10.39-18.24-5-26.27,4.82-7.21,11.92-7.62,23.07-2.38,16.31,7.65,32.72,15,51.05,16.94a30.51,30.51,0,0,0,14.25-1.44A4.21,4.21,0,0,1,215.72,780.09Z"/><path class="cls-32" d="M17.47,825.44q-5.34-13.85-10.66-27.7c-1-14.36-2.92-28.75,2-42.84,5.28,0,6.88,4,8.27,7.91,5.89,16.51,16.43,29.45,30.16,40,3,2.33,5.75,4.86,6.71,8.77q.94,22.58,1.9,45.15C41.16,848.59,26.46,840.53,17.47,825.44Z"/><path class="cls-33" d="M955.39,387c5.17,18.21-11.39,28.09-16.32,42.46-9.36,27.29-20.89,53.67-36,78.35a5.42,5.42,0,0,1-1.81-2.94c-.64-4.38,1.74-8,3.11-11.84,9.67-27.31,20.53-54.35,21-84,.2-12,.83-24.24-9.86-33-2.18-6.14-6.74-10-12.48-12.67a2.44,2.44,0,0,1-.06-1.26C929.91,353.24,950.48,363,955.39,387Z"/><path class="cls-34" d="M368.72,741.55c-6.92,2.66-13.86,5.26-20.73,8-2.38,1-5.67,2.1-5.11,5.13.62,3.4,4.21,2.33,6.64,2.35,20.21.2,40.41.29,60.62.4-34.55,3.76-69,.54-103.49-1.17-21.2-1.06-40.61-11.08-61.9-10.68l-14.58-6.3c-2-3.22-2.69-6,1-8.88,2.07-1.6,6.47-.17,6.3-4.68,28.41,4.62,56.75,9.84,85.27,13.62C337.92,741.39,353.39,740.9,368.72,741.55Z"/><path class="cls-35" d="M207.69,810.81c-.05,5.34.47,8.49,7.92,8.11,7.61-.38,15.46,2.3,23.06,4.18,11.67,2.9,23,5.86,35.34,2.45,13.89-3.83,28.24,1.25,42.39-.29,4.07-.45,9.37.46,12-1.75,13.66-11.6,28.79-8.28,44.74-7.93,25.76.58,51.68-2,77.37-4.76,9-1,18-.85,26.93-1.42-.65,5.58-5,2.94-7.76,3.28-11.71,1.49-23.52,2.13-35.25,3.52-8.68,0-17.54-1-26,.45-5.27.93-15.86-2.73-13.88,10.4.61,4-5.42,2.65-8.47,2.67-18.32.17-36.68-.62-55,.32-13.94.72-27.86,3-41.62,5.54-14.94,2.72-28.85-3.55-43.44-3.73-13-.16-25.35-12.33-39-2.23l-1.65-7.2Z"/><path class="cls-36" d="M896.44,214.49c10.36,2.83,16.79,10.31,22.27,18.9-1.54,11.72,1,23.21,2.38,34.71.86,7-1.4,8.19-7.27,6.19-16.79-2.23-31.73,1-43.4,14.4-4.17,4.78-8.16,2.84-11-1.37-3.28-4.88-7.71-9.22-8.6-15.46-.35-7.75,4.53-8.6,10.44-7.82,11.2,1.5,19.75-3.56,27.26-11s10.72-16.2,8.07-26.83C895.65,222.4,892.81,218.43,896.44,214.49Z"/><path class="cls-37" d="M606,918.07,605,918l-.85.42c-2.22,1.59-4.77.8-7.18,1-3.44-1.54-8.7,3.24-10.76-3.1,34-5.91,68.07-11.89,101.46-21,9.69-2.65,16.5-7.69,20.93-17,12-25.31,13.43-79.19-6.55-101.26-6.92-4.89-11-11.89-14.35-19.44l-.17-.19a3.75,3.75,0,0,0-2-2l-.18-.18c-3.48-1.63-8.19-1.9-8.21-7.39L663,734.54l2.14-1.79c46.34,30.93,63.09,64.36,55.63,119.27-1.52,11.25-3.3,22.27-10.15,31.77-.78,1.08-1.54,3.54-1.09,3.92,2.59,2.19,5.81,1.42,8.57.43,21.53-7.69,44.19-12.42,64.07-24.47a42.55,42.55,0,0,1,5.1-2.28l2.46,2.26c-1.79,6.21-7.27,8.42-12.28,10.76A373.15,373.15,0,0,1,703,900.13c-23.8,5.47-47.73,10.42-71.51,16C623,918.15,614.36,916.09,606,918.07Z"/><path class="cls-38" d="M875.71,154.22c15.19,11.28,21.46,27,22.08,45.33.16,4.45-.3,8.23-7.78,6.34a32.45,32.45,0,0,0-32.7,10.31c-8.47,9.81-13.33,4.67-18.43-1.4-3.73-4.44-7.86-9.19-8.45-15.58,1.85-4.67,5.67-3.74,9.48-3.65,19.87.48,30.49-9.57,31.69-29.67C871.86,161.65,869.91,156.55,875.71,154.22Z"/><path class="cls-39" d="M848.54,260.44c-.35-13.27.88-26.48,8.34-37.69,5.8-8.7,14.31-14.23,25.79-12,2.9,1.83,6.44,0,9.38,1.63l0,0c1.27,3.52,1.22,7.29,2.08,10.92,4.37,18.43-7.74,36.85-26.24,40.9C860.74,265.77,854.9,262.17,848.54,260.44Z"/><path class="cls-40" d="M215.72,780.09l-3.17-.18c-7.49,4.14-15.08.78-21.77-1.3-24.06-7.5-47.16-17.66-69.8-28.77a26.52,26.52,0,0,1-9.62-7.63,10.63,10.63,0,0,1-1.36-2.69c-.41-1.4.72-2.62.62-4-.09-.44-.17-.88-.26-1.32,6-7.32,14.79-9.69,22.89-13.32,1.29-1.29,3.22-.89,4.67-1.77l2.25-.41c4.5,3,7.62,7.41,5.54,12.56-2.17,5.37-7,1.93-10.83,1.44-1.55-.2-4.47.62-4.7,1.52-.94,3.64,2.23,5.32,4.74,6.66,13.55,7.19,27.26,14.13,42,18.62,11.42,3.48,23.07,6.17,34.6,9.26,3.63,1,7.49,1.75,7.87,6.63Z"/><path class="cls-41" d="M828.32,194.6c-8.94-15.64-.83-28.23,7.29-40.81,1.84-6.12,6.82-3.71,10.8-4l15.84-.71c1.79,2.36,5,.47,7,2.31l0,0c2,7.77,1.43,15.7.61,23.47-1.22,11.55-13.5,20.86-27,20.61C838,195.36,833.09,195.57,828.32,194.6Z"/><path class="cls-42" d="M952.35,530.26c-3.12-5.2-9.14-1.64-13.08-4.35.15-.8.3-1.6.46-2.4.47-1,1.3-1.74,1.49-2.85a742.85,742.85,0,0,0,19.17-88.07c1.58-10.55,1.27-21,1.41-31.58a24.31,24.31,0,0,1,.74-4.08,17.86,17.86,0,0,1,2.47,3.3c4,9.23,4,19.06,4.15,28.87.38,32.31-5.4,63.67-14.58,94.5-.53.87-1.06,1.73-1.61,2.59Z"/><path class="cls-43" d="M846.41,149.79l-10.8,4c-4.51-3.77-4.82,1.63-6.08,3.25-7.68,9.83-13.64,10.26-22.33.9A28.85,28.85,0,0,1,799,137.89c3.35-1.85,6.59-.25,9.88.28,14,2.26,22.18-3.09,25.58-16.89.82-3.34,1.22-6.78,5.11-8.1,14,4.06,15.87,15.54,16.26,27.53.23,7.17-9.19,1.87-10.57,7.46a1.28,1.28,0,0,0,.29.93A4.7,4.7,0,0,0,846.41,149.79Z"/><path class="cls-44" d="M866.37,305a2.87,2.87,0,0,0-.27-1.58c8.84-18.42,22.87-27.56,43.7-24.57.7.33,1.56.63,1.84,1.25,4.8,10.73-1.66,25.25-14.67,33.07-14.17,8.52-24.33,7.57-32.8-3.08a3,3,0,0,1,.68-2A5.6,5.6,0,0,0,866.37,305Z"/><path class="cls-45" d="M122,902.41c-3.25,6,5.65,8.32,4.24,13.79-34.89-11.09-64.17-30.34-86.35-59.84a43.6,43.6,0,0,1-3-5.31c2.7-1.27,4,1.14,5.71,2.3A810.83,810.83,0,0,0,122,902.41Z"/><path class="cls-46" d="M839.54,113.18c-4.69,6.18.61,15-6.26,21-10.83,9.42-22,10.27-34.31,3.71-1.57-8.71,1.19-16.73,4-24.74,1.73-4.5,5.3-5.34,9.56-4.83C822.09,106.66,831,109,839.54,113.18Z"/><path class="cls-47" d="M772.08,97C766,86.91,756.89,76.71,767.86,65c7.21-7.72,22.66-2.29,35.72,11.44-1,18.49-10.41,25.85-29.93,23.28h0A18.92,18.92,0,0,0,772.08,97Z"/><path class="cls-48" d="M864.17,310.06c11.08,8,22.36,7.29,32.92-.42,10.25-7.47,16.22-17.34,12.71-30.82a12.68,12.68,0,0,1,9.22,3.92c5.66,14,3.13,26.63-7.66,36.94-10,9.51-21.45,15.32-35.77,9.86-11.1-4.24-12.61-6.79-11.54-19.53Z"/><path class="cls-49" d="M773.65,99.67c1.35-.66,2.77-2,4.05-1.88,15.94,1.65,20.88-9.88,25.88-21.4,10,8.67,13.33,19.21,8.91,31.93l-9.56,4.83C792.44,119.65,784.14,115.83,773.65,99.67Z"/><path class="cls-50" d="M176.34,809.39c8.41.22,15.32,8.54,24.51,4.57q-1,4.5-2.06,9c-38-10-74.2-24.14-106.7-46.67-5.47-3.79-11.57-4.33-17.64-5.52l1.26-2.47c6.33-7.94,12.48-9,21.83-3,10.21,6.56,20,12.89,27.89,22.38,5.88,7.1,14.09,11,23.24,12.83C158.19,802.45,167.93,803.88,176.34,809.39Z"/><path class="cls-51" d="M864.05,310c1.26,14,16.34,22.29,30.51,16.95,20.73-7.81,26.22-24,24.46-44.22l6.52,3c2.38,17.44-4.26,30.68-17.82,41.58s-36.41,10.87-45-.94C862.51,320.89,860.88,315.26,864.05,310Z"/><path class="cls-52" d="M848.54,260.44c5.84-4.53,10.35,2.21,15.75,1.87,15.84-1,31-20.88,27.38-36.14-1.1-4.65-3.44-9.31.41-13.79l4.36,2.12c6.85,26.77,3.57,36.35-15.59,48.87-6.58,4.3-13.64,4.74-20.51,3.54-5.34-.94-7.22,1.63-9.51,4.95h0c-2.23-2.71.34-6.57-2.19-9.21Z"/><path class="cls-53" d="M719.75,673.65c19-18.42,20.4-18.62,46.34-3.37,6.1,3.59,11.65,8.12,17.45,12.22-7.19,3.83-12.67-2.37-19-3.53-8.42-1.56-16.54-4.62-25.26-2.54-4.64,0-9.31-.08-14,.28a27.79,27.79,0,0,1-5.15-.31A1.61,1.61,0,0,1,719.75,673.65Z"/><path class="cls-54" d="M855.41,478.09c6.81,21.06-7.6,37.18-13,55.37-1.57,5.28-4.74,10.09-7.18,15.12-.8,1-1.59,1.09-2.34-.06q-1.11-4.44-2.21-8.87C839.83,519.5,849,499.34,855.41,478.09Z"/><path class="cls-55" d="M828.32,194.6c5.19-3.23,11-1.88,16.56-2.3,14-1.08,21.8-9.44,22-23.23.08-6-1.17-12.16,2.32-17.7l6.54,2.85c-4.72,5.3.39,11.17-1.22,17.17-5.63,21-16.12,29-37.69,26.53-2-.23-4.24.84-6.37,1.3Q829.38,196.91,828.32,194.6Z"/><path class="cls-56" d="M913.82,274.29c1.24-1.36,5.44,1.78,4.33-3.59-1.81-8.7-2.47-17.65-3.77-26.46a10.94,10.94,0,0,1,4.33-10.85q1.32,2.06,2.62,4.11h0c7.72,7.06,7.65,17,8.08,26C929.9,273.49,926.34,281.34,913.82,274.29Z"/><path class="cls-57" d="M738.51,673.5c16.18-2.85,30,6.29,45,9,4.44.41,3.93,3.75,4,6.75-20.33-8.7-41.41-12.4-63.47-9.52-.5-3.82-6.74.86-6.35-4.29a1.21,1.21,0,0,1,1.94-.29l4.6.18C728.8,673.14,734,675.72,738.51,673.5Z"/><path class="cls-58" d="M687.89,573.38c16.08,17,25.19,36.77,23.92,60.7-.3,5.73-3.33,11.69.94,17.19-3.94,3.37-4.13-1.91-6.25-2.73,4.7-23.74-2.91-44.79-14.06-65.11C690.67,580.22,689.39,576.74,687.89,573.38Z"/><path class="cls-59" d="M586.23,916.29c3.31,3.39,7.65,1.3,11.43,2.14.56,1.08.23,1.67-1,1.78l-71.87,6.86c-1.76-2.47-4.51-1.68-6.9-2.12Z"/><path class="cls-60" d="M690.38,668.92c-13.73,9.62-29.86,13.08-45.46,17.93,0-.9,0-1.8,0-2.7l43.23-17.38Z"/><path class="cls-52" d="M892.05,212.41c-3.29.39-6.68,1.35-9.38-1.63C885.87,210.89,889.3,209.71,892.05,212.41Z"/><path class="cls-36" d="M848.66,262.66c3.23,2.47,2.23,6,2.19,9.21C847.71,269.37,848.79,265.87,848.66,262.66Z"/><path class="cls-55" d="M869.21,151.39c-2.68.31-5.28.38-7-2.31C864.92,148.8,867.41,149,869.21,151.39Z"/><path class="cls-27" d="M545.35,739c1.86-2.59,4.52-2.27,7.18-2Z"/><path class="cls-15" d="M719.65,675.15a12.8,12.8,0,0,1-1.94.29l2-1.79C719.7,674.15,719.67,674.65,719.65,675.15Z"/><path class="cls-49" d="M772.08,97c.52.89,1,1.78,1.58,2.67C773.13,98.79,772.6,97.9,772.08,97Z"/><path class="cls-25" d="M953,526.19l1.61-2.59Z"/><path class="cls-42" d="M953,448.94c.29-.69.59-1.39.87-2.07Z"/><path class="cls-25" d="M941.22,520.66l-1.5,2.85Z"/><path class="cls-61" d="M224,392.24l-20.62,2.46c-23.32,2.08-44.45-4.79-64.75-15.56-16.21-8.6-24.27-26.16-19.12-42.79.33-1.06.73-2.11,1.1-3.16.48.74,1.25,1.43,1.38,2.23,4.75,28.18,25,38.26,49.86,40.38,36.26,3.11,71.07-3.15,99.85-27.18,30.58-25.54,40.48-62,24.78-99.55-7.54-18-16.44-34.54-35-43.82C237,193,213.3,198.34,189.57,207.33c-40.07,15.17-79.87,31.7-124,30.06C31.56,236.13,6.9,213,8.75,184.52c.14-2.13,1.26-4.19,1.92-6.28,5.44,8.17,7.39,18.85,17.09,23.94,3.45,1.83,5.74,5.36,9.68,6.51,9.07,2.92,18.11,5.75,27.78,3a19.07,19.07,0,0,1,4.66,1.5c13.67.41,26.92-2.3,39.76-6.3,33.64-10.49,67.33-20.91,99.1-36.57,8.09-4,15.57-9,23.65-13,11,.53,20.06,7.39,31.14,8.66,27,3.11,65.7-19,61.73-56.89-1.35-12.9-9-21.75-20.83-27.43-4.37-2.11-11.63-2.79-9.93-11,4.23-4,9.58-4,14.86-4.18,6.39-.23,12.83.35,19.18-.72,12.55-2.12,18.44-8,20.7-20.54.73-4,.07-8.43,3.59-11.56,31.81,22.18,56.54,49.91,68.08,87.82,4.14,13.59,7.74,27.34,11.59,41,2.4,3,3.25,6.59,4.08,10.21-.14-3.54-2.51-6.74-1.33-10.54a8.08,8.08,0,0,0-.56-6.47l-.33-7.55c1.95.84,4.12,1.36,5.82,2.56,13.71,9.61,30.18,15.12,41.64,28.08-.78,9.54,10,12.73,11.52,21.05.48,2.25,1.07,4.84,0,6.71-6.72,12.25.32,20.68,7.81,28.9a254.67,254.67,0,0,0,22.68,22.11c14.16,17.95,19.2,38.89,20.3,61.15,1.15,23.22-.38,46-11.89,66.92-9.92,6.36-21.07,9.66-32.14,13.19l-1.36-.85c-6.09-7.1-7.55-15.67-5.74-24.31,2.17-10.4,2.4-20-4.65-28.68-3.29-4-.25-13-5.74-13.11-5.15-.12-9.08,7-13.26,11.12-4.82,4.8-6.57,11.65-9.57,17.65-2.39,6.13-6.61,10.35-12.25,13.88-10.1,6.34-16.07,23.5-13.11,35.23-38.11-3.61-76.2-7.28-107.41-33.27-1.73-1.45-3.66-2.67-5.28-4.23-14.46-13.92-14.75-18.57-1.07-33,5.43-5.74,11.16-11.12,15-18.11.8-1.45,3.73-2.78,1.61-4.47-1.91-1.54-3,1.26-4,2.54-14.18,17.71-31.1,32.3-48.82,46.44C266.33,380.16,244.45,384.19,224,392.24Z"/><path class="cls-13" d="M524.94,652.82l-31.69,9.1c-2.92,3.53-7.53,2.89-11.08,4.57,8.72,2.5,17.56,2.43,26.35,2.19,6.45-.17,11.58,2.48,16.33,6.22,3.82,3,5.39,6.41.06,9.65-20.24,6.63-41.46,6.54-62.29,8.93-24.21,2.77-48.52,5.95-72.82,6.36-25.07.43-50.12-2.34-75.11-5.89-46.26-6.58-92-14.4-135.18-33.54-23-10.18-44-22.9-61-41.68A62.29,62.29,0,0,1,103.67,589a3.6,3.6,0,0,1,.45-1.93c2-2.8-.19-6.49,1.9-9.28,6.46-23.19,16.93-44.3,32.38-62.84l69.12-55.79c6.69,3.47,4.29,7.93.95,12-5,6.12-11.08,11.3-16.47,17.09-.74.79-2.88,1-1.91,3a21.27,21.27,0,0,0,2.75-1.94c5.79-5,11.68-7.7,20.09-8,8.81-.31,15.33-8.78,22.81-13.73,4.35-2.87,7.78-7.21,13.34-8.06,1.37,2.48,2.74,4.95,4.1,7.43.37,6.27-5.33,7.49-8.87,10.28-13.88,11-27.54,21.92-35.89,38.24-6.59,12.89-3.55,24.22,4.63,34.54a53.93,53.93,0,0,0,25.64,17.69c5.35,1.79,10.72,3.53,14.59,8h0c2,2,5,.42,7.14,2a2.88,2.88,0,0,1,1.9.39c2,1.93,5,.21,7,2a6,6,0,0,1,2.06.25c3.49,2.49,8-.4,11.46,2.07a4,4,0,0,1,2.07.47c1.63,1.22,4.6,0,5.3,2.9-3.69,8.73.93,12.29,8.68,13.59,6.19,1.05,12.32,2.38,18.56,3.2,3.33.43,8.18.81,5.53,6.79-4.39,4.14-9.79,4.2-14.88,2.93-17.46-4.37-35.23-6.76-53-9.22-9.66-1.34-18.14-7-27.8-8.59-16.45-6.4-29.14-16.82-35.66-33.81-9.78-25.52-34.35-28.24-55.68-13.51-9.61,6.63-11.8,18.38-7.36,29.41a41.42,41.42,0,0,0,16.51,19.58c15.65,10.09,32.2,17.94,51.13,19.6,10.2.9,19.84,4.38,29.44,7.59,22.95,7.69,46.52,11.66,70.61,13.05,24.09,5.63,48.73,2.95,73,5,1.84.16,3.73-.43,5.6-.6-1.42-1.05-3-.35-4.51-.35a60.59,60.59,0,0,1-18.93-2.59c-2.85-.93-6.24-2-5.92-5.76s3.78-4.6,6.74-4.82c12-.92,24-1.31,36-2.72,31.37-3.7,62.89-6.12,94.12-10.93a101.21,101.21,0,0,1,14.57,0c3.84.26,8.2.94,8.84,5.4,1.4,9.86,8.31,8.09,14.45,7.27,29.86-4,58.11-13.64,85.66-25.53,2.11-.91,4.12-1.77,6.44-1,3.68,4.27-.33,6.74-2.46,9.33-3.13,3.81-7.44,6.15-12,7.86-11.9,4.47-25,6.56-34.1,16.66-4.46,2.88-9.57,5.13-14.55,5.64C538.92,640.33,530.75,644.17,524.94,652.82Z"/><path class="cls-62" d="M495.13,405.4l27.47-9.09c4.54,5.41.62,10.48-.77,15.56a127.26,127.26,0,0,1-7.25,19.69,28.78,28.78,0,0,1-2.91,5.72c-.78,1.31-1.63,2.59-2.47,3.87-.5.86-1.06,1.69-1.61,2.53s-1,1.73-1.5,2.6c-.22.45-.47.89-.7,1.35-1.94,4.46-4.49,8.8-3.43,13.94,2.79,13.45-1.12,24.32-12.16,32.6a8.58,8.58,0,0,0-3.19,4.51c-43.3,31.48-91.64,34.43-141.87,24.26-25.32-5.13-48.42-15.55-68.4-32.77-9.79-8.44-14.55-19.63-20.83-30.11,11.59-12.83,24.5-24.38,36-37.36,7.27-8.73,11.36-18.13,8.75-29.94-1.21-5.46-.06-11.28,2.52-16.46s6.21-8.66,12.47-4.91c27.33,26.88,61.25,37.74,98.41,40.84,4.82.4,9.58,1.47,14.37,2.22-6.81,2.37-10.13,7.29-12.36,14.14-2.55,7.86-7.21,15-12.27,21.57-6.66,8.6-9.59,18.75-13.56,28.5a8.61,8.61,0,0,0-1,2.86c1.28,0,1.81-1.19,2.76-1.69,9.12-4.75,16.82-10.39,21.53-20.43,4-8.6,13.13-13.4,20.65-19,6.48-4.78,13.41-.24,14,9.54.55,9,1.59,18.06.22,27.13-.4,2.67-2.63,6.56,1.33,7.84,3.14,1,5.23-2.4,7.1-4.7,2.89-3.54,4.67-7.75,6.64-11.83C473.3,447.19,483.69,426,495.13,405.4Z"/><path class="cls-33" d="M253.28,575.74c-17.58-3.93-33.23-11.49-44.71-25.77-11-13.69-8.06-34.37,6.14-50.26C226.06,487,239.59,477,253.18,467c36.73,72.4,169.68,83.83,230.5,38.81,3.86-2.86,8.3-4.94,12.47-7.39-.53,5.66-5.39,8.47-8.56,12.11a408.8,408.8,0,0,1-65.73,60.27c-8.33,6.17-18.71,5.58-28.24,6.49-45,4.29-90,8.83-134.64-3.21C256.94,573.5,254.44,572.73,253.28,575.74Z"/><path class="cls-30" d="M296.32,584.82c91.39,3.77,179.75-11.07,265.35-43.16,9.47-3.54,19.26-6.21,28.9-9.28,14.85-3.4,29.59-3.55,44.15,1.32,6.77,10.26,6.4,12.87-3.61,18.3-8.24,4.47-16.57,8.73-24.69,13.43-4.94,2.86-10.54,5.49-16,3.17-12.1-5.12-21.79-.46-31.31,6.29-22.78,9.08-46.83,13.48-70.35,19.81-37.94,10.21-76.78,12.93-115.85,13.81-8.54-.1-17.07-.06-25.6,0-2.58.08-5.17,0-7.74,0-10.1,1.27-18.55-4.78-28-6.56-3.9-.73-6.12-4.33-4.83-8.78.55-1.91,2.19-3,4.08-3.52-.49-.78-1.14-.17-1.67-.14-1.86.12-3.71.86-5.57.51C300.37,589.37,296.43,589.74,296.32,584.82Z"/><path class="cls-63" d="M568,532.65c-24.72,13.44-52,19.44-78.78,26.65C474,563.39,459,568.7,443,569.55c-2.64.14-6.19,3.75-7.68-.56-1.09-3.16,2.73-5,5-6.88,20.84-17.43,41.11-35.45,58.41-56.56,1.19-1.45,3.08-2.55,3.77-4.19,10-23.49,31.69-24.76,52.37-27.93,11.12-1.71,21.91-5.82,33.43-4.52,4.14,3.08,5.49,7.38,3.93,12A236.43,236.43,0,0,1,568,532.65Z"/><path class="cls-64" d="M85.55,89.82c11.54-19.15,29.66-31,47.64-42.94,5.17.39,6.82,4.06,7.55,8.38,1.28,7.57,6.35,10.3,13,8.92,21-4.33,39.84-12.86,54.17-29.58,5.2-6.07,2.33-12.86,1.85-19.45,18.3-6.2,37-8.91,56.32-6.87a13.89,13.89,0,0,1,10.05.11l0,0c2.81,17.11-3.6,30.41-17.33,40.17-42.74,30.38-90.08,50-141.52,59.69-14.07,2.63-25.71-2.73-31.19-13A6.2,6.2,0,0,1,85.55,89.82Z"/><path class="cls-65" d="M352.83,33.72c.37,27.83-7.77,36.07-35.76,36.2-7.84,0-15.75-.69-23.28,2.39-3.85,3-8.21,1.17-12,.51-19.94-3.51-34.48,7.68-49.51,17.55a130.38,130.38,0,0,1-15.51,9.19c-10.34,4.45-20,11.06-31.92,10.7-27.69,7.23-54,20.09-83.24,21-3,.09-6-.12-9-.24-20.36-.79-24.66-8.12-16-27.26,2.17.34,4.63-.51,6.44,1.3,9.38,9.38,20.78,9.08,32.66,7.15,51.88-8.46,100-26.64,143.93-55.7A66.12,66.12,0,0,0,278,38.33c8.7-12.81,8.77-19,.17-29.76C305.44,9.91,330.42,18,352.83,33.72Z"/><path class="cls-66" d="M495.13,405.4l5.06,1.48c-17.93,21.52-25.63,48.59-39.23,72.46-3.38,5.93-8.63,13.13-15,11-5.93-2-1-9.83-.67-15.18.48-8.89,1-18-.32-26.72-.94-6.46-4.45-11.83-12-4.13-8.31,8.45-18.34,14.58-23.22,26.88-3.8,9.58-18.71,8.71-24.46,18.36-.15.24-1.7-.37-2.59-.58.5-1.78.85-3.62,1.52-5.33,6.27-16.14,13.13-31.95,23.55-46,2.88-3.89,6.27-8.52,6.56-13,.64-9.78,6-11,13.71-10.18C450.87,415,472.92,409.59,495.13,405.4Z"/><path class="cls-67" d="M543.05,380.3a1.51,1.51,0,0,1-1.44.82c-3.31-3.61-3.16-3.58-1.63-9.27,6.89-25.47,10.5-51.34,2.63-77A198.34,198.34,0,0,0,515.53,239c-2.59-3.72-5.37-7.34-6.88-11.66-3.08-8.86,0-14.21,9.87-17.27l0,0a3.37,3.37,0,0,0,2.54,2.46c34.08,38.76,55.36,81.95,47.22,135.54-2.18,14.32-10.8,23.47-22.52,30.51A21.48,21.48,0,0,0,543.05,380.3Z"/><path class="cls-68" d="M278.21,8.57c10.69,4.32,12.94,14,6.23,26-8.17,14.66-21,24.42-35,32.57C204.89,93,157.25,110.24,106.08,116.93c-12,1.56-21.34-4.92-29.41-13.21,2.76-4.76,4.12-10.42,8.88-13.9,9.4,18.3,25.28,17.83,41.74,13.8A418.13,418.13,0,0,0,233.7,61.48a166.52,166.52,0,0,0,26-17.7c8.6-7.3,16.78-15.68,12.68-29-1-3.32,2.74-4.13,3.78-6.41A1.71,1.71,0,0,1,278.21,8.57Z"/><path class="cls-16" d="M434.46,409.81c-2.77-1.93-6.64-2.64-4.83-8,4.19-12.34,5.35-26.14,20.3-32,3.15-1.22,4.82-6.3,7.17-9.6,4.45-7.06,11.14-12.12,16.42-18.48,5.05-6.08,10-4.92,13.87,2.38,4.9,9.36,11.8,17.67,7.43,30.16-2.44,7-.95,15.55.05,23.39a6.08,6.08,0,0,1-1.71,3.09,2.65,2.65,0,0,1-1.85.5c-1.51.94-3.34.76-4.93,1.43C469,404.5,452.23,410.84,434.46,409.81Z"/><path class="cls-33" d="M647.54,471.18c27.51,4.63,53,13.46,72.44,34.91,1.15,1.27,2.68,3.53,2.24,4.59-.83,2-2.55.21-3.63-.56-39.9-28.27-77.66-13.32-115.23,5.68-1,.5-2.08.82-3.13,1.23a6.71,6.71,0,0,0-2.86,1.92l0,0a4.75,4.75,0,0,1-2.2,1.6l-2.1.84c-2.79.34-2.95-1.51-2.81-3.48C592.08,491.66,621.34,467.8,647.54,471.18Z"/><path class="cls-69" d="M209.8,15.15c6.17,6.76,7.22,13.79,1.1,21.17C197.05,53,178,61.32,158,66.87c-9.26,2.58-20.76,3.18-20.23-12.57.12-3.63-3.18-4.89-4.61-7.42,13.3-9.58,28.2-16.09,43.06-22.68L204,15.81Z"/><path class="cls-70" d="M518.52,210.06c-11.76,7-8.94,15.08-2.52,24.42,21.2,30.9,37.82,63.62,33.65,102.72-1.57,14.76-5.3,29.29-8,43.92-2.37,3.05-5.73,4.07-9.33,4.57-2.6-1.83-1.22-4.16-.43-6.07,11.95-28.93,11.72-58.32,4.66-88.39-2.94-12.5-8.87-23-16-33.12-5.47-7.74-12.81-13.73-19.36-20.45-5.07-5.2-8-11-6-18.27,2.1-7.55,0-14.07-4.11-20.26-3-3.37-5.77-7-9.06-10-3.85-3.59-4.45-6.76-.15-10.24l.05,0a12.44,12.44,0,0,0,2.54,2l-.07-.06c.91,1.67,3.24,1,4.19,2.62C500,190.65,511,198.36,518.52,210.06Z"/><path class="cls-71" d="M294.1,365.27l2.07-1.34c9.57,7.53,5.91,17.3,4.52,26.65-3.47,15.19-15.94,24.22-24.84,35.64-6.9,8.85-15.39,16.49-18.92,27.66-.49,1.55-2,2.13-3.63,1.6v0c-2-1.89-.32-4.85-2-6.83-8.78-18.39,1.14-32,12.08-44.87,4.75-5.57,8.41-11.17,10-18.26,2.24-9.91,10.58-13.94,18.21-18.63A13.79,13.79,0,0,1,294.1,365.27Z"/><path class="cls-72" d="M647.54,471.18c-27.66,1-47.76,19.52-54.51,50.24-4.76,5.33-10.5,8.77-17.77,9.27-1.59.82-3.56.51-5,1.71l-2.26.25c3.18-16.08,12.85-29.41,18.78-44.33,2.57-6.47,4.37-12.67,1.51-19.41C608.21,464.69,627.86,468.38,647.54,471.18Z"/><path class="cls-73" d="M556.27,398.11c-8,22.59-18,44.18-31.23,64.22L520.53,467c-.85.68-1.88,1.24-2,2.52h0c-9.64,1.95-9.89-4.51-8.91-10.82s4.87-11.73,7.73-17.42c8.4-16.76,17.42-33.27,20.66-52.08l.49.41-.53-.36c1.31.2,1.9-1,2.87-1.47a8.52,8.52,0,0,1,.87-.72q9.87-6.3,19.75-12.59Q558.86,386.28,556.27,398.11Z"/><path class="cls-74" d="M538,389.19c4.76,5.91,1.38,11.58-1,16.85-7.44,16.36-15.33,32.51-23,48.74-3,6.31-5.2,12.39,4.57,14.73q-3.48,4.38-7,8.77c-4.93.59-5.55-3.83-5.92-6.51-1.26-9.09-4.15-18.23-1-27.51l0-.05c.68-.78,1.36-1.56,2-2.35l.06-.09c1.51-1.08.94-3.22,2.26-4.39.78-1.52,1.56-3,2.33-4.55,7.88-11.76,9.85-26,15.87-38.5Z"/><path class="cls-75" d="M253.3,455.48c5.05-18.87,20.69-30.1,31.9-44.54,4.75-6.11,8.92-12.67,13.36-19,6.38,13.06-.56,23.44-6.83,33.95C281,437.43,270.38,449,259.54,460.45c-.58.6-2.66-.23-4-.39Z"/><path class="cls-76" d="M249.08,459.54c-9.1,10.81-20.92,21.19-33.12,23.94-11.88,2.69-20.5,7.81-29.57,14.23a4.14,4.14,0,0,1-4-.48c-1.64-1.78,0-3.45,1.28-4.75,7.14-7.27,14.2-14.62,21.58-21.64,3.73-3.55,5.73-6.93,2.26-11.64l4.56-4.59c7.93,7.85,16.47,9.12,26,2.8,2.47-1.64,5.6-2,8.6-2.29Z"/><path class="cls-77" d="M246.69,455.12c-15.81,13-27.59,12.82-34.61-.51,9-8.2,20.1-13.9,27.24-24.26,2.14-3.11,4.23-2.38,4.66,1.71C244.79,439.75,245.78,447.43,246.69,455.12Z"/><path class="cls-78" d="M296.32,584.82c2.23,2.74,5.39,2.16,8.34,2.29,3.74.16,10.41-.52,10.72.6,1.18,4.25-4.55,2.76-6.27,5.09-2.86,3.86.48,5.34,3.09,6.7,8.5,4.44,17.65,6,27.16,5.76a2.52,2.52,0,0,1-.86,3.46c-5.23,2.44-10.32,3-15-1.26-8.25-3.49-17.23-3-25.77-4.77-5.42-1.14-11.3-2.84-14.12-8s4.72-5.7,5.67-9.51c1.51-2,3.36-1.6,5.27-.73A2,2,0,0,1,296.32,584.82Z"/><path class="cls-58" d="M636,537.1c-14.54-7.35-30.24-3.45-45.41-4.72.23-3.36,1.76-5.66,5.21-6.38,5.79,4.24,12.32,1.46,18.51,1.94,29.05,2.23,53.71,12.28,69.2,38.78L663,550.83l-1.3-.1a12.21,12.21,0,0,1-2.6-.51,22.07,22.07,0,0,1-2.51-1.08c-1.29-.6-2.55-1.24-3.82-1.91C647.19,543.81,640.21,542.73,636,537.1Z"/><path class="cls-79" d="M291.73,425.87c4-11,7.55-22,6.83-33.95,4.37-9.77-.25-18.78-2.39-28,5-5.55,10.13-13.3,13.68,1a6,6,0,0,1,1.9,2.27l.23.26a2.8,2.8,0,0,1,1.77,1.94l1.5,2c-16.31,2-13,15.47-11.51,24.24C306.05,409.23,299.91,417.49,291.73,425.87Z"/><path class="cls-80" d="M504.68,444.26c2.84,11.23.68,23.48,6.89,34l-25,20.4c-2.49-5.19,3-6,5-8.45,5.69-6.93,10.66-14.66,8.08-23.45C497,457.67,499.67,451,504.68,444.26Z"/><path class="cls-81" d="M527.25,394.33c-2.4,14-6.55,27.33-15.87,38.5,3.27-12.32,10.11-23.54,11.22-36.52Z"/><path class="cls-82" d="M434.69,155.76c3,7.7,4,15.77,4.2,24,0,1.57-.91,4.47-1.58,4.52-2.63.21-2.11-2.34-2.36-4-.86-5.87-1.64-11.76-2.45-17.65Z"/><path class="cls-33" d="M282.85,582.46c-4,.08-8.1,1.19-11.46-2.07C275.43,579.86,279.47,579.3,282.85,582.46Z"/><path class="cls-33" d="M294.56,584.5l-5.27.72-4.37-2.29C288.3,582.47,291.58,582.53,294.56,584.5Z"/><path class="cls-68" d="M276.17,8.39l-10.05-.11C269.48,7,272.84,6.08,276.17,8.39Z"/><path class="cls-75" d="M251.31,448.68c2.37,1.77,2.23,4.29,2,6.83Z"/><path class="cls-33" d="M269.33,580.14c-2.67.47-5.21.55-7-2C265,577.64,267.49,577.72,269.33,580.14Z"/><path class="cls-61" d="M493.16,400.8c.06-.65.13-1.3.22-1.94a4.33,4.33,0,0,1,6.16-.61l.6.63Z"/><path class="cls-33" d="M260.43,577.73c-2.74.66-5.3.65-7.14-2C256,575.38,258.54,575.31,260.43,577.73Z"/><path class="cls-61" d="M488.53,183.4l-4.19-2.62Z"/><path class="cls-63" d="M570.24,532.4l5-1.72Z"/><path class="cls-61" d="M486.38,402.73l4.93-1.43Z"/><path class="cls-61" d="M484.41,180.84l-2.54-2Z"/><path class="cls-74" d="M518.54,469.51l2-2.52Z"/><path class="cls-74" d="M540.85,387.77,538,389.24Z"/><path class="cls-72" d="M597.37,519l2.86-1.92Z"/><path class="cls-70" d="M543.05,380.3l2.66-1.76Z"/><path class="cls-62" d="M313.75,369.39,312,367.45Z"/><path class="cls-62" d="M311.75,367.19l-1.9-2.27Z"/><path class="cls-79" d="M294.1,365.27l-2.49,1.65Z"/><path class="cls-72" d="M595.13,520.58l2.2-1.6Z"/><path class="cls-70" d="M521,212.49,518.47,210Z"/><path class="cls-83" d="M13.32,169.59C23.55,145.48,43.23,129.45,62,112.68c1.49-1.33,4.34-2.44,6-1.93,2.76.82,1.17,3.78,1.15,5.87-.11,11,4.45,16.71,16.08,18.82,26.28,4.76,49.53-6.18,73.66-12.47,9.76-2.54,19.08-6.8,28.6-10.27,1.82-3.07,5-3.59,8.09-4.38,1.57-.48,3.05-1.25,4.75-1.24a10.92,10.92,0,0,1,3.28.83c16.09,2.12,16.92,14.37,17.71,26.67,1,8.67,8.26,14.59,10,23a440.44,440.44,0,0,1-85.13,37.8c-16.78,5.39-33.29,11.85-50.82,14.78-6.23,1-12,1.36-16.7-3.63-1.62-.4.13-4.11-1.49-2.87-3.76,2.89-6,7.77-11.65,8-9.23.9-18-3.56-27.25-2.48a6.91,6.91,0,0,1-3.07-.61,5.26,5.26,0,0,1-2.89-3.66,4.31,4.31,0,0,1,1.85-4.16c.7-4.17,1.34-8,7.2-8,8.71.13,12.41-5.92,14.68-13.22,2.76-8.84,1.63-17.95,1.67-27,0-4-1.87-6.36-5.3-2.74-8.57,9-20.41,16.56-15.12,32.37,2,6-2.78,11.59-2.63,17.63-6.33,4.78-5.87-5.08-10.17-4.73C18.94,187.4,12.33,180.16,13.32,169.59Z"/><path class="cls-84" d="M138,287.61c.51-16.84-.36-33.35-11.63-47.25-3.39-4.19-1.2-5.68,2.77-7,29-9.39,57.61-19.94,86.93-28,33.86-9.35,64.62,9.52,74.28,43.34,1.22,4.27,2.68,7.16-4.43,5.71-45.53-9.23-87.51-1-125.32,26.59a7.53,7.53,0,0,1-3.86-2.09c-10.69-9.61-10.66-9.6-14.14,3.7C142,285,141.86,288.1,138,287.61Z"/><path class="cls-85" d="M165.44,285.48c27.5-23.44,60-31.05,95.19-30.09,1.49,0,3,.45,4.46.56,33,2.25,42.82,22.75,29.22,53.65-9.45,21.46-24.58,31.63-45.85,36.85-22.8,5.59-45.46,10.27-69,4.95-12.64-2.86-24.13-7.76-32.22-18.57.3-7.89,4.34-9,10.22-5.17,30.13,19.71,60.64,11.16,91,1.15a24,24,0,0,0,11.6-8.79c5.08-7,4-11.85-3.32-16.81-14.19-9.67-30.28-13.14-46.93-14.41-10.9-.83-21.88-.2-32.82-.32C173,288.43,168.68,289,165.44,285.48Z"/><path class="cls-86" d="M146.74,312.31c2.89-7.36,6.21-14.46,12-20.05,12.67-6.81,26.52-5.18,39.8-4.3,19,1.25,38.26,3.07,55.31,13.53,12.66,7.76,13.31,15.46.52,23.61-16.67,10.62-35.78,13.35-55.05,14.64-20.55,1.37-38.53-4.56-52.88-19.95C145.63,317.26,145.35,314.76,146.74,312.31Z"/><path class="cls-87" d="M138,287.61c2.25-1.95,1.67-4.69,2.17-7.19.85-4.34-3-11,3.41-12.56,6.25-1.56,11.17,2.72,14.46,8.19,1,1.58,1.71,3.29,2.56,4.94-10.85,13.31-22.84,26.09-20.77,45.34-.49,14.85,8.81,22.67,21,27.05,13.74,4.95,28.23,7.17,42.87,8,.75,0,1.75.28,2.2-.1.83-.71.87-1.19.62-.86,0,0-.32.88-.72.76-3.74-1.19-9,3.24-11.36-3,22.14,1.6,43.26-3.71,64.31-9.52,1.63-.45,3.35-2.21,4.84-.18.2.27-1.47,2.46-2.64,3.12C229.33,369.4,195.7,377.75,160,368.27c-27.55-7.33-38-29.17-29.93-57.14C132.41,303.2,135.35,295.45,138,287.61Z"/><path class="cls-88" d="M147.13,319.21C162,331.53,178.6,339,198.3,337.46c18.41-1.47,36.4-5,52.87-13.76,4.55-2.43,10-5.8,10.12-11.22s-6.13-7.06-10.46-9c-25.45-11.29-51.8-16.63-79.69-11.73-4,.7-8.24.35-12.37.49l6.67-6.78c22.84.57,45.76-2.23,68.46,3.93,10.09,2.74,18.71,7.65,27.45,12.68,6.38,3.68,6.92,9.44,3.94,15.69-3.81,8-10.69,12.62-18.64,15.4-23,8-46.43,11.79-70.8,6.83-7.32-1.49-13.58-4.29-18.87-9.32-4.45-4.23-7.55-3.52-9.69,2.14a1.36,1.36,0,0,1-.7-1.51C145.65,327.23,144.85,323.16,147.13,319.21Z"/><path class="cls-89" d="M194.44,358.21c3.58,4.33,9.59-.2,13.3,3.67-5.22.19-10.56,1.15-15.64.4-11.4-1.7-23-2.2-34-6.3-14.51-5.43-21.62-16.88-18.24-29.65,5.86,20.15,22.72,25.27,40.2,29.41C184.76,356.85,189.63,357.4,194.44,358.21Z"/><path class="cls-90" d="M13.32,169.59l13.53,25c2.67,2.73,2.67,5.63.56,8.66-12.22-3.88-16.23-13.27-16.74-25C10.84,175.14,10.46,171.86,13.32,169.59Z"/><path class="cls-91" d="M196.17,110.4l-8.63,2.3-2.67-2.44,30.21-12.6c1.77.37,2.75,1.36,2.53,3.28-4,5.75-9.66,7.75-16.39,7.43L199,109C198.05,109.46,197.11,109.92,196.17,110.4Z"/><path class="cls-85" d="M147.13,319.21l-.54,12.11a20.62,20.62,0,0,1,.15-19Z"/><path class="cls-92" d="M53.92,811.55C35,798.59,19.6,782.85,13,760c-.57-1.95-2.74-3.43-4.17-5.13a4.2,4.2,0,0,1,.46-2.15c.88-1.58.71-3.45,1.46-5.06q24.16-51.37,74.79-76.89c25.56-3.25,38,5.63,42.39,30.75.88,5.09,5.05,9.41,3.32,15L103.9,732.3c-5.79-2.74-4.37-7.16-2.51-11.49,1.63-3.81,3.86-7.39,4.73-11.49,2-9.72-3.93-16.91-13.65-15.46A87.44,87.44,0,0,0,60.7,705.18C53.24,709.6,51.59,717,53.45,725c2.32,10,5.51,19.64,12.66,27.45,3,3.32,6.41,6.55,6.22,11.63C63.28,778.77,59.19,795.39,53.92,811.55Z"/><path class="cls-93" d="M72.33,764.07c-10.39-10.08-18.09-21.62-21.6-36-3.45-14.16.36-23,14.15-28.43,8-3.16,16.34-5.31,24.31-8.46,6.9-2.72,12.4-1.28,17.14,4s4.23,11.14,2.36,17.83c-1.78,6.33-10.61,11.1-4.79,19.26C92,741.55,82.1,752.74,72.33,764.07Z"/><path class="cls-94" d="M176.34,809.39c-10.19-2.52-20.44-4.83-30.56-7.6-8.8-2.42-17.39-5.76-23.1-13.38C114,776.81,100.53,772,89.3,764c-6.83-4.86-8.5,4.72-13.59,4.28,8.47-12.85,18.28-24.36,32-31.88a2.33,2.33,0,0,1,3,.35c8.59,13.73,24.35,15.57,37.23,21.75,20.51,9.86,41.62,18.73,64.62,21.38-7.28,10-17.15,3.12-24.56,1.88-14.92-2.49-29.43-8.35-42.76-16.07-6.85-4-13.68-6.67-18.56,1.27-4.38,7.1-4.44,15.06,2.71,21.37,7.82,6.9,17.08,10.37,27.27,12C164,801.52,171.61,802.38,176.34,809.39Z"/><path class="cls-95" d="M237.5,725.76l2.43,3.53c-5.15,1.49-9.53,3.74-9.76,10-31.85-10.7-62-24.43-86.8-48-1.83-1.74-3.36-3.79-5-5.7,3.1-1.85,4.94,1,6.84,2.26A279.39,279.39,0,0,0,237.5,725.76Z"/><path class="cls-96" d="M131.2,716.58c-4.63-6.11-7.28-12.59-7.24-20.69.05-10.92-11.77-21.17-24.15-22.66-4.8-.57-9.55-1.61-14.32-2.43,21.86-13.19,22-13.32,37.87,6.14A149.38,149.38,0,0,0,149.29,702c2.32,1.75,5.75,4.43,5.62,6.5-.2,3.36-4.68,2.67-7.41,3.49C142.1,713.64,136.64,715.07,131.2,716.58Z"/><path class="cls-15" d="M106,577.83c.28,3.28.78,6.61-1.9,9.28C103.93,583.85,103.67,580.57,106,577.83Z"/><path class="cls-32" d="M10.7,747.69c.58,2,.3,3.74-1.46,5.06C9.73,751.06,10.22,749.38,10.7,747.69Z"/><path class="cls-30" d="M137.92,719.1l-4.67,1.77Z"/><path class="cls-40" d="M110.7,736.78l-3-.35,2.61-2.24c.26.3.51.61.75.92a1.61,1.61,0,0,1-.45,1.72Z"/><path class="cls-97" d="M606,918.07c30.41-6.65,60.87-13,91.2-20,32.32-7.45,63.86-17.21,92.61-34.39,9.6-3.46,17.86-9.16,25.88-15.32,1.27-1,2.59-3.38,4.5-1.48.38.38-1.06,3.18-2.17,4.4-3.24,3.55-6.73,6.87-10.13,10.27-28.92,24.07-60.8,43.31-96.52,55-37.15,12.17-74.89,22.48-114,26.54-2.27-4-2.21-7.15,2.81-8.75a65,65,0,0,0,7.45-2.48c5.25-2.44,15.25-2.19,14.65-7.77C621.58,917.93,612.13,918.72,606,918.07Z"/><path class="cls-48" d="M866.37,305c-.51,1-1,2-1.52,3.07C865.36,307,865.86,306,866.37,305Z"/><path class="cls-98" d="M687.72,757.55A52.35,52.35,0,0,1,702.07,777,147.63,147.63,0,0,1,636,802.68a2.06,2.06,0,0,1-2.66.28c-.54-1.66.18-2.88,1.39-3.91a20,20,0,0,1,3.93-2,17.45,17.45,0,0,1,2.72-.93c1.85-.32,3.77-.36,5.47-1.34.84-.42,1.7-.81,2.58-1.18,1.34-.54,2.64-1.18,4-1.69.91-.42,1.83-.76,2.77-1.1,5.47-1.55,8-4.78,6.24-10.58-1.19-3.81-1.11-7.2,3-9.34h0c1.15-1.4,3.34-.86,4.44-2.37v0C677,766.78,683.59,764.23,687.72,757.55Z"/><path class="cls-99" d="M633.46,802.48l2.5.2c-1.73,2.85-7.84,1.85-6.28,7.77,3.19,12.09-5.79,15.64-14.21,16.76-21.82,2.92-43.4,7.36-65.7,7.7-13.45.2-26.57,7.27-40.67,6.23,19-5.94,38.19-11.27,58.39-11.31,8.17,0,16.23-.13,24.43-1.89,10.89-2.35,15.65-7.32,12.36-18.48a7.44,7.44,0,0,1,2.28-2.29,42.38,42.38,0,0,1,6-2.71C619.48,803.09,626,797.24,633.46,802.48Z"/><path class="cls-100" d="M436.63,884.19c3.95-7.42,12.2-8,18.48-11.7,1.85-1.09,4.79-2.49,4.89-3.9.19-3-3.16-2.39-5.17-2.79-6.2-1.23-12.49-2.07-18.66-3.44-2.34-.52-5.9-.78-5.57-4.37s3.66-3.15,6.19-3.18c6.76-.08,13.53,0,20.29,0-1.17,9.19,6.43,8.39,11.67,10.42,1.88.73,5.16.38,4.89,3.43-.1,1.05-3.12,1.59-4.32,2.83C460.32,880.7,450.25,887,436.63,884.19Z"/><path class="cls-101" d="M479.6,852.41c-1.82-11,7.55-8.87,13-10.43,4.47-1.29,9.5-.62,14.28-.81C501.71,854.51,490.13,852.18,479.6,852.41Z"/><path class="cls-102" d="M339.32,607.48c0-.74,0-1.48,0-2.22h6.74a65.9,65.9,0,0,0,27.19,0c62.52.36,122.44-14.32,181.87-31.75a17.92,17.92,0,0,0,3.79-2.23c7.92-3.93,16.22-5.53,25-3.88,11,2.07,21.53-1.75,32.27-2.85,6.3-.65,13.06-2.68,17.62,3.6,4.22,5.81-.83,10.57-2.81,15.59-1.11,2.79-2.13,5.63-4.21,7.9h0c-6.59,8.7-7.29,21.33-18.07,27.24l-13.59,4.55c-8.28,3.09-16.65,6-24.93,9h0a5.44,5.44,0,0,1-6.79,0c6.29-13.58,20.24-13.61,31.74-17.64a33.17,33.17,0,0,0,18-14.19c-.39-7.91,9-12.85,6.37-21.44a4.45,4.45,0,0,0-5.17-3.51c-13,1.4-26.26.77-39,5.38a572.82,572.82,0,0,1-113.89,28.22c-25.44,3.64-50.72,7.06-76.51,6.11-11.55-.19-23.05.25-34.53-.24C345.42,614.89,339.49,615.17,339.32,607.48Z"/><path class="cls-103" d="M626.82,591.6c-.45-5.12-2-10.33,3.68-14.09,2.55-1.71,4-4.67,1.93-7.91-1.88-3-5.09-3.43-8-2.84-21.64,4.33-43.74,1.62-65.46,4.48,9.92-5.62,19.13-13.15,31.79-5.27,5.12,3.19,10.82-1.29,15.76-3.93,7.62-4.07,14.85-9,22.8-12.23,6.61-2.66,8.71-6.22,6.68-12.71,7,2.87,14.41,4.74,20.32,9.82a8,8,0,0,1,2.38,1.52l2.13.7a6.36,6.36,0,0,1,2.18,1.67l0,0c-10.91,6.41-12.7,19.18-19.58,28.43C639,585.24,634.56,590.44,626.82,591.6Z"/><path class="cls-104" d="M563.44,632.41l6.79,0c-15.48,6-27.29,20.09-45.29,20.39.87-12.83,9.67-15.07,20.24-16C551.35,636.25,557.36,633.94,563.44,632.41Z"/><path class="cls-101" d="M524.91,684.55c1.35-11.84-8.59-12.17-15.37-13.16-9.85-1.45-20.08-.28-30.14-.45-2.71-.05-7.25,1.4-7.43-2.54-.21-4.43,4.39-4,7.71-4.19,13.84,3.23,27.89,3.57,42,3.54,11,0,15.85,4,16.87,12.4C534.57,683.34,529.92,684.5,524.91,684.55Z"/><path class="cls-105" d="M538.58,680.15c-5.28-7-11.73-11.65-21-11.46-9.71.21-19.43.1-29.15,0-3.59,0-7.85,1-8.73-4.5,4.21-2.64,8.89-2.44,13.57-2.29,10.67,9.34,23.36,3.13,35,4.25,6.47.62,11.11,1.73,14.59,7.75C546.56,680.25,542.52,679.84,538.58,680.15Z"/><path class="cls-103" d="M608.75,618.84c7.73-7.94,7-21.5,18.07-27.24C629.67,609.37,625.37,615.85,608.75,618.84Z"/><path class="cls-104" d="M570.23,632.43a49.25,49.25,0,0,1,24.93-9C587.6,628.49,579.58,632.3,570.23,632.43Z"/><path class="cls-58" d="M683.37,566.57c3.17,1.24,4.6,3.64,4.65,7C684.68,572.41,683.23,570,683.37,566.57Z"/><path class="cls-106" d="M606.45,809.36c-.72,0-1.45.08-2.17.1-3.32.45-6.63,1-10,1.34-7.64.78-15.43,5.84-22.53-2.91-1.95-2.4-7.91-2.66-12.8-1.35-13.3,3.59-26.65,4.33-40.77,3.54-18.85-1.07-38.08,1.88-56.91,4.67-9.06,1.34-17.95.86-26.9,1.45,10.5-4,21.77-2.32,32.54-4.48,3.51-.71,7.53,1,10.47-2.32,36.52-2.57,73-5.84,109.09-12,5-.86,9.82-3.47,14.62-5.18,9.48-3.39,19.37-10.45,29.9-.09,3.59,3.53,11.24,3.08,15.91-.43,4.83-3.62-.93-6.17-2.46-9.13-2.86-5.52,1-6.43,5-7.06,11.74,9,12.17,10.78,4.49,18h0c-1.26,1.27-3.36.81-4.56,2.2-.73,0-1.47.08-2.2.08-1.87,2-5,0-6.82,2.28h0c-1.27,1.25-3.37.78-4.56,2.2l-2.42,2.17-22.4,4.73C609.79,808.48,607.66,807.94,606.45,809.36Z"/><path class="cls-98" d="M677.15,747.79l8.21,7.39c-14.5,7.28-29.36,1.78-44.07,1.15-4.08-.18-8.14-.94-12.21-1.44,9.91-3.15,19.81-6.43,30.36-3C666.18,754.09,671.91,752.05,677.15,747.79Z"/><path class="cls-107" d="M654,793.55c8.85-8.6-4.66-11.62-4.49-18l15.82-4.62c-1.13,2.37-2.41,4.6-.84,7.4C671.29,790.39,663.23,792.4,654,793.55Z"/><path class="cls-107" d="M669.8,768.5l-4.44,2.37Z"/><path class="cls-97" d="M596.69,920.21a17,17,0,0,1,1-1.78l6.51,0C602.18,921.05,599.41,920.55,596.69,920.21Z"/><path class="cls-108" d="M832.87,548.52l2.34.06c.82,8.68-1.71,17-3,25.39-.41,2.66-5.27,4.88-1.8,7.64,2.85,2.26,5.27-1.37,7.75-2.77,2-1.1,4-2.1,5.93-3.15a5.46,5.46,0,0,1,5.76-1l1.12,1.07c-7,7.92-18.44,10-24.85,18.8-1.39,1.92-4.1,1.91-6.18.48-3-2.06-1.27-4.86-.51-7.16C823.8,574.71,828.37,561.63,832.87,548.52Z"/><path class="cls-109" d="M903,505.33c0,.81.09,1.62.13,2.43-2.29,9.68-6.63,18.5-11.39,27.14-6.35,7.56-9.23,19.5-22.7,18.1,0-5.16,5.2-7.16,6.85-11.32,5.41-11,13.8-20.08,20.07-30.53C897.51,508.49,898.48,504.66,903,505.33Z"/><path class="cls-108" d="M869,553c10.16-2.76,14.6-12.75,22.7-18.1-3.93,12.12-9.06,22.79-23.41,25.94-3.91.86-7,5.29-10.55,8.08l-1-.91a3.57,3.57,0,0,1,1-3.61h0c.76-.75,1.51-1.5,2.25-2.26h0c.76-.75,1.52-1.5,2.25-2.28h0c.78-.74,1.54-1.49,2.26-2.29h0a27.26,27.26,0,0,0,2.26-2.3l0,0A15,15,0,0,0,869,553Z"/><path class="cls-108" d="M857.73,568.92l-2.25,2.28-.36-1.52a2,2,0,0,1,2.57-.79Z"/><path class="cls-108" d="M853.22,573.47c-.75.76-1.5,1.52-2.26,2.27l0,0a2,2,0,0,1,.82-2.52Z"/><path class="cls-108" d="M855.48,571.2l-2.26,2.27,0,0c-.53-2,.14-2.88,2.25-2.28Z"/><path class="cls-98" d="M685.54,755.36l2,2Z"/><path class="cls-26" d="M552.05,716.33l2.87.89c-1.67,2-2-.15-2.85-.9Z"/><path class="cls-110" d="M903,363.38c9.35-2.84,12.17,2.89,13.61,10.43,15.26,26.68,6.48,52.84-1.68,79-17.87,21.85-24.31,49-34.44,74.52a20.5,20.5,0,0,1-4.76,7.51c-4.41,13.26-17.47,16.5-27.26,23.5-.65.47-2,0-3,0a25,25,0,0,1,.93-5.16c8.24-20.54,17.66-40.68,24.63-61.65,11.49-34.62,16.07-70.9,22.57-106.68C895.15,376.69,898.67,370,903,363.38Z"/><path class="cls-111" d="M912,453.21c3.46-15.28,7-30.54,10.33-45.85,1.7-7.78-1.66-14.43-4.68-21.36-1.55-3.54-.77-8.1-1-12.19,22.82,20.17,11.24,45,7.37,67.56-3.77,22-12.11,43.27-21.07,64-8.25,12.7-15.56,26.11-27.11,36.35l2.22-6.86a1.91,1.91,0,0,1-.83-1.55c0-.62.08-.93.22-.94a23.34,23.34,0,0,1,1.26-2.62c.26-.41.53-.81.79-1.24,1-1.83.83-4,1.54-5.9,8.53-21.61,19.39-42.09,29.46-62.94C911.46,457.63,910.38,455.08,912,453.21Z"/><path class="cls-112" d="M912,453.21c-2.06,14.5-6.6,28.39-14.55,40.48-6.65,10.11-11.16,20.83-14.87,32.11-1.39,1.19-.9,3.33-2.28,4.54h0c-.74.77-1.49,1.51-2.21,2.3l-.09,2.19h-2.29c4.89-23.85,17.05-45.16,24.13-68.29C901.32,461.91,909.66,459.38,912,453.21Z"/><path class="cls-109" d="M855.44,571.16l-2.25,2.28-2.27,2.25h-6.84c2.94-5.72,9-7.69,13.66-11.29,0,1.5,0,3,0,4.49Z"/><path class="cls-109" d="M869,553l-2.27,2.3Z"/><path class="cls-109" d="M866.77,555.27l-2.26,2.3Z"/><path class="cls-109" d="M864.52,557.56c-.76.76-1.51,1.52-2.26,2.29C863,559.08,863.76,558.32,864.52,557.56Z"/><path class="cls-109" d="M862.26,559.84,860,562.12Z"/><path class="cls-109" d="M860,562.13l-2.25,2.26Z"/><path class="cls-94" d="M110.66,736.83a5.6,5.6,0,0,1,.45-1.72,5,5,0,0,1,.31,1.29C111.42,736.54,110.93,736.69,110.66,736.83Z"/><path class="cls-15" d="M738.51,673.5l-14.26,1.83C728.6,671.6,733.72,673.84,738.51,673.5Z"/><path class="cls-36" d="M921.34,237.5l-.58.92.57-.92Z"/><path class="cls-113" d="M217.66,99.78l-2.58-2.12C227,90,238.67,82.06,250.78,74.78c13.76-8.28,28.34-7.47,43-2.47,9,7,21.52,9.07,28.19,19.64,15.47,24.48,1.91,59.41-26.86,71.3-21.91,9.06-42.27,7.45-62.08-5.09a4.06,4.06,0,0,1-2.56-1.67c-6-5.77-10.47-12.37-11.51-20.88C216.61,123.74,219.83,111.66,217.66,99.78Z"/><path class="cls-114" d="M230.48,156.49l2.56,1.67c-17.18,16.24-39.41,23.23-60.64,31-30.27,11.1-60.44,23.29-93,26.93-4,.45-8,2.52-11.68-1l.09-1.5A8.47,8.47,0,0,1,69,210.84c3.76-1.73,4.23-8.33,10.14-6.9,8.52,8.54,18.1,3.05,26.45.77C141.17,195,176.15,183.26,209,165.86,215.87,162.21,223.3,159.59,230.48,156.49Z"/><path class="cls-115" d="M499.54,398.25l-6.16.61c-4.28-10.41.4-20.65.95-30.92.63-11.7-10.05-17.43-12.63-27.33-.47-1.77-5.66.49-6.28,2.72-2.69,9.61-12.45,11.09-18.32,16.93,2.52-14.67,14.64-22.65,23.11-33.16A6.07,6.07,0,0,1,485,325c3,.55,3.86,3.42,3.67,6.15a23.57,23.57,0,0,0,7.13,19.36c2.94,2.95,2.61,7.21,1.9,10.74C495.13,373.83,494.12,386.17,499.54,398.25Z"/><path class="cls-116" d="M491,199.13c7.23,4.29,10.72,9.54,7.27,18.57-3.22,8.41-.31,15.45,6.6,21.85,5.85,5.41,13.5,9.78,15.56,18.56-12.45-9.37-22.14-21.42-31.91-33.36-3.21-3.92-3.07-8.62-.07-12.59S490.82,203.59,491,199.13Z"/><path class="cls-117" d="M35.91,208.28c10.46-5.88,19.93,1,29.82,2.35a1.28,1.28,0,0,1-.87,2c-10.62,9-19.7.35-29.28-2.55l-.39-1Z"/><path class="cls-118" d="M35.91,208.28a3.51,3.51,0,0,0-.33,1.75c-5.49,1.09-5.32-4.67-8.17-6.78-.19-2.89-.37-5.77-.56-8.66,8.5-3.79,3,6.08,6.77,7v0c.2,1.4.39,2.8.58,4.19a24.11,24.11,0,0,0,1.44,2.76Z"/><path class="cls-119" d="M64.86,212.58a3,3,0,0,0,.87-2c3.23-3.13,6.29-6.45,9.72-9.34,4.07-3.43,4.1-.55,3.64,2.65L70,212.89a6.35,6.35,0,0,0-2.22,2.21l0,0Z"/><path class="cls-18" d="M386.9,612.06c54.12.37,106.55-10.09,158.36-24.63,21.86-6.13,42.8-16.07,66.2-16,4.92,0,10-1.2,13.33,3.69,1.9,2.78-.57,3.93-2.47,5.14-2.89,15.25-13.7,22.06-27.34,26.16-16.17,4.86-33.08,6.51-49.14,11.78-2.53.83-5.84,1.59-7.65,0-12.52-11.22-26.56-2.29-39.78-3.09-4.47-.27-9.72-1.22-14.2,1.47-23.37,3-46.68,6.68-70.13,8.85-20.51,1.89-40.88,6-61.64,4.88-1.71-.09-4.33-.46-4.55,2-.24,2.63,2.47,2,4.1,2.45,10.28,3.13,20.87,2.08,31.36,2.36,2.39.06,6.25-1.17,6.57,2.38.36,4.07-3.58,4.12-6.54,4.24-29.91,1.22-59.8,2-89.33-4.43-32.18-7.09-64.06-15.39-95.74-24.46-18.81-5.38-34.79-16.37-50.52-27.3-8.64-6-12.07-17.06-17.44-26.07-2.38-4-.17-8,2.5-11.48,8-10.37,31.86-15,43.34-8.51,5.08,2.88,10.33,6.36,11,12.22,2.7,23.24,20.64,31.64,38,41,19.83,10.68,41.85,11.55,63.37,14.79C321.27,614.28,354.05,614.56,386.9,612.06Z"/><path class="cls-67" d="M287.26,612a168.65,168.65,0,0,1-84.88-26.36c-10.67-6.74-15-16.28-17-27.84S174.47,539.71,165,540.21c-11.75.61-24.86,3-32.35,15-2.33,3.72.13,6.84,2.22,9.18,8.68,9.68,14,21.17,26.76,28.74a246.48,246.48,0,0,0,61,25.53c23.9,6.56,48.64,10.25,71.45,20.64-29.78-.94-57.74-10.3-86.34-17.36-23-5.69-46.12-9.77-65.94-23.8C120,582.71,116,557.59,134.51,544.4c22.67-16.2,50.86-12.45,61,17.32,5.09,15,17.76,22.66,30.66,29.87C242.67,599,260.27,602.2,278,605,282.3,605.71,287.45,605.33,287.26,612Z"/><path class="cls-120" d="M484.21,616.57l42.51-8.88c.36-.07.92-.19,1.1,0,17.3,17.73,34.48-.09,51.54-.91,17.87-.85,35.81-6.08,43-26.5,2.29,9.17-4.5,14.25-9.12,20.3-32.67,15.23-66.16,27.66-102.63,29.49-4.88.25-13.27,2.43-7-8.15,2.2-3.69-1.24-5.25-4.71-5.3C494,616.55,489.11,616.58,484.21,616.57Z"/><path class="cls-121" d="M287.26,612c-7.77-7.59-18.25-7.15-27.8-8.91-11.77-2.17-23.15-4.93-33.31-11.53,24.92,8.31,51.09,10.66,76.58,16.28,7.18,1.58,13.9,3.16,20.78-.41l15.81,0c2.75,5.76,8.05,4.48,12.77,4.52,11.6.09,23.21,0,34.81.06-14.08,5.88-29.73,3.93-43.85,4.41C325,617.08,305.39,618.57,287.26,612Z"/><path class="cls-80" d="M509.05,437.38c-.75,1.46-1.5,2.93-2.26,4.39C507.55,440.31,508.3,438.84,509.05,437.38Z"/><path class="cls-80" d="M506.73,441.86l-2,2.35Z"/><path class="cls-78" d="M373.29,605.22a36.09,36.09,0,0,1-27.19,0Z"/><path class="cls-15" d="M663,550.81l-2.18-1.67Z"/><path class="cls-15" d="M658.68,548.44l-2.38-1.53Z"/><path class="cls-122" d="M33.62,201.55c-1.14-8.65.84-17.09-1.14-26.23-2.31-10.69,8.33-18.39,15.74-25.77,3.12-3.11,6.19-9.32,10.14-7.88,5.35,1.94,2.33,8.67,2.34,13.2,0,8.95,1.5,18-1.91,26.86-3.31,8.59-7.26,16.23-18.35,13.94-5.48-1.13-3.77,4.87-6.83,5.85Z"/><path class="cls-123" d="M217.66,99.78c4.45-1.34,8-1.19,5.4,4.83-4.35,10-4.24,20.47-4.09,31-.66-2.47-2.12-5-1.84-7.39,1.12-9.42-1.55-15.39-12-16.08-1.36-.09-2.58-2.46-3.87-3.77Z"/><path class="cls-123" d="M196.17,110.4,199,109Z"/><path class="cls-61" d="M35.63,208.47l-1.44-2.76Z"/><path class="cls-107" d="M640.45,798.11c1.63-2.67,4.29-2.28,6.82-2.28C645.57,798.33,643,798,640.45,798.11Z"/><path class="cls-107" d="M649.47,795.75l4.56-2.2Z"/><path class="cls-107" d="M635.89,800.31l4.56-2.2Z"/><path class="cls-16" d="M606.45,809.36l4.62-2.15Z"/><path class="cls-28" d="M880.34,530.34l2.28-4.54Z"/><path class="cls-28" d="M878.15,532.63l2.21-2.3Z"/><path class="cls-124" d="M284.3,162.39c-18.89,4.65-36.24,2.37-50.44-12.1-12-12.18-13.86-28.78-5.67-44.68a6.55,6.55,0,0,1,3.56,2.61c13.29,19.87,33,23.85,53.58,10.83a3.5,3.5,0,0,1,3.21,1.49c3.75,11.3,1.93,22.8,1,34.2C289.34,157.77,288.5,161.55,284.3,162.39Z"/><path class="cls-125" d="M285.37,119.58c-.31,3.5-1.27,5.9-5.2,7.57-21.73,9.29-44.05.23-52-21.54a1.4,1.4,0,0,1,.62-1.65c.49-1,1.25-1.81,1.75-2.79,15.4-31.55,32.82-19.57,50.32.25C286.92,106.35,289.38,112.16,285.37,119.58Z"/><path class="cls-126" d="M300.73,81.28c28.08,11.61,30.9,48,5.68,69.21-4.28,3.59-8.55,7.43-14.42,8.41a5.46,5.46,0,0,1-2.14-2.84c-1.36-10.64,1.9-21.29-.06-31.9.47-3.48,2.75-6,4.82-8.61,5.9-7.39,9.42-15.08,5.06-24.67A9.59,9.59,0,0,1,300.73,81.28Z"/><path class="cls-127" d="M300.73,81.28c5.35,15.37,7.1,30-8.77,40.75-2.93-1.87-4.2-4.72-4.72-8a107.76,107.76,0,0,1-4.18-15.12c-2.23-7.51-7.48-12.68-13.25-17.52-1.62-1.36-4.12-3.8-3.76-5,.91-3,4.41-1.95,6.77-2A55.65,55.65,0,0,1,300.73,81.28Z"/><path class="cls-128" d="M289.17,113l2.79,9c2.79,11.1,1.06,22.13-.49,33.17-.64,1.67-.56,3.6-1.86,5-1.23,2-2.95,2.9-5.31,2.16,5.32-13.51,2.57-27.55,2.64-41.4C286.76,118.08,283.91,114.41,289.17,113Z"/><path class="cls-129" d="M289.17,113c-.74,2.65-1.49,5.3-2.23,8a6.63,6.63,0,0,0-1.57-1.42c1.13-6.7-2.84-12.14-4.49-18.15l2.18-2.53C287.43,102.59,287.53,108.14,289.17,113Z"/><path class="cls-124" d="M289.61,160.23l1.86-5c.17,1.23.35,2.47.52,3.7Z"/><path class="cls-124" d="M230.56,101.17,228.81,104Z"/><path class="cls-61" d="M67.78,215.1,70,212.89Z"/><path class="cls-130" d="M250.16,117.38c-5.83-1.49-8.77-5.09-8.06-10.7,1.25-9.78,9.5-12.23,17-13.42,4.7-.74,8.62,4.12,7.42,9.11C264.57,110.76,257.67,114.75,250.16,117.38Z"/></g></g></svg>