<svg xmlns="http://www.w3.org/2000/svg" viewBox="0 0 872.26 974.52"><defs><style>.cls-1{fill:#120d0d;}.cls-2{fill:#171516;}.cls-3{fill:#151113;}.cls-4{fill:#1a1719;}.cls-5{fill:#0b090b;}.cls-6{fill:#131012;}.cls-7{fill:#191617;}.cls-8{fill:#141112;}.cls-9{fill:#110f10;}.cls-10{fill:#282427;}.cls-11{fill:#121011;}.cls-12{fill:#1e1c1c;}.cls-13{fill:#191618;}.cls-14{fill:#181516;}.cls-15{fill:#2e282c;}.cls-16{fill:#2a282a;}.cls-17{fill:#302c2f;}.cls-18{fill:#302b2d;}.cls-19{fill:#242223;}.cls-20{fill:#272125;}.cls-21{fill:#393437;}.cls-22{fill:#343134;}.cls-23{fill:#484347;}.cls-24{fill:#736974;}.cls-25{fill:#bbacc6;}.cls-26{fill:#a79db2;}.cls-27{fill:#b8acc1;}.cls-28{fill:#807683;}.cls-29{fill:#0b0909;}.cls-30{fill:#746974;}.cls-31{fill:#af5a53;}.cls-32{fill:#805d60;}.cls-33{fill:#d5cbd9;}.cls-34{fill:#7b5047;}.cls-35{fill:#a08450;}.cls-36{fill:#b7a9c1;}.cls-37{fill:#9b6e78;}.cls-38{fill:#908495;}.cls-39{fill:#b98490;}.cls-40{fill:#393433;}.cls-41{fill:#795046;}.cls-42{fill:#e4b6c6;}.cls-43{fill:#a38252;}.cls-44{fill:#bb9c51;}.cls-45{fill:#2f292d;}.cls-46{fill:#bf8897;}.cls-47{fill:#f1dae2;}.cls-48{fill:#d1d1d7;}.cls-49{fill:#3b2e31;}.cls-50{fill:#78575a;}.cls-51{fill:#dddde4;}.cls-52{fill:#45332c;}.cls-53{fill:#d2d2d8;}.cls-54{fill:#655d69;}.cls-55{fill:#c5c5cb;}.cls-56{fill:#a6a4ad;}.cls-57{fill:#909096;}.cls-58{fill:#e1e0e6;}.cls-59{fill:#8b8a90;}.cls-60{fill:#8e8494;}.cls-61{fill:#8d8393;}.cls-62{fill:#766b76;}.cls-63{fill:#8d8392;}.cls-64{fill:#7a707c;}.cls-65{fill:#292328;}.cls-66{fill:#8d8493;}.cls-67{fill:#aca1b7;}.cls-68{fill:#8e8493;}.cls-69{fill:#dcb2c0;}.cls-70{fill:#372e33;}.cls-71{fill:#c38e9c;}.cls-72{fill:#c49ba8;}.cls-73{fill:#0f0e0f;}.cls-74{fill:#a79eb2;}.cls-75{fill:#a99eb6;}.cls-76{fill:#786c78;}.cls-77{fill:#1f1a1e;}.cls-78{fill:#2d262c;}.cls-79{fill:#93869a;}.cls-80{fill:#b7acbf;}.cls-81{fill:#9d93a5;}.cls-82{fill:#2b272c;}.cls-83{fill:#393237;}.cls-84{fill:#908496;}.cls-85{fill:#786e79;}.cls-86{fill:#9f94aa;}.cls-87{fill:#796f7a;}.cls-88{fill:#473e47;}.cls-89{fill:#776c78;}.cls-90{fill:#908596;}.cls-91{fill:#a59ab2;}.cls-92{fill:#1a1517;}.cls-93{fill:#857b88;}.cls-94{fill:#c6bccc;}.cls-95{fill:#1a1717;}.cls-96{fill:#322c32;}.cls-97{fill:#272227;}.cls-98{fill:#8e8394;}.cls-99{fill:#383432;}.cls-100{fill:#776b78;}.cls-101{fill:#2a2428;}.cls-102{fill:#c58d9c;}.cls-103{fill:#0e0b0b;}.cls-104{fill:#141113;}.cls-105{fill:#262023;}.cls-106{fill:#393239;}.cls-107{fill:#d5cada;}.cls-108{fill:#d4cad8;}.cls-109{fill:#4e454e;}.cls-110{fill:#4a424b;}.cls-111{fill:#433b43;}.cls-112{fill:#252125;}.cls-113{fill:#d5d6dd;}.cls-114{fill:#f3f3f4;}.cls-115{fill:#d6d6d5;}.cls-116{fill:#676360;}.cls-117{fill:#383332;}.cls-118{fill:#090708;}.cls-119{fill:#170f0e;}.cls-120{fill:#140d0d;}.cls-121{fill:#464040;}.cls-122{fill:#7a4c45;}.cls-123{fill:#6d443e;}.cls-124{fill:#0c0808;}.cls-125{fill:#b7655f;}.cls-126{fill:#956057;}.cls-127{fill:#955f57;}.cls-128{fill:#a7635b;}.cls-129{fill:#17100c;}.cls-130{fill:#ab8e59;}.cls-131{fill:#c2a461;}</style></defs><title>024Recurso 4</title><g id="Capa_2" data-name="Capa 2"><g id="Capa_1-2" data-name="Capa 1"><path class="cls-1" d="M280,93.61C294.43,83.15,302.69,66.24,318.3,57c1.56-1.11,2.45-.14,3.29,1,.75,2.6-.65,4.29-2.42,5.83-.63.58-1.3,1.11-2,1.63s-1.25,1.11-1.87,1.66c-.28.3-.59.58-.87.89-.53.64-1.09,1.26-1.63,1.9-.25.35-.52.67-.77,1a21.65,21.65,0,0,1-1.64,2c-1.54,1.68-3.32,3.09-4.93,4.71-.65.73-1.33,1.42-2,2.11-.35.38-.71.72-1.07,1.08-17,19.95-29.48,42.54-38.92,66.89-8,18.81-13.81,38.05-11.89,58.85-.07,2.79-.25,5.59,1,8.24a24.87,24.87,0,0,1,1,3.24c3.7,11.78,11.77,18.44,24,18.9,12.61.47,24.58,3.39,36.44,7.32,11.14,3.68,21.78,2.37,31.08-4.87,23.88-18.57,51.46-29.84,79.47-40,13.43-4.85,24.69-9.91,22.95-27.06-.26-2.51.49-5.93,3.58-6.18s4,3,5,5.41c4.94,11.94,1.34,23.86-9.82,30-6.37,3.5-10.31,8.5-13.23,14.84-6.35,13.79-9.89,28.49-13.3,43.14-1.46,6.25-3.93,12.16-5,18.47-1.89,12.8-7.82,23.29-17.09,32.37-11.59,11.35-24.84,15-40.37,10.87a6.38,6.38,0,0,1-1.07-.13c-2.51-.72-4.39-2.45-6.39-4,2.17,1.75,4.08,3.94,7.16,4.15,10.33,3.51,21.07-.61,31.46,1.7a7,7,0,0,1,3.31,3.74c-5.26,15.56-9.2,18.93-25.21,19.66-4.69.21-4.12,3.18-5.15,5.81C357,363.51,348,366.62,338,360a52.48,52.48,0,0,1-17.33-19.11c-4.17-7.15-8.41-14.28-11.67-21.91-1.88-4.41-4.69-7.65-9.24-9.3a5.48,5.48,0,0,1-2.44-4c7.7-10.33,20-12.52,30.78-17.31,7.82-2.2,14.8-6.26,21.86-10.11,1.22-.83,2.47-1.63,3.7-2.43.79-.59,1.62-1.12,2.43-1.67s1.57-1.23,2.35-1.86c.38-.35.77-.66,1.15-1,15.36-12,22.66-29.6,32.05-45.75.54-.95,1.42-1.71,1.47-2.91-1.32.4-2.35,1.36-3.61,1.88-13,5.34-23,13.59-28.89,26.78a101.25,101.25,0,0,1-10.49,17.3c-1.69,2-3.59,3.87-5.43,5.77-4.35,3.9-8.25,8.55-14.79,8.75a8.24,8.24,0,0,1-4.32-2c-7.56-4.42-10.89-13.5-19-17.19-2.07,4-.29,7.76.61,11.54.92,4.2,2.29,8.32,2.45,12.67a10.33,10.33,0,0,1-1.24,4.74c-13.1,11-29.54,17.61-40.44,31.43a6,6,0,0,1-4.76,1.36,4.23,4.23,0,0,1-2.69-4c4.77-8.49,4.15-16.81.76-25.86-5.1-13.59-6.22-27.95-4.59-42.38.67-5.94-.17-11.06-4-15.86-11.62-14.38-15.27-30.76-11.86-48.88.67-3.59,2-7.41-.62-10.89a8,8,0,0,1-1.94-4.44c1.92-6.67,9.13-10.37,9.92-17.69,8.83-18.69,14.2-39,26.69-56A56.83,56.83,0,0,1,280,93.61Z"/><path class="cls-2" d="M590.6,32.21c46,36.15,98.78,62.59,145,97.92C804,182.45,851.51,251.32,868.33,337c11.47,58.46-2.71,114.85-35.82,163.49-21.8,32-57,52-88.69,74.52-36.87,26.23-79.36,43.84-113.47,74.19-9.82,8.73-18.74,18.47-28.07,27.74a4.27,4.27,0,0,1-1.78-2.79c0-7.25,5.13-11.5,9.56-16,26.16-26.87,58.22-45.38,90.26-64.05,43.9-25.57,85.1-54.83,120-92.1,10.13-10.81,18.7-22.83,23.68-37,8.66-24.6,16.94-49.31,18.43-75.66,3.58-40.44-4.86-78.61-22.49-114.78C832.91,260,824.61,246,816.15,232.22c-34.8-61-85.19-105.31-147.76-136-22.44-11-39.81-28.57-59.7-42.85-1.23-.94-2.42-2-3.69-2.85-1.69-1.16-3.35-2.38-5-3.63-4-3.9-10.17-5.54-12.37-11.43A3.46,3.46,0,0,1,590.6,32.21Z"/><path class="cls-3" d="M676.76,676.54c60.61,10,115.42,30.48,150.17,85.52,40.55,64.23,7.6,139.74-57,168.87-10.62,4.79-20.88,10.34-31.31,15.54-1.62.84-3.61.58-5.12,1.73l-4.15.48c-2,1.21-2.75,0-3.28-1.64a5.72,5.72,0,0,1,1.39-2.79,35.33,35.33,0,0,1,3.51-3.18c20-12.53,32.89-30.27,39-53,4.08-29.28-3.86-54.92-23.28-77.09-2-2.26-4.1-4.41-4.84-7.47,0-2.11,1.2-3.23,3.15-3.68a13.54,13.54,0,0,1,10.81,5.46c15.11,19.39,27.23,40,25.39,66-.49,2.2-1.57,4.32-1.33,6.62,1.8,17.72-5.55,32.4-15.26,46.31a9.2,9.2,0,0,1-2.32,2.46c1.22.45,1.67-.76,2.48-1.17,27.61-14.13,50.93-32.77,63-62.4,12.53-30.69,11.17-60-4.06-90.57-14.9-29.88-39.33-37.3-68.66-38.39-25.1-.93-49.94,0-72.94,12.1-2.89,1.52-7.21,3.48-9.28.06-2.44-4,1.46-7,4.6-8.88a96.52,96.52,0,0,1,40.58-13.28c21.89-1.92,43.73-3.27,65.28,2.74,1.26.35,2.39,1.51,3.88.84-1.54-.36-2.59-1.47-3.78-2.38C759,706.65,731,695.62,701.34,688.66c-12.13-2.85-24.46-4.76-37.05-4.59-4.62.06-10,1.13-12.88-4.49C659.09,672.17,668.45,678.75,676.76,676.54Z"/><path class="cls-4" d="M261.74,322.35c.7.78,1.41,1.55,2.12,2.33,1.64,6.78-3.95,10.71-6.27,15.93a50.12,50.12,0,0,0-3,5.12c-.39.93-.83,1.82-1.27,2.73-3.4,7.78-5.61,16-8.58,23.91-.61,1.65-1.54,3.28-1.13,5.17a14,14,0,0,1,1.34-5.31c.29-.67.61-1.34.94-2a25.26,25.26,0,0,1,2.36-4.33,12.3,12.3,0,0,1,2.26-2.57c5.51-3.79,11-3.54,16.36.26a18,18,0,0,1,4.38,5.54,17.39,17.39,0,0,1,2.07,10.22c-.52,2.3-1.33,4.37-4,4.92a4.19,4.19,0,0,1-2.58-2c-2-4.51-4.06-10.19-10.3-6.71-5.49,3.07-6.93,9.18-4.16,14.83a135.64,135.64,0,0,0,17.61,27.52c27,32.3,53.33,65.21,82,96.15,10.64,11.5,17.95,25.06,19.69,41.07a66.94,66.94,0,0,1-.21,10.21c-2.36,7.81-2.12,16.55-8.27,23a3.6,3.6,0,0,1-3.29-1l-.89-1.58c8.21-32-2.3-56.91-24.51-80.9-30.7-33.14-60.6-67.3-85.7-105.19-1.09-1.64-.83-7.29-5.44-3.46-2.57,2.14-1.75,8.16-6.9,6.79-.71-.19.24-6.95.58-10.65.91-9.88-4.93-17.12-9.63-24.79-23.08-37.71-41.38-76.92-41.94-122.48-.17-13.77,2-27,4.27-40.41a2.39,2.39,0,0,1,3.3,1c2.89,5.34,1.9,11,1.22,16.58-2.93,23.87-1.39,47.34,6.28,70.25,7.28,24.38,18.12,47.18,31.12,69,.92,1.54,1.53,4.05,3.66,3.79s2-2.82,2.77-4.46c3.43-7.47,2.59-14.31-1.69-21.48-14.19-23.79-21.61-49.73-23.11-77.39.54-5.1-1.5-10.87,3.88-14.67,6.7,2.29,5.08,8.66,5.82,13.3,3.48,22,6.88,44,17.5,64,1.24,2.34,2.32,4.75,3.68,7,2.52,4.18,4.77,4,7.49,0C254.16,327.71,255.42,322.15,261.74,322.35Z"/><path class="cls-5" d="M676.76,676.54l-25,3.94c-2.45,5.38-8,6.54-12.51,9.08-25.38,14.34-43.95,34-50.68,63.34-3.7,16.13,0,23.21,15.58,28.4a72.84,72.84,0,0,0,15.51,2.92c10.88,1.16,18.81-1.5,23.43-12.65a38.44,38.44,0,0,1,15.27-17.82c1.93-1.19,4.31-2.22,6.24-.32s.53,4.26-.58,6.13c-2.69,4.55-6.28,8.5-8.91,13.1-1.09,1.91-3,4.07-1.52,6.18s4.17,1,6.33.63c11.17-2.09,22.34-3.57,33.6-.51a3.72,3.72,0,0,1,1.88,2.71c-2.65,5.32-7.76,3.83-12.13,4.4-1.08.12-2.18.19-3.26.27a21.78,21.78,0,0,0-6.17,1.3c-10.86,3.42-22.23,4.2-33.33,6.42-4,.79-8.58.54-10,5.81a5,5,0,0,1-2.14,2.23c-11.88-2.33-22.06-9-33.31-13-5.69-2-8.74-2.51-11.69,3.43-9.6,19.36-26.38,31.63-43.73,43.29-28.28,15.22-57.7,26.83-90.18,29-5.21.35-10.44,1.71-15.16-1.79-1.16-6.61,5-5.31,8-7.39,21-3.79,41.9-8.23,62.15-15.32a150.86,150.86,0,0,0,63.09-41.68c7.2-9.28,13.78-18.64,4.12-30.24-5.8-9.43-5.5-20-4.7-30.29.64-8.31,0-16.2-2.82-24a4.81,4.81,0,0,1,2.15-4.28c4.81.85,8.19-.27,10.41-5.34,2.94-6.71,6-13.49,10.87-19.14.9-1.19,1.81-2.38,2.67-3.61a27.45,27.45,0,0,1,1.73-2.43c2.73-2.82,5-6.39,9.68-6.16.18,1.26.36,2.52.55,3.77q19.28-.9,38.56-1.8C652.85,674.55,664.89,673.29,676.76,676.54Z"/><path class="cls-6" d="M298.07,717.36c8.68-1.74,12.32-7.93,15.51-15.62,13.18-31.77,27-63.26,40.36-95,1.85-4.4,2.26-9.4,3.33-14.12a3.58,3.58,0,0,1,2.85-1.39,3.91,3.91,0,0,1,2.55,1.82c.35,12.76-5,23.81-10.4,34.89-1.4,2.87-4.26,6.45-2,9.25,2,2.47,5.55-.35,8.36-.9a75.94,75.94,0,0,1,12.17-1.84c3.42.35,6.63-.72,9.89-1.47,3.63-.55,7.18-.7,10.25,1.84.8,6.39-5,5.26-8.14,7.21-7.31,1.48-14.7,2.38-21.93,4.48-12.61,3.65-22.38,10.14-26.42,23.31-5.31,10.27-8.54,21.43-13.55,31.83-1.32,2.49-2,5.24-3,7.86-6.54,20.07-14.84,39.53-17,61-1.12,11,2.09,20.9,3.64,31.26a5.69,5.69,0,0,1-2.36,4.17c-3.62-1.54-5.34-1-3.46,3.29,1.74,47.85,25.36,83,63.37,110,4.49,3.19,10.14,5.4,11.55,11.71-.53,1.94-1.5,3.08-3.68,2-18.4-9.24-32.57-23.58-46-38.69-4.29-4.83-8.33-9.48-14.65-11.5-5-2.75-10.55-.12-15.65-1.72a3.17,3.17,0,0,1-.6-3.25c9-4.57,8.29-10.35,4.55-19-10.94-25.27-11.4-52.12-8.91-79.1a219.54,219.54,0,0,1,9.93-48.77c1.16-3.54,2.9-7.2-.53-10.55A2.63,2.63,0,0,1,298.07,717.36Z"/><path class="cls-7" d="M137.43,620.87c-.68,19.49-14,33.57-21.58,50.1-7.66,16.76-16,33.2-17.74,51.92-2.24,24.43,5.87,32.6,45.75,46.53,1.29,1.81,6.95.31,4,5.32-10.19,3.89-19.42-1.23-27.9-4.8-12.11-5.1-22.91-5.35-34.26.84-2.89,1.58-6.09,3.09-9.6,1.47a3.55,3.55,0,0,1-1.15-3c3.26-7.43,10.27-9.65,17.09-11.58,4.71-1.34,6.63-2.81,3.66-7.51a32,32,0,0,1-3-7.3c-7.09-21.72-21.47-30.19-44.24-26.06a71.59,71.59,0,0,0-17.05,5.77c-2.53,1.15-5.91,3.66-8,.25-2.29-3.67.84-6.55,3.61-8.36,12.14-7.9,25.19-11.14,39.72-8,8.32,1.81,15.72,7.12,24.63,6.22,4.27-8.88,5.73-18.66,9.18-27.78,1-2.72,1.3-6-1.33-8.43-2.17-2.27-5-4-6-7.25a3.93,3.93,0,0,1,2.86-3.54c2.82-.69,5.3.3,7.71,1.58,3.52,2.66,5.47.41,7-2.41,3.65-6.56,8.09-12.67,10.93-19.69,3-7.43,9.85-14.67,3.75-23-6.33-8.65-16.23-5.95-25.09-5.78-4.1.08-7.78,3-12.1,2-1.62-.92-2.57-2.09-1.56-4,.14-19.83-9.17-34.17-25.35-44.92-6.2-4.11-11.07-9.53-6.07-17.86,1.76-1.06,2.89-.06,3.94,1.19,2.44,3.64,3.32,8.33,7.33,10.87,1.95.64,3.37-.79,5-1.32a4.55,4.55,0,0,1,2.72,1.09c5.07,13.31,17.42,22.69,20,37.39.73,4.16,4.36,4.83,8,4.43,13.12-1.46,24.38,2.53,34.07,11.33A3.86,3.86,0,0,1,137.43,620.87Z"/><path class="cls-8" d="M293.53,878.44v1.66c-1.63,2.7-5,.41-6.89,2.39-47.44,2.54-94.83,5.1-142.21-1.49-33.66-4.68-63.27-18.74-91.22-37.14,0-5.09,2.75-7.19,7.55-7.16,14.88,14,33.48,21.29,51.9,28.95,3.84,1.6,7.65,3.28,11.76,4,7.07,1.17,14.08,2.64,21.15,3.78-2.52-5.72-8.55-8.71-11.19-14.35-.32-.68-.8-1.28-1.1-2-2.09-4.81-5.89-11-.48-14.25,4.56-2.71,7,4.13,9.28,7.61,12.36,19.05,29.25,28.21,52.36,26.9,17.28-1,34.67-.16,52-.25,1.6,0,4.12,1,4.54-1.44.22-1.28-1.91-2.09-3.15-2.88-8-5-15.8-10.42-20.43-19.06-1.89-3.51-5.6-8-1.49-11.08,3.67-2.73,6.45,2.22,8.93,4.75,5.26,5.4,10.11,11.26,16.33,15.59,10,7,20.29,13.1,33.28,12.11C287.73,874.82,291.33,875.11,293.53,878.44Z"/><path class="cls-9" d="M658.59,964.11C597.25,974.9,535.76,979,474,968.21c-3.58-.62-6.95-2.44-10.42-3.71a2.41,2.41,0,0,1,.28-3.28c5.22-3.54,11-2.64,16.44-1.32,20.71,5,41.93,6.78,63,6.83,30.95.08,57.32-11.94,76.77-37,1.16-1.49,2-3.23,3.21-4.67,2.88-3.45,4.87-10.73,10.39-7.23,4.18,2.64.25,8.39-2,12.16-9.46,16-22.18,28.59-39.67,35.77a15.46,15.46,0,0,1-3.3.81,8.66,8.66,0,0,0,2.93-.56c19.14-4.82,38.83-5.26,58.34-7.24C653.37,959.62,658,958.53,658.59,964.11Z"/><path class="cls-10" d="M96.38,667.13,94,668.81a3.36,3.36,0,0,1-4,1.27c-17-5.89-28.78,1.33-38.8,14.56C37.14,703.31,17.78,718.44,12.45,743c-2.34,3.53-.64,9.5-6.52,10.91-3.36-2.53-.26-6.62-2.28-9.47,8.52-37.89,42.08-58.24,62.19-88.06,9-13.34,13.18-28.44,21-42l2.53,3c2.26,10.92-4.41,19.26-8.57,28.13-4.82,10.28-5.22,9.82,4.95,13.61C89.91,660.57,95.64,660.77,96.38,667.13Z"/><path class="cls-11" d="M590.6,32.21l-3,2.58c-8.17,2.52-14.45-2.68-21.11-5.56-15.56-6.73-31-13.68-47.8-16.78a24.63,24.63,0,0,1-3.39-.72c-3.31-1.39-6.82-1.32-10.32-1.34-8-.77-15.87-2.51-23.9-3.08-5.46-2.06-11.19-.95-16.77-1.5-3.82-.39-8.74.85-9.72-5.12C503.11-2.44,549.25,4.56,590.6,32.21Z"/><path class="cls-12" d="M3.65,744.4,6,754.12c3.42,3.72,2.54,8.46,2.92,12.86,1.87,21.21,10.51,38.76,27,52.58,5.27,4.42,12,8.05,13.66,15.76-.63,1.81-1.54,3.14-3.77,2.22-28.93-19.88-50-44.1-45.15-82.43C1.15,751.48,2.64,748,3.65,744.4Z"/><path class="cls-13" d="M137.43,620.87l-2.4-3.55c-3.47-2.57-3.71-6.47-3.43-10.11,1.58-20.5-7.5-35.85-22.82-48.28-8.92-7.13-18.43-2.84-27.8-1.44a4.06,4.06,0,0,1-3.57-3c.68-4.42,4.1-6.31,7.55-8.17,2.47-.65,4.46-3.15,7.42-2C129.38,554,147.89,585.44,137.43,620.87Z"/><path class="cls-14" d="M298.07,717.36c0,.74,0,1.49,0,2.24-.93,6.63-7.25,7.22-11.53,9.25-16.37,7.75-32,16.5-46.07,28a7.43,7.43,0,0,1-5.22,1.73c-2.22,3.49-.52-7.67-3.61-1-10.07,7-20.95,11.77-33.46,12-2.26-.75-4.72-1.34-4.4-4.57,29.44-7.12,54.29-23.89,80.43-38C281.74,723,290.11,720.54,298.07,717.36Z"/><path class="cls-15" d="M193.81,765l4.81,2.25c-6.4,9.31-17.06,7.58-25.93,8.89-9.84,1.45-17.77,4.52-23.76,12.38-6.78,8.56-9.41,19-13.24,28.94-5.11,4.24-6.94,1.2-8-3.58,1.37-16.27,10.6-28.55,20.63-40.42l-4.46-4.07,40.36-2.86c2.31-1.17,5.09,0,7.35-1.5Z"/><path class="cls-16" d="M454.62.69c8.52,5.07,18.76-1.55,27.2,4A7.71,7.71,0,0,1,477,7.86c-18.13,1.22-36.53,0-54.21,5.61-12.13,3.75-24.21,7.72-36.56,10.76a5.41,5.41,0,0,1-4.45-2.34,2,2,0,0,1,.62-3C403,11.35,423.28,2.54,445.57.77a1.56,1.56,0,0,0,2.09,0Z"/><path class="cls-17" d="M463.64,961.61c0,1-.07,1.93-.1,2.89-33.72-3-65.19-12.68-93.56-31.56l2.83-2.37c3.65-1.9,6.65.22,9.45,1.9,22.07,13.23,46.68,18.7,71.46,23.75C457.46,957,462.44,956,463.64,961.61Z"/><path class="cls-18" d="M658.59,964.11l-9.37-2.33c1.24-5.45,5.93-5,9.79-5.39a118,118,0,0,0,19.75-3.73c12.31-3.1,24.87-5,37.31-7.42,3.59-.71,7.34-1.92,10.65,1l2.62,2.43C706.33,956.45,682.63,961.06,658.59,964.11Z"/><path class="cls-19" d="M381.54,20.59l2.68,2.09a5.06,5.06,0,0,1-1.78,2.79C363.33,37,342.73,46,324.81,59.5a3.38,3.38,0,0,1-4.15-.39L318.3,57c17.35-17.39,39.89-26.16,61.23-36.91A1.62,1.62,0,0,1,381.54,20.59Z"/><path class="cls-20" d="M45.84,837.54,48.63,835c-3.61-12.92-2.73-25.6,1.95-38.11.69-1.36-.36.25.47-1,2.88-4.29,4.41-12.89,10.62-10,5.29,2.48-.43,9-1.5,13.78-5.7,12.5-2.35,25.12-.47,37.72l-6.49,6.47Z"/><path class="cls-21" d="M191.65,204.54l-1,.13-1-.07a3.25,3.25,0,0,1-.17-2.17c1.07-1.44.73-3.36,1.64-4.86,5.94-20.3,15.17-38.85,29.15-54.88a3.08,3.08,0,0,1,2,2.11c-.09,7.25-6.14,11.58-8.62,17.67-3,5.27-5.53,10.77-8.2,16.2a46.31,46.31,0,0,0-2.26,5.28c-.27.91-.6,1.8-.95,2.68-.46,1.34-.93,2.69-1.35,4.06-.22,1-.51,1.9-.81,2.84C197.74,197.56,198.76,204.18,191.65,204.54Z"/><path class="cls-22" d="M92.38,544.33l-5.45,4.85c-10.23-1.79-18.73,6.05-28.8,5.2l-2.75-2.85C66.75,544.17,78.55,539,92.38,544.33Z"/><path class="cls-21" d="M220.26,142.69c7.23-14.09,18.33-24.26,32.06-31.78.34.41.68.83,1,1.24a8,8,0,0,1-3.11,6.83,174.53,174.53,0,0,0-21.88,21.87,7.34,7.34,0,0,1-6.85,2.92Z"/><path class="cls-23" d="M280,93.61l-1.7,6.78c-5.81,2.22-9.71,7.51-15.56,9.69-3.23,1.2-6.07,4.56-9.93,1.52l-.48-.69C260.52,103.5,269.22,96.89,280,93.61Z"/><path class="cls-24" d="M286.64,882.49l6.89-2.39c5.24,1.08,11.17-1.94,15.82,2.65Z"/><path class="cls-24" d="M191.57,765.06l-7.35,1.5Z"/><path class="cls-25" d="M358.89,592.22a10.18,10.18,0,0,0-1.62.43q.83-3.48,1.64-7l.43-.52.58.33C360.46,587.88,361.5,590.33,358.89,592.22Z"/><path class="cls-26" d="M191.11,197.57l-1.64,4.86Z"/><path class="cls-18" d="M733.49,948.2l5.12-1.73Z"/><path class="cls-27" d="M381.54,20.59a5.2,5.2,0,0,1-2-.48l2.87-1.18A4.32,4.32,0,0,1,381.54,20.59Z"/><path class="cls-11" d="M447.66.79l-2.09,0A1.5,1.5,0,0,1,447.66.79Z"/><path class="cls-28" d="M518,9.59c25.3,2.62,46.4,16.88,69.64,25.2q7.32,5.39,14.62,10.79c2.82,16.14,15.23,24.72,26.74,34,3.21,2.6,7.27,5.65,5.34,10.23-2.09,5-7.05,3.36-11,2.29a19.81,19.81,0,0,0-15.29,1.52c-6.26,3.32-13.12,2.83-19.91,2.94-11.45.18-22.95.37-33.56,5.69-2.11,3.17-5.75,3.66-8.87,4.64-31.84,9.91-48.31,32.13-51.51,64.64-1,9.91-5.55,17.42-13.33,22.63-21.71,14.53-38.16,33-45.84,58.4a8.22,8.22,0,0,1-3.35,4.44c-6.55.9-6.86,6.61-8.81,11.21s-3,11.14-10.83,8.93c5.17-18.76,9.89-37.66,15.68-56.22,3.25-10.43,8-20,20.27-23.86,6.85-2.17,9.54-23.74,4.46-28.38a11.85,11.85,0,0,0-1.37-.94c-.27,1.43-1,3-.73,4.27,3.72,16.61-5.22,23.48-19.52,28.69-30.06,10.94-60.15,22.12-85.3,43-5.29,4.41-12.37,6.76-19.12,5.65-20.34-3.33-40.73-6.76-60.71-11.73-9.84-2.44-14.48-11.42-15.5-21.64,7.18-4.26,9.82,4.28,15.12,5.34,3.15,2.12,6.17,4.55,10.33,4.31a67.66,67.66,0,0,0,27.8,2.13c2.11-.1,4.17.51,6.28.33,25-6,45.23-19.66,62.61-38.1,18.27-.66,34.42-8.09,48.4-18.66,9.25-7,10.76-19.3,9.43-30.86-.57-4.95-1.37-9.62,1.58-14a9.41,9.41,0,0,1,2.41-2.17c3.38-1,5.61-3.54,8.1-5.88,14-13.18,24.89-29.12,38.24-43C494.75,60.73,501.57,42.1,500,20.89,499.32,11.24,502.89,9.33,518,9.59Z"/><path class="cls-27" d="M320.66,59.11c19.64-14.85,41.09-26.52,63.56-36.43l36.24-11c8,1.86,18.71,15,19,23.89.35,11.45-1.25,22.9-6.8,32.89A530.24,530.24,0,0,0,407.46,119c-1.91,4.52-4.67,9.07-8.44,11.92-27.25,20.63-48.19,48.88-79.11,65.05-17.2,9-37,6.84-50.26-5.6-6.56-6.16-9.79-13.46-8.4-22.28,1.19-7.55.68-15,.44-22.55,9.65-25,21-49,41-67.63,5.48,4.36,2.3,8.78-.16,12.92-3.72,6.28-6.46,12.78-5.89,20.23.56,7.23,3.6,8.87,9.37,4.43,7.15-5.51,13.86-11.78,18.81-19.33,7-10.63,19.68-18.17,18.5-33.39-.11-1.33,1.36-2.61,2.25-3.83,2.24-3,5.44-5.17,7.47-8.37-4.33.9-7.88,3.49-11.76,5.37-5.79,2.81-10.34,7.5-15.85,10.73-3.6,2.11-7.75,4.88-8.75-2.54Z"/><path class="cls-26" d="M261.69,145.53c3.55,4.26,6,9.7,4.21,14.59-5.94,16.5,1.22,27.66,14.77,34.54,12.14,6.16,25.29,4.63,37.83-1.43,18.6-9,33.21-23.25,47.1-37.68,11.22-11.66,28.34-17.5,35.18-32.63,11.63-25.72,29.64-48.65,35-77.07,2-10.46,2.87-22.06-11.37-25.43-6.25-1.48,1.78-7.94-4-8.71,18.26-8,37.42-8.07,56.78-6.49C482.34,7.84,490,3,493,8c3.26,5.38-4,9.73-5.71,14.93-4.42,13.54-7.65,27.39-11.24,41.17-6.55,25.15-22.08,44.55-41.94,60.74l-.21,1a16.57,16.57,0,0,0-1.95,1.89c-.8,1.19-1.56,2.4-2.35,3.61-18.39,17.28-37,34.34-50.57,56-1.3,2.07-2.58,4.9-6.07,3.66-15.14,23.6-38.86,33.59-64.44,40.64-.05-2.23.33-4.2,2.93-4.82-2.59.07-4.14,2.93-6.89,2.57-10.88,5.21-21.22,2.3-31.46-2.1-5.24,2.57-4-6.54-8.76-4.85-6.67,2.3-7.68-8-14.1-6.31v0c-1.51-2.13-.36-4.84-1.52-7C245.31,186.26,251.18,165.42,261.69,145.53Z"/><path class="cls-29" d="M430,257.37c8.39-29,24.73-51.83,51.39-66.89,6.3-3.56,9.28-10.14,9.66-17.1,2.25-41,26.26-62.77,63.65-73,1.8-1.9,4.4-1.51,6.59-2.28,2.38-.22,4.77-.17,7.16-.19,3.41.22,7.38-1,9.06,3.58-3.6,5.86-10,4.74-15.24,5.44-14,1.88-25.7,8.35-37.08,15.93-5.41,3.61-8.75,8.38-8.35,15.07,1.85,31.42-5.87,61.4-13.5,91.41-.59,2.34-3,5.56-.37,7.12,2.29,1.38,4.64-1.74,6.76-3.15,33-21.92,68.77-37.54,106.88-48a106.19,106.19,0,0,1,14.43-2.78c4.14-.53,9-1.49,11.13,3.05,2.66,5.55-2.62,8-5.93,10.7-6.47,5.23-13.82,9.17-21.1,13.17-30.44,16.72-60.16,34.45-87.22,56.5-22.47,18.31-41,39.9-57.61,63.44a24.85,24.85,0,0,1-2.07,2.51,19.35,19.35,0,0,1-2.39,2.13,11.75,11.75,0,0,1-2.8,1.43A8.39,8.39,0,0,1,457,335a9.16,9.16,0,0,1-2.22-2.08,34.62,34.62,0,0,1-2.44-3.88,30.71,30.71,0,0,1-1.48-2.7c-5.63-10.54-10.43-21.49-16.82-31.66-4.25-6.77-5.66-4-8.26,1.06-3.2,6.24-3.89,11.88.58,17.74,3,3.95,3.94,8.82,5.37,13.47a23.66,23.66,0,0,1,.69,3.22,53.65,53.65,0,0,0,1.84,11.68A93.77,93.77,0,0,1,428,377.27c-9.82,24.85-30.09,36.09-58.13,32-27.59-4.06-50.8-16.29-68.73-37.94a30.52,30.52,0,0,1-1.89-2.8c-.32-.43-.63-.89-1-1.31-4.29-7.05-9.7-13.34-14-20.38-5.06-8.2-5.28-.95-6.78,2.13-2.78,5.37,1,12.74-5.16,17.07a2.86,2.86,0,0,1-3-1.46c-4.56-17.28-1.08-32.62,11.17-45.79a42.38,42.38,0,0,0,6.25-7.94c2.92-3.07,5.57-6.84,10.75-4.47l2.76,2c-7.68,16.32,4.5,26.3,12.07,37.73,14.62,17.16,31.27,31.21,53.83,37,15.25,3.89,26.07,1.41,33.48-8.75s8.2-31.17,2.12-40.95c-2.57-4.13-7.6-3-10.36-6.12l-2.64-2.27c.19-1.13.45-2.48,1.36-3C411.33,309.65,417.56,288,424.73,267,425.91,263.5,426.27,259.47,430,257.37Z"/><path class="cls-30" d="M261.74,322.35c-.79.8-1.54,1.63-2.36,2.38-5.38,4.91-5.75,18-12.19,16.19-5.55-1.59-8.63-13-12.15-20.33-11-23-13.79-47.87-16.67-72.73-9.74-22.82,3.09-63.11,23.14-72.67,8.05,1.43,3.63,7.41,3,10.6C240.66,205,242.67,222.46,257.2,237c1.26,1.27,2.68,3.24,2.62,4.83-1,23.79.56,47.13,9.12,69.78C269.82,314,264.29,318.72,261.74,322.35Z"/><path class="cls-31" d="M391.43,327.18c7.89-3.43,12.47-2.38,14.7,7.44,4.11,18,7,35.94-10.4,48.22-19.54,13.79-37.87,2.14-54.73-7-12.4-6.76-23-17-31.41-28.78,1.1-8.16,3-9.41,12.71-8.36,5.34,6.23,10.26,12.88,16.15,18.54,3.73,3.58,8.82,5.75,14.44,2.8,5.09-2.66,6.65-7.28,6-12.28-1-6.8,1-7.57,6.73-4.77C382.23,351.08,382.93,332.65,391.43,327.18Z"/><path class="cls-26" d="M191.65,204.54l6.79-13.67c11,.51,4.16,7.1,3.68,11.31-.2,1.76-1.52,3.41-1.73,5.32.29-1.95,1.37-3.62,2-5.45,4.51-14,13.05-25.34,23.37-35.51a83.36,83.36,0,0,0,15-11.71c3.88-3.66,7.82-5,9.68,2.06,1.62,9.1-7.38,10.84-11.19,16.18-14.07,16.72-22.83,35.55-22.83,57.84,0,4.25.05,8.51-.07,12.76-1.41,6.13-1.08,12.35-1.09,18.55,0,2.73-.78,5.49-2.68,7.16-6.3,5.54-9.13,12.36-9.39,20.65-.07,2.42-1,5.31-4.64,5.07C185.82,265.71,188.56,235.14,191.65,204.54Z"/><path class="cls-32" d="M357.16,299.36c-.37,0-.89-.06-1.1.15-4.51,4.59-8.91,2.8-13.42-3.67-3.19-4.57-2.45-6,2.27-7.89,23.85-9.71,38-28.58,48.37-51.23,5.9-12.95,13.63-24.47,28.35-28.83,2-.58,4.25-.21,6.38-.28a33.15,33.15,0,0,1-.9,5c-4.22,12.43-6.12,26.61-13.59,36.64-5.72,7.69-5.47,20.87-18,23.3C380.34,278,366.77,285.85,357.16,299.36Z"/><path class="cls-33" d="M316.72,64.12c1.8,1.93,3.14,3.87,6.27,1.09a77.85,77.85,0,0,1,14.54-10.6c7.15-3.81,14.85-6.6,22.32-9.83-.53,8.53-11.73,10.56-12.5,16.91-2.79,23.1-20.39,35.65-33.8,51.17-4.24,4.9-9.52,12.62-16.59,8.44s-3-13-2.69-19.9c.4-8.69,11.34-13.61,8.46-23.5l.23-.24a4.53,4.53,0,0,1,2-2l5.15-4.85a2.09,2.09,0,0,1,1.73-1.69l.43-.44a2.39,2.39,0,0,1,1.83-1.85l.38-.43a2.73,2.73,0,0,1,1.88-1.9Z"/><path class="cls-34" d="M300.34,269c.63,9,8.06,22.7-9.79,28.42-2.43.78-5.22,3.46-6-.91-2.78-15.76-12.47-31.21-2.37-47.73,1.41-2.31,2.37-5.83,5.16-4.88,16.14,5.45,33.87,6,48.64,15.57,4.89,3.17,6.29,6.95,1.79,12-4.78,5.36-8.74,4.14-13-.41a123.66,123.66,0,0,0-10.32-10.41c-3.17-2.68-5-9-10.51-6.44C299.06,256.5,300.75,262.08,300.34,269Z"/><path class="cls-35" d="M328.91,340.76q-6.81-12.24-13.62-24.48c-4.19-7.57-6.4-13.67,4.65-18.51,11.57-5.07,12.18,1.93,15.12,9.59,6.08,15.8,20.37,19.59,35.27,22.28,3.86.69,11.92-3.4,10.73,4.64-.95,6.41-8.26,5.17-14.06,5.69-5.43.48-9.18-11.65-15-1.68-4.26,1-8.16,3-12.2,4.56S332,344.11,328.91,340.76Z"/><path class="cls-36" d="M250.44,156.89c-7.41-7.23-8.53,2.77-12.51,4.72-3.61,1.76-6.82,4.36-10.2,6.58-3.49-7.14,3.23-9.71,6.32-13.81,2-2.67,4.87-4.63,7-7.26-3,1.93-5.89,4-8.73,6.18-3.89,2.93-7.67,6-11.66,8.79-3.19,2.24-6.66,4.17-9.26-.91q5.06-8.72,10.12-17.41L252.8,111.6c9.23-2.06,15.27-11.38,25.49-11.21C265.33,117.42,260.12,138.26,250.44,156.89Z"/><path class="cls-37" d="M347.77,267.94c10.67-20.78,21.17-41.73,46.25-48.86,1.41-.4,2.8-.88,4.19-1.33,0,.91.4,2.08,0,2.7-12.64,18.34-18.59,41.5-39,54.28A34.15,34.15,0,0,0,347.77,267.94Z"/><path class="cls-38" d="M430,257.37c-8,26-11.23,54.94-41.22,67.54-11.44.92-22.93,2.57-33.87-2.74-.72-.47-1-1-.79-1.51s.4-.82.63-.82c33,1.39,48.58-10.19,57.29-42.66,8.06-1.89,6.92-9.4,9.54-14.79C422.79,259.91,422.16,250.19,430,257.37Z"/><path class="cls-39" d="M357.16,299.36c.86-12,21.69-26.52,38.4-26.79,1.67,4.95,3.42,9.87,4.95,14.86a23.37,23.37,0,0,1,.43,4.91l-5-1.9c-12.11-2.74-12.22-2.71-8.58,8.95.77,2.48.08,5.1,1.24,7.44-4.87,8.15-5.91-2-9-1.87-5.52.23-9.35-18.76-16.33-1.46Z"/><path class="cls-40" d="M265.15,258.47c.68-2-4.6-13.54,2.1-13.83,10.37-.44,4.48,11.06,5.91,17.25,2.78,12.05,4.48,24.35,7.41,36.36,1.18,4.84.09,7.47-4.23,8.58s-4.49-3-5.27-5.63C267.32,288.62,262,276.31,265.15,258.47Z"/><path class="cls-41" d="M322.3,338.65c-4.66,2.13-10.37,2.69-12.71,8.37-7.26-7.25-10.89-16.71-15.65-25.51-4.16-7.67,2.91-9.45,6.35-13.2,4.41-2.32,7-1.69,9.18,3.55C313.21,321,318,329.74,322.3,338.65Z"/><path class="cls-42" d="M297.53,306.34l-7.87,5.12c-7.46,3.82-10.43,12.5-17.8,16.42-3.2-.32-4.39-2.59-5.13-5.3,10.34-14.16,25-22.49,40.36-29.8a39.1,39.1,0,0,1,22.89-11q6.57-4.68,13.12-9.38c2.29-1.46,4.42-1.32,5.52,1.3,1.21,2.85-.24,5.3-2.54,6.8-5.35,3.49-11,6.5-16.34,10C318.79,295.34,307.08,298.65,297.53,306.34Z"/><path class="cls-43" d="M304.73,258.84c10.14,3.78,13.91,14.63,22.4,20.23-5.12,6.21-11,10.81-19.75,9.12L304.65,275A30.51,30.51,0,0,1,304.73,258.84Z"/><path class="cls-44" d="M328.91,340.76c8.31,5,14.65-8.41,23.06-2.47,3.15,5.72,7.32,14.25.52,16.9C340.81,359.75,334.8,349,328.91,340.76Z"/><path class="cls-45" d="M214.54,229.65c1.4-21.85,6.54-42.06,24.71-56.58l2.26,2.12c-21,20-24.4,45.59-23.14,72.67q-1.26,8.2-2.51,16.4a1.15,1.15,0,0,1-1.66-.82q.11-10.24.23-20.49A22.75,22.75,0,0,0,214.54,229.65Z"/><path class="cls-46" d="M329.74,290.51c4.54-3.71,9.07-7.45,13.64-11.12,3.13-2.51,7.16-5-.28-7l4.67-4.45c8-4.79,11.24-1.56,11.44,6.79l0,0a5.72,5.72,0,0,1-2.2,1.85,2.26,2.26,0,0,1-1.47.91,4.32,4.32,0,0,0-2.95,2C345.26,283.82,338.52,289.26,329.74,290.51Z"/><path class="cls-47" d="M266.73,322.58c1.4,1.5,2.8,3,4.19,4.49a3.51,3.51,0,0,1,1.06,2.69,23,23,0,0,1-1.12,4.52,16.76,16.76,0,0,1-2,4.51c-1.35,4-3.07,8.06-7.23,9.67-3.68,1.41-8.15,2.91-9.18-3.51l0,.07c1.79-1,1.2-3.28,2.44-4.59q4.49-7.87,9-15.75Z"/><path class="cls-48" d="M383.15,312.66c-3.92,1.77-6.74,4.25-9,3.84-6.53-1.15-4.87-8.22-7.38-12.41-.18-.29,2-2.5,2.14-2.43C373.29,304.91,377.6,308.31,383.15,312.66Z"/><path class="cls-49" d="M388.56,306.83c-1.6-2.5-3.94-4.8-4.66-7.53-1.22-4.69-6.54-10.46-1.19-14.2,4.9-3.44,9.33,2,13.19,5.34l-2.5,2.14c-6,2.84.54,8.31-2.47,11.78Z"/><path class="cls-50" d="M346.05,255.37c-1.08-8.83,5.24-11.46,10.63-14.74.1-.06,1.54,1.48,1.4,1.73-3.36,5.81-6.06,12.34-10.68,16.92C345.45,261.21,347,256.17,346.05,255.37Z"/><path class="cls-51" d="M390.93,304.36a76,76,0,0,1-3.57-6.95c-1.06-2.65-1.71-5.46-2.54-8.19l8.58,3.36C399.57,298,401.41,302.46,390.93,304.36Z"/><path class="cls-52" d="M307.38,288.19l19.75-9.12,2.86,2.7-22.9,11C307.19,291.25,307.28,289.72,307.38,288.19Z"/><path class="cls-53" d="M363.92,317.87c-6.39-.73-6.77-5.08-7.36-9.15-.25-1.69-.07-5.07,1.93-3.69,3.53,2.43,6,6.45,8.68,10C367.24,315.09,364.78,317.11,363.92,317.87Z"/><path class="cls-54" d="M354.76,319.84c.05.78.11,1.55.16,2.33a3.06,3.06,0,0,1-1.06-.27c-3.7-2.9-7.39-5.81-11-8.8-.12-.1.45-1.05.7-1.6Z"/><path class="cls-55" d="M407.31,279.65l-2.65,3.67c-1.49-2.24-3.06-4.44-4.33-6.8-.12-.22,1.74-2.2,2.5-2.09C405.25,274.78,408.31,275,407.31,279.65Z"/><path class="cls-34" d="M304.73,258.84q0,8.1-.08,16.2C301.83,269.63,301.53,264.22,304.73,258.84Z"/><path class="cls-56" d="M344.47,304.23a23.52,23.52,0,0,1-3.49,1.45,24.91,24.91,0,0,1-2.9-5.76c-.2-.66,1.12-1.78,1.74-2.69C341.17,299.25,342.51,301.27,344.47,304.23Z"/><path class="cls-57" d="M415.29,261.57l-5.49,4.82a24.93,24.93,0,0,1-2.24-4.55c-.14-.5,1.27-2.07,1.86-2C411.1,260,412.72,260.75,415.29,261.57Z"/><path class="cls-58" d="M342.78,254.1c-2,1.22-3.39,2.56-3.95,2.28a5.41,5.41,0,0,1-2.15-3.11c-.1-.33,1.59-1.78,2.33-1.69C340,251.7,340.94,252.79,342.78,254.1Z"/><path class="cls-59" d="M280.61,244.92c-.95,1-1.61,2.2-2.14,2.15a3,3,0,0,1-2.08-1.68c-.16-.42.88-1.75,1.53-1.88S279.42,244.25,280.61,244.92Z"/><path class="cls-28" d="M248.7,209q.77,3.52,1.52,7Q249.47,212.52,248.7,209Z"/><path class="cls-37" d="M357,276.61l2.2-1.85Z"/><path class="cls-27" d="M316.39,64.45l-1.88,1.9Z"/><path class="cls-27" d="M314.13,66.78l-1.83,1.85Z"/><path class="cls-27" d="M305,75.61l-2,2Z"/><path class="cls-27" d="M311.87,69.07l-1.73,1.69Z"/><path class="cls-37" d="M352.54,279.47l2.95-2Z"/><path class="cls-60" d="M561.17,99.86l-6.46.54a2.92,2.92,0,0,1-1.07-.32,13.3,13.3,0,0,1-1.3-1.4c6.85-1.43,13.95-4.8,20.48-3.92,18.94,2.55,36.37-11,55.43-4.38,1.16.41,2.76-.44,4.16-.7-.6-1.64-.74-3.77-1.88-4.83-4.12-3.82-8.11-8.14-13-10.72-11.76-6.24-17.46-15.14-15.3-28.55l4.26,2.75c.83.62,1.65,1.25,2.46,1.88,38,35,87.14,53.46,127.58,84.8,33.34,25.85,60.73,57.12,80.65,94.58,0,7.84-1.49,15.74,1.94,23.38,1.27,2.82,1.09,6.76-1.57,8.36-8.05,4.86-4.65,10.35-2,16.39,8.62,19.7,16.42,39.69,20.56,60.92.87,4.47,1.74,9.26,5.38,12.2,8.22,6.64,9.27,16,10.47,25.35,1.7,13.19,1.6,13.2,13.11,14.33-3.53,68.7-37.58,118.65-92,158.9-43.18,31.94-91.56,55.38-134.39,87.48-13.87,10.4-26.65,22.12-37,36.25l-8.41,8.25c-5.75-2.24-4.86-7.18-4.15-11.5,6.65-40.66-8.4-75.3-29.7-108.26-4-6.14-8.53-12.36.24-18.37,8.07-4.77,17.4-4.25,26.15-6.14,27.4-5.9,54-14.2,76.12-32,13.48-10.8,23.73-25,33.74-39.07.95-1.25,2-2.46,2.88-3.73.51-.89,1.08-1.75,1.65-2.61a13.82,13.82,0,0,1,3-3.56,3.37,3.37,0,0,1,3,0c3,2.59,1.8,6.27,2.56,9.46,2,8.39,4.58,15.62,12.82,21.3C731.93,494,737.54,505.86,739,518.3c1,8.29,3.4,8.08,10,5.73,12.56-4.49,19.35-14.82,27.05-24.4.39-.39.79-.76,1.17-1.16a21.19,21.19,0,0,1,2.6-2.13c26.61-23.24,40.28-53.91,45.25-87.58,6-40.66-1.92-80-19-117.57a415.27,415.27,0,0,0-46.21-77.65c-8.75-13.51-18.89-25.72-32.56-34.6-15.33-13.77-31.31-27-48.82-37.57-14-8.4-29-16-45-20.32-4.64-1.24-7.21-3.37-8.71-7.51-10.23-7.38-22.71-7.81-34.26-11.09-3.1-1.24-6.4-1.29-9.65-1.62A24.13,24.13,0,0,0,569.37,99C566.64,99.28,563.79,98.41,561.17,99.86Z"/><path class="cls-26" d="M865.08,390.52c-13.87,8.8-13.59,2.35-16.87-10.74-7.44-29.75-19.61-58.33-30.09-87.31-2.55-7.06-6-13.8-9-20.67-2.16-4.84-6-9.73,3.83-10.89,6.52-.76,4.59-5.53,2.52-9.41-4.11-7.71-4.09-15,1.76-21.91C850.7,278,872.14,330,865.08,390.52Z"/><path class="cls-28" d="M609,50.21l-2.46-1.88Z"/><path class="cls-61" d="M679.16,955.43l-29.94,6.35c-19.81,2.29-39.61,4.6-59.43,6.81a37,37,0,0,1-6.28-.34c1.64-1.32,3.08-3.06,4.94-3.89,19.31-8.6,33.79-22.25,43.26-41.15.69-1.38.48-3.21.69-4.84a20.64,20.64,0,0,0-3,3.2c-29.56,48.95-75.57,52.95-125.57,46-13.41-1.87-26.78-4-40.17-5.95-31.65-6.34-63.49-12.09-90.83-31-44.71-29-76.69-65.88-76.9-122.72,1.16-.36,2.92-.05,2.9.75-.3,10.46,10.52,11.57,15.13,18a54.75,54.75,0,0,0,21.48,17.69c8.79,5.19,18.12,9.23,27.39,13.47,8.34,3.82,9.39,9.11,2,14.32-8.67,6.11-5.37,10.77-.41,16.35,2.78,3.13,5.68,6.24,9.68,7.63,20.73,7.23,41.78,13.15,64,12.77,14.68-.25,26.67-7.07,37.55-16.39,3.74-3.21,3-5.56-.53-8a28.16,28.16,0,0,0-4-2c-3.8-1.85-10.42-.8-10.3-6.85.13-6.73,6.82-7.27,11.7-8.68,24.81-7.17,48.5-16.47,67.9-34.32,16.56-13.95,36.17-25.16,43.18-47.72,1.11-3.59,3-3.93,5.83-2.19,12.43,7.74,28,8.94,39.33,18.91,9.13,4.43,11.67,13.3,13.9,21.89,5.58,21.53,7.74,43.28,1.92,65.17,0,1.19-1.32,2.14-.62,3.47a11.73,11.73,0,0,1,.65-3.24c5.51-21.61,3.59-42.9-1.54-64.24a50.75,50.75,0,0,0-13.24-24.24c-2.69-4.4-5.52-7.58,3.53-8.44,13.84-1.31,27.49-4.69,41.21-7.19,1.65-.77,3.49-.8,5.19-1.38l1.07-.07c5.17,1.26,10.29.35,15.51.06,18.54-1.05,34.15,5.53,46.45,19.61,25.81,23.47,35.33,52.51,29.61,86.74a77.5,77.5,0,0,0-25.58,20c-7.69,9-18.23,14.34-29,19C703.06,934.94,689.46,942.84,679.16,955.43Z"/><path class="cls-62" d="M695,780.35c-13.22-.5-26.34.06-39.29,3.13-2.38.57-5,.17-7.48.21.42-2.82.44-5.78,1.37-8.42.86-2.42,2.7-4.5,4.12-6.72l9.08-14.24c-4.78,4.69-9.32,9.65-14.4,14-6.62,5.66-3.09,19.47-16.72,19.63-16.85.19-36.56,1.33-44.7-14.58-10-19.65,2.37-38.92,13.74-55.24,12.49-18,30.12-30.42,51.07-37.64C703,680,749.13,694.7,789.59,726.3c2.31,1.81,6.54,2.54,6,7-3.25-.7-6.52-1.31-9.74-2.12-35.82-9.11-70.95-8.7-104.79,7.9-2.86,1.4-5,4.26-7.49,6.44,4.17,2.49,5.82-2.06,8.65-3.21,41.14-16.69,83-19,122.66,1.41,18.44,9.53,40.15,52.43,34.37,91.08-7.51,50.16-40,78.26-82.47,98.54-1.16.56-2.72.25-4.09.35a13.08,13.08,0,0,1,1.7-2.78c17-16.48,23.49-37.1,24-60.13,3.2,4.39.77,9.39,1.52,14.05a1.88,1.88,0,0,1-.59,2c-.77.56-.53.72.66.23.25-.11,0-1.29,0-2.08-.24-6.44.35-11.89,5.66-17.28,10.37-10.52,15-23.57,14.52-39s-.81-30.66-6.49-45.44c-7.06-18.36-21-27.93-39.09-32.5-7.91-2-14.92,1.11-20.66,6.59-6.58,6.3-14.21,11.16-21.66,16.24-5,3.41-10.2,6.19-16.87,4.35C693,777.26,696.45,779.71,695,780.35Z"/><path class="cls-63" d="M695,780.35l-6.39-3.51c2.08-.25,4.19-.84,6.24-.69,13.7.94,21.85-9.58,31.24-16.27,24.91-17.74,50-15,65.18,12.1,16.24,28.94,18.74,60.06,3.09,91-4.11,8.15-16.76,11.5-13.4,23.88.13.45-.92,1.23-1.41,1.86a30.64,30.64,0,0,1-.52-3.28c-.24-4.88-.41-9.77-.61-14.65-1.4-28-10.65-52.15-33.54-69.79-6.6-1.76-11.84-6.1-17.71-9.26-10.17-5.46-21.31-8.19-32.44-10.88Z"/><path class="cls-64" d="M679.16,955.43c2.91-15.9,17.56-19.82,28.78-25.29,17.37-8.48,33.52-17.43,46.28-32.43,4-4.71,9.47-11.37,18.12-8-5.26,24.52-20.39,41.59-41.07,54.48a10.66,10.66,0,0,1-2.76,1.75,3.55,3.55,0,0,0-1.79.35Z"/><path class="cls-65" d="M694.75,780.84c19.59-.44,34.92,9.73,50.15,20.14l-2.17,1.95c-18.34-13.84-39.9-17.56-62-19.67Z"/><path class="cls-18" d="M728.51,945.9l2.76-1.75Z"/><path class="cls-66" d="M368.38,553.81c-3.23-23.67-20.08-38.76-34.48-55.57-28.85-33.67-59.46-65.88-83.36-103.63-6.54-10.33-.07-16.84,3.37-24.67.36-.83,3-1.69,3.4-1.32,4.43,4.51,12.66,6.16,11.56,14.91,4.05,4.33,2.43,9.72,2.75,14.74.12,1.8-.51,3.58-.07,5.38,2-1,2-3.53,3.49-5,.52-.5,1-1.11,1.51-1.61,4.63-2.66,6.9.56,9.1,3.75,2.56,3.73,5.64,7.06,8.21,10.78,3.55,5.14,6.08,2,8.74-.87a3.52,3.52,0,0,1,2.91,0,14.77,14.77,0,0,1,3.08,3.28c1.17,1.58,2.24,3.23,3.36,4.85.92,1.19,1.87,2.36,2.83,3.52,18.57,28.36,41.36,52.86,67.48,74.36a185.7,185.7,0,0,0,21.5,14.67c3.44,2.1,7.86,3.27,8.62,8.23-.49,4.07-3.29,6.57-6.21,8.9C396.9,536,387.1,542.77,378.4,551,375.76,553.45,372.53,555.75,368.38,553.81Z"/><path class="cls-25" d="M370,637.28c-3,.46-5.94.74-8.84,1.39-5.63,1.27-11.21,2.73-16.81,4.12,2.06-6.3,3.28-13.06,6.39-18.8,5.42-10,8.12-20.72,10.5-31.63-.91-1.53-1-3,.52-4.19q3.4-11.5,6.79-23c3.84-4.4,9.33-6.26,14.18-9,11.77-6.77,24.05-15.06,37.78-6.79,18.2,10.94,33.92,24.39,31.18,49.07-.41,3.75.31,7.5.17,11.23a9.63,9.63,0,0,1-2,4.73,2.46,2.46,0,0,0,.4,2.06,4.62,4.62,0,0,1,.68,2.2,3.83,3.83,0,0,1-1.18,2.09,13.37,13.37,0,0,1-2.17,1.32,8,8,0,0,0-3.16,2.3c-2.42,4.88-1.62,11.14-6.45,15a14.33,14.33,0,0,1-8.43,1.27,9.93,9.93,0,0,1-4.87-2.05c-3.14-8.64-2.79-17.91-4.82-26.75a42.13,42.13,0,0,1,.62-4.45c.57-4.1,3.49-7.68,2.72-12.08A106.94,106.94,0,0,0,417.1,606c-3.48,6.68-5.86,13.83-8.88,20.71-2,4.53-4.19,8.88-9.28,10.75-3,.72-5.77.69-8.09-1.67l-11.11.26C376.56,637.11,373.12,636,370,637.28Z"/><path class="cls-67" d="M450,619.6l.24-2.58a7.27,7.27,0,0,1,.27-1.56,3.42,3.42,0,0,0-.4-1.53,2,2,0,0,1-.17-1.59c-1.8-6.16-1.32-12.32-1.31-18.68,0-12.07-4.35-22.94-14.83-31.15-13.74-10.77-26.91-18.94-44.11-7-6.36,4.41-12.66,9.66-21.17,9.65l-.15-11.36,43.37-34.19c7.67-1.86,11,4.77,15.9,8.26,7.52,5.39,14.84,11.08,19,19.74.51,3.8,1,7.65,4.94,9.71a6.26,6.26,0,0,1,2.4,5.06c.19,2.42-1,5.33,2.36,6.67,2,1.29,2.61,3.35,3.15,5.46a5,5,0,0,0,2.78,3.85,11.3,11.3,0,0,1,3.45,2.39c1.74,3.68-.68,6.54-2,9.55-2.74,6.45-3.91,13-1.88,19.85,1.64,5.46,1.14,10.36-2.68,14.8-4.69,5.44-3.87,9.25,3.28,11.54a19.74,19.74,0,0,1,9.23,6.32c2.35,2.87,1.15,4.77-2,5.94a10.13,10.13,0,0,1-4.55.12,19.62,19.62,0,0,1-4.08-1.45c-.85-.34-1.68-.74-2.5-1.14a23.31,23.31,0,0,0-5.12-1.49,39.21,39.21,0,0,1-4-.87c-1.4-.3-2.78-.72-4.21-.9-2.54-.38-5.08-.72-7-2.65a2.25,2.25,0,0,1,.39-2.78c.43-6.28.64-12.62,5-17.8a15,15,0,0,0,3.47,2.59c.83-.07-.08,1.75,1.23,1.19a5.84,5.84,0,0,1,.17-2.28A6.21,6.21,0,0,1,450,619.6Z"/><path class="cls-68" d="M214.2,263.44a5.15,5.15,0,0,1,1.66.82c3.64,27.87,10.26,54.63,26.4,78.39,7.31,10.76-3.83,19.65-4.95,29.7-.2,1.83-2.87-.7-3.78-2.08-15.3-23.36-27.59-48.12-35-75.17C200.25,282.81,201.61,270.35,214.2,263.44Z"/><path class="cls-69" d="M252.48,345c11.49,7.91,10.91-5.5,15.94-9,3.29,9.71-.52,19.95,2.21,29.71l.57-.27a3.76,3.76,0,0,1,.62,3,2.53,2.53,0,0,1-2.53,1.47c-.94-1.52-1.89-3-2.83-4.57-5.67-6.31-11-8.23-15.61,1.09a1.57,1.57,0,0,1-.78,1.38c-.53,1-1.37,1.78-1.61,2.93q-3.08,6.38-6.14,12.75c.15-5-.94-10.44.72-14.87C246,360.65,246.19,351.53,252.48,345Z"/><path class="cls-70" d="M278.18,397.56c-2.75,5.31-3,15.86-8.91,14.57-7.1-1.54,1-9.77-.46-15.33-1.1-4.13,0-8.83.06-13.27.8-1.64,1.6-3.29,2.39-4.93,5.89,1.8,3.72,6.15,3.16,10-.11.74-.17,1.46-.23,2.17.3-1.06.16-2.2.56-3.29,1.38-3-.53-7.45,4.22-8.72C285.58,385.32,284.17,391.54,278.18,397.56Z"/><path class="cls-71" d="M250.85,366.37c-.39-5.23,2.39-8.82,7.13-9.28,5-.49,7.59,3.42,8.48,8.19C261,361.24,255.76,361.78,250.85,366.37Z"/><path class="cls-72" d="M275.73,388l-1.59,9.3c-.4-3.06-.75-6.13-1.22-9.18s-1.1-6.37-1.66-9.55c-.65-2.92-1.31-5.83-2-8.75L271,367.6a2.45,2.45,0,0,1,2.91.15,10.41,10.41,0,0,1,2.13,4.33c.43,2.11,1.19,4.18.76,6.4C276,381.61,277.26,385,275.73,388Z"/><path class="cls-73" d="M361.74,588.17c-.17,1.4-.35,2.79-.52,4.19l-2.33-.14c.34-2.24.69-4.48,1-6.72Z"/><path class="cls-69" d="M254.87,340.43q-1.22,2.29-2.44,4.59Z"/><path class="cls-71" d="M248.46,370.68l1.61-2.93Z"/><path class="cls-74" d="M565.67,712.57c7.37,9,6,19.15,4.33,29.51-1.48,9.48,1,18.43,4.85,27-.81,10.11-3.79,19.9-4.37,30-27.81,34.76-67,47.58-108.38,56.05-6.23,1.27-12.58,1.95-18.87,2.9-10.57,1.91-21.15,4.23-31.94,2.32-3.94-.7-8.08-1.55-11.08-4.7-.46-1-.58-2,.8-2.51-10.84-1.09-8.93-8.86-9.45-16.38-2.79-39.93,8.83-78.15,13.33-117.2,1.51-13.13,5.61-25.68,13.29-36.73,2.18-1.91,3.5-4.06,1.59-7a5.14,5.14,0,0,1,2.41-4.69c2.49-.15,3.4-1.28,2.09-3.72-.31-14.32,3.17-20.18,14.7-24.89,11.3-1.35,21.3,4,31.43,7.16,33.32,10.49,63.72,26.57,89.15,51.1A19.32,19.32,0,0,1,565.67,712.57Z"/><path class="cls-74" d="M467.55,647.09c2.14-8.86-6-7.75-10-8.93-5.18-1.53-8.61-4.28-5.06-8.19,13.23-14.53-.08-34.41,10.78-49.08,2.47-8.6,9.56-13.72,16.32-17.59,22.62-12.95,46-24.26,73.39-21.69a14,14,0,0,1,7,1.6l1.31,1.28c-5.65,4.1-4.3,8-.76,13.17,18.46,27.07,32.16,55.92,33.83,89.55.57,11.52-5.47,22.68-1.09,34.19a2.23,2.23,0,0,1-1.18,1.65,2.52,2.52,0,0,1-1.66,1.87c-4.44,8.15-9.93,15.91-13,24.54-3.38,9.41-6.05,6.42-9.92,1-26.91-28.35-59.72-47.17-96.41-59.73C469.31,650.11,467.54,649.47,467.55,647.09Z"/><path class="cls-75" d="M540.36,832.53c-2.77,6.72-16.67,18.82-26.55,22.49-15.15,5.62-30.45,10.86-45.64,16.38-2,.72-3.67,2.15-5.5,3.26.74,1.05,1.25,2.55,2.27,3.09,23,12.09,23,12.07,2.91,26.16C443.41,921,376,909.06,357.49,884.74c-4.43-5.83-7.59-9.69,2.17-12.63,3.5-1.06,8-3.19,7.25-7.37-.37-2.1-5-3.53-7.86-5.07-8.2-4.48-16.46-8.86-24.7-13.27-3.39-3.41-10-5.29-5.78-12.27-2.5-6.59-8.35-10.15-13.41-14.22-5.73-4.62-10.37-9.74-12.33-17-13.12-26.69-2-51.74,5.41-77,1.87-6.37,5-12.37,7.59-18.55,3.62-.91,2-4,2.63-6.21l13-31.9c2.58-1.16,3.62-5.92,7.2-4.1,3.39,1.72,3.46,5.74,3,9.13-1.89,14.21-3.71,28.52-9.52,41.79-5.51,12.63-8.4,25.83-9.86,39.38-1.1,10.28-1.23,20.4,7.92,28,2.6,2.17,3.58,5.76,4.52,9,3.49,12.09,8.23,23.42,17.27,32.65,3.8,3.88,5,9.23,5.74,14.52,4.3,8.66,13.12,9,20.84,11.12A486.24,486.24,0,0,0,434.27,862C472.39,862.13,507,849.55,540.36,832.53Z"/><path class="cls-76" d="M574.3,745.57c1.15-20.74,7-38.11,17-54,4.24-6.68,37-15,43.3-11.25,4.09,2.45.07,3.34-1.2,4.15-27.06,17.28-47.9,39.09-53.39,72.3-.22,1.36-1.24,2.59-1.89,3.88-.88-1.51-2.24-2.94-2.55-4.56C574.85,752,574.57,747.87,574.3,745.57Z"/><path class="cls-77" d="M467.55,647.09c32.64,11.76,63.58,26.57,89.22,50.62,4,3.78,7.19,8.47,10.75,12.74-.62.7-1.23,1.41-1.85,2.12-33.94-38.2-78-57.64-126.79-68.22l-1.49.09c-3-.1-6.09.71-9-.76a3.38,3.38,0,0,1-1.61-2.54c.64-1.8,2.09-2.24,3.8-2.24,2.71.16,5.47-.48,8.1.6l8.05.81c1.25,0,2.13.92,3.19,1.39l4.15.75c1.51,1,3.4.81,4.93,1.69a2.44,2.44,0,0,0,2.05.49,7.76,7.76,0,0,0,2.45,1.4Z"/><path class="cls-78" d="M434.27,862a231.47,231.47,0,0,1-72.16-12.79c-5.87-2.08-5.75-2.41-7.39-8,15.67,1.23,30.25,6.34,44.57,12.43s29.25,3.38,43.94,4.43Z"/><path class="cls-79" d="M570.48,799.17c-4.77-10.92-2.19-20.77,4.37-30C586.94,781.11,577,789.9,570.48,799.17Z"/><path class="cls-65" d="M679.7,783.33l-5.19,1.38Z"/><path class="cls-60" d="M590.48,684.92c.55-.62,1.1-1.25,1.66-1.87C591.58,683.67,591,684.3,590.48,684.92Z"/><path class="cls-24" d="M59.7,837.39c-9.33-12.45-7.35-25.51-2.11-38.74,11.79,2,23,6.28,34.88,8.05,8.14,1.22,16.2,2.69,24.48,1.53,5-.71,9.68.16,13.31,4.15,1.05,1.81-1.65,7.38,4.29,4.29,5-4.91,11.27-5.14,17.68-5.23,2.16,0,4.79.06,5.69-2.49s-1.14-4.13-2.77-5.61c-4.77-4.33-9.25-8.79-9.05-15.93,8.45-17.07,25.74-12.86,39.76-16.53,4.28-1.12,8.51-2.39,12.76-3.6,12.17-1.59,22.92-7.21,33.95-12,1.65,7.16-4.47,11.4-6.67,17.09-4.61,11.94-9.58,23.64-9.49,36.74a12.89,12.89,0,0,1-.19,3.34c.51-1.32.1-2.69.21-4,1.52-18.27,6.72-35.16,18.51-49.6C252.45,740,276.26,731.4,298.1,719.6c5.3-.73,9-3.39,5.8,6.64-14.6,46.21-21.72,93.1.72,139.12,7.52,15.42-6.59,9.49-11.09,13.08-27.26,3.63-45.6-11.24-62.12-29.92-1.42-1.61-2.92-3.16-4.38-4.73.69,2.34,1,4.91,2.14,7,6.21,10.93,16.52,17.29,26.84,23.63,1.67,1,2.86,2.81,4.27,4.25-1.72.39-3.45,1.11-5.17,1.11-24.51.09-49,.19-73.52.07-22.23-.1-34.07-15.06-44.71-31.68-1-1.56-2.72-2.66-4.11-4,.1,1.8-.18,3.73.37,5.38,3.4,10.11,11.16,16.79,18.82,23.55,1.32,1.16,2.43,2.56,3.63,3.84-1.67.29-3.43,1.07-5,.78C117.08,871.56,84.21,863.87,59.7,837.39Z"/><path class="cls-80" d="M399.29,853.69c-15.55-1.67-30.51-5.45-44.57-12.43-10.59-20-20.68-40.19-31.91-59.77-9.34-16.27-3.76-32.27.06-47.79,4.72-19.14,13.35-37.3,15.46-57.19.47-4.43,4.14-13.28-6.91-7.18,7.08-26.44,30-26.11,50.52-29.92,5-.22,10-2,15-.59,3.33,3,1.51,6.33.42,9.37-4.13,11.46-5.35,23.58-8.37,35.28-.94,3.68-2,7.75-.58,11.21,5.85,14.68,2.15,29.05-.76,43.46-2,10.07-2.19,20.27-2.61,30.46,0,1.1-.74,2.09-.58,3.23a18.69,18.69,0,0,0,.76-3.31c1.1-12.85,4.24-25.33,6.84-37.9,5.42-26.3,11.39-52.47,22.11-77.26,1.94-4.49,3.39-9.31,8-12a5.55,5.55,0,0,1,5.28.53l2.17.8c2.85,1.71,6.39-.25,9.2,1.72l0,0c-9.74,5.7-13.72,14-11.56,25.19-1.05,1.29-2.58,1.42-4.06,1.64-.86,1.8-1.73,3.6-2.59,5.39a5.88,5.88,0,0,1,1.45,1.45,3.29,3.29,0,0,1,.63,2l0,1c-16.2,23.31-14.47,51.35-20.27,77.39-6,26.8-7.92,54-7.36,81.43.14,6.37-1.1,11,6.88,11.62Z"/><path class="cls-81" d="M330.22,834.84c-3.61,5.64,3.26,7.52,4.13,11.56-17.16-8.52-29.74-21.6-38.44-38.55l.81-6,3.93,3.53C310.25,815.49,323.52,821.86,330.22,834.84Z"/><path class="cls-82" d="M330.22,834.84l-29.57-29.41c.73-.83,1.45-1.66,2.18-2.48q14.91,14.14,29.82,28.27c1.81,1.71,3.78,3.26,5.67,4.88Z"/><path class="cls-83" d="M427.49,641.86,423,642c-8.54,1.73-17.11,3.93-25.1-1.82l-15.93-.74,8.91-3.58,9.4-.75c4-2.07,8.19-3.28,12.75-2.15,4,1.48,8.59,1.42,12,4.49l4.19.52a1.14,1.14,0,0,1,.92,1.72Z"/><path class="cls-80" d="M318.46,701.23c3,3.73,2.69,6-2.63,6.21Z"/><path class="cls-83" d="M370,637.28l9.76-1.19Z"/><path class="cls-61" d="M130.26,812.38c-21.73.2-43.28-1.12-64.07-8.2-3.27-1.12-8-.1-8.6-5.53l3.09-11.25-8.07,11c-16.81-5.94-29-17.38-36.3-33.25-3.34-7.24-7.75-14.76-6.58-23.51,7.8-31,32.38-50.23,52.35-72.33,8.26-9.14,21.15-5.18,32-.5L100.8,674c1.62,5.95-1.89,10.9-3.5,16.09-2.56,8.27-2.51,16.7-3.14,25.11.29,8.84-3.52,4.15-6.89,2.23-19.43-11.11-45.88-11.29-59-.38-1.49,1.24-2.31,3.27-3.44,4.94,1.53-.69,3.14-1.26,4.6-2.07,17-9.51,34.33-9.86,52-1.89,16.82,7.57,11.69,26.61,20.28,38.45L76,769.53c-.88,1.11-2.81,2.12-.34,3.56,15.68-11.83,31.76-14.53,50-4.78,6.5,3.48,14.4,6.59,22.66,5.18,4.13.74,2.38,2.09.59,3.94A71.74,71.74,0,0,0,130.26,812.38Z"/><path class="cls-63" d="M96.38,667.13c-31.27-3.76-23-19.91-11.89-37.31,2.36-3.71,3.27-8.33,4.84-12.54,9.7-7.43,21.29-7.18,31.06-3.14,19.51,8.06,10.18,20.94,3.1,32.68-5.72,5.3-9.12,12.39-14.12,18.24-1.74,2.05-2.49,5.69-6.5,4.55Z"/><path class="cls-84" d="M110.12,555.62c21.52,15.23,27.35,36.8,24.91,61.7-12.94-6.61-25.71-14.06-41.12-7.61-.37.15-2.35-1.76-2.29-2.6C93,588.58,75,579.07,71.31,563c-1.34-5.49.35-8.87,6.41-9.2.87,1,1.75,2,2.62,3.07,6.69,7.8,16.88,11.45,23.31,19.58.88,1.11,1.68,2.43,3.23,2.85.26-1.6-.6-2.91-1.18-4.27C102.46,567.44,101.27,560.39,110.12,555.62Z"/><path class="cls-85" d="M94.16,715.16C89,700.24,93,686.8,100.8,674c6.76,3.08,4.75,7.93,2.9,13.06C100.35,696.34,97.33,705.78,94.16,715.16Z"/><path class="cls-86" d="M77.72,553.75q-3.21,4.61-6.41,9.2v0c-3,0-.12,6-4.59,4.5-4.72-3.12-8.18-7.08-8.6-13,8.91-5.55,17.87-10.86,28.8-5.2Z"/><path class="cls-87" d="M102.87,669.61c6.41-8,9.58-19,20.62-22.79-3.92,7.66-7.92,15.27-11.71,23C108.54,676.39,105.76,673,102.87,669.61Z"/><path class="cls-84" d="M66.73,567.42c2.26-.76-3.82-10,4.59-4.5C69.77,564.4,74.19,572,66.73,567.42Z"/><path class="cls-88" d="M75.66,773.09l-5.76,4.07c-.35-4.45,3.31-5.69,6.1-7.63C75.89,770.72,75.77,771.9,75.66,773.09Z"/><path class="cls-89" d="M9.73,741.64c7.18,24.3,21.69,43.06,42.88,56.76C50.36,809.74,46.4,821,52,832.57c2.53,5.23-.75,3.65-3.36,2.41C22,814.57,2,790.66,6,754.11Z"/><path class="cls-90" d="M434.08,124.81c27.64-28.74,43.4-63.12,48.5-102.53a1.69,1.69,0,0,1,.45-1c13.32-10.87,5.63-14.13-5.79-16l4.58-.5,24.94,2.83c2.9,1.8,6.51-.21,9.38,1.74a2.25,2.25,0,0,1,1.85.3c-16.68.61-14.13,11.76-14.61,23.48C502.24,61.19,481.55,78.68,464.66,98c-7.94,9.06-16.52,17.58-24.12,26.91C437.5,128.61,436.21,127.27,434.08,124.81Z"/><path class="cls-28" d="M516.14,9.29l-9.38-1.74Z"/><path class="cls-91" d="M110.12,555.62c-6.11,7.72-4.31,15.16.48,22.73,1.57,2.49,3,6.19-.32,8-3.08,1.67-4.12-2.13-5.6-4.12A64.55,64.55,0,0,0,84.23,564.9c-3.26-1.83-7.47-3-3.89-8.08C90,549.69,99.89,548.58,110.12,555.62Z"/><path class="cls-92" d="M234.94,758.79c-8.4,17.56-17.79,34.81-16.32,55.32.12,1.7-1,3.5-1.49,5.25-.75-1.63-2-3.19-2.17-4.89-2.78-22.28,8.45-40.45,17.61-59.22C235.83,754.77,234.12,757.64,234.94,758.79Z"/><path class="cls-93" d="M146.1,787.41c.76.8,2.13,1.56,2.19,2.41.76,10,20.07,11.8,12.92,22.28-3.53,5.18-17.44,3.28-26.66,4.58C134.08,805.21,139.58,796.11,146.1,787.41Z"/><path class="cls-94" d="M211.39,161.18c12.33-.12,17.76-11.88,27.53-16.3,2.92-1.32,6.08-2.11,9.14-3.15,1.23,4.39-3.19,5.2-5,7.64-4.77,6.55-13.27,10.06-15.36,18.82-9.33,10.62-18.12,21.55-23.29,35-.89,2.31-1,6.21-5.25,6,.28-2.82,1-5.67.73-8.45-.28-3.29,6-7.7-1.48-9.86a3.27,3.27,0,0,1,.39-2.17,16.21,16.21,0,0,1,1.58-2.58,5,5,0,0,1,.59-2c.89-1.46.53-3.38,1.71-4.74Q207,170.29,211.39,161.18Z"/><path class="cls-26" d="M202.71,179.39,201,184.13Z"/><path class="cls-26" d="M200.41,186.12l-1.58,2.58Z"/><path class="cls-95" d="M372.93,190.94c15-24.62,35-44.85,56.63-63.62a7.07,7.07,0,0,1,2.87-1.74l1.44.21c-.58,10.29-.38,20.69-1.93,30.83-2.51,16.4-42.68,40.88-58.86,36.48C372.85,193,373,191.69,372.93,190.94Z"/><path class="cls-96" d="M304.53,229.33c3.87-4.54,8.17-8.33,14.58-8.52l-10.62,10.77Z"/><path class="cls-97" d="M264.31,222.38c.13-2.31-1.68-8,3.25-1.81,1.79,2.26,3.67,4.44,5.51,6.66C266.55,232.13,267.56,223.41,264.31,222.38Z"/><path class="cls-28" d="M432.43,125.58l-2.87,1.74Z"/><path class="cls-24" d="M778.76,501.45c-7.55,12.17-17.59,21.52-31,26.92-2.58,1-6.38,2.43-8.17,1.32-2.51-1.56-5.79-6.18-5-8,5.58-13.67-5.76-26.24-11.36-29.36-15.8-8.8-16.12-22.12-18.51-35.9-3.36-4.08.45-7.08,1.94-10,10.23-20.44,14.41-42.62,18.88-64.72.5-2.46,1.3-6.41-.84-7.35-3.2-1.42-3.44,2.94-5,4.78-3.83,4.63-7,9.82-11,14.33-2.61,2.68-5.34,5.25-7.94,7.95-5.43,4.52-10,10.59-18.1,10.45-8.43-3.95-10.64-11.58-11.77-19.86,1.73-7.94,8.88-12,13.24-18,17.89-24.81,29.86-51.55,35.55-82.05,3.65-19.63,3-38.9,3.72-58.38a31.74,31.74,0,0,0-1.44-11.15c-4.88-14.91-10-21.55-27.66-13.86-45.69,19.86-91.25,39.83-134.9,63.9-23.41,12.91-40.68,32-54,54.95-2.41,4.16-3.51,9.31-8.56,11.51-7.75,3.72-15.53,6.24-23.91,1.56-3.74-2.09-7.17-4.16-7.25-9.05,28.83-46.86,70.4-79.83,117-107.32,17.8-10.51,35.69-20.86,53.36-31.58,2-1.24,6.62-2.56,4.21-6.38-.77-1.21-4.85-.83-7.28-.41-46.88,8.22-88.63,28.53-128,54.47-2.56,1.68-5.72,2.47-8.6,3.67.6-2.87,1.11-5.76,1.81-8.6,6.79-27.37,15.35-54.43,15.4-83,0-27.1,13.06-42.34,40.7-47.09,7.4-1.27,14.9-2,22.35-3.05,15.28-2,29.42,2.72,43.6,7.31,3,1,5.55,4.22,9.25,2-1.36,10,7.68,6.38,11.68,8.09a294.3,294.3,0,0,1,87.87,57.15c5.21,7.64,12.8,13,18.94,19.75,5.22,5.74,10,11.83,14.59,18,28.43,39.79,52.58,81.92,61.82,130.44,6.74,35.37,4.42,70.4-10.52,104.46-8.53,19.46-19.85,35.94-35.14,50.16l.15-.17q-.9.65-.69,1.38C778.41,501.2,778.57,501.45,778.76,501.45Z"/><path class="cls-98" d="M465.77,331.4c8.07,10.05,18.79,9,29.71,7.11,4.08,4.15,3,9.07,1.88,13.85-4.71,19.19.05,37,9.79,53.09,11.21,18.46,31.27,25.68,50.62,28.67,28.45,4.41,56.12-1.73,81.46-16.95,9.31-5.59,14.4-15.39,23.68-20.73,2.87-1.65,5-4.78,8.91-3.94l12,18.84c.19,6.64-5.63,8.82-9.61,11.58-22.67,15.74-46.42,29.56-73.09,37.59-6.53,2-13.49,2.39-20.09,2.73-34.74,1.79-67.65-3.88-95.42-27.1-8.64-7.21-19.06-12.3-25.6-22-2.11-3.14-5.29-2.09-8.09-.45-4.56,2.65-9.23,5.16-13.73,7.89-42.82,26-102.74,9.84-128.55-20.5-4.37-5.14-9.22-10-15.18-13.49-3.76-10.78-2.27-16.51,5.65-21.82l.06.09a3.79,3.79,0,0,1,1.74,2c20.36,23.71,45.86,37.15,77.3,38.75,26.6,1.36,47.74-18.75,50.86-48.45.59-5.63.9-11.28,1.34-16.92-1.73-3.83.57-8.23-1.71-12a2.83,2.83,0,0,1-.63-1.76c-.55-1.68,0-3.5,1.7-3.12,7.6,1.66,15.65-.45,23,2.84a3.3,3.3,0,0,1,.7,2.07,4.55,4.55,0,0,1,1.57,2.3,3.16,3.16,0,0,1,.89,1.78c2,2.57,4.36,1.62,6.74.79l.23-.23a26.65,26.65,0,0,1,1.83-2.53Z"/><path class="cls-99" d="M509.18,156.28c.23,30.23-10.26,58-17.07,86.4-.83,3.45-5.44,7.2-1.77,9.95,1.44,1.08,7.06-2.69,10.34-4.9,37.68-25.52,77.87-45.57,122.26-56.54a81.85,81.85,0,0,1,8.71-1.23c-2.36,2.11-4.44,4.69-7.12,6.27-31.41,18.54-64.39,34.47-93.13,57.46-25.53,20.42-47,44.42-66.23,70.71-1.43,2-3.44,3.5-5.19,5.24-1-2-2.09-3.94-3.12-5.92-4.55-8.66-7.83-18.37-13.92-25.77C430.89,283.28,430,268,436.65,251.36c1.22-3.06,2.14-7.33,4.5-8.6,3.61-1.93,5.81,2.66,7.72,5,9,11.13,14.12,9.56,17.31-4.21s7.38-27.56,11.19-41.3c.49-1.77.81-4.35,2.05-5,15.92-8.73,17.86-24,19.1-39.71,0-.36.29-.7.36-1.07,1.56-7.22,1.79-15,8.25-20.21C511.53,142.69,507.57,149.92,509.18,156.28Z"/><path class="cls-40" d="M370.51,402c-36.41.7-72.14-36-86.62-71.26-1.67-4-.72-7,2.61-8.54,4.44-2.06,4.52,2.74,5.74,5,14.05,25.8,33,46.61,59.75,59.72,15.39,7.55,31.27,10.6,45.95-.41,14.94-11.2,16.84-27.5,13.52-44.73a98.58,98.58,0,0,0-4.29-16.31c-2.9-7.68,2.95-11,7.45-13,5.41-2.34,6.35,4.16,7.52,7.58,7.52,22,7.6,43.48-5,64C408.06,398.71,394,402.11,370.51,402Z"/><path class="cls-89" d="M300.15,365.73c-4,6.33-6,13-3.89,20.53,4.24,7.75,11.59,14.5,8,24.78-3.53,2.54.8,9.72-4.5,9.78-2.84,0-5.91-4.82-8.54-7.77-4.49-5-8.72-10.31-13.06-15.49,1.84-6.27,3.12-12.54-.09-18.79-1.77-.73-1.72-2.55-2.36-3.95-.38-2.18-1.06-4.28-1.47-6.45a14.07,14.07,0,0,1-.13-3.43c.72-5.8-.82-11.72.92-17.46l4.41-12.43c2.43,3.42,4.93,6.78,7.26,10.27C291.25,352.09,295.68,358.92,300.15,365.73Z"/><path class="cls-24" d="M453.83,327.23c-8.19,4-16.47.75-24.72.28C424.54,314.78,413,303,426,288.26c3.52-4,3.38-7,7.16-.69C440.75,300.42,449.17,312.83,453.83,327.23Z"/><path class="cls-100" d="M473.07,206c-3,11-5.51,21.27-8.74,31.26-1.38,4.27-.66,12.12-5.86,11.7-4.61-.37-9-6.13-13.07-9.87-5.29-4.81.38-8.25,2.29-11.64,5.23-9.3,12.91-16.58,21.22-23.17a28.17,28.17,0,0,1,3.87-2.19C472.9,203.66,473,205.26,473.07,206Z"/><path class="cls-101" d="M629.56,111.4l-52.85-9.33-9.24-2.24c-.34-.92,0-1.47.93-1.66l13-.15c2.78,2.12,6.24.28,9.16,1.57C603.86,102.45,617.53,104.2,629.56,111.4Z"/><path class="cls-102" d="M270.63,365.64c-5-9.59-1-19.84-2.21-29.71.15-1.38.3-2.75.46-4.13a13.13,13.13,0,0,1,1.82-2.61c.07-.71.14-1.42.22-2.12,6.8-4.54,8.42-15.29,18.74-15.61C275.26,326.69,266.93,344.05,270.63,365.64Z"/><path class="cls-4" d="M275.05,347.48l.11,20.4c-.85,1.24-1.77,1.3-2.76.16a3.61,3.61,0,0,1-1.43-.44c0-.75.13-1.49.23-2.23Q273.12,356.43,275.05,347.48Z"/><path class="cls-24" d="M429.74,329.27c3.68,3.54,2.06,7.85,1.71,12Z"/><path class="cls-28" d="M568.4,98.17c-.33.54-.64,1.09-.93,1.66l-6.3,0Z"/><path class="cls-24" d="M463.73,334.17c-2.6,2.77-4.89,2.81-6.74-.79Z"/><path class="cls-24" d="M456.1,331.6l-1.57-2.3Z"/><path class="cls-24" d="M465.79,331.41,464,333.94Z"/><path class="cls-89" d="M302,367.86l-1.74-2Z"/><path class="cls-4" d="M214.54,229.65c2.68,4.45,3,8.89-.11,13.3Q214.48,236.31,214.54,229.65Z"/><path class="cls-42" d="M270.7,329.19l-1.83,2.61C269.49,330.93,270.09,330.06,270.7,329.19Z"/><path class="cls-103" d="M304.28,411q-4-12.39-8-24.78c8.92,2.51,13.35,10.59,19.56,16.3,38.26,35.2,93.21,38.66,134.7,7.67,4.63-3.46,7.38-5.67,11.64.27,12,16.67,28.86,27.94,46.71,36.51,45.66,21.95,90.77,17.37,133.93-7.73,14.28-8.3,27.41-18.57,41.06-27.94L699.14,399c3.83-.18,3.26,2.4,2.42,4.45-1.91,4.68-5.62,8.09-9.39,11.17-32.36,26.33-67.41,47.95-109.71,52.75-26.9,3.05-53.49-1.14-77.72-14.72C489.23,444,474,434.73,462,421.37c-4.68-5.19-8.82-4.13-13.82-.82-24,15.85-49.92,22.36-78.66,16.43-21.14-4.37-40.43-12-55.94-27.57-1-1-2-2.14-2.95-3.23a19.32,19.32,0,0,0,1.91,3.8c17.51,31.4,40.15,58.36,69.11,79.85,12.1,9,23.8,18.55,37.21,25.63,17.15,13.53,34.31,27.07,41.54,49,2.17,6.59,5.17,3.84,9.07,1.27C489,552.84,509,541.17,533.13,539.24a21.27,21.27,0,0,0,7.93-1.3,23,23,0,0,1,3.28-.66c30.34-1.44,60.33-5.21,87.79-19.09,39-19.73,63.77-52,78.25-92.72,4.81-13.55,7.18-27.75,11.33-41.47a6.91,6.91,0,0,0,.13-3.35,8.44,8.44,0,0,1-.48,3,23.27,23.27,0,0,1-10.91,11.05c-1.86.9-4.6,1.88-4.47-2.15,4.29-6.14,8.55-12.31,12.9-18.41,2-2.83,2.18-8.67,6.86-7.14,1.83.59,2.94,6.77,2.58,10.21-3,27.83-9.66,54.61-23.61,79.2a2.75,2.75,0,0,0-.85,1.82,22,22,0,0,0-1.64,2.61,3.41,3.41,0,0,0-.69,1.84l-1.65,2.69c-29.07,48.7-74.14,70.69-128.6,77-3.35.39-6.63,1.35-9.94,2v0c-2.37-1.2-4.72-1.6-7,.22-35.38-.62-65.61,11.71-91,36.15l-3.66,0c-2-.94-1.55-3.31-2.69-4.76-.76-2.21-1.52-4.43-2.29-6.64-1.52-1.92-3.61-3.63-2.45-6.56-.71-1.57-1.43-3.13-2.14-4.7-3.55-1.87-4.85-5-5-8.82-8.25-13.13-21.19-21-33.34-29.76-42-23.71-74.55-57.13-100.56-97.33a24.1,24.1,0,0,0-1.63-2.6l-2.84-4.21A17.37,17.37,0,0,0,305,413,3.65,3.65,0,0,0,304.28,411Z"/><path class="cls-104" d="M778.8,499.48c66.58-78.2,56.12-159.46,9.34-242-8.52-15-18.19-29.43-27.33-44.12a1.86,1.86,0,0,1,.22-3.14c37.76,50.57,67.5,104.2,68.67,169.79.76,43.08-12.2,80.55-41.21,112.36C785.85,495.3,782.06,497.15,778.8,499.48Z"/><path class="cls-105" d="M761,210.26c-.07,1.05-.15,2.09-.22,3.14-9.48-13.19-24.69-21.44-31.7-36.76A109.34,109.34,0,0,1,761,210.26Z"/><path class="cls-28" d="M590.52,99.59,581.36,98Z"/><path class="cls-104" d="M778.76,501.45a8.71,8.71,0,0,1-.67-1.58c0-.11.56-.37.86-.56A3.22,3.22,0,0,1,778.76,501.45Z"/><path class="cls-24" d="M699.88,465.4l1.65-2.69Z"/><path class="cls-24" d="M702.22,460.87l1.64-2.61Z"/><path class="cls-5" d="M629.77,800.34c11.66,6.76,14.66,18.58,17,30.37,4,20.38,5.83,40.86-1.82,61a1.9,1.9,0,0,1-2.71.09c5.26-21.9,4.33-43.65-1-65.47a59.73,59.73,0,0,0-12.54-24.77C629.07,801.14,629.42,800.74,629.77,800.34Z"/><path class="cls-106" d="M642.2,891.77l2.71-.09L641,900C638.34,896.79,640.43,894.3,642.2,891.77Z"/><path class="cls-89" d="M309.56,419.69l1.63,2.6Z"/><path class="cls-89" d="M305,413c.58.83,1.17,1.65,1.76,2.48C306.13,414.65,305.54,413.83,305,413Z"/><path class="cls-107" d="M412.94,635.7l-12.69-.62c7-14.12,13.79-28.32,21-42.29,1.31-2.54,2.17-7.41,6.78-5.46.78.33,0,5.37-.72,8.09-1.29,5.09-3,10.08-4.57,15.1-2.75,5.71-1.4,11.91-.48,17.42C423.88,637.42,420,637.89,412.94,635.7Z"/><path class="cls-108" d="M412.94,635.7c3.54-.54,8.91,1.9,5.87-6.32-2.25-6.08.51-13,4-18.86.79,9,5.87,17.57,2.23,26.9Z"/><path class="cls-109" d="M451.46,617.11l-.59-.25-.62.16,0,.06c-1.87-1.87-5.39.4-6.78-2.69l6.51-2,2.23.46C453.57,614.51,453.86,616,451.46,617.11Z"/><path class="cls-110" d="M447.83,624.68c-2.82-.4-5-1.38-4.22-4.88l3.8,0a4.94,4.94,0,0,1,2.5,2.31c0,.61,0,1.21,0,1.82A1.9,1.9,0,0,1,447.83,624.68Z"/><path class="cls-74" d="M430.11,639.66a7.7,7.7,0,0,0-.92-1.72l9.44-.34c0,.63.06,1.27.06,1.9Z"/><path class="cls-74" d="M443.44,614.39l6.78,2.69C447.5,617.35,444.7,617.81,443.44,614.39Z"/><path class="cls-74" d="M449.91,622.09l-2.49-2.31,2.59-.18C450,620.43,449.94,621.26,449.91,622.09Z"/><path class="cls-25" d="M445.09,549.38q2.49,4.41,5,8.82C444.13,557.69,442.93,554.48,445.09,549.38Z"/><path class="cls-25" d="M452.22,562.9c.82,2.19,1.64,4.37,2.45,6.56C450.41,568.56,449,566.6,452.22,562.9Z"/><path class="cls-74" d="M457,576.1l2.69,4.76Z"/><path class="cls-74" d="M459,644.14l-4.93-1.69Z"/><path class="cls-74" d="M451.46,617.11l.72-4.31C454.7,614.7,454.39,616.12,451.46,617.11Z"/><path class="cls-74" d="M463.51,646l-2.45-1.4Z"/><path class="cls-74" d="M449.93,641.7l-3.19-1.39Z"/><path class="cls-74" d="M447.83,624.68a17.28,17.28,0,0,1,2.12-.77Z"/><path class="cls-29" d="M277.21,374.81c.29,1.32.58,2.64.88,4-.78,3.09-1.57,6.17-2.36,9.26-.18-3.59-.37-7.18-.55-10.77C273.92,374.83,275.23,374.55,277.21,374.81Z"/><path class="cls-4" d="M277.21,374.81c-.68.82-1.36,1.63-2,2.45l-1.64-5a3.86,3.86,0,0,1,2-2.39Z"/><path class="cls-29" d="M275.53,369.87l-2,2.39L272.4,368l2.76-.16A3.79,3.79,0,0,1,275.53,369.87Z"/><path class="cls-111" d="M423.26,671.18l4.06-1.64c.53,1.55,1.83,4.24,1.49,4.47C425.63,676.12,424.94,672.58,423.26,671.18Z"/><path class="cls-112" d="M420.61,678.34a17.45,17.45,0,0,0,.06-1.77c1.73.69,4.42.93,5,2.16,1.32,2.84-1.59,1.89-2.94,2.28l-.14-.11A19.64,19.64,0,0,0,420.61,678.34Z"/><path class="cls-60" d="M554.35,544.74c2.26-2.21,4.58-2.69,7-.22Z"/><path class="cls-74" d="M438.86,644.38l-9.2-1.72Z"/><path class="cls-108" d="M397.87,640.15c8.45-.66,17-2.15,25.1,1.82-20.65,42.86-27.39,89.46-36.43,135.44-.54,2.73.71,7.32-3.6,6.82-4.78-.57-3.1-5.21-2.69-8.33,2.75-20.77,9.53-41.93,7.36-62.15-2.1-19.47-1.53-37.51,3.44-55.87C392.7,651.8,395.56,646.05,397.87,640.15Z"/><path class="cls-74" d="M420.61,678.34l2,2.56Z"/><path class="cls-113" d="M409.35,172.77c1.26-10.22-5.47-22.41,7.52-29.76,3.45-1.95,7.57-7.06,9.63-6.25,4.54,1.78,2.91,7.68,3.26,12,.4,4.95.06,9.77-4.4,13.14C419.38,164.57,413.62,167.57,409.35,172.77Z"/><path class="cls-114" d="M409.35,172.77c.92-10.12,7.42-12,16-10.88-.16,8.51-6.72,11.94-12.86,15.06C407.37,179.57,408,176.06,409.35,172.77Z"/><path class="cls-115" d="M390.43,178.16c-1,4.71-1.66,9.42-7.28,10.38-.85.14-2.92-1.89-2.86-2,2.26-3.86,4.17-8.18,7.33-11.16C389.67,173.46,390,176.74,390.43,178.16Z"/><path class="cls-116" d="M398.75,179.67c-.55-.87-2.33-2.83-2-3.33a52.74,52.74,0,0,1,5.72-6.27c.77,1.32,2.11,2.6,2.21,4C404.93,177.36,403.44,179.67,398.75,179.67Z"/><path class="cls-117" d="M706,392.58c7.88-.18,10-7.26,14.23-11.84,1.16-1.27,2.39-2.47,3.58-3.7.2,1.79.8,3.64.55,5.37-11.1,76.68-56.37,139.8-135.52,153.21-15.16,2.56-30.34,5.58-45.88,4.46-13.8-7.66-26.74-16.77-41.26-23.24-23.09-10.31-46.19-8.46-69.53-1.41-4.59,1.38-9,4.17-14.18,2.2-49.11-27-87.77-64.32-112.61-115.09-.84-1.7-.77-3.86-1.13-5.8a29,29,0,0,1,4.35,3.46c33.52,39,99.1,49.26,143.15,14.18,4.09-3.26,6.3-3,10,1.31,44.07,52,119.11,63.86,180.48,28.95,19.05-10.84,37.68-22.23,53.28-37.84,1.87-1.88,7-3.1,3.69-7.78Z"/><path class="cls-118" d="M671.82,392.5c-27.34,30.73-61.32,48-102.7,45.92-47.72-2.42-85.33-32.89-74.46-88.62.72-3.68.57-7.52.82-11.29,29.44-66.9,95.44-84.69,153.08-113.51,16.47-8.24,34-14.26,50.86-21.86,10-4.5,16.85-2.37,21.06,7.54,12.49,29.4,6.17,59.06.88,88.66C714.86,335.71,697.24,366.19,671.82,392.5Z"/><path class="cls-119" d="M481.61,280c1.11-6.72,3.85-14,11.42-15.44,5.23-1,5,5.54,4.57,9.41-.84,7.37-4,14.4-11.84,15.51C481.12,290.16,482,284.22,481.61,280Z"/><path class="cls-120" d="M461.46,277.58c-2.4,4.27-.55,12.52-7.58,11.93-6.37-.54-7.61-8.15-7.73-13.56-.11-4.68,2-10.45,8.38-9.91C461.17,266.6,459.64,273.21,461.46,277.58Z"/><path class="cls-121" d="M418,517.63c49-23.32,92.71-8.82,125,22.45a8.34,8.34,0,0,1-2.11.19c-2,1.88-4.85.28-6.88,1.86-25,2.92-46.53,13.56-66,29.1-2.39,1.91-5.68,7.86-7.76.5C453.46,547.82,435.42,533,418,517.63Z"/><path class="cls-117" d="M534,542.13l6.88-1.86Z"/><path class="cls-40" d="M585.15,433.64c-59.35-.37-81.38-18-88-65.2-3.7-26.49,13.83-45.66,27.88-65.63,20.24-28.75,52.41-39.83,81.74-54.47,30.26-15.11,62.2-26.83,93-41,13.2-6.08,17.71.44,19.67,11,9.6,51.8.12,100.21-28.87,144.07C663.21,403.83,627.44,432.82,585.15,433.64Z"/><path class="cls-122" d="M492,265.6c1.73,4,2.91,5.4,2.86,6.8-.12,4.22-1.08,8.42-5.13,10.64-2.45,1.35-3.76-1-3.27-2.78C487.66,276.1,489.51,272.13,492,265.6Z"/><path class="cls-123" d="M457.26,279.26c-.81,1.39-2.31,5.46-3.29,5.33-4.57-.57-3.85-4.87-3.63-8,.16-2.31,2-6.53,2.72-6.44C457.75,270.74,456.48,275,457.26,279.26Z"/><path class="cls-124" d="M571.46,415.37c-24.51,1.85-45-4.37-55.53-29.14-11.93-28,2.64-49.35,19.63-68.34,30.79-34.4,73.79-50,113.82-69.93,13.49-6.72,27.17-13.13,40.25-20.57,9.93-5.65,14.65-4.35,17,7.46,6.35,32.41-2.56,62.36-16,90.71-18,37.89-42.64,70.05-84.7,84.94C594.38,414.56,583.24,415.69,571.46,415.37Z"/><path class="cls-125" d="M649.42,378.53c-26.62,25.09-56.89,38.89-94.58,32.67C521.7,405.74,506,373,522.91,342.87a29.23,29.23,0,0,0,1.74-2.54l-.07,0a303,303,0,0,0,33.56.57c8.13,4.36,13.79,12.47,23.76,14.36,4.48.85,2.62,6.4,2.78,10,.74,16.39,9.57,21.44,23.62,13.42A22.26,22.26,0,0,1,611,377c8.5-2,12.12-12.24,21.49-12.8,5.86,1.84,10.22,6.32,15.67,8.94C650.17,374.05,651.68,376.1,649.42,378.53Z"/><path class="cls-126" d="M559.17,342.76c-11.7,1.6-23.57,5.62-34.58-2.45,15.49-31.33,44.43-47.15,73.29-62.7,16.87-9.09,34.57-16.65,51.89-24.89,7.21,4,5.06,11.91,7.67,17.84-.7,5.86-5.63,7.52-9.87,9.85a389.94,389.94,0,0,1-46,21.41C581.2,309.79,564.92,320.4,559.17,342.76Z"/><path class="cls-127" d="M649.42,378.53l-17.75-12.89c-2.41-5.46,2.32-8.54,4.73-11.72a216.84,216.84,0,0,0,29.22-52c1.85-4.72,3.16-10.23,8.31-13.05,7.34-1.29,14-3.49,18.39-10.37,1.92-3,5.06-5.43,9.34-3.66C694.9,314.78,678,349.57,649.42,378.53Z"/><path class="cls-128" d="M701.66,274.85c-9.8,4.15-12.43,20.76-27.47,15.81a5.33,5.33,0,0,1-1.36-4.29,52.09,52.09,0,0,0,.82-6.09c-.08-11.75-.08-11.75-11.33-9-1.84.46-3.62.55-5.25-.63-8.56-3.5-2.92-12.76-7.3-18,14.09-7.15,28.37-13.95,42.19-21.59,8.59-4.75,10,1.18,11.32,6.72C706.3,250.27,703.8,262.58,701.66,274.85Z"/><path class="cls-126" d="M524.65,340.33l-1.74,2.54Z"/><path class="cls-129" d="M675,286.1c-.27,1.52-.55,3-.82,4.56-10.7,27-24.15,52.37-42.52,75-6.7,4.87-11.41,12.79-20.77,13.6-1-6.17,4.7-7.71,7.79-10.95,3.32-3.49,6.68-6.92,9.2-11.06C646,336,658.73,311.82,667.15,285.31c1-3,3.67-6.86.24-9.32-2.52-1.82-5.72.83-8.31,2.2-24,12.69-49.05,23.14-73.21,35.48-8.42,4.3-15,10.2-16.61,20.05-1.71,10.51,1.92,14.57,12.64,14.61,3.62,0,7.7-1.57,9.91,3,.86,3.92-1.27,7.35-1.86,11C588,374.32,592.53,379.1,604.7,378c2.26-.21,4.5-.8,6.35,1.11-4.73,6-10.62,10-18.28,6.74-8-3.4-12.67-10.51-11.41-19,1.17-7.92-.19-11.05-8.58-11.59-7.13-.47-10.19-7.06-13.61-12.48-.54-17.78,9.26-28.56,24.2-35.95,24.53-12.13,50.69-20.91,73.69-36.13,11.7-5.73,24.09-12.72,19.67,10.83C675.49,282.78,675.81,284.65,675,286.1Z"/><path class="cls-127" d="M675,286.1q.86-2.3,1.73-4.59Q675.87,283.81,675,286.1Z"/><path class="cls-130" d="M591,352c-.45-.55-1-1.63-1.35-1.58-9,1.43-19.75,6.48-23.74-6.45-4.29-13.9,3.08-25.06,14.69-31.13,28-14.63,56.77-27.83,85.3-41.45,1.86-.9,4.76-1.38,6.43-.55,3.38,1.68.9,4.54.22,6.87C663.82,307.61,651.16,335.5,630,359,615.83,363.23,603.29,358.28,591,352Z"/><path class="cls-131" d="M591,352l39,7L610.9,379.24l.15-.15c-7.5,1.5-15.5,7.73-22.07-1.45C582.6,368.71,585.19,360.12,591,352Z"/></g></g></svg>