<svg xmlns="http://www.w3.org/2000/svg" viewBox="0 0 973.49 917.56"><defs><style>.cls-1{fill:#0e0608;}.cls-2{fill:#140e0f;}.cls-3{fill:#050303;}.cls-4{fill:#231b15;}.cls-5{fill:#171410;}.cls-6{fill:#1c1914;}.cls-7{fill:#35302f;}.cls-8{fill:#242019;}.cls-9{fill:#29241c;}.cls-10{fill:#2b2824;}.cls-11{fill:#363130;}.cls-12{fill:#26231c;}.cls-13{fill:#181611;}.cls-14{fill:#28251d;}.cls-15{fill:#2a261e;}.cls-16{fill:#2f2b23;}.cls-17{fill:#373226;}.cls-18{fill:#30291f;}.cls-19{fill:#343025;}.cls-20{fill:#363025;}.cls-21{fill:#3d372a;}.cls-22{fill:#29241b;}.cls-23{fill:#3f3a2c;}.cls-24{fill:#343027;}.cls-25{fill:#2a261f;}.cls-26{fill:#2a251b;}.cls-27{fill:#2c2820;}.cls-28{fill:#32302a;}.cls-29{fill:#524d41;}.cls-30{fill:#373531;}.cls-31{fill:#484335;}.cls-32{fill:#36322a;}.cls-33{fill:#2e2b23;}.cls-34{fill:#3c3831;}.cls-35{fill:#2e2517;}.cls-36{fill:#36332f;}.cls-37{fill:#3f392e;}.cls-38{fill:#5c5440;}.cls-39{fill:#5f594d;}.cls-40{fill:#3d382a;}.cls-41{fill:#353022;}.cls-42{fill:#16130d;}.cls-43{fill:#2b2720;}.cls-44{fill:#f3db8f;}.cls-45{fill:#c6a863;}.cls-46{fill:#252119;}.cls-47{fill:#020202;}.cls-48{fill:#f1e1a7;}.cls-49{fill:#f2d57b;}.cls-50{fill:#f3d67b;}.cls-51{fill:#e0c170;}.cls-52{fill:#f3e1a8;}.cls-53{fill:#f4df99;}.cls-54{fill:#e48168;}.cls-55{fill:#d06451;}.cls-56{fill:#553323;}.cls-57{fill:#84643c;}.cls-58{fill:#876c55;}.cls-59{fill:#7e654f;}.cls-60{fill:#b3985f;}.cls-61{fill:#c7aa63;}.cls-62{fill:#e2c271;}.cls-63{fill:#f5e2a7;}.cls-64{fill:#f8ecc3;}.cls-65{fill:#ad925b;}.cls-66{fill:#f6e5af;}.cls-67{fill:#f3dc93;}.cls-68{fill:#f3db95;}.cls-69{fill:#e2c270;}.cls-70{fill:#ebca75;}.cls-71{fill:#dec070;}.cls-72{fill:#ab915a;}.cls-73{fill:#e3c271;}.cls-74{fill:#dbbb6d;}.cls-75{fill:#7b6b41;}.cls-76{fill:#4f4227;}.cls-77{fill:#cfb067;}.cls-78{fill:#ecd586;}.cls-79{fill:#201b11;}.cls-80{fill:#160f0e;}.cls-81{fill:#f5e7ae;}.cls-82{fill:#2a1911;}.cls-83{fill:#382116;}.cls-84{fill:#533f31;}.cls-85{fill:#291a12;}.cls-86{fill:#cdaf66;}.cls-87{fill:#302a1c;}.cls-88{fill:#372f1c;}.cls-89{fill:#423927;}.cls-90{fill:#201b10;}.cls-91{fill:#7b693d;}.cls-92{fill:#0f0807;}.cls-93{fill:#0f0908;}.cls-94{fill:#291f17;}.cls-95{fill:#322822;}.cls-96{fill:#5e3b29;}.cls-97{fill:#64593d;}.cls-98{fill:#484134;}.cls-99{fill:#41352c;}.cls-100{fill:#835760;}.cls-101{fill:#3a2b21;}.cls-102{fill:#e9e5b4;}.cls-103{fill:#e0d69a;}.cls-104{fill:#c48d9f;}.cls-105{fill:#ce6350;}.cls-106{fill:#e58169;}.cls-107{fill:#251e12;}.cls-108{fill:#fafafa;}.cls-109{fill:#342923;}.cls-110{fill:#55463b;}.cls-111{fill:#f4f3f4;}.cls-112{fill:#311e22;}</style></defs><title>Recurso 5</title><g id="Capa_2" data-name="Capa 2"><g id="Capa_1-2" data-name="Capa 1"><path class="cls-1" d="M732.34,131c4.26,9.67-3.13,15.43-8.05,21.22-47.75,56.14-112.19,86.59-178,114.86-2.28,1.73-4,1.23-5.09-1.36,3.08-7.12,10.93-10.28,14.28-17.17,15.4-28.15,31.09-56.16,40.56-87.05.63-2,1.45-4,2.21-5.92,3.17-4.27-.79-8.73.31-13.06,29.44-8.16,59.65-10.54,90-11.89,6.12-3.12,10,2.1,11.37,5.45,2.17,5.19-3.77,6-7.39,7.67-.13.06-6.93-1.64-1.56,2.74,3.46,2.83,1.26,6.33-.77,9.07-3.66,4.94-7.28,9.53,1.77,12.73,2.37.84,3.18,3.08,2.59,5.61-.45,1.91-1.82,3.19-3.16,4.49a22.23,22.23,0,0,0,4.05-3.94c7.45-9.5,17.11-17.09,23.36-27.63,2.49-4.2,5.65-7.86,6.09-13.14S729,129.63,732.34,131Z"/><path class="cls-2" d="M203.77,6.09l6-6.09c2.32,4.6,5.74,9,6.8,13.83,9.09,41.62,9.91,83.79,7.38,126.12-6.75-1.84-4.83-7.55-5.13-12-.88-13.14,1.29-26.39-1.33-39.38-1.6-3.14-4.9-3.23-7.79-4.1-8.47-7.07-5.9-18.63-11-27.12-.88-1.47,0-4.36-2.07-4.77s-3,2-3.78,3.61c-8.68,18.31-20,35.3-26.7,54.62-3.08,8.83-8.3,16.82-19,18.42-2.5-2.7-1.52-5.63-.45-8.48C157.42,92,172.93,65.59,187.87,39a17.07,17.07,0,0,1,10.59-8c15.35-4.46,14.33-7.17,7.17-20.07C204.77,9.34,202.74,8.34,203.77,6.09Z"/><path class="cls-3" d="M147.22,128.75c22.3-15.47,21.91-44.31,37.57-63.82,5.31-6.62,5.46-17,14.62-21.11,2.91,10,5.85,19.9,8.72,29.86.93,3.2,1.7,6.45,2.55,9.68.69,5.16-4,5.81-6.81,7.64-21,13.5-38.81,30.47-54.47,49.81-3.4,3.33-6.26,7.32-10.93,9.15a4,4,0,0,1-3-.86l2.73-13.52C141.92,134.21,143,129.35,147.22,128.75Z"/><path class="cls-4" d="M32.8,538.28c34.84-12.52,69.07-27,105.87-33.34,1-.18,1.82-1.73,2.73-2.64-2.12-1.5-4.16-3.1-6.36-4.46-52.87-32.62-80.41-90.28-64.65-135.4,3-.39,3.61,1.85,4.37,3.92.72,3.11.15,6.29,3.63,8.82,22.11,16.06,31.1,39.28,34.71,65.31-.71,2.28-1.73,4.18-4.56,4-8.68-8.37-7.79-20.89-13.3-30.61-3-6.88-5.75-13.93-10.7-19.72-2.08-2.43-3.81-7-7.55-5.58-4.11,1.59-3.12,6.41-2.77,10.05,1.14,12.07,3.77,23.76,9.84,34.44C90.21,445,96,457.29,109.38,463.15a5.82,5.82,0,0,1,3.22,3.36c.69,5.61,3.92,9.43,8.28,12.8,8.35,6.46,17.3,11.9,26.34,17.3,6.87,4.1,12,10.2,16,17.15,1.06,2.45,2.14,5.12-.41,7.1a3.68,3.68,0,0,1-5-.92c-9.8-14.48-22.33-6.7-34.19-4.39-1.46.29-2.83.91-4.3,1.29-25.65,6.76-50.81,14.84-74.61,26.74-4.94,2.73-9.84,3.48-14.66-.23-1.35-1.36-1.73-2.84-.46-4.47A5.93,5.93,0,0,1,32.8,538.28Z"/><path class="cls-5" d="M689.21,729.5c-23.49.86-34.09,13.1-32.1,36.43-4.43-.17-4.32-3.83-5.19-6.72-.93-17.28.7-34.72-2.78-51.91s-8.42-33.66-15.83-49.45c-2.63-5.6-6.29-10.3-11.73-13.39-13.44-7.08-20.29-18.46-21.68-33.41a27.21,27.21,0,0,0-4-12.78c-10.82-16.27-22.37-32.07-32-49.13-3.48-6.19-11.24-5.87-15.35-10.86a3.76,3.76,0,0,1,.54-4.44c3.24-2.85,1-5.24-.58-7.79-2.2-3.46-4.86-6.87-3-11.43a1.81,1.81,0,0,1,2.64-.3C577.46,558.19,606.83,602,635.9,646c2.8,4.25,5.39,5.85,10,4.26,2.48-1.51,4.41-1.26,5.49,1.69-3.06,6.88-2.45,13.35.51,20.44,5.82,13.94,8.36,28.91,10.37,43.77,1.2,8.87,4.7,11.7,13.2,10,4.31-.85,8.88-2.12,13.24.34a2.17,2.17,0,0,1,.86,1.89C689.51,729.14,689.39,729.5,689.21,729.5Z"/><path class="cls-6" d="M745.86,461.94c-25.12,19,.36,34.22,6.07,48.47,7,17.38,2.57,25.27-10.85,33.82-12.06,7.68-22.41,18.68-35.23,24.34-24.83,11-17.73,22.21-3,35.36,2.23,2,3.91,4.58,5.91,6.83,36.63,41.38,37.2,42.82-13.38,63-24,9.56-34.24,16.65-8.79,35.66-.42,1.76-1.38,2.92-3.3,3-9.37-3.3-15-11.11-20.72-18.36-5-6.33-1.48-11.3,4.69-14.5,10-5.19,20.47-9.44,30.81-13.89,8.64-3.72,16.86-8.33,25.63-11.7,7.64-2.94,7.71-7.22,2.62-12.66-9.75-10.44-19-21.33-28-32.38-5-5.6-9.77-11.46-14.52-17.31-7.11-8.74-7-11.59,2.63-18,17.28-11.45,33.92-23.78,50.7-35.93,12.66-9.17,12.62-9.6,6.19-24-2.3-5.15-4.06-10.55-6.88-15.52-2-4.05-4.11-8-5.78-12.13-6.06-15-3.35-21.1,12.17-27.47C744.69,458.94,746.18,459.6,745.86,461.94Z"/><path class="cls-7" d="M732.34,131c-11.43,20.45-25.13,39-44.59,52.61-1.7,1.19-3.62,2.07-5.45,3.1.94-1.75,1.79-3.55,2.83-5.23,2.63-4.24,15.21-8.92-1.12-12.08-4.11-.8-4.86-6.09-1.36-10.29,2.74-3.29,5-7,7.49-10.49-4.24.15-8.48.4-12.73.4a18.49,18.49,0,0,1-4.23-1c2-1.19,3.85-2.82,6-3.51,12.44-4,13.62-6.57,8.49-8.82-11.29-5,20.85-.75.87-5.08C703.17,127.44,717.78,126.31,732.34,131Z"/><path class="cls-8" d="M650.61,652.29l-4.69-2c28.15-9.34,33.26-22.24,7.54-41.89-9.45-7.22-15.77-18.61-25.33-25.61-22.75-16.67-17.14-28.5,3.81-41,12.52-7.48,22.74-19,35.47-25.94,22.94-12.58,19.73-27.24,8.74-46.4-15.09-26.3-27.91-53.91-41.7-81-.79-1.9-.27-3.26,1.66-4,5.37.82,6.69,5.59,9,9.34,10,16.44,18,34,26.74,51.1,7.48,14.74,15.2,29.34,21.61,44.6,2,4.71,3.72,9.1.36,13.77-19.54,17.71-41.29,32.65-62.2,48.65-13.13,10-13.09,10.68-1.89,22.11,16.34,16.65,33.74,32.3,48.4,50.6,5.85,6.83,4.16,13-3.05,16.65C667.12,645.26,661.47,654.7,650.61,652.29Z"/><path class="cls-9" d="M550.9,534.68l-2.25,1.82c-5.59,2.1-8.15-2.17-10.8-5.51-5.94-7.49-9.75-16.28-10.17-25.65-.52-11.36-4.74-20.92-10.67-30.09-16.09-28.71-26.39-59.94-38.79-90.26-11.85-29-23.09-58.17-39.63-84.94a34.57,34.57,0,0,1-3.66-7c-.83-2.47-2.07-5.29.49-7.28,2.2-1.71,4.41.1,6,1.47,5,4.28,10.36,3.09,16.07,2.16,8.55-1.39,16.48-5.57,25.35-5.47a4.61,4.61,0,0,1,3,1.61,4.24,4.24,0,0,1-.3,3.34c-34,2.74-37.47,14.78-21.49,45.73,30.3,58.69,46.88,124,84.15,179.71l-.66,0-.66-.11c-4.49,2.47-5.21-2.84-8-3.89,1.59,3.75,3.08,7.55,4.63,11.31C545.42,526.37,551.6,528.58,550.9,534.68Z"/><path class="cls-10" d="M962.84,220.83q.52,6.63,1,13.25c.49,3,2.47,6.25-1.44,8.5-5.91-2.46-5.92-8.23-7.1-13.18-4-16.83-5.42-34.15-9.54-50.94a23.11,23.11,0,0,1-1.07-5.2,25.74,25.74,0,0,0-1.53-8.15c-4.06-17.26-10.61-33.77-15.88-50.67-3.45-11.06-6.88-11.93-16.13-5.14-17,12.49-32.74,26.59-49.29,39.66-10,7.47-19.69,15.22-28.07,24.51C824,181,816.71,192,804,195.83a3,3,0,0,1-2.07-2.14c35.6-36.59,75.27-68.29,116.88-97.7,6.23-4.4,8.73-3,11.25,3.52,14.84,38.51,23.66,78.62,32,118.86C962.38,219.18,962.62,220,962.84,220.83Z"/><path class="cls-11" d="M147.22,128.75c-2.36,3.1-2.14,9.61-9,6.83l1.62-5.23c6.25-12.3,8.65-26,14.23-38.6,9.89-22.4,19-45.12,34.53-64.47,1.17-1.46,2.47-2.88,2.07-5L203.77,6.09c12.94,2.95,7.34,15.18,11.14,22.7.47.95,2.59,6.31-2.93,4.14-1.62-.64-3.5-4-3.94-3.76-20.71,11.58-29.79,32.49-40.1,52C159.89,96.43,154.05,112.85,147.22,128.75Z"/><path class="cls-12" d="M636.82,385l-2.37,3.41c-7.34-12.66,2-20.86,8.73-28.79C692.58,301,744.5,244.66,802,193.69a13.25,13.25,0,0,0,1.42,1.58c.11,9.21-7.08,13.87-12.81,18.75-21.43,18.25-40.63,38.72-60,59.08-.76.71-1.58,1.37-2.4,2-.39.34-.81.66-1.2,1-.74.72-1.52,1.41-2.28,2.12-.36.37-.75.72-1.12,1.09-21.29,23.26-42.15,46.89-63.51,70.08C650.36,360,643.89,372.69,636.82,385Z"/><path class="cls-13" d="M301.17,854.59l-24.59-7.38c0-3.37,2.56-3.69,4.92-4.26a24,24,0,0,1,8.9,1c28.65,8.36,53.84-.54,78.28-14.84C380.49,822.19,392,813.52,407.2,816c1.72.81,3.13,1.84,2.94,4-45,7-61,34.4-54.82,77.53a2.34,2.34,0,0,1-3.14-.84c-3.6-9.72-1.61-19.94-2.56-29.9-1.16-12.07-2.71-13.29-14.73-10.66a75.46,75.46,0,0,1-28.95,1.16A15.74,15.74,0,0,1,301.17,854.59Z"/><path class="cls-14" d="M371.82,239.16c20.28,1.87,28.33-17.8,43.82-25.1C457,194.57,496,169.93,540.69,157.75c2-.77,3.32-.06,3.93,2-2,5.16-7.13,5.46-11.16,7.45A606.72,606.72,0,0,0,401,233.4a45.7,45.7,0,0,0-8.6,7.34,51.3,51.3,0,0,1-6.33,5.44c-6.13,3-10.93.9-15-3.89A3.65,3.65,0,0,1,371.82,239.16Z"/><path class="cls-15" d="M745.86,461.94l-2-2a2.4,2.4,0,0,1-.92-1.86c0-.72.09-1.08.23-1.08,4.09-5.63,10.12-8.92,15.72-12.66,38.48-25.72,78.23-49.49,115.89-76.44,3.35-2.4,6.82-4.8,11.29-4.62,1.75.46,3.07,1.25,2.69,3.39Z"/><path class="cls-16" d="M281.27,845.23l-4.69,2c-53-20.88-66.89-65-69-116.09-.56-5-.25-10-.21-15,.57-2.14,1.7-3.2,4-2.07,4.43,6.91,4.15,15,5,22.62,1.8,16.69,4.07,33.26,8.69,49.4.22,1.09.4,2.23.56,3.34.39,1,.77,2,1.18,3,1.72,4.85,3.76,9.56,7.15,13.56,11.61,13.39,24.95,24.55,40.85,32.58C277.53,840,281.38,840.79,281.27,845.23Z"/><path class="cls-17" d="M211.66,220.6c-2.31,4.63-.91,6.53,4.06,5.06,33.16-9.86,66.79-5.37,100.34-3.38a5.38,5.38,0,0,1-1,3.53,9.67,9.67,0,0,1-4.69,3c-10.47,1.63-20.71-2.15-31.16-1.41-3.64.2-7.29-.27-10.94-.07a30.85,30.85,0,0,0-3.6.31c-27.28-1-52.94,5.68-77.68,16.58a22.67,22.67,0,0,1-4.95,1.65,8,8,0,0,1-3.35-.17c-5.28-7.35,2.17-8.57,5.77-10.76,8.21-5,18.15-7.55,22.6-17.39a4,4,0,0,1,2.95-1.08C211.83,217.32,211.75,219,211.66,220.6Z"/><path class="cls-18" d="M301.17,854.59l5.55.45c6.28,8.62,5.26,19.88,10.49,28.83.07-1.07-.64-1.92-.7-3,0-1.59-.25.31-.15-1.2.27-4.3-1.1-10.75,4.49-11,5-.25,5.32,6.26,6.33,10.54.35,1.45.38,3,.86,4.38,1.73,6,3.58,12,8.78,16.21.85.69,1.85,1.46,2.93,1.19,2.16-.53,1.4-2.35,1.07-3.62-1-3.92-2.2-7.8-3.32-11.71-.6-2.07-1.24-4.11-1.93-6.15a20.3,20.3,0,0,1-.72-3.25,14.69,14.69,0,0,1,.2-5.57c.56-2.12,1-4.73,3.79-4.76,2.61,0,3.54,2.45,4.48,4.45,1.61,3.41,2.21,7.12,2.86,10.75a135.39,135.39,0,0,0,5.21,14,22.07,22.07,0,0,0,1.79,2.32,7.67,7.67,0,0,1,2.14.08c-24.43,32.18-33.24.25-44.17-12.32C304.67,877.75,304.29,865,301.17,854.59Z"/><path class="cls-19" d="M169.93,629.51a870.63,870.63,0,0,1-133.83-18c0-3.7,2.91-4.16,5.48-5,18.14-.14,35.57,5.24,53.48,7.21,25,2.76,49.89,6.69,75.06,8,4.11.21,8.36.3,11.2,4.1C179.37,632.53,173.21,626.69,169.93,629.51Z"/><path class="cls-20" d="M654.9,758.81q1.1,3.56,2.21,7.12c-.71,21.27-6.63,40-17.52,59.16-6,10.63,2.59,29.57,4.6,44.76.81,4.14,2,8.3-.85,12.16a2.77,2.77,0,0,1-3.06-1.08c-4.37-9-4.89-18.91-6.06-28.54-1.06-8.74-3.83-14.87-13.15-16.48a6.72,6.72,0,0,1,2.75-7c19.45-15,22.95-36.85,25.65-59.11C650,765.63,648.84,760.37,654.9,758.81Z"/><path class="cls-21" d="M211.09,217.5q-1-.12-2.07-.3c-4.66-4.48-2.69-10-1.78-14.93,6.37-34.63,9.71-69.47,8.5-104.71-.19-5.57-.66-11.44,3.55-16.15q2.33,29.27,4.63,58.54-5.74,39.15-11.5,78.29Z"/><path class="cls-3" d="M190.69,22.28c-12.16,24.77-24.51,49.45-36.41,74.34-5.27,11-9.64,22.47-14.42,33.73C149.51,90.89,165.35,54.35,190.69,22.28Z"/><path class="cls-22" d="M625.84,915.67c-20.66-10-38.43-22.64-43.4-47.09-1.16-2.25-1.37-4.27,1.37-5.56,8.88,4.45,8.07,15.14,13.9,21.53,1.06,1.51,2,3.09,3.11,4.63.82,1.18,2,2.16,2.34,3.65.64-1.62-.69-2.7-1.14-4a60.87,60.87,0,0,1-2.16-6.4c-1.07-5-4.18-12.33,1.67-13.81,6-1.53,6.06,6.86,8.16,11.28,3.64,13,10,24.09,22.14,31.07C634.24,918.16,630.43,917.4,625.84,915.67Z"/><path class="cls-23" d="M888.77,366.64l-2.18-2c1-8.86,10.83-8.27,14.95-13.83,16-11.44,33.3-20.76,50.05-31,8.49-5.16,13.89-11.08,13.53-21.55-.12-3.32-.66-8,4.74-8.84,3.3,7.39,1.2,15.38,2.7,23Z"/><path class="cls-24" d="M531.12,846.21,453.44,822.3c-.15-2.25,1.32-3.23,3.07-4,8.23-1.91,15.58,1.75,22.93,4.18,19.23,6.37,38.06,14,58.21,17.31,2.61.43,5.12,1.29,6.67,3.74.7,4.06-3.24,2.52-4.73,3.92l-5.31-.4C533.32,846.42,532.15,846.56,531.12,846.21Z"/><path class="cls-25" d="M130.26,272.45c.74-26-7.62-51.83-1-77.88,4.66.16,4.49,4,5.43,7,1.59,13-1.6,26.22,2,39,1.22,7.3-2.54,15.61,4.13,21.95a6.47,6.47,0,0,1,2.54,3.76c-.4,3.51-2.93,5.35-5.55,7.14a14.08,14.08,0,0,1-2.82,1.29c-.51.1-1,.18-1.54.27l-1.53-.22c-.43-.28-.86-.58-1.28-.87Z"/><path class="cls-26" d="M169.93,629.51l11.63-2c1.43-3.63-1.76-7.29.05-11,1.17-2.28,2.61-3.85,5.39-2.26a147.42,147.42,0,0,1,19.74,65.3c-.83,2.38-1.48,4.93-4.81,4.74-3-11.57-7.17-23-8.81-34.75C191.13,635.23,184.16,628.68,169.93,629.51Z"/><path class="cls-27" d="M83.27,330.08c9.88-23.65,27-41.42,46.54-57.19l1.24.75.5.6c.87,4.92-2.64,7.7-5.56,10.44-13.54,12.71-25.62,26.52-34.23,43.13-1.39,2.68-3.15,5.21-6.53,5.77C83.36,333.08,82.24,332.18,83.27,330.08Z"/><path class="cls-28" d="M544.05,160.14l-3.36-2.39,57.87-15.25c5,3.73,6.63,8.08,2.5,13.51-5.51-5.21-11.72-5.35-18.64-3.19-8.91,2.76-17.74,5.86-26.85,7.93C551.74,161.62,547.69,163.89,544.05,160.14Z"/><path class="cls-29" d="M11,609.79c-9.43-13.69-7.71-29.64-9.13-45-1-2-1.42-4,.66-5.67,5.13,0,6.35,4.89,9.48,7.42a13.08,13.08,0,0,1,2.44,4.09,8.78,8.78,0,0,1,.12,3.19,16.13,16.13,0,0,1-1.83,4.44c-3.48,4.48-7,8.27.06,13.49,4.79,3.54,4.25,9.8,2.1,15.35A5.53,5.53,0,0,1,11,609.79Z"/><path class="cls-30" d="M4.73,559.91l-2.89,4.92c-.62-.4-1.23-.81-1.84-1.22,12.78-6,9.28-32.31,32.13-25.8L32,538.9l-2.68,2.3c-1,2-3.45,2.49-4.51,4.41a9.79,9.79,0,0,0-.29,3.78,9.78,9.78,0,0,1-.56,4.19,6.67,6.67,0,0,1-3.23,3C15.35,557.62,10.92,563.08,4.73,559.91Z"/><path class="cls-31" d="M371.82,239.16l0,2.33c-.79.81-1.74,1.76-2.83,1.48-16.73-4.35-33.92-7.19-49.68-14.84-.71-4,3.15-2.56,4.69-3.88C341,225.65,356.7,231.53,371.82,239.16Z"/><path class="cls-32" d="M541.91,265.29l4.38,1.77L494.15,285a3.68,3.68,0,0,1-.86-3.3C507.73,271,523.74,264.94,541.91,265.29Z"/><path class="cls-33" d="M972.56,312.39l-3.89-22.68c-7.59-6.69-6.16-15.75-6.39-24.37,1.16-3.56-.24-8.62,5.48-9.55C971.17,274.5,975.4,293.14,972.56,312.39Z"/><path class="cls-34" d="M131.72,202q-1.23-3.72-2.47-7.43L129.7,181c1-2.81-.1-5.87,1-8.67q2.4-11.59,4.81-23.19l2.56,0c3.11,3,2.77,6.58,2.12,10.45-1.82,10.68-4,21.33-3.34,32.3C137.08,196,136.79,200.34,131.72,202Z"/><path class="cls-35" d="M637.21,902.37c-.2,1.38-.41,2.76-.61,4.14a2.18,2.18,0,0,1-2.85-.26c-3.74-8.3-7.65-16.54-11.16-25-.36-1.06-.7-2.1-1.08-3.15a18.64,18.64,0,0,1-.74-3.31c-.16-3.39-.53-7.76,3.12-8.73,4.11-1.09,4.84,3.61,6.32,6.43.86,1.65,1.14,3.55,2,5.18,2.07,6.79,7.12,12.28,8.53,19.39C640.82,899.69,638.68,900.79,637.21,902.37Z"/><path class="cls-36" d="M201.93,684.31l2.25-5c7.36,2.42,4,10,6.95,14.49.32,6.71,5.36,13.66-1,20L207.88,717l-1.29-.08Q204.27,700.59,201.93,684.31Z"/><path class="cls-37" d="M456.55,819.84l-3.11,2.46-25.76-3.4c-4.7,1.22-9.63-.55-14.29,1.09h-3.25l-2.47-2.06c.16-.74.13-1.77.6-2.12C418.29,808.39,447.34,810.84,456.55,819.84Z"/><path class="cls-38" d="M83.27,330.08l2.28,2.66c-1.06,12.68-3.82,24.73-12.88,34.42l-2.28-4.72Q76.83,346.26,83.27,330.08Z"/><path class="cls-39" d="M637.21,902.37q1.13-2.42,2.24-4.83c.56-5.3-3.53-11.29,2.34-15.81l2.4-11.88C643.71,881.09,654.82,894.81,637.21,902.37Z"/><path class="cls-40" d="M11,609.79l2.7-2.67c9.88-6.72,19.74-5.94,27.42,2.16l-5,2.21Z"/><path class="cls-41" d="M967.76,255.79q-1.11,4.91-2.24,9.8c-7.86-6.76-8-14.77-3.84-23.5.74-2.67,1.47-5.33,2.2-8Q965.82,244.94,967.76,255.79Z"/><path class="cls-5" d="M684.47,712.11l2.09-2.71,9.6,10.9a12,12,0,0,0,1.92,2.62,9.19,9.19,0,0,1,.68,1.46c0,.23-.24.55-.38.82a21.09,21.09,0,0,0-2.35,2.28h0c-2,1.64-3.72,1.12-5.28-.64C689.53,721.56,684.18,718,684.47,712.11Z"/><path class="cls-42" d="M577.2,850.37l-14.94-.62c-.53-3.13,1.85-3.77,3.94-4.66a33.5,33.5,0,0,1,8.23-.72c3.11.11,6.25.24,9.29-.79a15.54,15.54,0,0,1,3.11-.44,8,8,0,0,1,4.51,1.24,3.69,3.69,0,0,1,1.12,2.83,6.65,6.65,0,0,1-1.84,2.58,13.14,13.14,0,0,1-4.27,2.2,11.3,11.3,0,0,1-4.8.34C580,852,578.74,850.83,577.2,850.37Z"/><path class="cls-43" d="M577.2,850.37l5.67-.27c3.17,4.17,4.74,8.54,1.61,13.47l-2,5Q579.82,859.47,577.2,850.37Z"/><path class="cls-43" d="M567.24,847.36l-5,2.39-9.91-.25c-1.73-1.08-5.07-.55-4.21-4.24a7.34,7.34,0,0,1,2.88-2.17C557,842.23,563.52,839.59,567.24,847.36Z"/><path class="cls-39" d="M634.91,906.51a2.71,2.71,0,0,1,1.69,0c-.62,6.53.26,14.83-10.76,9.16,1.5-1.24,8.2,3.25,4.31-3.91A5.14,5.14,0,0,1,634.91,906.51Z"/><path class="cls-44" d="M206.59,716.88a1.57,1.57,0,0,1,1.29.08q-.15,7.1-.3,14.17Z"/><path class="cls-45" d="M413.39,820l14.3-1.09Z"/><path class="cls-46" d="M494,282.23c0,.93.07,1.85.11,2.78l-7.64,3.36-1.29-.84c0-.67-.07-1.34-.11-2C486.81,280.93,489.9,280.16,494,282.23Z"/><path class="cls-47" d="M324,224.25l-4.85,2.44c-2.27,1.57-4.39,1.48-6.35-.56l2.71-2.57a6.13,6.13,0,0,1,5.16-.25Z"/><path class="cls-45" d="M548.54,847.64l3.83,1.86-10-1.17C544.1,845.4,546.28,846.13,548.54,847.64Z"/><path class="cls-48" d="M130.7,172.29c-.34,2.89-.67,5.79-1,8.68C130,178.07,130.37,175.18,130.7,172.29Z"/><path class="cls-6" d="M691.53,725.71l4.5,1.77-6.82,2c0-.67,0-1.33,0-2C688.83,725.41,689.35,724.49,691.53,725.71Z"/><path class="cls-42" d="M548.54,847.64l-6.22.68-2.73-.87,4.92-2.38c1.57-.9,3-.79,4,.78A11.88,11.88,0,0,0,548.54,847.64Z"/><path class="cls-49" d="M320.64,223.31l-5.16.25a1.71,1.71,0,0,1,.57-1.28Z"/><path class="cls-50" d="M211.09,217.5a6.39,6.39,0,0,1,1.33.73c-.26.81-.52,1.6-.76,2.39Q211.38,219,211.09,217.5Z"/><path class="cls-49" d="M962.84,220.83a11.58,11.58,0,0,1-1-1.57c-.09-.24.14-.61.23-.91a11.5,11.5,0,0,1,1.16,1.59C963.37,220.11,963,220.53,962.84,220.83Z"/><path class="cls-45" d="M531.12,846.21l3.17.85Z"/><path class="cls-49" d="M131.05,273.64c-.43-.23-.84-.48-1.25-.74,0,0-.09-.56-.09-.56s.56.1.55.11C130.53,272.84,130.79,273.24,131.05,273.64Z"/><path class="cls-50" d="M32,538.9a1,1,0,0,1,.17-1.09l.63-.18.06.65Z"/><path class="cls-51" d="M485.22,287.53a4.29,4.29,0,0,1,1.29.84l-.24.78-.76-.27A1.23,1.23,0,0,1,485.22,287.53Z"/><path class="cls-6" d="M698.08,722.92l-1.92-2.62Z"/><path class="cls-6" d="M696,727.48l2.35-2.28Z"/><path class="cls-51" d="M494,282.23l-8.93,3.29c-16.05,0-31.5,19.34-48.12,1.52-.21,1.29-1.06,3-.54,3.8,37,56.61,52.44,123,82.82,182.54-3.31,17-10.81,21.74-25.66,14.62-10.73-5.14-21.8-7-33.29-7.89a5,5,0,0,1-3-3.64c.19-.3.3-.8.58-.93.89-.4,1.22-1,.77-1.07-23.07-2.67-43.08,5.25-60.92,18.88-4.92,3.75-4.44,11.79-8.07,17.09-7.68,11.21-11.6,21.5-3.7,35.64,4.92,8.81,9.47,19.59,9.27,30.9-3.89,7.65-11.16,8.6-18.35,8.73-37.89.67-75.2-4-111.29-15.54-32-10.26-61.36-26.6-90.2-43.76-5.59-3.32-9.44-8.45-14.8-11.85-10.17-18.4-32.58-21.48-45.62-36.4-3-3.41-7.15-5.66-3.6-10.91-.68-7.76-3.65-15.58.62-23.19a7.93,7.93,0,0,1,8.43-4.32c23.33,3.66,46.82.69,70.13,1.8,8.47,2.3,12.31,10.24,18.35,15.53,10.45,9.16,18.26,10.84,28.95,5.51,5.66-4.23,4.25-12.35,9.25-17,.61-13.6,8.34-20.22,20.83-24.42,11-3.69,20.7-10.79,30.89-16.54,5.51-3.11,11-4.87,17.27-2.69,5.08,2.29,6.24,7.36,7.78,11.84,7,20.5,34.81,29.76,50.61,15.33a22.81,22.81,0,0,0,9.8-10c12.79-21.71,13.87-44,3.48-66.9-1.42-3.14-3.26-6-6.42-7.7-2.36-1.85-4-4.07-3.91-7.23a14.32,14.32,0,0,1,4.28-7.76c21.39-20.24,17.67-43.47,8.23-67.44-2.25-5.72-7.72-10.61-4.69-17.74l4.44-4.75c4.71-2.53,10.54-6.3,11.47,2.79,1.44,14.06,11.56,16.62,22.24,17.89,24.33,2.9,48.7,4.07,73.07-.34,15.59-2.81,31.11-5.61,46.07-11,5-1.84,10.83-5.06,14.77,2.18l-15.44,14.18Z"/><path class="cls-49" d="M557.35,251.11c-26.94,4.89-53.82,10.17-80.85,14.54-21.77,3.52-43.44.07-64.78-4-8.84-1.71-15.65-6.92-13.6-18.37,1.95-10.9-6.84.63-8.39-3.6C432.26,205,481.45,183,532.58,164.76c15.25,2.73,29.87-1,44.66-3.9,7.09-1.41,14.49-5,21.77-.21C590.29,193.18,574.05,222.25,557.35,251.11Z"/><path class="cls-52" d="M599,160.65c-22.23,0-43.4,17-66.43,4.11l11.47-4.62c15.5-4.19,31.06-8.2,46.5-12.64,8.07-2.32,12.19-.74,10.51,8.51C600.38,157.55,599.69,159.1,599,160.65Z"/><path class="cls-50" d="M140.36,264.8c-12.85-3.47-4.18-13.76-6.52-20.56,2.31-19.61,2.67-39.32,3.25-59,.46-15.63,2.81-31.05,9.25-45.55,17-23.86,39.34-41.6,64.34-56.3l8.61-2c4.51,45.86-2.87,90.82-10.27,135.79-1.4,18.7-24.34,13.63-30.23,27.38-6.83,9.9-17.9,13.69-27.72,19.28C147.58,265,143.84,263.44,140.36,264.8Z"/><path class="cls-48" d="M146.34,139.66c-2.77,33-5.48,65.94-8.48,98.89-.18,2-2.63,3.8-4,5.69q-1.07-21.12-2.12-42.24,3.18-26.43,6.35-52.87Z"/><path class="cls-50" d="M460,478.17c9.47,1.27,20.64-.22,28.06,4.36,15.44,9.56,23.7,3.63,31.24-9.15,18.08,17.19,4.48,49.11,29.38,63.12,29.85,17.13,43.64,46.12,54.13,76.54,4,11.61,7.7,21.74,18.47,28.15,4.61,8.44,3.74,17.52,3,26.56A256.49,256.49,0,0,1,612,727.51c-7.3,22.16-22.67,37.62-44.3,47-23.08,10-46.71,16.5-72.17,16.52a331,331,0,0,1-41.7-2.34,475.87,475.87,0,0,0-55.24-4.06c-22.83-.2-43.54,8.19-63.85,17.61-6.5,3-12.85,6.31-19.45,9.16-22.3,9.61-44.54,10.2-67,.54-5.54-2.39-11.56-3.44-17.37-5l-6.87-13.49c.45-7.34,3.16-13.73,7.42-19.72a49.34,49.34,0,0,0-4.13-62.14c-5.93-6.39-12.71-11.88-19.19-17.68l-4-14.56q-9.41-32.57-18.8-65.14c-3.31-.83-3.38-.67-2.26,5-.93,2.69,5.75,6.82-1.56,8.3L41.09,609.28l-27.43-2.16c7.46-11-22-19.68-2-31.52a28.44,28.44,0,0,1,1.56-2.66c-.15-.66-.3-1.32-.46-2,5.79-.89,4.52,3.3,4.48,6.4-.1,9.13,4.62,17.68,10.31,18.47,6.41.9,13.91-5.86,16.64-15a4.23,4.23,0,0,1,2.64-2.29l.66-.1s-.45-.63-.65-.66c-11.32-.72-9.72-7.58-7.45-14.81-4.54-5-10.71-7.35-16.42-10.4l-1-3.52c.05-1.25-.78-2.11-1.39-3.06-2.59-11.59,5.66-3.54,8.75-4.83l13.54.43c17.71,3.29,34.43-.75,50.86-6.85,4.25-1.58,8.55-2.7,7.27-9.24-.75-3.9,3.18-5.23,6.38-6.74,3.93-1.86,9-1,12-4.93,13.77-1.59,29.23-17.25,40.22,4.82,0,0,2.32-.78,2.29-1.06a11.11,11.11,0,0,0-1.2-3.07c37.93,19.81,73.81,44,115.79,55.19a372.47,372.47,0,0,0,99.25,12.57c6.93-.05,13.58-.7,18.28-6.74,5,1.31,5.8,6.56,9,9.55.61.57,1.1,1.26,1.75,1.8a14,14,0,0,1-1.53-1.65c-9-13.1-13.09-28-18.35-42.77-4.29-12.07-8.14-18,5-25.27,3.62-2,1.9-9.92,2.42-15.05,1-9.95,5.16-12.54,14-8.2,2.81,1.38,4.7.55,6.84-1.72,10.63-11.29,10.71-11.22,19.71,1.21,2,3.26,4.13,2.13,6.48.26,3.24-2.59,6.58-5.43,11-2,2.77,4.23,4.21,9,5.58,13.78.53,3.65-.42,6.72-3.48,8.93-8.08-4.17-18.28-1.42-25.74-7.87-1.92-1.66-4.39-1.71-6,.42-3.76,4.9-8,7.88-14.54,5.54-1.14-.41-2.61.3-2.66,1.42-.28,7.39.24,14.55-4.19,21.56-1.87,3,4.14,6.54,6.21,10,3.69,6.3,8.91,10.43,16.37,11.38a24.06,24.06,0,0,1,3,.82c2.43,1,5,1.61,7.3,3,4.3,2.83,4.6,6,.08,8.63-7.63,4.48-6.14,10.73-3.1,16.69,8.71,17.07,22.41,28.33,41.1,32.93,10.34,2.54,18.36-1.25,24.27-10.21,16.66-25.25,8.46-54.67-18.81-67.14-3.38-1.55-7.33-2.1-9.95-5.18-1.57-2.43-1.78-5.15-1.85-7.89a17.43,17.43,0,0,1,0-3.31c1.54-9.63-.6-17.85-8.9-23.8-1.55-4.5-4.18-8.61-4.73-13.45C452,483.36,456,480.78,460,478.17Z"/><path class="cls-49" d="M315.33,402.58c-22,14.4-56.54,11.12-64.59,45.44,0,0-.77,0-.87-.18a18.57,18.57,0,0,1-.9-2c-5.18-6.23-2.44-13.65-3-20.54-.51-6.34.43-12.75-.7-19.05A24,24,0,0,1,244,401a28.7,28.7,0,0,0-1.43-6.65,28.68,28.68,0,0,1-.91-4.89c0-2.77-1.18-5.31-1.77-8-.91-3.67-.31-7.54-1.58-11.19-2.24-6.44-.55-11.85,4.51-16.32.56-.5.91-1.23,1.47-1.71.91-.78,1-.33-.23.09s.6.19-.71.95a3.47,3.47,0,0,0-.75.85,38.08,38.08,0,0,1-24.06,15.67c-13.63,2.92-27.44,5.22-41.43,3.09-8-1.22-14.37,4-22,4.35-3.7.18-7.44.87-11.22.93a23.27,23.27,0,0,1-8.79-1.93c2.44,1.11,5.12,2.5,7.65,1.81,17.22-4.72,24.64,4.89,29.44,19.25,1,3.1,2.87,6.13,4.41,9.15,3.21,9.3,7.13,18.21,12.87,26.3,2.32,3.26,5.4,6.59,3.06,11.24l-79.12-.07c-2.07-.91-1-3.42-2.36-4.68a141.49,141.49,0,0,0-27-57.46c-3.76-4.89-19.42-.78-11.39-14.64l12.88-34.42c10.53-23.27,28.82-40.45,46-58.5a4.68,4.68,0,0,0,2.23-.09c4.86,2.35,4.09,6.23,1.73,9.43-4.75,6.42-7,14.2-11.76,20.55-2.84,2.5-6.46,3.86-9.39,6.25-11.3,7.15-17.79,17.94-21.63,30.25-2.35,7.49-3.47,15.52,4.6,21.06,3.14,2.16,6.28,1.87,9.44-.11,10.39-5.8,13.59-16.3,17.6-26.34,1.52-3.8,1.13-9.35,7.39-9.64,6.89,5.42,14.35,4.2,21.41,1.06C181.74,314,211.38,303.91,239.82,291c16.45-7.48,28.66-20.56,40.72-33.49,6-6.49,6.23-14.19,1.45-21.91-2.12-3.42-5.28-6.66-3.31-11.33l34.09,1.89,6.35.56,52.67,14.8,13.5,2.89c11.16,23.83,24.15,47.64,9,74.38-3.92,6.94-10.4,12.43-15.71,18.59-6.08,2.77-11.54-2.92-17.52-1.27-9.86-.39-18.74,2-25.8,9.37a25.27,25.27,0,0,1-3.42,3.44,47.42,47.42,0,0,0-13.6,34.28C317.46,389.7,320.37,396.75,315.33,402.58Z"/><path class="cls-53" d="M119.32,513.87c-16.59,21.61-37.46,34.64-65.75,32-3.68-.34-7.17-2.79-10.76-4.25C66.55,527.51,92.89,520.56,119.32,513.87Z"/><path class="cls-54" d="M81.85,434.73c-2.43-5.85-5.75-11.5-7.09-17.59-2.57-11.72-10.37-30.08,1.15-33.5,10-3,17.12,16.09,21.44,28.38a33,33,0,0,1-1.66,12.52C93.7,430.55,92.15,439.19,81.85,434.73Z"/><path class="cls-55" d="M81.85,434.73c16.06-.14,6.44-17.8,15.5-22.71q5.72,15.92,11.45,31.83a23.42,23.42,0,0,1-.07,20.61C92.39,461.23,88.62,446.62,81.85,434.73Z"/><path class="cls-56" d="M108.73,464.46q0-10.31.07-20.61c.74-1.53,1.49-3.06,2.23-4.6.8,1.57,1.58,3.13,2.37,4.69q-1,11.65-2,23.31Z"/><path class="cls-45" d="M231,806.94c2.87-.68,6.58-2.88,8.5-1.82C280.9,828,316.77,807.18,353,790.66c41.88-19.11,85-8.09,126.73-3.08,83.55,10,151.52-54.42,141-137.77-.35-2.8.38-5.75.6-8.62,24.09,11,23.6,35.92,28.92,55.91,5.21,19.61,3.44,41.07,4.73,61.71-3.54,29.21-7.08,58.42-33.82,77.51l-.66,1.35c-1.69,2-3.94,3.1-6.18,4.26a21.75,21.75,0,0,1-2.8,1.22,44.78,44.78,0,0,1-4.41,1.33c-6.57,1.66-13.28-1-19.86.61l-2.33.84c-3.2,1.19-6.71.07-9.9,1.29l-7.7.14-18.69-1.51-4-.78-88-25.23c-16.14-4.55-32.36-7-48.88-1.9-20.11.3-34.31,14.12-51.08,22.13-24.29,11.6-49.43,14.88-75.32,5.16C261.77,836.06,244.14,824.42,231,806.94Z"/><path class="cls-57" d="M691.53,725.71l-2.31,1.8c-20.71,6.69-33.05,3.84-32.9-22.6.07-13.17-6.83-26.53-11.37-39.52-2.4-6.85-.84-10.72,5.66-13.1,7-10.18,31.35-4.28,25-26.9,0-6.53-2.76-12.23-5.17-18.07-.85-2.05-1.35-4.49.54-6.27s4.18-.49,6.21.29a17.16,17.16,0,0,1,2.92,1.64c5.31,3.38,9.74,11.3,17.32,3.3.33-.35,2,.73,3,1.13,38.3,42.23,39.32,44.83-11.17,64.66-33.92,13.33-26.42,23.91-4.82,40C685.28,717.44,695.52,717.89,691.53,725.71Z"/><path class="cls-58" d="M550.9,534.68c-3.68-4.19-8.47-7.86-10.76-12.71-2.78-5.89-3.44-12.77-5-19.22l11.74,11.51c2.78,5.37,5.68,10.67,8.26,16.13.79,1.66.69,3.74,1,5.63Z"/><path class="cls-59" d="M608.25,608.9c6.24,10,11.16,17.77,15.93,25.66.27.44-1,2.4-1.09,2.38C613.64,633,608.33,626,607.68,615.7,607.58,614.22,607.91,612.72,608.25,608.9Z"/><path class="cls-60" d="M700.46,607.41c-12.23,19.37-17-4.15-25.73-4.5-.92,0-1.85,0-2.77,0,.74,2.06,1.45,4.13,2.23,6.18,2,5.29,9.66,10.07,1.44,16.26-18.83-18.94-37.49-38-56.58-56.72-5.86-5.73-2.78-9,1.76-12.5q34.89-26.76,69.87-53.42C706,492.09,722.26,490.38,739.4,498c13.61,19.74,17.73,37.15-9.69,49.36-8.4,3.73-14.61,12.46-23,16C679.19,575,679.25,589.45,700.46,607.41Z"/><path class="cls-61" d="M739.4,498c-16.47-.81-32.94-1.59-48.71,4.77,2.06-17.76-10-30.53-16.08-45.39-1.56-3.8-3.37-7.49-5.07-11.23,3.52-3.76,7.7-6.64,10.06-11.77,3.25-7,6.85-6.64,10.84.28.56,1,.84,2.1,1.35,3.09,4.25,8.24,6.13,8.53,11.18,1.16,3.82-5.56,8.09-10.81,11.6-16.6,1.18-2,3.07-3.7,5.53-3.11s3.08,3.05,3.59,5.27a39.56,39.56,0,0,1,.68,9c0,4.88.13,9.76-.09,14.64,2.43-3.1,3.41-7.23,6.76-9.65,4.55-3.29,8.77-3.75,9.94,2.9,1,5.72,6,10.81,2.94,17.21a5,5,0,0,1,0,1.4C720.6,470,734.77,484.57,739.4,498Z"/><path class="cls-62" d="M743.92,458.51l-8.1-20.3c-3.43,5.63-6.79,11.3-10.33,16.85-.69,1.07-2.1,1.68-3.17,2.51a80.73,80.73,0,0,1-1.31-8.39c-.5-9.26-.8-18.52-1.18-27.78-5.14,7.79-10,15.76-15.56,23.27-1.71,2.32-5.09,3.4-7.71,5.05-6.95-16.64-16.79-11.55-27-3.59L636.82,385c-1.79-13,7.73-21.38,14.48-29.33,23.11-27.23,47.9-53,72-79.38,21.38-1.56,42,3.75,62.69,7.52a191.67,191.67,0,0,1,40.25,11.59c5.83,2.46,11.32,4,16.69-1.29a8.75,8.75,0,0,1,9.64-1.55c19.79,8.61,39.53,17.33,51.81,36.66,5.48,8.62,6.38,16.64-1.82,24.11l-16,11.25Z"/><path class="cls-49" d="M902.6,353.35c6.77-20.21-32.5-63.13-54.58-58.63-43.95,9-82.26-18.24-124.68-18.41l.1-.09a6.79,6.79,0,0,1,2.18-2l.23-.21a3.73,3.73,0,0,1,1.91-1.8l75.62-76.92,28.42-24c9.94-.55,12.91,2,11.36,11-1.09,6.37-4.11,12.66,6.21,13.82,2.21.25,3.27,3.17,3.47,5.45.85,9.68,4.56,19.28,1,29.12a10.23,10.23,0,0,0-.63,3.31c.43-1,.53-2.14,1-3.14,3.3-6.88,8.23-12.69,12.75-18.7,5.44-7.25,10.17-7.31,14.92.25,4.43,7.06,7.2,5,10.22-.42,2.85-5.17,6.42-9.28,12.37-10.86a5.38,5.38,0,0,0,3.93-3.82c2.74-13.55,14.36-17.34,24.51-23,5.7-3.16,10.53-3.45,15.09,1.59q6.84,33.09,13.67,66.17l3.84,23.5,3.15,24.12c5,37.87-31.86,37.09-49.88,53.64C914.21,347.56,908,350.06,902.6,353.35Z"/><path class="cls-63" d="M948,175.92c-14.73-.19-26.18,4.66-34.74,17.84-6.83,10.54-16.28,19.39-24.81,28.77-.82.89-3.78.88-5.08.13-15.39-8.88-18.29-7.39-28.23,13.73-1.6,3.41-4.79,6.07-7.24,9.08.42-3.44,1.31-6.89,1.18-10.31-.5-12.95,14.79-30.61-10.63-36.75-.75-.18-.64-8.38.77-12.21,3-8.15,2.69-13.74-7.43-15l27.72-23.78c4.69-.57,8.3.82,9.26,5.86,1.29,6.76,5.79,12.22,7.29,18.86,1.7,7.55,6.15,7.53,11.7,4.12,2.92-1.8,5-4.5,7.36-6.92,12.63-13,36.43-13.17,50.42-.33a24.42,24.42,0,0,0,1.66,2.79C947.48,173.2,947.74,174.56,948,175.92Z"/><path class="cls-64" d="M945.35,171.81c-17.38-9.86-34.09-17.48-50.51,2.73-5.05,6.21-13.87,17.23-21.74,1.26-2.87-5.82-5.82-12-6.57-18.34-.63-5.34-2.6-8.1-7-10,18.09-14.68,36.27-29.24,54.22-44.08,6.83-5.64,11.6-4.5,14.2,3.66,6.15,19.29,11.94,38.69,17.88,58C946.72,167.4,947.38,169.7,945.35,171.81Z"/><path class="cls-49" d="M945.35,171.81q.23-3.37.47-6.73.69,3.39,1.39,6.76Q946.28,171.86,945.35,171.81Z"/><path class="cls-62" d="M727.76,272.19l-1.91,1.8Z"/><path class="cls-62" d="M725.62,274.2c-.72.68-1.45,1.35-2.18,2C724.17,275.55,724.9,274.88,725.62,274.2Z"/><path class="cls-65" d="M353.18,897.45a17.78,17.78,0,0,0-2.06-.23c-3.18-3.87-.75-10.69-6.84-13L338.83,868l-1,11.22c-2,5.69-7.19,6.38-12,7.59l-5.76-16.92q-.17,7-.34,14c-.92,1.1-1.26,2.8-3.07,3-7.83-9.18-8.93-20.46-9.94-31.78,3-.08,6.25.55,9-.37C362.65,838.82,353.94,871.6,353.18,897.45Z"/><path class="cls-44" d="M208.2,693.91c3,1.29,6.26,2.11,8.84,3.94,23.5,16.64,32.58,39,23.53,66.64-3.39,10.34-10.86,19.35-16.47,29l.06,0a26.86,26.86,0,0,1-1.51-2.45l-12.48-77.16Q209.18,703.89,208.2,693.91Z"/><path class="cls-50" d="M222.65,791l1.51,2.45Z"/><path class="cls-66" d="M122.39,303.43l11.39-29.28.1-.12a3.51,3.51,0,0,1,2.06-1.83l6.45-5.37c1.92-2,3-5.34,6.85-4.38l29.55-17.87,2.44-.41a12.38,12.38,0,0,1,2-1.42c25.61-13.63,53-19.47,81.87-18.47a8.39,8.39,0,0,0,4.05,1,22.59,22.59,0,0,1,2.73,1.16,11.59,11.59,0,0,1,2.29,2.08c.65.86,1.23,1.75,1.81,2.67,6.3,11.21,5.72,17.58-3.18,25.93-6,5.64-11.92,11.66-19.5,15.18-30.2,14.05-57.69,33.92-90.69,41.94-8.77,2.14-17.44,4.62-26.56,4.54a9.22,9.22,0,0,1-5.52-3.35,29.19,29.19,0,0,1-2.1-2.34C126.77,309.66,120.91,308.8,122.39,303.43Z"/><path class="cls-67" d="M269.65,226.27l-2.28-.08c-.53-.44-.71-.87-.53-1.3s.35-.65.53-.65h11.31C294.44,252,285.1,273,244.15,292.68,213.69,307.35,181.73,319,150.09,331c-5.87,2.23-15.7,8-18.85-5-3.85-4.66-4.05-9.23.33-13.7l2.22,4.42c5.34,5.9,12,3.64,17.85,2C188.16,308.88,223,295,254.81,274.14c6.41-4.19,11.51-9.64,16.39-15.38,10.71-12.61,10.8-17.19.72-30.23l0,0C271.16,227.75,270.41,227,269.65,226.27Z"/><path class="cls-68" d="M267.37,224.24v1.95l-2.31-1.91Z"/><path class="cls-50" d="M183.19,242.75l-2,1.43Z"/><path class="cls-69" d="M325.83,886.79l12-7.59v.07c1,1.44.77,3.31,1.71,4.77.64,7.91,11.84,19.11,3.58,22.07C334,909.41,329,896.08,325.83,886.79Z"/><path class="cls-70" d="M344.28,884.18c7.05,1.08,7.05,1.08,6.84,13Z"/><path class="cls-71" d="M316.66,886.82l3.07-3L323.24,895Q320,890.91,316.66,886.82Z"/><path class="cls-65" d="M339.59,884l-1.71-4.77Z"/><path class="cls-72" d="M587.17,845.09l21.11-3.86a2.8,2.8,0,0,0,3.89-.44l-.17.11c3-1.64,6.71-2,9.19-4.67l-.11.09c24.34-9.12,12.46,12.9,16.44,20.31,3.47,6.45,2.58,15.24,3.62,23-3.69,3.43-7.42,1.82-11.14.07l-6.1-12.15-.45,9.61c-3.62,7.43-9.28,7.89-16,4.69l-5.65-11.53L603.07,884c-1.89,2.54-4.54,3.09-7.48,2.88l-11.1-23.26-1.62-13.47,4.3-.81a17.55,17.55,0,0,0,2.63-1.42,2.84,2.84,0,0,0,1.8-.65c.62-.32.83-.66.64-1s-.4-.53-.6-.53Z"/><path class="cls-73" d="M630,879.7l11.14-.07a11.87,11.87,0,0,0,.65,2.1l-2.34,15.81Z"/><path class="cls-69" d="M607.44,881.85l16-4.69h0a4.31,4.31,0,0,1,1.47,2.43l10,26.92-4.76,5.25C615.18,907.41,611,894.89,607.44,881.85Z"/><path class="cls-74" d="M595.59,886.83l7.48-2.88,7.52,19.44Z"/><path class="cls-75" d="M149.24,262.45l-6.85,4.38-2-2C143.05,263,144.73,257.42,149.24,262.45Z"/><path class="cls-49" d="M135.94,272.2,133.88,274Z"/><path class="cls-76" d="M183.12,619.18q-1.77-8-3.53-15.93l5.79,11Q184.26,616.7,183.12,619.18Z"/><path class="cls-77" d="M45.19,579.23c5.32,6.52,1.46,10.94-3.79,14.41-5.77,3.8-14.11,10.9-18.53,5.21-3.87-5-14.32-8.81-10.22-18.54,1.4-3.35,5-6.15.07-9.35l-1.86-2.15c.28-6.5,8.25-7.83,9.3-13.81l2.77-2.39c9.14-3.12,13.54,2.77,17.6,9.28C36.09,571.14,36.09,571.14,45.19,579.23Z"/><path class="cls-78" d="M20.16,555c10.37,13.67-9.58,6.93-9.3,13.81-2.92-2.36-8.11-3.16-6.13-8.9Z"/><path class="cls-77" d="M13.18,572.94l-1.56,2.66Z"/><path class="cls-77" d="M20.52,546l1.39,3.06Z"/><path class="cls-72" d="M624.92,879.59l-1.47-2.43Z"/><path class="cls-43" d="M574.94,847.22l9.9-1.29Z"/><path class="cls-43" d="M591.64,845.69l1.65.7-1.69.83A8.7,8.7,0,0,1,591.64,845.69Z"/><path class="cls-43" d="M589.8,847.87l-2.63,1.42Z"/><path class="cls-79" d="M430.89,496.08c-5.68-9.61-11.26-17.63-16.36.4-.44,1.56-3,4.07-3.33,3.9-31-17.54-13.43,11.07-15.36,17.56-11.06,37.18-10.5,37.35,18.69,76.51.64.86,1.31,1.7,2,2.55-1.27-.19-3.05.09-3.74-.65-6.37-6.83-12.56-13.83-18.8-20.77-6.91-15.75-23.62-36.45-18.68-46.21,10.33-20.45,17.33-48.43,47.13-54.22,11.88-2.3,23.35-5.66,35.49-2.57,3.19.81,6.45,1.37,9.68,2l-9.81,1.46c-3.89,4-9,2.9-13.63,2.92-8.15,0-13.23,2-9.76,11.62a6.39,6.39,0,0,1-.75,5.36A1.87,1.87,0,0,1,430.89,496.08Z"/><path class="cls-80" d="M192.52,444l-18.45-35.74c-1.09-2,0-2.89,1.66-3.53,6.28,1.51,6.46,7.69,9,12,2.67,4.52,5.52,8.94,8,13.56,3.67,6.83,7.06,7.95,11.8.59,3.76-5.83,7.33-12.49,15.66-13.18a4.07,4.07,0,0,1,2.45,1.82c-1.85,9.88-12.73,15-13.37,25.56,1.13,10.22,7.11,15.28,18.4,15.83,4.31.2,8.78-2,12.93.82a2.08,2.08,0,0,1-.31,2.78C214.9,479.73,206.16,456.16,192.52,444Z"/><path class="cls-81" d="M433.23,496.05c-14-33.88,13.63-16.66,24.53-20l2.21,2.09L451.52,487a7.19,7.19,0,0,1-4,2.35C441.76,489.47,440.62,499.41,433.23,496.05Z"/><path class="cls-82" d="M315.33,402.58l-.12-22.07a2.29,2.29,0,0,1,3.06.15c2.53,2.94,3.44,6.56,4.15,10.25,7.06,36.48,16,43.1,51.51,38a4.64,4.64,0,0,1,2.68,1.9C352.56,449.07,333.88,440.46,315.33,402.58Z"/><path class="cls-83" d="M383,342.45c18.8,16,20.34,56.59,3,79.3a3.74,3.74,0,0,1-2.13-2.55c-.69-3.87.71-7.39,2.08-10.85,7.83-19.71,6.72-38.72-4.22-57a13,13,0,0,1-1.79-5.28A3.45,3.45,0,0,1,383,342.45Z"/><path class="cls-84" d="M240.28,464.52l-.32-3.63c-3-10.07,2.65-19.64,1.69-29.6a22.65,22.65,0,0,1,.55-3.57c.77-2.93,1.66-5.84,1.45-9,.71-5.5-1.8-11.7,3.65-16.09q.84,21.56,1.67,43.12Z"/><path class="cls-85" d="M383,342.45l-2,1.68c-3.65,2.32-6.25-.93-9.32-1.73a45.31,45.31,0,0,1-4.93-2.69c-1.59-.93-3.26-1.71-4.91-2.55a7.09,7.09,0,0,1-2.11-1.82,2,2,0,0,1,.61-2.44l18.3,4.45Z"/><path class="cls-82" d="M386,421.75l-9.34,9.05-.31-.35c-.9-6.76,2.7-9.25,8.85-9.34Z"/><path class="cls-69" d="M467,537c19.54,2,33.74,12.11,37.43,31.26,3.89,20.22,2.33,43.11-18.62,52.32-22.73,10-39.63-7-54.09-23-10-11-11.81-23.1-1.38-35.29l.87-1.33a11,11,0,0,1,4.28-2c11.55-1.27,18.33-9.73,25.82-17.09C462.74,539.61,464.15,537.42,467,537Z"/><path class="cls-86" d="M464.53,543.43c-9.11,7.46-15.59,19.24-29.88,18.22-3.79-1.95-6.55-4.58-6.33-9.29a7,7,0,0,0-.84-3.15,10,10,0,0,1,.23,4.73c-1.68,1.64,1,6.21-3.86,5.76l-2.23-.1c-7.16-2-12.58-6.77-18.16-11.3-.28-6.93-12.64-5.81-8.29-18.2,12-34.28,31.54-32,56.29-15.89a2.09,2.09,0,0,1,2.68.07c5.92,9.85,6.36-4.45,10.55-2.37,2.28,4.82.59,9.9,1.12,14.82C466.61,532.4,462.46,537.68,464.53,543.43Z"/><path class="cls-87" d="M464.8,527.8l-1.89-16.18c-3.39.46-5.56,4.53-9.54,3.23a2.77,2.77,0,0,0-1.91-.64l2.39-9.14c1.15-1.57-.26-4.24,2.25-5.22,13.83,5.39,12.92,16.39,10.63,27.92C466.11,529,465.47,529,464.8,527.8Z"/><path class="cls-88" d="M45.19,579.23c-6.15-4.55-19.72-7.09-4.66-17.34l10.72-1.7c-2.72,1.87-5.59,3.56-8.12,5.67-1.59,1.32-2.67,3.26-4,4.92l14.7,7.15c.62,4.15-1.92,3.2-4.23,2.61Z"/><path class="cls-89" d="M433.23,496.05l13.37-8.8c1.77,1.25,4,2.32,1.81,5-7.59-6.72-8,19.24-17.52,3.82Z"/><path class="cls-90" d="M448.41,492.26l-1.81-5,4.92-.25q2.3,6.44,4.58,12.85l-2.25,5.22Q451.12,498.67,448.41,492.26Z"/><path class="cls-69" d="M403.46,548.3l18.16,11.3C413.16,559.71,407.71,555,403.46,548.3Z"/><path class="cls-91" d="M464.8,527.8a4.82,4.82,0,0,0,1.93,0q.15,4.59.31,9.18l-2.51,6.48Z"/><path class="cls-69" d="M423.85,559.7q1.09-2.28,2.2-4.56c5.1-.7,4,3.67,5.09,6.24l-.76.84Z"/><path class="cls-77" d="M49.62,580.54l4.23-2.61,1.38,3.27Z"/><path class="cls-92" d="M299.1,330.51c-18,2.8-31-4-34.13-22.21-3.53-20.65,8-34.27,27.06-39.25,15.74-4.11,29.36,1.87,34.7,18.68,6.67,21-3.6,33.61-22.63,40.89-2.08,1.16-2.83-.16-3.4-1.81,3.39-7.59,13.21-8.55,16.65-16.1a21,21,0,0,0,1.56-3c1.18-3.19,2.44-6.37,1.18-9.85-2.59,1.88-2.83,5.2-4.66,7.57a40.21,40.21,0,0,1-8.81,8.71c-5.69,3.57-11.87,4-18.38,3.14-2.21-.29-5.84-2.84-6.52.87-.5,2.73,3.63,3.07,5.94,4,2.76,1.13,5.73,1.81,8.33,3.32C297.86,326.56,300.13,327.57,299.1,330.51Z"/><path class="cls-93" d="M131.57,312.31l-.33,13.7c-6.34,14.11-7.94,31.19-24.41,38.94a14.09,14.09,0,0,1-9.91-.1c-16.7-10-8-40.77,16.12-57.1,2.14-.95,2.8.38,3.23,2.06.11,5.16-7.81,11.7-1.24,14.77,6.77,3.17,8.51-6,11.74-10.51a12.23,12.23,0,0,1,1.43-1.71,2.05,2.05,0,0,1,2.76.24Z"/><path class="cls-94" d="M247.3,402.68q-.33,9.22-.68,18.45a2,2,0,0,1-2.63.26c-2-2.2-3.34-5.05-6.13-6.51a11.35,11.35,0,0,1-2.26-1.82,3.38,3.38,0,0,1,.23-3.92,20.22,20.22,0,0,1,2.82-2.73,5.35,5.35,0,0,0,1.5-3.23,36.58,36.58,0,0,0-.8-4c-1.72-7.8-3.3-15.58-4.65-23.4-.81-4.73-3.2-7.11-7.77-4.8-14.16,7.13-29.34,6-44.44,6.18-12,.13-12.92,2.06-9,13.71,1.58,4.66,6.19,9,2.49,14.64l-1.92,2.75C167,391.88,161.46,373.64,137,378.5c-2.17.43-5-2.53-7.54-3.92,2.52.1,5.27.91,7.51.17,35-11.45,77.85,9.06,107-26.24.78-.94,2.36-1.2,3.57-1.78-.09,1.27.32,3.18-.34,3.69-12.28,9.41-4.09,21.35-4.14,32.24.95,2.14-.14,4.67,1.27,6.72.27,1.21.53,2.42.79,3.63.4,1.89.57,3.85,1.54,5.58C246.87,400,247.09,401.31,247.3,402.68Z"/><path class="cls-95" d="M299.1,330.51c-1.21-.78-2.43-1.55-3.64-2.35-6.64-4.38-21.37-1.27-19.83-11.56,1.92-12.8,12.67,1.3,19.32-1.81,3.28-1.53,7.18-1.75,10.8-2.56.26.44.52.89.79,1.32,0,4.89-4.24,8.11-5,12.69l2.59,2.38Z"/><path class="cls-96" d="M317.6,380.5h-2.39c-.07-13.76,5.4-25.11,15-34.64a3.75,3.75,0,0,1,2.06,2.39c-2.42,11.16-9.05,20.79-11.77,31.86A2.4,2.4,0,0,1,317.6,380.5Z"/><path class="cls-96" d="M360.33,332.9c0,.81,0,1.62,0,2.44-6.38,8.79-17,7.05-25.62,10.26a2.93,2.93,0,0,1-2.36-2.25C340,335.23,349.48,332.27,360.33,332.9Z"/><path class="cls-97" d="M173,334.47l5.07,4.18c-2.63,1.16-5.18,2.7-7.93,3.31-1.2.26-2.83-1.38-4.25-2.16Z"/><path class="cls-98" d="M131,312.6l-2.66-.08c-4.6.38-9-.15-13-2.76l-2.3-2,9.35-4.32Q126.68,308,131,312.6Z"/><path class="cls-99" d="M96.92,364.85l9.91.1Z"/><path class="cls-100" d="M244.32,389.38l-1.27-6.72C243.47,384.9,243.9,387.14,244.32,389.38Z"/><path class="cls-101" d="M246.65,398.59q-.77-2.79-1.54-5.58Q245.89,395.8,246.65,398.59Z"/><path class="cls-96" d="M330.25,345.87l2.12-2.52,1.55,1.72a3.79,3.79,0,0,1-2.33,2.05Z"/><path class="cls-20" d="M621.19,836.23,612,840.9Z"/><path class="cls-20" d="M612.17,840.79l-3.89.44Z"/><path class="cls-68" d="M271.92,228.53c22.42,22.27,1.08,36-12.38,46C227,298.58,189,312.4,150,322.79c-5.08,1.36-15,6.76-16.22-6.06,50.15-7.58,93-31.4,134-59.64C280.53,248.33,278,239.1,271.92,228.53Z"/><path class="cls-68" d="M269.65,226.27l2.25,2.24Z"/><path class="cls-102" d="M402.82,491.44c4.18-2.91,7.37-5.25,10.73-7.29.41-.25,1.81,1.11,2.74,1.72a118.28,118.28,0,0,1-6.94,9.74C409.18,495.81,406,493.46,402.82,491.44Z"/><path class="cls-103" d="M392.21,516.31l-3.34,2.44c-.39-1-1.34-2.27-1-3,.51-1.17,1.83-2,2.8-2.95C391.05,513.74,391.46,514.64,392.21,516.31Z"/><path class="cls-100" d="M176,405.52c-16.89-27.3-7.34-36.27,21.93-31.8,2.92.45,6.53.89,8.92-.37,36.32-19.21,32.59,9.69,36.14,29.88a10.15,10.15,0,0,1,1.29,2.89l-4.17,2.15a18.75,18.75,0,0,0-2.49,1.54l-1.48,2.32a1.25,1.25,0,0,0,2.1.35c8.11-1.68,6.15,4.61,6.92,8.74a8.26,8.26,0,0,1,0,6.56c-.27,1-.53,2-.8,3-9.77,6.85-22.48,7.56-31.88,15.33-2.44,2-4.88.29-6.44-2.21.91-11.13,10.42-16.72,16-24.84h0c-1.08.28-2.67.2-3.16.9C188.35,463.22,187.2,419.38,176,405.52Z"/><path class="cls-104" d="M206,443.87l38.32-13.12L240,460.89c-9.92,6.52-19.1,3.69-28.17-2.08C206.06,455.17,203,450.75,206,443.87Z"/><path class="cls-105" d="M317.6,380.5a9.35,9.35,0,0,0,1.83-.23c9.13-.14,18.49-2.49,26.25,5.46,3.26,3.33,6.37.56,9.34-2.55,9.58-10,11.29-22.41,11.48-35.27.06-4.16.09-7.55,5.12-8.26l9.37,4.48c19,24.71,15.2,50.65,4.16,77l-8.85,9.33C339.36,443,321.42,427.74,317.6,380.5Z"/><path class="cls-101" d="M245.13,427.78c0-2.19,0-4.37,0-6.56a6.65,6.65,0,0,0,1.48-.08Q245.87,424.46,245.13,427.78Z"/><path class="cls-106" d="M371.62,339.65c-3.58,15.75-1.86,32.42-14.08,46.53-5.63,6.52-10.41,7.81-13,2.81-6.22-11.79-19.26.79-25.07-8.72-1.09-12.94,6.62-22.65,12.15-33.16l2.34-2,26.43-9.73a8.35,8.35,0,0,0,1.86.16c1.57.82,3.55.48,4.94,1.79Z"/><path class="cls-96" d="M367.15,337.29l-4.94-1.79Z"/><path class="cls-107" d="M431.14,561.38l-5.09-6.24c1.37-4.49-9.4-12.29,2.9-12.78,1.64-.07,3.79,12.55,5.7,19.29Z"/><path class="cls-50" d="M453.37,514.85c4,1.22,3.11-11.75,9.54-3.23l-.84,13.27-12.13-6C451.08,517.56,452.22,516.2,453.37,514.85Z"/><path class="cls-108" d="M284.51,275.05l3.8-2.47.56-.38c7.28-2.69,11.33.42,13.29,7.36,2.3,8.17-2.82,12.6-8.64,16.22-4.83,3-9.78,1.61-12.83-2.84-4.6-6.7-2.36-12.67,3.57-17.58Z"/><path class="cls-109" d="M305.75,312.23c2.66-3.09,5.2-6.3,8-9.23,3.85-4,1.23-16.24,8.72-12.44,4.48,2.27,3.59,15.06-3,21.87-4.46,1.11-8.91,3.39-13.43.17Z"/><path class="cls-110" d="M306.07,312.6l13.43-.17-18,13.8C295.24,319.08,304.66,317.18,306.07,312.6Z"/><path class="cls-49" d="M284.51,275.05l.22.43s-.48-.11-.47-.12l-.19-.45Z"/><path class="cls-49" d="M288.87,272.2l0,.66-.53-.27s-.06-.66-.06-.66Z"/><path class="cls-111" d="M115.34,309.76c5.25-3.45,9.3-1.26,13,2.76,1.12,8.09-2,14.35-9.56,17-2.53.87-8.21-1.13-9.24-3.32C106.4,319.53,109.74,314,115.34,309.76Z"/><path class="cls-99" d="M92.41,349.12l2.38-5.69c4.31,12.12,13.9,6.78,21.91,6.65-3.06,6.22-6.47,12.45-14.53,12.35C93.67,362.33,94,355.15,92.41,349.12Z"/><path class="cls-101" d="M238.23,412.48l-2.1-.35A13.54,13.54,0,0,1,238.23,412.48Z"/><path class="cls-101" d="M237.61,409.81l2.49-1.54Z"/><path class="cls-101" d="M244.27,406.12,243,403.23Z"/><path class="cls-112" d="M222,419l6.38-5.28,1.38,1.82L222,419Z"/></g></g></svg>