<svg xmlns="http://www.w3.org/2000/svg" viewBox="0 0 974.79 868.22"><defs><style>.cls-1{fill:#c39653;}.cls-2{fill:#6d4c2d;}.cls-3{fill:#373231;}.cls-4{fill:#69482b;}.cls-5{fill:#575251;}.cls-6{fill:#5b3f28;}.cls-7{fill:#70502f;}.cls-8{fill:#4e3828;}.cls-9{fill:#4e3727;}.cls-10{fill:#c5ac8c;}.cls-11{fill:#5c422c;}.cls-12{fill:#251b13;}.cls-13{fill:#d5a457;}.cls-14{fill:#382b1e;}.cls-15{fill:#56463b;}.cls-16{fill:#484334;}.cls-17{fill:#2f2c2b;}.cls-18{fill:#362b1f;}.cls-19{fill:#484233;}.cls-20{fill:#2e2319;}.cls-21{fill:#1e1812;}.cls-22{fill:#231c17;}.cls-23{fill:#49453f;}.cls-24{fill:#3e392c;}.cls-25{fill:#2c1f15;}.cls-26{fill:#564f40;}.cls-27{fill:#594d35;}.cls-28{fill:#363128;}.cls-29{fill:#352e28;}.cls-30{fill:#40372d;}.cls-31{fill:#2b221b;}.cls-32{fill:#322b26;}.cls-33{fill:#453f32;}.cls-34{fill:#524b3e;}.cls-35{fill:#382f25;}.cls-36{fill:#4a463f;}.cls-37{fill:#413628;}.cls-38{fill:#574c3b;}.cls-39{fill:#282320;}.cls-40{fill:#424040;}.cls-41{fill:#403b2f;}.cls-42{fill:#25211e;}.cls-43{fill:#261e17;}.cls-44{fill:#d3b56b;}.cls-45{fill:#5f503d;}.cls-46{fill:#736a51;}.cls-47{fill:#7e5e3f;}.cls-48{fill:#51483d;}.cls-49{fill:#4e483d;}.cls-50{fill:#504a3a;}.cls-51{fill:#534c3e;}.cls-52{fill:#2b2723;}.cls-53{fill:#7d745a;}.cls-54{fill:#595249;}.cls-55{fill:#675d4d;}.cls-56{fill:#927451;}.cls-57{fill:#4b433b;}.cls-58{fill:#413e39;}.cls-59{fill:#49443d;}.cls-60{fill:#453e38;}.cls-61{fill:#6b624e;}.cls-62{fill:#515151;}.cls-63{fill:#342d28;}.cls-64{fill:#585140;}.cls-65{fill:#363534;}.cls-66{fill:#655b45;}.cls-67{fill:#3f3624;}.cls-68{fill:#474134;}.cls-69{fill:#2b241f;}.cls-70{fill:#665e4e;}.cls-71{fill:#5c523e;}.cls-72{fill:#4e4232;}.cls-73{fill:#2e2c2c;}.cls-74{fill:#464037;}.cls-75{fill:#32302c;}.cls-76{fill:#3c3a39;}.cls-77{fill:#19140f;}.cls-78{fill:#57514a;}.cls-79{fill:#75664e;}.cls-80{fill:#292317;}.cls-81{fill:#6a5c45;}.cls-82{fill:#625e58;}.cls-83{fill:#433e38;}.cls-84{fill:#999;}.cls-85{fill:#6f6b61;}.cls-86{fill:#342f2c;}.cls-87{fill:#393633;}.cls-88{fill:#665f57;}.cls-89{fill:#c0a361;}.cls-90{fill:#e9b45b;}.cls-91{fill:#efc373;}.cls-92{fill:#f3daac;}.cls-93{fill:#faf0da;}.cls-94{fill:#e7c773;}.cls-95{fill:#34322f;}.cls-96{fill:#3c3833;}.cls-97{fill:#e5d7c1;}.cls-98{fill:#d9a755;}.cls-99{fill:#6e4d2d;}.cls-100{fill:#e6b45d;}.cls-101{fill:#382c19;}.cls-102{fill:#483920;}.cls-103{fill:#a27840;}.cls-104{fill:#796037;}.cls-105{fill:#e9b35a;}.cls-106{fill:#8b6e4d;}.cls-107{fill:#8a6d4c;}.cls-108{fill:#66563f;}.cls-109{fill:#8c6e4c;}.cls-110{fill:#54504f;}.cls-111{fill:#39332e;}.cls-112{fill:#3f3e3d;}.cls-113{fill:#121111;}.cls-114{fill:#896c4a;}.cls-115{fill:#edb75c;}.cls-116{fill:#cb9f58;}.cls-117{fill:#8b6f4f;}.cls-118{fill:#cfb26a;}.cls-119{fill:#f5d97c;}.cls-120{fill:#efcb86;}.cls-121{fill:#130d09;}.cls-122{fill:#3c2f1f;}.cls-123{fill:#d2ba97;}.cls-124{fill:#5a4935;}.cls-125{fill:#87724e;}.cls-126{fill:#eeb85c;}.cls-127{fill:#ebb65c;}.cls-128{fill:#423524;}.cls-129{fill:#f5d777;}.cls-130{fill:#a38a6d;}.cls-131{fill:#8b7153;}.cls-132{fill:#d3b567;}.cls-133{fill:#efcd72;}.cls-134{fill:#f7da7d;}.cls-135{fill:#e4d6c0;}.cls-136{fill:#66532f;}.cls-137{fill:#f1cc85;}.cls-138{fill:#f5dcae;}.cls-139{fill:#8b6d42;}.cls-140{fill:#f0ca82;}.cls-141{fill:#6b552e;}.cls-142{fill:#e8b55e;}.cls-143{fill:#4b3c29;}.cls-144{fill:#5e513e;}.cls-145{fill:#1d1612;}.cls-146{fill:#ddab59;}.cls-147{fill:#c69b57;}.cls-148{fill:#917a53;}.cls-149{fill:#1c1511;}.cls-150{fill:#634b27;}.cls-151{fill:#362e23;}.cls-152{fill:#574538;}.cls-153{fill:#503a20;}.cls-154{fill:#544235;}.cls-155{fill:#f1f1f3;}.cls-156{fill:#f0f1f3;}.cls-157{fill:#e9e8e8;}</style></defs><title>Recurso 6</title><g id="Capa_2" data-name="Capa 2"><g id="Capa_1-2" data-name="Capa 1"><path class="cls-1" d="M410.64,422.17l2.64,9.82c-.63,5.45-4.91,6-8.35,4.6-13.71-5.42-25.61-2.72-36.44,6.73-12-.59-24.22,0-34.6-7.66a12.59,12.59,0,0,1-3.8-5.51c-7.48-27.56-25-48.54-44.3-68.37-4.7-6-12.36-8.47-17.16-14.4-5.58-6.9-4.46-11,3.59-14.65,18.95-8.5,37-18.49,53.29-31.61,4.53-3.66,9.4-6.17,15.52-4.82,2.07.46,2.32.1,1.83-1.79,2.66-4.37,7.9-2.86,11.48-5.09,8.8-3.08,13.93-9.35,15.76-18.47a9.6,9.6,0,0,1,3.28-5.17c2-1.54,4.19-2.69,5.47-5.21,3.8-7.51,9.2-8,15.51-2.9,1.86,11.14.49,22.38,1.79,33.43-.17,11.42,2.81,22.74.84,34.37-1,5.93-3.13,7.92-8.73,6.48-1.07-.28-2.19-.36-3.27-.59,1.37.52,2.94.44,4.18,1.39,2.63,3.78.7,7-.93,10.53-2.12,4.56-9.06,8.63-2.11,14.49,7.66,6.47,16.4,6.54,23.29,0,4.42-4.21,8.32-9.22,15.43-5.34a4,4,0,0,1,.95,2.92c-6.4,7.83-8.4,13.66-1.15,24.33,4.91,7.25,3.94,20.5,6,31,.66,3.44-3.07,6.67-7.41,7.29-17.28,1.64-34.22-.39-51-4.46a14.86,14.86,0,0,1-2.1-.8,4.83,4.83,0,0,0,1.67.75C384.37,418.09,398.62,415.13,410.64,422.17Z"/><path class="cls-2" d="M169.2,832.84c.44-10.65,16.64-14.93,11.22-27.93,8.22-4.37,11.1-14.76,20.29-18a11.09,11.09,0,0,1,4.09,4.78c6.27,11.52,9.53,12.36,19.47,4.59,3.83-3,7.35-6.54,12.42-7.08,10.78-1.16,17.42-7.59,22-16.78.94-1.87,2-3.71,2.73-5.68.36-1,.79-2,1.25-3,3.28-10.25,3.47-10.43,9.74-9.25,2.49,5.87,1.87,11.85.44,17.77-6.9,28.46-12.85,57.3-31.24,81.35a4.32,4.32,0,0,0-.37,2.2l-6.8,6.06c-3.45-.14-6.18,2.28-9.54,2.62-12.47,1.24-19.57-8-15.78-20.46,3.44-3.07,7.9-1.26,11.79-2.29,2.6-.69,5.62-1.81,4.93-5-.6-2.77-3.6-1.83-5.75-1.48s-4.35,1.29-6.52,0a2.61,2.61,0,0,1-.65-2.05c.88-3.49,1.16-7.22,3.74-10.07-3,3.37-3.46,7.79-4.59,11.87s-1.74,8-6.14,9.82a67.59,67.59,0,0,0-23.12-6.39c-1.85-1.88-1.25-3.81.24-5.47,2.49-2.78-.72-.76-1-1.19-10.51,1.88-.57,7.34-2,10.86-.18,3.53-.61,7.21-5.17,6.81-3.74-.32-3.41-4.16-4.36-6.81C169.41,839.42,170.53,836,169.2,832.84Z"/><path class="cls-3" d="M343.35,616.56c-6.67,1.19-4,5.91-3.57,9.69,7.32,61.6-13.69,111.33-62.28,149.55-5.32-.42-6.77-3-4.27-7.7a41.69,41.69,0,0,1,5.23-5.73c5.54-5.62,5.6-9.12-3.29-9.85-5.3-6.37-1.49-14.6-4.53-21.41-1.36-6.68-1-13.45-1-20.2-.05-10.1-1.31-19.55-11.26-25.27-3.84-2.2-4.55-6.26-3.38-9.91,5.54-17.4,15.1-31.7,32.32-39.6,1-.45,2.2,0,3.23.43,3.11,4.42-.54,7-3,9.54-3.67,3.79-7.47,7.44-10.92,11.46-11.4,13.26-11.3,13.38-2.84,28.18,5.79,10.14,6.2,21.62,7.05,32.9.39,5.26.06,10.56.12,15.85.06,4.89,1.76,5.17,5.18,2.07,8.78-8,16.43-17,20.9-27.88,7.56-18.41,16.11-37,10.28-57.82-4.09-14.64-5.3-15.22-20-12.36-2.28.44-4.49.67-6.28-1.34-.4-1.59-.32-3.26.88-4.21,14.85-11.76,30.86-20.6,50.68-19.44A2.13,2.13,0,0,1,343.35,616.56Z"/><path class="cls-4" d="M368.44,91.75l3-2.25C385.24,81.21,399,72.87,413.1,65.14a233.23,233.23,0,0,1,61.06-24.78c6.08,2.75,11.5.43,17-2.12,5-2.32,10.05-5.52,15.67-1.35,1.17,3.92-1.73,5.56-4.29,6.94C476.4,58,450.42,72.28,427.31,91.21c-1.15.94-2.76,1.16-4.24,1.51-4.05.13-6.95,2.41-9.86,5C400.44,108.82,387,119.21,374,130s-24.37,7-28.24-8.87c1.2-8.93,8.56-13.47,13.94-19.44C362.63,98.42,366.47,95.91,368.44,91.75Z"/><path class="cls-5" d="M113,789.72c-12.81-6.22-19.9-17.43-25.83-29.66-7.54-22.74-8.77-45.7-2.4-68.9.65-11,7.76-20.21,9.2-31.06q2.14-4.7,4.3-9.39a97.51,97.51,0,0,0,16.25-24.64l11.37-13.35c3.24.42,5.8,1.64,6.19,5.36.07,5.38-3.63,8.94-6.36,12.95-19.45,28.61-29.49,60-28.57,94.83.16,5.83,2.11,11.09,3.83,16.41a29.69,29.69,0,0,0,3.31,8.5c1.38,2.35,2.94,4.5,6.18,4.44a190.76,190.76,0,0,1,18.75,19.07C145.17,787.39,164,787,183,786.05c4.32-.21,10.71-2.66,11.06,3.56.32,5.64-2.88,11.64-10.45,12.54-21.19,2.52-42.07,3-61.52-8C119.17,792.47,116.31,790.53,113,789.72Z"/><path class="cls-6" d="M410.64,422.17c-13.07-2.33-26.16-4.54-39.18-7.1-2-.39-3.66-2.36-5.48-3.6,2,.08,4,0,6,.24q26.29,2.42,52.6,4.91c9.72-7.64,9.9-7.91,2-17.13-2.9-3.37-3.87-6.23-1.24-9.93,1.47-2.07,4.26-4,2.33-6.85-7-10.28,1.75-9.25,7.2-9.87,6.76-.76,13.44,1.08,20.05,2.22,10.44,1.81,20.77,2.53,31.11.06,5.68.06,10.72-1,12.51-7.58a4.79,4.79,0,0,1,3.65-2.47c11.94,6.93,18.42,15.61,9.33,29.27C496,408.24,477.2,413.42,457.2,415.6a33.34,33.34,0,0,1-6.92,0c2.26.82,5.2-1.08,7,1.73Z"/><path class="cls-7" d="M7.51,392.07,1.17,383c3-3.54-2.49-9.19,3-12.08,2-.05,3.45,1.12,4.87,2.31,5.53,4.63,11.51,5.09,17.54,1.4,5.77-3.54,4-8.91,2.71-14a6.69,6.69,0,0,1,.43-4.41c1.25-1.5,2.9-1.76,4.69-1.74,14.64-2.78,29.32-4.95,44.22-5.07,4.82,5.82-1.83,6.07-4.06,8.46-3.91,2.56-1.66,4.72.26,7.27,8,10.65,7.14,15.08-4,22.15-10.44,6.65-10.07,6.4-3.52,16.24,4.81,7.24,7.92,15.28,1.64,23.62-4.18,1.1-8.51-.56-9.46-3.94-4.92-17.54-20.45-19.42-34.08-23.22C18.9,398.09,12.86,396.18,7.51,392.07Z"/><path class="cls-8" d="M347.93,119.21c4.19,20.31,14.54,15.64,26.24,6.66,16-12.31,29.18-28.54,48.72-36.09,1.2,6.51-4.14,9.35-7.69,12.81-12.75,12.41-24.2,25.85-33.56,41-4.8,7.76-8.7,16-7.72,25.52.62,6.06,1.7,12.17,9,14,6.78,2,13.52,4.6,20.77,1.86,3.58-1,7-2.79,10.92-1.46a3.43,3.43,0,0,1,2,2.4c-12.68,8.37-26.47,11.24-41.41,8.37a7.7,7.7,0,0,1-4.81-1.88c-8.76-12.14-18.05-23.74-31.18-31.61a11,11,0,0,1-4.48-6.3C331.89,145.44,339.3,125.69,347.93,119.21Z"/><path class="cls-9" d="M160,121l13.47,36.48c.81,3.93,4.73,3.32,7.15,4.93,0,6.94-5.61,8.39-10.43,10.56-9.9,2.21-14.47,10.82-20.7,17.44-3.65,3.89-5.23,12-11.74,10.23-5.86-1.62-3-9.19-4.38-14-3-10-.77-20.83-5.09-30.55a6.87,6.87,0,0,1-2.08-2.11c-1.44-3-1.3-6.16-.85-9.34,2.32-9.35-3.69-17.8-2.91-27,7.9-6.83,11.63,1.52,16.74,4.69,5,3.08,9.26,10.28,15.68,2.11A10.66,10.66,0,0,1,160,121Z"/><path class="cls-10" d="M465.59,639.59l-11.06,6.55c-1.52-1.29-4.38-.12-5.13-2.8,4.33-8.26,3.27-10.61-5.34-10.9-5.16-.18-10.51,1.47-15.23-2.12-12.54-17.71-13.65-38.68-17-59,4.07-2.69,4.82-10.21,12.06-8.41,2.57,3.62,1.82,7.83,2.06,11.87.76,13.15,6.73,23.22,17.82,30.22,11.12,2.36,17.45-2.26,18.61-14.42.8-8.26.88-16.63-3.2-24.36-1.16-3.64-3.84-6.75-3.68-10.84,2-6.61,4.31-13,11.12-16.35,3.42,1.3,3,4.61,3.83,7.31,1.85,5.21,2.31,10.69,3.28,16.09.46,13.48,4.38,26.65,3.22,40.23-1.85,9.43-.86,19.51-6.52,28.05l.11-.1c-2,2-3.14,4.57-4.63,6.9l.09-.15c-.63.39-.9.84-.82,1.37S465.41,639.59,465.59,639.59Z"/><path class="cls-11" d="M7.51,392.07c24.61,3.9,47.18,11.52,61.78,33.79,13.17-.39,24.41,6.8,36.8,9.65,8.21,1.89,14.59,1.54,19.79-5.52,2.92.16,3.78,2.25,4.38,4.61-.55,7.8-1.55,15.45-7.33,21.45a3.22,3.22,0,0,1-3.33-.59,13.43,13.43,0,0,1-.42-1.88c.92-1.44.5-3.39,1.79-4.69C104.2,443,87.27,437.43,70.69,431,47.32,421.9,23.35,413.55,7.51,392.07Z"/><path class="cls-12" d="M381.77,185.76c-10.11-2.63-14.45-14.91-9.55-29.15,9.56-27.78,31.86-46,50.67-66.83L507,37.61c1.85-3.56,5.59-3.92,8.77-5.23a28.74,28.74,0,0,1,4.38-1.13,8.42,8.42,0,0,1,3,.27c1.39.77,2.51,1.68,1.66,3.52L504.66,47.4c-1.93-.69-3.34.31-4.74,1.45a23.78,23.78,0,0,1-2.21,1.8c-.86.52-1.71,1-2.59,1.51-27.64,14.29-53.53,31.13-76.45,52.26-13.39,12.35-24.44,26.66-34.18,42.09C376.42,159.29,378.59,172.4,381.77,185.76Z"/><path class="cls-13" d="M391.22,255.18l-16.34,11.31c-2.52-2-2.74-4.92-2.92-7.82,0-3.38-.19-6.74-1.84-9.84-1.69-5-3.93-9.78-3.52-15.24,1.28-5.82-.14-11.7.51-17.54.5-4.45,1.08-8.8,5.52-11.26,5-1.67,5.85,2.3,7.88,5.39,2.88,4.36,2,10.56,7,13.76.93,2.87,1.87,5.74,2.8,8.61C387.73,240.22,395.39,247.45,391.22,255.18Z"/><path class="cls-14" d="M413.39,569.43c5.47,20.73,6.47,42.78,18,61.73a8.87,8.87,0,0,1,2.55,1.33,24.62,24.62,0,0,1,3.5,2.71c3.51,3.82,8.94,4.69,12.61,8.25l4.43,2.69c-18,4.81-24.44-8.49-31.78-20.39a25.33,25.33,0,0,1-3.23-3.86c-6.82-14.27-9.58-30-15.7-44.5a308.47,308.47,0,0,0-19.09-38.19c-2.51-6-7.87-10.58-8.77-17.4a5.76,5.76,0,0,1,1.22-3c6-1.09,8.75,3.5,11.86,7.06,9.47,10.84,17.67,22.54,23.25,35.92a12,12,0,0,1,1.34,6.07C413.54,568.39,413.47,568.91,413.39,569.43Z"/><path class="cls-15" d="M523.44,455.94l-55.39-5.15c-7.21-2.85-13.64,1.24-20.34,2.51-4.2.8-7.6.39-9-3.84-1.6-4.82,3.08-4.87,5.69-6.38,18.13-4.7,36.41-8.49,55.15-9.28,5.38,11.08,15.59,15,26.52,17.92,1,.27,1.46,1.62,1.5,2.83C526.67,456.46,525.12,456.4,523.44,455.94Z"/><path class="cls-16" d="M956.58,545.76c7.29,8.72,21.8,18.08,17.4,27.39-3.24,6.87-17.77-4.64-27.24-7.81-40.92-13.7-81.63-28-122.42-42.15-.22-2,1-3,2.59-3.72,5-1.68,9.62.14,14.3,1.51,31.78,9.3,63.16,19.76,93.72,32.63a189,189,0,0,0,17.89,6.88c2.38.73,5.46,3.47,7.17,1.21s-1.94-4.3-3.18-6.44c-1.34-2.3-2.82-4.48-2.39-7.34A3.06,3.06,0,0,1,956.58,545.76Z"/><path class="cls-17" d="M113,789.72c21.07,9.21,42.86,13.64,66,11.37,7-.69,13.48-3.64,13-9.77-.58-8.14-7.42-1.34-11.19-1.52-19.7-.93-40.58,2.94-54.84-16.26a7,7,0,0,1,5.46.11c20.82,10.14,42.6,9,64.58,5.69a8.45,8.45,0,0,1,4.39.66c1.88,2.33,2,4.57-.32,6.68-5.72,7-6.93,18.84-19.66,18.23C155.85,809.15,133.05,805.48,113,789.72Z"/><path class="cls-18" d="M368.63,442.25c8-14.48,20.71-14.21,33.81-9.88,4.23,1.39,7.28,2.94,10.84-.37,7.83,2.5,16.79,3,21.26,11.64-.31.44-.61.87-.89,1.29-2.72,1.33-5.06.08-7.46-1.11-7.83-3.9-6.1,1.17-5.09,5.54.32,1,.59,2,.89,3.05.5,1.54,1,3.07,1.47,4.61a61,61,0,0,1,3.17,15.45c.1,2.23.21,4.9-2.45,5.68S420,476.9,418.83,475a27.5,27.5,0,0,1-3.52-9.5c-2.61-13.19-9.18-22-23.72-22.27-3-2.27-5-6.89-10.08-4.1-4.08,2.23-5,6-5.34,10.18a16.64,16.64,0,0,0,1.66,8.54,18.81,18.81,0,0,1,1.24,4.36c.32,2.64.8,5.66-2.2,6.9s-4.72-1.36-6.36-3.39a17.08,17.08,0,0,1-2.17-3.92,30.6,30.6,0,0,1-1.2-2.82c-.48-.85-.94-1.72-1.45-2.57-1.26-2.09-3.44-3.47-4.44-5.77C361.57,445.93,364.79,443.82,368.63,442.25Z"/><path class="cls-19" d="M769.71,508c-36.7-10.83-24.26,9-17.29,27,10.58,27.22,20.21,54.82,30,82.35.88,2.48-.18,5.65-.33,8.5l-5.46-2.22a4.49,4.49,0,0,1-1-3c.65-7.48-3.07-13.84-5.48-20.48-5.5-15.15-11.76-30-17.36-45.18C748,542.2,742.17,529.85,738,516.87c-5.1-15.95-.5-21.23,16.16-18.61,4.47.7,8.92,1.63,12.94,3.92a10,10,0,0,1,2.72,2.41A3.09,3.09,0,0,1,769.71,508Z"/><path class="cls-20" d="M129.66,156.26l1-4.37c.6.86,1.6,1.67,1.73,2.59,1.43,10.05,2.73,20.11,4,30.16.61,4.71,1.17,9.42,1.75,14.13l10-11.48a5.68,5.68,0,0,1,1.87,2.58,10.08,10.08,0,0,1,.12,3.24,12.51,12.51,0,0,1-1.08,3c-4.81,6.88-7.07,15.45-13.8,21.09-2.65,1.14-3.89-.78-5.25-2.43-20.05-6.51-25-25.53-33.9-41.21-.86-2.38.66-2.68,2.41-2.78,7.93,5.39,10.08,15,16,21.89.7.8,1.35,1.65,2,2.49.34.41.65.85,1,1.25,2.42,2.65,4.06,7.74,8.1,6.57,4.9-1.43,2.86-6.91,3.33-10.74.91-7.51-2-14.73-1.92-22.18C127.14,165.38,125.84,160.31,129.66,156.26Z"/><path class="cls-21" d="M347.93,119.21c-11.27,18.09-19.82,35,6.19,49.41,8.15,4.53,12.77,15.41,19,23.38,1.22,2.32,1,4.16-1.71,5.15a7.06,7.06,0,0,1-5.4-3.59c-9.54-15.12-23.8-25.52-36.76-37.24-.91-2.74.64-4.08,2.85-5,2-26,16.4-44.48,36.33-59.53Z"/><path class="cls-22" d="M275.23,769.2c-3.94,3.82,1.7,4.33,2.27,6.6-12.26,12-7.85,29.86-15.28,43.54-6.22,11.46-12.61,22.82-18.92,34.22a15.52,15.52,0,0,0-1.73,1.89l-.31.31c8.48-22.65,23.15-43,25.85-67.82,1.25-11.58,2.39-23.18,3.58-34.77-4-8.16-2.79-15.66,2.8-22.62q2.16,11.44,4.31,22.88C280.47,759.26,278.18,764.28,275.23,769.2Z"/><path class="cls-23" d="M127.7,607.87c-24.28-44.55-23-91.19-11.25-138.67a2.18,2.18,0,0,1,3.24.51c2.71,7.88.23,15.62-1.11,23.26a193.47,193.47,0,0,0,.9,72.63c.55,2.22.5,4.59,1.42,6.74.4,1,.73,2.08,1,3.14,1.28,4.68,3.49,9.06,4.63,13.8.85,6.35,6.47,11.67,4,18.73A2.12,2.12,0,0,1,127.7,607.87Z"/><path class="cls-24" d="M670.55,366.23c36.81,13.84,75,24.46,108.75,45.54A4.38,4.38,0,0,1,777,414c-11.64,0-20.72-7.3-31.09-10.93-20.56-9.65-42.17-16.7-63-25.6-4.81-2.05-10.16-3.32-13.17-8.29A2.35,2.35,0,0,1,670.55,366.23Z"/><path class="cls-24" d="M779.3,411.77c38.69,17.82,73.72,41.4,106.84,68a3.35,3.35,0,0,1-2.27,2.11c-5.39.42-9-3.22-12.91-5.93-24.06-16.49-47.61-33.75-73.26-47.8-4-2.63-8.51-4.41-12.53-7-3.2-2-7.79-3.39-6.3-8.89Z"/><path class="cls-25" d="M123.82,116.68c2.19,9,7.32,17.61,4.22,27.46-3.92-.95-5.07-4.25-6-7.49A520.23,520.23,0,0,0,92.29,56.76c-.69-3.26-2.72-5.74-4.92-8.12l-3-10.54c-.9-2.21.14-3.26,2.18-3.74,3.77.71,5.5,3.74,7.31,6.6,13.27,20.91,21.94,43.91,30.32,67C125.18,110.83,125.86,113.86,123.82,116.68Z"/><path class="cls-26" d="M766.71,613.13l-88-79.28a6.76,6.76,0,0,1-.32-3.12c5.2-2.56,8.5,1.44,11.87,3.93A288.09,288.09,0,0,1,726.79,566a29.38,29.38,0,0,1,2.31,2.15c.78.71,1.49,1.48,2.21,2.25,9.52,10.1,19.59,19.65,29.26,29.6,3.1,3.19,6.82,6,7.75,10.78A2.43,2.43,0,0,1,766.71,613.13Z"/><path class="cls-27" d="M121.79,294.88c-5.76-20.11-3.59-39.94,2.15-59.63a3.05,3.05,0,0,1,2.65.2c1.25.22,1.77-.9,2.57-1.7a13.18,13.18,0,0,1,2.25-1.82c17.92-5.29,29.84,4,30.15,23.46a4.46,4.46,0,0,1-3.64,3c-4.34-1.76-5.06-6.17-6.93-9.73-2.34-4.47-5.17-8.67-10.68-8.8-6.27-.14-8.86,4.91-11.12,9.67-5.06,10.68-2.77,22-2.6,33.14a25.29,25.29,0,0,0,.69,6,8.62,8.62,0,0,1-.44,4.44,5.38,5.38,0,0,1-2.12,2A7.29,7.29,0,0,1,121.79,294.88Z"/><path class="cls-28" d="M663.32,435c9.95-.26,6.86-4.75,3.2-9.64q-25-33.56-50-67.18a3.69,3.69,0,0,1,3-1.44c7.83,2.39,11.69,9.2,16.32,15,11.28,14.19,21.6,29.1,32.46,43.6a88.06,88.06,0,0,1,8.19,13.56c1.71,3.42,3.48,7.12.53,10.58s-6.87,2.28-10.55,1.42a10.55,10.55,0,0,1-5.86-3.21C660.4,435.66,660.71,434.17,663.32,435Z"/><path class="cls-29" d="M475.13,42.08C453.33,47.1,433,55.74,413.69,67a1.78,1.78,0,0,1-1.17-1.82,2.51,2.51,0,0,1,1.13-2A296.3,296.3,0,0,1,511.3,28.66c1.8.68,3.13,1.67,2.48,3.91C500.64,34.66,488.73,41.84,475.13,42.08Z"/><path class="cls-30" d="M80.7,351.29l-48.07,4.29c-.78-.5-1-1-.76-1.45s.53-.71.8-.71c31.37-8.4,63.4-7.34,95.41-6.94,4.77.06,11.5,2.2,11-6.79a2.62,2.62,0,0,1,3.61.75c2.31,5.1,2.4,9.51-3.69,12-16.66,1-33.42-.75-50.08,1.47A9.1,9.1,0,0,1,80.7,351.29Z"/><path class="cls-31" d="M205.16,844.28c1.63-3.36,3.24-6.74,4.92-10.08,3-6,6-11.88,9-17.81l-5,18.73c2,3.78.18,6.5-2.43,9-4.83,22,11.23,16.89,22.77,17.68-14.86,4.48-29.64,10.27-45.24,2.81A6.56,6.56,0,0,1,193.1,862c14.72,1.59,8.05-10.68,10.83-16.81Z"/><path class="cls-32" d="M77.72,10C102,34,124.66,59.31,142,89a4,4,0,0,1-.06,3.12,4,4,0,0,1-3.11,0c-11.94-13.94-22.52-29-34.36-43-4.11-4.87-7.66-10.22-12.34-14.64-4.55-5.37-8.68-11.07-13.41-16.3C76.82,16,72.61,13.36,77.72,10Z"/><path class="cls-33" d="M499.93,45.85l4.73,1.55c-18.19,18.14-37.57,35.54-42.36,62.67-.65,3.7.76,7.77,1.22,11.67-.24,3.81-2.7,3.25-5.18,2.65-5.88-4.43-4.06-10.31-3-16,.8-4.31,2.7-8.33,3.27-12.67,8.6-19.33,21.4-35.21,39-47.09l-.15.14A9.73,9.73,0,0,0,499.93,45.85Z"/><path class="cls-34" d="M523.44,455.94l3.65-2c4-3.64,8.67-1.89,12.76-.72,27.15,7.75,52.79,19.14,77.51,32.71a11.15,11.15,0,0,1,5.33,5.6,2.85,2.85,0,0,1-.83,3.15C590.2,478.83,558.15,464,523.44,455.94Z"/><path class="cls-35" d="M502.15,365.07l-2.61,2.16c-11.05-1.18-19.2-9.78-29.93-11.77-8.68-3.36-17.67-5.67-26.67-7.93a73.7,73.7,0,0,1-7.88-2.23c-7-1.61-14.12-2.49-20.49-6.11a5.05,5.05,0,0,1-1.7-2.8c.33-2.28,1.91-2.36,3.68-2.1C446.27,341.24,477.1,345.09,502.15,365.07Z"/><path class="cls-36" d="M533.27,428.88l98.08-.12c0,2.58-1.85,3.55-3.79,4.45-13,2.72-26.15,1.17-39.23,1.28-17.6.16-35.2.2-52.79,1.08a9.46,9.46,0,0,1-3.6-1.83C530.34,431.57,531.16,430.05,533.27,428.88Z"/><path class="cls-37" d="M413.71,335.21c0,.54,0,1.09,0,1.64-8.84,6-17,3-24.93-2l-21.35-3.29c7.44-6.2,16.22.83,23.16-1.77,11.92-4.45,2.63-15.47,4.64-23.32,1.17-4.55,0-9.69-.06-14.57a1.48,1.48,0,0,1,2.27,0c.76,8.86,3,17.92,1.9,26.53-1.55,11.77,2.88,15.63,13.58,15.1A3,3,0,0,1,413.71,335.21Z"/><path class="cls-38" d="M332.11,151.28l-2.38,4.14c-4.91,3.7-9.45.5-13.85-1a176.34,176.34,0,0,0-43-8.79c-10.88-.28-21.75.39-32.62.87A7.72,7.72,0,0,1,237,145c-1.2-1.85-1.05-3.36,1.07-4.39C270.34,135.73,301.53,140.79,332.11,151.28Z"/><path class="cls-39" d="M531.42,430.82c.05.54.1,1.07.14,1.61-9.16,5.94-18.83,6.89-29,3.07l-59.4,8.63-.8-1,.84-1c26.67-8.92,54.37-10.82,82.16-12.08C527.49,429.43,529.64,428.7,531.42,430.82Z"/><path class="cls-40" d="M87,689.62c-7.38,23.49-2.93,47,.1,70.44l0,0a8.85,8.85,0,0,1-1.82-2.22C75.94,735.4,78,712.59,83,689.69a2.67,2.67,0,0,1,2-1.32A3.14,3.14,0,0,1,87,689.62Z"/><path class="cls-41" d="M97.74,171.52l-1.53,2.08c-8.9-15.43-19.81-29.22-33.74-40.4-7.11-5.72-14.82-9.19-23.57-2.93-5-2.94-2.24-5.45.42-8,8.38-3.56,16.43-1.79,23.47,3,14.8,10,26.21,23.32,34.7,39.07C98.66,166.52,100.18,169.05,97.74,171.52Z"/><path class="cls-42" d="M457.25,417.37,444,416.06c4.45-.64,8.88-1.43,13.35-1.92C477,412,494.53,404,511.48,394.34c-10,14-24.86,18.29-40.69,20.71-1.52.67-3.24.58-4.76,1.26Z"/><path class="cls-43" d="M194,864.52l-4.74.11c-11-7.84-25.11-13.75-20-31.79q3.13,7.18,6.25,14.37l2.34-7.62c-1.65-4.6.31-7.4,4.52-9.07l5.36-5.19-4.95,12.27a6,6,0,0,1,1.28,3.92c-.31,2.66-1.16,5.35.26,8,.44.82.83,1.65,1.23,2.49C187.5,856.73,194.72,857.93,194,864.52Z"/><path class="cls-44" d="M504.24,124.63l6.43,3.18a4.17,4.17,0,0,1-2.91,3.9c-9.31-2.47-18.3.21-27.41,1.67-6.38-.33-14,3.37-17.75-5.41,9.89-8.8,21.7-4.63,32.83-4.72C498.33,123.22,501.12,125.21,504.24,124.63Z"/><path class="cls-45" d="M422,620.89c.25,1.62.49,3.24.73,4.86l-2.33-.06a3.87,3.87,0,0,0-4.38,0l-64.18-10.4c-1,.32-2,.59-3,.82l-5.51.49c0-.61,0-1.21,0-1.82,1.72-4.76,5.88-5.49,10.07-5.93,5.65-.59,11.54-1.13,16.89.62C387.18,614.94,405.08,615.7,422,620.89Z"/><path class="cls-46" d="M39.51,124q-.3,3.15-.61,6.3c-.59,3.15-1.19,6.29-1.78,9.44a5.38,5.38,0,0,1-4.45,2.13c-3.66-7.54-4.71-15.41,1-22.08,6.76-7.94,15.54-5.62,24-2.74a1.92,1.92,0,0,1,.68,1.75c-.11.63-.25,1-.4,1C52.49,124.25,44.63,118.16,39.51,124Z"/><path class="cls-47" d="M475.13,42.08l38.48-11.44c1-1.66,3.54-1,4.41-2.92l4.29-1.12c1.37,2,1.63,4,.1,6.09a11.93,11.93,0,0,0-2.14.43,28.52,28.52,0,0,1-2.6,1.72L507,37.61C495.59,33.47,487.28,51.55,475.13,42.08Z"/><path class="cls-48" d="M397.44,292l-2.27,0q-2-18.37-3.95-36.74-.48-11.31-1-22.62C396.39,251.9,398.17,271.77,397.44,292Z"/><path class="cls-49" d="M679.09,530.46l-.39,3.39-56.84-39.17.44-.45c5.09-3.79,9.17,0,13.13,2.14,8.41,4.62,16,10.62,24.34,15.36C666.06,518.12,676.69,520,679.09,530.46Z"/><path class="cls-50" d="M769.71,508c0-.79,0-1.58,0-2.37,1.12-1.1,2.49-2,4-1.77,16.77,2.69,33.39,6.09,49.36,12.08a6.54,6.54,0,0,1,4.28,4.93l-3.06,2.31Z"/><path class="cls-8" d="M468.79,142.61,423.48,181.3a2.52,2.52,0,0,1-1.51-2.54c13.59-14.2,25.18-30.73,44.53-38.21A3.33,3.33,0,0,1,468.79,142.61Z"/><path class="cls-51" d="M509,130.61l1.69-2.79c11.25,9.29,11.4,20.24,4.75,32.19-3.66.26-5.51-1.13-4.58-5q-.09-8.37-.17-16.73a4.58,4.58,0,0,0-.33-3.89,9.23,9.23,0,0,1-1.27-2.38Z"/><path class="cls-52" d="M443.15,444.13l-2.25,5.38c3,.47,6,1.47,9,1.3,6.06-.33,12.06-4.88,18.14,0-5.8,5.95-24.18-5.82-20,14.24a5.54,5.54,0,0,1,.61,3.12,2.29,2.29,0,0,1-2.34,1.69c-8.58-5.22-10.3-14.55-13.65-22.91a5,5,0,0,1,1.45-2.8l.39-.49,3.58.23c1.75-.83,3.47-1.12,5.07.33Z"/><path class="cls-53" d="M57.48,119.82c0-.93.09-1.87.14-2.81,29,18.76,34.42.91,35.84-23.17,5,3.28,3.05,8.83,4.42,13.31a21.85,21.85,0,0,1-1,7.31C89,134.9,72.83,137.1,57.48,119.82Z"/><path class="cls-54" d="M475.15,603.33q-1.44-21.36-2.87-42.73c-1-2.38.13-2.92,2.23-2.69,1.91,16.15,7.15,32.08,3.24,48.62C476.06,606.14,476,604.4,475.15,603.33Z"/><path class="cls-55" d="M180.63,162.47c-3.44-.18-7.19.1-7.14-5,17.2,3.15,29.31-11.57,45.22-12.94,1.54,1.33,4.5.06,5.23,2.88a3.88,3.88,0,0,1-1.4,2.76c-10.7,4.68-22.29,6.92-32.81,12.13a23.07,23.07,0,0,1-3,1.21,11.12,11.12,0,0,1-3.24.45A5.11,5.11,0,0,1,180.63,162.47Z"/><path class="cls-56" d="M77.72,10,94.05,32.7c-1.57,6.63-5,2.15-7.76,1.29-7.35-5.56-10.37-14.26-15.24-21.58C69,9.3,70.15,6.59,74.78,7.67Z"/><path class="cls-57" d="M74.78,7.67C72.21,19.29,82.31,24.75,87,32.86c.77.49,1,1,.78,1.48s-.51.75-.77.75l-2.63,3c-5.18-8.57-10.53-17-15.48-25.75C66.65,8.47,65.23,4.13,63.45,0Z"/><path class="cls-58" d="M917.88,507.06l38.69,38.7c-.57.47-1.13,1-1.68,1.49-15.89-9.4-28.42-22.26-38.52-37.62A2.61,2.61,0,0,1,917.88,507.06Z"/><path class="cls-59" d="M449.78,468.79q5.91,22.8,11.83,45.6l-1.76.6c-9.18-13.92-16.78-28.26-12.13-45.86l-.07.09C448.18,468.2,448.9,468.11,449.78,468.79Z"/><path class="cls-60" d="M32.67,353.42c0,.72,0,1.44,0,2.16L30.35,358c-7.65,5.77-17.4,7.54-25.06,13.27q-2.06,5.82-4.12,11.63c-5.55-20.91,9.66-24.06,23.9-28a5.9,5.9,0,0,0,2.68-.81Z"/><path class="cls-61" d="M510.84,155l4.58,5c-2.72,8.93-8.92,13.84-17.89,15.56-1.43-1.16-2.73-2.39-2.59-4.45Z"/><path class="cls-62" d="M47.49,160c4.64.25,9.34,8.9,13.4,1.8,3.89-6.82-1.61-12.6-6.65-17.39-1.39-1.32-2.7-2.73-4-4.1,2.1.31,4.59,0,6.25,1.06,6.76,4.22,9.11,10.79,7.82,18.41-.43,2.6-2,6.56-3.88,7.08-6.75,1.87-12.46-.61-16.26-6.79A2.82,2.82,0,0,1,47.49,160Z"/><path class="cls-63" d="M413.65,64.67c0,.77,0,1.53,0,2.29L371.47,89.5l39.81-25.12A1.53,1.53,0,0,1,413.65,64.67Z"/><path class="cls-64" d="M511.5,132.87q-.4,2.69-.83,5.36v-.14c.26-1.55-1-2.15-1.87-3l-9.7-3.08a5,5,0,0,0-3,.06l-27.34,10.51a4.51,4.51,0,0,1-1.22-1.58c1.26-8.16,7.26-8.89,13.77-8.83,9-3.95,18.27-3.73,27.64-1.59l-.12-.18A16.06,16.06,0,0,0,511.5,132.87Z"/><path class="cls-65" d="M494.94,171.12l2.59,4.45c-7,1.91-13,.26-15.64-6.73-3.16-8.49,1.74-14.06,8.72-18.17,2.32-.68,2.9.29,2.27,2.41-5.38,2.45-8.58,7.2-7.47,12.46C485.93,168,491.6,169.29,494.94,171.12Z"/><path class="cls-66" d="M504.24,124.63c-13.39,2-27.85-5.87-40.32,4.44-3.45-.21-5.95-1.2-4.29-5.45l3.89-1.88C477.2,121.21,491,118.63,504.24,124.63Z"/><path class="cls-67" d="M123,294.5l2.5-.25,1.41.6c4.92,6.55,10.33,12.3,19.55,11.7,4.17,2.73,1.76,5-.73,6.8-3,2.09-7.06,2.49-9,6.1-1,1.26-2,2.34-3.83,1.91l-10.72-25.77Z"/><path class="cls-68" d="M886.14,479.79l31.74,27.27c-.49.55-1,1.1-1.49,1.64-.71.3-1.63.73-2.16.39-11.53-7.42-23.08-14.82-29.29-27.86A6.86,6.86,0,0,1,886.14,479.79Z"/><path class="cls-69" d="M160,121l-2.54,5C149.63,115.8,140.92,106,141.56,91.9l-.05,0a1.38,1.38,0,0,1,2.19-.12Z"/><path class="cls-70" d="M87.37,48.64l6.16,5c0,7.79,6.59,14.29,4.38,22.52-.83,2.24-2,4.11-4.45,4.89Z"/><path class="cls-71" d="M628.73,430.79l2.62-2,32,6.21L661,437C649.31,439.86,638.19,439.65,628.73,430.79Z"/><path class="cls-72" d="M370.89,196.39l2.23-4.39,2.07,2.26q6.13,14.85,12.28,29.68l-12.18-18.47C372.37,203.15,368.62,201.23,370.89,196.39Z"/><path class="cls-29" d="M522.41,32.69l-.09-6.09,15.94-.84c1.65,2.62-1.13,3.67-1.91,5.43L524.8,35Z"/><path class="cls-24" d="M633.77,352.92l36.78,13.31-.55.62c-4.47,4-9.24,1.94-13.52,0-7.69-3.4-16.64-4.16-23-10.56A3.11,3.11,0,0,1,633.77,352.92Z"/><path class="cls-73" d="M114.48,626.07c-1.94,10.51-6.82,19.08-16.25,24.64Z"/><path class="cls-74" d="M633.77,352.92c0,.72,0,1.43-.08,2.14-4.05,3.76-9.78-.86-13.86,2.77l-3.33.32-4.9-8.95Z"/><path class="cls-59" d="M468.7,546.09c-.83-2.29-1.67-4.59-2.5-6.89-6.88-7.18-10-15.09-4.79-24.63l.2-.18,6.93,20.73a7.86,7.86,0,0,1,1.12,2.4c.32,1.32.63,2.64.95,4C471.2,543.53,473,546.08,468.7,546.09Z"/><path class="cls-75" d="M47.49,160l-3.36.07L32.67,141.84l4.45-2.13Q42.31,149.84,47.49,160Z"/><path class="cls-76" d="M87,689.62l-2.15,0c-1.49-1.63-1.15-3.41-.41-5.22q4.73-12.17,9.46-24.32Z"/><path class="cls-77" d="M127.7,607.87a4.15,4.15,0,0,0,2.1.06c8.42,3.36,11.39,9.66,9.84,18.39-9.21,2.82-7.12-5.41-9.26-9.51l-4.53-4.09C126.46,611.1,127.08,609.49,127.7,607.87Z"/><path class="cls-78" d="M475.15,603.33c.86,1.07,1.73,2.14,2.6,3.2-.75,8.57.13,17.63-7.29,24.19Q472.8,617,475.15,603.33Z"/><path class="cls-79" d="M125.94,237.7l-2-2.45Q127,225,130.1,214.8l4.13,2c3.66,8.66-3.42,14-6.34,20.66l.12-.12A1.89,1.89,0,0,1,125.94,237.7Z"/><path class="cls-80" d="M93.46,81q1.16-2.44,2.3-4.9c6.41,9.94,6.34,21.76-.17,31.33L93.46,93.84Z"/><path class="cls-81" d="M132.88,321.36c.8-.84,1.61-1.68,2.41-2.53,7.6,5.46,8.88,12.6,5.54,21l-.9.1-.88-.2Q136,330.53,132.88,321.36Z"/><path class="cls-82" d="M468.7,546.09c.64-1.53,1.27-3.07,1.91-4.6l3.9,16.42-2.23,2.69Q470.5,553.34,468.7,546.09Z"/><path class="cls-83" d="M223.72,146.91l-5-2.42,14.77-3.36c1.26-.31,2.5-.55,3.32.86,0,.64,0,1.28-.07,1.93-.84,2.38-2.72,3.61-4.95,4.45C228.87,149.17,226.09,149.18,223.72,146.91Z"/><path class="cls-12" d="M536.35,31.19q.95-2.72,1.91-5.43l-.08,0c5.39-1.28,10.78-1.67,16.13.21,0,.76,0,1.52,0,2.28-4.24,2.73-9.35-.4-13.63,2Z"/><path class="cls-84" d="M492.88,153.08l-2.27-2.41c3.07-.54,6.13-1.17,9.22-1.49.35,0,.88,1.72,1.32,2.64Z"/><path class="cls-85" d="M776.5,620.15c0,1.16.07,2.31.1,3.47q-4.94-5.25-9.89-10.49a4.88,4.88,0,0,1,1.88-1C773.56,612.48,776.23,615.13,776.5,620.15Z"/><path class="cls-86" d="M554.31,26l-16.13-.21Z"/><path class="cls-87" d="M119.6,455.46a3.1,3.1,0,0,0,1.6,0c3.55,4.17,2.66,7.94-1,11.46a3.15,3.15,0,0,1-3.47,0c0-1.4,0-2.8.08-4.2.93-1.46.82-3.24,1.47-4.78Z"/><path class="cls-86" d="M540.69,30.3l13.63-2Z"/><path class="cls-88" d="M465.94,637.52l4.63-6.9Z"/><path class="cls-8" d="M423.48,181.3l-6.88,4.59-1.29-1.56c.75-4,2.79-6,7-4.29Z"/><path class="cls-89" d="M531.42,430.82l-6.07-.8,7.93-1.14Z"/><path class="cls-90" d="M413.71,335.21a1.37,1.37,0,0,1-.81-1.63l3.67.71C415.6,334.59,414.66,334.9,413.71,335.21Z"/><path class="cls-91" d="M236.8,142l-3.33-.86,4.57-.56A1.67,1.67,0,0,1,236.8,142Z"/><path class="cls-12" d="M518,27.72l-4.41,2.91-2.31-2Z"/><path class="cls-15" d="M443.19,444.2l-5.07-.33,5.07-1.77A14.72,14.72,0,0,0,443.19,444.2Z"/><path class="cls-6" d="M466,416.31l4.76-1.26Z"/><path class="cls-92" d="M449.78,468.79l-2.13.43c.14-1.4.28-2.8.43-4.19C448.65,466.29,449.21,467.54,449.78,468.79Z"/><path class="cls-1" d="M348.86,616.07l3-.83Z"/><path class="cls-14" d="M416,625.65l4.38,0Z"/><path class="cls-5" d="M84.47,684.42c.13,1.74.27,3.48.41,5.22-.62,0-1.25,0-1.87.05C83.5,687.93,84,686.17,84.47,684.42Z"/><path class="cls-44" d="M496.13,132.1l3-.06Z"/><path class="cls-93" d="M118.27,457.93l-1.47,4.78Z"/><path class="cls-93" d="M121,448.89c-.59,1.57-1.19,3.13-1.79,4.7Z"/><path class="cls-94" d="M123,294.5a1.84,1.84,0,0,1-.84,1.09l-.62-.12.25-.6A1.2,1.2,0,0,1,123,294.5Z"/><path class="cls-10" d="M469.66,537.52c-.37-.81-.75-1.61-1.12-2.4Z"/><path class="cls-95" d="M116.72,466.91h2.19a1.72,1.72,0,0,1-.29,2.25l-2.17.05Z"/><path class="cls-51" d="M508.81,135.12c.62,1,1.24,2,1.87,3Z"/><path class="cls-5" d="M85.29,757.82,87.11,760Z"/><path class="cls-7" d="M27.75,354.09l-2.69.82Z"/><path class="cls-4" d="M143.7,91.8a13.4,13.4,0,0,0-2.19.12c.17-1,.34-2,.52-3C142.59,89.9,143.15,90.85,143.7,91.8Z"/><path class="cls-96" d="M465.59,639.59l-1.49-1.4,1.93-.82C465.88,638.11,465.73,638.85,465.59,639.59Z"/><path class="cls-4" d="M413.65,64.67l-2.37-.29,2.37-1.21A2.93,2.93,0,0,1,413.65,64.67Z"/><path class="cls-2" d="M241.57,855.45l1.73-1.9Z"/><path class="cls-97" d="M288.84,360.29c21.32,20.39,37.85,43.8,45.68,72.7,5,6.46,8.78,13.31,7.22,21.94a8.78,8.78,0,0,1-2.3,4.82,3.06,3.06,0,0,1-3.26.45c-2.79-14.64-13-18.15-26.43-20.85-48-9.67-93.74-26.16-135.84-51.67-6.45-3.91-12.33-5-19-1.83-4.17-5.31-4.17-5.31,3.34-13.91a30.4,30.4,0,0,1,2.31-2.23c.77-.73,1.6-1.4,2.44-2.07s1.64-1.39,2.48-2.09c1.23-1.15,2.47-2.27,3.74-3.39,18.85-15.17,40-23.71,64.47-24,14.87-.15,28.33,2.48,40.12,12.2C278.37,354.2,283.85,356.94,288.84,360.29Z"/><path class="cls-98" d="M288.84,360.29c-41.89-27.47-82.08-24.52-120.68,6.79a2.06,2.06,0,0,1-1.51,1.47l-2.32.78a12.11,12.11,0,0,0-2.37,2.15v0c-11.14-.77-16.17-5.6-17-16.35-.1-1.36,0-2.72-.07-4.09,0,1.13,0,2.26-.05,3.38-.18,2.57-1.33,4.8-4.09,3.85-3.82-1.32-3.58-4.23-1.54-7.19,5.51-3.05,1.51-7.47,1.61-11.3l-5.55-21c-3.79-12.59,11.27-1.65,11.5-9.24,0-.31.26-.68.16-.91s-.51-.51-.79-.76c-1.74-3.18.67-4.24,2.79-5.46,2.73-.39,3.81-2.83,5.54-4.51a10.19,10.19,0,0,1,2.91-1.46,13.53,13.53,0,0,1,3.35-.35c19.16,6.77,38.41,12.19,59,13.62,18.93,1.31,36.62-2,54.27-7.52,16.92-5.32,32.94-12.57,47.56-22.73,10.1,1,15.47,8.74,21.7,15.27l6.21,2.36c-2.1.53-4.17,1.19-6.3,1.57-19.91,3.52-32.58,20.45-50.6,27.53-1.44.57-1.92,4.06-3.27,4.36C248.64,339.92,280.84,350.3,288.84,360.29Z"/><path class="cls-99" d="M442.79,344.5l27.63,8.77c-2.58,9.11,2.37,14.1,9.53,18.23,3.12,1.8,8.67.79,8.62,6.73-15.77,3.72-31.22,1.18-46.77-1.86-4.59-.9-9.59.25-14.4.46,9.49,6.87-6.89,16.13,2.63,23.85,10.68,8.65,5.5,13.72-5.44,15.94,4.87-14.31.55-27.75-6.45-39.51-6.74-11.31-3.13-16.89,6.75-21.76C431.27,352.41,438.25,350.48,442.79,344.5Z"/><path class="cls-90" d="M388.78,334.87l24.93,2L436,342.48c2.3,10.73.8,12.23-10.85,10.91-13.21-3.24-14.63,17.86-29.71,13.41C371.49,359.72,380,347.77,388.78,334.87Z"/><path class="cls-100" d="M339.56,456l-5-23,34.11,9.26-7.6,7.94q0,.69.06,1.41c-.61,2.36-2.06,4.28-3.24,6.38-1.65,2.63-3.42,5.13-6.47,6.3-3.87,1.05-7.34.55-10.16-2.46C339.27,460.32,342,457.41,339.56,456Z"/><path class="cls-101" d="M343.29,294.78,322.88,280.7c-13.27-8.39-18.48-30.1-10.43-43.4a4.51,4.51,0,0,1,3.45-.61c3.49,2.58,3.65,6.53,3.52,10.24-.5,14.26,5.31,25.58,15.55,34.95,6,6.44,14.92,4,22,7.1a1.76,1.76,0,0,1-.27,2.68Z"/><path class="cls-102" d="M368.55,235q2.42,6.93,4.84,13.85c1.48,2.83-.61,6.34,1.72,9-.07,2.89-.15,5.77-.23,8.66-.73,1.61-1.47,3.22-2.2,4.84a2.16,2.16,0,0,1-3.13-.37c-4.48-6.32-.65-14-3.36-20.58-4.27-17.26-13.41-29.55-32.44-31.77-1.55-1.05-2.52-2.35-2-4.34a8.74,8.74,0,0,1,4.64-2.51,51.24,51.24,0,0,1,8.93-.21C357.77,214.67,366.62,221.38,368.55,235Z"/><path class="cls-103" d="M425.12,353.39c8.34,1.08,10-4.53,10.85-10.91l6.82,2c-1,11.88-8.92,12.22-17.89,10.85C425,354.7,425,354,425.12,353.39Z"/><path class="cls-104" d="M370.89,271.35c.6,0,1.2,0,1.79,0-.94,10.21-6.5,16.79-15.93,20.33a14,14,0,0,1,.23-2A31,31,0,0,1,370.89,271.35Z"/><path class="cls-1" d="M139.91,626,129.8,607.93q-3.11-9.37-6.19-18.73c6.25-.67,9.5,4.08,13,7.78,32,34.31,90.9,44.12,134.85,16.83,11.55-7.17,22.69-14.7,32.72-23.82,3.54-2,6.88-4.78,11-5.49,11.85-2,18.86-8.16,18.46-21,1.31-4.78-2.35-7.62-4.39-11a83.65,83.65,0,0,1-11.57-38.11c-.27-4-.51-8.3,2.81-11.59a4,4,0,0,1,3.17.26c11.07,24.3,31.48,32.57,56.44,33a43.64,43.64,0,0,1,6.65.94c17.48,25.53,25.22,55.17,35.3,83.82-22,5.27-41.17-9-62.37-8.78-5.45.07-10.87,1.71-16.31,2.63-19.26,3.27-37.57,8.72-52,23l.09-.09c-19.09,8.91-41,33.58-31.93,42.37,17.58,17.08,10.43,33.83,14,50.55q-1.39,11.31-2.8,22.62L264,766.88c-3.66-8.16-8.51-10.64-17.07-5.5-5.68,3.42-12.81,4-19.57,4.06-8.64.1-15.5-2.62-17.22-12.39.63-8,.9-16,2.9-23.86,1.22-12.71-1.87-25.68,2-38.28,1.7-5.49-3.14-6.43-6.14-7.78C201,679.55,193.09,676,185.4,672c-17.36-9.11-31.1-22.4-43.11-37.66C140.37,631.85,138.86,629.28,139.91,626Z"/><path class="cls-105" d="M212.28,753.44c10.47,17.52,25.81,8.85,36.21,3.18,15.76-8.6,16.17-2,15.48,10.26v0c-1.42,1.35-1,3.4-1.9,5-7.62,23.1-32.44,21.49-48.32,32.76-6,4.26-10.09-6-11.39-12.89C200.43,777.6,201.72,764.31,212.28,753.44Z"/><path class="cls-106" d="M182,841.65c.24-1.35.47-2.7.71-4,8.95-2.74,17.18-3.06,22.43,6.68l0,0c-7.24,11.1-11.28,12.31-22.93,6.89l0,0C180.68,848,180.92,844.83,182,841.65Z"/><path class="cls-107" d="M211.69,844.14l2.43-9c4.94-3.6,10.11-7.33,16-2.39,1.24,1,1.41,5.22.35,6.81C225.79,846.59,219,846.87,211.69,844.14Z"/><path class="cls-108" d="M212.28,753.44l-9.93,38.29-2.27-5q.07-3.48.17-7c-2-2.83-.91-5.75-.17-8.63,3.44-13.4,7.63-26.63,8.55-40.58a8.89,8.89,0,0,1,3.28-6.88c4.19-1.21,2.71,3,4.14,4.39Z"/><path class="cls-109" d="M182.31,830.52q-2.26,4.53-4.52,9.07c-7.11-1.91-4.65-6.54-2.49-10.34C178.27,824,180.41,827.51,182.31,830.52Z"/><path class="cls-1" d="M262.06,771.85q1-2.48,1.9-5Q263,769.38,262.06,771.85Z"/><path class="cls-110" d="M275.23,769.2q1.29-7.89,2.57-15.77c4.34-1.24,10.34-9.72,11.2-5.4C290.77,757,281.89,763.29,275.23,769.2Z"/><path class="cls-111" d="M98.34,732.83a.92.92,0,0,1,.46,1.25c.48,1.85.63,3.8,1.52,5.54.22,1.35.45,2.71.67,4.06a3,3,0,0,1,.11,3,1.7,1.7,0,0,1-2.64-.26c-12.64-45.17,2.5-84.14,26.88-121.06,1.82-2.76,3.36-5.7,5-8.56l9.53,9.17c18,24.51,40.35,43.35,69.34,53.46,19.5,6.8,2.66,21.45,6.82,31.79,1.93,4.81.1,11.15,0,16.8l-2.34-4.84c5.37-28.79-7.24-44.42-33.92-55.43-14.63-6-26.15-21-37.37-33.48-6.41-7.14-8.17-5-12.95.7-17.68,21.27-26.15,46.32-31.37,72.87-1.23,1.93-.69,4.1-.82,6.18v14.33C97.3,729.92,97.11,731.54,98.34,732.83Z"/><path class="cls-112" d="M98.46,746.43c.75,0,1.5,0,2.25,0,.67-.87,1.31-.86,1.94,0a1.65,1.65,0,0,1,.63,1.63A11.57,11.57,0,0,1,104,751a2.41,2.41,0,0,1-1.37,2.38Z"/><path class="cls-113" d="M102.66,753.41l.29-2.55a1.32,1.32,0,0,1,2.12.21l2.66,4.18Z"/><path class="cls-114" d="M488.57,378.23c-6-3.34-12.05-6.66-18.05-10-8.7-4.9-8.12-9.89-.1-14.93,11.25,1.41,20.5,7,29.12,14C504.15,379.17,495,377.39,488.57,378.23Z"/><path class="cls-115" d="M139.22,351.1l.6,4.38c13.33-2.92,10.26,16.93,22.14,16L152.75,385c-2.1,8.88-5.79,16.7-14.29,21.29-5.36.72-4.14,9.24-10.49,8.89-12.41,1.34-24.82.39-37.2.61-11.26.2-19-6-26-13.66-4-4.4-3.53-8.87,1.37-12.53,1.81-1.35,3.82-2.42,5.62-3.77,10.73-8.07,10.78-10.06,1.32-20.61-2.45-2.72-7.66-5.32-1.89-9.8l9.52-4.14C100.2,349.52,119.7,346.27,139.22,351.1Z"/><path class="cls-116" d="M71.18,355.43c12.91,15.75,10.44,27.39-5.35,41.2C61.72,400.22,78,411.18,88.5,412c13.86,1.11,27.87.38,41.82.43,4,7.45,1.36,13.43-4.17,18.76-2.18,18.32-13.9,8.48-21.6,6.55-12-3-23.53-7.84-35.26-11.9-.46-9-4.64-17.08-6.78-25.14C58.6,386,83.69,374.07,71.18,355.43Z"/><path class="cls-117" d="M5.29,371.31c4.8-11.16,15.16-11.77,25.06-13.27,6.19,7.65,7.64,15.41-2.6,20.1C19.12,382.09,9.4,384.61,5.29,371.31Z"/><path class="cls-118" d="M497.61,48.58Q479.72,71.4,461.84,94.23c-6.48,11.32-16.43,19.58-25.53,28.51-15.32,15-27.11,31.58-26.23,54.38.17,4.55-2.15,7.88-5.42,10.7-8.07,4.23-15.48,1.08-22.89-2.06-11.39-13.11-8.24-27-.38-39.69C409.37,100.87,449.79,70.21,497.61,48.58Z"/><path class="cls-119" d="M404.66,187.82c-1.07-43.54,27.91-68.65,57.18-93.59-.39,9.82-8.25,19.08-2.21,29.38l4.29,5.46,17.42,3.13L467.57,141l-45.24,39-7,4.29Z"/><path class="cls-4" d="M141.56,91.9q8,17,15.92,34.07c-9.22,18.14-14.72.06-21.63-2.45-4.28-1.55-8-4.51-12-6.84-9.89-28.28-21.09-56-36.84-81.59,0-.75,0-1.49,0-2.23l7.09-.16Z"/><path class="cls-44" d="M95.59,107.45q.09-15.66.17-31.33-1.11-11.25-2.23-22.51c15.81,28.53,25,59.58,34.51,90.53q.08,5.58.17,11.15l-1.37.82c-3.69-2.43-31.15-39.29-32.2-43.24Z"/><path class="cls-44" d="M129.66,156.26c1,11.67,2.62,23.32,2.87,35,.13,6.27,3.44,15.91-4.46,18-6.67,1.74-10.82-6.48-14-12.57,8.73-12.15,7.2-27.64,13.18-40.68l.92-.69A11.81,11.81,0,0,0,129.66,156.26Z"/><path class="cls-120" d="M180.63,162.47l3.9-.22c3.17,4,.4,7.21-2,9.72-4.36,4.5-4.8,9.68-4.11,15.34-5.65,4-13.27,4.79-17.81,10.69a44.79,44.79,0,0,1-3.63,2.79,6,6,0,0,1-2.88,1c-3.45-1.39-6.78-2.87-5.74-7.64l0,.07a5.16,5.16,0,0,0,1.28-3.68,15.85,15.85,0,0,1,.89-2.62,13.5,13.5,0,0,1,2.26-3.65c5.44-4.21,8.26-11.58,15.87-13.12Z"/><path class="cls-121" d="M168.58,171.13l-15.64,16.53a5.64,5.64,0,0,0-2.09,2.08l-.11.15a2.33,2.33,0,0,1-2,.87c-.17-1.16-.34-2.31-.5-3.47C154.82,181.65,157.46,171,168.58,171.13Z"/><path class="cls-92" d="M461.41,514.57q2.38,12.31,4.79,24.63l-9,16.2c-13.21-6.11-24.68-3.39-34.65,6.88-3.2,2.19-.9,11.42-9.13,7.15h0c-.92-1.46-.51-3.64-2.45-4.54-8.48-17.41-19.81-32.8-33.1-46.8C365,505.5,355,491.17,354.05,472.55c-.51-10.26,4.08-14.73,14-16.47l-.12-.36a3.66,3.66,0,0,1,2.35,2.95q3.4,5.29,6.83,10.59l-2-11.39c1.5-12,4.81-15.38,16.44-16.64,19.24-4.22,23.51,9,27.18,23.21,1,3.87,2.67,7.56,4,11.34-.19-4.16-.16-8.35-.65-12.47-.3-2.57-1.37-5-2.1-7.55-.43-.95-.81-1.92-1.15-2.91,0-.48,0-1,0-1.46,2.78-8.82,8.56-8.06,15.14-4.78q6.92,11.25,13.82,22.52A130.62,130.62,0,0,0,461.41,514.57Z"/><path class="cls-122" d="M422.52,562.28c9-15.21,20-20.2,34.65-6.88l4.53,8.71a3.16,3.16,0,0,1,.07,3c-5.25,1.44-7.19-3.05-10-5.78-4.23-4.11-8.63-7.79-14.93-5-6.78,3-8.54,9-8.43,15.91.1,5.45,2.39,10.24,4.27,15.16,2.83,7.52,10.54,11.57,13.47,19-.58,1.77-1.57,2.74-3.53,1.84C425.55,597.5,420.64,581.38,422.52,562.28Z"/><path class="cls-123" d="M450.09,643.45c-7.76,1.81-12.11-2.87-16-8.46a7,7,0,0,1-1.83-2.15,2.14,2.14,0,0,1-.86-1.68c5.7-.74,11.66-2.83,17-1.81,4.14.79,7.53,5.49,11.26,8.44Z"/><path class="cls-124" d="M461.14,567.5c.19-1.13.37-2.26.56-3.39,6.55,14.15,6.87,28.24-2.17,41.27-4,5.76-10.45,6.68-16.91,2.9l2.75-2.44q17.64-9.11,13.3-28.55C458.35,573.71,458.11,570.18,461.14,567.5Z"/><path class="cls-93" d="M137.09,405.84,152.75,385c11-13.76,19.66-1.75,28.24,3.07,43.09,24.25,88.8,41.1,137.53,49.16,14,2.32,20,8.74,18,22.7l1,1.25c0,.54-.05,1.08-.06,1.62-3.39,7.17-9.9,12.58-11.64,20.71-2.36,6.89-3.43,14.14-6.26,20.88-1.29,14.4,1.56,28.09,6.84,41.37a14,14,0,0,1,1.13,5.1,13.07,13.07,0,0,1-.68,3.4c-1.64,3.66-3.06,7.41-4.43,11.2a17.75,17.75,0,0,1-1.9,3c-13,27.54-38.37,29.58-64,31.63-47.93,3.85-93.95-2.61-137.34-24.28a2.31,2.31,0,0,1-.43-2c-1.22-1.33-.85-3.25-1.71-4.72-9.5-33.49-4.4-66.76,1.57-100,.09-.75.19-1.5.29-2.25q1.14-5.72,2.29-11.44l7-20.09C129.14,424.91,130.64,414.63,137.09,405.84Z"/><path class="cls-125" d="M137.09,405.84q-4.43,14.78-8.84,29.53l-2.1-4.17,4.17-18.75C134,411.71,129.89,403,137.09,405.84Z"/><path class="cls-118" d="M499.93,45.85l-2.47,2.87Z"/><path class="cls-29" d="M517.67,34.84l2.6-1.73Z"/><path class="cls-126" d="M148.32,194.13l6.51,6.86c3.4,2.07,2.94,5.78,3.83,8.94,3.25,11.53,8.32,13.19,18.59,6.12a35.09,35.09,0,0,1,3.42-3.37,12.69,12.69,0,0,1,4.28-2.3c15.34-4.85,31.15-7.82,46.43-13.18,15.05-5.27,25.72-16.65,38.88-24.43,6.31-3.73,6.11-11.53,5.11-18.52-.57-4-3.48-7.62-2.24-12,19.8.35,38.23,6.6,56.6,13.15,18,9.3,31.37,23.34,41.16,41q2.21,4.53,4.4,9.08c-10.58,7.93-.22,20.65-6.74,29.5-6.54-7.88-11-18-22.32-20.75-3.37-1-6.73-1.29-10.07.14l-3.88.77c-6.95,6.68-12.31,14.64-17.9,22.42-7.37,16.4.84,29.72,8.5,43.15C274.32,316.48,222.1,323.52,166,300.87c-2.72-1.11-5.75-1.45-8.64-2.15-1.16-14.81,2.06-29.35,2.69-44-4.7-17.06-11.79-29.63-32.19-17.23q3.18-10.33,6.35-20.67Z"/><path class="cls-1" d="M375.11,257.83c-.57-3-1.14-6-1.72-9C374,251.82,374.54,254.83,375.11,257.83Z"/><path class="cls-127" d="M386.71,537.07c-24,9.81-61.08-10-64.07-34.14-2.59-4.17-2.59-8,1.28-11.46,11.05,18.3,28.58,23.06,48.35,23.13,3.39,1,3.53,4.41,5.16,6.72Z"/><path class="cls-128" d="M377.43,521.32l-4.34-4.58c-16-10.79-27.1-39.61-20.87-54.28q1.84-3.54,3.71-7.07a16.24,16.24,0,0,0,5.28-5l-.18-.18c3.14,1,7.36.72,7,5.89-21,12.88-9.26,27.45-2,41.6,3.59,7,7.85,13.62,11.8,20.41Z"/><path class="cls-10" d="M411,564.89q1.21,2.28,2.45,4.54Q412.17,567.17,411,564.89Z"/><path class="cls-10" d="M432.29,632.84l1.83,2.15Z"/><path class="cls-89" d="M619.83,357.83c.77-1.69-9.67-7.64,2-5.22l11.89,2.45L670,366.85l77.58,33.76c4.26,4.34,4.61,9.07,1.57,14.27-1.92,3.26-3.56,6.9-6.41,9.26-10,8.33-18.39,15.48-10.24,31.34,4.73,9.22-13.47,23.93-26.36,22.67-6.47-.63-12.68-1.34-18.46,2.71-7.12,5-9.55,11.84-10.06,20.36-.83,14-5.8,17.06-18.83,13l-36.49-20c-28.93-20.09-61-32.64-95.21-40.29-7-7.67-30.72,6.9-24.55-18.44l29-3.07,97.17-1.64L661,437l15.83.68C674.59,433.09,673,428,670,424,653.45,401.8,636.58,379.86,619.83,357.83Z"/><path class="cls-129" d="M884.94,481.23l31.45,27.47,38.5,38.55,13.55,21.4c-8-2.55-16.21-4.59-24-7.72-38.34-15.39-76.79-30.42-117.08-40l-57.65-15.24.17-.6c-6-3.37-2-6.48.77-8.48,6.1-4.36,11.47-9.91,18.91-12.21,6.21-1.93,5.89-4.93,1.2-8.47-3-2.27-6.33-4.11-9.24-6.53s-6.5-5-5-9.27c1.7-4.79,6.2-4.69,10.53-4.46,2.45.13,5.61,2.61,7.14,0,1-1.64-2.5-3.33-3.67-5.22-5.29-8.57-1.17-20.13,8.69-24.41Z"/><path class="cls-130" d="M391.49,441.23c-7.45,3.59-13.59,8.48-16.44,16.64-1.9-7.16-5.32-14.9,2-20.61,3.18-2.5,8.27-2.55,12.49-3.72Q390.49,437.4,391.49,441.23Z"/><path class="cls-131" d="M433.9,446.61c-6-1.62-11.23-.43-15.14,4.78-1.26-4.46-4.67-12-3.42-12.88,7.75-5.45,11.74,5.74,18.81,5.62C434.07,445,434,445.78,433.9,446.61Z"/><path class="cls-131" d="M418.79,452.85l1.15,2.91Z"/><path class="cls-128" d="M370.26,458.67c-.79-1-1.57-2-2.35-2.95C368.69,456.7,369.47,457.69,370.26,458.67Z"/><path class="cls-132" d="M799.25,426c-7.13,9.21-14.29,18.32-.56,28.1,1.85,1.31,2.6,4.19,3.86,6.34-3.46-.13-6.93-.23-10.4-.38-4.56-.21-9.68-5.13-13.14.39-.6,1,5.26,6.86,8.88,9.46,34.78,25-16,13.71-11.4,26.49.6,1.69-9.9,1.2-6.59,8.65L739,501.59c2.71,9.89,5.16,19.87,8.23,29.65,2.59,8.23,5.9,16.24,8.89,24.34-1.27,2.45.94,4.19,1.26,6.32.79,5.38-3,8.3-6.31,5.31-9.46-8.49-16.75-4-24.41,2l-47.52-38.77-20.3-16.2c12.38.92,16.33-4.56,16.08-17.07-.32-16.22,10.63-23.33,25.78-23.3,22.31,0,38-4,23.06-31.26-3.47-6.32,1.23-8.33,5.53-11.26,10.73-7.33,21-15.25,18.34-30.76l31.29,11.69Z"/><path class="cls-133" d="M726.61,569.23c5.76-9.82,11.3-19,23.17-5.67,4.13,4.64,5,3.84,6.29-8q11.64,31.54,23.23,63.11a1.93,1.93,0,0,1-.75,1.73c-.54.24-1.35-.15-2-.26l-7.93-8.06q-19.83-20.28-39.69-40.54a14.43,14.43,0,0,0-2.28-2.34Z"/><path class="cls-134" d="M127.29,156c-1.85,14.39,2.7,30.86-13.18,40.68l0,0c-.37-1.08-1.42-1.62-2-2.56l-14.43-22.6C83.18,149.71,73,122.45,39.51,124c3.14-5.4,3.66-5.52,18-4.15,13.86,5.6,29.31,19.68,37.16-6.95Z"/><path class="cls-126" d="M148.75,190.76a6.55,6.55,0,0,1,2-.87l-2.46,4.31C148.44,193.05,148.59,191.91,148.75,190.76Z"/><path class="cls-44" d="M112.17,194.12l2,2.56Z"/><path class="cls-135" d="M119.19,575.83c3.19-4.83,6.06-2.64,10.14-.52C182,602.65,237.74,600.93,293.84,590.9c13.28-2.37,17.81-17.44,26.82-26.2,3.61,8.57-2.19,14.19-6.73,19.8-2,2.53-5,4.46-6.85,7.3-70,57.54-117.93,56.86-183.47-2.6Q121.41,582.51,119.19,575.83Z"/><path class="cls-135" d="M117.05,569.16l1.71,4.72Z"/><path class="cls-132" d="M726.61,569.22l2.28,2.34Z"/><path class="cls-134" d="M123.94,285.13c-.44-7.13-1.5-14.29-1.18-21.39.53-12,2.27-25.92,16-27.82,13-1.79,15.32,12.05,19.16,21.75,5.28,12,1.85,23.78-1.05,35.5-8.24,1.68-20.93-6.09-26.27-16.06-.72-1.35-.33-3.15-1.79-4.14a21.88,21.88,0,0,1,.25,4.49c-.21,5.62,5.71,12.41-3,16.45l-.58.34-.14-4C124.6,288.6,124.63,286.77,123.94,285.13Z"/><path class="cls-136" d="M154.61,294,158,257.67l2.11-3c5,15,2,29.59-2.69,44l-2.31,0A3.7,3.7,0,0,1,154.61,294Z"/><path class="cls-94" d="M123.94,285.13c.48,1.7,1,3.39,1.42,5.09C124.89,288.52,124.41,286.83,123.94,285.13Z"/><path class="cls-126" d="M125.94,237.7a4.59,4.59,0,0,1,2.07-.37Z"/><path class="cls-2" d="M182.2,851.14c8.57.78,16.62-.14,22.93-6.89-.94,8.3,11.37,23.93-11.17,20.27Z"/><path class="cls-91" d="M273.13,142.27c20.49,28.15-6.2,37.35-21.42,48-19.55,13.74-43.28,19.13-67.18,21.85-1.77-2.26-.68-4,1-5.54,7.21-5.42,16.32-5.08,24.39-8,10.26-3.71,20.32-7.74,29.68-13.35,3.7-2.22,7.84-6.46,2.61-9.52-12.38-7.23-10.85-18.51-10.79-29.71l5.27-2.12Z"/><path class="cls-2" d="M182,841.65l.21,9.45Z"/><path class="cls-44" d="M511.5,132.87l-2.64-2.44Z"/><path class="cls-137" d="M231.46,146c1.82,13.92,18.88,30.63,16.8,34C237.79,196.62,217,199.43,199,205.28c-3.94,1.28-8.28,1.31-12.43,1.92-4.27-4.95-5.55-10.8-5.09-17.13,11.9-5.46,23.21-11.77,32.29-21.63,5.3-5.75,9.3-11.81,8.93-20a4.45,4.45,0,0,1,1-1.55Z"/><path class="cls-138" d="M222.7,148.46c9,4.86,2.35,11.36-.28,14.35-10.86,12.34-20.65,27.08-40.06,26.83-2.67,1.05-3.92-.31-4.57-2.69-13.42-12.53,8.21-15.44,6.74-24.7l0,.05a6.85,6.85,0,0,1,2.49-1.54Z"/><path class="cls-120" d="M187,160.76l-2.49,1.54Z"/><path class="cls-94" d="M154.61,294c.16,1.58.31,3.17.47,4.75l.07-.12c-1.49,1.74-2.22,4.3-5,4.63l-4,4.67c-12.86,4.22-17.68-3.15-20.07-14-.14-8.8-.41-17.6-.3-26.4,0-1.79,1.44-3.56,2.22-5.33,1.25,1.34,3.6,2.7,3.57,4C131.21,282.28,145.52,285.94,154.61,294Z"/><path class="cls-139" d="M339.56,456l7.28-5.36-5.7,9.62a3,3,0,0,1-2.51.45l-.37-1.3C338.69,458.25,339.13,457.11,339.56,456Z"/><path class="cls-115" d="M162,371.48l2.37-2.15Z"/><path class="cls-115" d="M166.65,368.55a3,3,0,0,1,1.52-1.47Z"/><path class="cls-139" d="M336.47,462.39c0-.82,0-1.63,0-2.45a13.16,13.16,0,0,0,1.75-.55c.27.32.53.65.79,1C339.09,462.2,338.3,463,336.47,462.39Z"/><path class="cls-136" d="M150.15,303.25l5-4.63C154.48,301.24,156.32,306.58,150.15,303.25Z"/><path class="cls-140" d="M336.47,462.39l2.58-2a5.09,5.09,0,0,0,2.09-.14l11.08,2.23c-1.29,21.28,10.83,37.38,20.87,54.28-20-.65-42.42,3.18-48-25.17-2.53-2.36-1.75-5.13-1-7.88,2.79-7.94,7.63-14.68,12.43-21.45Z"/><path class="cls-18" d="M361.21,450.37l-5.28,5Z"/><path class="cls-134" d="M334.28,216.89c21.29-.57,29.7,13.18,34.37,31.07.78,8.14.73,8.25-5.9,5.5-3.67-1.52-4.7,1.46-5.95,3.38-5.27,8.14-11.65,15.47-16.95,23.59-1.25,1.92-1.54,5.37-5.28,4.52-17.71-11.35-19.8-28.83-18.63-47.6C318.22,227.08,323.2,219.25,334.28,216.89Z"/><path class="cls-94" d="M334.57,285c7.69-11.73,15.1-23.67,23.32-35,1.64-2.26,8.44-9.3,8.26,2.26,0,.8,1.09,1.62,1.68,2.42q.41-3.33.82-6.66,1.13,11.68,2.24,23.39L357,289.71C348.84,291.29,340.89,292,334.57,285Z"/><path class="cls-141" d="M334.28,216.89c-8.8,4.4-13.79,12.24-18.34,20.46l-.77.21h-.79c1.81-10.81,7-18.88,17.9-22.43Z"/><path class="cls-141" d="M336.16,214.36l10.07-.14Z"/><path class="cls-142" d="M307.08,591.8l13.59-27.1.08-.12c1.92-3.55,2.54-7.61,4.46-11.16l.15-.19a4.26,4.26,0,0,1,2.91-1.17c5.11,2.62,7.68,7,8.7,12.53C339.45,587.39,318.27,584.09,307.08,591.8Z"/><path class="cls-143" d="M337,564.59l-9.18-11.78c-2-.69-1.12-3.13-2.51-4.19-4.87-14.72-10-29.39-6.67-45.32a1.83,1.83,0,0,1,2.66.08c-2.28,20.92,4.19,39.29,16.05,56.19C338.06,560.63,337.13,562.89,337,564.59Z"/><path class="cls-144" d="M321.27,503.38l-2.66-.08q2.53-11.26,5.06-22.53c2-.3,2.86.37,2.11,2.45-.23,2.78-.46,5.57-.68,8.35l-2.46,11.36A6.66,6.66,0,0,1,321.27,503.38Z"/><path class="cls-5" d="M96.15,730.56q.06-9,.11-18.06c.48-1.13,1.06-1.25,1.76-.18l-.18,18.29-.86.66Z"/><path class="cls-112" d="M98,712.32a13,13,0,0,0-1.76.18l1.84-4.65C98.07,709.34,98.05,710.83,98,712.32Z"/><path class="cls-112" d="M100.32,739.62q-.76-2.77-1.52-5.54Q99.55,736.84,100.32,739.62Z"/><path class="cls-112" d="M96.15,730.56a7.36,7.36,0,0,0,1.69.05c.17.74.33,1.48.5,2.22Z"/><path class="cls-5" d="M105.07,751.07a10.63,10.63,0,0,1-2.11-.21c.1-.91.21-1.82.32-2.73Z"/><path class="cls-5" d="M102.65,746.5l-1.94,0c.09-.92.19-1.84.28-2.77C101.54,744.62,102.09,745.56,102.65,746.5Z"/><path class="cls-145" d="M177.79,187q2.28,1.35,4.57,2.69,2.1,8.78,4.21,17.56l-2,5-2.5,2.36a1.92,1.92,0,0,1-2.59-.4c-1.08-.21-2.15-1.18-3.3-.12,1.31.09,2.67-.21,3.89.59a1.86,1.86,0,0,1,.7,1.7c-.09.62-.22.93-.38.93-4.17,6.89-10.72,8.51-17.44,5.85-10.24-4.07-9-13.35-8.08-22.07a1.67,1.67,0,0,0,.66-1.63,5.15,5.15,0,0,1,1.84-2.79C163,190.87,168.94,185.83,177.79,187Z"/><path class="cls-126" d="M157.33,196.57c-.61.93-1.23,1.86-1.85,2.79C156.1,198.43,156.72,197.5,157.33,196.57Z"/><path class="cls-126" d="M150.85,189.74l2.09-2.08Z"/><path class="cls-146" d="M461.14,567.5c.05,3.59.09,7.19.14,10.78-7.13,12.77-19.8,9.9-31,11.05-5.5-12.44-10.78-26.34,2.85-35.53C447.49,544.07,453.65,558.85,461.14,567.5Z"/><path class="cls-147" d="M430.23,589.33l31-11.05c1.62,13.2,4.61,27.2-15.91,27.56Z"/><path class="cls-148" d="M325.78,483.22l-2.11-2.45,12.88-18.53Z"/><path class="cls-135" d="M325.21,553.42Q323,559,320.75,564.58,323,559,325.21,553.42Z"/><path class="cls-135" d="M325.28,548.62l2.52,4.19-2.44.42C325.33,551.69,325.31,550.15,325.28,548.62Z"/><path class="cls-149" d="M304.72,212.11c-10.65-.92-16.77-7.32-17.24-17.39-.42-9,4.79-15.57,13.88-18.36,10.29-3.16,17.12,2.19,21.43,10.24,5,9.28,1.83,17.47-6.65,23.56-1.18.65-2,.17-2.58-.89-1.1-1.9,1.87-6-2.88-5.82-2.5.09-3.72,2.24-4.43,4.47A17.1,17.1,0,0,1,304.72,212.11Z"/><path class="cls-150" d="M214.06,244.05c13.43-.77,26.86-1.51,40.29-2.31,7.82-.46,15.73-.42,23.38-1.81,3.4-.62,6.25-4.2,9.35-6.43.05,1,.52,2.52.06,2.9-3.95,3.18-7.92,8.55-12.15,8.79-20.26,1.17-40.6.93-60.91,1.19-.81-.52-1.08-1-.82-1.55S213.79,244.05,214.06,244.05Z"/><path class="cls-151" d="M230.75,223.75c-4.65-.51-10.67-1.15-10-6.57.93-7.41,8.13-4,12.84-4.7,4.38-.61,9.87.33,9.52,4.87C242.61,224.16,235.44,222.62,230.75,223.75Z"/><path class="cls-152" d="M304.72,212.11c-3.31-4-4.08-8.24,1.19-10.8,3.4-1.66,8.38-3.5,11.24-2.19,7.9,3.62-5.08,6.79-1,11Z"/><path class="cls-153" d="M214.06,244.05c0,.77,0,1.55,0,2.33-8.11,3.28-16.3,6.12-24.49.43-1.08-.75-3.42-5.35.34-3.37C198.38,247.9,206.08,244,214.06,244.05Z"/><path class="cls-154" d="M180.35,217.21c-.09-.86-.18-1.72-.28-2.58h0a12.77,12.77,0,0,1,1.95-.12Z"/><path class="cls-155" d="M183.61,197.13c-4.57,3-7.52,6.41-10,6.1-2.66-.34-4.88-4.19-7.3-6.51,2.45-2.38,4.76-6.45,7.38-6.66S179,193.66,183.61,197.13Z"/><path class="cls-154" d="M180.07,214.63l-13.28,4.27c.6-1.74.75-4.56,1.88-5,3.73-1.58,8.27-7.89,11.41.77Z"/><path class="cls-156" d="M301.54,179.27c5.47-2.16,9.95-.36,11.55,4.91.65,2.13-1.8,7-3.85,7.74-2.89,1-8,.5-9.88-1.5-3.34-3.46-3.17-8.19,2.05-11Z"/><polygon class="cls-126" points="301.54 179.27 301.4 179.37 301.29 178.97 301.54 179.27"/><path class="cls-157" d="M234.51,216c-2.15.62-3.43,1.24-4.72,1.26-.68,0-1.39-1-2.09-1.55a15.67,15.67,0,0,1,3.64-1.37C232.06,214.21,232.9,215.07,234.51,216Z"/></g></g></svg>